G04 #@! TF.FileFunction,Legend,Bot*
%FSLAX46Y46*%
G04 Gerber Fmt 4.6, Leading zero omitted, Abs format (unit mm)*
G04 Created by KiCad (PCBNEW (2015-02-20 BZR 5435)-product) date Mon 23 Feb 2015 11:51:58 AM EST*
%MOMM*%
G01*
G04 APERTURE LIST*
%ADD10C,0.100000*%
%ADD11C,0.180000*%
%ADD12C,0.150000*%
%ADD13C,0.700000*%
%ADD14C,2.350000*%
%ADD15C,1.000000*%
%ADD16R,1.000000X1.000000*%
%ADD17C,3.000000*%
%ADD18C,2.000000*%
%ADD19C,9.000000*%
%ADD20R,0.600000X0.600000*%
%ADD21R,1.998980X1.998980*%
%ADD22C,1.998980*%
%ADD23R,1.524000X2.286000*%
%ADD24O,1.524000X2.286000*%
%ADD25R,1.500000X1.500000*%
%ADD26C,1.500000*%
%ADD27C,1.300000*%
%ADD28C,5.000000*%
%ADD29C,0.300000*%
G04 APERTURE END LIST*
D10*
D11*
X220785714Y-153452381D02*
X220785714Y-152452381D01*
X220571429Y-152452381D01*
X220442857Y-152500000D01*
X220357143Y-152595238D01*
X220314286Y-152690476D01*
X220271429Y-152880952D01*
X220271429Y-153023810D01*
X220314286Y-153214286D01*
X220357143Y-153309524D01*
X220442857Y-153404762D01*
X220571429Y-153452381D01*
X220785714Y-153452381D01*
X219714286Y-152452381D02*
X219542857Y-152452381D01*
X219457143Y-152500000D01*
X219371429Y-152595238D01*
X219328571Y-152785714D01*
X219328571Y-153119048D01*
X219371429Y-153309524D01*
X219457143Y-153404762D01*
X219542857Y-153452381D01*
X219714286Y-153452381D01*
X219800000Y-153404762D01*
X219885714Y-153309524D01*
X219928571Y-153119048D01*
X219928571Y-152785714D01*
X219885714Y-152595238D01*
X219800000Y-152500000D01*
X219714286Y-152452381D01*
X218257143Y-153452381D02*
X218257143Y-152452381D01*
X217742858Y-153452381D01*
X217742858Y-152452381D01*
X217142858Y-152452381D02*
X216971429Y-152452381D01*
X216885715Y-152500000D01*
X216800001Y-152595238D01*
X216757143Y-152785714D01*
X216757143Y-153119048D01*
X216800001Y-153309524D01*
X216885715Y-153404762D01*
X216971429Y-153452381D01*
X217142858Y-153452381D01*
X217228572Y-153404762D01*
X217314286Y-153309524D01*
X217357143Y-153119048D01*
X217357143Y-152785714D01*
X217314286Y-152595238D01*
X217228572Y-152500000D01*
X217142858Y-152452381D01*
X216500001Y-152452381D02*
X215985715Y-152452381D01*
X216242858Y-153452381D02*
X216242858Y-152452381D01*
X214828573Y-152452381D02*
X214657144Y-152452381D01*
X214571430Y-152500000D01*
X214485716Y-152595238D01*
X214442858Y-152785714D01*
X214442858Y-153119048D01*
X214485716Y-153309524D01*
X214571430Y-153404762D01*
X214657144Y-153452381D01*
X214828573Y-153452381D01*
X214914287Y-153404762D01*
X215000001Y-153309524D01*
X215042858Y-153119048D01*
X215042858Y-152785714D01*
X215000001Y-152595238D01*
X214914287Y-152500000D01*
X214828573Y-152452381D01*
X213757144Y-152928571D02*
X213628573Y-152976190D01*
X213585716Y-153023810D01*
X213542859Y-153119048D01*
X213542859Y-153261905D01*
X213585716Y-153357143D01*
X213628573Y-153404762D01*
X213714287Y-153452381D01*
X214057144Y-153452381D01*
X214057144Y-152452381D01*
X213757144Y-152452381D01*
X213671430Y-152500000D01*
X213628573Y-152547619D01*
X213585716Y-152642857D01*
X213585716Y-152738095D01*
X213628573Y-152833333D01*
X213671430Y-152880952D01*
X213757144Y-152928571D01*
X214057144Y-152928571D01*
X213200001Y-153404762D02*
X213071430Y-153452381D01*
X212857144Y-153452381D01*
X212771430Y-153404762D01*
X212728573Y-153357143D01*
X212685716Y-153261905D01*
X212685716Y-153166667D01*
X212728573Y-153071429D01*
X212771430Y-153023810D01*
X212857144Y-152976190D01*
X213028573Y-152928571D01*
X213114287Y-152880952D01*
X213157144Y-152833333D01*
X213200001Y-152738095D01*
X213200001Y-152642857D01*
X213157144Y-152547619D01*
X213114287Y-152500000D01*
X213028573Y-152452381D01*
X212814287Y-152452381D01*
X212685716Y-152500000D01*
X212428573Y-152452381D02*
X211914287Y-152452381D01*
X212171430Y-153452381D02*
X212171430Y-152452381D01*
X211100002Y-153452381D02*
X211400002Y-152976190D01*
X211614287Y-153452381D02*
X211614287Y-152452381D01*
X211271430Y-152452381D01*
X211185716Y-152500000D01*
X211142859Y-152547619D01*
X211100002Y-152642857D01*
X211100002Y-152785714D01*
X211142859Y-152880952D01*
X211185716Y-152928571D01*
X211271430Y-152976190D01*
X211614287Y-152976190D01*
X210714287Y-152452381D02*
X210714287Y-153261905D01*
X210671430Y-153357143D01*
X210628573Y-153404762D01*
X210542859Y-153452381D01*
X210371430Y-153452381D01*
X210285716Y-153404762D01*
X210242859Y-153357143D01*
X210200002Y-153261905D01*
X210200002Y-152452381D01*
X209257145Y-153357143D02*
X209300002Y-153404762D01*
X209428573Y-153452381D01*
X209514287Y-153452381D01*
X209642859Y-153404762D01*
X209728573Y-153309524D01*
X209771430Y-153214286D01*
X209814287Y-153023810D01*
X209814287Y-152880952D01*
X209771430Y-152690476D01*
X209728573Y-152595238D01*
X209642859Y-152500000D01*
X209514287Y-152452381D01*
X209428573Y-152452381D01*
X209300002Y-152500000D01*
X209257145Y-152547619D01*
X209000002Y-152452381D02*
X208485716Y-152452381D01*
X208742859Y-153452381D02*
X208742859Y-152452381D01*
X207628574Y-152452381D02*
X207114288Y-152452381D01*
X207371431Y-153452381D02*
X207371431Y-152452381D01*
X206814288Y-153452381D02*
X206814288Y-152452381D01*
X206814288Y-152928571D02*
X206300003Y-152928571D01*
X206300003Y-153452381D02*
X206300003Y-152452381D01*
X205871431Y-152928571D02*
X205571431Y-152928571D01*
X205442860Y-153452381D02*
X205871431Y-153452381D01*
X205871431Y-152452381D01*
X205442860Y-152452381D01*
X204071431Y-152928571D02*
X204371431Y-152928571D01*
X204371431Y-153452381D02*
X204371431Y-152452381D01*
X203942860Y-152452381D01*
X203171431Y-153452381D02*
X203600002Y-153452381D01*
X203600002Y-152452381D01*
X202700003Y-152452381D02*
X202528574Y-152452381D01*
X202442860Y-152500000D01*
X202357146Y-152595238D01*
X202314288Y-152785714D01*
X202314288Y-153119048D01*
X202357146Y-153309524D01*
X202442860Y-153404762D01*
X202528574Y-153452381D01*
X202700003Y-153452381D01*
X202785717Y-153404762D01*
X202871431Y-153309524D01*
X202914288Y-153119048D01*
X202914288Y-152785714D01*
X202871431Y-152595238D01*
X202785717Y-152500000D01*
X202700003Y-152452381D01*
X202014289Y-152452381D02*
X201800003Y-153452381D01*
X201628574Y-152738095D01*
X201457146Y-153452381D01*
X201242860Y-152452381D01*
X200042861Y-152452381D02*
X199871432Y-152452381D01*
X199785718Y-152500000D01*
X199700004Y-152595238D01*
X199657146Y-152785714D01*
X199657146Y-153119048D01*
X199700004Y-153309524D01*
X199785718Y-153404762D01*
X199871432Y-153452381D01*
X200042861Y-153452381D01*
X200128575Y-153404762D01*
X200214289Y-153309524D01*
X200257146Y-153119048D01*
X200257146Y-152785714D01*
X200214289Y-152595238D01*
X200128575Y-152500000D01*
X200042861Y-152452381D01*
X198971432Y-152928571D02*
X199271432Y-152928571D01*
X199271432Y-153452381D02*
X199271432Y-152452381D01*
X198842861Y-152452381D01*
X197814289Y-152928571D02*
X197514289Y-152928571D01*
X197385718Y-153452381D02*
X197814289Y-153452381D01*
X197814289Y-152452381D01*
X197385718Y-152452381D01*
X196571432Y-153452381D02*
X197000003Y-153452381D01*
X197000003Y-152452381D01*
X196271432Y-152928571D02*
X195971432Y-152928571D01*
X195842861Y-153452381D02*
X196271432Y-153452381D01*
X196271432Y-152452381D01*
X195842861Y-152452381D01*
X194942861Y-153357143D02*
X194985718Y-153404762D01*
X195114289Y-153452381D01*
X195200003Y-153452381D01*
X195328575Y-153404762D01*
X195414289Y-153309524D01*
X195457146Y-153214286D01*
X195500003Y-153023810D01*
X195500003Y-152880952D01*
X195457146Y-152690476D01*
X195414289Y-152595238D01*
X195328575Y-152500000D01*
X195200003Y-152452381D01*
X195114289Y-152452381D01*
X194985718Y-152500000D01*
X194942861Y-152547619D01*
X194685718Y-152452381D02*
X194171432Y-152452381D01*
X194428575Y-153452381D02*
X194428575Y-152452381D01*
X193357147Y-153452381D02*
X193657147Y-152976190D01*
X193871432Y-153452381D02*
X193871432Y-152452381D01*
X193528575Y-152452381D01*
X193442861Y-152500000D01*
X193400004Y-152547619D01*
X193357147Y-152642857D01*
X193357147Y-152785714D01*
X193400004Y-152880952D01*
X193442861Y-152928571D01*
X193528575Y-152976190D01*
X193871432Y-152976190D01*
X192800004Y-152452381D02*
X192628575Y-152452381D01*
X192542861Y-152500000D01*
X192457147Y-152595238D01*
X192414289Y-152785714D01*
X192414289Y-153119048D01*
X192457147Y-153309524D01*
X192542861Y-153404762D01*
X192628575Y-153452381D01*
X192800004Y-153452381D01*
X192885718Y-153404762D01*
X192971432Y-153309524D01*
X193014289Y-153119048D01*
X193014289Y-152785714D01*
X192971432Y-152595238D01*
X192885718Y-152500000D01*
X192800004Y-152452381D01*
X192028575Y-153452381D02*
X192028575Y-152452381D01*
X191514290Y-153452381D01*
X191514290Y-152452381D01*
X191128575Y-153404762D02*
X191000004Y-153452381D01*
X190785718Y-153452381D01*
X190700004Y-153404762D01*
X190657147Y-153357143D01*
X190614290Y-153261905D01*
X190614290Y-153166667D01*
X190657147Y-153071429D01*
X190700004Y-153023810D01*
X190785718Y-152976190D01*
X190957147Y-152928571D01*
X191042861Y-152880952D01*
X191085718Y-152833333D01*
X191128575Y-152738095D01*
X191128575Y-152642857D01*
X191085718Y-152547619D01*
X191042861Y-152500000D01*
X190957147Y-152452381D01*
X190742861Y-152452381D01*
X190614290Y-152500000D01*
X189371433Y-152452381D02*
X189200004Y-152452381D01*
X189114290Y-152500000D01*
X189028576Y-152595238D01*
X188985718Y-152785714D01*
X188985718Y-153119048D01*
X189028576Y-153309524D01*
X189114290Y-153404762D01*
X189200004Y-153452381D01*
X189371433Y-153452381D01*
X189457147Y-153404762D01*
X189542861Y-153309524D01*
X189585718Y-153119048D01*
X189585718Y-152785714D01*
X189542861Y-152595238D01*
X189457147Y-152500000D01*
X189371433Y-152452381D01*
X188085719Y-153452381D02*
X188385719Y-152976190D01*
X188600004Y-153452381D02*
X188600004Y-152452381D01*
X188257147Y-152452381D01*
X188171433Y-152500000D01*
X188128576Y-152547619D01*
X188085719Y-152642857D01*
X188085719Y-152785714D01*
X188128576Y-152880952D01*
X188171433Y-152928571D01*
X188257147Y-152976190D01*
X188600004Y-152976190D01*
X187014290Y-153452381D02*
X187014290Y-152452381D01*
X186671433Y-152452381D01*
X186585719Y-152500000D01*
X186542862Y-152547619D01*
X186500005Y-152642857D01*
X186500005Y-152785714D01*
X186542862Y-152880952D01*
X186585719Y-152928571D01*
X186671433Y-152976190D01*
X187014290Y-152976190D01*
X185942862Y-152452381D02*
X185771433Y-152452381D01*
X185685719Y-152500000D01*
X185600005Y-152595238D01*
X185557147Y-152785714D01*
X185557147Y-153119048D01*
X185600005Y-153309524D01*
X185685719Y-153404762D01*
X185771433Y-153452381D01*
X185942862Y-153452381D01*
X186028576Y-153404762D01*
X186114290Y-153309524D01*
X186157147Y-153119048D01*
X186157147Y-152785714D01*
X186114290Y-152595238D01*
X186028576Y-152500000D01*
X185942862Y-152452381D01*
X185171433Y-153452381D02*
X185171433Y-152452381D01*
X184828576Y-152452381D01*
X184742862Y-152500000D01*
X184700005Y-152547619D01*
X184657148Y-152642857D01*
X184657148Y-152785714D01*
X184700005Y-152880952D01*
X184742862Y-152928571D01*
X184828576Y-152976190D01*
X185171433Y-152976190D01*
X184271433Y-152452381D02*
X184271433Y-153261905D01*
X184228576Y-153357143D01*
X184185719Y-153404762D01*
X184100005Y-153452381D01*
X183928576Y-153452381D01*
X183842862Y-153404762D01*
X183800005Y-153357143D01*
X183757148Y-153261905D01*
X183757148Y-152452381D01*
X182900005Y-153452381D02*
X183328576Y-153452381D01*
X183328576Y-152452381D01*
X182642862Y-153166667D02*
X182214291Y-153166667D01*
X182728577Y-153452381D02*
X182428577Y-152452381D01*
X182128577Y-153452381D01*
X181957148Y-152452381D02*
X181442862Y-152452381D01*
X181700005Y-153452381D02*
X181700005Y-152452381D01*
X181142862Y-152928571D02*
X180842862Y-152928571D01*
X180714291Y-153452381D02*
X181142862Y-153452381D01*
X181142862Y-152452381D01*
X180714291Y-152452381D01*
X179685719Y-153404762D02*
X179557148Y-153452381D01*
X179342862Y-153452381D01*
X179257148Y-153404762D01*
X179214291Y-153357143D01*
X179171434Y-153261905D01*
X179171434Y-153166667D01*
X179214291Y-153071429D01*
X179257148Y-153023810D01*
X179342862Y-152976190D01*
X179514291Y-152928571D01*
X179600005Y-152880952D01*
X179642862Y-152833333D01*
X179685719Y-152738095D01*
X179685719Y-152642857D01*
X179642862Y-152547619D01*
X179600005Y-152500000D01*
X179514291Y-152452381D01*
X179300005Y-152452381D01*
X179171434Y-152500000D01*
X178357148Y-153452381D02*
X178785719Y-153452381D01*
X178785719Y-152452381D01*
X177885720Y-152452381D02*
X177714291Y-152452381D01*
X177628577Y-152500000D01*
X177542863Y-152595238D01*
X177500005Y-152785714D01*
X177500005Y-153119048D01*
X177542863Y-153309524D01*
X177628577Y-153404762D01*
X177714291Y-153452381D01*
X177885720Y-153452381D01*
X177971434Y-153404762D01*
X178057148Y-153309524D01*
X178100005Y-153119048D01*
X178100005Y-152785714D01*
X178057148Y-152595238D01*
X177971434Y-152500000D01*
X177885720Y-152452381D01*
X177242863Y-152452381D02*
X176728577Y-152452381D01*
X176985720Y-153452381D02*
X176985720Y-152452381D01*
X176471434Y-153404762D02*
X176342863Y-153452381D01*
X176128577Y-153452381D01*
X176042863Y-153404762D01*
X176000006Y-153357143D01*
X175957149Y-153261905D01*
X175957149Y-153166667D01*
X176000006Y-153071429D01*
X176042863Y-153023810D01*
X176128577Y-152976190D01*
X176300006Y-152928571D01*
X176385720Y-152880952D01*
X176428577Y-152833333D01*
X176471434Y-152738095D01*
X176471434Y-152642857D01*
X176428577Y-152547619D01*
X176385720Y-152500000D01*
X176300006Y-152452381D01*
X176085720Y-152452381D01*
X175957149Y-152500000D01*
X174971435Y-152452381D02*
X174757149Y-153452381D01*
X174585720Y-152738095D01*
X174414292Y-153452381D01*
X174200006Y-152452381D01*
X173857149Y-153452381D02*
X173857149Y-152452381D01*
X173557150Y-152452381D02*
X173042864Y-152452381D01*
X173300007Y-153452381D02*
X173300007Y-152452381D01*
X172742864Y-153452381D02*
X172742864Y-152452381D01*
X172742864Y-152928571D02*
X172228579Y-152928571D01*
X172228579Y-153452381D02*
X172228579Y-152452381D01*
X170600008Y-153357143D02*
X170642865Y-153404762D01*
X170771436Y-153452381D01*
X170857150Y-153452381D01*
X170985722Y-153404762D01*
X171071436Y-153309524D01*
X171114293Y-153214286D01*
X171157150Y-153023810D01*
X171157150Y-152880952D01*
X171114293Y-152690476D01*
X171071436Y-152595238D01*
X170985722Y-152500000D01*
X170857150Y-152452381D01*
X170771436Y-152452381D01*
X170642865Y-152500000D01*
X170600008Y-152547619D01*
X170214293Y-153452381D02*
X170214293Y-152452381D01*
X170214293Y-152928571D02*
X169700008Y-152928571D01*
X169700008Y-153452381D02*
X169700008Y-152452381D01*
X169271436Y-152928571D02*
X168971436Y-152928571D01*
X168842865Y-153452381D02*
X169271436Y-153452381D01*
X169271436Y-152452381D01*
X168842865Y-152452381D01*
X168457150Y-152928571D02*
X168157150Y-152928571D01*
X168028579Y-153452381D02*
X168457150Y-153452381D01*
X168457150Y-152452381D01*
X168028579Y-152452381D01*
X167685721Y-153404762D02*
X167557150Y-153452381D01*
X167342864Y-153452381D01*
X167257150Y-153404762D01*
X167214293Y-153357143D01*
X167171436Y-153261905D01*
X167171436Y-153166667D01*
X167214293Y-153071429D01*
X167257150Y-153023810D01*
X167342864Y-152976190D01*
X167514293Y-152928571D01*
X167600007Y-152880952D01*
X167642864Y-152833333D01*
X167685721Y-152738095D01*
X167685721Y-152642857D01*
X167642864Y-152547619D01*
X167600007Y-152500000D01*
X167514293Y-152452381D01*
X167300007Y-152452381D01*
X167171436Y-152500000D01*
X166785721Y-152928571D02*
X166485721Y-152928571D01*
X166357150Y-153452381D02*
X166785721Y-153452381D01*
X166785721Y-152452381D01*
X166357150Y-152452381D01*
X165971435Y-153357143D02*
X165928578Y-153404762D01*
X165971435Y-153452381D01*
X166014292Y-153404762D01*
X165971435Y-153357143D01*
X165971435Y-153452381D01*
X164785714Y-153452381D02*
X164785714Y-152452381D01*
X164571429Y-152452381D01*
X164442857Y-152500000D01*
X164357143Y-152595238D01*
X164314286Y-152690476D01*
X164271429Y-152880952D01*
X164271429Y-153023810D01*
X164314286Y-153214286D01*
X164357143Y-153309524D01*
X164442857Y-153404762D01*
X164571429Y-153452381D01*
X164785714Y-153452381D01*
X163885714Y-152928571D02*
X163585714Y-152928571D01*
X163457143Y-153452381D02*
X163885714Y-153452381D01*
X163885714Y-152452381D01*
X163457143Y-152452381D01*
X163114285Y-153404762D02*
X162985714Y-153452381D01*
X162771428Y-153452381D01*
X162685714Y-153404762D01*
X162642857Y-153357143D01*
X162600000Y-153261905D01*
X162600000Y-153166667D01*
X162642857Y-153071429D01*
X162685714Y-153023810D01*
X162771428Y-152976190D01*
X162942857Y-152928571D01*
X163028571Y-152880952D01*
X163071428Y-152833333D01*
X163114285Y-152738095D01*
X163114285Y-152642857D01*
X163071428Y-152547619D01*
X163028571Y-152500000D01*
X162942857Y-152452381D01*
X162728571Y-152452381D01*
X162600000Y-152500000D01*
X162214285Y-153452381D02*
X162214285Y-152452381D01*
X161871428Y-152452381D01*
X161785714Y-152500000D01*
X161742857Y-152547619D01*
X161700000Y-152642857D01*
X161700000Y-152785714D01*
X161742857Y-152880952D01*
X161785714Y-152928571D01*
X161871428Y-152976190D01*
X162214285Y-152976190D01*
X161314285Y-153452381D02*
X161314285Y-152452381D01*
X161014286Y-152452381D02*
X160500000Y-152452381D01*
X160757143Y-153452381D02*
X160757143Y-152452381D01*
X160200000Y-152928571D02*
X159900000Y-152928571D01*
X159771429Y-153452381D02*
X160200000Y-153452381D01*
X160200000Y-152452381D01*
X159771429Y-152452381D01*
X158700000Y-153452381D02*
X158700000Y-152452381D01*
X158400001Y-152452381D02*
X157885715Y-152452381D01*
X158142858Y-153452381D02*
X158142858Y-152452381D01*
X157628572Y-153404762D02*
X157500001Y-153452381D01*
X157285715Y-153452381D01*
X157200001Y-153404762D01*
X157157144Y-153357143D01*
X157114287Y-153261905D01*
X157114287Y-153166667D01*
X157157144Y-153071429D01*
X157200001Y-153023810D01*
X157285715Y-152976190D01*
X157457144Y-152928571D01*
X157542858Y-152880952D01*
X157585715Y-152833333D01*
X157628572Y-152738095D01*
X157628572Y-152642857D01*
X157585715Y-152547619D01*
X157542858Y-152500000D01*
X157457144Y-152452381D01*
X157242858Y-152452381D01*
X157114287Y-152500000D01*
X156042858Y-153452381D02*
X156042858Y-152452381D01*
X155828573Y-152452381D01*
X155700001Y-152500000D01*
X155614287Y-152595238D01*
X155571430Y-152690476D01*
X155528573Y-152880952D01*
X155528573Y-153023810D01*
X155571430Y-153214286D01*
X155614287Y-153309524D01*
X155700001Y-153404762D01*
X155828573Y-153452381D01*
X156042858Y-153452381D01*
X155142858Y-152928571D02*
X154842858Y-152928571D01*
X154714287Y-153452381D02*
X155142858Y-153452381D01*
X155142858Y-152452381D01*
X154714287Y-152452381D01*
X153900001Y-153452381D02*
X154328572Y-153452381D01*
X154328572Y-152452381D01*
X153600001Y-153452381D02*
X153600001Y-152452381D01*
X152657145Y-153357143D02*
X152700002Y-153404762D01*
X152828573Y-153452381D01*
X152914287Y-153452381D01*
X153042859Y-153404762D01*
X153128573Y-153309524D01*
X153171430Y-153214286D01*
X153214287Y-153023810D01*
X153214287Y-152880952D01*
X153171430Y-152690476D01*
X153128573Y-152595238D01*
X153042859Y-152500000D01*
X152914287Y-152452381D01*
X152828573Y-152452381D01*
X152700002Y-152500000D01*
X152657145Y-152547619D01*
X152271430Y-153452381D02*
X152271430Y-152452381D01*
X151671431Y-152452381D02*
X151500002Y-152452381D01*
X151414288Y-152500000D01*
X151328574Y-152595238D01*
X151285716Y-152785714D01*
X151285716Y-153119048D01*
X151328574Y-153309524D01*
X151414288Y-153404762D01*
X151500002Y-153452381D01*
X151671431Y-153452381D01*
X151757145Y-153404762D01*
X151842859Y-153309524D01*
X151885716Y-153119048D01*
X151885716Y-152785714D01*
X151842859Y-152595238D01*
X151757145Y-152500000D01*
X151671431Y-152452381D01*
X150900002Y-152452381D02*
X150900002Y-153261905D01*
X150857145Y-153357143D01*
X150814288Y-153404762D01*
X150728574Y-153452381D01*
X150557145Y-153452381D01*
X150471431Y-153404762D01*
X150428574Y-153357143D01*
X150385717Y-153261905D01*
X150385717Y-152452381D01*
X150000002Y-153404762D02*
X149871431Y-153452381D01*
X149657145Y-153452381D01*
X149571431Y-153404762D01*
X149528574Y-153357143D01*
X149485717Y-153261905D01*
X149485717Y-153166667D01*
X149528574Y-153071429D01*
X149571431Y-153023810D01*
X149657145Y-152976190D01*
X149828574Y-152928571D01*
X149914288Y-152880952D01*
X149957145Y-152833333D01*
X150000002Y-152738095D01*
X150000002Y-152642857D01*
X149957145Y-152547619D01*
X149914288Y-152500000D01*
X149828574Y-152452381D01*
X149614288Y-152452381D01*
X149485717Y-152500000D01*
X148457145Y-153166667D02*
X148028574Y-153166667D01*
X148542860Y-153452381D02*
X148242860Y-152452381D01*
X147942860Y-153452381D01*
X147642859Y-153452381D02*
X147642859Y-152452381D01*
X147300002Y-152452381D01*
X147214288Y-152500000D01*
X147171431Y-152547619D01*
X147128574Y-152642857D01*
X147128574Y-152785714D01*
X147171431Y-152880952D01*
X147214288Y-152928571D01*
X147300002Y-152976190D01*
X147642859Y-152976190D01*
X146742859Y-153452381D02*
X146742859Y-152452381D01*
X146400002Y-152452381D01*
X146314288Y-152500000D01*
X146271431Y-152547619D01*
X146228574Y-152642857D01*
X146228574Y-152785714D01*
X146271431Y-152880952D01*
X146314288Y-152928571D01*
X146400002Y-152976190D01*
X146742859Y-152976190D01*
X145842859Y-152928571D02*
X145542859Y-152928571D01*
X145414288Y-153452381D02*
X145842859Y-153452381D01*
X145842859Y-152452381D01*
X145414288Y-152452381D01*
X145071430Y-153166667D02*
X144642859Y-153166667D01*
X145157145Y-153452381D02*
X144857145Y-152452381D01*
X144557145Y-153452381D01*
X143742859Y-153452381D02*
X144042859Y-152976190D01*
X144257144Y-153452381D02*
X144257144Y-152452381D01*
X143914287Y-152452381D01*
X143828573Y-152500000D01*
X143785716Y-152547619D01*
X143742859Y-152642857D01*
X143742859Y-152785714D01*
X143785716Y-152880952D01*
X143828573Y-152928571D01*
X143914287Y-152976190D01*
X144257144Y-152976190D01*
X143400001Y-153166667D02*
X142971430Y-153166667D01*
X143485716Y-153452381D02*
X143185716Y-152452381D01*
X142885716Y-153452381D01*
X142585715Y-153452381D02*
X142585715Y-152452381D01*
X142071430Y-153452381D01*
X142071430Y-152452381D01*
X141128573Y-153357143D02*
X141171430Y-153404762D01*
X141300001Y-153452381D01*
X141385715Y-153452381D01*
X141514287Y-153404762D01*
X141600001Y-153309524D01*
X141642858Y-153214286D01*
X141685715Y-153023810D01*
X141685715Y-152880952D01*
X141642858Y-152690476D01*
X141600001Y-152595238D01*
X141514287Y-152500000D01*
X141385715Y-152452381D01*
X141300001Y-152452381D01*
X141171430Y-152500000D01*
X141128573Y-152547619D01*
X140742858Y-152928571D02*
X140442858Y-152928571D01*
X140314287Y-153452381D02*
X140742858Y-153452381D01*
X140742858Y-152452381D01*
X140314287Y-152452381D01*
X139885715Y-153404762D02*
X139885715Y-153452381D01*
X139928572Y-153547619D01*
X139971429Y-153595238D01*
X138942859Y-152452381D02*
X138428573Y-152452381D01*
X138685716Y-153452381D02*
X138685716Y-152452381D01*
X138128573Y-153452381D02*
X138128573Y-152452381D01*
X138128573Y-152928571D02*
X137614288Y-152928571D01*
X137614288Y-153452381D02*
X137614288Y-152452381D01*
X137185716Y-152928571D02*
X136885716Y-152928571D01*
X136757145Y-153452381D02*
X137185716Y-153452381D01*
X137185716Y-152452381D01*
X136757145Y-152452381D01*
X135728573Y-153404762D02*
X135600002Y-153452381D01*
X135385716Y-153452381D01*
X135300002Y-153404762D01*
X135257145Y-153357143D01*
X135214288Y-153261905D01*
X135214288Y-153166667D01*
X135257145Y-153071429D01*
X135300002Y-153023810D01*
X135385716Y-152976190D01*
X135557145Y-152928571D01*
X135642859Y-152880952D01*
X135685716Y-152833333D01*
X135728573Y-152738095D01*
X135728573Y-152642857D01*
X135685716Y-152547619D01*
X135642859Y-152500000D01*
X135557145Y-152452381D01*
X135342859Y-152452381D01*
X135214288Y-152500000D01*
X134657145Y-152452381D02*
X134485716Y-152452381D01*
X134400002Y-152500000D01*
X134314288Y-152595238D01*
X134271430Y-152785714D01*
X134271430Y-153119048D01*
X134314288Y-153309524D01*
X134400002Y-153404762D01*
X134485716Y-153452381D01*
X134657145Y-153452381D01*
X134742859Y-153404762D01*
X134828573Y-153309524D01*
X134871430Y-153119048D01*
X134871430Y-152785714D01*
X134828573Y-152595238D01*
X134742859Y-152500000D01*
X134657145Y-152452381D01*
X133457145Y-153452381D02*
X133885716Y-153452381D01*
X133885716Y-152452381D01*
X133157145Y-153452381D02*
X133157145Y-152452381D01*
X132942860Y-152452381D01*
X132814288Y-152500000D01*
X132728574Y-152595238D01*
X132685717Y-152690476D01*
X132642860Y-152880952D01*
X132642860Y-153023810D01*
X132685717Y-153214286D01*
X132728574Y-153309524D01*
X132814288Y-153404762D01*
X132942860Y-153452381D01*
X133157145Y-153452381D01*
X132257145Y-152928571D02*
X131957145Y-152928571D01*
X131828574Y-153452381D02*
X132257145Y-153452381D01*
X132257145Y-152452381D01*
X131828574Y-152452381D01*
X130928574Y-153452381D02*
X131228574Y-152976190D01*
X131442859Y-153452381D02*
X131442859Y-152452381D01*
X131100002Y-152452381D01*
X131014288Y-152500000D01*
X130971431Y-152547619D01*
X130928574Y-152642857D01*
X130928574Y-152785714D01*
X130971431Y-152880952D01*
X131014288Y-152928571D01*
X131100002Y-152976190D01*
X131442859Y-152976190D01*
X129857145Y-153452381D02*
X129857145Y-152452381D01*
X129471431Y-153404762D02*
X129342860Y-153452381D01*
X129128574Y-153452381D01*
X129042860Y-153404762D01*
X129000003Y-153357143D01*
X128957146Y-153261905D01*
X128957146Y-153166667D01*
X129000003Y-153071429D01*
X129042860Y-153023810D01*
X129128574Y-152976190D01*
X129300003Y-152928571D01*
X129385717Y-152880952D01*
X129428574Y-152833333D01*
X129471431Y-152738095D01*
X129471431Y-152642857D01*
X129428574Y-152547619D01*
X129385717Y-152500000D01*
X129300003Y-152452381D01*
X129085717Y-152452381D01*
X128957146Y-152500000D01*
X127885717Y-153452381D02*
X127885717Y-152452381D01*
X127371432Y-153452381D01*
X127371432Y-152452381D01*
X126771432Y-152452381D02*
X126600003Y-152452381D01*
X126514289Y-152500000D01*
X126428575Y-152595238D01*
X126385717Y-152785714D01*
X126385717Y-153119048D01*
X126428575Y-153309524D01*
X126514289Y-153404762D01*
X126600003Y-153452381D01*
X126771432Y-153452381D01*
X126857146Y-153404762D01*
X126942860Y-153309524D01*
X126985717Y-153119048D01*
X126985717Y-152785714D01*
X126942860Y-152595238D01*
X126857146Y-152500000D01*
X126771432Y-152452381D01*
X126128575Y-152452381D02*
X125614289Y-152452381D01*
X125871432Y-153452381D02*
X125871432Y-152452381D01*
X124628575Y-153452381D02*
X124628575Y-152452381D01*
X124200004Y-153452381D02*
X124200004Y-152452381D01*
X123685719Y-153452381D01*
X123685719Y-152452381D01*
X123385719Y-152452381D02*
X122871433Y-152452381D01*
X123128576Y-153452381D02*
X123128576Y-152452381D01*
X122571433Y-152928571D02*
X122271433Y-152928571D01*
X122142862Y-153452381D02*
X122571433Y-153452381D01*
X122571433Y-152452381D01*
X122142862Y-152452381D01*
X121757147Y-153452381D02*
X121757147Y-152452381D01*
X121242862Y-153452381D01*
X121242862Y-152452381D01*
X120814290Y-153452381D02*
X120814290Y-152452381D01*
X120600005Y-152452381D01*
X120471433Y-152500000D01*
X120385719Y-152595238D01*
X120342862Y-152690476D01*
X120300005Y-152880952D01*
X120300005Y-153023810D01*
X120342862Y-153214286D01*
X120385719Y-153309524D01*
X120471433Y-153404762D01*
X120600005Y-153452381D01*
X120814290Y-153452381D01*
X119914290Y-152928571D02*
X119614290Y-152928571D01*
X119485719Y-153452381D02*
X119914290Y-153452381D01*
X119914290Y-152452381D01*
X119485719Y-152452381D01*
X119100004Y-153452381D02*
X119100004Y-152452381D01*
X118885719Y-152452381D01*
X118757147Y-152500000D01*
X118671433Y-152595238D01*
X118628576Y-152690476D01*
X118585719Y-152880952D01*
X118585719Y-153023810D01*
X118628576Y-153214286D01*
X118671433Y-153309524D01*
X118757147Y-153404762D01*
X118885719Y-153452381D01*
X119100004Y-153452381D01*
X117214290Y-152928571D02*
X117514290Y-152928571D01*
X117514290Y-153452381D02*
X117514290Y-152452381D01*
X117085719Y-152452381D01*
X116571433Y-152452381D02*
X116400004Y-152452381D01*
X116314290Y-152500000D01*
X116228576Y-152595238D01*
X116185718Y-152785714D01*
X116185718Y-153119048D01*
X116228576Y-153309524D01*
X116314290Y-153404762D01*
X116400004Y-153452381D01*
X116571433Y-153452381D01*
X116657147Y-153404762D01*
X116742861Y-153309524D01*
X116785718Y-153119048D01*
X116785718Y-152785714D01*
X116742861Y-152595238D01*
X116657147Y-152500000D01*
X116571433Y-152452381D01*
X115285719Y-153452381D02*
X115585719Y-152976190D01*
X115800004Y-153452381D02*
X115800004Y-152452381D01*
X115457147Y-152452381D01*
X115371433Y-152500000D01*
X115328576Y-152547619D01*
X115285719Y-152642857D01*
X115285719Y-152785714D01*
X115328576Y-152880952D01*
X115371433Y-152928571D01*
X115457147Y-152976190D01*
X115800004Y-152976190D01*
X114214290Y-153452381D02*
X114214290Y-152452381D01*
X114214290Y-152928571D02*
X113700005Y-152928571D01*
X113700005Y-153452381D02*
X113700005Y-152452381D01*
X113271433Y-152452381D02*
X113271433Y-153261905D01*
X113228576Y-153357143D01*
X113185719Y-153404762D01*
X113100005Y-153452381D01*
X112928576Y-153452381D01*
X112842862Y-153404762D01*
X112800005Y-153357143D01*
X112757148Y-153261905D01*
X112757148Y-152452381D01*
X112328576Y-153452381D02*
X112328576Y-152452381D01*
X112028576Y-153166667D01*
X111728576Y-152452381D01*
X111728576Y-153452381D01*
X111342862Y-153166667D02*
X110914291Y-153166667D01*
X111428577Y-153452381D02*
X111128577Y-152452381D01*
X110828577Y-153452381D01*
X110528576Y-153452381D02*
X110528576Y-152452381D01*
X110014291Y-153452381D01*
X110014291Y-152452381D01*
X108385720Y-153357143D02*
X108428577Y-153404762D01*
X108557148Y-153452381D01*
X108642862Y-153452381D01*
X108771434Y-153404762D01*
X108857148Y-153309524D01*
X108900005Y-153214286D01*
X108942862Y-153023810D01*
X108942862Y-152880952D01*
X108900005Y-152690476D01*
X108857148Y-152595238D01*
X108771434Y-152500000D01*
X108642862Y-152452381D01*
X108557148Y-152452381D01*
X108428577Y-152500000D01*
X108385720Y-152547619D01*
X107828577Y-152452381D02*
X107657148Y-152452381D01*
X107571434Y-152500000D01*
X107485720Y-152595238D01*
X107442862Y-152785714D01*
X107442862Y-153119048D01*
X107485720Y-153309524D01*
X107571434Y-153404762D01*
X107657148Y-153452381D01*
X107828577Y-153452381D01*
X107914291Y-153404762D01*
X108000005Y-153309524D01*
X108042862Y-153119048D01*
X108042862Y-152785714D01*
X108000005Y-152595238D01*
X107914291Y-152500000D01*
X107828577Y-152452381D01*
X107057148Y-153452381D02*
X107057148Y-152452381D01*
X106542863Y-153452381D01*
X106542863Y-152452381D01*
X106157148Y-153404762D02*
X106028577Y-153452381D01*
X105814291Y-153452381D01*
X105728577Y-153404762D01*
X105685720Y-153357143D01*
X105642863Y-153261905D01*
X105642863Y-153166667D01*
X105685720Y-153071429D01*
X105728577Y-153023810D01*
X105814291Y-152976190D01*
X105985720Y-152928571D01*
X106071434Y-152880952D01*
X106114291Y-152833333D01*
X106157148Y-152738095D01*
X106157148Y-152642857D01*
X106114291Y-152547619D01*
X106071434Y-152500000D01*
X105985720Y-152452381D01*
X105771434Y-152452381D01*
X105642863Y-152500000D01*
X105257148Y-152452381D02*
X105257148Y-153261905D01*
X105214291Y-153357143D01*
X105171434Y-153404762D01*
X105085720Y-153452381D01*
X104914291Y-153452381D01*
X104828577Y-153404762D01*
X104785720Y-153357143D01*
X104742863Y-153261905D01*
X104742863Y-152452381D01*
X104314291Y-153452381D02*
X104314291Y-152452381D01*
X104014291Y-153166667D01*
X103714291Y-152452381D01*
X103714291Y-153452381D01*
X103285720Y-153452381D02*
X103285720Y-152452381D01*
X102942863Y-152452381D01*
X102857149Y-152500000D01*
X102814292Y-152547619D01*
X102771435Y-152642857D01*
X102771435Y-152785714D01*
X102814292Y-152880952D01*
X102857149Y-152928571D01*
X102942863Y-152976190D01*
X103285720Y-152976190D01*
X102514292Y-152452381D02*
X102000006Y-152452381D01*
X102257149Y-153452381D02*
X102257149Y-152452381D01*
X101700006Y-153452381D02*
X101700006Y-152452381D01*
X101100007Y-152452381D02*
X100928578Y-152452381D01*
X100842864Y-152500000D01*
X100757150Y-152595238D01*
X100714292Y-152785714D01*
X100714292Y-153119048D01*
X100757150Y-153309524D01*
X100842864Y-153404762D01*
X100928578Y-153452381D01*
X101100007Y-153452381D01*
X101185721Y-153404762D01*
X101271435Y-153309524D01*
X101314292Y-153119048D01*
X101314292Y-152785714D01*
X101271435Y-152595238D01*
X101185721Y-152500000D01*
X101100007Y-152452381D01*
X100328578Y-153452381D02*
X100328578Y-152452381D01*
X99814293Y-153452381D01*
X99814293Y-152452381D01*
X99385721Y-153357143D02*
X99342864Y-153404762D01*
X99385721Y-153452381D01*
X99428578Y-153404762D01*
X99385721Y-153357143D01*
X99385721Y-153452381D01*
X97914286Y-152452381D02*
X97400000Y-152452381D01*
X97657143Y-153452381D02*
X97657143Y-152452381D01*
X97100000Y-153452381D02*
X97100000Y-152452381D01*
X97100000Y-152928571D02*
X96585715Y-152928571D01*
X96585715Y-153452381D02*
X96585715Y-152452381D01*
X96157143Y-153452381D02*
X96157143Y-152452381D01*
X95771429Y-153404762D02*
X95642858Y-153452381D01*
X95428572Y-153452381D01*
X95342858Y-153404762D01*
X95300001Y-153357143D01*
X95257144Y-153261905D01*
X95257144Y-153166667D01*
X95300001Y-153071429D01*
X95342858Y-153023810D01*
X95428572Y-152976190D01*
X95600001Y-152928571D01*
X95685715Y-152880952D01*
X95728572Y-152833333D01*
X95771429Y-152738095D01*
X95771429Y-152642857D01*
X95728572Y-152547619D01*
X95685715Y-152500000D01*
X95600001Y-152452381D01*
X95385715Y-152452381D01*
X95257144Y-152500000D01*
X94014287Y-152452381D02*
X93842858Y-152452381D01*
X93757144Y-152500000D01*
X93671430Y-152595238D01*
X93628572Y-152785714D01*
X93628572Y-153119048D01*
X93671430Y-153309524D01*
X93757144Y-153404762D01*
X93842858Y-153452381D01*
X94014287Y-153452381D01*
X94100001Y-153404762D01*
X94185715Y-153309524D01*
X94228572Y-153119048D01*
X94228572Y-152785714D01*
X94185715Y-152595238D01*
X94100001Y-152500000D01*
X94014287Y-152452381D01*
X93285715Y-153404762D02*
X93157144Y-153452381D01*
X92942858Y-153452381D01*
X92857144Y-153404762D01*
X92814287Y-153357143D01*
X92771430Y-153261905D01*
X92771430Y-153166667D01*
X92814287Y-153071429D01*
X92857144Y-153023810D01*
X92942858Y-152976190D01*
X93114287Y-152928571D01*
X93200001Y-152880952D01*
X93242858Y-152833333D01*
X93285715Y-152738095D01*
X93285715Y-152642857D01*
X93242858Y-152547619D01*
X93200001Y-152500000D01*
X93114287Y-152452381D01*
X92900001Y-152452381D01*
X92771430Y-152500000D01*
X91871430Y-153357143D02*
X91914287Y-153404762D01*
X92042858Y-153452381D01*
X92128572Y-153452381D01*
X92257144Y-153404762D01*
X92342858Y-153309524D01*
X92385715Y-153214286D01*
X92428572Y-153023810D01*
X92428572Y-152880952D01*
X92385715Y-152690476D01*
X92342858Y-152595238D01*
X92257144Y-152500000D01*
X92128572Y-152452381D01*
X92042858Y-152452381D01*
X91914287Y-152500000D01*
X91871430Y-152547619D01*
X91485715Y-153452381D02*
X91485715Y-152452381D01*
X90628573Y-153452381D02*
X91057144Y-153452381D01*
X91057144Y-152452381D01*
X89900002Y-153452381D02*
X90328573Y-153452381D01*
X90328573Y-152452381D01*
X89428574Y-152452381D02*
X89257145Y-152452381D01*
X89171431Y-152500000D01*
X89085717Y-152595238D01*
X89042859Y-152785714D01*
X89042859Y-153119048D01*
X89085717Y-153309524D01*
X89171431Y-153404762D01*
X89257145Y-153452381D01*
X89428574Y-153452381D01*
X89514288Y-153404762D01*
X89600002Y-153309524D01*
X89642859Y-153119048D01*
X89642859Y-152785714D01*
X89600002Y-152595238D01*
X89514288Y-152500000D01*
X89428574Y-152452381D01*
X88700002Y-153404762D02*
X88571431Y-153452381D01*
X88357145Y-153452381D01*
X88271431Y-153404762D01*
X88228574Y-153357143D01*
X88185717Y-153261905D01*
X88185717Y-153166667D01*
X88228574Y-153071429D01*
X88271431Y-153023810D01*
X88357145Y-152976190D01*
X88528574Y-152928571D01*
X88614288Y-152880952D01*
X88657145Y-152833333D01*
X88700002Y-152738095D01*
X88700002Y-152642857D01*
X88657145Y-152547619D01*
X88614288Y-152500000D01*
X88528574Y-152452381D01*
X88314288Y-152452381D01*
X88185717Y-152500000D01*
X87285717Y-153357143D02*
X87328574Y-153404762D01*
X87457145Y-153452381D01*
X87542859Y-153452381D01*
X87671431Y-153404762D01*
X87757145Y-153309524D01*
X87800002Y-153214286D01*
X87842859Y-153023810D01*
X87842859Y-152880952D01*
X87800002Y-152690476D01*
X87757145Y-152595238D01*
X87671431Y-152500000D01*
X87542859Y-152452381D01*
X87457145Y-152452381D01*
X87328574Y-152500000D01*
X87285717Y-152547619D01*
X86728574Y-152452381D02*
X86557145Y-152452381D01*
X86471431Y-152500000D01*
X86385717Y-152595238D01*
X86342859Y-152785714D01*
X86342859Y-153119048D01*
X86385717Y-153309524D01*
X86471431Y-153404762D01*
X86557145Y-153452381D01*
X86728574Y-153452381D01*
X86814288Y-153404762D01*
X86900002Y-153309524D01*
X86942859Y-153119048D01*
X86942859Y-152785714D01*
X86900002Y-152595238D01*
X86814288Y-152500000D01*
X86728574Y-152452381D01*
X85957145Y-153452381D02*
X85957145Y-152452381D01*
X85614288Y-152452381D01*
X85528574Y-152500000D01*
X85485717Y-152547619D01*
X85442860Y-152642857D01*
X85442860Y-152785714D01*
X85485717Y-152880952D01*
X85528574Y-152928571D01*
X85614288Y-152976190D01*
X85957145Y-152976190D01*
X85057145Y-152928571D02*
X84757145Y-152928571D01*
X84628574Y-153452381D02*
X85057145Y-153452381D01*
X85057145Y-152452381D01*
X84628574Y-152452381D01*
X83042860Y-153357143D02*
X83085717Y-153404762D01*
X83214288Y-153452381D01*
X83300002Y-153452381D01*
X83428574Y-153404762D01*
X83514288Y-153309524D01*
X83557145Y-153214286D01*
X83600002Y-153023810D01*
X83600002Y-152880952D01*
X83557145Y-152690476D01*
X83514288Y-152595238D01*
X83428574Y-152500000D01*
X83300002Y-152452381D01*
X83214288Y-152452381D01*
X83085717Y-152500000D01*
X83042860Y-152547619D01*
X82485717Y-152452381D02*
X82314288Y-152452381D01*
X82228574Y-152500000D01*
X82142860Y-152595238D01*
X82100002Y-152785714D01*
X82100002Y-153119048D01*
X82142860Y-153309524D01*
X82228574Y-153404762D01*
X82314288Y-153452381D01*
X82485717Y-153452381D01*
X82571431Y-153404762D01*
X82657145Y-153309524D01*
X82700002Y-153119048D01*
X82700002Y-152785714D01*
X82657145Y-152595238D01*
X82571431Y-152500000D01*
X82485717Y-152452381D01*
X81714288Y-153452381D02*
X81714288Y-152452381D01*
X81200003Y-153452381D01*
X81200003Y-152452381D01*
X80900003Y-152452381D02*
X80385717Y-152452381D01*
X80642860Y-153452381D02*
X80642860Y-152452381D01*
X80128574Y-153166667D02*
X79700003Y-153166667D01*
X80214289Y-153452381D02*
X79914289Y-152452381D01*
X79614289Y-153452381D01*
X79314288Y-153452381D02*
X79314288Y-152452381D01*
X78885717Y-153452381D02*
X78885717Y-152452381D01*
X78371432Y-153452381D01*
X78371432Y-152452381D01*
X77985717Y-153404762D02*
X77857146Y-153452381D01*
X77642860Y-153452381D01*
X77557146Y-153404762D01*
X77514289Y-153357143D01*
X77471432Y-153261905D01*
X77471432Y-153166667D01*
X77514289Y-153071429D01*
X77557146Y-153023810D01*
X77642860Y-152976190D01*
X77814289Y-152928571D01*
X77900003Y-152880952D01*
X77942860Y-152833333D01*
X77985717Y-152738095D01*
X77985717Y-152642857D01*
X77942860Y-152547619D01*
X77900003Y-152500000D01*
X77814289Y-152452381D01*
X77600003Y-152452381D01*
X77471432Y-152500000D01*
X75971432Y-153452381D02*
X76400003Y-153452381D01*
X76400003Y-152452381D01*
X75714289Y-153166667D02*
X75285718Y-153166667D01*
X75800004Y-153452381D02*
X75500004Y-152452381D01*
X75200004Y-153452381D01*
X74385718Y-153452381D02*
X74685718Y-152976190D01*
X74900003Y-153452381D02*
X74900003Y-152452381D01*
X74557146Y-152452381D01*
X74471432Y-152500000D01*
X74428575Y-152547619D01*
X74385718Y-152642857D01*
X74385718Y-152785714D01*
X74428575Y-152880952D01*
X74471432Y-152928571D01*
X74557146Y-152976190D01*
X74900003Y-152976190D01*
X73528575Y-152500000D02*
X73614289Y-152452381D01*
X73742860Y-152452381D01*
X73871432Y-152500000D01*
X73957146Y-152595238D01*
X74000003Y-152690476D01*
X74042860Y-152880952D01*
X74042860Y-153023810D01*
X74000003Y-153214286D01*
X73957146Y-153309524D01*
X73871432Y-153404762D01*
X73742860Y-153452381D01*
X73657146Y-153452381D01*
X73528575Y-153404762D01*
X73485718Y-153357143D01*
X73485718Y-153023810D01*
X73657146Y-153023810D01*
X73100003Y-152928571D02*
X72800003Y-152928571D01*
X72671432Y-153452381D02*
X73100003Y-153452381D01*
X73100003Y-152452381D01*
X72671432Y-152452381D01*
X71600003Y-153452381D02*
X71600003Y-152452381D01*
X71257146Y-152452381D01*
X71171432Y-152500000D01*
X71128575Y-152547619D01*
X71085718Y-152642857D01*
X71085718Y-152785714D01*
X71128575Y-152880952D01*
X71171432Y-152928571D01*
X71257146Y-152976190D01*
X71600003Y-152976190D01*
X70742860Y-153166667D02*
X70314289Y-153166667D01*
X70828575Y-153452381D02*
X70528575Y-152452381D01*
X70228575Y-153452381D01*
X69414289Y-153452381D02*
X69714289Y-152976190D01*
X69928574Y-153452381D02*
X69928574Y-152452381D01*
X69585717Y-152452381D01*
X69500003Y-152500000D01*
X69457146Y-152547619D01*
X69414289Y-152642857D01*
X69414289Y-152785714D01*
X69457146Y-152880952D01*
X69500003Y-152928571D01*
X69585717Y-152976190D01*
X69928574Y-152976190D01*
X69157146Y-152452381D02*
X68642860Y-152452381D01*
X68900003Y-153452381D02*
X68900003Y-152452381D01*
X68385717Y-153404762D02*
X68257146Y-153452381D01*
X68042860Y-153452381D01*
X67957146Y-153404762D01*
X67914289Y-153357143D01*
X67871432Y-153261905D01*
X67871432Y-153166667D01*
X67914289Y-153071429D01*
X67957146Y-153023810D01*
X68042860Y-152976190D01*
X68214289Y-152928571D01*
X68300003Y-152880952D01*
X68342860Y-152833333D01*
X68385717Y-152738095D01*
X68385717Y-152642857D01*
X68342860Y-152547619D01*
X68300003Y-152500000D01*
X68214289Y-152452381D01*
X68000003Y-152452381D01*
X67871432Y-152500000D01*
X66842860Y-153166667D02*
X66414289Y-153166667D01*
X66928575Y-153452381D02*
X66628575Y-152452381D01*
X66328575Y-153452381D01*
X66028574Y-153452381D02*
X66028574Y-152452381D01*
X65514289Y-153452381D01*
X65514289Y-152452381D01*
X65085717Y-153452381D02*
X65085717Y-152452381D01*
X64871432Y-152452381D01*
X64742860Y-152500000D01*
X64657146Y-152595238D01*
X64614289Y-152690476D01*
X64571432Y-152880952D01*
X64571432Y-153023810D01*
X64614289Y-153214286D01*
X64657146Y-153309524D01*
X64742860Y-153404762D01*
X64871432Y-153452381D01*
X65085717Y-153452381D01*
X63500003Y-153452381D02*
X63500003Y-152452381D01*
X63114289Y-153404762D02*
X62985718Y-153452381D01*
X62771432Y-153452381D01*
X62685718Y-153404762D01*
X62642861Y-153357143D01*
X62600004Y-153261905D01*
X62600004Y-153166667D01*
X62642861Y-153071429D01*
X62685718Y-153023810D01*
X62771432Y-152976190D01*
X62942861Y-152928571D01*
X63028575Y-152880952D01*
X63071432Y-152833333D01*
X63114289Y-152738095D01*
X63114289Y-152642857D01*
X63071432Y-152547619D01*
X63028575Y-152500000D01*
X62942861Y-152452381D01*
X62728575Y-152452381D01*
X62600004Y-152500000D01*
X61528575Y-153452381D02*
X61528575Y-152452381D01*
X61014290Y-153452381D01*
X61014290Y-152452381D01*
X60414290Y-152452381D02*
X60242861Y-152452381D01*
X60157147Y-152500000D01*
X60071433Y-152595238D01*
X60028575Y-152785714D01*
X60028575Y-153119048D01*
X60071433Y-153309524D01*
X60157147Y-153404762D01*
X60242861Y-153452381D01*
X60414290Y-153452381D01*
X60500004Y-153404762D01*
X60585718Y-153309524D01*
X60628575Y-153119048D01*
X60628575Y-152785714D01*
X60585718Y-152595238D01*
X60500004Y-152500000D01*
X60414290Y-152452381D01*
X59771433Y-152452381D02*
X59257147Y-152452381D01*
X59514290Y-153452381D02*
X59514290Y-152452381D01*
X58314290Y-153404762D02*
X58185719Y-153452381D01*
X57971433Y-153452381D01*
X57885719Y-153404762D01*
X57842862Y-153357143D01*
X57800005Y-153261905D01*
X57800005Y-153166667D01*
X57842862Y-153071429D01*
X57885719Y-153023810D01*
X57971433Y-152976190D01*
X58142862Y-152928571D01*
X58228576Y-152880952D01*
X58271433Y-152833333D01*
X58314290Y-152738095D01*
X58314290Y-152642857D01*
X58271433Y-152547619D01*
X58228576Y-152500000D01*
X58142862Y-152452381D01*
X57928576Y-152452381D01*
X57800005Y-152500000D01*
X57414290Y-152452381D02*
X57414290Y-153261905D01*
X57371433Y-153357143D01*
X57328576Y-153404762D01*
X57242862Y-153452381D01*
X57071433Y-153452381D01*
X56985719Y-153404762D01*
X56942862Y-153357143D01*
X56900005Y-153261905D01*
X56900005Y-152452381D01*
X56471433Y-153452381D02*
X56471433Y-152452381D01*
X56171434Y-152452381D02*
X55657148Y-152452381D01*
X55914291Y-153452381D02*
X55914291Y-152452381D01*
X55400005Y-153166667D02*
X54971434Y-153166667D01*
X55485720Y-153452381D02*
X55185720Y-152452381D01*
X54885720Y-153452381D01*
X54285719Y-152928571D02*
X54157148Y-152976190D01*
X54114291Y-153023810D01*
X54071434Y-153119048D01*
X54071434Y-153261905D01*
X54114291Y-153357143D01*
X54157148Y-153404762D01*
X54242862Y-153452381D01*
X54585719Y-153452381D01*
X54585719Y-152452381D01*
X54285719Y-152452381D01*
X54200005Y-152500000D01*
X54157148Y-152547619D01*
X54114291Y-152642857D01*
X54114291Y-152738095D01*
X54157148Y-152833333D01*
X54200005Y-152880952D01*
X54285719Y-152928571D01*
X54585719Y-152928571D01*
X53257148Y-153452381D02*
X53685719Y-153452381D01*
X53685719Y-152452381D01*
X52957148Y-152928571D02*
X52657148Y-152928571D01*
X52528577Y-153452381D02*
X52957148Y-153452381D01*
X52957148Y-152452381D01*
X52528577Y-152452381D01*
X51157148Y-152928571D02*
X51457148Y-152928571D01*
X51457148Y-153452381D02*
X51457148Y-152452381D01*
X51028577Y-152452381D01*
X50514291Y-152452381D02*
X50342862Y-152452381D01*
X50257148Y-152500000D01*
X50171434Y-152595238D01*
X50128576Y-152785714D01*
X50128576Y-153119048D01*
X50171434Y-153309524D01*
X50257148Y-153404762D01*
X50342862Y-153452381D01*
X50514291Y-153452381D01*
X50600005Y-153404762D01*
X50685719Y-153309524D01*
X50728576Y-153119048D01*
X50728576Y-152785714D01*
X50685719Y-152595238D01*
X50600005Y-152500000D01*
X50514291Y-152452381D01*
X49228577Y-153452381D02*
X49528577Y-152976190D01*
X49742862Y-153452381D02*
X49742862Y-152452381D01*
X49400005Y-152452381D01*
X49314291Y-152500000D01*
X49271434Y-152547619D01*
X49228577Y-152642857D01*
X49228577Y-152785714D01*
X49271434Y-152880952D01*
X49314291Y-152928571D01*
X49400005Y-152976190D01*
X49742862Y-152976190D01*
X48157148Y-152452381D02*
X48157148Y-153261905D01*
X48114291Y-153357143D01*
X48071434Y-153404762D01*
X47985720Y-153452381D01*
X47814291Y-153452381D01*
X47728577Y-153404762D01*
X47685720Y-153357143D01*
X47642863Y-153261905D01*
X47642863Y-152452381D01*
X47257148Y-153404762D02*
X47128577Y-153452381D01*
X46914291Y-153452381D01*
X46828577Y-153404762D01*
X46785720Y-153357143D01*
X46742863Y-153261905D01*
X46742863Y-153166667D01*
X46785720Y-153071429D01*
X46828577Y-153023810D01*
X46914291Y-152976190D01*
X47085720Y-152928571D01*
X47171434Y-152880952D01*
X47214291Y-152833333D01*
X47257148Y-152738095D01*
X47257148Y-152642857D01*
X47214291Y-152547619D01*
X47171434Y-152500000D01*
X47085720Y-152452381D01*
X46871434Y-152452381D01*
X46742863Y-152500000D01*
X46357148Y-152928571D02*
X46057148Y-152928571D01*
X45928577Y-153452381D02*
X46357148Y-153452381D01*
X46357148Y-152452381D01*
X45928577Y-152452381D01*
X44557148Y-152928571D02*
X44428577Y-152976190D01*
X44385720Y-153023810D01*
X44342863Y-153119048D01*
X44342863Y-153261905D01*
X44385720Y-153357143D01*
X44428577Y-153404762D01*
X44514291Y-153452381D01*
X44857148Y-153452381D01*
X44857148Y-152452381D01*
X44557148Y-152452381D01*
X44471434Y-152500000D01*
X44428577Y-152547619D01*
X44385720Y-152642857D01*
X44385720Y-152738095D01*
X44428577Y-152833333D01*
X44471434Y-152880952D01*
X44557148Y-152928571D01*
X44857148Y-152928571D01*
X43785720Y-152976190D02*
X43785720Y-153452381D01*
X44085720Y-152452381D02*
X43785720Y-152976190D01*
X43485720Y-152452381D01*
X42542862Y-153166667D02*
X42114291Y-153166667D01*
X42628577Y-153452381D02*
X42328577Y-152452381D01*
X42028577Y-153452381D01*
X41728576Y-153452381D02*
X41728576Y-152452381D01*
X41514291Y-152452381D01*
X41385719Y-152500000D01*
X41300005Y-152595238D01*
X41257148Y-152690476D01*
X41214291Y-152880952D01*
X41214291Y-153023810D01*
X41257148Y-153214286D01*
X41300005Y-153309524D01*
X41385719Y-153404762D01*
X41514291Y-153452381D01*
X41728576Y-153452381D01*
X40828576Y-152452381D02*
X40828576Y-153261905D01*
X40785719Y-153357143D01*
X40742862Y-153404762D01*
X40657148Y-153452381D01*
X40485719Y-153452381D01*
X40400005Y-153404762D01*
X40357148Y-153357143D01*
X40314291Y-153261905D01*
X40314291Y-152452381D01*
X39457148Y-153452381D02*
X39885719Y-153452381D01*
X39885719Y-152452381D01*
X39285720Y-152452381D02*
X38771434Y-152452381D01*
X39028577Y-153452381D02*
X39028577Y-152452381D01*
X38514291Y-153404762D02*
X38385720Y-153452381D01*
X38171434Y-153452381D01*
X38085720Y-153404762D01*
X38042863Y-153357143D01*
X38000006Y-153261905D01*
X38000006Y-153166667D01*
X38042863Y-153071429D01*
X38085720Y-153023810D01*
X38171434Y-152976190D01*
X38342863Y-152928571D01*
X38428577Y-152880952D01*
X38471434Y-152833333D01*
X38514291Y-152738095D01*
X38514291Y-152642857D01*
X38471434Y-152547619D01*
X38428577Y-152500000D01*
X38342863Y-152452381D01*
X38128577Y-152452381D01*
X38000006Y-152500000D01*
X36757149Y-152452381D02*
X36585720Y-152452381D01*
X36500006Y-152500000D01*
X36414292Y-152595238D01*
X36371434Y-152785714D01*
X36371434Y-153119048D01*
X36414292Y-153309524D01*
X36500006Y-153404762D01*
X36585720Y-153452381D01*
X36757149Y-153452381D01*
X36842863Y-153404762D01*
X36928577Y-153309524D01*
X36971434Y-153119048D01*
X36971434Y-152785714D01*
X36928577Y-152595238D01*
X36842863Y-152500000D01*
X36757149Y-152452381D01*
X35471435Y-153452381D02*
X35771435Y-152976190D01*
X35985720Y-153452381D02*
X35985720Y-152452381D01*
X35642863Y-152452381D01*
X35557149Y-152500000D01*
X35514292Y-152547619D01*
X35471435Y-152642857D01*
X35471435Y-152785714D01*
X35514292Y-152880952D01*
X35557149Y-152928571D01*
X35642863Y-152976190D01*
X35985720Y-152976190D01*
X33928578Y-152500000D02*
X34014292Y-152452381D01*
X34142863Y-152452381D01*
X34271435Y-152500000D01*
X34357149Y-152595238D01*
X34400006Y-152690476D01*
X34442863Y-152880952D01*
X34442863Y-153023810D01*
X34400006Y-153214286D01*
X34357149Y-153309524D01*
X34271435Y-153404762D01*
X34142863Y-153452381D01*
X34057149Y-153452381D01*
X33928578Y-153404762D01*
X33885721Y-153357143D01*
X33885721Y-153023810D01*
X34057149Y-153023810D01*
X33328578Y-152452381D02*
X33157149Y-152452381D01*
X33071435Y-152500000D01*
X32985721Y-152595238D01*
X32942863Y-152785714D01*
X32942863Y-153119048D01*
X32985721Y-153309524D01*
X33071435Y-153404762D01*
X33157149Y-153452381D01*
X33328578Y-153452381D01*
X33414292Y-153404762D01*
X33500006Y-153309524D01*
X33542863Y-153119048D01*
X33542863Y-152785714D01*
X33500006Y-152595238D01*
X33414292Y-152500000D01*
X33328578Y-152452381D01*
X32128578Y-153452381D02*
X32557149Y-153452381D01*
X32557149Y-152452381D01*
X31828578Y-153452381D02*
X31828578Y-152452381D01*
X31614293Y-152452381D01*
X31485721Y-152500000D01*
X31400007Y-152595238D01*
X31357150Y-152690476D01*
X31314293Y-152880952D01*
X31314293Y-153023810D01*
X31357150Y-153214286D01*
X31400007Y-153309524D01*
X31485721Y-153404762D01*
X31614293Y-153452381D01*
X31828578Y-153452381D01*
X30628578Y-152928571D02*
X30928578Y-152928571D01*
X30928578Y-153452381D02*
X30928578Y-152452381D01*
X30500007Y-152452381D01*
X30157149Y-153452381D02*
X30157149Y-152452381D01*
X29771435Y-153404762D02*
X29642864Y-153452381D01*
X29428578Y-153452381D01*
X29342864Y-153404762D01*
X29300007Y-153357143D01*
X29257150Y-153261905D01*
X29257150Y-153166667D01*
X29300007Y-153071429D01*
X29342864Y-153023810D01*
X29428578Y-152976190D01*
X29600007Y-152928571D01*
X29685721Y-152880952D01*
X29728578Y-152833333D01*
X29771435Y-152738095D01*
X29771435Y-152642857D01*
X29728578Y-152547619D01*
X29685721Y-152500000D01*
X29600007Y-152452381D01*
X29385721Y-152452381D01*
X29257150Y-152500000D01*
X28871435Y-153452381D02*
X28871435Y-152452381D01*
X28871435Y-152928571D02*
X28357150Y-152928571D01*
X28357150Y-153452381D02*
X28357150Y-152452381D01*
X27928578Y-153357143D02*
X27885721Y-153404762D01*
X27928578Y-153452381D01*
X27971435Y-153404762D01*
X27928578Y-153357143D01*
X27928578Y-153452381D01*
D10*
G36*
X212138215Y-75912897D02*
X212141573Y-76220132D01*
X212150278Y-76526611D01*
X212164004Y-76817763D01*
X212182427Y-77079014D01*
X212205223Y-77295793D01*
X212212794Y-77349500D01*
X212337362Y-77997299D01*
X212394354Y-78200953D01*
X212394354Y-77243567D01*
X212550157Y-76936497D01*
X212550157Y-73841125D01*
X212672881Y-73364875D01*
X212889138Y-72628304D01*
X213150424Y-71917800D01*
X213206814Y-71782215D01*
X213269914Y-71636264D01*
X213314727Y-71541630D01*
X213346256Y-71490555D01*
X213369504Y-71475280D01*
X213389474Y-71488048D01*
X213393317Y-71493013D01*
X213420942Y-71536161D01*
X213475083Y-71625202D01*
X213550360Y-71751119D01*
X213641390Y-71904899D01*
X213742795Y-72077524D01*
X213774126Y-72131110D01*
X213853188Y-72265334D01*
X213853188Y-70704023D01*
X213872103Y-70554053D01*
X213927128Y-70414499D01*
X214014965Y-70297043D01*
X214132318Y-70213369D01*
X214275891Y-70175158D01*
X214307251Y-70174000D01*
X214440554Y-70201621D01*
X214570970Y-70274653D01*
X214675290Y-70378344D01*
X214705573Y-70427162D01*
X214760066Y-70588541D01*
X214763883Y-70744914D01*
X214724479Y-70888682D01*
X214649305Y-71012248D01*
X214545814Y-71108013D01*
X214421458Y-71168377D01*
X214283691Y-71185743D01*
X214139964Y-71152511D01*
X214046065Y-71099602D01*
X213936872Y-70988480D01*
X213873679Y-70852726D01*
X213853188Y-70704023D01*
X213853188Y-72265334D01*
X213875561Y-72303317D01*
X213966638Y-72455159D01*
X214042447Y-72578675D01*
X214098077Y-72665904D01*
X214128614Y-72708882D01*
X214132471Y-72711996D01*
X214154466Y-72686826D01*
X214210044Y-72615687D01*
X214295258Y-72503836D01*
X214406162Y-72356527D01*
X214538810Y-72179015D01*
X214689255Y-71976557D01*
X214853550Y-71754406D01*
X214956800Y-71614303D01*
X215152182Y-71349072D01*
X215313596Y-71130831D01*
X215444571Y-70955322D01*
X215548641Y-70818292D01*
X215629335Y-70715484D01*
X215690187Y-70642643D01*
X215734727Y-70595513D01*
X215766487Y-70569840D01*
X215788998Y-70561368D01*
X215805792Y-70565841D01*
X215818069Y-70576493D01*
X215850028Y-70612672D01*
X215918412Y-70691837D01*
X216018569Y-70808547D01*
X216145848Y-70957363D01*
X216295600Y-71132843D01*
X216463173Y-71329546D01*
X216643917Y-71542034D01*
X216722487Y-71634500D01*
X216905690Y-71849770D01*
X217076369Y-72049560D01*
X217081959Y-72056075D01*
X217081959Y-70697874D01*
X217108617Y-70531368D01*
X217181256Y-70395693D01*
X217288874Y-70293657D01*
X217420471Y-70228068D01*
X217565044Y-70201737D01*
X217711592Y-70217471D01*
X217849114Y-70278080D01*
X217966608Y-70386371D01*
X218014665Y-70459750D01*
X218058706Y-70597576D01*
X218062259Y-70755722D01*
X218026946Y-70906981D01*
X217983003Y-70990016D01*
X217869818Y-71098806D01*
X217724483Y-71166871D01*
X217564859Y-71190814D01*
X217408804Y-71167237D01*
X217307975Y-71118454D01*
X217177904Y-70995477D01*
X217101638Y-70841174D01*
X217081959Y-70697874D01*
X217081959Y-72056075D01*
X217230110Y-72228759D01*
X217362500Y-72382259D01*
X217469125Y-72504949D01*
X217545573Y-72591719D01*
X217587429Y-72637459D01*
X217593835Y-72643309D01*
X217616809Y-72620551D01*
X217673461Y-72551952D01*
X217759749Y-72442753D01*
X217871631Y-72298198D01*
X218005065Y-72123527D01*
X218156010Y-71923983D01*
X218320424Y-71704807D01*
X218407117Y-71588557D01*
X218576692Y-71361231D01*
X218734575Y-71150555D01*
X218876751Y-70961817D01*
X218999204Y-70800302D01*
X219097918Y-70671296D01*
X219168877Y-70580086D01*
X219208067Y-70531958D01*
X219214500Y-70525702D01*
X219236860Y-70549983D01*
X219294127Y-70619087D01*
X219382126Y-70727788D01*
X219496681Y-70870862D01*
X219633617Y-71043083D01*
X219788757Y-71239227D01*
X219957925Y-71454070D01*
X220038444Y-71556641D01*
X220212652Y-71778236D01*
X220327145Y-71923144D01*
X220327145Y-70697875D01*
X220350522Y-70563976D01*
X220411728Y-70428085D01*
X220497374Y-70315444D01*
X220554092Y-70270024D01*
X220706872Y-70209126D01*
X220859069Y-70204704D01*
X221000356Y-70250486D01*
X221120408Y-70340201D01*
X221208899Y-70467575D01*
X221255504Y-70626339D01*
X221260108Y-70698872D01*
X221233506Y-70867960D01*
X221160647Y-71008380D01*
X221051949Y-71113834D01*
X220917830Y-71178022D01*
X220768708Y-71194645D01*
X220615003Y-71157405D01*
X220554092Y-71125725D01*
X220460293Y-71038718D01*
X220383014Y-70913530D01*
X220335643Y-70775403D01*
X220327145Y-70697875D01*
X220327145Y-71923144D01*
X220374800Y-71983459D01*
X220520704Y-72167091D01*
X220646180Y-72323913D01*
X220747045Y-72448708D01*
X220819115Y-72536254D01*
X220858207Y-72581335D01*
X220863944Y-72586377D01*
X220886350Y-72561326D01*
X220939581Y-72491451D01*
X221018274Y-72384110D01*
X221117070Y-72246658D01*
X221230608Y-72086455D01*
X221294125Y-71995983D01*
X221413578Y-71826002D01*
X221521276Y-71674083D01*
X221611791Y-71547776D01*
X221679694Y-71454629D01*
X221719557Y-71402189D01*
X221727364Y-71393537D01*
X221749348Y-71414599D01*
X221789116Y-71486522D01*
X221842924Y-71600427D01*
X221907028Y-71747436D01*
X221977683Y-71918670D01*
X222051146Y-72105251D01*
X222123671Y-72298301D01*
X222191515Y-72488940D01*
X222201040Y-72516730D01*
X222251533Y-72671645D01*
X222306156Y-72850791D01*
X222362496Y-73044918D01*
X222418141Y-73244776D01*
X222470676Y-73441115D01*
X222517689Y-73624686D01*
X222556766Y-73786238D01*
X222585496Y-73916522D01*
X222601465Y-74006288D01*
X222602259Y-74046286D01*
X222600377Y-74047500D01*
X222576725Y-74024329D01*
X222521416Y-73961147D01*
X222442559Y-73867446D01*
X222348264Y-73752720D01*
X222342698Y-73745875D01*
X222247044Y-73630214D01*
X222165336Y-73535264D01*
X222105971Y-73470515D01*
X222077346Y-73445457D01*
X222076864Y-73445417D01*
X222055260Y-73471620D01*
X222005063Y-73544837D01*
X221930883Y-73657955D01*
X221837329Y-73803859D01*
X221729012Y-73975438D01*
X221619042Y-74151855D01*
X221448447Y-74427158D01*
X221308244Y-74653151D01*
X221195270Y-74834433D01*
X221106363Y-74975604D01*
X221038359Y-75081264D01*
X220988095Y-75156011D01*
X220952408Y-75204445D01*
X220928136Y-75231167D01*
X220912114Y-75240775D01*
X220901179Y-75237869D01*
X220892169Y-75227048D01*
X220885867Y-75217978D01*
X220859186Y-75182568D01*
X220798300Y-75102340D01*
X220707521Y-74982960D01*
X220591163Y-74830093D01*
X220453538Y-74649405D01*
X220298959Y-74446560D01*
X220131741Y-74227226D01*
X220071750Y-74148561D01*
X219902290Y-73926934D01*
X219744639Y-73721844D01*
X219602963Y-73538629D01*
X219481430Y-73382630D01*
X219384206Y-73259186D01*
X219315458Y-73173635D01*
X219279352Y-73131318D01*
X219275068Y-73127684D01*
X219252451Y-73151945D01*
X219195774Y-73221587D01*
X219109183Y-73331270D01*
X218996825Y-73475655D01*
X218862847Y-73649404D01*
X218711394Y-73847176D01*
X218546614Y-74063634D01*
X218481318Y-74149739D01*
X218311521Y-74373873D01*
X218152883Y-74583249D01*
X218009686Y-74772221D01*
X217886208Y-74935142D01*
X217786729Y-75066365D01*
X217715531Y-75160244D01*
X217676892Y-75211131D01*
X217671847Y-75217747D01*
X217655621Y-75220340D01*
X217624148Y-75200474D01*
X217574189Y-75154542D01*
X217502506Y-75078939D01*
X217405861Y-74970061D01*
X217281015Y-74824301D01*
X217124730Y-74638056D01*
X216933768Y-74407720D01*
X216817113Y-74266194D01*
X216635490Y-74045632D01*
X216463506Y-73836989D01*
X216306014Y-73646141D01*
X216167869Y-73478958D01*
X216053925Y-73341315D01*
X215969035Y-73239084D01*
X215918054Y-73178137D01*
X215909649Y-73168260D01*
X215822391Y-73066895D01*
X215023252Y-74132228D01*
X214852423Y-74358552D01*
X214692898Y-74567191D01*
X214548734Y-74753038D01*
X214423988Y-74910986D01*
X214322716Y-75035929D01*
X214248976Y-75122759D01*
X214206824Y-75166369D01*
X214198683Y-75170218D01*
X214174488Y-75138739D01*
X214117641Y-75062116D01*
X214032744Y-74946630D01*
X213924395Y-74798563D01*
X213797194Y-74624195D01*
X213655740Y-74429810D01*
X213562542Y-74301500D01*
X213415096Y-74098494D01*
X213279573Y-73912154D01*
X213160474Y-73748647D01*
X213062298Y-73614142D01*
X212989545Y-73514805D01*
X212946714Y-73456804D01*
X212937107Y-73444250D01*
X212910917Y-73458939D01*
X212853376Y-73511687D01*
X212774841Y-73592668D01*
X212736270Y-73634750D01*
X212550157Y-73841125D01*
X212550157Y-76936497D01*
X212613150Y-76812346D01*
X212696082Y-76653062D01*
X212776114Y-76506782D01*
X212845896Y-76386429D01*
X212898078Y-76304927D01*
X212912567Y-76285875D01*
X212993187Y-76190625D01*
X213055111Y-76270000D01*
X213087231Y-76314455D01*
X213150418Y-76404778D01*
X213240075Y-76534296D01*
X213351608Y-76696336D01*
X213480422Y-76884224D01*
X213621921Y-77091289D01*
X213739177Y-77263343D01*
X213918346Y-77526555D01*
X213918346Y-76077584D01*
X213960546Y-75904207D01*
X213981612Y-75859599D01*
X214080780Y-75725331D01*
X214203124Y-75641899D01*
X214338050Y-75606364D01*
X214474965Y-75615786D01*
X214603276Y-75667223D01*
X214712391Y-75757736D01*
X214791715Y-75884385D01*
X214830655Y-76044229D01*
X214832882Y-76095870D01*
X214808792Y-76278477D01*
X214735119Y-76422356D01*
X214610208Y-76530434D01*
X214576651Y-76549198D01*
X214417589Y-76601999D01*
X214266450Y-76592289D01*
X214136462Y-76528325D01*
X214008837Y-76400582D01*
X213935287Y-76246688D01*
X213918346Y-76077584D01*
X213918346Y-77526555D01*
X214361317Y-78177311D01*
X215105136Y-77193793D01*
X215270645Y-76975395D01*
X215424561Y-76773154D01*
X215562608Y-76592621D01*
X215680513Y-76439351D01*
X215773998Y-76318896D01*
X215838790Y-76236810D01*
X215870613Y-76198646D01*
X215872790Y-76196682D01*
X215897516Y-76217350D01*
X215958386Y-76281992D01*
X216051083Y-76385642D01*
X216171292Y-76523332D01*
X216314695Y-76690096D01*
X216476977Y-76880966D01*
X216653821Y-77090976D01*
X216753875Y-77210618D01*
X216936902Y-77429386D01*
X217107616Y-77632254D01*
X217147633Y-77679502D01*
X217147633Y-76161893D01*
X217159890Y-76017040D01*
X217212987Y-75880627D01*
X217303729Y-75763267D01*
X217428919Y-75675573D01*
X217585363Y-75628157D01*
X217664326Y-75622788D01*
X217823255Y-75649657D01*
X217952574Y-75722811D01*
X218049696Y-75831069D01*
X218112031Y-75963253D01*
X218136989Y-76108181D01*
X218121980Y-76254673D01*
X218064417Y-76391550D01*
X217961708Y-76507632D01*
X217881496Y-76560461D01*
X217718147Y-76613104D01*
X217547733Y-76604937D01*
X217387859Y-76540957D01*
X217258422Y-76434464D01*
X217179412Y-76304572D01*
X217147633Y-76161893D01*
X217147633Y-77679502D01*
X217261696Y-77814176D01*
X217394824Y-77970104D01*
X217502679Y-78094992D01*
X217580940Y-78183794D01*
X217625289Y-78231462D01*
X217633587Y-78238324D01*
X217657316Y-78214115D01*
X217715600Y-78144951D01*
X217804194Y-78036145D01*
X217918850Y-77893007D01*
X218055324Y-77720850D01*
X218209370Y-77524986D01*
X218376742Y-77310727D01*
X218439189Y-77230437D01*
X218610624Y-77009869D01*
X218770240Y-76804710D01*
X218913761Y-76620439D01*
X219036916Y-76462531D01*
X219135431Y-76336466D01*
X219205034Y-76247719D01*
X219241451Y-76201767D01*
X219245541Y-76196836D01*
X219269654Y-76215174D01*
X219328538Y-76278342D01*
X219417847Y-76381150D01*
X219533231Y-76518411D01*
X219670342Y-76684934D01*
X219824831Y-76875532D01*
X219992352Y-77085014D01*
X220037081Y-77141398D01*
X220207500Y-77355847D01*
X220365910Y-77553794D01*
X220412354Y-77611375D01*
X220412354Y-76182697D01*
X220414004Y-76021950D01*
X220464333Y-75869798D01*
X220545268Y-75759847D01*
X220679797Y-75663473D01*
X220825101Y-75622543D01*
X220970295Y-75632813D01*
X221104494Y-75690036D01*
X221216813Y-75789965D01*
X221296366Y-75928355D01*
X221329307Y-76065691D01*
X221321582Y-76231046D01*
X221266011Y-76376580D01*
X221172539Y-76494579D01*
X221051115Y-76577327D01*
X220911685Y-76617108D01*
X220764197Y-76606206D01*
X220676227Y-76572259D01*
X220545791Y-76472277D01*
X220457059Y-76337615D01*
X220412354Y-76182697D01*
X220412354Y-77611375D01*
X220507948Y-77729892D01*
X220629251Y-77878791D01*
X220725455Y-77995143D01*
X220792195Y-78073599D01*
X220825108Y-78108810D01*
X220827518Y-78110231D01*
X220851073Y-78085540D01*
X220908597Y-78015749D01*
X220995749Y-77906398D01*
X221108186Y-77763028D01*
X221241568Y-77591179D01*
X221391550Y-77396393D01*
X221553793Y-77184209D01*
X221573963Y-77157731D01*
X221737461Y-76943848D01*
X221889338Y-76746756D01*
X222025239Y-76571991D01*
X222140807Y-76425085D01*
X222231683Y-76311572D01*
X222293512Y-76236987D01*
X222321936Y-76206864D01*
X222322896Y-76206500D01*
X222351190Y-76234168D01*
X222396011Y-76308778D01*
X222451803Y-76417733D01*
X222513009Y-76548436D01*
X222574075Y-76688292D01*
X222629443Y-76824705D01*
X222673557Y-76945079D01*
X222700863Y-77036818D01*
X222707001Y-77077303D01*
X222698375Y-77184727D01*
X222674704Y-77337808D01*
X222639300Y-77522450D01*
X222595472Y-77724554D01*
X222546532Y-77930024D01*
X222495789Y-78124763D01*
X222446556Y-78294672D01*
X222402142Y-78425656D01*
X222376297Y-78485465D01*
X222353489Y-78523874D01*
X222330793Y-78529933D01*
X222295863Y-78497542D01*
X222236350Y-78420595D01*
X222231235Y-78413770D01*
X222169753Y-78340002D01*
X222121901Y-78297588D01*
X222102183Y-78293805D01*
X222079822Y-78325132D01*
X222026380Y-78402603D01*
X221946288Y-78519719D01*
X221843974Y-78669980D01*
X221723868Y-78846888D01*
X221590398Y-79043943D01*
X221516713Y-79152912D01*
X220952374Y-79987949D01*
X220870461Y-79914912D01*
X220828402Y-79875551D01*
X220746955Y-79797658D01*
X220632159Y-79687067D01*
X220490053Y-79549618D01*
X220326676Y-79391147D01*
X220148066Y-79217491D01*
X220028455Y-79100986D01*
X219268362Y-78360098D01*
X219133888Y-78497736D01*
X219076905Y-78556890D01*
X218983497Y-78654837D01*
X218860743Y-78784110D01*
X218715720Y-78937245D01*
X218555508Y-79106775D01*
X218387184Y-79285235D01*
X218371270Y-79302125D01*
X218209794Y-79472644D01*
X218061979Y-79627054D01*
X217933502Y-79759558D01*
X217830039Y-79864361D01*
X217757267Y-79935667D01*
X217720863Y-79967679D01*
X217718243Y-79968875D01*
X217689939Y-79947659D01*
X217621965Y-79887652D01*
X217520194Y-79794311D01*
X217390497Y-79673095D01*
X217238749Y-79529463D01*
X217070821Y-79368873D01*
X217017243Y-79317316D01*
X216835262Y-79142129D01*
X216658696Y-78972497D01*
X216495398Y-78815938D01*
X216353222Y-78679971D01*
X216240021Y-78572117D01*
X216163648Y-78499894D01*
X216156970Y-78493641D01*
X215972815Y-78321525D01*
X215165460Y-79128415D01*
X214945256Y-79346879D01*
X214754285Y-79533032D01*
X214595252Y-79684360D01*
X214470861Y-79798351D01*
X214383819Y-79872495D01*
X214336829Y-79904278D01*
X214329752Y-79904464D01*
X214304472Y-79872171D01*
X214246220Y-79795222D01*
X214159782Y-79680018D01*
X214049942Y-79532959D01*
X213921486Y-79360445D01*
X213779199Y-79168876D01*
X213704758Y-79068478D01*
X213538834Y-78844903D01*
X213406337Y-78667674D01*
X213303075Y-78531980D01*
X213224852Y-78433012D01*
X213167476Y-78365960D01*
X213126752Y-78326015D01*
X213098487Y-78308367D01*
X213078486Y-78308206D01*
X213062555Y-78320723D01*
X213057746Y-78326477D01*
X212926895Y-78486284D01*
X212830322Y-78594499D01*
X212766928Y-78652263D01*
X212735613Y-78660715D01*
X212735478Y-78660575D01*
X212713080Y-78614277D01*
X212680610Y-78517861D01*
X212641205Y-78383317D01*
X212598003Y-78222638D01*
X212554141Y-78047815D01*
X212512757Y-77870841D01*
X212476990Y-77703706D01*
X212455418Y-77590221D01*
X212394354Y-77243567D01*
X212394354Y-78200953D01*
X212507364Y-78604781D01*
X212721604Y-79170671D01*
X212978887Y-79693696D01*
X213278017Y-80172582D01*
X213617800Y-80606057D01*
X213997039Y-80992845D01*
X214261500Y-81207473D01*
X214261500Y-80850763D01*
X214288860Y-80694964D01*
X214363200Y-80569205D01*
X214472915Y-80480078D01*
X214606398Y-80434174D01*
X214752043Y-80438085D01*
X214890474Y-80493563D01*
X214990484Y-80588935D01*
X215057588Y-80722382D01*
X215087375Y-80875233D01*
X215075434Y-81028818D01*
X215040010Y-81126523D01*
X214990517Y-81198081D01*
X214921805Y-81270964D01*
X214852683Y-81327495D01*
X214802232Y-81350000D01*
X214767016Y-81333114D01*
X214695039Y-81288641D01*
X214601246Y-81225859D01*
X214592202Y-81219598D01*
X214452203Y-81119770D01*
X214357676Y-81043857D01*
X214300100Y-80982353D01*
X214270952Y-80925755D01*
X214261710Y-80864558D01*
X214261500Y-80850763D01*
X214261500Y-81207473D01*
X214414539Y-81331675D01*
X214869105Y-81621271D01*
X215359542Y-81860361D01*
X215884653Y-82047671D01*
X216443244Y-82181927D01*
X216800668Y-82237321D01*
X216931133Y-82249076D01*
X217099814Y-82257916D01*
X217158919Y-82259697D01*
X217158919Y-81088597D01*
X217165064Y-80933736D01*
X217219837Y-80785174D01*
X217324746Y-80656311D01*
X217466265Y-80568284D01*
X217615991Y-80535645D01*
X217762936Y-80553255D01*
X217896111Y-80615975D01*
X218004527Y-80718664D01*
X218077193Y-80856182D01*
X218103132Y-81020372D01*
X218075510Y-81192059D01*
X217999742Y-81332952D01*
X217886045Y-81436546D01*
X217744638Y-81496337D01*
X217585741Y-81505819D01*
X217419572Y-81458488D01*
X217416861Y-81457210D01*
X217286355Y-81363709D01*
X217199862Y-81236379D01*
X217158919Y-81088597D01*
X217158919Y-82259697D01*
X217290103Y-82263650D01*
X217485394Y-82266088D01*
X217669082Y-82265040D01*
X217824561Y-82260314D01*
X217935225Y-82251721D01*
X217944500Y-82250451D01*
X218014674Y-82240249D01*
X218124829Y-82224341D01*
X218252089Y-82206030D01*
X218262000Y-82204607D01*
X218822236Y-82093085D01*
X219358376Y-81924236D01*
X219867827Y-81700482D01*
X220081737Y-81577420D01*
X220081737Y-80865025D01*
X220082715Y-80721761D01*
X220134576Y-80573518D01*
X220226644Y-80444023D01*
X220345109Y-80364421D01*
X220477990Y-80334012D01*
X220613310Y-80352097D01*
X220739088Y-80417977D01*
X220843345Y-80530954D01*
X220889139Y-80617559D01*
X220915590Y-80688898D01*
X220912898Y-80735324D01*
X220873613Y-80782161D01*
X220829260Y-80821096D01*
X220750369Y-80885880D01*
X220642408Y-80970723D01*
X220527570Y-81058212D01*
X220517758Y-81065543D01*
X220395480Y-81149934D01*
X220307223Y-81188737D01*
X220241501Y-81180652D01*
X220186827Y-81124379D01*
X220133249Y-81022000D01*
X220081737Y-80865025D01*
X220081737Y-81577420D01*
X220347993Y-81424244D01*
X220796282Y-81097943D01*
X221210098Y-80724003D01*
X221586848Y-80304844D01*
X221923937Y-79842888D01*
X222218772Y-79340557D01*
X222468757Y-78800273D01*
X222671299Y-78224457D01*
X222724031Y-78039184D01*
X222861862Y-77413938D01*
X222947676Y-76763291D01*
X222983072Y-76093310D01*
X222969647Y-75410064D01*
X222909000Y-74719620D01*
X222802728Y-74028048D01*
X222652431Y-73341415D01*
X222459705Y-72665789D01*
X222226150Y-72007238D01*
X221953364Y-71371831D01*
X221642944Y-70765636D01*
X221296489Y-70194720D01*
X220915597Y-69665151D01*
X220501866Y-69182999D01*
X220350605Y-69027570D01*
X219951234Y-68667015D01*
X219538267Y-68364167D01*
X219114099Y-68119742D01*
X218681125Y-67934452D01*
X218241740Y-67809013D01*
X217798340Y-67744139D01*
X217353318Y-67740543D01*
X216909071Y-67798941D01*
X216547500Y-67893441D01*
X216114144Y-68065020D01*
X215691687Y-68295949D01*
X215282274Y-68582688D01*
X214888050Y-68921693D01*
X214511161Y-69309422D01*
X214153753Y-69742332D01*
X213817970Y-70216882D01*
X213505959Y-70729528D01*
X213219863Y-71276728D01*
X212961830Y-71854939D01*
X212734004Y-72460620D01*
X212538531Y-73090227D01*
X212377555Y-73740218D01*
X212253223Y-74407052D01*
X212167680Y-75087184D01*
X212163456Y-75132393D01*
X212148832Y-75354455D01*
X212140526Y-75619481D01*
X212138215Y-75912897D01*
X212138215Y-75912897D01*
X212138215Y-75912897D01*
G37*
X212138215Y-75912897D02*
X212141573Y-76220132D01*
X212150278Y-76526611D01*
X212164004Y-76817763D01*
X212182427Y-77079014D01*
X212205223Y-77295793D01*
X212212794Y-77349500D01*
X212337362Y-77997299D01*
X212394354Y-78200953D01*
X212394354Y-77243567D01*
X212550157Y-76936497D01*
X212550157Y-73841125D01*
X212672881Y-73364875D01*
X212889138Y-72628304D01*
X213150424Y-71917800D01*
X213206814Y-71782215D01*
X213269914Y-71636264D01*
X213314727Y-71541630D01*
X213346256Y-71490555D01*
X213369504Y-71475280D01*
X213389474Y-71488048D01*
X213393317Y-71493013D01*
X213420942Y-71536161D01*
X213475083Y-71625202D01*
X213550360Y-71751119D01*
X213641390Y-71904899D01*
X213742795Y-72077524D01*
X213774126Y-72131110D01*
X213853188Y-72265334D01*
X213853188Y-70704023D01*
X213872103Y-70554053D01*
X213927128Y-70414499D01*
X214014965Y-70297043D01*
X214132318Y-70213369D01*
X214275891Y-70175158D01*
X214307251Y-70174000D01*
X214440554Y-70201621D01*
X214570970Y-70274653D01*
X214675290Y-70378344D01*
X214705573Y-70427162D01*
X214760066Y-70588541D01*
X214763883Y-70744914D01*
X214724479Y-70888682D01*
X214649305Y-71012248D01*
X214545814Y-71108013D01*
X214421458Y-71168377D01*
X214283691Y-71185743D01*
X214139964Y-71152511D01*
X214046065Y-71099602D01*
X213936872Y-70988480D01*
X213873679Y-70852726D01*
X213853188Y-70704023D01*
X213853188Y-72265334D01*
X213875561Y-72303317D01*
X213966638Y-72455159D01*
X214042447Y-72578675D01*
X214098077Y-72665904D01*
X214128614Y-72708882D01*
X214132471Y-72711996D01*
X214154466Y-72686826D01*
X214210044Y-72615687D01*
X214295258Y-72503836D01*
X214406162Y-72356527D01*
X214538810Y-72179015D01*
X214689255Y-71976557D01*
X214853550Y-71754406D01*
X214956800Y-71614303D01*
X215152182Y-71349072D01*
X215313596Y-71130831D01*
X215444571Y-70955322D01*
X215548641Y-70818292D01*
X215629335Y-70715484D01*
X215690187Y-70642643D01*
X215734727Y-70595513D01*
X215766487Y-70569840D01*
X215788998Y-70561368D01*
X215805792Y-70565841D01*
X215818069Y-70576493D01*
X215850028Y-70612672D01*
X215918412Y-70691837D01*
X216018569Y-70808547D01*
X216145848Y-70957363D01*
X216295600Y-71132843D01*
X216463173Y-71329546D01*
X216643917Y-71542034D01*
X216722487Y-71634500D01*
X216905690Y-71849770D01*
X217076369Y-72049560D01*
X217081959Y-72056075D01*
X217081959Y-70697874D01*
X217108617Y-70531368D01*
X217181256Y-70395693D01*
X217288874Y-70293657D01*
X217420471Y-70228068D01*
X217565044Y-70201737D01*
X217711592Y-70217471D01*
X217849114Y-70278080D01*
X217966608Y-70386371D01*
X218014665Y-70459750D01*
X218058706Y-70597576D01*
X218062259Y-70755722D01*
X218026946Y-70906981D01*
X217983003Y-70990016D01*
X217869818Y-71098806D01*
X217724483Y-71166871D01*
X217564859Y-71190814D01*
X217408804Y-71167237D01*
X217307975Y-71118454D01*
X217177904Y-70995477D01*
X217101638Y-70841174D01*
X217081959Y-70697874D01*
X217081959Y-72056075D01*
X217230110Y-72228759D01*
X217362500Y-72382259D01*
X217469125Y-72504949D01*
X217545573Y-72591719D01*
X217587429Y-72637459D01*
X217593835Y-72643309D01*
X217616809Y-72620551D01*
X217673461Y-72551952D01*
X217759749Y-72442753D01*
X217871631Y-72298198D01*
X218005065Y-72123527D01*
X218156010Y-71923983D01*
X218320424Y-71704807D01*
X218407117Y-71588557D01*
X218576692Y-71361231D01*
X218734575Y-71150555D01*
X218876751Y-70961817D01*
X218999204Y-70800302D01*
X219097918Y-70671296D01*
X219168877Y-70580086D01*
X219208067Y-70531958D01*
X219214500Y-70525702D01*
X219236860Y-70549983D01*
X219294127Y-70619087D01*
X219382126Y-70727788D01*
X219496681Y-70870862D01*
X219633617Y-71043083D01*
X219788757Y-71239227D01*
X219957925Y-71454070D01*
X220038444Y-71556641D01*
X220212652Y-71778236D01*
X220327145Y-71923144D01*
X220327145Y-70697875D01*
X220350522Y-70563976D01*
X220411728Y-70428085D01*
X220497374Y-70315444D01*
X220554092Y-70270024D01*
X220706872Y-70209126D01*
X220859069Y-70204704D01*
X221000356Y-70250486D01*
X221120408Y-70340201D01*
X221208899Y-70467575D01*
X221255504Y-70626339D01*
X221260108Y-70698872D01*
X221233506Y-70867960D01*
X221160647Y-71008380D01*
X221051949Y-71113834D01*
X220917830Y-71178022D01*
X220768708Y-71194645D01*
X220615003Y-71157405D01*
X220554092Y-71125725D01*
X220460293Y-71038718D01*
X220383014Y-70913530D01*
X220335643Y-70775403D01*
X220327145Y-70697875D01*
X220327145Y-71923144D01*
X220374800Y-71983459D01*
X220520704Y-72167091D01*
X220646180Y-72323913D01*
X220747045Y-72448708D01*
X220819115Y-72536254D01*
X220858207Y-72581335D01*
X220863944Y-72586377D01*
X220886350Y-72561326D01*
X220939581Y-72491451D01*
X221018274Y-72384110D01*
X221117070Y-72246658D01*
X221230608Y-72086455D01*
X221294125Y-71995983D01*
X221413578Y-71826002D01*
X221521276Y-71674083D01*
X221611791Y-71547776D01*
X221679694Y-71454629D01*
X221719557Y-71402189D01*
X221727364Y-71393537D01*
X221749348Y-71414599D01*
X221789116Y-71486522D01*
X221842924Y-71600427D01*
X221907028Y-71747436D01*
X221977683Y-71918670D01*
X222051146Y-72105251D01*
X222123671Y-72298301D01*
X222191515Y-72488940D01*
X222201040Y-72516730D01*
X222251533Y-72671645D01*
X222306156Y-72850791D01*
X222362496Y-73044918D01*
X222418141Y-73244776D01*
X222470676Y-73441115D01*
X222517689Y-73624686D01*
X222556766Y-73786238D01*
X222585496Y-73916522D01*
X222601465Y-74006288D01*
X222602259Y-74046286D01*
X222600377Y-74047500D01*
X222576725Y-74024329D01*
X222521416Y-73961147D01*
X222442559Y-73867446D01*
X222348264Y-73752720D01*
X222342698Y-73745875D01*
X222247044Y-73630214D01*
X222165336Y-73535264D01*
X222105971Y-73470515D01*
X222077346Y-73445457D01*
X222076864Y-73445417D01*
X222055260Y-73471620D01*
X222005063Y-73544837D01*
X221930883Y-73657955D01*
X221837329Y-73803859D01*
X221729012Y-73975438D01*
X221619042Y-74151855D01*
X221448447Y-74427158D01*
X221308244Y-74653151D01*
X221195270Y-74834433D01*
X221106363Y-74975604D01*
X221038359Y-75081264D01*
X220988095Y-75156011D01*
X220952408Y-75204445D01*
X220928136Y-75231167D01*
X220912114Y-75240775D01*
X220901179Y-75237869D01*
X220892169Y-75227048D01*
X220885867Y-75217978D01*
X220859186Y-75182568D01*
X220798300Y-75102340D01*
X220707521Y-74982960D01*
X220591163Y-74830093D01*
X220453538Y-74649405D01*
X220298959Y-74446560D01*
X220131741Y-74227226D01*
X220071750Y-74148561D01*
X219902290Y-73926934D01*
X219744639Y-73721844D01*
X219602963Y-73538629D01*
X219481430Y-73382630D01*
X219384206Y-73259186D01*
X219315458Y-73173635D01*
X219279352Y-73131318D01*
X219275068Y-73127684D01*
X219252451Y-73151945D01*
X219195774Y-73221587D01*
X219109183Y-73331270D01*
X218996825Y-73475655D01*
X218862847Y-73649404D01*
X218711394Y-73847176D01*
X218546614Y-74063634D01*
X218481318Y-74149739D01*
X218311521Y-74373873D01*
X218152883Y-74583249D01*
X218009686Y-74772221D01*
X217886208Y-74935142D01*
X217786729Y-75066365D01*
X217715531Y-75160244D01*
X217676892Y-75211131D01*
X217671847Y-75217747D01*
X217655621Y-75220340D01*
X217624148Y-75200474D01*
X217574189Y-75154542D01*
X217502506Y-75078939D01*
X217405861Y-74970061D01*
X217281015Y-74824301D01*
X217124730Y-74638056D01*
X216933768Y-74407720D01*
X216817113Y-74266194D01*
X216635490Y-74045632D01*
X216463506Y-73836989D01*
X216306014Y-73646141D01*
X216167869Y-73478958D01*
X216053925Y-73341315D01*
X215969035Y-73239084D01*
X215918054Y-73178137D01*
X215909649Y-73168260D01*
X215822391Y-73066895D01*
X215023252Y-74132228D01*
X214852423Y-74358552D01*
X214692898Y-74567191D01*
X214548734Y-74753038D01*
X214423988Y-74910986D01*
X214322716Y-75035929D01*
X214248976Y-75122759D01*
X214206824Y-75166369D01*
X214198683Y-75170218D01*
X214174488Y-75138739D01*
X214117641Y-75062116D01*
X214032744Y-74946630D01*
X213924395Y-74798563D01*
X213797194Y-74624195D01*
X213655740Y-74429810D01*
X213562542Y-74301500D01*
X213415096Y-74098494D01*
X213279573Y-73912154D01*
X213160474Y-73748647D01*
X213062298Y-73614142D01*
X212989545Y-73514805D01*
X212946714Y-73456804D01*
X212937107Y-73444250D01*
X212910917Y-73458939D01*
X212853376Y-73511687D01*
X212774841Y-73592668D01*
X212736270Y-73634750D01*
X212550157Y-73841125D01*
X212550157Y-76936497D01*
X212613150Y-76812346D01*
X212696082Y-76653062D01*
X212776114Y-76506782D01*
X212845896Y-76386429D01*
X212898078Y-76304927D01*
X212912567Y-76285875D01*
X212993187Y-76190625D01*
X213055111Y-76270000D01*
X213087231Y-76314455D01*
X213150418Y-76404778D01*
X213240075Y-76534296D01*
X213351608Y-76696336D01*
X213480422Y-76884224D01*
X213621921Y-77091289D01*
X213739177Y-77263343D01*
X213918346Y-77526555D01*
X213918346Y-76077584D01*
X213960546Y-75904207D01*
X213981612Y-75859599D01*
X214080780Y-75725331D01*
X214203124Y-75641899D01*
X214338050Y-75606364D01*
X214474965Y-75615786D01*
X214603276Y-75667223D01*
X214712391Y-75757736D01*
X214791715Y-75884385D01*
X214830655Y-76044229D01*
X214832882Y-76095870D01*
X214808792Y-76278477D01*
X214735119Y-76422356D01*
X214610208Y-76530434D01*
X214576651Y-76549198D01*
X214417589Y-76601999D01*
X214266450Y-76592289D01*
X214136462Y-76528325D01*
X214008837Y-76400582D01*
X213935287Y-76246688D01*
X213918346Y-76077584D01*
X213918346Y-77526555D01*
X214361317Y-78177311D01*
X215105136Y-77193793D01*
X215270645Y-76975395D01*
X215424561Y-76773154D01*
X215562608Y-76592621D01*
X215680513Y-76439351D01*
X215773998Y-76318896D01*
X215838790Y-76236810D01*
X215870613Y-76198646D01*
X215872790Y-76196682D01*
X215897516Y-76217350D01*
X215958386Y-76281992D01*
X216051083Y-76385642D01*
X216171292Y-76523332D01*
X216314695Y-76690096D01*
X216476977Y-76880966D01*
X216653821Y-77090976D01*
X216753875Y-77210618D01*
X216936902Y-77429386D01*
X217107616Y-77632254D01*
X217147633Y-77679502D01*
X217147633Y-76161893D01*
X217159890Y-76017040D01*
X217212987Y-75880627D01*
X217303729Y-75763267D01*
X217428919Y-75675573D01*
X217585363Y-75628157D01*
X217664326Y-75622788D01*
X217823255Y-75649657D01*
X217952574Y-75722811D01*
X218049696Y-75831069D01*
X218112031Y-75963253D01*
X218136989Y-76108181D01*
X218121980Y-76254673D01*
X218064417Y-76391550D01*
X217961708Y-76507632D01*
X217881496Y-76560461D01*
X217718147Y-76613104D01*
X217547733Y-76604937D01*
X217387859Y-76540957D01*
X217258422Y-76434464D01*
X217179412Y-76304572D01*
X217147633Y-76161893D01*
X217147633Y-77679502D01*
X217261696Y-77814176D01*
X217394824Y-77970104D01*
X217502679Y-78094992D01*
X217580940Y-78183794D01*
X217625289Y-78231462D01*
X217633587Y-78238324D01*
X217657316Y-78214115D01*
X217715600Y-78144951D01*
X217804194Y-78036145D01*
X217918850Y-77893007D01*
X218055324Y-77720850D01*
X218209370Y-77524986D01*
X218376742Y-77310727D01*
X218439189Y-77230437D01*
X218610624Y-77009869D01*
X218770240Y-76804710D01*
X218913761Y-76620439D01*
X219036916Y-76462531D01*
X219135431Y-76336466D01*
X219205034Y-76247719D01*
X219241451Y-76201767D01*
X219245541Y-76196836D01*
X219269654Y-76215174D01*
X219328538Y-76278342D01*
X219417847Y-76381150D01*
X219533231Y-76518411D01*
X219670342Y-76684934D01*
X219824831Y-76875532D01*
X219992352Y-77085014D01*
X220037081Y-77141398D01*
X220207500Y-77355847D01*
X220365910Y-77553794D01*
X220412354Y-77611375D01*
X220412354Y-76182697D01*
X220414004Y-76021950D01*
X220464333Y-75869798D01*
X220545268Y-75759847D01*
X220679797Y-75663473D01*
X220825101Y-75622543D01*
X220970295Y-75632813D01*
X221104494Y-75690036D01*
X221216813Y-75789965D01*
X221296366Y-75928355D01*
X221329307Y-76065691D01*
X221321582Y-76231046D01*
X221266011Y-76376580D01*
X221172539Y-76494579D01*
X221051115Y-76577327D01*
X220911685Y-76617108D01*
X220764197Y-76606206D01*
X220676227Y-76572259D01*
X220545791Y-76472277D01*
X220457059Y-76337615D01*
X220412354Y-76182697D01*
X220412354Y-77611375D01*
X220507948Y-77729892D01*
X220629251Y-77878791D01*
X220725455Y-77995143D01*
X220792195Y-78073599D01*
X220825108Y-78108810D01*
X220827518Y-78110231D01*
X220851073Y-78085540D01*
X220908597Y-78015749D01*
X220995749Y-77906398D01*
X221108186Y-77763028D01*
X221241568Y-77591179D01*
X221391550Y-77396393D01*
X221553793Y-77184209D01*
X221573963Y-77157731D01*
X221737461Y-76943848D01*
X221889338Y-76746756D01*
X222025239Y-76571991D01*
X222140807Y-76425085D01*
X222231683Y-76311572D01*
X222293512Y-76236987D01*
X222321936Y-76206864D01*
X222322896Y-76206500D01*
X222351190Y-76234168D01*
X222396011Y-76308778D01*
X222451803Y-76417733D01*
X222513009Y-76548436D01*
X222574075Y-76688292D01*
X222629443Y-76824705D01*
X222673557Y-76945079D01*
X222700863Y-77036818D01*
X222707001Y-77077303D01*
X222698375Y-77184727D01*
X222674704Y-77337808D01*
X222639300Y-77522450D01*
X222595472Y-77724554D01*
X222546532Y-77930024D01*
X222495789Y-78124763D01*
X222446556Y-78294672D01*
X222402142Y-78425656D01*
X222376297Y-78485465D01*
X222353489Y-78523874D01*
X222330793Y-78529933D01*
X222295863Y-78497542D01*
X222236350Y-78420595D01*
X222231235Y-78413770D01*
X222169753Y-78340002D01*
X222121901Y-78297588D01*
X222102183Y-78293805D01*
X222079822Y-78325132D01*
X222026380Y-78402603D01*
X221946288Y-78519719D01*
X221843974Y-78669980D01*
X221723868Y-78846888D01*
X221590398Y-79043943D01*
X221516713Y-79152912D01*
X220952374Y-79987949D01*
X220870461Y-79914912D01*
X220828402Y-79875551D01*
X220746955Y-79797658D01*
X220632159Y-79687067D01*
X220490053Y-79549618D01*
X220326676Y-79391147D01*
X220148066Y-79217491D01*
X220028455Y-79100986D01*
X219268362Y-78360098D01*
X219133888Y-78497736D01*
X219076905Y-78556890D01*
X218983497Y-78654837D01*
X218860743Y-78784110D01*
X218715720Y-78937245D01*
X218555508Y-79106775D01*
X218387184Y-79285235D01*
X218371270Y-79302125D01*
X218209794Y-79472644D01*
X218061979Y-79627054D01*
X217933502Y-79759558D01*
X217830039Y-79864361D01*
X217757267Y-79935667D01*
X217720863Y-79967679D01*
X217718243Y-79968875D01*
X217689939Y-79947659D01*
X217621965Y-79887652D01*
X217520194Y-79794311D01*
X217390497Y-79673095D01*
X217238749Y-79529463D01*
X217070821Y-79368873D01*
X217017243Y-79317316D01*
X216835262Y-79142129D01*
X216658696Y-78972497D01*
X216495398Y-78815938D01*
X216353222Y-78679971D01*
X216240021Y-78572117D01*
X216163648Y-78499894D01*
X216156970Y-78493641D01*
X215972815Y-78321525D01*
X215165460Y-79128415D01*
X214945256Y-79346879D01*
X214754285Y-79533032D01*
X214595252Y-79684360D01*
X214470861Y-79798351D01*
X214383819Y-79872495D01*
X214336829Y-79904278D01*
X214329752Y-79904464D01*
X214304472Y-79872171D01*
X214246220Y-79795222D01*
X214159782Y-79680018D01*
X214049942Y-79532959D01*
X213921486Y-79360445D01*
X213779199Y-79168876D01*
X213704758Y-79068478D01*
X213538834Y-78844903D01*
X213406337Y-78667674D01*
X213303075Y-78531980D01*
X213224852Y-78433012D01*
X213167476Y-78365960D01*
X213126752Y-78326015D01*
X213098487Y-78308367D01*
X213078486Y-78308206D01*
X213062555Y-78320723D01*
X213057746Y-78326477D01*
X212926895Y-78486284D01*
X212830322Y-78594499D01*
X212766928Y-78652263D01*
X212735613Y-78660715D01*
X212735478Y-78660575D01*
X212713080Y-78614277D01*
X212680610Y-78517861D01*
X212641205Y-78383317D01*
X212598003Y-78222638D01*
X212554141Y-78047815D01*
X212512757Y-77870841D01*
X212476990Y-77703706D01*
X212455418Y-77590221D01*
X212394354Y-77243567D01*
X212394354Y-78200953D01*
X212507364Y-78604781D01*
X212721604Y-79170671D01*
X212978887Y-79693696D01*
X213278017Y-80172582D01*
X213617800Y-80606057D01*
X213997039Y-80992845D01*
X214261500Y-81207473D01*
X214261500Y-80850763D01*
X214288860Y-80694964D01*
X214363200Y-80569205D01*
X214472915Y-80480078D01*
X214606398Y-80434174D01*
X214752043Y-80438085D01*
X214890474Y-80493563D01*
X214990484Y-80588935D01*
X215057588Y-80722382D01*
X215087375Y-80875233D01*
X215075434Y-81028818D01*
X215040010Y-81126523D01*
X214990517Y-81198081D01*
X214921805Y-81270964D01*
X214852683Y-81327495D01*
X214802232Y-81350000D01*
X214767016Y-81333114D01*
X214695039Y-81288641D01*
X214601246Y-81225859D01*
X214592202Y-81219598D01*
X214452203Y-81119770D01*
X214357676Y-81043857D01*
X214300100Y-80982353D01*
X214270952Y-80925755D01*
X214261710Y-80864558D01*
X214261500Y-80850763D01*
X214261500Y-81207473D01*
X214414539Y-81331675D01*
X214869105Y-81621271D01*
X215359542Y-81860361D01*
X215884653Y-82047671D01*
X216443244Y-82181927D01*
X216800668Y-82237321D01*
X216931133Y-82249076D01*
X217099814Y-82257916D01*
X217158919Y-82259697D01*
X217158919Y-81088597D01*
X217165064Y-80933736D01*
X217219837Y-80785174D01*
X217324746Y-80656311D01*
X217466265Y-80568284D01*
X217615991Y-80535645D01*
X217762936Y-80553255D01*
X217896111Y-80615975D01*
X218004527Y-80718664D01*
X218077193Y-80856182D01*
X218103132Y-81020372D01*
X218075510Y-81192059D01*
X217999742Y-81332952D01*
X217886045Y-81436546D01*
X217744638Y-81496337D01*
X217585741Y-81505819D01*
X217419572Y-81458488D01*
X217416861Y-81457210D01*
X217286355Y-81363709D01*
X217199862Y-81236379D01*
X217158919Y-81088597D01*
X217158919Y-82259697D01*
X217290103Y-82263650D01*
X217485394Y-82266088D01*
X217669082Y-82265040D01*
X217824561Y-82260314D01*
X217935225Y-82251721D01*
X217944500Y-82250451D01*
X218014674Y-82240249D01*
X218124829Y-82224341D01*
X218252089Y-82206030D01*
X218262000Y-82204607D01*
X218822236Y-82093085D01*
X219358376Y-81924236D01*
X219867827Y-81700482D01*
X220081737Y-81577420D01*
X220081737Y-80865025D01*
X220082715Y-80721761D01*
X220134576Y-80573518D01*
X220226644Y-80444023D01*
X220345109Y-80364421D01*
X220477990Y-80334012D01*
X220613310Y-80352097D01*
X220739088Y-80417977D01*
X220843345Y-80530954D01*
X220889139Y-80617559D01*
X220915590Y-80688898D01*
X220912898Y-80735324D01*
X220873613Y-80782161D01*
X220829260Y-80821096D01*
X220750369Y-80885880D01*
X220642408Y-80970723D01*
X220527570Y-81058212D01*
X220517758Y-81065543D01*
X220395480Y-81149934D01*
X220307223Y-81188737D01*
X220241501Y-81180652D01*
X220186827Y-81124379D01*
X220133249Y-81022000D01*
X220081737Y-80865025D01*
X220081737Y-81577420D01*
X220347993Y-81424244D01*
X220796282Y-81097943D01*
X221210098Y-80724003D01*
X221586848Y-80304844D01*
X221923937Y-79842888D01*
X222218772Y-79340557D01*
X222468757Y-78800273D01*
X222671299Y-78224457D01*
X222724031Y-78039184D01*
X222861862Y-77413938D01*
X222947676Y-76763291D01*
X222983072Y-76093310D01*
X222969647Y-75410064D01*
X222909000Y-74719620D01*
X222802728Y-74028048D01*
X222652431Y-73341415D01*
X222459705Y-72665789D01*
X222226150Y-72007238D01*
X221953364Y-71371831D01*
X221642944Y-70765636D01*
X221296489Y-70194720D01*
X220915597Y-69665151D01*
X220501866Y-69182999D01*
X220350605Y-69027570D01*
X219951234Y-68667015D01*
X219538267Y-68364167D01*
X219114099Y-68119742D01*
X218681125Y-67934452D01*
X218241740Y-67809013D01*
X217798340Y-67744139D01*
X217353318Y-67740543D01*
X216909071Y-67798941D01*
X216547500Y-67893441D01*
X216114144Y-68065020D01*
X215691687Y-68295949D01*
X215282274Y-68582688D01*
X214888050Y-68921693D01*
X214511161Y-69309422D01*
X214153753Y-69742332D01*
X213817970Y-70216882D01*
X213505959Y-70729528D01*
X213219863Y-71276728D01*
X212961830Y-71854939D01*
X212734004Y-72460620D01*
X212538531Y-73090227D01*
X212377555Y-73740218D01*
X212253223Y-74407052D01*
X212167680Y-75087184D01*
X212163456Y-75132393D01*
X212148832Y-75354455D01*
X212140526Y-75619481D01*
X212138215Y-75912897D01*
X212138215Y-75912897D01*
D12*
X77264286Y-118861905D02*
X77530953Y-118480952D01*
X77721429Y-118861905D02*
X77721429Y-118061905D01*
X77416667Y-118061905D01*
X77340476Y-118100000D01*
X77302381Y-118138095D01*
X77264286Y-118214286D01*
X77264286Y-118328571D01*
X77302381Y-118404762D01*
X77340476Y-118442857D01*
X77416667Y-118480952D01*
X77721429Y-118480952D01*
X76502381Y-118861905D02*
X76959524Y-118861905D01*
X76730953Y-118861905D02*
X76730953Y-118061905D01*
X76807143Y-118176190D01*
X76883334Y-118252381D01*
X76959524Y-118290476D01*
X75816667Y-118061905D02*
X75969048Y-118061905D01*
X76045238Y-118100000D01*
X76083333Y-118138095D01*
X76159524Y-118252381D01*
X76197619Y-118404762D01*
X76197619Y-118709524D01*
X76159524Y-118785714D01*
X76121429Y-118823810D01*
X76045238Y-118861905D01*
X75892857Y-118861905D01*
X75816667Y-118823810D01*
X75778571Y-118785714D01*
X75740476Y-118709524D01*
X75740476Y-118519048D01*
X75778571Y-118442857D01*
X75816667Y-118404762D01*
X75892857Y-118366667D01*
X76045238Y-118366667D01*
X76121429Y-118404762D01*
X76159524Y-118442857D01*
X76197619Y-118519048D01*
X82611905Y-117985714D02*
X82230952Y-117719047D01*
X82611905Y-117528571D02*
X81811905Y-117528571D01*
X81811905Y-117833333D01*
X81850000Y-117909524D01*
X81888095Y-117947619D01*
X81964286Y-117985714D01*
X82078571Y-117985714D01*
X82154762Y-117947619D01*
X82192857Y-117909524D01*
X82230952Y-117833333D01*
X82230952Y-117528571D01*
X82611905Y-118747619D02*
X82611905Y-118290476D01*
X82611905Y-118519047D02*
X81811905Y-118519047D01*
X81926190Y-118442857D01*
X82002381Y-118366666D01*
X82040476Y-118290476D01*
X81811905Y-119014286D02*
X81811905Y-119547619D01*
X82611905Y-119204762D01*
X77264286Y-119861905D02*
X77530953Y-119480952D01*
X77721429Y-119861905D02*
X77721429Y-119061905D01*
X77416667Y-119061905D01*
X77340476Y-119100000D01*
X77302381Y-119138095D01*
X77264286Y-119214286D01*
X77264286Y-119328571D01*
X77302381Y-119404762D01*
X77340476Y-119442857D01*
X77416667Y-119480952D01*
X77721429Y-119480952D01*
X76502381Y-119861905D02*
X76959524Y-119861905D01*
X76730953Y-119861905D02*
X76730953Y-119061905D01*
X76807143Y-119176190D01*
X76883334Y-119252381D01*
X76959524Y-119290476D01*
X76121429Y-119861905D02*
X75969048Y-119861905D01*
X75892857Y-119823810D01*
X75854762Y-119785714D01*
X75778571Y-119671429D01*
X75740476Y-119519048D01*
X75740476Y-119214286D01*
X75778571Y-119138095D01*
X75816667Y-119100000D01*
X75892857Y-119061905D01*
X76045238Y-119061905D01*
X76121429Y-119100000D01*
X76159524Y-119138095D01*
X76197619Y-119214286D01*
X76197619Y-119404762D01*
X76159524Y-119480952D01*
X76121429Y-119519048D01*
X76045238Y-119557143D01*
X75892857Y-119557143D01*
X75816667Y-119519048D01*
X75778571Y-119480952D01*
X75740476Y-119404762D01*
X77264286Y-116361905D02*
X77530953Y-115980952D01*
X77721429Y-116361905D02*
X77721429Y-115561905D01*
X77416667Y-115561905D01*
X77340476Y-115600000D01*
X77302381Y-115638095D01*
X77264286Y-115714286D01*
X77264286Y-115828571D01*
X77302381Y-115904762D01*
X77340476Y-115942857D01*
X77416667Y-115980952D01*
X77721429Y-115980952D01*
X76959524Y-115638095D02*
X76921429Y-115600000D01*
X76845238Y-115561905D01*
X76654762Y-115561905D01*
X76578572Y-115600000D01*
X76540476Y-115638095D01*
X76502381Y-115714286D01*
X76502381Y-115790476D01*
X76540476Y-115904762D01*
X76997619Y-116361905D01*
X76502381Y-116361905D01*
X76007143Y-115561905D02*
X75930952Y-115561905D01*
X75854762Y-115600000D01*
X75816667Y-115638095D01*
X75778571Y-115714286D01*
X75740476Y-115866667D01*
X75740476Y-116057143D01*
X75778571Y-116209524D01*
X75816667Y-116285714D01*
X75854762Y-116323810D01*
X75930952Y-116361905D01*
X76007143Y-116361905D01*
X76083333Y-116323810D01*
X76121429Y-116285714D01*
X76159524Y-116209524D01*
X76197619Y-116057143D01*
X76197619Y-115866667D01*
X76159524Y-115714286D01*
X76121429Y-115638095D01*
X76083333Y-115600000D01*
X76007143Y-115561905D01*
X82611905Y-115735714D02*
X82230952Y-115469047D01*
X82611905Y-115278571D02*
X81811905Y-115278571D01*
X81811905Y-115583333D01*
X81850000Y-115659524D01*
X81888095Y-115697619D01*
X81964286Y-115735714D01*
X82078571Y-115735714D01*
X82154762Y-115697619D01*
X82192857Y-115659524D01*
X82230952Y-115583333D01*
X82230952Y-115278571D01*
X81888095Y-116040476D02*
X81850000Y-116078571D01*
X81811905Y-116154762D01*
X81811905Y-116345238D01*
X81850000Y-116421428D01*
X81888095Y-116459524D01*
X81964286Y-116497619D01*
X82040476Y-116497619D01*
X82154762Y-116459524D01*
X82611905Y-116002381D01*
X82611905Y-116497619D01*
X82611905Y-117259524D02*
X82611905Y-116802381D01*
X82611905Y-117030952D02*
X81811905Y-117030952D01*
X81926190Y-116954762D01*
X82002381Y-116878571D01*
X82040476Y-116802381D01*
X77264286Y-117611905D02*
X77530953Y-117230952D01*
X77721429Y-117611905D02*
X77721429Y-116811905D01*
X77416667Y-116811905D01*
X77340476Y-116850000D01*
X77302381Y-116888095D01*
X77264286Y-116964286D01*
X77264286Y-117078571D01*
X77302381Y-117154762D01*
X77340476Y-117192857D01*
X77416667Y-117230952D01*
X77721429Y-117230952D01*
X76959524Y-116888095D02*
X76921429Y-116850000D01*
X76845238Y-116811905D01*
X76654762Y-116811905D01*
X76578572Y-116850000D01*
X76540476Y-116888095D01*
X76502381Y-116964286D01*
X76502381Y-117040476D01*
X76540476Y-117154762D01*
X76997619Y-117611905D01*
X76502381Y-117611905D01*
X76235714Y-116811905D02*
X75740476Y-116811905D01*
X76007143Y-117116667D01*
X75892857Y-117116667D01*
X75816667Y-117154762D01*
X75778571Y-117192857D01*
X75740476Y-117269048D01*
X75740476Y-117459524D01*
X75778571Y-117535714D01*
X75816667Y-117573810D01*
X75892857Y-117611905D01*
X76121429Y-117611905D01*
X76197619Y-117573810D01*
X76235714Y-117535714D01*
X77264286Y-113861905D02*
X77530953Y-113480952D01*
X77721429Y-113861905D02*
X77721429Y-113061905D01*
X77416667Y-113061905D01*
X77340476Y-113100000D01*
X77302381Y-113138095D01*
X77264286Y-113214286D01*
X77264286Y-113328571D01*
X77302381Y-113404762D01*
X77340476Y-113442857D01*
X77416667Y-113480952D01*
X77721429Y-113480952D01*
X76959524Y-113138095D02*
X76921429Y-113100000D01*
X76845238Y-113061905D01*
X76654762Y-113061905D01*
X76578572Y-113100000D01*
X76540476Y-113138095D01*
X76502381Y-113214286D01*
X76502381Y-113290476D01*
X76540476Y-113404762D01*
X76997619Y-113861905D01*
X76502381Y-113861905D01*
X75816667Y-113328571D02*
X75816667Y-113861905D01*
X76007143Y-113023810D02*
X76197619Y-113595238D01*
X75702381Y-113595238D01*
X82611905Y-113485714D02*
X82230952Y-113219047D01*
X82611905Y-113028571D02*
X81811905Y-113028571D01*
X81811905Y-113333333D01*
X81850000Y-113409524D01*
X81888095Y-113447619D01*
X81964286Y-113485714D01*
X82078571Y-113485714D01*
X82154762Y-113447619D01*
X82192857Y-113409524D01*
X82230952Y-113333333D01*
X82230952Y-113028571D01*
X81888095Y-113790476D02*
X81850000Y-113828571D01*
X81811905Y-113904762D01*
X81811905Y-114095238D01*
X81850000Y-114171428D01*
X81888095Y-114209524D01*
X81964286Y-114247619D01*
X82040476Y-114247619D01*
X82154762Y-114209524D01*
X82611905Y-113752381D01*
X82611905Y-114247619D01*
X81811905Y-114971429D02*
X81811905Y-114590476D01*
X82192857Y-114552381D01*
X82154762Y-114590476D01*
X82116667Y-114666667D01*
X82116667Y-114857143D01*
X82154762Y-114933333D01*
X82192857Y-114971429D01*
X82269048Y-115009524D01*
X82459524Y-115009524D01*
X82535714Y-114971429D01*
X82573810Y-114933333D01*
X82611905Y-114857143D01*
X82611905Y-114666667D01*
X82573810Y-114590476D01*
X82535714Y-114552381D01*
X77264286Y-115111905D02*
X77530953Y-114730952D01*
X77721429Y-115111905D02*
X77721429Y-114311905D01*
X77416667Y-114311905D01*
X77340476Y-114350000D01*
X77302381Y-114388095D01*
X77264286Y-114464286D01*
X77264286Y-114578571D01*
X77302381Y-114654762D01*
X77340476Y-114692857D01*
X77416667Y-114730952D01*
X77721429Y-114730952D01*
X76959524Y-114388095D02*
X76921429Y-114350000D01*
X76845238Y-114311905D01*
X76654762Y-114311905D01*
X76578572Y-114350000D01*
X76540476Y-114388095D01*
X76502381Y-114464286D01*
X76502381Y-114540476D01*
X76540476Y-114654762D01*
X76997619Y-115111905D01*
X76502381Y-115111905D01*
X76235714Y-114311905D02*
X75702381Y-114311905D01*
X76045238Y-115111905D01*
X77264286Y-111361905D02*
X77530953Y-110980952D01*
X77721429Y-111361905D02*
X77721429Y-110561905D01*
X77416667Y-110561905D01*
X77340476Y-110600000D01*
X77302381Y-110638095D01*
X77264286Y-110714286D01*
X77264286Y-110828571D01*
X77302381Y-110904762D01*
X77340476Y-110942857D01*
X77416667Y-110980952D01*
X77721429Y-110980952D01*
X76959524Y-110638095D02*
X76921429Y-110600000D01*
X76845238Y-110561905D01*
X76654762Y-110561905D01*
X76578572Y-110600000D01*
X76540476Y-110638095D01*
X76502381Y-110714286D01*
X76502381Y-110790476D01*
X76540476Y-110904762D01*
X76997619Y-111361905D01*
X76502381Y-111361905D01*
X76045238Y-110904762D02*
X76121429Y-110866667D01*
X76159524Y-110828571D01*
X76197619Y-110752381D01*
X76197619Y-110714286D01*
X76159524Y-110638095D01*
X76121429Y-110600000D01*
X76045238Y-110561905D01*
X75892857Y-110561905D01*
X75816667Y-110600000D01*
X75778571Y-110638095D01*
X75740476Y-110714286D01*
X75740476Y-110752381D01*
X75778571Y-110828571D01*
X75816667Y-110866667D01*
X75892857Y-110904762D01*
X76045238Y-110904762D01*
X76121429Y-110942857D01*
X76159524Y-110980952D01*
X76197619Y-111057143D01*
X76197619Y-111209524D01*
X76159524Y-111285714D01*
X76121429Y-111323810D01*
X76045238Y-111361905D01*
X75892857Y-111361905D01*
X75816667Y-111323810D01*
X75778571Y-111285714D01*
X75740476Y-111209524D01*
X75740476Y-111057143D01*
X75778571Y-110980952D01*
X75816667Y-110942857D01*
X75892857Y-110904762D01*
X82611905Y-111235714D02*
X82230952Y-110969047D01*
X82611905Y-110778571D02*
X81811905Y-110778571D01*
X81811905Y-111083333D01*
X81850000Y-111159524D01*
X81888095Y-111197619D01*
X81964286Y-111235714D01*
X82078571Y-111235714D01*
X82154762Y-111197619D01*
X82192857Y-111159524D01*
X82230952Y-111083333D01*
X82230952Y-110778571D01*
X81888095Y-111540476D02*
X81850000Y-111578571D01*
X81811905Y-111654762D01*
X81811905Y-111845238D01*
X81850000Y-111921428D01*
X81888095Y-111959524D01*
X81964286Y-111997619D01*
X82040476Y-111997619D01*
X82154762Y-111959524D01*
X82611905Y-111502381D01*
X82611905Y-111997619D01*
X82611905Y-112378571D02*
X82611905Y-112530952D01*
X82573810Y-112607143D01*
X82535714Y-112645238D01*
X82421429Y-112721429D01*
X82269048Y-112759524D01*
X81964286Y-112759524D01*
X81888095Y-112721429D01*
X81850000Y-112683333D01*
X81811905Y-112607143D01*
X81811905Y-112454762D01*
X81850000Y-112378571D01*
X81888095Y-112340476D01*
X81964286Y-112302381D01*
X82154762Y-112302381D01*
X82230952Y-112340476D01*
X82269048Y-112378571D01*
X82307143Y-112454762D01*
X82307143Y-112607143D01*
X82269048Y-112683333D01*
X82230952Y-112721429D01*
X82154762Y-112759524D01*
X77264286Y-112611905D02*
X77530953Y-112230952D01*
X77721429Y-112611905D02*
X77721429Y-111811905D01*
X77416667Y-111811905D01*
X77340476Y-111850000D01*
X77302381Y-111888095D01*
X77264286Y-111964286D01*
X77264286Y-112078571D01*
X77302381Y-112154762D01*
X77340476Y-112192857D01*
X77416667Y-112230952D01*
X77721429Y-112230952D01*
X76997619Y-111811905D02*
X76502381Y-111811905D01*
X76769048Y-112116667D01*
X76654762Y-112116667D01*
X76578572Y-112154762D01*
X76540476Y-112192857D01*
X76502381Y-112269048D01*
X76502381Y-112459524D01*
X76540476Y-112535714D01*
X76578572Y-112573810D01*
X76654762Y-112611905D01*
X76883334Y-112611905D01*
X76959524Y-112573810D01*
X76997619Y-112535714D01*
X75740476Y-112611905D02*
X76197619Y-112611905D01*
X75969048Y-112611905D02*
X75969048Y-111811905D01*
X76045238Y-111926190D01*
X76121429Y-112002381D01*
X76197619Y-112040476D01*
X77264286Y-108861905D02*
X77530953Y-108480952D01*
X77721429Y-108861905D02*
X77721429Y-108061905D01*
X77416667Y-108061905D01*
X77340476Y-108100000D01*
X77302381Y-108138095D01*
X77264286Y-108214286D01*
X77264286Y-108328571D01*
X77302381Y-108404762D01*
X77340476Y-108442857D01*
X77416667Y-108480952D01*
X77721429Y-108480952D01*
X76997619Y-108061905D02*
X76502381Y-108061905D01*
X76769048Y-108366667D01*
X76654762Y-108366667D01*
X76578572Y-108404762D01*
X76540476Y-108442857D01*
X76502381Y-108519048D01*
X76502381Y-108709524D01*
X76540476Y-108785714D01*
X76578572Y-108823810D01*
X76654762Y-108861905D01*
X76883334Y-108861905D01*
X76959524Y-108823810D01*
X76997619Y-108785714D01*
X76197619Y-108138095D02*
X76159524Y-108100000D01*
X76083333Y-108061905D01*
X75892857Y-108061905D01*
X75816667Y-108100000D01*
X75778571Y-108138095D01*
X75740476Y-108214286D01*
X75740476Y-108290476D01*
X75778571Y-108404762D01*
X76235714Y-108861905D01*
X75740476Y-108861905D01*
X82611905Y-108735714D02*
X82230952Y-108469047D01*
X82611905Y-108278571D02*
X81811905Y-108278571D01*
X81811905Y-108583333D01*
X81850000Y-108659524D01*
X81888095Y-108697619D01*
X81964286Y-108735714D01*
X82078571Y-108735714D01*
X82154762Y-108697619D01*
X82192857Y-108659524D01*
X82230952Y-108583333D01*
X82230952Y-108278571D01*
X81811905Y-109002381D02*
X81811905Y-109497619D01*
X82116667Y-109230952D01*
X82116667Y-109345238D01*
X82154762Y-109421428D01*
X82192857Y-109459524D01*
X82269048Y-109497619D01*
X82459524Y-109497619D01*
X82535714Y-109459524D01*
X82573810Y-109421428D01*
X82611905Y-109345238D01*
X82611905Y-109116666D01*
X82573810Y-109040476D01*
X82535714Y-109002381D01*
X81811905Y-109764286D02*
X81811905Y-110259524D01*
X82116667Y-109992857D01*
X82116667Y-110107143D01*
X82154762Y-110183333D01*
X82192857Y-110221429D01*
X82269048Y-110259524D01*
X82459524Y-110259524D01*
X82535714Y-110221429D01*
X82573810Y-110183333D01*
X82611905Y-110107143D01*
X82611905Y-109878571D01*
X82573810Y-109802381D01*
X82535714Y-109764286D01*
X77264286Y-110111905D02*
X77530953Y-109730952D01*
X77721429Y-110111905D02*
X77721429Y-109311905D01*
X77416667Y-109311905D01*
X77340476Y-109350000D01*
X77302381Y-109388095D01*
X77264286Y-109464286D01*
X77264286Y-109578571D01*
X77302381Y-109654762D01*
X77340476Y-109692857D01*
X77416667Y-109730952D01*
X77721429Y-109730952D01*
X76997619Y-109311905D02*
X76502381Y-109311905D01*
X76769048Y-109616667D01*
X76654762Y-109616667D01*
X76578572Y-109654762D01*
X76540476Y-109692857D01*
X76502381Y-109769048D01*
X76502381Y-109959524D01*
X76540476Y-110035714D01*
X76578572Y-110073810D01*
X76654762Y-110111905D01*
X76883334Y-110111905D01*
X76959524Y-110073810D01*
X76997619Y-110035714D01*
X75778571Y-109311905D02*
X76159524Y-109311905D01*
X76197619Y-109692857D01*
X76159524Y-109654762D01*
X76083333Y-109616667D01*
X75892857Y-109616667D01*
X75816667Y-109654762D01*
X75778571Y-109692857D01*
X75740476Y-109769048D01*
X75740476Y-109959524D01*
X75778571Y-110035714D01*
X75816667Y-110073810D01*
X75892857Y-110111905D01*
X76083333Y-110111905D01*
X76159524Y-110073810D01*
X76197619Y-110035714D01*
X77264286Y-106361905D02*
X77530953Y-105980952D01*
X77721429Y-106361905D02*
X77721429Y-105561905D01*
X77416667Y-105561905D01*
X77340476Y-105600000D01*
X77302381Y-105638095D01*
X77264286Y-105714286D01*
X77264286Y-105828571D01*
X77302381Y-105904762D01*
X77340476Y-105942857D01*
X77416667Y-105980952D01*
X77721429Y-105980952D01*
X76997619Y-105561905D02*
X76502381Y-105561905D01*
X76769048Y-105866667D01*
X76654762Y-105866667D01*
X76578572Y-105904762D01*
X76540476Y-105942857D01*
X76502381Y-106019048D01*
X76502381Y-106209524D01*
X76540476Y-106285714D01*
X76578572Y-106323810D01*
X76654762Y-106361905D01*
X76883334Y-106361905D01*
X76959524Y-106323810D01*
X76997619Y-106285714D01*
X75816667Y-105561905D02*
X75969048Y-105561905D01*
X76045238Y-105600000D01*
X76083333Y-105638095D01*
X76159524Y-105752381D01*
X76197619Y-105904762D01*
X76197619Y-106209524D01*
X76159524Y-106285714D01*
X76121429Y-106323810D01*
X76045238Y-106361905D01*
X75892857Y-106361905D01*
X75816667Y-106323810D01*
X75778571Y-106285714D01*
X75740476Y-106209524D01*
X75740476Y-106019048D01*
X75778571Y-105942857D01*
X75816667Y-105904762D01*
X75892857Y-105866667D01*
X76045238Y-105866667D01*
X76121429Y-105904762D01*
X76159524Y-105942857D01*
X76197619Y-106019048D01*
X82611905Y-106485714D02*
X82230952Y-106219047D01*
X82611905Y-106028571D02*
X81811905Y-106028571D01*
X81811905Y-106333333D01*
X81850000Y-106409524D01*
X81888095Y-106447619D01*
X81964286Y-106485714D01*
X82078571Y-106485714D01*
X82154762Y-106447619D01*
X82192857Y-106409524D01*
X82230952Y-106333333D01*
X82230952Y-106028571D01*
X81811905Y-106752381D02*
X81811905Y-107247619D01*
X82116667Y-106980952D01*
X82116667Y-107095238D01*
X82154762Y-107171428D01*
X82192857Y-107209524D01*
X82269048Y-107247619D01*
X82459524Y-107247619D01*
X82535714Y-107209524D01*
X82573810Y-107171428D01*
X82611905Y-107095238D01*
X82611905Y-106866666D01*
X82573810Y-106790476D01*
X82535714Y-106752381D01*
X81811905Y-107514286D02*
X81811905Y-108047619D01*
X82611905Y-107704762D01*
X77264286Y-107611905D02*
X77530953Y-107230952D01*
X77721429Y-107611905D02*
X77721429Y-106811905D01*
X77416667Y-106811905D01*
X77340476Y-106850000D01*
X77302381Y-106888095D01*
X77264286Y-106964286D01*
X77264286Y-107078571D01*
X77302381Y-107154762D01*
X77340476Y-107192857D01*
X77416667Y-107230952D01*
X77721429Y-107230952D01*
X76997619Y-106811905D02*
X76502381Y-106811905D01*
X76769048Y-107116667D01*
X76654762Y-107116667D01*
X76578572Y-107154762D01*
X76540476Y-107192857D01*
X76502381Y-107269048D01*
X76502381Y-107459524D01*
X76540476Y-107535714D01*
X76578572Y-107573810D01*
X76654762Y-107611905D01*
X76883334Y-107611905D01*
X76959524Y-107573810D01*
X76997619Y-107535714D01*
X76121429Y-107611905D02*
X75969048Y-107611905D01*
X75892857Y-107573810D01*
X75854762Y-107535714D01*
X75778571Y-107421429D01*
X75740476Y-107269048D01*
X75740476Y-106964286D01*
X75778571Y-106888095D01*
X75816667Y-106850000D01*
X75892857Y-106811905D01*
X76045238Y-106811905D01*
X76121429Y-106850000D01*
X76159524Y-106888095D01*
X76197619Y-106964286D01*
X76197619Y-107154762D01*
X76159524Y-107230952D01*
X76121429Y-107269048D01*
X76045238Y-107307143D01*
X75892857Y-107307143D01*
X75816667Y-107269048D01*
X75778571Y-107230952D01*
X75740476Y-107154762D01*
X77264286Y-103861905D02*
X77530953Y-103480952D01*
X77721429Y-103861905D02*
X77721429Y-103061905D01*
X77416667Y-103061905D01*
X77340476Y-103100000D01*
X77302381Y-103138095D01*
X77264286Y-103214286D01*
X77264286Y-103328571D01*
X77302381Y-103404762D01*
X77340476Y-103442857D01*
X77416667Y-103480952D01*
X77721429Y-103480952D01*
X76578572Y-103328571D02*
X76578572Y-103861905D01*
X76769048Y-103023810D02*
X76959524Y-103595238D01*
X76464286Y-103595238D01*
X76007143Y-103061905D02*
X75930952Y-103061905D01*
X75854762Y-103100000D01*
X75816667Y-103138095D01*
X75778571Y-103214286D01*
X75740476Y-103366667D01*
X75740476Y-103557143D01*
X75778571Y-103709524D01*
X75816667Y-103785714D01*
X75854762Y-103823810D01*
X75930952Y-103861905D01*
X76007143Y-103861905D01*
X76083333Y-103823810D01*
X76121429Y-103785714D01*
X76159524Y-103709524D01*
X76197619Y-103557143D01*
X76197619Y-103366667D01*
X76159524Y-103214286D01*
X76121429Y-103138095D01*
X76083333Y-103100000D01*
X76007143Y-103061905D01*
X82611905Y-104235714D02*
X82230952Y-103969047D01*
X82611905Y-103778571D02*
X81811905Y-103778571D01*
X81811905Y-104083333D01*
X81850000Y-104159524D01*
X81888095Y-104197619D01*
X81964286Y-104235714D01*
X82078571Y-104235714D01*
X82154762Y-104197619D01*
X82192857Y-104159524D01*
X82230952Y-104083333D01*
X82230952Y-103778571D01*
X82078571Y-104921428D02*
X82611905Y-104921428D01*
X81773810Y-104730952D02*
X82345238Y-104540476D01*
X82345238Y-105035714D01*
X82611905Y-105759524D02*
X82611905Y-105302381D01*
X82611905Y-105530952D02*
X81811905Y-105530952D01*
X81926190Y-105454762D01*
X82002381Y-105378571D01*
X82040476Y-105302381D01*
X77264286Y-105111905D02*
X77530953Y-104730952D01*
X77721429Y-105111905D02*
X77721429Y-104311905D01*
X77416667Y-104311905D01*
X77340476Y-104350000D01*
X77302381Y-104388095D01*
X77264286Y-104464286D01*
X77264286Y-104578571D01*
X77302381Y-104654762D01*
X77340476Y-104692857D01*
X77416667Y-104730952D01*
X77721429Y-104730952D01*
X76578572Y-104578571D02*
X76578572Y-105111905D01*
X76769048Y-104273810D02*
X76959524Y-104845238D01*
X76464286Y-104845238D01*
X76235714Y-104311905D02*
X75740476Y-104311905D01*
X76007143Y-104616667D01*
X75892857Y-104616667D01*
X75816667Y-104654762D01*
X75778571Y-104692857D01*
X75740476Y-104769048D01*
X75740476Y-104959524D01*
X75778571Y-105035714D01*
X75816667Y-105073810D01*
X75892857Y-105111905D01*
X76121429Y-105111905D01*
X76197619Y-105073810D01*
X76235714Y-105035714D01*
X77264286Y-101361905D02*
X77530953Y-100980952D01*
X77721429Y-101361905D02*
X77721429Y-100561905D01*
X77416667Y-100561905D01*
X77340476Y-100600000D01*
X77302381Y-100638095D01*
X77264286Y-100714286D01*
X77264286Y-100828571D01*
X77302381Y-100904762D01*
X77340476Y-100942857D01*
X77416667Y-100980952D01*
X77721429Y-100980952D01*
X76578572Y-100828571D02*
X76578572Y-101361905D01*
X76769048Y-100523810D02*
X76959524Y-101095238D01*
X76464286Y-101095238D01*
X75816667Y-100828571D02*
X75816667Y-101361905D01*
X76007143Y-100523810D02*
X76197619Y-101095238D01*
X75702381Y-101095238D01*
X82611905Y-101985714D02*
X82230952Y-101719047D01*
X82611905Y-101528571D02*
X81811905Y-101528571D01*
X81811905Y-101833333D01*
X81850000Y-101909524D01*
X81888095Y-101947619D01*
X81964286Y-101985714D01*
X82078571Y-101985714D01*
X82154762Y-101947619D01*
X82192857Y-101909524D01*
X82230952Y-101833333D01*
X82230952Y-101528571D01*
X82078571Y-102671428D02*
X82611905Y-102671428D01*
X81773810Y-102480952D02*
X82345238Y-102290476D01*
X82345238Y-102785714D01*
X81811905Y-103471429D02*
X81811905Y-103090476D01*
X82192857Y-103052381D01*
X82154762Y-103090476D01*
X82116667Y-103166667D01*
X82116667Y-103357143D01*
X82154762Y-103433333D01*
X82192857Y-103471429D01*
X82269048Y-103509524D01*
X82459524Y-103509524D01*
X82535714Y-103471429D01*
X82573810Y-103433333D01*
X82611905Y-103357143D01*
X82611905Y-103166667D01*
X82573810Y-103090476D01*
X82535714Y-103052381D01*
X77264286Y-102611905D02*
X77530953Y-102230952D01*
X77721429Y-102611905D02*
X77721429Y-101811905D01*
X77416667Y-101811905D01*
X77340476Y-101850000D01*
X77302381Y-101888095D01*
X77264286Y-101964286D01*
X77264286Y-102078571D01*
X77302381Y-102154762D01*
X77340476Y-102192857D01*
X77416667Y-102230952D01*
X77721429Y-102230952D01*
X76578572Y-102078571D02*
X76578572Y-102611905D01*
X76769048Y-101773810D02*
X76959524Y-102345238D01*
X76464286Y-102345238D01*
X76235714Y-101811905D02*
X75702381Y-101811905D01*
X76045238Y-102611905D01*
X77264286Y-121111905D02*
X77530953Y-120730952D01*
X77721429Y-121111905D02*
X77721429Y-120311905D01*
X77416667Y-120311905D01*
X77340476Y-120350000D01*
X77302381Y-120388095D01*
X77264286Y-120464286D01*
X77264286Y-120578571D01*
X77302381Y-120654762D01*
X77340476Y-120692857D01*
X77416667Y-120730952D01*
X77721429Y-120730952D01*
X76578572Y-120578571D02*
X76578572Y-121111905D01*
X76769048Y-120273810D02*
X76959524Y-120845238D01*
X76464286Y-120845238D01*
X76045238Y-120654762D02*
X76121429Y-120616667D01*
X76159524Y-120578571D01*
X76197619Y-120502381D01*
X76197619Y-120464286D01*
X76159524Y-120388095D01*
X76121429Y-120350000D01*
X76045238Y-120311905D01*
X75892857Y-120311905D01*
X75816667Y-120350000D01*
X75778571Y-120388095D01*
X75740476Y-120464286D01*
X75740476Y-120502381D01*
X75778571Y-120578571D01*
X75816667Y-120616667D01*
X75892857Y-120654762D01*
X76045238Y-120654762D01*
X76121429Y-120692857D01*
X76159524Y-120730952D01*
X76197619Y-120807143D01*
X76197619Y-120959524D01*
X76159524Y-121035714D01*
X76121429Y-121073810D01*
X76045238Y-121111905D01*
X75892857Y-121111905D01*
X75816667Y-121073810D01*
X75778571Y-121035714D01*
X75740476Y-120959524D01*
X75740476Y-120807143D01*
X75778571Y-120730952D01*
X75816667Y-120692857D01*
X75892857Y-120654762D01*
X82611905Y-120235714D02*
X82230952Y-119969047D01*
X82611905Y-119778571D02*
X81811905Y-119778571D01*
X81811905Y-120083333D01*
X81850000Y-120159524D01*
X81888095Y-120197619D01*
X81964286Y-120235714D01*
X82078571Y-120235714D01*
X82154762Y-120197619D01*
X82192857Y-120159524D01*
X82230952Y-120083333D01*
X82230952Y-119778571D01*
X82078571Y-120921428D02*
X82611905Y-120921428D01*
X81773810Y-120730952D02*
X82345238Y-120540476D01*
X82345238Y-121035714D01*
X82611905Y-121378571D02*
X82611905Y-121530952D01*
X82573810Y-121607143D01*
X82535714Y-121645238D01*
X82421429Y-121721429D01*
X82269048Y-121759524D01*
X81964286Y-121759524D01*
X81888095Y-121721429D01*
X81850000Y-121683333D01*
X81811905Y-121607143D01*
X81811905Y-121454762D01*
X81850000Y-121378571D01*
X81888095Y-121340476D01*
X81964286Y-121302381D01*
X82154762Y-121302381D01*
X82230952Y-121340476D01*
X82269048Y-121378571D01*
X82307143Y-121454762D01*
X82307143Y-121607143D01*
X82269048Y-121683333D01*
X82230952Y-121721429D01*
X82154762Y-121759524D01*
X77264286Y-122361905D02*
X77530953Y-121980952D01*
X77721429Y-122361905D02*
X77721429Y-121561905D01*
X77416667Y-121561905D01*
X77340476Y-121600000D01*
X77302381Y-121638095D01*
X77264286Y-121714286D01*
X77264286Y-121828571D01*
X77302381Y-121904762D01*
X77340476Y-121942857D01*
X77416667Y-121980952D01*
X77721429Y-121980952D01*
X76540476Y-121561905D02*
X76921429Y-121561905D01*
X76959524Y-121942857D01*
X76921429Y-121904762D01*
X76845238Y-121866667D01*
X76654762Y-121866667D01*
X76578572Y-121904762D01*
X76540476Y-121942857D01*
X76502381Y-122019048D01*
X76502381Y-122209524D01*
X76540476Y-122285714D01*
X76578572Y-122323810D01*
X76654762Y-122361905D01*
X76845238Y-122361905D01*
X76921429Y-122323810D01*
X76959524Y-122285714D01*
X75740476Y-122361905D02*
X76197619Y-122361905D01*
X75969048Y-122361905D02*
X75969048Y-121561905D01*
X76045238Y-121676190D01*
X76121429Y-121752381D01*
X76197619Y-121790476D01*
%LPC*%
D13*
X113103553Y-123350000D02*
G75*
G03X113103553Y-123350000I-353553J0D01*
G01*
X133103553Y-123250000D02*
G75*
G03X133103553Y-123250000I-353553J0D01*
G01*
X153103553Y-123350000D02*
G75*
G03X153103553Y-123350000I-353553J0D01*
G01*
X173103553Y-123250000D02*
G75*
G03X173103553Y-123250000I-353553J0D01*
G01*
X213103553Y-123000000D02*
G75*
G03X213103553Y-123000000I-353553J0D01*
G01*
X193103553Y-123250000D02*
G75*
G03X193103553Y-123250000I-353553J0D01*
G01*
X199953553Y-96000000D02*
G75*
G03X199953553Y-96000000I-353553J0D01*
G01*
X193103553Y-96000000D02*
G75*
G03X193103553Y-96000000I-353553J0D01*
G01*
X201353553Y-96000000D02*
G75*
G03X201353553Y-96000000I-353553J0D01*
G01*
X213103553Y-96000000D02*
G75*
G03X213103553Y-96000000I-353553J0D01*
G01*
X181353553Y-96000000D02*
G75*
G03X181353553Y-96000000I-353553J0D01*
G01*
X179853553Y-96000000D02*
G75*
G03X179853553Y-96000000I-353553J0D01*
G01*
X139853553Y-132000000D02*
G75*
G03X139853553Y-132000000I-353553J0D01*
G01*
X120353553Y-132000000D02*
G75*
G03X120353553Y-132000000I-353553J0D01*
G01*
X100103553Y-131750000D02*
G75*
G03X100103553Y-131750000I-353553J0D01*
G01*
X121353553Y-135050000D02*
G75*
G03X121353553Y-135050000I-353553J0D01*
G01*
X179853553Y-132000000D02*
G75*
G03X179853553Y-132000000I-353553J0D01*
G01*
X181353553Y-135050000D02*
G75*
G03X181353553Y-135050000I-353553J0D01*
G01*
X161353553Y-135050000D02*
G75*
G03X161353553Y-135050000I-353553J0D01*
G01*
X101353553Y-135500000D02*
G75*
G03X101353553Y-135500000I-353553J0D01*
G01*
X200103553Y-131750000D02*
G75*
G03X200103553Y-131750000I-353553J0D01*
G01*
X201353553Y-135050000D02*
G75*
G03X201353553Y-135050000I-353553J0D01*
G01*
X101353553Y-96500000D02*
G75*
G03X101353553Y-96500000I-353553J0D01*
G01*
X99853553Y-96500000D02*
G75*
G03X99853553Y-96500000I-353553J0D01*
G01*
X159853553Y-132000000D02*
G75*
G03X159853553Y-132000000I-353553J0D01*
G01*
X141353553Y-135050000D02*
G75*
G03X141353553Y-135050000I-353553J0D01*
G01*
X172853553Y-96000000D02*
G75*
G03X172853553Y-96000000I-353553J0D01*
G01*
X161353553Y-96000000D02*
G75*
G03X161353553Y-96000000I-353553J0D01*
G01*
X139853553Y-96000000D02*
G75*
G03X139853553Y-96000000I-353553J0D01*
G01*
X141353553Y-96000000D02*
G75*
G03X141353553Y-96000000I-353553J0D01*
G01*
X159853553Y-96000000D02*
G75*
G03X159853553Y-96000000I-353553J0D01*
G01*
X152853553Y-96000000D02*
G75*
G03X152853553Y-96000000I-353553J0D01*
G01*
X121353553Y-96000000D02*
G75*
G03X121353553Y-96000000I-353553J0D01*
G01*
X132853553Y-96000000D02*
G75*
G03X132853553Y-96000000I-353553J0D01*
G01*
X119853553Y-96000000D02*
G75*
G03X119853553Y-96000000I-353553J0D01*
G01*
X113103553Y-96250000D02*
G75*
G03X113103553Y-96250000I-353553J0D01*
G01*
D14*
X87000000Y-123000000D03*
D15*
X88250000Y-134650000D03*
X90250000Y-133650000D03*
X88250000Y-132650000D03*
X90250000Y-131650000D03*
X88250000Y-130650000D03*
X90250000Y-129650000D03*
X88250000Y-128650000D03*
X90250000Y-127650000D03*
X88250000Y-126650000D03*
X90250000Y-125650000D03*
X88250000Y-124650000D03*
D16*
X85750000Y-134650000D03*
D15*
X83750000Y-133650000D03*
X85750000Y-132650000D03*
X83750000Y-131650000D03*
X85750000Y-130650000D03*
X83750000Y-129650000D03*
X85750000Y-128650000D03*
X83750000Y-127650000D03*
X85750000Y-126650000D03*
X83750000Y-125650000D03*
X85750000Y-124650000D03*
X90250000Y-121650000D03*
X88250000Y-120650000D03*
X90250000Y-119650000D03*
X88250000Y-118650000D03*
X90250000Y-117650000D03*
X88250000Y-116650000D03*
X90250000Y-115650000D03*
X88250000Y-114650000D03*
X90250000Y-113650000D03*
X88250000Y-112650000D03*
X90250000Y-111650000D03*
X88250000Y-110650000D03*
X90250000Y-109650000D03*
X88250000Y-108650000D03*
X90250000Y-107650000D03*
X88250000Y-106650000D03*
X90250000Y-105650000D03*
X88250000Y-104650000D03*
X90250000Y-103650000D03*
X88250000Y-102650000D03*
X90250000Y-101650000D03*
X88250000Y-100650000D03*
X90250000Y-99650000D03*
X88250000Y-98650000D03*
X90250000Y-97650000D03*
X88250000Y-96650000D03*
X90250000Y-95650000D03*
X88250000Y-94650000D03*
X90250000Y-93650000D03*
X88250000Y-92650000D03*
X90250000Y-91650000D03*
X88250000Y-90650000D03*
X90250000Y-89650000D03*
X88250000Y-88650000D03*
X90250000Y-87650000D03*
X88250000Y-86650000D03*
X90250000Y-85650000D03*
X88250000Y-84650000D03*
X83750000Y-121650000D03*
X85750000Y-120650000D03*
X83750000Y-119650000D03*
X85750000Y-118650000D03*
X83750000Y-117650000D03*
X85750000Y-116650000D03*
X83750000Y-115650000D03*
X85750000Y-114650000D03*
X83750000Y-113650000D03*
X85750000Y-112650000D03*
X83750000Y-111650000D03*
X85750000Y-110650000D03*
X83750000Y-109650000D03*
X85750000Y-108650000D03*
X83750000Y-107650000D03*
X85750000Y-106650000D03*
X83750000Y-105650000D03*
X85750000Y-104650000D03*
X83750000Y-103650000D03*
X85750000Y-102650000D03*
X83750000Y-101650000D03*
X85750000Y-100650000D03*
X83750000Y-99650000D03*
X85750000Y-98650000D03*
X83750000Y-97650000D03*
X85750000Y-96650000D03*
X83750000Y-95650000D03*
X85750000Y-94650000D03*
X83750000Y-93650000D03*
X85750000Y-92650000D03*
X83750000Y-91650000D03*
X85750000Y-90650000D03*
X83750000Y-89650000D03*
X85750000Y-88650000D03*
X83750000Y-87650000D03*
X85750000Y-86650000D03*
X83750000Y-85650000D03*
X85750000Y-84650000D03*
D14*
X87000000Y-82670000D03*
D17*
X121940000Y-65000000D03*
X117980000Y-65000000D03*
X114020000Y-65000000D03*
X110060000Y-65000000D03*
D14*
X167000000Y-123000000D03*
D15*
X168250000Y-134650000D03*
X170250000Y-133650000D03*
X168250000Y-132650000D03*
X170250000Y-131650000D03*
X168250000Y-130650000D03*
X170250000Y-129650000D03*
X168250000Y-128650000D03*
X170250000Y-127650000D03*
X168250000Y-126650000D03*
X170250000Y-125650000D03*
X168250000Y-124650000D03*
D16*
X165750000Y-134650000D03*
D15*
X163750000Y-133650000D03*
X165750000Y-132650000D03*
X163750000Y-131650000D03*
X165750000Y-130650000D03*
X163750000Y-129650000D03*
X165750000Y-128650000D03*
X163750000Y-127650000D03*
X165750000Y-126650000D03*
X163750000Y-125650000D03*
X165750000Y-124650000D03*
X170250000Y-121650000D03*
X168250000Y-120650000D03*
X170250000Y-119650000D03*
X168250000Y-118650000D03*
X170250000Y-117650000D03*
X168250000Y-116650000D03*
X170250000Y-115650000D03*
X168250000Y-114650000D03*
X170250000Y-113650000D03*
X168250000Y-112650000D03*
X170250000Y-111650000D03*
X168250000Y-110650000D03*
X170250000Y-109650000D03*
X168250000Y-108650000D03*
X170250000Y-107650000D03*
X168250000Y-106650000D03*
X170250000Y-105650000D03*
X168250000Y-104650000D03*
X170250000Y-103650000D03*
X168250000Y-102650000D03*
X170250000Y-101650000D03*
X163750000Y-121650000D03*
X165750000Y-120650000D03*
X163750000Y-119650000D03*
X165750000Y-118650000D03*
X163750000Y-117650000D03*
X165750000Y-116650000D03*
X163750000Y-115650000D03*
X165750000Y-114650000D03*
X163750000Y-113650000D03*
X165750000Y-112650000D03*
X163750000Y-111650000D03*
X165750000Y-110650000D03*
X163750000Y-109650000D03*
X165750000Y-108650000D03*
X163750000Y-107650000D03*
X165750000Y-106650000D03*
X163750000Y-105650000D03*
X165750000Y-104650000D03*
X163750000Y-103650000D03*
X165750000Y-102650000D03*
X163750000Y-101650000D03*
D14*
X167000000Y-99850000D03*
X147000000Y-123000000D03*
D15*
X148250000Y-134650000D03*
X150250000Y-133650000D03*
X148250000Y-132650000D03*
X150250000Y-131650000D03*
X148250000Y-130650000D03*
X150250000Y-129650000D03*
X148250000Y-128650000D03*
X150250000Y-127650000D03*
X148250000Y-126650000D03*
X150250000Y-125650000D03*
X148250000Y-124650000D03*
D16*
X145750000Y-134650000D03*
D15*
X143750000Y-133650000D03*
X145750000Y-132650000D03*
X143750000Y-131650000D03*
X145750000Y-130650000D03*
X143750000Y-129650000D03*
X145750000Y-128650000D03*
X143750000Y-127650000D03*
X145750000Y-126650000D03*
X143750000Y-125650000D03*
X145750000Y-124650000D03*
X150250000Y-121650000D03*
X148250000Y-120650000D03*
X150250000Y-119650000D03*
X148250000Y-118650000D03*
X150250000Y-117650000D03*
X148250000Y-116650000D03*
X150250000Y-115650000D03*
X148250000Y-114650000D03*
X150250000Y-113650000D03*
X148250000Y-112650000D03*
X150250000Y-111650000D03*
X148250000Y-110650000D03*
X150250000Y-109650000D03*
X148250000Y-108650000D03*
X150250000Y-107650000D03*
X148250000Y-106650000D03*
X150250000Y-105650000D03*
X148250000Y-104650000D03*
X150250000Y-103650000D03*
X148250000Y-102650000D03*
X150250000Y-101650000D03*
X143750000Y-121650000D03*
X145750000Y-120650000D03*
X143750000Y-119650000D03*
X145750000Y-118650000D03*
X143750000Y-117650000D03*
X145750000Y-116650000D03*
X143750000Y-115650000D03*
X145750000Y-114650000D03*
X143750000Y-113650000D03*
X145750000Y-112650000D03*
X143750000Y-111650000D03*
X145750000Y-110650000D03*
X143750000Y-109650000D03*
X145750000Y-108650000D03*
X143750000Y-107650000D03*
X145750000Y-106650000D03*
X143750000Y-105650000D03*
X145750000Y-104650000D03*
X143750000Y-103650000D03*
X145750000Y-102650000D03*
X143750000Y-101650000D03*
D14*
X147000000Y-99850000D03*
D18*
X104700000Y-62900000D03*
X103300000Y-73100000D03*
D14*
X127000000Y-123000000D03*
D15*
X128250000Y-134650000D03*
X130250000Y-133650000D03*
X128250000Y-132650000D03*
X130250000Y-131650000D03*
X128250000Y-130650000D03*
X130250000Y-129650000D03*
X128250000Y-128650000D03*
X130250000Y-127650000D03*
X128250000Y-126650000D03*
X130250000Y-125650000D03*
X128250000Y-124650000D03*
D16*
X125750000Y-134650000D03*
D15*
X123750000Y-133650000D03*
X125750000Y-132650000D03*
X123750000Y-131650000D03*
X125750000Y-130650000D03*
X123750000Y-129650000D03*
X125750000Y-128650000D03*
X123750000Y-127650000D03*
X125750000Y-126650000D03*
X123750000Y-125650000D03*
X125750000Y-124650000D03*
X130250000Y-121650000D03*
X128250000Y-120650000D03*
X130250000Y-119650000D03*
X128250000Y-118650000D03*
X130250000Y-117650000D03*
X128250000Y-116650000D03*
X130250000Y-115650000D03*
X128250000Y-114650000D03*
X130250000Y-113650000D03*
X128250000Y-112650000D03*
X130250000Y-111650000D03*
X128250000Y-110650000D03*
X130250000Y-109650000D03*
X128250000Y-108650000D03*
X130250000Y-107650000D03*
X128250000Y-106650000D03*
X130250000Y-105650000D03*
X128250000Y-104650000D03*
X130250000Y-103650000D03*
X128250000Y-102650000D03*
X130250000Y-101650000D03*
X123750000Y-121650000D03*
X125750000Y-120650000D03*
X123750000Y-119650000D03*
X125750000Y-118650000D03*
X123750000Y-117650000D03*
X125750000Y-116650000D03*
X123750000Y-115650000D03*
X125750000Y-114650000D03*
X123750000Y-113650000D03*
X125750000Y-112650000D03*
X123750000Y-111650000D03*
X125750000Y-110650000D03*
X123750000Y-109650000D03*
X125750000Y-108650000D03*
X123750000Y-107650000D03*
X125750000Y-106650000D03*
X123750000Y-105650000D03*
X125750000Y-104650000D03*
X123750000Y-103650000D03*
X125750000Y-102650000D03*
X123750000Y-101650000D03*
D14*
X127000000Y-99850000D03*
X187000000Y-123000000D03*
D15*
X188250000Y-134650000D03*
X190250000Y-133650000D03*
X188250000Y-132650000D03*
X190250000Y-131650000D03*
X188250000Y-130650000D03*
X190250000Y-129650000D03*
X188250000Y-128650000D03*
X190250000Y-127650000D03*
X188250000Y-126650000D03*
X190250000Y-125650000D03*
X188250000Y-124650000D03*
D16*
X185750000Y-134650000D03*
D15*
X183750000Y-133650000D03*
X185750000Y-132650000D03*
X183750000Y-131650000D03*
X185750000Y-130650000D03*
X183750000Y-129650000D03*
X185750000Y-128650000D03*
X183750000Y-127650000D03*
X185750000Y-126650000D03*
X183750000Y-125650000D03*
X185750000Y-124650000D03*
X190250000Y-121650000D03*
X188250000Y-120650000D03*
X190250000Y-119650000D03*
X188250000Y-118650000D03*
X190250000Y-117650000D03*
X188250000Y-116650000D03*
X190250000Y-115650000D03*
X188250000Y-114650000D03*
X190250000Y-113650000D03*
X188250000Y-112650000D03*
X190250000Y-111650000D03*
X188250000Y-110650000D03*
X190250000Y-109650000D03*
X188250000Y-108650000D03*
X190250000Y-107650000D03*
X188250000Y-106650000D03*
X190250000Y-105650000D03*
X188250000Y-104650000D03*
X190250000Y-103650000D03*
X188250000Y-102650000D03*
X190250000Y-101650000D03*
X183750000Y-121650000D03*
X185750000Y-120650000D03*
X183750000Y-119650000D03*
X185750000Y-118650000D03*
X183750000Y-117650000D03*
X185750000Y-116650000D03*
X183750000Y-115650000D03*
X185750000Y-114650000D03*
X183750000Y-113650000D03*
X185750000Y-112650000D03*
X183750000Y-111650000D03*
X185750000Y-110650000D03*
X183750000Y-109650000D03*
X185750000Y-108650000D03*
X183750000Y-107650000D03*
X185750000Y-106650000D03*
X183750000Y-105650000D03*
X185750000Y-104650000D03*
X183750000Y-103650000D03*
X185750000Y-102650000D03*
X183750000Y-101650000D03*
D14*
X187000000Y-99850000D03*
X207000000Y-123000000D03*
D15*
X208250000Y-134650000D03*
X210250000Y-133650000D03*
X208250000Y-132650000D03*
X210250000Y-131650000D03*
X208250000Y-130650000D03*
X210250000Y-129650000D03*
X208250000Y-128650000D03*
X210250000Y-127650000D03*
X208250000Y-126650000D03*
X210250000Y-125650000D03*
X208250000Y-124650000D03*
D16*
X205750000Y-134650000D03*
D15*
X203750000Y-133650000D03*
X205750000Y-132650000D03*
X203750000Y-131650000D03*
X205750000Y-130650000D03*
X203750000Y-129650000D03*
X205750000Y-128650000D03*
X203750000Y-127650000D03*
X205750000Y-126650000D03*
X203750000Y-125650000D03*
X205750000Y-124650000D03*
X210250000Y-121650000D03*
X208250000Y-120650000D03*
X210250000Y-119650000D03*
X208250000Y-118650000D03*
X210250000Y-117650000D03*
X208250000Y-116650000D03*
X210250000Y-115650000D03*
X208250000Y-114650000D03*
X210250000Y-113650000D03*
X208250000Y-112650000D03*
X210250000Y-111650000D03*
X208250000Y-110650000D03*
X210250000Y-109650000D03*
X208250000Y-108650000D03*
X210250000Y-107650000D03*
X208250000Y-106650000D03*
X210250000Y-105650000D03*
X208250000Y-104650000D03*
X210250000Y-103650000D03*
X208250000Y-102650000D03*
X210250000Y-101650000D03*
X203750000Y-121650000D03*
X205750000Y-120650000D03*
X203750000Y-119650000D03*
X205750000Y-118650000D03*
X203750000Y-117650000D03*
X205750000Y-116650000D03*
X203750000Y-115650000D03*
X205750000Y-114650000D03*
X203750000Y-113650000D03*
X205750000Y-112650000D03*
X203750000Y-111650000D03*
X205750000Y-110650000D03*
X203750000Y-109650000D03*
X205750000Y-108650000D03*
X203750000Y-107650000D03*
X205750000Y-106650000D03*
X203750000Y-105650000D03*
X205750000Y-104650000D03*
X203750000Y-103650000D03*
X205750000Y-102650000D03*
X203750000Y-101650000D03*
D14*
X207000000Y-99850000D03*
X107000000Y-123000000D03*
D15*
X108250000Y-134650000D03*
X110250000Y-133650000D03*
X108250000Y-132650000D03*
X110250000Y-131650000D03*
X108250000Y-130650000D03*
X110250000Y-129650000D03*
X108250000Y-128650000D03*
X110250000Y-127650000D03*
X108250000Y-126650000D03*
X110250000Y-125650000D03*
X108250000Y-124650000D03*
D16*
X105750000Y-134650000D03*
D15*
X103750000Y-133650000D03*
X105750000Y-132650000D03*
X103750000Y-131650000D03*
X105750000Y-130650000D03*
X103750000Y-129650000D03*
X105750000Y-128650000D03*
X103750000Y-127650000D03*
X105750000Y-126650000D03*
X103750000Y-125650000D03*
X105750000Y-124650000D03*
X110250000Y-121650000D03*
X108250000Y-120650000D03*
X110250000Y-119650000D03*
X108250000Y-118650000D03*
X110250000Y-117650000D03*
X108250000Y-116650000D03*
X110250000Y-115650000D03*
X108250000Y-114650000D03*
X110250000Y-113650000D03*
X108250000Y-112650000D03*
X110250000Y-111650000D03*
X108250000Y-110650000D03*
X110250000Y-109650000D03*
X108250000Y-108650000D03*
X110250000Y-107650000D03*
X108250000Y-106650000D03*
X110250000Y-105650000D03*
X108250000Y-104650000D03*
X110250000Y-103650000D03*
X108250000Y-102650000D03*
X110250000Y-101650000D03*
X103750000Y-121650000D03*
X105750000Y-120650000D03*
X103750000Y-119650000D03*
X105750000Y-118650000D03*
X103750000Y-117650000D03*
X105750000Y-116650000D03*
X103750000Y-115650000D03*
X105750000Y-114650000D03*
X103750000Y-113650000D03*
X105750000Y-112650000D03*
X103750000Y-111650000D03*
X105750000Y-110650000D03*
X103750000Y-109650000D03*
X105750000Y-108650000D03*
X103750000Y-107650000D03*
X105750000Y-106650000D03*
X103750000Y-105650000D03*
X105750000Y-104650000D03*
X103750000Y-103650000D03*
X105750000Y-102650000D03*
X103750000Y-101650000D03*
D14*
X107000000Y-99850000D03*
D19*
X32500000Y-147500000D03*
D15*
X35500000Y-147500000D03*
X34000000Y-150100000D03*
X31000000Y-150100000D03*
X29500000Y-147500000D03*
X31000000Y-144900000D03*
X34000000Y-144900000D03*
D19*
X217500000Y-147500000D03*
D15*
X220500000Y-147500000D03*
X219000000Y-150100000D03*
X216000000Y-150100000D03*
X214500000Y-147500000D03*
X216000000Y-144900000D03*
X219000000Y-144900000D03*
D19*
X32500000Y-62500000D03*
D15*
X35500000Y-62500000D03*
X34000000Y-65100000D03*
X31000000Y-65100000D03*
X29500000Y-62500000D03*
X31000000Y-59900000D03*
X34000000Y-59900000D03*
D19*
X217500000Y-62500000D03*
D15*
X220500000Y-62500000D03*
X219000000Y-65100000D03*
X216000000Y-65100000D03*
X214500000Y-62500000D03*
X216000000Y-59900000D03*
X219000000Y-59900000D03*
D20*
X78550000Y-118500000D03*
X79450000Y-118500000D03*
X81000000Y-118050000D03*
X81000000Y-118950000D03*
X79450000Y-119500000D03*
X78550000Y-119500000D03*
X78550000Y-116000000D03*
X79450000Y-116000000D03*
X81000000Y-115800000D03*
X81000000Y-116700000D03*
X79450000Y-117250000D03*
X78550000Y-117250000D03*
X78550000Y-113500000D03*
X79450000Y-113500000D03*
X81000000Y-113550000D03*
X81000000Y-114450000D03*
X79450000Y-114750000D03*
X78550000Y-114750000D03*
X78550000Y-111000000D03*
X79450000Y-111000000D03*
X81000000Y-111300000D03*
X81000000Y-112200000D03*
X79450000Y-112250000D03*
X78550000Y-112250000D03*
X78550000Y-108500000D03*
X79450000Y-108500000D03*
X81000000Y-108800000D03*
X81000000Y-109700000D03*
X79450000Y-109750000D03*
X78550000Y-109750000D03*
X78550000Y-106000000D03*
X79450000Y-106000000D03*
X81000000Y-106550000D03*
X81000000Y-107450000D03*
X79450000Y-107250000D03*
X78550000Y-107250000D03*
X78550000Y-103500000D03*
X79450000Y-103500000D03*
X81000000Y-104300000D03*
X81000000Y-105200000D03*
X79450000Y-104750000D03*
X78550000Y-104750000D03*
X78550000Y-101000000D03*
X79450000Y-101000000D03*
X81000000Y-102050000D03*
X81000000Y-102950000D03*
X79450000Y-102250000D03*
X78550000Y-102250000D03*
X78550000Y-120750000D03*
X79450000Y-120750000D03*
X81000000Y-120300000D03*
X81000000Y-121200000D03*
X79450000Y-122000000D03*
X78550000Y-122000000D03*
D21*
X57000000Y-97460000D03*
D22*
X57000000Y-102540000D03*
D23*
X33460000Y-137000000D03*
D24*
X36000000Y-137000000D03*
X38540000Y-137000000D03*
D23*
X37960000Y-77250000D03*
D24*
X40500000Y-77250000D03*
X43040000Y-77250000D03*
D25*
X37000000Y-114249680D03*
D26*
X37000000Y-111750320D03*
D25*
X37000000Y-103750320D03*
D26*
X37000000Y-106249680D03*
D25*
X44500000Y-103750320D03*
D26*
X44500000Y-106249680D03*
D25*
X44500000Y-114249680D03*
D26*
X44500000Y-111750320D03*
D19*
X125000000Y-80000000D03*
D15*
X128000000Y-80000000D03*
X126500000Y-82600000D03*
X123500000Y-82600000D03*
X122000000Y-80000000D03*
X123500000Y-77400000D03*
X126500000Y-77400000D03*
D19*
X125000000Y-147500000D03*
D15*
X128000000Y-147500000D03*
X126500000Y-150100000D03*
X123500000Y-150100000D03*
X122000000Y-147500000D03*
X123500000Y-144900000D03*
X126500000Y-144900000D03*
D27*
X59500000Y-64500000D03*
X59500000Y-69500000D03*
D28*
X76000000Y-90000000D03*
X75000000Y-139000000D03*
D23*
X133460000Y-63000000D03*
D24*
X136000000Y-63000000D03*
X138540000Y-63000000D03*
D29*
G36*
X46650000Y-90150000D02*
X43350000Y-90150000D01*
X43350000Y-85850000D01*
X46650000Y-85850000D01*
X46650000Y-90150000D01*
X46650000Y-90150000D01*
G37*
X46650000Y-90150000D02*
X43350000Y-90150000D01*
X43350000Y-85850000D01*
X46650000Y-85850000D01*
X46650000Y-90150000D01*
G36*
X46650000Y-132400000D02*
X43350000Y-132400000D01*
X43350000Y-127600000D01*
X46650000Y-127600000D01*
X46650000Y-132400000D01*
X46650000Y-132400000D01*
G37*
X46650000Y-132400000D02*
X43350000Y-132400000D01*
X43350000Y-127600000D01*
X46650000Y-127600000D01*
X46650000Y-132400000D01*
M02*
