G04 #@! TF.FileFunction,Paste,Bot*
%FSLAX46Y46*%
G04 Gerber Fmt 4.6, Leading zero omitted, Abs format (unit mm)*
G04 Created by KiCad (PCBNEW (2015-02-06 BZR 5407)-product) date Mon 09 Feb 2015 02:11:19 PM EST*
%MOMM*%
G01*
G04 APERTURE LIST*
%ADD10C,0.100000*%
%ADD11R,0.600000X0.600000*%
G04 APERTURE END LIST*
D10*
D11*
X78550000Y-118500000D03*
X79450000Y-118500000D03*
X81000000Y-118050000D03*
X81000000Y-118950000D03*
X79450000Y-119500000D03*
X78550000Y-119500000D03*
X78550000Y-116000000D03*
X79450000Y-116000000D03*
X81000000Y-115800000D03*
X81000000Y-116700000D03*
X79450000Y-117250000D03*
X78550000Y-117250000D03*
X78550000Y-113500000D03*
X79450000Y-113500000D03*
X81000000Y-113550000D03*
X81000000Y-114450000D03*
X79450000Y-114750000D03*
X78550000Y-114750000D03*
X78550000Y-111000000D03*
X79450000Y-111000000D03*
X81000000Y-111300000D03*
X81000000Y-112200000D03*
X79450000Y-112250000D03*
X78550000Y-112250000D03*
X78550000Y-108500000D03*
X79450000Y-108500000D03*
X81000000Y-108800000D03*
X81000000Y-109700000D03*
X79450000Y-109750000D03*
X78550000Y-109750000D03*
X78550000Y-106000000D03*
X79450000Y-106000000D03*
X81000000Y-106550000D03*
X81000000Y-107450000D03*
X79450000Y-107250000D03*
X78550000Y-107250000D03*
X78550000Y-103500000D03*
X79450000Y-103500000D03*
X81000000Y-104300000D03*
X81000000Y-105200000D03*
X79450000Y-104750000D03*
X78550000Y-104750000D03*
X78550000Y-101000000D03*
X79450000Y-101000000D03*
X81000000Y-102050000D03*
X81000000Y-102950000D03*
X79450000Y-102250000D03*
X78550000Y-102250000D03*
X78550000Y-120750000D03*
X79450000Y-120750000D03*
X81000000Y-120300000D03*
X81000000Y-121200000D03*
X79450000Y-122000000D03*
X78550000Y-122000000D03*
M02*
