G04 #@! TF.FileFunction,*
%FSLAX46Y46*%
G04 Gerber Fmt 4.6, Leading zero omitted, Abs format (unit mm)*
G04 Created by KiCad (PCBNEW (2015-02-06 BZR 5407)-product) date Mon 09 Feb 2015 02:11:19 PM EST*
%MOMM*%
G01*
G04 APERTURE LIST*
%ADD10C,0.100000*%
%ADD11C,0.150000*%
%ADD12C,0.350000*%
%ADD13C,0.300000*%
G04 APERTURE END LIST*
D10*
D11*
X110500000Y-74000000D02*
X107500000Y-74000000D01*
X107500000Y-74000000D02*
X107500000Y-60000000D01*
X107500000Y-60000000D02*
X110500000Y-60000000D01*
X110500000Y-60000000D02*
X110500000Y-74000000D01*
D12*
X70750000Y-119750000D02*
X70750000Y-132250000D01*
X57250000Y-119750000D02*
X70750000Y-119750000D01*
X57250000Y-132250000D02*
X57250000Y-119750000D01*
X70750000Y-132250000D02*
X57250000Y-132250000D01*
D13*
X127200000Y-68200000D02*
X114800000Y-68200000D01*
X127200000Y-59800000D02*
X127200000Y-69200000D01*
X114800000Y-59800000D02*
X127200000Y-59800000D01*
X114800000Y-69200000D02*
X114800000Y-59800000D01*
X127200000Y-69200000D02*
X114800000Y-69200000D01*
D11*
X131400000Y-137500000D02*
X131400000Y-98500000D01*
X122600000Y-98500000D02*
X122600000Y-137500000D01*
X131400000Y-98500000D02*
X122600000Y-98500000D01*
X131400000Y-137500000D02*
X122600000Y-137500000D01*
X91400000Y-137500000D02*
X82600000Y-137500000D01*
X82600000Y-137500000D02*
X82600000Y-81500000D01*
X82600000Y-81500000D02*
X91400000Y-81500000D01*
X91400000Y-81500000D02*
X91400000Y-137500000D01*
X191400000Y-137500000D02*
X191400000Y-98500000D01*
X182600000Y-98500000D02*
X182600000Y-137500000D01*
X191400000Y-98500000D02*
X182600000Y-98500000D01*
X191400000Y-137500000D02*
X182600000Y-137500000D01*
X171400000Y-137500000D02*
X171400000Y-98500000D01*
X162600000Y-98500000D02*
X162600000Y-137500000D01*
X171400000Y-98500000D02*
X162600000Y-98500000D01*
X171400000Y-137500000D02*
X162600000Y-137500000D01*
X52450000Y-128900000D02*
X54050000Y-128900000D01*
X54050000Y-128700000D02*
X52450000Y-128700000D01*
X54050000Y-128500000D02*
X52450000Y-128500000D01*
X54050000Y-128100000D02*
X54050000Y-130900000D01*
X54050000Y-130900000D02*
X52450000Y-130900000D01*
X52450000Y-130900000D02*
X52450000Y-128100000D01*
X52450000Y-128100000D02*
X54050000Y-128100000D01*
X211400000Y-137500000D02*
X211400000Y-98500000D01*
X202600000Y-98500000D02*
X202600000Y-137500000D01*
X211400000Y-98500000D02*
X202600000Y-98500000D01*
X211400000Y-137500000D02*
X202600000Y-137500000D01*
X151400000Y-137500000D02*
X151400000Y-98500000D01*
X142600000Y-98500000D02*
X142600000Y-137500000D01*
X151400000Y-98500000D02*
X142600000Y-98500000D01*
X151400000Y-137500000D02*
X142600000Y-137500000D01*
X111400000Y-137500000D02*
X111400000Y-98500000D01*
X102600000Y-98500000D02*
X102600000Y-137500000D01*
X111400000Y-98500000D02*
X102600000Y-98500000D01*
X111400000Y-137500000D02*
X102600000Y-137500000D01*
X61900000Y-74800000D02*
X61900000Y-73200000D01*
X61700000Y-73200000D02*
X61700000Y-74800000D01*
X61500000Y-73200000D02*
X61500000Y-74800000D01*
X61100000Y-73200000D02*
X63900000Y-73200000D01*
X63900000Y-73200000D02*
X63900000Y-74800000D01*
X63900000Y-74800000D02*
X61100000Y-74800000D01*
X61100000Y-74800000D02*
X61100000Y-73200000D01*
X51000000Y-74300000D02*
X51000000Y-75700000D01*
X51000000Y-75700000D02*
X48000000Y-75700000D01*
X48000000Y-75700000D02*
X48000000Y-74300000D01*
X48000000Y-74300000D02*
X51000000Y-74300000D01*
X103500000Y-65000000D02*
X103500000Y-73500000D01*
X103500000Y-73500000D02*
X96500000Y-73500000D01*
X96500000Y-73500000D02*
X96500000Y-65000000D01*
X96500000Y-65000000D02*
X103500000Y-65000000D01*
X94500000Y-65000000D02*
X94500000Y-73500000D01*
X94500000Y-73500000D02*
X87500000Y-73500000D01*
X87500000Y-73500000D02*
X87500000Y-65000000D01*
X87500000Y-65000000D02*
X94500000Y-65000000D01*
X33300000Y-126500000D02*
X34700000Y-126500000D01*
X34700000Y-126500000D02*
X34700000Y-129500000D01*
X34700000Y-129500000D02*
X33300000Y-129500000D01*
X33300000Y-129500000D02*
X33300000Y-126500000D01*
X38300000Y-81000000D02*
X39700000Y-81000000D01*
X39700000Y-81000000D02*
X39700000Y-84000000D01*
X39700000Y-84000000D02*
X38300000Y-84000000D01*
X38300000Y-84000000D02*
X38300000Y-81000000D01*
X54500000Y-74300000D02*
X54500000Y-75700000D01*
X54500000Y-75700000D02*
X51500000Y-75700000D01*
X51500000Y-75700000D02*
X51500000Y-74300000D01*
X51500000Y-74300000D02*
X54500000Y-74300000D01*
X55000000Y-75700000D02*
X55000000Y-74300000D01*
X55000000Y-74300000D02*
X58000000Y-74300000D01*
X58000000Y-74300000D02*
X58000000Y-75700000D01*
X58000000Y-75700000D02*
X55000000Y-75700000D01*
X66500000Y-66200000D02*
X66500000Y-64800000D01*
X66500000Y-64800000D02*
X69500000Y-64800000D01*
X69500000Y-64800000D02*
X69500000Y-66200000D01*
X69500000Y-66200000D02*
X66500000Y-66200000D01*
D12*
X70750000Y-80750000D02*
X70750000Y-93250000D01*
X57250000Y-80750000D02*
X70750000Y-80750000D01*
X57250000Y-93250000D02*
X57250000Y-80750000D01*
X70750000Y-93250000D02*
X57250000Y-93250000D01*
D11*
X78500000Y-141000000D02*
X78500000Y-138000000D01*
X78500000Y-138000000D02*
X67000000Y-138000000D01*
X67000000Y-138000000D02*
X65500000Y-139500000D01*
X65500000Y-139500000D02*
X65500000Y-141000000D01*
X65500000Y-141000000D02*
X78500000Y-141000000D01*
X58750000Y-95000000D02*
X59000000Y-95250000D01*
X59000000Y-95500000D02*
X58500000Y-95000000D01*
X58250000Y-95000000D02*
X59000000Y-95750000D01*
X59000000Y-96000000D02*
X58000000Y-95000000D01*
X59000000Y-95000000D02*
X59000000Y-105000000D01*
X54500000Y-105000000D02*
X59500000Y-105000000D01*
X59500000Y-105000000D02*
X59500000Y-95000000D01*
X59500000Y-95000000D02*
X54500000Y-95000000D01*
X54500000Y-95000000D02*
X54500000Y-105000000D01*
X31555000Y-135095000D02*
X40445000Y-135095000D01*
X40445000Y-135095000D02*
X40445000Y-138905000D01*
X40445000Y-138905000D02*
X31555000Y-138905000D01*
X31555000Y-138905000D02*
X31555000Y-135095000D01*
X34730000Y-135095000D02*
X34730000Y-138905000D01*
X36055000Y-75345000D02*
X44945000Y-75345000D01*
X44945000Y-75345000D02*
X44945000Y-79155000D01*
X44945000Y-79155000D02*
X36055000Y-79155000D01*
X36055000Y-79155000D02*
X36055000Y-75345000D01*
X39230000Y-75345000D02*
X39230000Y-79155000D01*
X130050000Y-70600000D02*
X128450000Y-70600000D01*
X128450000Y-70800000D02*
X130050000Y-70800000D01*
X128450000Y-71000000D02*
X130050000Y-71000000D01*
X128450000Y-71400000D02*
X128450000Y-68600000D01*
X128450000Y-68600000D02*
X130050000Y-68600000D01*
X130050000Y-68600000D02*
X130050000Y-71400000D01*
X130050000Y-71400000D02*
X128450000Y-71400000D01*
X131555000Y-63095000D02*
X140445000Y-63095000D01*
X140445000Y-63095000D02*
X140445000Y-66905000D01*
X140445000Y-66905000D02*
X131555000Y-66905000D01*
X131555000Y-66905000D02*
X131555000Y-63095000D01*
X134730000Y-63095000D02*
X134730000Y-66905000D01*
X131500000Y-70700000D02*
X131500000Y-69300000D01*
X131500000Y-69300000D02*
X134500000Y-69300000D01*
X134500000Y-69300000D02*
X134500000Y-70700000D01*
X134500000Y-70700000D02*
X131500000Y-70700000D01*
D12*
X40200000Y-113000000D02*
G75*
G03X40200000Y-113000000I-3200000J0D01*
G01*
X40200000Y-105000000D02*
G75*
G03X40200000Y-105000000I-3200000J0D01*
G01*
X47700000Y-105000000D02*
G75*
G03X47700000Y-105000000I-3200000J0D01*
G01*
X47700000Y-113000000D02*
G75*
G03X47700000Y-113000000I-3200000J0D01*
G01*
D11*
X55000000Y-112550000D02*
X61000000Y-112550000D01*
X61000000Y-112550000D02*
X61000000Y-117450000D01*
X61000000Y-117450000D02*
X55000000Y-117450000D01*
X55000000Y-117450000D02*
X55000000Y-112550000D01*
X48000000Y-118550000D02*
X54000000Y-118550000D01*
X54000000Y-118550000D02*
X54000000Y-123450000D01*
X54000000Y-123450000D02*
X48000000Y-123450000D01*
X48000000Y-123450000D02*
X48000000Y-118550000D01*
X47550000Y-101000000D02*
X47550000Y-95000000D01*
X47550000Y-95000000D02*
X52450000Y-95000000D01*
X52450000Y-95000000D02*
X52450000Y-101000000D01*
X52450000Y-101000000D02*
X47550000Y-101000000D01*
D12*
X64100000Y-67000000D02*
G75*
G03X64100000Y-67000000I-4600000J0D01*
G01*
D11*
X106809524Y-66561905D02*
X107304762Y-66561905D01*
X107038095Y-66866667D01*
X107152381Y-66866667D01*
X107228571Y-66904762D01*
X107266667Y-66942857D01*
X107304762Y-67019048D01*
X107304762Y-67209524D01*
X107266667Y-67285714D01*
X107228571Y-67323810D01*
X107152381Y-67361905D01*
X106923809Y-67361905D01*
X106847619Y-67323810D01*
X106809524Y-67285714D01*
X107800000Y-66561905D02*
X107876191Y-66561905D01*
X107952381Y-66600000D01*
X107990476Y-66638095D01*
X108028572Y-66714286D01*
X108066667Y-66866667D01*
X108066667Y-67057143D01*
X108028572Y-67209524D01*
X107990476Y-67285714D01*
X107952381Y-67323810D01*
X107876191Y-67361905D01*
X107800000Y-67361905D01*
X107723810Y-67323810D01*
X107685714Y-67285714D01*
X107647619Y-67209524D01*
X107609524Y-67057143D01*
X107609524Y-66866667D01*
X107647619Y-66714286D01*
X107685714Y-66638095D01*
X107723810Y-66600000D01*
X107800000Y-66561905D01*
X108866667Y-67361905D02*
X108600000Y-66980952D01*
X108409524Y-67361905D02*
X108409524Y-66561905D01*
X108714286Y-66561905D01*
X108790477Y-66600000D01*
X108828572Y-66638095D01*
X108866667Y-66714286D01*
X108866667Y-66828571D01*
X108828572Y-66904762D01*
X108790477Y-66942857D01*
X108714286Y-66980952D01*
X108409524Y-66980952D01*
X109590477Y-66561905D02*
X109209524Y-66561905D01*
X109171429Y-66942857D01*
X109209524Y-66904762D01*
X109285715Y-66866667D01*
X109476191Y-66866667D01*
X109552381Y-66904762D01*
X109590477Y-66942857D01*
X109628572Y-67019048D01*
X109628572Y-67209524D01*
X109590477Y-67285714D01*
X109552381Y-67323810D01*
X109476191Y-67361905D01*
X109285715Y-67361905D01*
X109209524Y-67323810D01*
X109171429Y-67285714D01*
X110123810Y-66561905D02*
X110200001Y-66561905D01*
X110276191Y-66600000D01*
X110314286Y-66638095D01*
X110352382Y-66714286D01*
X110390477Y-66866667D01*
X110390477Y-67057143D01*
X110352382Y-67209524D01*
X110314286Y-67285714D01*
X110276191Y-67323810D01*
X110200001Y-67361905D01*
X110123810Y-67361905D01*
X110047620Y-67323810D01*
X110009524Y-67285714D01*
X109971429Y-67209524D01*
X109933334Y-67057143D01*
X109933334Y-66866667D01*
X109971429Y-66714286D01*
X110009524Y-66638095D01*
X110047620Y-66600000D01*
X110123810Y-66561905D01*
X110885715Y-66561905D02*
X110961906Y-66561905D01*
X111038096Y-66600000D01*
X111076191Y-66638095D01*
X111114287Y-66714286D01*
X111152382Y-66866667D01*
X111152382Y-67057143D01*
X111114287Y-67209524D01*
X111076191Y-67285714D01*
X111038096Y-67323810D01*
X110961906Y-67361905D01*
X110885715Y-67361905D01*
X110809525Y-67323810D01*
X110771429Y-67285714D01*
X110733334Y-67209524D01*
X110695239Y-67057143D01*
X110695239Y-66866667D01*
X110733334Y-66714286D01*
X110771429Y-66638095D01*
X110809525Y-66600000D01*
X110885715Y-66561905D01*
X63180952Y-125904762D02*
X63104761Y-125866667D01*
X63066666Y-125828571D01*
X63028571Y-125752381D01*
X63028571Y-125714286D01*
X63066666Y-125638095D01*
X63104761Y-125600000D01*
X63180952Y-125561905D01*
X63333333Y-125561905D01*
X63409523Y-125600000D01*
X63447619Y-125638095D01*
X63485714Y-125714286D01*
X63485714Y-125752381D01*
X63447619Y-125828571D01*
X63409523Y-125866667D01*
X63333333Y-125904762D01*
X63180952Y-125904762D01*
X63104761Y-125942857D01*
X63066666Y-125980952D01*
X63028571Y-126057143D01*
X63028571Y-126209524D01*
X63066666Y-126285714D01*
X63104761Y-126323810D01*
X63180952Y-126361905D01*
X63333333Y-126361905D01*
X63409523Y-126323810D01*
X63447619Y-126285714D01*
X63485714Y-126209524D01*
X63485714Y-126057143D01*
X63447619Y-125980952D01*
X63409523Y-125942857D01*
X63333333Y-125904762D01*
X64171428Y-125828571D02*
X64171428Y-126361905D01*
X63828571Y-125828571D02*
X63828571Y-126247619D01*
X63866666Y-126323810D01*
X63942857Y-126361905D01*
X64057143Y-126361905D01*
X64133333Y-126323810D01*
X64171428Y-126285714D01*
X64514286Y-125638095D02*
X64552381Y-125600000D01*
X64628572Y-125561905D01*
X64819048Y-125561905D01*
X64895238Y-125600000D01*
X64933334Y-125638095D01*
X64971429Y-125714286D01*
X64971429Y-125790476D01*
X64933334Y-125904762D01*
X64476191Y-126361905D01*
X64971429Y-126361905D01*
X120033333Y-75961905D02*
X120033333Y-75161905D01*
X120338095Y-75161905D01*
X120414286Y-75200000D01*
X120452381Y-75238095D01*
X120490476Y-75314286D01*
X120490476Y-75428571D01*
X120452381Y-75504762D01*
X120414286Y-75542857D01*
X120338095Y-75580952D01*
X120033333Y-75580952D01*
X120757143Y-75161905D02*
X120947619Y-75961905D01*
X121100000Y-75390476D01*
X121252381Y-75961905D01*
X121442857Y-75161905D01*
X122204762Y-75961905D02*
X121938095Y-75580952D01*
X121747619Y-75961905D02*
X121747619Y-75161905D01*
X122052381Y-75161905D01*
X122128572Y-75200000D01*
X122166667Y-75238095D01*
X122204762Y-75314286D01*
X122204762Y-75428571D01*
X122166667Y-75504762D01*
X122128572Y-75542857D01*
X122052381Y-75580952D01*
X121747619Y-75580952D01*
X125990477Y-123133333D02*
X126371429Y-123133333D01*
X125914286Y-123361905D02*
X126180953Y-122561905D01*
X126447620Y-123361905D01*
X127171429Y-123285714D02*
X127133334Y-123323810D01*
X127019048Y-123361905D01*
X126942858Y-123361905D01*
X126828572Y-123323810D01*
X126752381Y-123247619D01*
X126714286Y-123171429D01*
X126676191Y-123019048D01*
X126676191Y-122904762D01*
X126714286Y-122752381D01*
X126752381Y-122676190D01*
X126828572Y-122600000D01*
X126942858Y-122561905D01*
X127019048Y-122561905D01*
X127133334Y-122600000D01*
X127171429Y-122638095D01*
X128047620Y-123438095D02*
X127971429Y-123400000D01*
X127895239Y-123323810D01*
X127780953Y-123209524D01*
X127704762Y-123171429D01*
X127628572Y-123171429D01*
X127666667Y-123361905D02*
X127590477Y-123323810D01*
X127514286Y-123247619D01*
X127476191Y-123095238D01*
X127476191Y-122828571D01*
X127514286Y-122676190D01*
X127590477Y-122600000D01*
X127666667Y-122561905D01*
X127819048Y-122561905D01*
X127895239Y-122600000D01*
X127971429Y-122676190D01*
X128009524Y-122828571D01*
X128009524Y-123095238D01*
X127971429Y-123247619D01*
X127895239Y-123323810D01*
X127819048Y-123361905D01*
X127666667Y-123361905D01*
X86428572Y-123285714D02*
X86390477Y-123323810D01*
X86276191Y-123361905D01*
X86200001Y-123361905D01*
X86085715Y-123323810D01*
X86009524Y-123247619D01*
X85971429Y-123171429D01*
X85933334Y-123019048D01*
X85933334Y-122904762D01*
X85971429Y-122752381D01*
X86009524Y-122676190D01*
X86085715Y-122600000D01*
X86200001Y-122561905D01*
X86276191Y-122561905D01*
X86390477Y-122600000D01*
X86428572Y-122638095D01*
X86771429Y-123361905D02*
X86771429Y-122561905D01*
X87076191Y-122561905D01*
X87152382Y-122600000D01*
X87190477Y-122638095D01*
X87228572Y-122714286D01*
X87228572Y-122828571D01*
X87190477Y-122904762D01*
X87152382Y-122942857D01*
X87076191Y-122980952D01*
X86771429Y-122980952D01*
X87571429Y-122561905D02*
X87571429Y-123209524D01*
X87609524Y-123285714D01*
X87647620Y-123323810D01*
X87723810Y-123361905D01*
X87876191Y-123361905D01*
X87952382Y-123323810D01*
X87990477Y-123285714D01*
X88028572Y-123209524D01*
X88028572Y-122561905D01*
X185990476Y-122942857D02*
X185723809Y-122942857D01*
X185723809Y-123361905D02*
X185723809Y-122561905D01*
X186104762Y-122561905D01*
X186866666Y-123361905D02*
X186599999Y-122980952D01*
X186409523Y-123361905D02*
X186409523Y-122561905D01*
X186714285Y-122561905D01*
X186790476Y-122600000D01*
X186828571Y-122638095D01*
X186866666Y-122714286D01*
X186866666Y-122828571D01*
X186828571Y-122904762D01*
X186790476Y-122942857D01*
X186714285Y-122980952D01*
X186409523Y-122980952D01*
X187209523Y-122942857D02*
X187476190Y-122942857D01*
X187590476Y-123361905D02*
X187209523Y-123361905D01*
X187209523Y-122561905D01*
X187590476Y-122561905D01*
X187933333Y-122942857D02*
X188200000Y-122942857D01*
X188314286Y-123361905D02*
X187933333Y-123361905D01*
X187933333Y-122561905D01*
X188314286Y-122561905D01*
X165990476Y-122942857D02*
X165723809Y-122942857D01*
X165723809Y-123361905D02*
X165723809Y-122561905D01*
X166104762Y-122561905D01*
X166866666Y-123361905D02*
X166599999Y-122980952D01*
X166409523Y-123361905D02*
X166409523Y-122561905D01*
X166714285Y-122561905D01*
X166790476Y-122600000D01*
X166828571Y-122638095D01*
X166866666Y-122714286D01*
X166866666Y-122828571D01*
X166828571Y-122904762D01*
X166790476Y-122942857D01*
X166714285Y-122980952D01*
X166409523Y-122980952D01*
X167209523Y-122942857D02*
X167476190Y-122942857D01*
X167590476Y-123361905D02*
X167209523Y-123361905D01*
X167209523Y-122561905D01*
X167590476Y-122561905D01*
X167933333Y-122942857D02*
X168200000Y-122942857D01*
X168314286Y-123361905D02*
X167933333Y-123361905D01*
X167933333Y-122561905D01*
X168314286Y-122561905D01*
X53611905Y-132090477D02*
X52811905Y-132090477D01*
X53383333Y-131823810D01*
X52811905Y-131557143D01*
X53611905Y-131557143D01*
X53192857Y-130909524D02*
X53230952Y-130795238D01*
X53269048Y-130757143D01*
X53345238Y-130719048D01*
X53459524Y-130719048D01*
X53535714Y-130757143D01*
X53573810Y-130795238D01*
X53611905Y-130871429D01*
X53611905Y-131176191D01*
X52811905Y-131176191D01*
X52811905Y-130909524D01*
X52850000Y-130833334D01*
X52888095Y-130795238D01*
X52964286Y-130757143D01*
X53040476Y-130757143D01*
X53116667Y-130795238D01*
X53154762Y-130833334D01*
X53192857Y-130909524D01*
X53192857Y-131176191D01*
X53611905Y-129919048D02*
X53230952Y-130185715D01*
X53611905Y-130376191D02*
X52811905Y-130376191D01*
X52811905Y-130071429D01*
X52850000Y-129995238D01*
X52888095Y-129957143D01*
X52964286Y-129919048D01*
X53078571Y-129919048D01*
X53154762Y-129957143D01*
X53192857Y-129995238D01*
X53230952Y-130071429D01*
X53230952Y-130376191D01*
X52811905Y-129423810D02*
X52811905Y-129347619D01*
X52850000Y-129271429D01*
X52888095Y-129233334D01*
X52964286Y-129195238D01*
X53116667Y-129157143D01*
X53307143Y-129157143D01*
X53459524Y-129195238D01*
X53535714Y-129233334D01*
X53573810Y-129271429D01*
X53611905Y-129347619D01*
X53611905Y-129423810D01*
X53573810Y-129500000D01*
X53535714Y-129538096D01*
X53459524Y-129576191D01*
X53307143Y-129614286D01*
X53116667Y-129614286D01*
X52964286Y-129576191D01*
X52888095Y-129538096D01*
X52850000Y-129500000D01*
X52811905Y-129423810D01*
X52811905Y-128433333D02*
X52811905Y-128814286D01*
X53192857Y-128852381D01*
X53154762Y-128814286D01*
X53116667Y-128738095D01*
X53116667Y-128547619D01*
X53154762Y-128471429D01*
X53192857Y-128433333D01*
X53269048Y-128395238D01*
X53459524Y-128395238D01*
X53535714Y-128433333D01*
X53573810Y-128471429D01*
X53611905Y-128547619D01*
X53611905Y-128738095D01*
X53573810Y-128814286D01*
X53535714Y-128852381D01*
X53078571Y-127709524D02*
X53611905Y-127709524D01*
X52773810Y-127900000D02*
X53345238Y-128090476D01*
X53345238Y-127595238D01*
X52811905Y-127138095D02*
X52811905Y-127061904D01*
X52850000Y-126985714D01*
X52888095Y-126947619D01*
X52964286Y-126909523D01*
X53116667Y-126871428D01*
X53307143Y-126871428D01*
X53459524Y-126909523D01*
X53535714Y-126947619D01*
X53573810Y-126985714D01*
X53611905Y-127061904D01*
X53611905Y-127138095D01*
X53573810Y-127214285D01*
X53535714Y-127252381D01*
X53459524Y-127290476D01*
X53307143Y-127328571D01*
X53116667Y-127328571D01*
X52964286Y-127290476D01*
X52888095Y-127252381D01*
X52850000Y-127214285D01*
X52811905Y-127138095D01*
X204390477Y-122942857D02*
X204123810Y-122942857D01*
X204123810Y-123361905D02*
X204123810Y-122561905D01*
X204504763Y-122561905D01*
X205266667Y-123361905D02*
X205000000Y-122980952D01*
X204809524Y-123361905D02*
X204809524Y-122561905D01*
X205114286Y-122561905D01*
X205190477Y-122600000D01*
X205228572Y-122638095D01*
X205266667Y-122714286D01*
X205266667Y-122828571D01*
X205228572Y-122904762D01*
X205190477Y-122942857D01*
X205114286Y-122980952D01*
X204809524Y-122980952D01*
X205761905Y-122561905D02*
X205914286Y-122561905D01*
X205990477Y-122600000D01*
X206066667Y-122676190D01*
X206104762Y-122828571D01*
X206104762Y-123095238D01*
X206066667Y-123247619D01*
X205990477Y-123323810D01*
X205914286Y-123361905D01*
X205761905Y-123361905D01*
X205685715Y-123323810D01*
X205609524Y-123247619D01*
X205571429Y-123095238D01*
X205571429Y-122828571D01*
X205609524Y-122676190D01*
X205685715Y-122600000D01*
X205761905Y-122561905D01*
X206447619Y-123361905D02*
X206447619Y-122561905D01*
X206904762Y-123361905D01*
X206904762Y-122561905D01*
X207171428Y-122561905D02*
X207628571Y-122561905D01*
X207400000Y-123361905D02*
X207400000Y-122561905D01*
X207895238Y-122942857D02*
X208161905Y-122942857D01*
X208276191Y-123361905D02*
X207895238Y-123361905D01*
X207895238Y-122561905D01*
X208276191Y-122561905D01*
X208619048Y-123361905D02*
X208619048Y-122561905D01*
X209076191Y-123361905D01*
X209076191Y-122561905D01*
X209457143Y-123361905D02*
X209457143Y-122561905D01*
X209647619Y-122561905D01*
X209761905Y-122600000D01*
X209838096Y-122676190D01*
X209876191Y-122752381D01*
X209914286Y-122904762D01*
X209914286Y-123019048D01*
X209876191Y-123171429D01*
X209838096Y-123247619D01*
X209761905Y-123323810D01*
X209647619Y-123361905D01*
X209457143Y-123361905D01*
X145990476Y-122942857D02*
X145723809Y-122942857D01*
X145723809Y-123361905D02*
X145723809Y-122561905D01*
X146104762Y-122561905D01*
X146866666Y-123361905D02*
X146599999Y-122980952D01*
X146409523Y-123361905D02*
X146409523Y-122561905D01*
X146714285Y-122561905D01*
X146790476Y-122600000D01*
X146828571Y-122638095D01*
X146866666Y-122714286D01*
X146866666Y-122828571D01*
X146828571Y-122904762D01*
X146790476Y-122942857D01*
X146714285Y-122980952D01*
X146409523Y-122980952D01*
X147209523Y-122942857D02*
X147476190Y-122942857D01*
X147590476Y-123361905D02*
X147209523Y-123361905D01*
X147209523Y-122561905D01*
X147590476Y-122561905D01*
X147933333Y-122942857D02*
X148200000Y-122942857D01*
X148314286Y-123361905D02*
X147933333Y-123361905D01*
X147933333Y-122561905D01*
X148314286Y-122561905D01*
X105361905Y-122561905D02*
X105628572Y-123361905D01*
X105895239Y-122561905D01*
X106161905Y-123361905D02*
X106161905Y-122561905D01*
X106542857Y-123361905D02*
X106542857Y-122561905D01*
X106733333Y-122561905D01*
X106847619Y-122600000D01*
X106923810Y-122676190D01*
X106961905Y-122752381D01*
X107000000Y-122904762D01*
X107000000Y-123019048D01*
X106961905Y-123171429D01*
X106923810Y-123247619D01*
X106847619Y-123323810D01*
X106733333Y-123361905D01*
X106542857Y-123361905D01*
X107342857Y-122942857D02*
X107609524Y-122942857D01*
X107723810Y-123361905D02*
X107342857Y-123361905D01*
X107342857Y-122561905D01*
X107723810Y-122561905D01*
X108219048Y-122561905D02*
X108371429Y-122561905D01*
X108447620Y-122600000D01*
X108523810Y-122676190D01*
X108561905Y-122828571D01*
X108561905Y-123095238D01*
X108523810Y-123247619D01*
X108447620Y-123323810D01*
X108371429Y-123361905D01*
X108219048Y-123361905D01*
X108142858Y-123323810D01*
X108066667Y-123247619D01*
X108028572Y-123095238D01*
X108028572Y-122828571D01*
X108066667Y-122676190D01*
X108142858Y-122600000D01*
X108219048Y-122561905D01*
X42104762Y-82611905D02*
X41647619Y-82611905D01*
X41876190Y-82611905D02*
X41876190Y-81811905D01*
X41800000Y-81926190D01*
X41723809Y-82002381D01*
X41647619Y-82040476D01*
X42600000Y-81811905D02*
X42676191Y-81811905D01*
X42752381Y-81850000D01*
X42790476Y-81888095D01*
X42828572Y-81964286D01*
X42866667Y-82116667D01*
X42866667Y-82307143D01*
X42828572Y-82459524D01*
X42790476Y-82535714D01*
X42752381Y-82573810D01*
X42676191Y-82611905D01*
X42600000Y-82611905D01*
X42523810Y-82573810D01*
X42485714Y-82535714D01*
X42447619Y-82459524D01*
X42409524Y-82307143D01*
X42409524Y-82116667D01*
X42447619Y-81964286D01*
X42485714Y-81888095D01*
X42523810Y-81850000D01*
X42600000Y-81811905D01*
X43361905Y-81811905D02*
X43438096Y-81811905D01*
X43514286Y-81850000D01*
X43552381Y-81888095D01*
X43590477Y-81964286D01*
X43628572Y-82116667D01*
X43628572Y-82307143D01*
X43590477Y-82459524D01*
X43552381Y-82535714D01*
X43514286Y-82573810D01*
X43438096Y-82611905D01*
X43361905Y-82611905D01*
X43285715Y-82573810D01*
X43247619Y-82535714D01*
X43209524Y-82459524D01*
X43171429Y-82307143D01*
X43171429Y-82116667D01*
X43209524Y-81964286D01*
X43247619Y-81888095D01*
X43285715Y-81850000D01*
X43361905Y-81811905D01*
X43971429Y-82078571D02*
X43971429Y-82611905D01*
X43971429Y-82154762D02*
X44009524Y-82116667D01*
X44085715Y-82078571D01*
X44200001Y-82078571D01*
X44276191Y-82116667D01*
X44314286Y-82192857D01*
X44314286Y-82611905D01*
X99028571Y-59828571D02*
X99028571Y-60361905D01*
X98838095Y-59523810D02*
X98647619Y-60095238D01*
X99142857Y-60095238D01*
X99371429Y-59561905D02*
X99904762Y-59561905D01*
X99561905Y-60361905D01*
X100361905Y-59561905D02*
X100438096Y-59561905D01*
X100514286Y-59600000D01*
X100552381Y-59638095D01*
X100590477Y-59714286D01*
X100628572Y-59866667D01*
X100628572Y-60057143D01*
X100590477Y-60209524D01*
X100552381Y-60285714D01*
X100514286Y-60323810D01*
X100438096Y-60361905D01*
X100361905Y-60361905D01*
X100285715Y-60323810D01*
X100247619Y-60285714D01*
X100209524Y-60209524D01*
X100171429Y-60057143D01*
X100171429Y-59866667D01*
X100209524Y-59714286D01*
X100247619Y-59638095D01*
X100285715Y-59600000D01*
X100361905Y-59561905D01*
X100971429Y-59828571D02*
X100971429Y-60361905D01*
X100971429Y-59904762D02*
X101009524Y-59866667D01*
X101085715Y-59828571D01*
X101200001Y-59828571D01*
X101276191Y-59866667D01*
X101314286Y-59942857D01*
X101314286Y-60361905D01*
X84638095Y-69971429D02*
X84600000Y-69933334D01*
X84561905Y-69857143D01*
X84561905Y-69666667D01*
X84600000Y-69590477D01*
X84638095Y-69552381D01*
X84714286Y-69514286D01*
X84790476Y-69514286D01*
X84904762Y-69552381D01*
X85361905Y-70009524D01*
X85361905Y-69514286D01*
X84638095Y-69209524D02*
X84600000Y-69171429D01*
X84561905Y-69095238D01*
X84561905Y-68904762D01*
X84600000Y-68828572D01*
X84638095Y-68790476D01*
X84714286Y-68752381D01*
X84790476Y-68752381D01*
X84904762Y-68790476D01*
X85361905Y-69247619D01*
X85361905Y-68752381D01*
X84828571Y-68409524D02*
X85361905Y-68409524D01*
X84904762Y-68409524D02*
X84866667Y-68371429D01*
X84828571Y-68295238D01*
X84828571Y-68180952D01*
X84866667Y-68104762D01*
X84942857Y-68066667D01*
X85361905Y-68066667D01*
X37854762Y-88361905D02*
X37397619Y-88361905D01*
X37626190Y-88361905D02*
X37626190Y-87561905D01*
X37550000Y-87676190D01*
X37473809Y-87752381D01*
X37397619Y-87790476D01*
X38578572Y-87561905D02*
X38197619Y-87561905D01*
X38159524Y-87942857D01*
X38197619Y-87904762D01*
X38273810Y-87866667D01*
X38464286Y-87866667D01*
X38540476Y-87904762D01*
X38578572Y-87942857D01*
X38616667Y-88019048D01*
X38616667Y-88209524D01*
X38578572Y-88285714D01*
X38540476Y-88323810D01*
X38464286Y-88361905D01*
X38273810Y-88361905D01*
X38197619Y-88323810D01*
X38159524Y-88285714D01*
X39111905Y-87561905D02*
X39188096Y-87561905D01*
X39264286Y-87600000D01*
X39302381Y-87638095D01*
X39340477Y-87714286D01*
X39378572Y-87866667D01*
X39378572Y-88057143D01*
X39340477Y-88209524D01*
X39302381Y-88285714D01*
X39264286Y-88323810D01*
X39188096Y-88361905D01*
X39111905Y-88361905D01*
X39035715Y-88323810D01*
X38997619Y-88285714D01*
X38959524Y-88209524D01*
X38921429Y-88057143D01*
X38921429Y-87866667D01*
X38959524Y-87714286D01*
X38997619Y-87638095D01*
X39035715Y-87600000D01*
X39111905Y-87561905D01*
X39721429Y-87828571D02*
X39721429Y-88628571D01*
X39721429Y-87866667D02*
X39797620Y-87828571D01*
X39950001Y-87828571D01*
X40026191Y-87866667D01*
X40064286Y-87904762D01*
X40102382Y-87980952D01*
X40102382Y-88209524D01*
X40064286Y-88285714D01*
X40026191Y-88323810D01*
X39950001Y-88361905D01*
X39797620Y-88361905D01*
X39721429Y-88323810D01*
X37359524Y-129061905D02*
X37854762Y-129061905D01*
X37588095Y-129366667D01*
X37702381Y-129366667D01*
X37778571Y-129404762D01*
X37816667Y-129442857D01*
X37854762Y-129519048D01*
X37854762Y-129709524D01*
X37816667Y-129785714D01*
X37778571Y-129823810D01*
X37702381Y-129861905D01*
X37473809Y-129861905D01*
X37397619Y-129823810D01*
X37359524Y-129785714D01*
X38235714Y-129861905D02*
X38388095Y-129861905D01*
X38464286Y-129823810D01*
X38502381Y-129785714D01*
X38578572Y-129671429D01*
X38616667Y-129519048D01*
X38616667Y-129214286D01*
X38578572Y-129138095D01*
X38540476Y-129100000D01*
X38464286Y-129061905D01*
X38311905Y-129061905D01*
X38235714Y-129100000D01*
X38197619Y-129138095D01*
X38159524Y-129214286D01*
X38159524Y-129404762D01*
X38197619Y-129480952D01*
X38235714Y-129519048D01*
X38311905Y-129557143D01*
X38464286Y-129557143D01*
X38540476Y-129519048D01*
X38578572Y-129480952D01*
X38616667Y-129404762D01*
X39111905Y-129061905D02*
X39188096Y-129061905D01*
X39264286Y-129100000D01*
X39302381Y-129138095D01*
X39340477Y-129214286D01*
X39378572Y-129366667D01*
X39378572Y-129557143D01*
X39340477Y-129709524D01*
X39302381Y-129785714D01*
X39264286Y-129823810D01*
X39188096Y-129861905D01*
X39111905Y-129861905D01*
X39035715Y-129823810D01*
X38997619Y-129785714D01*
X38959524Y-129709524D01*
X38921429Y-129557143D01*
X38921429Y-129366667D01*
X38959524Y-129214286D01*
X38997619Y-129138095D01*
X39035715Y-129100000D01*
X39111905Y-129061905D01*
X39721429Y-129328571D02*
X39721429Y-130128571D01*
X39721429Y-129366667D02*
X39797620Y-129328571D01*
X39950001Y-129328571D01*
X40026191Y-129366667D01*
X40064286Y-129404762D01*
X40102382Y-129480952D01*
X40102382Y-129709524D01*
X40064286Y-129785714D01*
X40026191Y-129823810D01*
X39950001Y-129861905D01*
X39797620Y-129861905D01*
X39721429Y-129823810D01*
X39861905Y-133895238D02*
X39861905Y-134352381D01*
X39861905Y-134123810D02*
X39061905Y-134123810D01*
X39176190Y-134200000D01*
X39252381Y-134276191D01*
X39290476Y-134352381D01*
X39138095Y-133590476D02*
X39100000Y-133552381D01*
X39061905Y-133476190D01*
X39061905Y-133285714D01*
X39100000Y-133209524D01*
X39138095Y-133171428D01*
X39214286Y-133133333D01*
X39290476Y-133133333D01*
X39404762Y-133171428D01*
X39861905Y-133628571D01*
X39861905Y-133133333D01*
X39061905Y-132638095D02*
X39061905Y-132561904D01*
X39100000Y-132485714D01*
X39138095Y-132447619D01*
X39214286Y-132409523D01*
X39366667Y-132371428D01*
X39557143Y-132371428D01*
X39709524Y-132409523D01*
X39785714Y-132447619D01*
X39823810Y-132485714D01*
X39861905Y-132561904D01*
X39861905Y-132638095D01*
X39823810Y-132714285D01*
X39785714Y-132752381D01*
X39709524Y-132790476D01*
X39557143Y-132828571D01*
X39366667Y-132828571D01*
X39214286Y-132790476D01*
X39138095Y-132752381D01*
X39100000Y-132714285D01*
X39061905Y-132638095D01*
X39328571Y-132028571D02*
X40128571Y-132028571D01*
X39366667Y-132028571D02*
X39328571Y-131952380D01*
X39328571Y-131799999D01*
X39366667Y-131723809D01*
X39404762Y-131685714D01*
X39480952Y-131647618D01*
X39709524Y-131647618D01*
X39785714Y-131685714D01*
X39823810Y-131723809D01*
X39861905Y-131799999D01*
X39861905Y-131952380D01*
X39823810Y-132028571D01*
X38811905Y-92390476D02*
X38811905Y-91895238D01*
X39116667Y-92161905D01*
X39116667Y-92047619D01*
X39154762Y-91971429D01*
X39192857Y-91933333D01*
X39269048Y-91895238D01*
X39459524Y-91895238D01*
X39535714Y-91933333D01*
X39573810Y-91971429D01*
X39611905Y-92047619D01*
X39611905Y-92276191D01*
X39573810Y-92352381D01*
X39535714Y-92390476D01*
X38811905Y-91628571D02*
X38811905Y-91133333D01*
X39116667Y-91400000D01*
X39116667Y-91285714D01*
X39154762Y-91209524D01*
X39192857Y-91171428D01*
X39269048Y-91133333D01*
X39459524Y-91133333D01*
X39535714Y-91171428D01*
X39573810Y-91209524D01*
X39611905Y-91285714D01*
X39611905Y-91514286D01*
X39573810Y-91590476D01*
X39535714Y-91628571D01*
X38811905Y-90638095D02*
X38811905Y-90561904D01*
X38850000Y-90485714D01*
X38888095Y-90447619D01*
X38964286Y-90409523D01*
X39116667Y-90371428D01*
X39307143Y-90371428D01*
X39459524Y-90409523D01*
X39535714Y-90447619D01*
X39573810Y-90485714D01*
X39611905Y-90561904D01*
X39611905Y-90638095D01*
X39573810Y-90714285D01*
X39535714Y-90752381D01*
X39459524Y-90790476D01*
X39307143Y-90828571D01*
X39116667Y-90828571D01*
X38964286Y-90790476D01*
X38888095Y-90752381D01*
X38850000Y-90714285D01*
X38811905Y-90638095D01*
X39078571Y-90028571D02*
X39878571Y-90028571D01*
X39116667Y-90028571D02*
X39078571Y-89952380D01*
X39078571Y-89799999D01*
X39116667Y-89723809D01*
X39154762Y-89685714D01*
X39230952Y-89647618D01*
X39459524Y-89647618D01*
X39535714Y-89685714D01*
X39573810Y-89723809D01*
X39611905Y-89799999D01*
X39611905Y-89952380D01*
X39573810Y-90028571D01*
X44209523Y-92028571D02*
X44209523Y-92561905D01*
X44019047Y-91723810D02*
X43828571Y-92295238D01*
X44323809Y-92295238D01*
X44552381Y-91761905D02*
X45085714Y-91761905D01*
X44742857Y-92561905D01*
X45390476Y-92028571D02*
X45390476Y-92561905D01*
X45390476Y-92104762D02*
X45428571Y-92066667D01*
X45504762Y-92028571D01*
X45619048Y-92028571D01*
X45695238Y-92066667D01*
X45733333Y-92142857D01*
X45733333Y-92561905D01*
X38235714Y-85611905D02*
X37778571Y-85611905D01*
X38007142Y-85611905D02*
X38007142Y-84811905D01*
X37930952Y-84926190D01*
X37854761Y-85002381D01*
X37778571Y-85040476D01*
X38730952Y-84811905D02*
X38807143Y-84811905D01*
X38883333Y-84850000D01*
X38921428Y-84888095D01*
X38959524Y-84964286D01*
X38997619Y-85116667D01*
X38997619Y-85307143D01*
X38959524Y-85459524D01*
X38921428Y-85535714D01*
X38883333Y-85573810D01*
X38807143Y-85611905D01*
X38730952Y-85611905D01*
X38654762Y-85573810D01*
X38616666Y-85535714D01*
X38578571Y-85459524D01*
X38540476Y-85307143D01*
X38540476Y-85116667D01*
X38578571Y-84964286D01*
X38616666Y-84888095D01*
X38654762Y-84850000D01*
X38730952Y-84811905D01*
X39340476Y-85078571D02*
X39340476Y-85611905D01*
X39340476Y-85154762D02*
X39378571Y-85116667D01*
X39454762Y-85078571D01*
X39569048Y-85078571D01*
X39645238Y-85116667D01*
X39683333Y-85192857D01*
X39683333Y-85611905D01*
X41854762Y-124111905D02*
X41397619Y-124111905D01*
X41626190Y-124111905D02*
X41626190Y-123311905D01*
X41550000Y-123426190D01*
X41473809Y-123502381D01*
X41397619Y-123540476D01*
X42350000Y-123311905D02*
X42426191Y-123311905D01*
X42502381Y-123350000D01*
X42540476Y-123388095D01*
X42578572Y-123464286D01*
X42616667Y-123616667D01*
X42616667Y-123807143D01*
X42578572Y-123959524D01*
X42540476Y-124035714D01*
X42502381Y-124073810D01*
X42426191Y-124111905D01*
X42350000Y-124111905D01*
X42273810Y-124073810D01*
X42235714Y-124035714D01*
X42197619Y-123959524D01*
X42159524Y-123807143D01*
X42159524Y-123616667D01*
X42197619Y-123464286D01*
X42235714Y-123388095D01*
X42273810Y-123350000D01*
X42350000Y-123311905D01*
X43111905Y-123311905D02*
X43188096Y-123311905D01*
X43264286Y-123350000D01*
X43302381Y-123388095D01*
X43340477Y-123464286D01*
X43378572Y-123616667D01*
X43378572Y-123807143D01*
X43340477Y-123959524D01*
X43302381Y-124035714D01*
X43264286Y-124073810D01*
X43188096Y-124111905D01*
X43111905Y-124111905D01*
X43035715Y-124073810D01*
X42997619Y-124035714D01*
X42959524Y-123959524D01*
X42921429Y-123807143D01*
X42921429Y-123616667D01*
X42959524Y-123464286D01*
X42997619Y-123388095D01*
X43035715Y-123350000D01*
X43111905Y-123311905D01*
X43721429Y-123578571D02*
X43721429Y-124111905D01*
X43721429Y-123654762D02*
X43759524Y-123616667D01*
X43835715Y-123578571D01*
X43950001Y-123578571D01*
X44026191Y-123616667D01*
X44064286Y-123692857D01*
X44064286Y-124111905D01*
X38235714Y-131361905D02*
X37778571Y-131361905D01*
X38007142Y-131361905D02*
X38007142Y-130561905D01*
X37930952Y-130676190D01*
X37854761Y-130752381D01*
X37778571Y-130790476D01*
X38730952Y-130561905D02*
X38807143Y-130561905D01*
X38883333Y-130600000D01*
X38921428Y-130638095D01*
X38959524Y-130714286D01*
X38997619Y-130866667D01*
X38997619Y-131057143D01*
X38959524Y-131209524D01*
X38921428Y-131285714D01*
X38883333Y-131323810D01*
X38807143Y-131361905D01*
X38730952Y-131361905D01*
X38654762Y-131323810D01*
X38616666Y-131285714D01*
X38578571Y-131209524D01*
X38540476Y-131057143D01*
X38540476Y-130866667D01*
X38578571Y-130714286D01*
X38616666Y-130638095D01*
X38654762Y-130600000D01*
X38730952Y-130561905D01*
X39340476Y-130828571D02*
X39340476Y-131361905D01*
X39340476Y-130904762D02*
X39378571Y-130866667D01*
X39454762Y-130828571D01*
X39569048Y-130828571D01*
X39645238Y-130866667D01*
X39683333Y-130942857D01*
X39683333Y-131361905D01*
X37235714Y-132861905D02*
X36778571Y-132861905D01*
X37007142Y-132861905D02*
X37007142Y-132061905D01*
X36930952Y-132176190D01*
X36854761Y-132252381D01*
X36778571Y-132290476D01*
X37578571Y-132328571D02*
X37578571Y-132861905D01*
X37578571Y-132404762D02*
X37616666Y-132366667D01*
X37692857Y-132328571D01*
X37807143Y-132328571D01*
X37883333Y-132366667D01*
X37921428Y-132442857D01*
X37921428Y-132861905D01*
X38683334Y-132061905D02*
X38302381Y-132061905D01*
X38264286Y-132442857D01*
X38302381Y-132404762D01*
X38378572Y-132366667D01*
X38569048Y-132366667D01*
X38645238Y-132404762D01*
X38683334Y-132442857D01*
X38721429Y-132519048D01*
X38721429Y-132709524D01*
X38683334Y-132785714D01*
X38645238Y-132823810D01*
X38569048Y-132861905D01*
X38378572Y-132861905D01*
X38302381Y-132823810D01*
X38264286Y-132785714D01*
X36528571Y-91388095D02*
X36566666Y-91350000D01*
X36642857Y-91311905D01*
X36833333Y-91311905D01*
X36909523Y-91350000D01*
X36947619Y-91388095D01*
X36985714Y-91464286D01*
X36985714Y-91540476D01*
X36947619Y-91654762D01*
X36490476Y-92111905D01*
X36985714Y-92111905D01*
X37328571Y-91578571D02*
X37328571Y-92111905D01*
X37328571Y-91654762D02*
X37366666Y-91616667D01*
X37442857Y-91578571D01*
X37557143Y-91578571D01*
X37633333Y-91616667D01*
X37671428Y-91692857D01*
X37671428Y-92111905D01*
X38014286Y-91388095D02*
X38052381Y-91350000D01*
X38128572Y-91311905D01*
X38319048Y-91311905D01*
X38395238Y-91350000D01*
X38433334Y-91388095D01*
X38471429Y-91464286D01*
X38471429Y-91540476D01*
X38433334Y-91654762D01*
X37976191Y-92111905D01*
X38471429Y-92111905D01*
X50866667Y-126111905D02*
X50409524Y-126111905D01*
X50638095Y-126111905D02*
X50638095Y-125311905D01*
X50561905Y-125426190D01*
X50485714Y-125502381D01*
X50409524Y-125540476D01*
X51552381Y-125578571D02*
X51552381Y-126111905D01*
X51209524Y-125578571D02*
X51209524Y-125997619D01*
X51247619Y-126073810D01*
X51323810Y-126111905D01*
X51438096Y-126111905D01*
X51514286Y-126073810D01*
X51552381Y-126035714D01*
X50838095Y-87771429D02*
X50800000Y-87733334D01*
X50761905Y-87657143D01*
X50761905Y-87466667D01*
X50800000Y-87390477D01*
X50838095Y-87352381D01*
X50914286Y-87314286D01*
X50990476Y-87314286D01*
X51104762Y-87352381D01*
X51561905Y-87809524D01*
X51561905Y-87314286D01*
X50838095Y-87009524D02*
X50800000Y-86971429D01*
X50761905Y-86895238D01*
X50761905Y-86704762D01*
X50800000Y-86628572D01*
X50838095Y-86590476D01*
X50914286Y-86552381D01*
X50990476Y-86552381D01*
X51104762Y-86590476D01*
X51561905Y-87047619D01*
X51561905Y-86552381D01*
X51028571Y-86209524D02*
X51561905Y-86209524D01*
X51104762Y-86209524D02*
X51066667Y-86171429D01*
X51028571Y-86095238D01*
X51028571Y-85980952D01*
X51066667Y-85904762D01*
X51142857Y-85866667D01*
X51561905Y-85866667D01*
X51611905Y-129633333D02*
X51611905Y-130090476D01*
X51611905Y-129861905D02*
X50811905Y-129861905D01*
X50926190Y-129938095D01*
X51002381Y-130014286D01*
X51040476Y-130090476D01*
X51078571Y-128947619D02*
X51611905Y-128947619D01*
X51078571Y-129290476D02*
X51497619Y-129290476D01*
X51573810Y-129252381D01*
X51611905Y-129176190D01*
X51611905Y-129061904D01*
X51573810Y-128985714D01*
X51535714Y-128947619D01*
X46278571Y-83328571D02*
X46278571Y-83861905D01*
X46088095Y-83023810D02*
X45897619Y-83595238D01*
X46392857Y-83595238D01*
X46621429Y-83061905D02*
X47154762Y-83061905D01*
X46811905Y-83861905D01*
X47611905Y-83061905D02*
X47688096Y-83061905D01*
X47764286Y-83100000D01*
X47802381Y-83138095D01*
X47840477Y-83214286D01*
X47878572Y-83366667D01*
X47878572Y-83557143D01*
X47840477Y-83709524D01*
X47802381Y-83785714D01*
X47764286Y-83823810D01*
X47688096Y-83861905D01*
X47611905Y-83861905D01*
X47535715Y-83823810D01*
X47497619Y-83785714D01*
X47459524Y-83709524D01*
X47421429Y-83557143D01*
X47421429Y-83366667D01*
X47459524Y-83214286D01*
X47497619Y-83138095D01*
X47535715Y-83100000D01*
X47611905Y-83061905D01*
X48221429Y-83328571D02*
X48221429Y-83861905D01*
X48221429Y-83404762D02*
X48259524Y-83366667D01*
X48335715Y-83328571D01*
X48450001Y-83328571D01*
X48526191Y-83366667D01*
X48564286Y-83442857D01*
X48564286Y-83861905D01*
X61028571Y-103138095D02*
X61066666Y-103100000D01*
X61142857Y-103061905D01*
X61333333Y-103061905D01*
X61409523Y-103100000D01*
X61447619Y-103138095D01*
X61485714Y-103214286D01*
X61485714Y-103290476D01*
X61447619Y-103404762D01*
X60990476Y-103861905D01*
X61485714Y-103861905D01*
X61828571Y-103328571D02*
X61828571Y-103861905D01*
X61828571Y-103404762D02*
X61866666Y-103366667D01*
X61942857Y-103328571D01*
X62057143Y-103328571D01*
X62133333Y-103366667D01*
X62171428Y-103442857D01*
X62171428Y-103861905D01*
X62514286Y-103138095D02*
X62552381Y-103100000D01*
X62628572Y-103061905D01*
X62819048Y-103061905D01*
X62895238Y-103100000D01*
X62933334Y-103138095D01*
X62971429Y-103214286D01*
X62971429Y-103290476D01*
X62933334Y-103404762D01*
X62476191Y-103861905D01*
X62971429Y-103861905D01*
X69904762Y-116609524D02*
X69866667Y-116685715D01*
X69828571Y-116723810D01*
X69752381Y-116761905D01*
X69714286Y-116761905D01*
X69638095Y-116723810D01*
X69600000Y-116685715D01*
X69561905Y-116609524D01*
X69561905Y-116457143D01*
X69600000Y-116380953D01*
X69638095Y-116342857D01*
X69714286Y-116304762D01*
X69752381Y-116304762D01*
X69828571Y-116342857D01*
X69866667Y-116380953D01*
X69904762Y-116457143D01*
X69904762Y-116609524D01*
X69942857Y-116685715D01*
X69980952Y-116723810D01*
X70057143Y-116761905D01*
X70209524Y-116761905D01*
X70285714Y-116723810D01*
X70323810Y-116685715D01*
X70361905Y-116609524D01*
X70361905Y-116457143D01*
X70323810Y-116380953D01*
X70285714Y-116342857D01*
X70209524Y-116304762D01*
X70057143Y-116304762D01*
X69980952Y-116342857D01*
X69942857Y-116380953D01*
X69904762Y-116457143D01*
X69638095Y-116000000D02*
X69600000Y-115961905D01*
X69561905Y-115885714D01*
X69561905Y-115695238D01*
X69600000Y-115619048D01*
X69638095Y-115580952D01*
X69714286Y-115542857D01*
X69790476Y-115542857D01*
X69904762Y-115580952D01*
X70361905Y-116038095D01*
X70361905Y-115542857D01*
X69828571Y-114857143D02*
X70361905Y-114857143D01*
X69828571Y-115200000D02*
X70247619Y-115200000D01*
X70323810Y-115161905D01*
X70361905Y-115085714D01*
X70361905Y-114971428D01*
X70323810Y-114895238D01*
X70285714Y-114857143D01*
X69523810Y-113295237D02*
X70552381Y-113980952D01*
X70361905Y-111999999D02*
X70361905Y-112457142D01*
X70361905Y-112228571D02*
X69561905Y-112228571D01*
X69676190Y-112304761D01*
X69752381Y-112380952D01*
X69790476Y-112457142D01*
X69561905Y-111314285D02*
X69561905Y-111466666D01*
X69600000Y-111542856D01*
X69638095Y-111580951D01*
X69752381Y-111657142D01*
X69904762Y-111695237D01*
X70209524Y-111695237D01*
X70285714Y-111657142D01*
X70323810Y-111619047D01*
X70361905Y-111542856D01*
X70361905Y-111390475D01*
X70323810Y-111314285D01*
X70285714Y-111276189D01*
X70209524Y-111238094D01*
X70019048Y-111238094D01*
X69942857Y-111276189D01*
X69904762Y-111314285D01*
X69866667Y-111390475D01*
X69866667Y-111542856D01*
X69904762Y-111619047D01*
X69942857Y-111657142D01*
X70019048Y-111695237D01*
X69061905Y-103390476D02*
X69061905Y-102895238D01*
X69366667Y-103161905D01*
X69366667Y-103047619D01*
X69404762Y-102971429D01*
X69442857Y-102933333D01*
X69519048Y-102895238D01*
X69709524Y-102895238D01*
X69785714Y-102933333D01*
X69823810Y-102971429D01*
X69861905Y-103047619D01*
X69861905Y-103276191D01*
X69823810Y-103352381D01*
X69785714Y-103390476D01*
X69061905Y-102628571D02*
X69061905Y-102133333D01*
X69366667Y-102400000D01*
X69366667Y-102285714D01*
X69404762Y-102209524D01*
X69442857Y-102171428D01*
X69519048Y-102133333D01*
X69709524Y-102133333D01*
X69785714Y-102171428D01*
X69823810Y-102209524D01*
X69861905Y-102285714D01*
X69861905Y-102514286D01*
X69823810Y-102590476D01*
X69785714Y-102628571D01*
X69061905Y-101638095D02*
X69061905Y-101561904D01*
X69100000Y-101485714D01*
X69138095Y-101447619D01*
X69214286Y-101409523D01*
X69366667Y-101371428D01*
X69557143Y-101371428D01*
X69709524Y-101409523D01*
X69785714Y-101447619D01*
X69823810Y-101485714D01*
X69861905Y-101561904D01*
X69861905Y-101638095D01*
X69823810Y-101714285D01*
X69785714Y-101752381D01*
X69709524Y-101790476D01*
X69557143Y-101828571D01*
X69366667Y-101828571D01*
X69214286Y-101790476D01*
X69138095Y-101752381D01*
X69100000Y-101714285D01*
X69061905Y-101638095D01*
X69328571Y-100685714D02*
X69861905Y-100685714D01*
X69328571Y-101028571D02*
X69747619Y-101028571D01*
X69823810Y-100990476D01*
X69861905Y-100914285D01*
X69861905Y-100799999D01*
X69823810Y-100723809D01*
X69785714Y-100685714D01*
X50485714Y-72361905D02*
X50028571Y-72361905D01*
X50257142Y-72361905D02*
X50257142Y-71561905D01*
X50180952Y-71676190D01*
X50104761Y-71752381D01*
X50028571Y-71790476D01*
X50980952Y-71561905D02*
X51057143Y-71561905D01*
X51133333Y-71600000D01*
X51171428Y-71638095D01*
X51209524Y-71714286D01*
X51247619Y-71866667D01*
X51247619Y-72057143D01*
X51209524Y-72209524D01*
X51171428Y-72285714D01*
X51133333Y-72323810D01*
X51057143Y-72361905D01*
X50980952Y-72361905D01*
X50904762Y-72323810D01*
X50866666Y-72285714D01*
X50828571Y-72209524D01*
X50790476Y-72057143D01*
X50790476Y-71866667D01*
X50828571Y-71714286D01*
X50866666Y-71638095D01*
X50904762Y-71600000D01*
X50980952Y-71561905D01*
X51590476Y-71828571D02*
X51590476Y-72361905D01*
X51590476Y-71904762D02*
X51628571Y-71866667D01*
X51704762Y-71828571D01*
X51819048Y-71828571D01*
X51895238Y-71866667D01*
X51933333Y-71942857D01*
X51933333Y-72361905D01*
X53366667Y-70861905D02*
X52909524Y-70861905D01*
X53138095Y-70861905D02*
X53138095Y-70061905D01*
X53061905Y-70176190D01*
X52985714Y-70252381D01*
X52909524Y-70290476D01*
X53709524Y-70328571D02*
X53709524Y-70861905D01*
X53709524Y-70404762D02*
X53747619Y-70366667D01*
X53823810Y-70328571D01*
X53938096Y-70328571D01*
X54014286Y-70366667D01*
X54052381Y-70442857D01*
X54052381Y-70861905D01*
X68828571Y-75590477D02*
X69361905Y-75590477D01*
X68523810Y-75780953D02*
X69095238Y-75971429D01*
X69095238Y-75476191D01*
X68561905Y-75247619D02*
X68561905Y-74714286D01*
X69361905Y-75057143D01*
X68828571Y-74066667D02*
X69361905Y-74066667D01*
X68828571Y-74409524D02*
X69247619Y-74409524D01*
X69323810Y-74371429D01*
X69361905Y-74295238D01*
X69361905Y-74180952D01*
X69323810Y-74104762D01*
X69285714Y-74066667D01*
X59909523Y-74361905D02*
X59909523Y-73561905D01*
X60176190Y-74133333D01*
X60442857Y-73561905D01*
X60442857Y-74361905D01*
X61090476Y-73942857D02*
X61204762Y-73980952D01*
X61242857Y-74019048D01*
X61280952Y-74095238D01*
X61280952Y-74209524D01*
X61242857Y-74285714D01*
X61204762Y-74323810D01*
X61128571Y-74361905D01*
X60823809Y-74361905D01*
X60823809Y-73561905D01*
X61090476Y-73561905D01*
X61166666Y-73600000D01*
X61204762Y-73638095D01*
X61242857Y-73714286D01*
X61242857Y-73790476D01*
X61204762Y-73866667D01*
X61166666Y-73904762D01*
X61090476Y-73942857D01*
X60823809Y-73942857D01*
X62080952Y-74361905D02*
X61814285Y-73980952D01*
X61623809Y-74361905D02*
X61623809Y-73561905D01*
X61928571Y-73561905D01*
X62004762Y-73600000D01*
X62042857Y-73638095D01*
X62080952Y-73714286D01*
X62080952Y-73828571D01*
X62042857Y-73904762D01*
X62004762Y-73942857D01*
X61928571Y-73980952D01*
X61623809Y-73980952D01*
X62576190Y-73561905D02*
X62652381Y-73561905D01*
X62728571Y-73600000D01*
X62766666Y-73638095D01*
X62804762Y-73714286D01*
X62842857Y-73866667D01*
X62842857Y-74057143D01*
X62804762Y-74209524D01*
X62766666Y-74285714D01*
X62728571Y-74323810D01*
X62652381Y-74361905D01*
X62576190Y-74361905D01*
X62500000Y-74323810D01*
X62461904Y-74285714D01*
X62423809Y-74209524D01*
X62385714Y-74057143D01*
X62385714Y-73866667D01*
X62423809Y-73714286D01*
X62461904Y-73638095D01*
X62500000Y-73600000D01*
X62576190Y-73561905D01*
X63566667Y-73561905D02*
X63185714Y-73561905D01*
X63147619Y-73942857D01*
X63185714Y-73904762D01*
X63261905Y-73866667D01*
X63452381Y-73866667D01*
X63528571Y-73904762D01*
X63566667Y-73942857D01*
X63604762Y-74019048D01*
X63604762Y-74209524D01*
X63566667Y-74285714D01*
X63528571Y-74323810D01*
X63452381Y-74361905D01*
X63261905Y-74361905D01*
X63185714Y-74323810D01*
X63147619Y-74285714D01*
X64290476Y-73828571D02*
X64290476Y-74361905D01*
X64100000Y-73523810D02*
X63909524Y-74095238D01*
X64404762Y-74095238D01*
X64861905Y-73561905D02*
X64938096Y-73561905D01*
X65014286Y-73600000D01*
X65052381Y-73638095D01*
X65090477Y-73714286D01*
X65128572Y-73866667D01*
X65128572Y-74057143D01*
X65090477Y-74209524D01*
X65052381Y-74285714D01*
X65014286Y-74323810D01*
X64938096Y-74361905D01*
X64861905Y-74361905D01*
X64785715Y-74323810D01*
X64747619Y-74285714D01*
X64709524Y-74209524D01*
X64671429Y-74057143D01*
X64671429Y-73866667D01*
X64709524Y-73714286D01*
X64747619Y-73638095D01*
X64785715Y-73600000D01*
X64861905Y-73561905D01*
X49061905Y-75990476D02*
X49061905Y-75495238D01*
X49366667Y-75761905D01*
X49366667Y-75647619D01*
X49404762Y-75571429D01*
X49442857Y-75533333D01*
X49519048Y-75495238D01*
X49709524Y-75495238D01*
X49785714Y-75533333D01*
X49823810Y-75571429D01*
X49861905Y-75647619D01*
X49861905Y-75876191D01*
X49823810Y-75952381D01*
X49785714Y-75990476D01*
X49061905Y-75266667D02*
X49861905Y-75000000D01*
X49061905Y-74733333D01*
X49861905Y-74428572D02*
X49861905Y-74276191D01*
X49823810Y-74200000D01*
X49785714Y-74161905D01*
X49671429Y-74085714D01*
X49519048Y-74047619D01*
X49214286Y-74047619D01*
X49138095Y-74085714D01*
X49100000Y-74123810D01*
X49061905Y-74200000D01*
X49061905Y-74352381D01*
X49100000Y-74428572D01*
X49138095Y-74466667D01*
X49214286Y-74504762D01*
X49404762Y-74504762D01*
X49480952Y-74466667D01*
X49519048Y-74428572D01*
X49557143Y-74352381D01*
X49557143Y-74200000D01*
X49519048Y-74123810D01*
X49480952Y-74085714D01*
X49404762Y-74047619D01*
X100133333Y-70533333D02*
X100133333Y-70152381D01*
X100361905Y-70609524D02*
X99561905Y-70342857D01*
X100361905Y-70076190D01*
X99561905Y-69657143D02*
X99561905Y-69504762D01*
X99600000Y-69428571D01*
X99676190Y-69352381D01*
X99828571Y-69314286D01*
X100095238Y-69314286D01*
X100247619Y-69352381D01*
X100323810Y-69428571D01*
X100361905Y-69504762D01*
X100361905Y-69657143D01*
X100323810Y-69733333D01*
X100247619Y-69809524D01*
X100095238Y-69847619D01*
X99828571Y-69847619D01*
X99676190Y-69809524D01*
X99600000Y-69733333D01*
X99561905Y-69657143D01*
X100361905Y-68971429D02*
X99561905Y-68971429D01*
X99561905Y-68780953D01*
X99600000Y-68666667D01*
X99676190Y-68590476D01*
X99752381Y-68552381D01*
X99904762Y-68514286D01*
X100019048Y-68514286D01*
X100171429Y-68552381D01*
X100247619Y-68590476D01*
X100323810Y-68666667D01*
X100361905Y-68780953D01*
X100361905Y-68971429D01*
X99828571Y-67828572D02*
X100361905Y-67828572D01*
X99523810Y-68019048D02*
X100095238Y-68209524D01*
X100095238Y-67714286D01*
X100361905Y-66990476D02*
X100361905Y-67447619D01*
X100361905Y-67219048D02*
X99561905Y-67219048D01*
X99676190Y-67295238D01*
X99752381Y-67371429D01*
X99790476Y-67447619D01*
X99904762Y-66533333D02*
X99866667Y-66609524D01*
X99828571Y-66647619D01*
X99752381Y-66685714D01*
X99714286Y-66685714D01*
X99638095Y-66647619D01*
X99600000Y-66609524D01*
X99561905Y-66533333D01*
X99561905Y-66380952D01*
X99600000Y-66304762D01*
X99638095Y-66266666D01*
X99714286Y-66228571D01*
X99752381Y-66228571D01*
X99828571Y-66266666D01*
X99866667Y-66304762D01*
X99904762Y-66380952D01*
X99904762Y-66533333D01*
X99942857Y-66609524D01*
X99980952Y-66647619D01*
X100057143Y-66685714D01*
X100209524Y-66685714D01*
X100285714Y-66647619D01*
X100323810Y-66609524D01*
X100361905Y-66533333D01*
X100361905Y-66380952D01*
X100323810Y-66304762D01*
X100285714Y-66266666D01*
X100209524Y-66228571D01*
X100057143Y-66228571D01*
X99980952Y-66266666D01*
X99942857Y-66304762D01*
X99904762Y-66380952D01*
X100361905Y-65847619D02*
X100361905Y-65695238D01*
X100323810Y-65619047D01*
X100285714Y-65580952D01*
X100171429Y-65504761D01*
X100019048Y-65466666D01*
X99714286Y-65466666D01*
X99638095Y-65504761D01*
X99600000Y-65542857D01*
X99561905Y-65619047D01*
X99561905Y-65771428D01*
X99600000Y-65847619D01*
X99638095Y-65885714D01*
X99714286Y-65923809D01*
X99904762Y-65923809D01*
X99980952Y-65885714D01*
X100019048Y-65847619D01*
X100057143Y-65771428D01*
X100057143Y-65619047D01*
X100019048Y-65542857D01*
X99980952Y-65504761D01*
X99904762Y-65466666D01*
X91133333Y-70533333D02*
X91133333Y-70152381D01*
X91361905Y-70609524D02*
X90561905Y-70342857D01*
X91361905Y-70076190D01*
X90561905Y-69657143D02*
X90561905Y-69504762D01*
X90600000Y-69428571D01*
X90676190Y-69352381D01*
X90828571Y-69314286D01*
X91095238Y-69314286D01*
X91247619Y-69352381D01*
X91323810Y-69428571D01*
X91361905Y-69504762D01*
X91361905Y-69657143D01*
X91323810Y-69733333D01*
X91247619Y-69809524D01*
X91095238Y-69847619D01*
X90828571Y-69847619D01*
X90676190Y-69809524D01*
X90600000Y-69733333D01*
X90561905Y-69657143D01*
X91361905Y-68971429D02*
X90561905Y-68971429D01*
X90561905Y-68780953D01*
X90600000Y-68666667D01*
X90676190Y-68590476D01*
X90752381Y-68552381D01*
X90904762Y-68514286D01*
X91019048Y-68514286D01*
X91171429Y-68552381D01*
X91247619Y-68590476D01*
X91323810Y-68666667D01*
X91361905Y-68780953D01*
X91361905Y-68971429D01*
X90828571Y-67828572D02*
X91361905Y-67828572D01*
X90523810Y-68019048D02*
X91095238Y-68209524D01*
X91095238Y-67714286D01*
X91361905Y-66990476D02*
X91361905Y-67447619D01*
X91361905Y-67219048D02*
X90561905Y-67219048D01*
X90676190Y-67295238D01*
X90752381Y-67371429D01*
X90790476Y-67447619D01*
X90904762Y-66533333D02*
X90866667Y-66609524D01*
X90828571Y-66647619D01*
X90752381Y-66685714D01*
X90714286Y-66685714D01*
X90638095Y-66647619D01*
X90600000Y-66609524D01*
X90561905Y-66533333D01*
X90561905Y-66380952D01*
X90600000Y-66304762D01*
X90638095Y-66266666D01*
X90714286Y-66228571D01*
X90752381Y-66228571D01*
X90828571Y-66266666D01*
X90866667Y-66304762D01*
X90904762Y-66380952D01*
X90904762Y-66533333D01*
X90942857Y-66609524D01*
X90980952Y-66647619D01*
X91057143Y-66685714D01*
X91209524Y-66685714D01*
X91285714Y-66647619D01*
X91323810Y-66609524D01*
X91361905Y-66533333D01*
X91361905Y-66380952D01*
X91323810Y-66304762D01*
X91285714Y-66266666D01*
X91209524Y-66228571D01*
X91057143Y-66228571D01*
X90980952Y-66266666D01*
X90942857Y-66304762D01*
X90904762Y-66380952D01*
X91361905Y-65847619D02*
X91361905Y-65695238D01*
X91323810Y-65619047D01*
X91285714Y-65580952D01*
X91171429Y-65504761D01*
X91019048Y-65466666D01*
X90714286Y-65466666D01*
X90638095Y-65504761D01*
X90600000Y-65542857D01*
X90561905Y-65619047D01*
X90561905Y-65771428D01*
X90600000Y-65847619D01*
X90638095Y-65885714D01*
X90714286Y-65923809D01*
X90904762Y-65923809D01*
X90980952Y-65885714D01*
X91019048Y-65847619D01*
X91057143Y-65771428D01*
X91057143Y-65619047D01*
X91019048Y-65542857D01*
X90980952Y-65504761D01*
X90904762Y-65466666D01*
X30590476Y-128361905D02*
X30590476Y-127561905D01*
X30857143Y-128133333D01*
X31123810Y-127561905D01*
X31123810Y-128361905D01*
X31504762Y-128361905D02*
X31504762Y-127561905D01*
X31771429Y-128133333D01*
X32038096Y-127561905D01*
X32038096Y-128361905D01*
X32419048Y-127561905D02*
X32419048Y-128209524D01*
X32457143Y-128285714D01*
X32495239Y-128323810D01*
X32571429Y-128361905D01*
X32723810Y-128361905D01*
X32800001Y-128323810D01*
X32838096Y-128285714D01*
X32876191Y-128209524D01*
X32876191Y-127561905D01*
X33257143Y-128361905D02*
X33257143Y-127561905D01*
X33714286Y-128361905D01*
X33714286Y-127561905D01*
X34057143Y-127638095D02*
X34095238Y-127600000D01*
X34171429Y-127561905D01*
X34361905Y-127561905D01*
X34438095Y-127600000D01*
X34476191Y-127638095D01*
X34514286Y-127714286D01*
X34514286Y-127790476D01*
X34476191Y-127904762D01*
X34019048Y-128361905D01*
X34514286Y-128361905D01*
X34819048Y-127638095D02*
X34857143Y-127600000D01*
X34933334Y-127561905D01*
X35123810Y-127561905D01*
X35200000Y-127600000D01*
X35238096Y-127638095D01*
X35276191Y-127714286D01*
X35276191Y-127790476D01*
X35238096Y-127904762D01*
X34780953Y-128361905D01*
X35276191Y-128361905D01*
X35542858Y-127561905D02*
X36038096Y-127561905D01*
X35771429Y-127866667D01*
X35885715Y-127866667D01*
X35961905Y-127904762D01*
X36000001Y-127942857D01*
X36038096Y-128019048D01*
X36038096Y-128209524D01*
X36000001Y-128285714D01*
X35961905Y-128323810D01*
X35885715Y-128361905D01*
X35657143Y-128361905D01*
X35580953Y-128323810D01*
X35542858Y-128285714D01*
X36800001Y-128361905D02*
X36342858Y-128361905D01*
X36571429Y-128361905D02*
X36571429Y-127561905D01*
X36495239Y-127676190D01*
X36419048Y-127752381D01*
X36342858Y-127790476D01*
X37523811Y-128361905D02*
X37142858Y-128361905D01*
X37142858Y-127561905D01*
X35590476Y-82861905D02*
X35590476Y-82061905D01*
X35857143Y-82633333D01*
X36123810Y-82061905D01*
X36123810Y-82861905D01*
X36504762Y-82861905D02*
X36504762Y-82061905D01*
X36771429Y-82633333D01*
X37038096Y-82061905D01*
X37038096Y-82861905D01*
X37419048Y-82061905D02*
X37419048Y-82709524D01*
X37457143Y-82785714D01*
X37495239Y-82823810D01*
X37571429Y-82861905D01*
X37723810Y-82861905D01*
X37800001Y-82823810D01*
X37838096Y-82785714D01*
X37876191Y-82709524D01*
X37876191Y-82061905D01*
X38257143Y-82861905D02*
X38257143Y-82061905D01*
X38714286Y-82861905D01*
X38714286Y-82061905D01*
X39057143Y-82138095D02*
X39095238Y-82100000D01*
X39171429Y-82061905D01*
X39361905Y-82061905D01*
X39438095Y-82100000D01*
X39476191Y-82138095D01*
X39514286Y-82214286D01*
X39514286Y-82290476D01*
X39476191Y-82404762D01*
X39019048Y-82861905D01*
X39514286Y-82861905D01*
X39819048Y-82138095D02*
X39857143Y-82100000D01*
X39933334Y-82061905D01*
X40123810Y-82061905D01*
X40200000Y-82100000D01*
X40238096Y-82138095D01*
X40276191Y-82214286D01*
X40276191Y-82290476D01*
X40238096Y-82404762D01*
X39780953Y-82861905D01*
X40276191Y-82861905D01*
X40542858Y-82061905D02*
X41038096Y-82061905D01*
X40771429Y-82366667D01*
X40885715Y-82366667D01*
X40961905Y-82404762D01*
X41000001Y-82442857D01*
X41038096Y-82519048D01*
X41038096Y-82709524D01*
X41000001Y-82785714D01*
X40961905Y-82823810D01*
X40885715Y-82861905D01*
X40657143Y-82861905D01*
X40580953Y-82823810D01*
X40542858Y-82785714D01*
X41800001Y-82861905D02*
X41342858Y-82861905D01*
X41571429Y-82861905D02*
X41571429Y-82061905D01*
X41495239Y-82176190D01*
X41419048Y-82252381D01*
X41342858Y-82290476D01*
X42523811Y-82861905D02*
X42142858Y-82861905D01*
X42142858Y-82061905D01*
X53361905Y-77952382D02*
X52561905Y-77952382D01*
X53133333Y-77685715D01*
X52561905Y-77419048D01*
X53361905Y-77419048D01*
X53361905Y-77038096D02*
X52561905Y-77038096D01*
X53133333Y-76771429D01*
X52561905Y-76504762D01*
X53361905Y-76504762D01*
X52942857Y-75857143D02*
X52980952Y-75742857D01*
X53019048Y-75704762D01*
X53095238Y-75666667D01*
X53209524Y-75666667D01*
X53285714Y-75704762D01*
X53323810Y-75742857D01*
X53361905Y-75819048D01*
X53361905Y-76123810D01*
X52561905Y-76123810D01*
X52561905Y-75857143D01*
X52600000Y-75780953D01*
X52638095Y-75742857D01*
X52714286Y-75704762D01*
X52790476Y-75704762D01*
X52866667Y-75742857D01*
X52904762Y-75780953D01*
X52942857Y-75857143D01*
X52942857Y-76123810D01*
X52561905Y-75438096D02*
X52561905Y-74980953D01*
X53361905Y-75209524D02*
X52561905Y-75209524D01*
X52561905Y-74790476D02*
X52561905Y-74295238D01*
X52866667Y-74561905D01*
X52866667Y-74447619D01*
X52904762Y-74371429D01*
X52942857Y-74333333D01*
X53019048Y-74295238D01*
X53209524Y-74295238D01*
X53285714Y-74333333D01*
X53323810Y-74371429D01*
X53361905Y-74447619D01*
X53361905Y-74676191D01*
X53323810Y-74752381D01*
X53285714Y-74790476D01*
X53361905Y-73914286D02*
X53361905Y-73761905D01*
X53323810Y-73685714D01*
X53285714Y-73647619D01*
X53171429Y-73571428D01*
X53019048Y-73533333D01*
X52714286Y-73533333D01*
X52638095Y-73571428D01*
X52600000Y-73609524D01*
X52561905Y-73685714D01*
X52561905Y-73838095D01*
X52600000Y-73914286D01*
X52638095Y-73952381D01*
X52714286Y-73990476D01*
X52904762Y-73990476D01*
X52980952Y-73952381D01*
X53019048Y-73914286D01*
X53057143Y-73838095D01*
X53057143Y-73685714D01*
X53019048Y-73609524D01*
X52980952Y-73571428D01*
X52904762Y-73533333D01*
X52561905Y-73038095D02*
X52561905Y-72961904D01*
X52600000Y-72885714D01*
X52638095Y-72847619D01*
X52714286Y-72809523D01*
X52866667Y-72771428D01*
X53057143Y-72771428D01*
X53209524Y-72809523D01*
X53285714Y-72847619D01*
X53323810Y-72885714D01*
X53361905Y-72961904D01*
X53361905Y-73038095D01*
X53323810Y-73114285D01*
X53285714Y-73152381D01*
X53209524Y-73190476D01*
X53057143Y-73228571D01*
X52866667Y-73228571D01*
X52714286Y-73190476D01*
X52638095Y-73152381D01*
X52600000Y-73114285D01*
X52561905Y-73038095D01*
X52828571Y-72085714D02*
X53361905Y-72085714D01*
X52523810Y-72276190D02*
X53095238Y-72466666D01*
X53095238Y-71971428D01*
X56861905Y-77952382D02*
X56061905Y-77952382D01*
X56633333Y-77685715D01*
X56061905Y-77419048D01*
X56861905Y-77419048D01*
X56861905Y-77038096D02*
X56061905Y-77038096D01*
X56633333Y-76771429D01*
X56061905Y-76504762D01*
X56861905Y-76504762D01*
X56442857Y-75857143D02*
X56480952Y-75742857D01*
X56519048Y-75704762D01*
X56595238Y-75666667D01*
X56709524Y-75666667D01*
X56785714Y-75704762D01*
X56823810Y-75742857D01*
X56861905Y-75819048D01*
X56861905Y-76123810D01*
X56061905Y-76123810D01*
X56061905Y-75857143D01*
X56100000Y-75780953D01*
X56138095Y-75742857D01*
X56214286Y-75704762D01*
X56290476Y-75704762D01*
X56366667Y-75742857D01*
X56404762Y-75780953D01*
X56442857Y-75857143D01*
X56442857Y-76123810D01*
X56061905Y-75438096D02*
X56061905Y-74980953D01*
X56861905Y-75209524D02*
X56061905Y-75209524D01*
X56061905Y-74790476D02*
X56061905Y-74295238D01*
X56366667Y-74561905D01*
X56366667Y-74447619D01*
X56404762Y-74371429D01*
X56442857Y-74333333D01*
X56519048Y-74295238D01*
X56709524Y-74295238D01*
X56785714Y-74333333D01*
X56823810Y-74371429D01*
X56861905Y-74447619D01*
X56861905Y-74676191D01*
X56823810Y-74752381D01*
X56785714Y-74790476D01*
X56861905Y-73914286D02*
X56861905Y-73761905D01*
X56823810Y-73685714D01*
X56785714Y-73647619D01*
X56671429Y-73571428D01*
X56519048Y-73533333D01*
X56214286Y-73533333D01*
X56138095Y-73571428D01*
X56100000Y-73609524D01*
X56061905Y-73685714D01*
X56061905Y-73838095D01*
X56100000Y-73914286D01*
X56138095Y-73952381D01*
X56214286Y-73990476D01*
X56404762Y-73990476D01*
X56480952Y-73952381D01*
X56519048Y-73914286D01*
X56557143Y-73838095D01*
X56557143Y-73685714D01*
X56519048Y-73609524D01*
X56480952Y-73571428D01*
X56404762Y-73533333D01*
X56061905Y-73038095D02*
X56061905Y-72961904D01*
X56100000Y-72885714D01*
X56138095Y-72847619D01*
X56214286Y-72809523D01*
X56366667Y-72771428D01*
X56557143Y-72771428D01*
X56709524Y-72809523D01*
X56785714Y-72847619D01*
X56823810Y-72885714D01*
X56861905Y-72961904D01*
X56861905Y-73038095D01*
X56823810Y-73114285D01*
X56785714Y-73152381D01*
X56709524Y-73190476D01*
X56557143Y-73228571D01*
X56366667Y-73228571D01*
X56214286Y-73190476D01*
X56138095Y-73152381D01*
X56100000Y-73114285D01*
X56061905Y-73038095D01*
X56061905Y-72085714D02*
X56061905Y-72238095D01*
X56100000Y-72314285D01*
X56138095Y-72352380D01*
X56252381Y-72428571D01*
X56404762Y-72466666D01*
X56709524Y-72466666D01*
X56785714Y-72428571D01*
X56823810Y-72390476D01*
X56861905Y-72314285D01*
X56861905Y-72161904D01*
X56823810Y-72085714D01*
X56785714Y-72047618D01*
X56709524Y-72009523D01*
X56519048Y-72009523D01*
X56442857Y-72047618D01*
X56404762Y-72085714D01*
X56366667Y-72161904D01*
X56366667Y-72314285D01*
X56404762Y-72390476D01*
X56442857Y-72428571D01*
X56519048Y-72466666D01*
X68361905Y-68452382D02*
X67561905Y-68452382D01*
X68133333Y-68185715D01*
X67561905Y-67919048D01*
X68361905Y-67919048D01*
X68361905Y-67538096D02*
X67561905Y-67538096D01*
X68133333Y-67271429D01*
X67561905Y-67004762D01*
X68361905Y-67004762D01*
X67942857Y-66357143D02*
X67980952Y-66242857D01*
X68019048Y-66204762D01*
X68095238Y-66166667D01*
X68209524Y-66166667D01*
X68285714Y-66204762D01*
X68323810Y-66242857D01*
X68361905Y-66319048D01*
X68361905Y-66623810D01*
X67561905Y-66623810D01*
X67561905Y-66357143D01*
X67600000Y-66280953D01*
X67638095Y-66242857D01*
X67714286Y-66204762D01*
X67790476Y-66204762D01*
X67866667Y-66242857D01*
X67904762Y-66280953D01*
X67942857Y-66357143D01*
X67942857Y-66623810D01*
X67561905Y-65938096D02*
X67561905Y-65480953D01*
X68361905Y-65709524D02*
X67561905Y-65709524D01*
X67561905Y-65290476D02*
X67561905Y-64795238D01*
X67866667Y-65061905D01*
X67866667Y-64947619D01*
X67904762Y-64871429D01*
X67942857Y-64833333D01*
X68019048Y-64795238D01*
X68209524Y-64795238D01*
X68285714Y-64833333D01*
X68323810Y-64871429D01*
X68361905Y-64947619D01*
X68361905Y-65176191D01*
X68323810Y-65252381D01*
X68285714Y-65290476D01*
X68361905Y-64414286D02*
X68361905Y-64261905D01*
X68323810Y-64185714D01*
X68285714Y-64147619D01*
X68171429Y-64071428D01*
X68019048Y-64033333D01*
X67714286Y-64033333D01*
X67638095Y-64071428D01*
X67600000Y-64109524D01*
X67561905Y-64185714D01*
X67561905Y-64338095D01*
X67600000Y-64414286D01*
X67638095Y-64452381D01*
X67714286Y-64490476D01*
X67904762Y-64490476D01*
X67980952Y-64452381D01*
X68019048Y-64414286D01*
X68057143Y-64338095D01*
X68057143Y-64185714D01*
X68019048Y-64109524D01*
X67980952Y-64071428D01*
X67904762Y-64033333D01*
X67561905Y-63538095D02*
X67561905Y-63461904D01*
X67600000Y-63385714D01*
X67638095Y-63347619D01*
X67714286Y-63309523D01*
X67866667Y-63271428D01*
X68057143Y-63271428D01*
X68209524Y-63309523D01*
X68285714Y-63347619D01*
X68323810Y-63385714D01*
X68361905Y-63461904D01*
X68361905Y-63538095D01*
X68323810Y-63614285D01*
X68285714Y-63652381D01*
X68209524Y-63690476D01*
X68057143Y-63728571D01*
X67866667Y-63728571D01*
X67714286Y-63690476D01*
X67638095Y-63652381D01*
X67600000Y-63614285D01*
X67561905Y-63538095D01*
X67828571Y-62585714D02*
X68361905Y-62585714D01*
X67523810Y-62776190D02*
X68095238Y-62966666D01*
X68095238Y-62471428D01*
X192311905Y-126221428D02*
X192311905Y-125726190D01*
X192616667Y-125992857D01*
X192616667Y-125878571D01*
X192654762Y-125802381D01*
X192692857Y-125764285D01*
X192769048Y-125726190D01*
X192959524Y-125726190D01*
X193035714Y-125764285D01*
X193073810Y-125802381D01*
X193111905Y-125878571D01*
X193111905Y-126107143D01*
X193073810Y-126183333D01*
X193035714Y-126221428D01*
X193111905Y-125383333D02*
X192311905Y-125383333D01*
X192807143Y-125307142D02*
X193111905Y-125078571D01*
X192578571Y-125078571D02*
X192883333Y-125383333D01*
X192311905Y-124811904D02*
X192311905Y-124316666D01*
X192616667Y-124583333D01*
X192616667Y-124469047D01*
X192654762Y-124392857D01*
X192692857Y-124354761D01*
X192769048Y-124316666D01*
X192959524Y-124316666D01*
X193035714Y-124354761D01*
X193073810Y-124392857D01*
X193111905Y-124469047D01*
X193111905Y-124697619D01*
X193073810Y-124773809D01*
X193035714Y-124811904D01*
X212311905Y-125971428D02*
X212311905Y-125476190D01*
X212616667Y-125742857D01*
X212616667Y-125628571D01*
X212654762Y-125552381D01*
X212692857Y-125514285D01*
X212769048Y-125476190D01*
X212959524Y-125476190D01*
X213035714Y-125514285D01*
X213073810Y-125552381D01*
X213111905Y-125628571D01*
X213111905Y-125857143D01*
X213073810Y-125933333D01*
X213035714Y-125971428D01*
X213111905Y-125133333D02*
X212311905Y-125133333D01*
X212807143Y-125057142D02*
X213111905Y-124828571D01*
X212578571Y-124828571D02*
X212883333Y-125133333D01*
X212311905Y-124561904D02*
X212311905Y-124066666D01*
X212616667Y-124333333D01*
X212616667Y-124219047D01*
X212654762Y-124142857D01*
X212692857Y-124104761D01*
X212769048Y-124066666D01*
X212959524Y-124066666D01*
X213035714Y-124104761D01*
X213073810Y-124142857D01*
X213111905Y-124219047D01*
X213111905Y-124447619D01*
X213073810Y-124523809D01*
X213035714Y-124561904D01*
X202028572Y-138561905D02*
X202523810Y-138561905D01*
X202257143Y-138866667D01*
X202371429Y-138866667D01*
X202447619Y-138904762D01*
X202485715Y-138942857D01*
X202523810Y-139019048D01*
X202523810Y-139209524D01*
X202485715Y-139285714D01*
X202447619Y-139323810D01*
X202371429Y-139361905D01*
X202142857Y-139361905D01*
X202066667Y-139323810D01*
X202028572Y-139285714D01*
X202866667Y-139361905D02*
X202866667Y-138561905D01*
X202942858Y-139057143D02*
X203171429Y-139361905D01*
X203171429Y-138828571D02*
X202866667Y-139133333D01*
X203438096Y-138561905D02*
X203933334Y-138561905D01*
X203666667Y-138866667D01*
X203780953Y-138866667D01*
X203857143Y-138904762D01*
X203895239Y-138942857D01*
X203933334Y-139019048D01*
X203933334Y-139209524D01*
X203895239Y-139285714D01*
X203857143Y-139323810D01*
X203780953Y-139361905D01*
X203552381Y-139361905D01*
X203476191Y-139323810D01*
X203438096Y-139285714D01*
X162278572Y-138561905D02*
X162773810Y-138561905D01*
X162507143Y-138866667D01*
X162621429Y-138866667D01*
X162697619Y-138904762D01*
X162735715Y-138942857D01*
X162773810Y-139019048D01*
X162773810Y-139209524D01*
X162735715Y-139285714D01*
X162697619Y-139323810D01*
X162621429Y-139361905D01*
X162392857Y-139361905D01*
X162316667Y-139323810D01*
X162278572Y-139285714D01*
X163116667Y-139361905D02*
X163116667Y-138561905D01*
X163192858Y-139057143D02*
X163421429Y-139361905D01*
X163421429Y-138828571D02*
X163116667Y-139133333D01*
X163688096Y-138561905D02*
X164183334Y-138561905D01*
X163916667Y-138866667D01*
X164030953Y-138866667D01*
X164107143Y-138904762D01*
X164145239Y-138942857D01*
X164183334Y-139019048D01*
X164183334Y-139209524D01*
X164145239Y-139285714D01*
X164107143Y-139323810D01*
X164030953Y-139361905D01*
X163802381Y-139361905D01*
X163726191Y-139323810D01*
X163688096Y-139285714D01*
X182278572Y-138561905D02*
X182773810Y-138561905D01*
X182507143Y-138866667D01*
X182621429Y-138866667D01*
X182697619Y-138904762D01*
X182735715Y-138942857D01*
X182773810Y-139019048D01*
X182773810Y-139209524D01*
X182735715Y-139285714D01*
X182697619Y-139323810D01*
X182621429Y-139361905D01*
X182392857Y-139361905D01*
X182316667Y-139323810D01*
X182278572Y-139285714D01*
X183116667Y-139361905D02*
X183116667Y-138561905D01*
X183192858Y-139057143D02*
X183421429Y-139361905D01*
X183421429Y-138828571D02*
X183116667Y-139133333D01*
X183688096Y-138561905D02*
X184183334Y-138561905D01*
X183916667Y-138866667D01*
X184030953Y-138866667D01*
X184107143Y-138904762D01*
X184145239Y-138942857D01*
X184183334Y-139019048D01*
X184183334Y-139209524D01*
X184145239Y-139285714D01*
X184107143Y-139323810D01*
X184030953Y-139361905D01*
X183802381Y-139361905D01*
X183726191Y-139323810D01*
X183688096Y-139285714D01*
X142278572Y-138561905D02*
X142773810Y-138561905D01*
X142507143Y-138866667D01*
X142621429Y-138866667D01*
X142697619Y-138904762D01*
X142735715Y-138942857D01*
X142773810Y-139019048D01*
X142773810Y-139209524D01*
X142735715Y-139285714D01*
X142697619Y-139323810D01*
X142621429Y-139361905D01*
X142392857Y-139361905D01*
X142316667Y-139323810D01*
X142278572Y-139285714D01*
X143116667Y-139361905D02*
X143116667Y-138561905D01*
X143192858Y-139057143D02*
X143421429Y-139361905D01*
X143421429Y-138828571D02*
X143116667Y-139133333D01*
X143688096Y-138561905D02*
X144183334Y-138561905D01*
X143916667Y-138866667D01*
X144030953Y-138866667D01*
X144107143Y-138904762D01*
X144145239Y-138942857D01*
X144183334Y-139019048D01*
X144183334Y-139209524D01*
X144145239Y-139285714D01*
X144107143Y-139323810D01*
X144030953Y-139361905D01*
X143802381Y-139361905D01*
X143726191Y-139323810D01*
X143688096Y-139285714D01*
X122028572Y-138561905D02*
X122523810Y-138561905D01*
X122257143Y-138866667D01*
X122371429Y-138866667D01*
X122447619Y-138904762D01*
X122485715Y-138942857D01*
X122523810Y-139019048D01*
X122523810Y-139209524D01*
X122485715Y-139285714D01*
X122447619Y-139323810D01*
X122371429Y-139361905D01*
X122142857Y-139361905D01*
X122066667Y-139323810D01*
X122028572Y-139285714D01*
X122866667Y-139361905D02*
X122866667Y-138561905D01*
X122942858Y-139057143D02*
X123171429Y-139361905D01*
X123171429Y-138828571D02*
X122866667Y-139133333D01*
X123438096Y-138561905D02*
X123933334Y-138561905D01*
X123666667Y-138866667D01*
X123780953Y-138866667D01*
X123857143Y-138904762D01*
X123895239Y-138942857D01*
X123933334Y-139019048D01*
X123933334Y-139209524D01*
X123895239Y-139285714D01*
X123857143Y-139323810D01*
X123780953Y-139361905D01*
X123552381Y-139361905D01*
X123476191Y-139323810D01*
X123438096Y-139285714D01*
X102278572Y-138561905D02*
X102773810Y-138561905D01*
X102507143Y-138866667D01*
X102621429Y-138866667D01*
X102697619Y-138904762D01*
X102735715Y-138942857D01*
X102773810Y-139019048D01*
X102773810Y-139209524D01*
X102735715Y-139285714D01*
X102697619Y-139323810D01*
X102621429Y-139361905D01*
X102392857Y-139361905D01*
X102316667Y-139323810D01*
X102278572Y-139285714D01*
X103116667Y-139361905D02*
X103116667Y-138561905D01*
X103192858Y-139057143D02*
X103421429Y-139361905D01*
X103421429Y-138828571D02*
X103116667Y-139133333D01*
X103688096Y-138561905D02*
X104183334Y-138561905D01*
X103916667Y-138866667D01*
X104030953Y-138866667D01*
X104107143Y-138904762D01*
X104145239Y-138942857D01*
X104183334Y-139019048D01*
X104183334Y-139209524D01*
X104145239Y-139285714D01*
X104107143Y-139323810D01*
X104030953Y-139361905D01*
X103802381Y-139361905D01*
X103726191Y-139323810D01*
X103688096Y-139285714D01*
X99771429Y-62361905D02*
X99314286Y-62361905D01*
X99542857Y-62361905D02*
X99542857Y-61561905D01*
X99466667Y-61676190D01*
X99390476Y-61752381D01*
X99314286Y-61790476D01*
X100114286Y-62361905D02*
X100114286Y-61561905D01*
X100380953Y-62133333D01*
X100647620Y-61561905D01*
X100647620Y-62361905D01*
X33066667Y-123888095D02*
X33104762Y-123850000D01*
X33180953Y-123811905D01*
X33371429Y-123811905D01*
X33447619Y-123850000D01*
X33485715Y-123888095D01*
X33523810Y-123964286D01*
X33523810Y-124040476D01*
X33485715Y-124154762D01*
X33028572Y-124611905D01*
X33523810Y-124611905D01*
X33828572Y-123888095D02*
X33866667Y-123850000D01*
X33942858Y-123811905D01*
X34133334Y-123811905D01*
X34209524Y-123850000D01*
X34247620Y-123888095D01*
X34285715Y-123964286D01*
X34285715Y-124040476D01*
X34247620Y-124154762D01*
X33790477Y-124611905D01*
X34285715Y-124611905D01*
X34628572Y-124611905D02*
X34628572Y-123811905D01*
X34704763Y-124307143D02*
X34933334Y-124611905D01*
X34933334Y-124078571D02*
X34628572Y-124383333D01*
X102521429Y-62361905D02*
X102064286Y-62361905D01*
X102292857Y-62361905D02*
X102292857Y-61561905D01*
X102216667Y-61676190D01*
X102140476Y-61752381D01*
X102064286Y-61790476D01*
X102864286Y-62361905D02*
X102864286Y-61561905D01*
X103130953Y-62133333D01*
X103397620Y-61561905D01*
X103397620Y-62361905D01*
X33066667Y-125138095D02*
X33104762Y-125100000D01*
X33180953Y-125061905D01*
X33371429Y-125061905D01*
X33447619Y-125100000D01*
X33485715Y-125138095D01*
X33523810Y-125214286D01*
X33523810Y-125290476D01*
X33485715Y-125404762D01*
X33028572Y-125861905D01*
X33523810Y-125861905D01*
X33828572Y-125138095D02*
X33866667Y-125100000D01*
X33942858Y-125061905D01*
X34133334Y-125061905D01*
X34209524Y-125100000D01*
X34247620Y-125138095D01*
X34285715Y-125214286D01*
X34285715Y-125290476D01*
X34247620Y-125404762D01*
X33790477Y-125861905D01*
X34285715Y-125861905D01*
X34628572Y-125861905D02*
X34628572Y-125061905D01*
X34704763Y-125557143D02*
X34933334Y-125861905D01*
X34933334Y-125328571D02*
X34628572Y-125633333D01*
X33316667Y-81138095D02*
X33354762Y-81100000D01*
X33430953Y-81061905D01*
X33621429Y-81061905D01*
X33697619Y-81100000D01*
X33735715Y-81138095D01*
X33773810Y-81214286D01*
X33773810Y-81290476D01*
X33735715Y-81404762D01*
X33278572Y-81861905D01*
X33773810Y-81861905D01*
X34078572Y-81138095D02*
X34116667Y-81100000D01*
X34192858Y-81061905D01*
X34383334Y-81061905D01*
X34459524Y-81100000D01*
X34497620Y-81138095D01*
X34535715Y-81214286D01*
X34535715Y-81290476D01*
X34497620Y-81404762D01*
X34040477Y-81861905D01*
X34535715Y-81861905D01*
X34878572Y-81861905D02*
X34878572Y-81061905D01*
X34954763Y-81557143D02*
X35183334Y-81861905D01*
X35183334Y-81328571D02*
X34878572Y-81633333D01*
X38521429Y-87111905D02*
X38064286Y-87111905D01*
X38292857Y-87111905D02*
X38292857Y-86311905D01*
X38216667Y-86426190D01*
X38140476Y-86502381D01*
X38064286Y-86540476D01*
X38864286Y-87111905D02*
X38864286Y-86311905D01*
X39130953Y-86883333D01*
X39397620Y-86311905D01*
X39397620Y-87111905D01*
X37816666Y-128078571D02*
X37816666Y-128611905D01*
X37626190Y-127773810D02*
X37435714Y-128345238D01*
X37930952Y-128345238D01*
X38159524Y-127811905D02*
X38692857Y-127811905D01*
X38350000Y-128611905D01*
X39378572Y-127811905D02*
X38997619Y-127811905D01*
X38959524Y-128192857D01*
X38997619Y-128154762D01*
X39073810Y-128116667D01*
X39264286Y-128116667D01*
X39340476Y-128154762D01*
X39378572Y-128192857D01*
X39416667Y-128269048D01*
X39416667Y-128459524D01*
X39378572Y-128535714D01*
X39340476Y-128573810D01*
X39264286Y-128611905D01*
X39073810Y-128611905D01*
X38997619Y-128573810D01*
X38959524Y-128535714D01*
X39759524Y-128611905D02*
X39759524Y-127811905D01*
X39835715Y-128307143D02*
X40064286Y-128611905D01*
X40064286Y-128078571D02*
X39759524Y-128383333D01*
X36361905Y-134488096D02*
X36361905Y-134335715D01*
X36323810Y-134259524D01*
X36285714Y-134221429D01*
X36171429Y-134145238D01*
X36019048Y-134107143D01*
X35714286Y-134107143D01*
X35638095Y-134145238D01*
X35600000Y-134183334D01*
X35561905Y-134259524D01*
X35561905Y-134411905D01*
X35600000Y-134488096D01*
X35638095Y-134526191D01*
X35714286Y-134564286D01*
X35904762Y-134564286D01*
X35980952Y-134526191D01*
X36019048Y-134488096D01*
X36057143Y-134411905D01*
X36057143Y-134259524D01*
X36019048Y-134183334D01*
X35980952Y-134145238D01*
X35904762Y-134107143D01*
X36361905Y-133764286D02*
X35561905Y-133764286D01*
X36057143Y-133688095D02*
X36361905Y-133459524D01*
X35828571Y-133459524D02*
X36133333Y-133764286D01*
X35561905Y-133192857D02*
X35561905Y-132659524D01*
X36361905Y-133002381D01*
X35561905Y-132011905D02*
X35561905Y-132164286D01*
X35600000Y-132240476D01*
X35638095Y-132278571D01*
X35752381Y-132354762D01*
X35904762Y-132392857D01*
X36209524Y-132392857D01*
X36285714Y-132354762D01*
X36323810Y-132316667D01*
X36361905Y-132240476D01*
X36361905Y-132088095D01*
X36323810Y-132011905D01*
X36285714Y-131973809D01*
X36209524Y-131935714D01*
X36019048Y-131935714D01*
X35942857Y-131973809D01*
X35904762Y-132011905D01*
X35866667Y-132088095D01*
X35866667Y-132240476D01*
X35904762Y-132316667D01*
X35942857Y-132354762D01*
X36019048Y-132392857D01*
X38397619Y-92561905D02*
X38892857Y-92561905D01*
X38626190Y-92866667D01*
X38740476Y-92866667D01*
X38816666Y-92904762D01*
X38854762Y-92942857D01*
X38892857Y-93019048D01*
X38892857Y-93209524D01*
X38854762Y-93285714D01*
X38816666Y-93323810D01*
X38740476Y-93361905D01*
X38511904Y-93361905D01*
X38435714Y-93323810D01*
X38397619Y-93285714D01*
X39235714Y-93361905D02*
X39235714Y-92561905D01*
X39311905Y-93057143D02*
X39540476Y-93361905D01*
X39540476Y-92828571D02*
X39235714Y-93133333D01*
X39807143Y-92561905D02*
X40302381Y-92561905D01*
X40035714Y-92866667D01*
X40150000Y-92866667D01*
X40226190Y-92904762D01*
X40264286Y-92942857D01*
X40302381Y-93019048D01*
X40302381Y-93209524D01*
X40264286Y-93285714D01*
X40226190Y-93323810D01*
X40150000Y-93361905D01*
X39921428Y-93361905D01*
X39845238Y-93323810D01*
X39807143Y-93285714D01*
X40607143Y-92638095D02*
X40645238Y-92600000D01*
X40721429Y-92561905D01*
X40911905Y-92561905D01*
X40988095Y-92600000D01*
X41026191Y-92638095D01*
X41064286Y-92714286D01*
X41064286Y-92790476D01*
X41026191Y-92904762D01*
X40569048Y-93361905D01*
X41064286Y-93361905D01*
X37892857Y-89611905D02*
X37435714Y-89611905D01*
X37664285Y-89611905D02*
X37664285Y-88811905D01*
X37588095Y-88926190D01*
X37511904Y-89002381D01*
X37435714Y-89040476D01*
X38388095Y-88811905D02*
X38464286Y-88811905D01*
X38540476Y-88850000D01*
X38578571Y-88888095D01*
X38616667Y-88964286D01*
X38654762Y-89116667D01*
X38654762Y-89307143D01*
X38616667Y-89459524D01*
X38578571Y-89535714D01*
X38540476Y-89573810D01*
X38464286Y-89611905D01*
X38388095Y-89611905D01*
X38311905Y-89573810D01*
X38273809Y-89535714D01*
X38235714Y-89459524D01*
X38197619Y-89307143D01*
X38197619Y-89116667D01*
X38235714Y-88964286D01*
X38273809Y-88888095D01*
X38311905Y-88850000D01*
X38388095Y-88811905D01*
X38997619Y-89611905D02*
X38997619Y-88811905D01*
X39073810Y-89307143D02*
X39302381Y-89611905D01*
X39302381Y-89078571D02*
X38997619Y-89383333D01*
X39569048Y-88811905D02*
X40102381Y-88811905D01*
X39759524Y-89611905D01*
X36361905Y-131476190D02*
X36361905Y-131933333D01*
X36361905Y-131704762D02*
X35561905Y-131704762D01*
X35676190Y-131780952D01*
X35752381Y-131857143D01*
X35790476Y-131933333D01*
X36361905Y-131133333D02*
X35561905Y-131133333D01*
X36057143Y-131057142D02*
X36361905Y-130828571D01*
X35828571Y-130828571D02*
X36133333Y-131133333D01*
X36361905Y-130066666D02*
X36361905Y-130523809D01*
X36361905Y-130295238D02*
X35561905Y-130295238D01*
X35676190Y-130371428D01*
X35752381Y-130447619D01*
X35790476Y-130523809D01*
X36642857Y-93361905D02*
X36185714Y-93361905D01*
X36414285Y-93361905D02*
X36414285Y-92561905D01*
X36338095Y-92676190D01*
X36261904Y-92752381D01*
X36185714Y-92790476D01*
X36985714Y-93361905D02*
X36985714Y-92561905D01*
X37061905Y-93057143D02*
X37290476Y-93361905D01*
X37290476Y-92828571D02*
X36985714Y-93133333D01*
X37671428Y-93361905D02*
X37823809Y-93361905D01*
X37900000Y-93323810D01*
X37938095Y-93285714D01*
X38014286Y-93171429D01*
X38052381Y-93019048D01*
X38052381Y-92714286D01*
X38014286Y-92638095D01*
X37976190Y-92600000D01*
X37900000Y-92561905D01*
X37747619Y-92561905D01*
X37671428Y-92600000D01*
X37633333Y-92638095D01*
X37595238Y-92714286D01*
X37595238Y-92904762D01*
X37633333Y-92980952D01*
X37671428Y-93019048D01*
X37747619Y-93057143D01*
X37900000Y-93057143D01*
X37976190Y-93019048D01*
X38014286Y-92980952D01*
X38052381Y-92904762D01*
X38814286Y-93361905D02*
X38357143Y-93361905D01*
X38585714Y-93361905D02*
X38585714Y-92561905D01*
X38509524Y-92676190D01*
X38433333Y-92752381D01*
X38357143Y-92790476D01*
X37588095Y-126904762D02*
X37511904Y-126866667D01*
X37473809Y-126828571D01*
X37435714Y-126752381D01*
X37435714Y-126714286D01*
X37473809Y-126638095D01*
X37511904Y-126600000D01*
X37588095Y-126561905D01*
X37740476Y-126561905D01*
X37816666Y-126600000D01*
X37854762Y-126638095D01*
X37892857Y-126714286D01*
X37892857Y-126752381D01*
X37854762Y-126828571D01*
X37816666Y-126866667D01*
X37740476Y-126904762D01*
X37588095Y-126904762D01*
X37511904Y-126942857D01*
X37473809Y-126980952D01*
X37435714Y-127057143D01*
X37435714Y-127209524D01*
X37473809Y-127285714D01*
X37511904Y-127323810D01*
X37588095Y-127361905D01*
X37740476Y-127361905D01*
X37816666Y-127323810D01*
X37854762Y-127285714D01*
X37892857Y-127209524D01*
X37892857Y-127057143D01*
X37854762Y-126980952D01*
X37816666Y-126942857D01*
X37740476Y-126904762D01*
X38235714Y-127361905D02*
X38235714Y-126561905D01*
X38311905Y-127057143D02*
X38540476Y-127361905D01*
X38540476Y-126828571D02*
X38235714Y-127133333D01*
X38997619Y-126904762D02*
X38921428Y-126866667D01*
X38883333Y-126828571D01*
X38845238Y-126752381D01*
X38845238Y-126714286D01*
X38883333Y-126638095D01*
X38921428Y-126600000D01*
X38997619Y-126561905D01*
X39150000Y-126561905D01*
X39226190Y-126600000D01*
X39264286Y-126638095D01*
X39302381Y-126714286D01*
X39302381Y-126752381D01*
X39264286Y-126828571D01*
X39226190Y-126866667D01*
X39150000Y-126904762D01*
X38997619Y-126904762D01*
X38921428Y-126942857D01*
X38883333Y-126980952D01*
X38845238Y-127057143D01*
X38845238Y-127209524D01*
X38883333Y-127285714D01*
X38921428Y-127323810D01*
X38997619Y-127361905D01*
X39150000Y-127361905D01*
X39226190Y-127323810D01*
X39264286Y-127285714D01*
X39302381Y-127209524D01*
X39302381Y-127057143D01*
X39264286Y-126980952D01*
X39226190Y-126942857D01*
X39150000Y-126904762D01*
X39569048Y-126561905D02*
X40102381Y-126561905D01*
X39759524Y-127361905D01*
X36892857Y-134111905D02*
X36435714Y-134111905D01*
X36664285Y-134111905D02*
X36664285Y-133311905D01*
X36588095Y-133426190D01*
X36511904Y-133502381D01*
X36435714Y-133540476D01*
X37273809Y-134111905D02*
X37426190Y-134111905D01*
X37502381Y-134073810D01*
X37540476Y-134035714D01*
X37616667Y-133921429D01*
X37654762Y-133769048D01*
X37654762Y-133464286D01*
X37616667Y-133388095D01*
X37578571Y-133350000D01*
X37502381Y-133311905D01*
X37350000Y-133311905D01*
X37273809Y-133350000D01*
X37235714Y-133388095D01*
X37197619Y-133464286D01*
X37197619Y-133654762D01*
X37235714Y-133730952D01*
X37273809Y-133769048D01*
X37350000Y-133807143D01*
X37502381Y-133807143D01*
X37578571Y-133769048D01*
X37616667Y-133730952D01*
X37654762Y-133654762D01*
X37997619Y-134111905D02*
X37997619Y-133311905D01*
X38073810Y-133807143D02*
X38302381Y-134111905D01*
X38302381Y-133578571D02*
X37997619Y-133883333D01*
X39064286Y-134111905D02*
X38607143Y-134111905D01*
X38835714Y-134111905D02*
X38835714Y-133311905D01*
X38759524Y-133426190D01*
X38683333Y-133502381D01*
X38607143Y-133540476D01*
X36185714Y-90138095D02*
X36223809Y-90100000D01*
X36300000Y-90061905D01*
X36490476Y-90061905D01*
X36566666Y-90100000D01*
X36604762Y-90138095D01*
X36642857Y-90214286D01*
X36642857Y-90290476D01*
X36604762Y-90404762D01*
X36147619Y-90861905D01*
X36642857Y-90861905D01*
X37366667Y-90061905D02*
X36985714Y-90061905D01*
X36947619Y-90442857D01*
X36985714Y-90404762D01*
X37061905Y-90366667D01*
X37252381Y-90366667D01*
X37328571Y-90404762D01*
X37366667Y-90442857D01*
X37404762Y-90519048D01*
X37404762Y-90709524D01*
X37366667Y-90785714D01*
X37328571Y-90823810D01*
X37252381Y-90861905D01*
X37061905Y-90861905D01*
X36985714Y-90823810D01*
X36947619Y-90785714D01*
X37747619Y-90861905D02*
X37747619Y-90061905D01*
X37823810Y-90557143D02*
X38052381Y-90861905D01*
X38052381Y-90328571D02*
X37747619Y-90633333D01*
X38776191Y-90061905D02*
X38395238Y-90061905D01*
X38357143Y-90442857D01*
X38395238Y-90404762D01*
X38471429Y-90366667D01*
X38661905Y-90366667D01*
X38738095Y-90404762D01*
X38776191Y-90442857D01*
X38814286Y-90519048D01*
X38814286Y-90709524D01*
X38776191Y-90785714D01*
X38738095Y-90823810D01*
X38661905Y-90861905D01*
X38471429Y-90861905D01*
X38395238Y-90823810D01*
X38357143Y-90785714D01*
X41066666Y-83578571D02*
X41066666Y-84111905D01*
X40876190Y-83273810D02*
X40685714Y-83845238D01*
X41180952Y-83845238D01*
X41523809Y-84111905D02*
X41676190Y-84111905D01*
X41752381Y-84073810D01*
X41790476Y-84035714D01*
X41866667Y-83921429D01*
X41904762Y-83769048D01*
X41904762Y-83464286D01*
X41866667Y-83388095D01*
X41828571Y-83350000D01*
X41752381Y-83311905D01*
X41600000Y-83311905D01*
X41523809Y-83350000D01*
X41485714Y-83388095D01*
X41447619Y-83464286D01*
X41447619Y-83654762D01*
X41485714Y-83730952D01*
X41523809Y-83769048D01*
X41600000Y-83807143D01*
X41752381Y-83807143D01*
X41828571Y-83769048D01*
X41866667Y-83730952D01*
X41904762Y-83654762D01*
X42247619Y-84111905D02*
X42247619Y-83311905D01*
X42323810Y-83807143D02*
X42552381Y-84111905D01*
X42552381Y-83578571D02*
X42247619Y-83883333D01*
X42933333Y-84111905D02*
X43085714Y-84111905D01*
X43161905Y-84073810D01*
X43200000Y-84035714D01*
X43276191Y-83921429D01*
X43314286Y-83769048D01*
X43314286Y-83464286D01*
X43276191Y-83388095D01*
X43238095Y-83350000D01*
X43161905Y-83311905D01*
X43009524Y-83311905D01*
X42933333Y-83350000D01*
X42895238Y-83388095D01*
X42857143Y-83464286D01*
X42857143Y-83654762D01*
X42895238Y-83730952D01*
X42933333Y-83769048D01*
X43009524Y-83807143D01*
X43161905Y-83807143D01*
X43238095Y-83769048D01*
X43276191Y-83730952D01*
X43314286Y-83654762D01*
X40685714Y-124888095D02*
X40723809Y-124850000D01*
X40800000Y-124811905D01*
X40990476Y-124811905D01*
X41066666Y-124850000D01*
X41104762Y-124888095D01*
X41142857Y-124964286D01*
X41142857Y-125040476D01*
X41104762Y-125154762D01*
X40647619Y-125611905D01*
X41142857Y-125611905D01*
X41409524Y-124811905D02*
X41942857Y-124811905D01*
X41600000Y-125611905D01*
X42247619Y-125611905D02*
X42247619Y-124811905D01*
X42323810Y-125307143D02*
X42552381Y-125611905D01*
X42552381Y-125078571D02*
X42247619Y-125383333D01*
X43238095Y-125078571D02*
X43238095Y-125611905D01*
X43047619Y-124773810D02*
X42857143Y-125345238D01*
X43352381Y-125345238D01*
X42897619Y-124811905D02*
X43392857Y-124811905D01*
X43126190Y-125116667D01*
X43240476Y-125116667D01*
X43316666Y-125154762D01*
X43354762Y-125192857D01*
X43392857Y-125269048D01*
X43392857Y-125459524D01*
X43354762Y-125535714D01*
X43316666Y-125573810D01*
X43240476Y-125611905D01*
X43011904Y-125611905D01*
X42935714Y-125573810D01*
X42897619Y-125535714D01*
X43735714Y-125611905D02*
X43735714Y-124811905D01*
X43811905Y-125307143D02*
X44040476Y-125611905D01*
X44040476Y-125078571D02*
X43735714Y-125383333D01*
X44535714Y-124811905D02*
X44611905Y-124811905D01*
X44688095Y-124850000D01*
X44726190Y-124888095D01*
X44764286Y-124964286D01*
X44802381Y-125116667D01*
X44802381Y-125307143D01*
X44764286Y-125459524D01*
X44726190Y-125535714D01*
X44688095Y-125573810D01*
X44611905Y-125611905D01*
X44535714Y-125611905D01*
X44459524Y-125573810D01*
X44421428Y-125535714D01*
X44383333Y-125459524D01*
X44345238Y-125307143D01*
X44345238Y-125116667D01*
X44383333Y-124964286D01*
X44421428Y-124888095D01*
X44459524Y-124850000D01*
X44535714Y-124811905D01*
X45183333Y-125611905D02*
X45335714Y-125611905D01*
X45411905Y-125573810D01*
X45450000Y-125535714D01*
X45526191Y-125421429D01*
X45564286Y-125269048D01*
X45564286Y-124964286D01*
X45526191Y-124888095D01*
X45488095Y-124850000D01*
X45411905Y-124811905D01*
X45259524Y-124811905D01*
X45183333Y-124850000D01*
X45145238Y-124888095D01*
X45107143Y-124964286D01*
X45107143Y-125154762D01*
X45145238Y-125230952D01*
X45183333Y-125269048D01*
X45259524Y-125307143D01*
X45411905Y-125307143D01*
X45488095Y-125269048D01*
X45526191Y-125230952D01*
X45564286Y-125154762D01*
X43354762Y-83311905D02*
X42973809Y-83311905D01*
X42935714Y-83692857D01*
X42973809Y-83654762D01*
X43050000Y-83616667D01*
X43240476Y-83616667D01*
X43316666Y-83654762D01*
X43354762Y-83692857D01*
X43392857Y-83769048D01*
X43392857Y-83959524D01*
X43354762Y-84035714D01*
X43316666Y-84073810D01*
X43240476Y-84111905D01*
X43050000Y-84111905D01*
X42973809Y-84073810D01*
X42935714Y-84035714D01*
X43735714Y-84111905D02*
X43735714Y-83311905D01*
X43811905Y-83807143D02*
X44040476Y-84111905D01*
X44040476Y-83578571D02*
X43735714Y-83883333D01*
X44726190Y-83311905D02*
X44573809Y-83311905D01*
X44497619Y-83350000D01*
X44459524Y-83388095D01*
X44383333Y-83502381D01*
X44345238Y-83654762D01*
X44345238Y-83959524D01*
X44383333Y-84035714D01*
X44421428Y-84073810D01*
X44497619Y-84111905D01*
X44650000Y-84111905D01*
X44726190Y-84073810D01*
X44764286Y-84035714D01*
X44802381Y-83959524D01*
X44802381Y-83769048D01*
X44764286Y-83692857D01*
X44726190Y-83654762D01*
X44650000Y-83616667D01*
X44497619Y-83616667D01*
X44421428Y-83654762D01*
X44383333Y-83692857D01*
X44345238Y-83769048D01*
X45107143Y-83388095D02*
X45145238Y-83350000D01*
X45221429Y-83311905D01*
X45411905Y-83311905D01*
X45488095Y-83350000D01*
X45526191Y-83388095D01*
X45564286Y-83464286D01*
X45564286Y-83540476D01*
X45526191Y-83654762D01*
X45069048Y-84111905D01*
X45564286Y-84111905D01*
X64361905Y-112895238D02*
X63980952Y-113161905D01*
X64361905Y-113352381D02*
X63561905Y-113352381D01*
X63561905Y-113047619D01*
X63600000Y-112971428D01*
X63638095Y-112933333D01*
X63714286Y-112895238D01*
X63828571Y-112895238D01*
X63904762Y-112933333D01*
X63942857Y-112971428D01*
X63980952Y-113047619D01*
X63980952Y-113352381D01*
X63561905Y-112400000D02*
X63561905Y-112323809D01*
X63600000Y-112247619D01*
X63638095Y-112209524D01*
X63714286Y-112171428D01*
X63866667Y-112133333D01*
X64057143Y-112133333D01*
X64209524Y-112171428D01*
X64285714Y-112209524D01*
X64323810Y-112247619D01*
X64361905Y-112323809D01*
X64361905Y-112400000D01*
X64323810Y-112476190D01*
X64285714Y-112514286D01*
X64209524Y-112552381D01*
X64057143Y-112590476D01*
X63866667Y-112590476D01*
X63714286Y-112552381D01*
X63638095Y-112514286D01*
X63600000Y-112476190D01*
X63561905Y-112400000D01*
X63561905Y-111638095D02*
X63561905Y-111561904D01*
X63600000Y-111485714D01*
X63638095Y-111447619D01*
X63714286Y-111409523D01*
X63866667Y-111371428D01*
X64057143Y-111371428D01*
X64209524Y-111409523D01*
X64285714Y-111447619D01*
X64323810Y-111485714D01*
X64361905Y-111561904D01*
X64361905Y-111638095D01*
X64323810Y-111714285D01*
X64285714Y-111752381D01*
X64209524Y-111790476D01*
X64057143Y-111828571D01*
X63866667Y-111828571D01*
X63714286Y-111790476D01*
X63638095Y-111752381D01*
X63600000Y-111714285D01*
X63561905Y-111638095D01*
X63561905Y-111104761D02*
X63561905Y-110571428D01*
X64361905Y-110914285D01*
X57361905Y-107895238D02*
X56980952Y-108161905D01*
X57361905Y-108352381D02*
X56561905Y-108352381D01*
X56561905Y-108047619D01*
X56600000Y-107971428D01*
X56638095Y-107933333D01*
X56714286Y-107895238D01*
X56828571Y-107895238D01*
X56904762Y-107933333D01*
X56942857Y-107971428D01*
X56980952Y-108047619D01*
X56980952Y-108352381D01*
X56561905Y-107400000D02*
X56561905Y-107323809D01*
X56600000Y-107247619D01*
X56638095Y-107209524D01*
X56714286Y-107171428D01*
X56866667Y-107133333D01*
X57057143Y-107133333D01*
X57209524Y-107171428D01*
X57285714Y-107209524D01*
X57323810Y-107247619D01*
X57361905Y-107323809D01*
X57361905Y-107400000D01*
X57323810Y-107476190D01*
X57285714Y-107514286D01*
X57209524Y-107552381D01*
X57057143Y-107590476D01*
X56866667Y-107590476D01*
X56714286Y-107552381D01*
X56638095Y-107514286D01*
X56600000Y-107476190D01*
X56561905Y-107400000D01*
X56561905Y-106638095D02*
X56561905Y-106561904D01*
X56600000Y-106485714D01*
X56638095Y-106447619D01*
X56714286Y-106409523D01*
X56866667Y-106371428D01*
X57057143Y-106371428D01*
X57209524Y-106409523D01*
X57285714Y-106447619D01*
X57323810Y-106485714D01*
X57361905Y-106561904D01*
X57361905Y-106638095D01*
X57323810Y-106714285D01*
X57285714Y-106752381D01*
X57209524Y-106790476D01*
X57057143Y-106828571D01*
X56866667Y-106828571D01*
X56714286Y-106790476D01*
X56638095Y-106752381D01*
X56600000Y-106714285D01*
X56561905Y-106638095D01*
X56904762Y-105914285D02*
X56866667Y-105990476D01*
X56828571Y-106028571D01*
X56752381Y-106066666D01*
X56714286Y-106066666D01*
X56638095Y-106028571D01*
X56600000Y-105990476D01*
X56561905Y-105914285D01*
X56561905Y-105761904D01*
X56600000Y-105685714D01*
X56638095Y-105647618D01*
X56714286Y-105609523D01*
X56752381Y-105609523D01*
X56828571Y-105647618D01*
X56866667Y-105685714D01*
X56904762Y-105761904D01*
X56904762Y-105914285D01*
X56942857Y-105990476D01*
X56980952Y-106028571D01*
X57057143Y-106066666D01*
X57209524Y-106066666D01*
X57285714Y-106028571D01*
X57323810Y-105990476D01*
X57361905Y-105914285D01*
X57361905Y-105761904D01*
X57323810Y-105685714D01*
X57285714Y-105647618D01*
X57209524Y-105609523D01*
X57057143Y-105609523D01*
X56980952Y-105647618D01*
X56942857Y-105685714D01*
X56904762Y-105761904D01*
X53023810Y-72361905D02*
X52566667Y-72361905D01*
X52795238Y-72361905D02*
X52795238Y-71561905D01*
X52719048Y-71676190D01*
X52642857Y-71752381D01*
X52566667Y-71790476D01*
X53519048Y-71561905D02*
X53595239Y-71561905D01*
X53671429Y-71600000D01*
X53709524Y-71638095D01*
X53747620Y-71714286D01*
X53785715Y-71866667D01*
X53785715Y-72057143D01*
X53747620Y-72209524D01*
X53709524Y-72285714D01*
X53671429Y-72323810D01*
X53595239Y-72361905D01*
X53519048Y-72361905D01*
X53442858Y-72323810D01*
X53404762Y-72285714D01*
X53366667Y-72209524D01*
X53328572Y-72057143D01*
X53328572Y-71866667D01*
X53366667Y-71714286D01*
X53404762Y-71638095D01*
X53442858Y-71600000D01*
X53519048Y-71561905D01*
X54128572Y-72361905D02*
X54128572Y-71561905D01*
X54204763Y-72057143D02*
X54433334Y-72361905D01*
X54433334Y-71828571D02*
X54128572Y-72133333D01*
X56890476Y-77828571D02*
X56890476Y-78361905D01*
X56700000Y-77523810D02*
X56509524Y-78095238D01*
X57004762Y-78095238D01*
X57233334Y-77561905D02*
X57766667Y-77561905D01*
X57423810Y-78361905D01*
X58223810Y-77561905D02*
X58300001Y-77561905D01*
X58376191Y-77600000D01*
X58414286Y-77638095D01*
X58452382Y-77714286D01*
X58490477Y-77866667D01*
X58490477Y-78057143D01*
X58452382Y-78209524D01*
X58414286Y-78285714D01*
X58376191Y-78323810D01*
X58300001Y-78361905D01*
X58223810Y-78361905D01*
X58147620Y-78323810D01*
X58109524Y-78285714D01*
X58071429Y-78209524D01*
X58033334Y-78057143D01*
X58033334Y-77866667D01*
X58071429Y-77714286D01*
X58109524Y-77638095D01*
X58147620Y-77600000D01*
X58223810Y-77561905D01*
X54904762Y-78361905D02*
X54447619Y-78361905D01*
X54676190Y-78361905D02*
X54676190Y-77561905D01*
X54600000Y-77676190D01*
X54523809Y-77752381D01*
X54447619Y-77790476D01*
X55247619Y-78361905D02*
X55247619Y-77561905D01*
X55323810Y-78057143D02*
X55552381Y-78361905D01*
X55552381Y-77828571D02*
X55247619Y-78133333D01*
X67371428Y-68828571D02*
X67371428Y-69361905D01*
X67180952Y-68523810D02*
X66990476Y-69095238D01*
X67485714Y-69095238D01*
X68247619Y-69361905D02*
X67980952Y-68980952D01*
X67790476Y-69361905D02*
X67790476Y-68561905D01*
X68095238Y-68561905D01*
X68171429Y-68600000D01*
X68209524Y-68638095D01*
X68247619Y-68714286D01*
X68247619Y-68828571D01*
X68209524Y-68904762D01*
X68171429Y-68942857D01*
X68095238Y-68980952D01*
X67790476Y-68980952D01*
X68514286Y-68561905D02*
X69047619Y-68561905D01*
X68704762Y-69361905D01*
X112311905Y-126221428D02*
X112311905Y-125726190D01*
X112616667Y-125992857D01*
X112616667Y-125878571D01*
X112654762Y-125802381D01*
X112692857Y-125764285D01*
X112769048Y-125726190D01*
X112959524Y-125726190D01*
X113035714Y-125764285D01*
X113073810Y-125802381D01*
X113111905Y-125878571D01*
X113111905Y-126107143D01*
X113073810Y-126183333D01*
X113035714Y-126221428D01*
X113111905Y-125383333D02*
X112311905Y-125383333D01*
X112807143Y-125307142D02*
X113111905Y-125078571D01*
X112578571Y-125078571D02*
X112883333Y-125383333D01*
X112311905Y-124811904D02*
X112311905Y-124316666D01*
X112616667Y-124583333D01*
X112616667Y-124469047D01*
X112654762Y-124392857D01*
X112692857Y-124354761D01*
X112769048Y-124316666D01*
X112959524Y-124316666D01*
X113035714Y-124354761D01*
X113073810Y-124392857D01*
X113111905Y-124469047D01*
X113111905Y-124697619D01*
X113073810Y-124773809D01*
X113035714Y-124811904D01*
X132311905Y-126221428D02*
X132311905Y-125726190D01*
X132616667Y-125992857D01*
X132616667Y-125878571D01*
X132654762Y-125802381D01*
X132692857Y-125764285D01*
X132769048Y-125726190D01*
X132959524Y-125726190D01*
X133035714Y-125764285D01*
X133073810Y-125802381D01*
X133111905Y-125878571D01*
X133111905Y-126107143D01*
X133073810Y-126183333D01*
X133035714Y-126221428D01*
X133111905Y-125383333D02*
X132311905Y-125383333D01*
X132807143Y-125307142D02*
X133111905Y-125078571D01*
X132578571Y-125078571D02*
X132883333Y-125383333D01*
X132311905Y-124811904D02*
X132311905Y-124316666D01*
X132616667Y-124583333D01*
X132616667Y-124469047D01*
X132654762Y-124392857D01*
X132692857Y-124354761D01*
X132769048Y-124316666D01*
X132959524Y-124316666D01*
X133035714Y-124354761D01*
X133073810Y-124392857D01*
X133111905Y-124469047D01*
X133111905Y-124697619D01*
X133073810Y-124773809D01*
X133035714Y-124811904D01*
X152311905Y-126221428D02*
X152311905Y-125726190D01*
X152616667Y-125992857D01*
X152616667Y-125878571D01*
X152654762Y-125802381D01*
X152692857Y-125764285D01*
X152769048Y-125726190D01*
X152959524Y-125726190D01*
X153035714Y-125764285D01*
X153073810Y-125802381D01*
X153111905Y-125878571D01*
X153111905Y-126107143D01*
X153073810Y-126183333D01*
X153035714Y-126221428D01*
X153111905Y-125383333D02*
X152311905Y-125383333D01*
X152807143Y-125307142D02*
X153111905Y-125078571D01*
X152578571Y-125078571D02*
X152883333Y-125383333D01*
X152311905Y-124811904D02*
X152311905Y-124316666D01*
X152616667Y-124583333D01*
X152616667Y-124469047D01*
X152654762Y-124392857D01*
X152692857Y-124354761D01*
X152769048Y-124316666D01*
X152959524Y-124316666D01*
X153035714Y-124354761D01*
X153073810Y-124392857D01*
X153111905Y-124469047D01*
X153111905Y-124697619D01*
X153073810Y-124773809D01*
X153035714Y-124811904D01*
X172311905Y-126221428D02*
X172311905Y-125726190D01*
X172616667Y-125992857D01*
X172616667Y-125878571D01*
X172654762Y-125802381D01*
X172692857Y-125764285D01*
X172769048Y-125726190D01*
X172959524Y-125726190D01*
X173035714Y-125764285D01*
X173073810Y-125802381D01*
X173111905Y-125878571D01*
X173111905Y-126107143D01*
X173073810Y-126183333D01*
X173035714Y-126221428D01*
X173111905Y-125383333D02*
X172311905Y-125383333D01*
X172807143Y-125307142D02*
X173111905Y-125078571D01*
X172578571Y-125078571D02*
X172883333Y-125383333D01*
X172311905Y-124811904D02*
X172311905Y-124316666D01*
X172616667Y-124583333D01*
X172616667Y-124469047D01*
X172654762Y-124392857D01*
X172692857Y-124354761D01*
X172769048Y-124316666D01*
X172959524Y-124316666D01*
X173035714Y-124354761D01*
X173073810Y-124392857D01*
X173111905Y-124469047D01*
X173111905Y-124697619D01*
X173073810Y-124773809D01*
X173035714Y-124811904D01*
X213561905Y-119440476D02*
X213561905Y-119821429D01*
X213942857Y-119859524D01*
X213904762Y-119821429D01*
X213866667Y-119745238D01*
X213866667Y-119554762D01*
X213904762Y-119478572D01*
X213942857Y-119440476D01*
X214019048Y-119402381D01*
X214209524Y-119402381D01*
X214285714Y-119440476D01*
X214323810Y-119478572D01*
X214361905Y-119554762D01*
X214361905Y-119745238D01*
X214323810Y-119821429D01*
X214285714Y-119859524D01*
X214361905Y-118640476D02*
X214361905Y-119097619D01*
X214361905Y-118869048D02*
X213561905Y-118869048D01*
X213676190Y-118945238D01*
X213752381Y-119021429D01*
X213790476Y-119097619D01*
X213561905Y-117190476D02*
X213561905Y-117571429D01*
X213942857Y-117609524D01*
X213904762Y-117571429D01*
X213866667Y-117495238D01*
X213866667Y-117304762D01*
X213904762Y-117228572D01*
X213942857Y-117190476D01*
X214019048Y-117152381D01*
X214209524Y-117152381D01*
X214285714Y-117190476D01*
X214323810Y-117228572D01*
X214361905Y-117304762D01*
X214361905Y-117495238D01*
X214323810Y-117571429D01*
X214285714Y-117609524D01*
X214361905Y-116390476D02*
X214361905Y-116847619D01*
X214361905Y-116619048D02*
X213561905Y-116619048D01*
X213676190Y-116695238D01*
X213752381Y-116771429D01*
X213790476Y-116847619D01*
X213561905Y-114940476D02*
X213561905Y-115321429D01*
X213942857Y-115359524D01*
X213904762Y-115321429D01*
X213866667Y-115245238D01*
X213866667Y-115054762D01*
X213904762Y-114978572D01*
X213942857Y-114940476D01*
X214019048Y-114902381D01*
X214209524Y-114902381D01*
X214285714Y-114940476D01*
X214323810Y-114978572D01*
X214361905Y-115054762D01*
X214361905Y-115245238D01*
X214323810Y-115321429D01*
X214285714Y-115359524D01*
X214361905Y-114140476D02*
X214361905Y-114597619D01*
X214361905Y-114369048D02*
X213561905Y-114369048D01*
X213676190Y-114445238D01*
X213752381Y-114521429D01*
X213790476Y-114597619D01*
X213561905Y-112690476D02*
X213561905Y-113071429D01*
X213942857Y-113109524D01*
X213904762Y-113071429D01*
X213866667Y-112995238D01*
X213866667Y-112804762D01*
X213904762Y-112728572D01*
X213942857Y-112690476D01*
X214019048Y-112652381D01*
X214209524Y-112652381D01*
X214285714Y-112690476D01*
X214323810Y-112728572D01*
X214361905Y-112804762D01*
X214361905Y-112995238D01*
X214323810Y-113071429D01*
X214285714Y-113109524D01*
X214361905Y-111890476D02*
X214361905Y-112347619D01*
X214361905Y-112119048D02*
X213561905Y-112119048D01*
X213676190Y-112195238D01*
X213752381Y-112271429D01*
X213790476Y-112347619D01*
X213561905Y-110440476D02*
X213561905Y-110821429D01*
X213942857Y-110859524D01*
X213904762Y-110821429D01*
X213866667Y-110745238D01*
X213866667Y-110554762D01*
X213904762Y-110478572D01*
X213942857Y-110440476D01*
X214019048Y-110402381D01*
X214209524Y-110402381D01*
X214285714Y-110440476D01*
X214323810Y-110478572D01*
X214361905Y-110554762D01*
X214361905Y-110745238D01*
X214323810Y-110821429D01*
X214285714Y-110859524D01*
X214361905Y-109640476D02*
X214361905Y-110097619D01*
X214361905Y-109869048D02*
X213561905Y-109869048D01*
X213676190Y-109945238D01*
X213752381Y-110021429D01*
X213790476Y-110097619D01*
X213561905Y-108190476D02*
X213561905Y-108571429D01*
X213942857Y-108609524D01*
X213904762Y-108571429D01*
X213866667Y-108495238D01*
X213866667Y-108304762D01*
X213904762Y-108228572D01*
X213942857Y-108190476D01*
X214019048Y-108152381D01*
X214209524Y-108152381D01*
X214285714Y-108190476D01*
X214323810Y-108228572D01*
X214361905Y-108304762D01*
X214361905Y-108495238D01*
X214323810Y-108571429D01*
X214285714Y-108609524D01*
X214361905Y-107390476D02*
X214361905Y-107847619D01*
X214361905Y-107619048D02*
X213561905Y-107619048D01*
X213676190Y-107695238D01*
X213752381Y-107771429D01*
X213790476Y-107847619D01*
X213561905Y-105940476D02*
X213561905Y-106321429D01*
X213942857Y-106359524D01*
X213904762Y-106321429D01*
X213866667Y-106245238D01*
X213866667Y-106054762D01*
X213904762Y-105978572D01*
X213942857Y-105940476D01*
X214019048Y-105902381D01*
X214209524Y-105902381D01*
X214285714Y-105940476D01*
X214323810Y-105978572D01*
X214361905Y-106054762D01*
X214361905Y-106245238D01*
X214323810Y-106321429D01*
X214285714Y-106359524D01*
X214361905Y-105140476D02*
X214361905Y-105597619D01*
X214361905Y-105369048D02*
X213561905Y-105369048D01*
X213676190Y-105445238D01*
X213752381Y-105521429D01*
X213790476Y-105597619D01*
X213561905Y-103690476D02*
X213561905Y-104071429D01*
X213942857Y-104109524D01*
X213904762Y-104071429D01*
X213866667Y-103995238D01*
X213866667Y-103804762D01*
X213904762Y-103728572D01*
X213942857Y-103690476D01*
X214019048Y-103652381D01*
X214209524Y-103652381D01*
X214285714Y-103690476D01*
X214323810Y-103728572D01*
X214361905Y-103804762D01*
X214361905Y-103995238D01*
X214323810Y-104071429D01*
X214285714Y-104109524D01*
X214361905Y-102890476D02*
X214361905Y-103347619D01*
X214361905Y-103119048D02*
X213561905Y-103119048D01*
X213676190Y-103195238D01*
X213752381Y-103271429D01*
X213790476Y-103347619D01*
X213561905Y-121690476D02*
X213561905Y-122071429D01*
X213942857Y-122109524D01*
X213904762Y-122071429D01*
X213866667Y-121995238D01*
X213866667Y-121804762D01*
X213904762Y-121728572D01*
X213942857Y-121690476D01*
X214019048Y-121652381D01*
X214209524Y-121652381D01*
X214285714Y-121690476D01*
X214323810Y-121728572D01*
X214361905Y-121804762D01*
X214361905Y-121995238D01*
X214323810Y-122071429D01*
X214285714Y-122109524D01*
X214361905Y-120890476D02*
X214361905Y-121347619D01*
X214361905Y-121119048D02*
X213561905Y-121119048D01*
X213676190Y-121195238D01*
X213752381Y-121271429D01*
X213790476Y-121347619D01*
X63028571Y-86638095D02*
X63066666Y-86600000D01*
X63142857Y-86561905D01*
X63333333Y-86561905D01*
X63409523Y-86600000D01*
X63447619Y-86638095D01*
X63485714Y-86714286D01*
X63485714Y-86790476D01*
X63447619Y-86904762D01*
X62990476Y-87361905D01*
X63485714Y-87361905D01*
X64171428Y-86828571D02*
X64171428Y-87361905D01*
X63828571Y-86828571D02*
X63828571Y-87247619D01*
X63866666Y-87323810D01*
X63942857Y-87361905D01*
X64057143Y-87361905D01*
X64133333Y-87323810D01*
X64171428Y-87285714D01*
X64514286Y-86638095D02*
X64552381Y-86600000D01*
X64628572Y-86561905D01*
X64819048Y-86561905D01*
X64895238Y-86600000D01*
X64933334Y-86638095D01*
X64971429Y-86714286D01*
X64971429Y-86790476D01*
X64933334Y-86904762D01*
X64476191Y-87361905D01*
X64971429Y-87361905D01*
X51361905Y-113133333D02*
X51361905Y-113590476D01*
X51361905Y-113361905D02*
X50561905Y-113361905D01*
X50676190Y-113438095D01*
X50752381Y-113514286D01*
X50790476Y-113590476D01*
X50828571Y-112447619D02*
X51361905Y-112447619D01*
X50828571Y-112790476D02*
X51247619Y-112790476D01*
X51323810Y-112752381D01*
X51361905Y-112676190D01*
X51361905Y-112561904D01*
X51323810Y-112485714D01*
X51285714Y-112447619D01*
X51361905Y-105133333D02*
X51361905Y-105590476D01*
X51361905Y-105361905D02*
X50561905Y-105361905D01*
X50676190Y-105438095D01*
X50752381Y-105514286D01*
X50790476Y-105590476D01*
X50828571Y-104447619D02*
X51361905Y-104447619D01*
X50828571Y-104790476D02*
X51247619Y-104790476D01*
X51323810Y-104752381D01*
X51361905Y-104676190D01*
X51361905Y-104561904D01*
X51323810Y-104485714D01*
X51285714Y-104447619D01*
X61866667Y-77861905D02*
X61409524Y-77861905D01*
X61638095Y-77861905D02*
X61638095Y-77061905D01*
X61561905Y-77176190D01*
X61485714Y-77252381D01*
X61409524Y-77290476D01*
X62552381Y-77328571D02*
X62552381Y-77861905D01*
X62209524Y-77328571D02*
X62209524Y-77747619D01*
X62247619Y-77823810D01*
X62323810Y-77861905D01*
X62438096Y-77861905D01*
X62514286Y-77823810D01*
X62552381Y-77785714D01*
X70266667Y-139442857D02*
X70000000Y-139442857D01*
X70000000Y-139861905D02*
X70000000Y-139061905D01*
X70380953Y-139061905D01*
X70685714Y-139861905D02*
X70685714Y-139061905D01*
X70990476Y-139061905D01*
X71066667Y-139100000D01*
X71104762Y-139138095D01*
X71142857Y-139214286D01*
X71142857Y-139328571D01*
X71104762Y-139404762D01*
X71066667Y-139442857D01*
X70990476Y-139480952D01*
X70685714Y-139480952D01*
X71447619Y-139633333D02*
X71828571Y-139633333D01*
X71371428Y-139861905D02*
X71638095Y-139061905D01*
X71904762Y-139861905D01*
X72171428Y-139861905D02*
X72171428Y-139061905D01*
X72628571Y-139861905D01*
X72628571Y-139061905D01*
X73009523Y-139442857D02*
X73276190Y-139442857D01*
X73390476Y-139861905D02*
X73009523Y-139861905D01*
X73009523Y-139061905D01*
X73390476Y-139061905D01*
X74114286Y-139861905D02*
X73733333Y-139861905D01*
X73733333Y-139061905D01*
X51111905Y-132671428D02*
X51111905Y-133128571D01*
X51111905Y-132900000D02*
X50311905Y-132900000D01*
X50426190Y-132976190D01*
X50502381Y-133052381D01*
X50540476Y-133128571D01*
X51111905Y-131871428D02*
X50730952Y-132138095D01*
X51111905Y-132328571D02*
X50311905Y-132328571D01*
X50311905Y-132023809D01*
X50350000Y-131947618D01*
X50388095Y-131909523D01*
X50464286Y-131871428D01*
X50578571Y-131871428D01*
X50654762Y-131909523D01*
X50692857Y-131947618D01*
X50730952Y-132023809D01*
X50730952Y-132328571D01*
X51561905Y-90171428D02*
X51561905Y-90628571D01*
X51561905Y-90400000D02*
X50761905Y-90400000D01*
X50876190Y-90476190D01*
X50952381Y-90552381D01*
X50990476Y-90628571D01*
X51561905Y-89371428D02*
X51180952Y-89638095D01*
X51561905Y-89828571D02*
X50761905Y-89828571D01*
X50761905Y-89523809D01*
X50800000Y-89447618D01*
X50838095Y-89409523D01*
X50914286Y-89371428D01*
X51028571Y-89371428D01*
X51104762Y-89409523D01*
X51142857Y-89447618D01*
X51180952Y-89523809D01*
X51180952Y-89828571D01*
X57361905Y-102990477D02*
X56561905Y-102990477D01*
X57133333Y-102723810D01*
X56561905Y-102457143D01*
X57361905Y-102457143D01*
X56942857Y-101809524D02*
X56980952Y-101695238D01*
X57019048Y-101657143D01*
X57095238Y-101619048D01*
X57209524Y-101619048D01*
X57285714Y-101657143D01*
X57323810Y-101695238D01*
X57361905Y-101771429D01*
X57361905Y-102076191D01*
X56561905Y-102076191D01*
X56561905Y-101809524D01*
X56600000Y-101733334D01*
X56638095Y-101695238D01*
X56714286Y-101657143D01*
X56790476Y-101657143D01*
X56866667Y-101695238D01*
X56904762Y-101733334D01*
X56942857Y-101809524D01*
X56942857Y-102076191D01*
X57361905Y-100819048D02*
X56980952Y-101085715D01*
X57361905Y-101276191D02*
X56561905Y-101276191D01*
X56561905Y-100971429D01*
X56600000Y-100895238D01*
X56638095Y-100857143D01*
X56714286Y-100819048D01*
X56828571Y-100819048D01*
X56904762Y-100857143D01*
X56942857Y-100895238D01*
X56980952Y-100971429D01*
X56980952Y-101276191D01*
X57361905Y-100057143D02*
X57361905Y-100514286D01*
X57361905Y-100285715D02*
X56561905Y-100285715D01*
X56676190Y-100361905D01*
X56752381Y-100438096D01*
X56790476Y-100514286D01*
X56561905Y-99371429D02*
X56561905Y-99523810D01*
X56600000Y-99600000D01*
X56638095Y-99638095D01*
X56752381Y-99714286D01*
X56904762Y-99752381D01*
X57209524Y-99752381D01*
X57285714Y-99714286D01*
X57323810Y-99676191D01*
X57361905Y-99600000D01*
X57361905Y-99447619D01*
X57323810Y-99371429D01*
X57285714Y-99333333D01*
X57209524Y-99295238D01*
X57019048Y-99295238D01*
X56942857Y-99333333D01*
X56904762Y-99371429D01*
X56866667Y-99447619D01*
X56866667Y-99600000D01*
X56904762Y-99676191D01*
X56942857Y-99714286D01*
X57019048Y-99752381D01*
X56561905Y-99028571D02*
X56561905Y-98533333D01*
X56866667Y-98800000D01*
X56866667Y-98685714D01*
X56904762Y-98609524D01*
X56942857Y-98571428D01*
X57019048Y-98533333D01*
X57209524Y-98533333D01*
X57285714Y-98571428D01*
X57323810Y-98609524D01*
X57361905Y-98685714D01*
X57361905Y-98914286D01*
X57323810Y-98990476D01*
X57285714Y-99028571D01*
X56561905Y-97809523D02*
X56561905Y-98190476D01*
X56942857Y-98228571D01*
X56904762Y-98190476D01*
X56866667Y-98114285D01*
X56866667Y-97923809D01*
X56904762Y-97847619D01*
X56942857Y-97809523D01*
X57019048Y-97771428D01*
X57209524Y-97771428D01*
X57285714Y-97809523D01*
X57323810Y-97847619D01*
X57361905Y-97923809D01*
X57361905Y-98114285D01*
X57323810Y-98190476D01*
X57285714Y-98228571D01*
X56600000Y-97009523D02*
X56561905Y-97085714D01*
X56561905Y-97199999D01*
X56600000Y-97314285D01*
X56676190Y-97390476D01*
X56752381Y-97428571D01*
X56904762Y-97466666D01*
X57019048Y-97466666D01*
X57171429Y-97428571D01*
X57247619Y-97390476D01*
X57323810Y-97314285D01*
X57361905Y-97199999D01*
X57361905Y-97123809D01*
X57323810Y-97009523D01*
X57285714Y-96971428D01*
X57019048Y-96971428D01*
X57019048Y-97123809D01*
X68528572Y-143061905D02*
X69023810Y-143061905D01*
X68757143Y-143366667D01*
X68871429Y-143366667D01*
X68947619Y-143404762D01*
X68985715Y-143442857D01*
X69023810Y-143519048D01*
X69023810Y-143709524D01*
X68985715Y-143785714D01*
X68947619Y-143823810D01*
X68871429Y-143861905D01*
X68642857Y-143861905D01*
X68566667Y-143823810D01*
X68528572Y-143785714D01*
X69366667Y-143861905D02*
X69366667Y-143061905D01*
X69442858Y-143557143D02*
X69671429Y-143861905D01*
X69671429Y-143328571D02*
X69366667Y-143633333D01*
X69938096Y-143061905D02*
X70433334Y-143061905D01*
X70166667Y-143366667D01*
X70280953Y-143366667D01*
X70357143Y-143404762D01*
X70395239Y-143442857D01*
X70433334Y-143519048D01*
X70433334Y-143709524D01*
X70395239Y-143785714D01*
X70357143Y-143823810D01*
X70280953Y-143861905D01*
X70052381Y-143861905D01*
X69976191Y-143823810D01*
X69938096Y-143785714D01*
X93961905Y-129971428D02*
X93961905Y-129476190D01*
X94266667Y-129742857D01*
X94266667Y-129628571D01*
X94304762Y-129552381D01*
X94342857Y-129514285D01*
X94419048Y-129476190D01*
X94609524Y-129476190D01*
X94685714Y-129514285D01*
X94723810Y-129552381D01*
X94761905Y-129628571D01*
X94761905Y-129857143D01*
X94723810Y-129933333D01*
X94685714Y-129971428D01*
X94761905Y-129133333D02*
X93961905Y-129133333D01*
X94457143Y-129057142D02*
X94761905Y-128828571D01*
X94228571Y-128828571D02*
X94533333Y-129133333D01*
X93961905Y-128561904D02*
X93961905Y-128066666D01*
X94266667Y-128333333D01*
X94266667Y-128219047D01*
X94304762Y-128142857D01*
X94342857Y-128104761D01*
X94419048Y-128066666D01*
X94609524Y-128066666D01*
X94685714Y-128104761D01*
X94723810Y-128142857D01*
X94761905Y-128219047D01*
X94761905Y-128447619D01*
X94723810Y-128523809D01*
X94685714Y-128561904D01*
X92561905Y-129971428D02*
X92561905Y-129476190D01*
X92866667Y-129742857D01*
X92866667Y-129628571D01*
X92904762Y-129552381D01*
X92942857Y-129514285D01*
X93019048Y-129476190D01*
X93209524Y-129476190D01*
X93285714Y-129514285D01*
X93323810Y-129552381D01*
X93361905Y-129628571D01*
X93361905Y-129857143D01*
X93323810Y-129933333D01*
X93285714Y-129971428D01*
X93361905Y-129133333D02*
X92561905Y-129133333D01*
X93057143Y-129057142D02*
X93361905Y-128828571D01*
X92828571Y-128828571D02*
X93133333Y-129133333D01*
X92561905Y-128561904D02*
X92561905Y-128066666D01*
X92866667Y-128333333D01*
X92866667Y-128219047D01*
X92904762Y-128142857D01*
X92942857Y-128104761D01*
X93019048Y-128066666D01*
X93209524Y-128066666D01*
X93285714Y-128104761D01*
X93323810Y-128142857D01*
X93361905Y-128219047D01*
X93361905Y-128447619D01*
X93323810Y-128523809D01*
X93285714Y-128561904D01*
X96561905Y-129895238D02*
X96561905Y-130352381D01*
X96561905Y-130123810D02*
X95761905Y-130123810D01*
X95876190Y-130200000D01*
X95952381Y-130276191D01*
X95990476Y-130352381D01*
X95761905Y-129400000D02*
X95761905Y-129323809D01*
X95800000Y-129247619D01*
X95838095Y-129209524D01*
X95914286Y-129171428D01*
X96066667Y-129133333D01*
X96257143Y-129133333D01*
X96409524Y-129171428D01*
X96485714Y-129209524D01*
X96523810Y-129247619D01*
X96561905Y-129323809D01*
X96561905Y-129400000D01*
X96523810Y-129476190D01*
X96485714Y-129514286D01*
X96409524Y-129552381D01*
X96257143Y-129590476D01*
X96066667Y-129590476D01*
X95914286Y-129552381D01*
X95838095Y-129514286D01*
X95800000Y-129476190D01*
X95761905Y-129400000D01*
X95761905Y-128638095D02*
X95761905Y-128561904D01*
X95800000Y-128485714D01*
X95838095Y-128447619D01*
X95914286Y-128409523D01*
X96066667Y-128371428D01*
X96257143Y-128371428D01*
X96409524Y-128409523D01*
X96485714Y-128447619D01*
X96523810Y-128485714D01*
X96561905Y-128561904D01*
X96561905Y-128638095D01*
X96523810Y-128714285D01*
X96485714Y-128752381D01*
X96409524Y-128790476D01*
X96257143Y-128828571D01*
X96066667Y-128828571D01*
X95914286Y-128790476D01*
X95838095Y-128752381D01*
X95800000Y-128714285D01*
X95761905Y-128638095D01*
X96028571Y-128028571D02*
X96561905Y-128028571D01*
X96104762Y-128028571D02*
X96066667Y-127990476D01*
X96028571Y-127914285D01*
X96028571Y-127799999D01*
X96066667Y-127723809D01*
X96142857Y-127685714D01*
X96561905Y-127685714D01*
X31354762Y-131361905D02*
X30897619Y-131361905D01*
X31126190Y-131361905D02*
X31126190Y-130561905D01*
X31050000Y-130676190D01*
X30973809Y-130752381D01*
X30897619Y-130790476D01*
X31850000Y-130561905D02*
X31926191Y-130561905D01*
X32002381Y-130600000D01*
X32040476Y-130638095D01*
X32078572Y-130714286D01*
X32116667Y-130866667D01*
X32116667Y-131057143D01*
X32078572Y-131209524D01*
X32040476Y-131285714D01*
X32002381Y-131323810D01*
X31926191Y-131361905D01*
X31850000Y-131361905D01*
X31773810Y-131323810D01*
X31735714Y-131285714D01*
X31697619Y-131209524D01*
X31659524Y-131057143D01*
X31659524Y-130866667D01*
X31697619Y-130714286D01*
X31735714Y-130638095D01*
X31773810Y-130600000D01*
X31850000Y-130561905D01*
X32611905Y-130561905D02*
X32688096Y-130561905D01*
X32764286Y-130600000D01*
X32802381Y-130638095D01*
X32840477Y-130714286D01*
X32878572Y-130866667D01*
X32878572Y-131057143D01*
X32840477Y-131209524D01*
X32802381Y-131285714D01*
X32764286Y-131323810D01*
X32688096Y-131361905D01*
X32611905Y-131361905D01*
X32535715Y-131323810D01*
X32497619Y-131285714D01*
X32459524Y-131209524D01*
X32421429Y-131057143D01*
X32421429Y-130866667D01*
X32459524Y-130714286D01*
X32497619Y-130638095D01*
X32535715Y-130600000D01*
X32611905Y-130561905D01*
X33221429Y-130828571D02*
X33221429Y-131361905D01*
X33221429Y-130904762D02*
X33259524Y-130866667D01*
X33335715Y-130828571D01*
X33450001Y-130828571D01*
X33526191Y-130866667D01*
X33564286Y-130942857D01*
X33564286Y-131361905D01*
X34611905Y-86145238D02*
X34611905Y-86602381D01*
X34611905Y-86373810D02*
X33811905Y-86373810D01*
X33926190Y-86450000D01*
X34002381Y-86526191D01*
X34040476Y-86602381D01*
X33811905Y-85650000D02*
X33811905Y-85573809D01*
X33850000Y-85497619D01*
X33888095Y-85459524D01*
X33964286Y-85421428D01*
X34116667Y-85383333D01*
X34307143Y-85383333D01*
X34459524Y-85421428D01*
X34535714Y-85459524D01*
X34573810Y-85497619D01*
X34611905Y-85573809D01*
X34611905Y-85650000D01*
X34573810Y-85726190D01*
X34535714Y-85764286D01*
X34459524Y-85802381D01*
X34307143Y-85840476D01*
X34116667Y-85840476D01*
X33964286Y-85802381D01*
X33888095Y-85764286D01*
X33850000Y-85726190D01*
X33811905Y-85650000D01*
X33811905Y-84888095D02*
X33811905Y-84811904D01*
X33850000Y-84735714D01*
X33888095Y-84697619D01*
X33964286Y-84659523D01*
X34116667Y-84621428D01*
X34307143Y-84621428D01*
X34459524Y-84659523D01*
X34535714Y-84697619D01*
X34573810Y-84735714D01*
X34611905Y-84811904D01*
X34611905Y-84888095D01*
X34573810Y-84964285D01*
X34535714Y-85002381D01*
X34459524Y-85040476D01*
X34307143Y-85078571D01*
X34116667Y-85078571D01*
X33964286Y-85040476D01*
X33888095Y-85002381D01*
X33850000Y-84964285D01*
X33811905Y-84888095D01*
X34078571Y-84278571D02*
X34611905Y-84278571D01*
X34154762Y-84278571D02*
X34116667Y-84240476D01*
X34078571Y-84164285D01*
X34078571Y-84049999D01*
X34116667Y-83973809D01*
X34192857Y-83935714D01*
X34611905Y-83935714D01*
X35314286Y-136942857D02*
X35428572Y-136980952D01*
X35466667Y-137019048D01*
X35504762Y-137095238D01*
X35504762Y-137209524D01*
X35466667Y-137285714D01*
X35428572Y-137323810D01*
X35352381Y-137361905D01*
X35047619Y-137361905D01*
X35047619Y-136561905D01*
X35314286Y-136561905D01*
X35390476Y-136600000D01*
X35428572Y-136638095D01*
X35466667Y-136714286D01*
X35466667Y-136790476D01*
X35428572Y-136866667D01*
X35390476Y-136904762D01*
X35314286Y-136942857D01*
X35047619Y-136942857D01*
X36000000Y-136980952D02*
X36000000Y-137361905D01*
X35733333Y-136561905D02*
X36000000Y-136980952D01*
X36266667Y-136561905D01*
X36533333Y-137361905D02*
X36533333Y-136561905D01*
X36838095Y-136561905D01*
X36914286Y-136600000D01*
X36952381Y-136638095D01*
X36990476Y-136714286D01*
X36990476Y-136828571D01*
X36952381Y-136904762D01*
X36914286Y-136942857D01*
X36838095Y-136980952D01*
X36533333Y-136980952D01*
X39814286Y-77192857D02*
X39928572Y-77230952D01*
X39966667Y-77269048D01*
X40004762Y-77345238D01*
X40004762Y-77459524D01*
X39966667Y-77535714D01*
X39928572Y-77573810D01*
X39852381Y-77611905D01*
X39547619Y-77611905D01*
X39547619Y-76811905D01*
X39814286Y-76811905D01*
X39890476Y-76850000D01*
X39928572Y-76888095D01*
X39966667Y-76964286D01*
X39966667Y-77040476D01*
X39928572Y-77116667D01*
X39890476Y-77154762D01*
X39814286Y-77192857D01*
X39547619Y-77192857D01*
X40500000Y-77230952D02*
X40500000Y-77611905D01*
X40233333Y-76811905D02*
X40500000Y-77230952D01*
X40766667Y-76811905D01*
X41033333Y-77611905D02*
X41033333Y-76811905D01*
X41338095Y-76811905D01*
X41414286Y-76850000D01*
X41452381Y-76888095D01*
X41490476Y-76964286D01*
X41490476Y-77078571D01*
X41452381Y-77154762D01*
X41414286Y-77192857D01*
X41338095Y-77230952D01*
X41033333Y-77230952D01*
X129611905Y-72590477D02*
X128811905Y-72590477D01*
X129383333Y-72323810D01*
X128811905Y-72057143D01*
X129611905Y-72057143D01*
X129192857Y-71409524D02*
X129230952Y-71295238D01*
X129269048Y-71257143D01*
X129345238Y-71219048D01*
X129459524Y-71219048D01*
X129535714Y-71257143D01*
X129573810Y-71295238D01*
X129611905Y-71371429D01*
X129611905Y-71676191D01*
X128811905Y-71676191D01*
X128811905Y-71409524D01*
X128850000Y-71333334D01*
X128888095Y-71295238D01*
X128964286Y-71257143D01*
X129040476Y-71257143D01*
X129116667Y-71295238D01*
X129154762Y-71333334D01*
X129192857Y-71409524D01*
X129192857Y-71676191D01*
X129611905Y-70419048D02*
X129230952Y-70685715D01*
X129611905Y-70876191D02*
X128811905Y-70876191D01*
X128811905Y-70571429D01*
X128850000Y-70495238D01*
X128888095Y-70457143D01*
X128964286Y-70419048D01*
X129078571Y-70419048D01*
X129154762Y-70457143D01*
X129192857Y-70495238D01*
X129230952Y-70571429D01*
X129230952Y-70876191D01*
X128811905Y-69923810D02*
X128811905Y-69847619D01*
X128850000Y-69771429D01*
X128888095Y-69733334D01*
X128964286Y-69695238D01*
X129116667Y-69657143D01*
X129307143Y-69657143D01*
X129459524Y-69695238D01*
X129535714Y-69733334D01*
X129573810Y-69771429D01*
X129611905Y-69847619D01*
X129611905Y-69923810D01*
X129573810Y-70000000D01*
X129535714Y-70038096D01*
X129459524Y-70076191D01*
X129307143Y-70114286D01*
X129116667Y-70114286D01*
X128964286Y-70076191D01*
X128888095Y-70038096D01*
X128850000Y-70000000D01*
X128811905Y-69923810D01*
X128811905Y-68933333D02*
X128811905Y-69314286D01*
X129192857Y-69352381D01*
X129154762Y-69314286D01*
X129116667Y-69238095D01*
X129116667Y-69047619D01*
X129154762Y-68971429D01*
X129192857Y-68933333D01*
X129269048Y-68895238D01*
X129459524Y-68895238D01*
X129535714Y-68933333D01*
X129573810Y-68971429D01*
X129611905Y-69047619D01*
X129611905Y-69238095D01*
X129573810Y-69314286D01*
X129535714Y-69352381D01*
X129078571Y-68209524D02*
X129611905Y-68209524D01*
X128773810Y-68400000D02*
X129345238Y-68590476D01*
X129345238Y-68095238D01*
X128811905Y-67638095D02*
X128811905Y-67561904D01*
X128850000Y-67485714D01*
X128888095Y-67447619D01*
X128964286Y-67409523D01*
X129116667Y-67371428D01*
X129307143Y-67371428D01*
X129459524Y-67409523D01*
X129535714Y-67447619D01*
X129573810Y-67485714D01*
X129611905Y-67561904D01*
X129611905Y-67638095D01*
X129573810Y-67714285D01*
X129535714Y-67752381D01*
X129459524Y-67790476D01*
X129307143Y-67828571D01*
X129116667Y-67828571D01*
X128964286Y-67790476D01*
X128888095Y-67752381D01*
X128850000Y-67714285D01*
X128811905Y-67638095D01*
X135352382Y-64942857D02*
X135085715Y-64942857D01*
X135085715Y-65361905D02*
X135085715Y-64561905D01*
X135466668Y-64561905D01*
X135733334Y-65133333D02*
X136114286Y-65133333D01*
X135657143Y-65361905D02*
X135923810Y-64561905D01*
X136190477Y-65361905D01*
X136457143Y-65361905D02*
X136457143Y-64561905D01*
X136914286Y-65361905D01*
X136914286Y-64561905D01*
X133361905Y-73047619D02*
X132561905Y-73047619D01*
X133361905Y-72209524D02*
X132980952Y-72476191D01*
X133361905Y-72666667D02*
X132561905Y-72666667D01*
X132561905Y-72361905D01*
X132600000Y-72285714D01*
X132638095Y-72247619D01*
X132714286Y-72209524D01*
X132828571Y-72209524D01*
X132904762Y-72247619D01*
X132942857Y-72285714D01*
X132980952Y-72361905D01*
X132980952Y-72666667D01*
X132942857Y-71600000D02*
X132942857Y-71866667D01*
X133361905Y-71866667D02*
X132561905Y-71866667D01*
X132561905Y-71485714D01*
X133361905Y-71180953D02*
X132561905Y-71180953D01*
X133133333Y-70914286D01*
X132561905Y-70647619D01*
X133361905Y-70647619D01*
X133361905Y-69885714D02*
X133361905Y-70266667D01*
X132561905Y-70266667D01*
X132904762Y-69504762D02*
X132866667Y-69580953D01*
X132828571Y-69619048D01*
X132752381Y-69657143D01*
X132714286Y-69657143D01*
X132638095Y-69619048D01*
X132600000Y-69580953D01*
X132561905Y-69504762D01*
X132561905Y-69352381D01*
X132600000Y-69276191D01*
X132638095Y-69238095D01*
X132714286Y-69200000D01*
X132752381Y-69200000D01*
X132828571Y-69238095D01*
X132866667Y-69276191D01*
X132904762Y-69352381D01*
X132904762Y-69504762D01*
X132942857Y-69580953D01*
X132980952Y-69619048D01*
X133057143Y-69657143D01*
X133209524Y-69657143D01*
X133285714Y-69619048D01*
X133323810Y-69580953D01*
X133361905Y-69504762D01*
X133361905Y-69352381D01*
X133323810Y-69276191D01*
X133285714Y-69238095D01*
X133209524Y-69200000D01*
X133057143Y-69200000D01*
X132980952Y-69238095D01*
X132942857Y-69276191D01*
X132904762Y-69352381D01*
X132638095Y-68895238D02*
X132600000Y-68857143D01*
X132561905Y-68780952D01*
X132561905Y-68590476D01*
X132600000Y-68514286D01*
X132638095Y-68476190D01*
X132714286Y-68438095D01*
X132790476Y-68438095D01*
X132904762Y-68476190D01*
X133361905Y-68933333D01*
X133361905Y-68438095D01*
X132828571Y-67752381D02*
X133361905Y-67752381D01*
X132523810Y-67942857D02*
X133095238Y-68133333D01*
X133095238Y-67638095D01*
X132828571Y-66990476D02*
X133361905Y-66990476D01*
X132523810Y-67180952D02*
X133095238Y-67371428D01*
X133095238Y-66876190D01*
X131561905Y-74221428D02*
X131561905Y-73726190D01*
X131866667Y-73992857D01*
X131866667Y-73878571D01*
X131904762Y-73802381D01*
X131942857Y-73764285D01*
X132019048Y-73726190D01*
X132209524Y-73726190D01*
X132285714Y-73764285D01*
X132323810Y-73802381D01*
X132361905Y-73878571D01*
X132361905Y-74107143D01*
X132323810Y-74183333D01*
X132285714Y-74221428D01*
X132361905Y-73383333D02*
X131561905Y-73383333D01*
X132057143Y-73307142D02*
X132361905Y-73078571D01*
X131828571Y-73078571D02*
X132133333Y-73383333D01*
X131561905Y-72811904D02*
X131561905Y-72316666D01*
X131866667Y-72583333D01*
X131866667Y-72469047D01*
X131904762Y-72392857D01*
X131942857Y-72354761D01*
X132019048Y-72316666D01*
X132209524Y-72316666D01*
X132285714Y-72354761D01*
X132323810Y-72392857D01*
X132361905Y-72469047D01*
X132361905Y-72697619D01*
X132323810Y-72773809D01*
X132285714Y-72811904D01*
X138854762Y-71361905D02*
X138397619Y-71361905D01*
X138626190Y-71361905D02*
X138626190Y-70561905D01*
X138550000Y-70676190D01*
X138473809Y-70752381D01*
X138397619Y-70790476D01*
X139350000Y-70561905D02*
X139426191Y-70561905D01*
X139502381Y-70600000D01*
X139540476Y-70638095D01*
X139578572Y-70714286D01*
X139616667Y-70866667D01*
X139616667Y-71057143D01*
X139578572Y-71209524D01*
X139540476Y-71285714D01*
X139502381Y-71323810D01*
X139426191Y-71361905D01*
X139350000Y-71361905D01*
X139273810Y-71323810D01*
X139235714Y-71285714D01*
X139197619Y-71209524D01*
X139159524Y-71057143D01*
X139159524Y-70866667D01*
X139197619Y-70714286D01*
X139235714Y-70638095D01*
X139273810Y-70600000D01*
X139350000Y-70561905D01*
X140111905Y-70561905D02*
X140188096Y-70561905D01*
X140264286Y-70600000D01*
X140302381Y-70638095D01*
X140340477Y-70714286D01*
X140378572Y-70866667D01*
X140378572Y-71057143D01*
X140340477Y-71209524D01*
X140302381Y-71285714D01*
X140264286Y-71323810D01*
X140188096Y-71361905D01*
X140111905Y-71361905D01*
X140035715Y-71323810D01*
X139997619Y-71285714D01*
X139959524Y-71209524D01*
X139921429Y-71057143D01*
X139921429Y-70866667D01*
X139959524Y-70714286D01*
X139997619Y-70638095D01*
X140035715Y-70600000D01*
X140111905Y-70561905D01*
X141064286Y-70828571D02*
X141064286Y-71361905D01*
X140721429Y-70828571D02*
X140721429Y-71247619D01*
X140759524Y-71323810D01*
X140835715Y-71361905D01*
X140950001Y-71361905D01*
X141026191Y-71323810D01*
X141064286Y-71285714D01*
X36638095Y-115761905D02*
X36600000Y-115723810D01*
X36561905Y-115647619D01*
X36561905Y-115457143D01*
X36600000Y-115380953D01*
X36638095Y-115342857D01*
X36714286Y-115304762D01*
X36790476Y-115304762D01*
X36904762Y-115342857D01*
X37361905Y-115800000D01*
X37361905Y-115304762D01*
X36638095Y-115000000D02*
X36600000Y-114961905D01*
X36561905Y-114885714D01*
X36561905Y-114695238D01*
X36600000Y-114619048D01*
X36638095Y-114580952D01*
X36714286Y-114542857D01*
X36790476Y-114542857D01*
X36904762Y-114580952D01*
X37361905Y-115038095D01*
X37361905Y-114542857D01*
X36828571Y-113857143D02*
X37361905Y-113857143D01*
X36828571Y-114200000D02*
X37247619Y-114200000D01*
X37323810Y-114161905D01*
X37361905Y-114085714D01*
X37361905Y-113971428D01*
X37323810Y-113895238D01*
X37285714Y-113857143D01*
X36523810Y-112295237D02*
X37552381Y-112980952D01*
X36561905Y-111495237D02*
X36561905Y-110999999D01*
X36866667Y-111266666D01*
X36866667Y-111152380D01*
X36904762Y-111076190D01*
X36942857Y-111038094D01*
X37019048Y-110999999D01*
X37209524Y-110999999D01*
X37285714Y-111038094D01*
X37323810Y-111076190D01*
X37361905Y-111152380D01*
X37361905Y-111380952D01*
X37323810Y-111457142D01*
X37285714Y-111495237D01*
X36561905Y-110276189D02*
X36561905Y-110657142D01*
X36942857Y-110695237D01*
X36904762Y-110657142D01*
X36866667Y-110580951D01*
X36866667Y-110390475D01*
X36904762Y-110314285D01*
X36942857Y-110276189D01*
X37019048Y-110238094D01*
X37209524Y-110238094D01*
X37285714Y-110276189D01*
X37323810Y-110314285D01*
X37361905Y-110390475D01*
X37361905Y-110580951D01*
X37323810Y-110657142D01*
X37285714Y-110695237D01*
X35507143Y-114771428D02*
X35507143Y-113628571D01*
X36078571Y-114200000D02*
X34935714Y-114200000D01*
X36638095Y-107761905D02*
X36600000Y-107723810D01*
X36561905Y-107647619D01*
X36561905Y-107457143D01*
X36600000Y-107380953D01*
X36638095Y-107342857D01*
X36714286Y-107304762D01*
X36790476Y-107304762D01*
X36904762Y-107342857D01*
X37361905Y-107800000D01*
X37361905Y-107304762D01*
X36638095Y-107000000D02*
X36600000Y-106961905D01*
X36561905Y-106885714D01*
X36561905Y-106695238D01*
X36600000Y-106619048D01*
X36638095Y-106580952D01*
X36714286Y-106542857D01*
X36790476Y-106542857D01*
X36904762Y-106580952D01*
X37361905Y-107038095D01*
X37361905Y-106542857D01*
X36828571Y-105857143D02*
X37361905Y-105857143D01*
X36828571Y-106200000D02*
X37247619Y-106200000D01*
X37323810Y-106161905D01*
X37361905Y-106085714D01*
X37361905Y-105971428D01*
X37323810Y-105895238D01*
X37285714Y-105857143D01*
X36523810Y-104295237D02*
X37552381Y-104980952D01*
X36561905Y-103495237D02*
X36561905Y-102999999D01*
X36866667Y-103266666D01*
X36866667Y-103152380D01*
X36904762Y-103076190D01*
X36942857Y-103038094D01*
X37019048Y-102999999D01*
X37209524Y-102999999D01*
X37285714Y-103038094D01*
X37323810Y-103076190D01*
X37361905Y-103152380D01*
X37361905Y-103380952D01*
X37323810Y-103457142D01*
X37285714Y-103495237D01*
X36561905Y-102276189D02*
X36561905Y-102657142D01*
X36942857Y-102695237D01*
X36904762Y-102657142D01*
X36866667Y-102580951D01*
X36866667Y-102390475D01*
X36904762Y-102314285D01*
X36942857Y-102276189D01*
X37019048Y-102238094D01*
X37209524Y-102238094D01*
X37285714Y-102276189D01*
X37323810Y-102314285D01*
X37361905Y-102390475D01*
X37361905Y-102580951D01*
X37323810Y-102657142D01*
X37285714Y-102695237D01*
X38707143Y-104371428D02*
X38707143Y-103228571D01*
X39278571Y-103800000D02*
X38135714Y-103800000D01*
X44138095Y-107761905D02*
X44100000Y-107723810D01*
X44061905Y-107647619D01*
X44061905Y-107457143D01*
X44100000Y-107380953D01*
X44138095Y-107342857D01*
X44214286Y-107304762D01*
X44290476Y-107304762D01*
X44404762Y-107342857D01*
X44861905Y-107800000D01*
X44861905Y-107304762D01*
X44138095Y-107000000D02*
X44100000Y-106961905D01*
X44061905Y-106885714D01*
X44061905Y-106695238D01*
X44100000Y-106619048D01*
X44138095Y-106580952D01*
X44214286Y-106542857D01*
X44290476Y-106542857D01*
X44404762Y-106580952D01*
X44861905Y-107038095D01*
X44861905Y-106542857D01*
X44328571Y-105857143D02*
X44861905Y-105857143D01*
X44328571Y-106200000D02*
X44747619Y-106200000D01*
X44823810Y-106161905D01*
X44861905Y-106085714D01*
X44861905Y-105971428D01*
X44823810Y-105895238D01*
X44785714Y-105857143D01*
X44023810Y-104295237D02*
X45052381Y-104980952D01*
X44061905Y-103495237D02*
X44061905Y-102999999D01*
X44366667Y-103266666D01*
X44366667Y-103152380D01*
X44404762Y-103076190D01*
X44442857Y-103038094D01*
X44519048Y-102999999D01*
X44709524Y-102999999D01*
X44785714Y-103038094D01*
X44823810Y-103076190D01*
X44861905Y-103152380D01*
X44861905Y-103380952D01*
X44823810Y-103457142D01*
X44785714Y-103495237D01*
X44061905Y-102276189D02*
X44061905Y-102657142D01*
X44442857Y-102695237D01*
X44404762Y-102657142D01*
X44366667Y-102580951D01*
X44366667Y-102390475D01*
X44404762Y-102314285D01*
X44442857Y-102276189D01*
X44519048Y-102238094D01*
X44709524Y-102238094D01*
X44785714Y-102276189D01*
X44823810Y-102314285D01*
X44861905Y-102390475D01*
X44861905Y-102580951D01*
X44823810Y-102657142D01*
X44785714Y-102695237D01*
X46207143Y-104371428D02*
X46207143Y-103228571D01*
X46778571Y-103800000D02*
X45635714Y-103800000D01*
X44138095Y-115761905D02*
X44100000Y-115723810D01*
X44061905Y-115647619D01*
X44061905Y-115457143D01*
X44100000Y-115380953D01*
X44138095Y-115342857D01*
X44214286Y-115304762D01*
X44290476Y-115304762D01*
X44404762Y-115342857D01*
X44861905Y-115800000D01*
X44861905Y-115304762D01*
X44138095Y-115000000D02*
X44100000Y-114961905D01*
X44061905Y-114885714D01*
X44061905Y-114695238D01*
X44100000Y-114619048D01*
X44138095Y-114580952D01*
X44214286Y-114542857D01*
X44290476Y-114542857D01*
X44404762Y-114580952D01*
X44861905Y-115038095D01*
X44861905Y-114542857D01*
X44328571Y-113857143D02*
X44861905Y-113857143D01*
X44328571Y-114200000D02*
X44747619Y-114200000D01*
X44823810Y-114161905D01*
X44861905Y-114085714D01*
X44861905Y-113971428D01*
X44823810Y-113895238D01*
X44785714Y-113857143D01*
X44023810Y-112295237D02*
X45052381Y-112980952D01*
X44061905Y-111495237D02*
X44061905Y-110999999D01*
X44366667Y-111266666D01*
X44366667Y-111152380D01*
X44404762Y-111076190D01*
X44442857Y-111038094D01*
X44519048Y-110999999D01*
X44709524Y-110999999D01*
X44785714Y-111038094D01*
X44823810Y-111076190D01*
X44861905Y-111152380D01*
X44861905Y-111380952D01*
X44823810Y-111457142D01*
X44785714Y-111495237D01*
X44061905Y-110276189D02*
X44061905Y-110657142D01*
X44442857Y-110695237D01*
X44404762Y-110657142D01*
X44366667Y-110580951D01*
X44366667Y-110390475D01*
X44404762Y-110314285D01*
X44442857Y-110276189D01*
X44519048Y-110238094D01*
X44709524Y-110238094D01*
X44785714Y-110276189D01*
X44823810Y-110314285D01*
X44861905Y-110390475D01*
X44861905Y-110580951D01*
X44823810Y-110657142D01*
X44785714Y-110695237D01*
X43007143Y-114771428D02*
X43007143Y-113628571D01*
X43578571Y-114200000D02*
X42435714Y-114200000D01*
X54419047Y-115285714D02*
X54380952Y-115323810D01*
X54266666Y-115361905D01*
X54190476Y-115361905D01*
X54076190Y-115323810D01*
X53999999Y-115247619D01*
X53961904Y-115171429D01*
X53923809Y-115019048D01*
X53923809Y-114904762D01*
X53961904Y-114752381D01*
X53999999Y-114676190D01*
X54076190Y-114600000D01*
X54190476Y-114561905D01*
X54266666Y-114561905D01*
X54380952Y-114600000D01*
X54419047Y-114638095D01*
X54723809Y-115323810D02*
X54838095Y-115361905D01*
X55028571Y-115361905D01*
X55104761Y-115323810D01*
X55142857Y-115285714D01*
X55180952Y-115209524D01*
X55180952Y-115133333D01*
X55142857Y-115057143D01*
X55104761Y-115019048D01*
X55028571Y-114980952D01*
X54876190Y-114942857D01*
X54799999Y-114904762D01*
X54761904Y-114866667D01*
X54723809Y-114790476D01*
X54723809Y-114714286D01*
X54761904Y-114638095D01*
X54799999Y-114600000D01*
X54876190Y-114561905D01*
X55066666Y-114561905D01*
X55180952Y-114600000D01*
X55523809Y-115361905D02*
X55523809Y-114561905D01*
X55714285Y-114561905D01*
X55828571Y-114600000D01*
X55904762Y-114676190D01*
X55942857Y-114752381D01*
X55980952Y-114904762D01*
X55980952Y-115019048D01*
X55942857Y-115171429D01*
X55904762Y-115247619D01*
X55828571Y-115323810D01*
X55714285Y-115361905D01*
X55523809Y-115361905D01*
X56742857Y-115361905D02*
X56285714Y-115361905D01*
X56514285Y-115361905D02*
X56514285Y-114561905D01*
X56438095Y-114676190D01*
X56361904Y-114752381D01*
X56285714Y-114790476D01*
X57200000Y-114904762D02*
X57123809Y-114866667D01*
X57085714Y-114828571D01*
X57047619Y-114752381D01*
X57047619Y-114714286D01*
X57085714Y-114638095D01*
X57123809Y-114600000D01*
X57200000Y-114561905D01*
X57352381Y-114561905D01*
X57428571Y-114600000D01*
X57466667Y-114638095D01*
X57504762Y-114714286D01*
X57504762Y-114752381D01*
X57466667Y-114828571D01*
X57428571Y-114866667D01*
X57352381Y-114904762D01*
X57200000Y-114904762D01*
X57123809Y-114942857D01*
X57085714Y-114980952D01*
X57047619Y-115057143D01*
X57047619Y-115209524D01*
X57085714Y-115285714D01*
X57123809Y-115323810D01*
X57200000Y-115361905D01*
X57352381Y-115361905D01*
X57428571Y-115323810D01*
X57466667Y-115285714D01*
X57504762Y-115209524D01*
X57504762Y-115057143D01*
X57466667Y-114980952D01*
X57428571Y-114942857D01*
X57352381Y-114904762D01*
X58228572Y-114561905D02*
X57847619Y-114561905D01*
X57809524Y-114942857D01*
X57847619Y-114904762D01*
X57923810Y-114866667D01*
X58114286Y-114866667D01*
X58190476Y-114904762D01*
X58228572Y-114942857D01*
X58266667Y-115019048D01*
X58266667Y-115209524D01*
X58228572Y-115285714D01*
X58190476Y-115323810D01*
X58114286Y-115361905D01*
X57923810Y-115361905D01*
X57847619Y-115323810D01*
X57809524Y-115285714D01*
X58761905Y-114561905D02*
X58838096Y-114561905D01*
X58914286Y-114600000D01*
X58952381Y-114638095D01*
X58990477Y-114714286D01*
X59028572Y-114866667D01*
X59028572Y-115057143D01*
X58990477Y-115209524D01*
X58952381Y-115285714D01*
X58914286Y-115323810D01*
X58838096Y-115361905D01*
X58761905Y-115361905D01*
X58685715Y-115323810D01*
X58647619Y-115285714D01*
X58609524Y-115209524D01*
X58571429Y-115057143D01*
X58571429Y-114866667D01*
X58609524Y-114714286D01*
X58647619Y-114638095D01*
X58685715Y-114600000D01*
X58761905Y-114561905D01*
X59714286Y-114828571D02*
X59714286Y-115361905D01*
X59523810Y-114523810D02*
X59333334Y-115095238D01*
X59828572Y-115095238D01*
X60666668Y-115438095D02*
X60590477Y-115400000D01*
X60514287Y-115323810D01*
X60400001Y-115209524D01*
X60323810Y-115171429D01*
X60247620Y-115171429D01*
X60285715Y-115361905D02*
X60209525Y-115323810D01*
X60133334Y-115247619D01*
X60095239Y-115095238D01*
X60095239Y-114828571D01*
X60133334Y-114676190D01*
X60209525Y-114600000D01*
X60285715Y-114561905D01*
X60438096Y-114561905D01*
X60514287Y-114600000D01*
X60590477Y-114676190D01*
X60628572Y-114828571D01*
X60628572Y-115095238D01*
X60590477Y-115247619D01*
X60514287Y-115323810D01*
X60438096Y-115361905D01*
X60285715Y-115361905D01*
X61352382Y-114561905D02*
X60971429Y-114561905D01*
X60933334Y-114942857D01*
X60971429Y-114904762D01*
X61047620Y-114866667D01*
X61238096Y-114866667D01*
X61314286Y-114904762D01*
X61352382Y-114942857D01*
X61390477Y-115019048D01*
X61390477Y-115209524D01*
X61352382Y-115285714D01*
X61314286Y-115323810D01*
X61238096Y-115361905D01*
X61047620Y-115361905D01*
X60971429Y-115323810D01*
X60933334Y-115285714D01*
X61695239Y-115133333D02*
X62076191Y-115133333D01*
X61619048Y-115361905D02*
X61885715Y-114561905D01*
X62152382Y-115361905D01*
X47419047Y-121285714D02*
X47380952Y-121323810D01*
X47266666Y-121361905D01*
X47190476Y-121361905D01*
X47076190Y-121323810D01*
X46999999Y-121247619D01*
X46961904Y-121171429D01*
X46923809Y-121019048D01*
X46923809Y-120904762D01*
X46961904Y-120752381D01*
X46999999Y-120676190D01*
X47076190Y-120600000D01*
X47190476Y-120561905D01*
X47266666Y-120561905D01*
X47380952Y-120600000D01*
X47419047Y-120638095D01*
X47723809Y-121323810D02*
X47838095Y-121361905D01*
X48028571Y-121361905D01*
X48104761Y-121323810D01*
X48142857Y-121285714D01*
X48180952Y-121209524D01*
X48180952Y-121133333D01*
X48142857Y-121057143D01*
X48104761Y-121019048D01*
X48028571Y-120980952D01*
X47876190Y-120942857D01*
X47799999Y-120904762D01*
X47761904Y-120866667D01*
X47723809Y-120790476D01*
X47723809Y-120714286D01*
X47761904Y-120638095D01*
X47799999Y-120600000D01*
X47876190Y-120561905D01*
X48066666Y-120561905D01*
X48180952Y-120600000D01*
X48523809Y-121361905D02*
X48523809Y-120561905D01*
X48714285Y-120561905D01*
X48828571Y-120600000D01*
X48904762Y-120676190D01*
X48942857Y-120752381D01*
X48980952Y-120904762D01*
X48980952Y-121019048D01*
X48942857Y-121171429D01*
X48904762Y-121247619D01*
X48828571Y-121323810D01*
X48714285Y-121361905D01*
X48523809Y-121361905D01*
X49742857Y-121361905D02*
X49285714Y-121361905D01*
X49514285Y-121361905D02*
X49514285Y-120561905D01*
X49438095Y-120676190D01*
X49361904Y-120752381D01*
X49285714Y-120790476D01*
X50200000Y-120904762D02*
X50123809Y-120866667D01*
X50085714Y-120828571D01*
X50047619Y-120752381D01*
X50047619Y-120714286D01*
X50085714Y-120638095D01*
X50123809Y-120600000D01*
X50200000Y-120561905D01*
X50352381Y-120561905D01*
X50428571Y-120600000D01*
X50466667Y-120638095D01*
X50504762Y-120714286D01*
X50504762Y-120752381D01*
X50466667Y-120828571D01*
X50428571Y-120866667D01*
X50352381Y-120904762D01*
X50200000Y-120904762D01*
X50123809Y-120942857D01*
X50085714Y-120980952D01*
X50047619Y-121057143D01*
X50047619Y-121209524D01*
X50085714Y-121285714D01*
X50123809Y-121323810D01*
X50200000Y-121361905D01*
X50352381Y-121361905D01*
X50428571Y-121323810D01*
X50466667Y-121285714D01*
X50504762Y-121209524D01*
X50504762Y-121057143D01*
X50466667Y-120980952D01*
X50428571Y-120942857D01*
X50352381Y-120904762D01*
X51228572Y-120561905D02*
X50847619Y-120561905D01*
X50809524Y-120942857D01*
X50847619Y-120904762D01*
X50923810Y-120866667D01*
X51114286Y-120866667D01*
X51190476Y-120904762D01*
X51228572Y-120942857D01*
X51266667Y-121019048D01*
X51266667Y-121209524D01*
X51228572Y-121285714D01*
X51190476Y-121323810D01*
X51114286Y-121361905D01*
X50923810Y-121361905D01*
X50847619Y-121323810D01*
X50809524Y-121285714D01*
X51761905Y-120561905D02*
X51838096Y-120561905D01*
X51914286Y-120600000D01*
X51952381Y-120638095D01*
X51990477Y-120714286D01*
X52028572Y-120866667D01*
X52028572Y-121057143D01*
X51990477Y-121209524D01*
X51952381Y-121285714D01*
X51914286Y-121323810D01*
X51838096Y-121361905D01*
X51761905Y-121361905D01*
X51685715Y-121323810D01*
X51647619Y-121285714D01*
X51609524Y-121209524D01*
X51571429Y-121057143D01*
X51571429Y-120866667D01*
X51609524Y-120714286D01*
X51647619Y-120638095D01*
X51685715Y-120600000D01*
X51761905Y-120561905D01*
X52714286Y-120828571D02*
X52714286Y-121361905D01*
X52523810Y-120523810D02*
X52333334Y-121095238D01*
X52828572Y-121095238D01*
X53666668Y-121438095D02*
X53590477Y-121400000D01*
X53514287Y-121323810D01*
X53400001Y-121209524D01*
X53323810Y-121171429D01*
X53247620Y-121171429D01*
X53285715Y-121361905D02*
X53209525Y-121323810D01*
X53133334Y-121247619D01*
X53095239Y-121095238D01*
X53095239Y-120828571D01*
X53133334Y-120676190D01*
X53209525Y-120600000D01*
X53285715Y-120561905D01*
X53438096Y-120561905D01*
X53514287Y-120600000D01*
X53590477Y-120676190D01*
X53628572Y-120828571D01*
X53628572Y-121095238D01*
X53590477Y-121247619D01*
X53514287Y-121323810D01*
X53438096Y-121361905D01*
X53285715Y-121361905D01*
X54352382Y-120561905D02*
X53971429Y-120561905D01*
X53933334Y-120942857D01*
X53971429Y-120904762D01*
X54047620Y-120866667D01*
X54238096Y-120866667D01*
X54314286Y-120904762D01*
X54352382Y-120942857D01*
X54390477Y-121019048D01*
X54390477Y-121209524D01*
X54352382Y-121285714D01*
X54314286Y-121323810D01*
X54238096Y-121361905D01*
X54047620Y-121361905D01*
X53971429Y-121323810D01*
X53933334Y-121285714D01*
X54695239Y-121133333D02*
X55076191Y-121133333D01*
X54619048Y-121361905D02*
X54885715Y-120561905D01*
X55152382Y-121361905D01*
X50285714Y-101580953D02*
X50323810Y-101619048D01*
X50361905Y-101733334D01*
X50361905Y-101809524D01*
X50323810Y-101923810D01*
X50247619Y-102000001D01*
X50171429Y-102038096D01*
X50019048Y-102076191D01*
X49904762Y-102076191D01*
X49752381Y-102038096D01*
X49676190Y-102000001D01*
X49600000Y-101923810D01*
X49561905Y-101809524D01*
X49561905Y-101733334D01*
X49600000Y-101619048D01*
X49638095Y-101580953D01*
X50323810Y-101276191D02*
X50361905Y-101161905D01*
X50361905Y-100971429D01*
X50323810Y-100895239D01*
X50285714Y-100857143D01*
X50209524Y-100819048D01*
X50133333Y-100819048D01*
X50057143Y-100857143D01*
X50019048Y-100895239D01*
X49980952Y-100971429D01*
X49942857Y-101123810D01*
X49904762Y-101200001D01*
X49866667Y-101238096D01*
X49790476Y-101276191D01*
X49714286Y-101276191D01*
X49638095Y-101238096D01*
X49600000Y-101200001D01*
X49561905Y-101123810D01*
X49561905Y-100933334D01*
X49600000Y-100819048D01*
X50361905Y-100476191D02*
X49561905Y-100476191D01*
X49561905Y-100285715D01*
X49600000Y-100171429D01*
X49676190Y-100095238D01*
X49752381Y-100057143D01*
X49904762Y-100019048D01*
X50019048Y-100019048D01*
X50171429Y-100057143D01*
X50247619Y-100095238D01*
X50323810Y-100171429D01*
X50361905Y-100285715D01*
X50361905Y-100476191D01*
X50361905Y-99257143D02*
X50361905Y-99714286D01*
X50361905Y-99485715D02*
X49561905Y-99485715D01*
X49676190Y-99561905D01*
X49752381Y-99638096D01*
X49790476Y-99714286D01*
X49904762Y-98800000D02*
X49866667Y-98876191D01*
X49828571Y-98914286D01*
X49752381Y-98952381D01*
X49714286Y-98952381D01*
X49638095Y-98914286D01*
X49600000Y-98876191D01*
X49561905Y-98800000D01*
X49561905Y-98647619D01*
X49600000Y-98571429D01*
X49638095Y-98533333D01*
X49714286Y-98495238D01*
X49752381Y-98495238D01*
X49828571Y-98533333D01*
X49866667Y-98571429D01*
X49904762Y-98647619D01*
X49904762Y-98800000D01*
X49942857Y-98876191D01*
X49980952Y-98914286D01*
X50057143Y-98952381D01*
X50209524Y-98952381D01*
X50285714Y-98914286D01*
X50323810Y-98876191D01*
X50361905Y-98800000D01*
X50361905Y-98647619D01*
X50323810Y-98571429D01*
X50285714Y-98533333D01*
X50209524Y-98495238D01*
X50057143Y-98495238D01*
X49980952Y-98533333D01*
X49942857Y-98571429D01*
X49904762Y-98647619D01*
X49561905Y-97771428D02*
X49561905Y-98152381D01*
X49942857Y-98190476D01*
X49904762Y-98152381D01*
X49866667Y-98076190D01*
X49866667Y-97885714D01*
X49904762Y-97809524D01*
X49942857Y-97771428D01*
X50019048Y-97733333D01*
X50209524Y-97733333D01*
X50285714Y-97771428D01*
X50323810Y-97809524D01*
X50361905Y-97885714D01*
X50361905Y-98076190D01*
X50323810Y-98152381D01*
X50285714Y-98190476D01*
X49561905Y-97238095D02*
X49561905Y-97161904D01*
X49600000Y-97085714D01*
X49638095Y-97047619D01*
X49714286Y-97009523D01*
X49866667Y-96971428D01*
X50057143Y-96971428D01*
X50209524Y-97009523D01*
X50285714Y-97047619D01*
X50323810Y-97085714D01*
X50361905Y-97161904D01*
X50361905Y-97238095D01*
X50323810Y-97314285D01*
X50285714Y-97352381D01*
X50209524Y-97390476D01*
X50057143Y-97428571D01*
X49866667Y-97428571D01*
X49714286Y-97390476D01*
X49638095Y-97352381D01*
X49600000Y-97314285D01*
X49561905Y-97238095D01*
X49561905Y-96704761D02*
X49561905Y-96209523D01*
X49866667Y-96476190D01*
X49866667Y-96361904D01*
X49904762Y-96285714D01*
X49942857Y-96247618D01*
X50019048Y-96209523D01*
X50209524Y-96209523D01*
X50285714Y-96247618D01*
X50323810Y-96285714D01*
X50361905Y-96361904D01*
X50361905Y-96590476D01*
X50323810Y-96666666D01*
X50285714Y-96704761D01*
X50438095Y-95333332D02*
X50400000Y-95409523D01*
X50323810Y-95485713D01*
X50209524Y-95599999D01*
X50171429Y-95676190D01*
X50171429Y-95752380D01*
X50361905Y-95714285D02*
X50323810Y-95790475D01*
X50247619Y-95866666D01*
X50095238Y-95904761D01*
X49828571Y-95904761D01*
X49676190Y-95866666D01*
X49600000Y-95790475D01*
X49561905Y-95714285D01*
X49561905Y-95561904D01*
X49600000Y-95485713D01*
X49676190Y-95409523D01*
X49828571Y-95371428D01*
X50095238Y-95371428D01*
X50247619Y-95409523D01*
X50323810Y-95485713D01*
X50361905Y-95561904D01*
X50361905Y-95714285D01*
X49561905Y-94647618D02*
X49561905Y-95028571D01*
X49942857Y-95066666D01*
X49904762Y-95028571D01*
X49866667Y-94952380D01*
X49866667Y-94761904D01*
X49904762Y-94685714D01*
X49942857Y-94647618D01*
X50019048Y-94609523D01*
X50209524Y-94609523D01*
X50285714Y-94647618D01*
X50323810Y-94685714D01*
X50361905Y-94761904D01*
X50361905Y-94952380D01*
X50323810Y-95028571D01*
X50285714Y-95066666D01*
X50133333Y-94304761D02*
X50133333Y-93923809D01*
X50361905Y-94380952D02*
X49561905Y-94114285D01*
X50361905Y-93847618D01*
X59861905Y-67304762D02*
X59861905Y-67761905D01*
X59861905Y-67533334D02*
X59061905Y-67533334D01*
X59176190Y-67609524D01*
X59252381Y-67685715D01*
X59290476Y-67761905D01*
X59861905Y-66961905D02*
X59328571Y-66961905D01*
X59404762Y-66961905D02*
X59366667Y-66923810D01*
X59328571Y-66847619D01*
X59328571Y-66733333D01*
X59366667Y-66657143D01*
X59442857Y-66619048D01*
X59861905Y-66619048D01*
X59442857Y-66619048D02*
X59366667Y-66580952D01*
X59328571Y-66504762D01*
X59328571Y-66390476D01*
X59366667Y-66314286D01*
X59442857Y-66276191D01*
X59861905Y-66276191D01*
X41628571Y-130361905D02*
X41247618Y-130361905D01*
X41247618Y-129561905D01*
X41895237Y-130361905D02*
X41895237Y-129561905D01*
X42161904Y-130133333D01*
X42428571Y-129561905D01*
X42428571Y-130361905D01*
X42771428Y-129638095D02*
X42809523Y-129600000D01*
X42885714Y-129561905D01*
X43076190Y-129561905D01*
X43152380Y-129600000D01*
X43190476Y-129638095D01*
X43228571Y-129714286D01*
X43228571Y-129790476D01*
X43190476Y-129904762D01*
X42733333Y-130361905D01*
X43228571Y-130361905D01*
X43952381Y-129561905D02*
X43571428Y-129561905D01*
X43533333Y-129942857D01*
X43571428Y-129904762D01*
X43647619Y-129866667D01*
X43838095Y-129866667D01*
X43914285Y-129904762D01*
X43952381Y-129942857D01*
X43990476Y-130019048D01*
X43990476Y-130209524D01*
X43952381Y-130285714D01*
X43914285Y-130323810D01*
X43838095Y-130361905D01*
X43647619Y-130361905D01*
X43571428Y-130323810D01*
X43533333Y-130285714D01*
X44752381Y-130361905D02*
X44295238Y-130361905D01*
X44523809Y-130361905D02*
X44523809Y-129561905D01*
X44447619Y-129676190D01*
X44371428Y-129752381D01*
X44295238Y-129790476D01*
X45514286Y-130361905D02*
X45057143Y-130361905D01*
X45285714Y-130361905D02*
X45285714Y-129561905D01*
X45209524Y-129676190D01*
X45133333Y-129752381D01*
X45057143Y-129790476D01*
X46200000Y-129561905D02*
X46047619Y-129561905D01*
X45971429Y-129600000D01*
X45933334Y-129638095D01*
X45857143Y-129752381D01*
X45819048Y-129904762D01*
X45819048Y-130209524D01*
X45857143Y-130285714D01*
X45895238Y-130323810D01*
X45971429Y-130361905D01*
X46123810Y-130361905D01*
X46200000Y-130323810D01*
X46238096Y-130285714D01*
X46276191Y-130209524D01*
X46276191Y-130019048D01*
X46238096Y-129942857D01*
X46200000Y-129904762D01*
X46123810Y-129866667D01*
X45971429Y-129866667D01*
X45895238Y-129904762D01*
X45857143Y-129942857D01*
X45819048Y-130019048D01*
X46619048Y-130361905D02*
X46619048Y-129561905D01*
X46885715Y-130133333D01*
X47152382Y-129561905D01*
X47152382Y-130361905D01*
X47533334Y-130361905D02*
X47533334Y-129561905D01*
X47533334Y-129942857D02*
X47990477Y-129942857D01*
X47990477Y-130361905D02*
X47990477Y-129561905D01*
X48295239Y-129561905D02*
X48828572Y-130361905D01*
X48828572Y-129561905D02*
X48295239Y-130361905D01*
X41133333Y-88361905D02*
X40752380Y-88361905D01*
X40752380Y-87561905D01*
X41399999Y-88361905D02*
X41399999Y-87561905D01*
X41666666Y-88133333D01*
X41933333Y-87561905D01*
X41933333Y-88361905D01*
X42276190Y-87638095D02*
X42314285Y-87600000D01*
X42390476Y-87561905D01*
X42580952Y-87561905D01*
X42657142Y-87600000D01*
X42695238Y-87638095D01*
X42733333Y-87714286D01*
X42733333Y-87790476D01*
X42695238Y-87904762D01*
X42238095Y-88361905D01*
X42733333Y-88361905D01*
X43457143Y-87561905D02*
X43076190Y-87561905D01*
X43038095Y-87942857D01*
X43076190Y-87904762D01*
X43152381Y-87866667D01*
X43342857Y-87866667D01*
X43419047Y-87904762D01*
X43457143Y-87942857D01*
X43495238Y-88019048D01*
X43495238Y-88209524D01*
X43457143Y-88285714D01*
X43419047Y-88323810D01*
X43342857Y-88361905D01*
X43152381Y-88361905D01*
X43076190Y-88323810D01*
X43038095Y-88285714D01*
X43990476Y-87561905D02*
X44066667Y-87561905D01*
X44142857Y-87600000D01*
X44180952Y-87638095D01*
X44219048Y-87714286D01*
X44257143Y-87866667D01*
X44257143Y-88057143D01*
X44219048Y-88209524D01*
X44180952Y-88285714D01*
X44142857Y-88323810D01*
X44066667Y-88361905D01*
X43990476Y-88361905D01*
X43914286Y-88323810D01*
X43876190Y-88285714D01*
X43838095Y-88209524D01*
X43800000Y-88057143D01*
X43800000Y-87866667D01*
X43838095Y-87714286D01*
X43876190Y-87638095D01*
X43914286Y-87600000D01*
X43990476Y-87561905D01*
X44714286Y-87904762D02*
X44638095Y-87866667D01*
X44600000Y-87828571D01*
X44561905Y-87752381D01*
X44561905Y-87714286D01*
X44600000Y-87638095D01*
X44638095Y-87600000D01*
X44714286Y-87561905D01*
X44866667Y-87561905D01*
X44942857Y-87600000D01*
X44980953Y-87638095D01*
X45019048Y-87714286D01*
X45019048Y-87752381D01*
X44980953Y-87828571D01*
X44942857Y-87866667D01*
X44866667Y-87904762D01*
X44714286Y-87904762D01*
X44638095Y-87942857D01*
X44600000Y-87980952D01*
X44561905Y-88057143D01*
X44561905Y-88209524D01*
X44600000Y-88285714D01*
X44638095Y-88323810D01*
X44714286Y-88361905D01*
X44866667Y-88361905D01*
X44942857Y-88323810D01*
X44980953Y-88285714D01*
X45019048Y-88209524D01*
X45019048Y-88057143D01*
X44980953Y-87980952D01*
X44942857Y-87942857D01*
X44866667Y-87904762D01*
X45476191Y-87904762D02*
X45400000Y-87866667D01*
X45361905Y-87828571D01*
X45323810Y-87752381D01*
X45323810Y-87714286D01*
X45361905Y-87638095D01*
X45400000Y-87600000D01*
X45476191Y-87561905D01*
X45628572Y-87561905D01*
X45704762Y-87600000D01*
X45742858Y-87638095D01*
X45780953Y-87714286D01*
X45780953Y-87752381D01*
X45742858Y-87828571D01*
X45704762Y-87866667D01*
X45628572Y-87904762D01*
X45476191Y-87904762D01*
X45400000Y-87942857D01*
X45361905Y-87980952D01*
X45323810Y-88057143D01*
X45323810Y-88209524D01*
X45361905Y-88285714D01*
X45400000Y-88323810D01*
X45476191Y-88361905D01*
X45628572Y-88361905D01*
X45704762Y-88323810D01*
X45742858Y-88285714D01*
X45780953Y-88209524D01*
X45780953Y-88057143D01*
X45742858Y-87980952D01*
X45704762Y-87942857D01*
X45628572Y-87904762D01*
X46123810Y-88057143D02*
X46733334Y-88057143D01*
X47533334Y-88361905D02*
X47076191Y-88361905D01*
X47304762Y-88361905D02*
X47304762Y-87561905D01*
X47228572Y-87676190D01*
X47152381Y-87752381D01*
X47076191Y-87790476D01*
X47876191Y-88361905D02*
X47876191Y-87561905D01*
X48142858Y-88133333D01*
X48409525Y-87561905D01*
X48409525Y-88361905D01*
X48790477Y-88361905D02*
X48790477Y-87561905D01*
X48790477Y-87942857D02*
X49247620Y-87942857D01*
X49247620Y-88361905D02*
X49247620Y-87561905D01*
X61561905Y-99128572D02*
X61561905Y-99280953D01*
X61600000Y-99357143D01*
X61638095Y-99395238D01*
X61752381Y-99471429D01*
X61904762Y-99509524D01*
X62209524Y-99509524D01*
X62285714Y-99471429D01*
X62323810Y-99433334D01*
X62361905Y-99357143D01*
X62361905Y-99204762D01*
X62323810Y-99128572D01*
X62285714Y-99090476D01*
X62209524Y-99052381D01*
X62019048Y-99052381D01*
X61942857Y-99090476D01*
X61904762Y-99128572D01*
X61866667Y-99204762D01*
X61866667Y-99357143D01*
X61904762Y-99433334D01*
X61942857Y-99471429D01*
X62019048Y-99509524D01*
X62361905Y-98252381D02*
X61980952Y-98519048D01*
X62361905Y-98709524D02*
X61561905Y-98709524D01*
X61561905Y-98404762D01*
X61600000Y-98328571D01*
X61638095Y-98290476D01*
X61714286Y-98252381D01*
X61828571Y-98252381D01*
X61904762Y-98290476D01*
X61942857Y-98328571D01*
X61980952Y-98404762D01*
X61980952Y-98709524D01*
X61904762Y-97795238D02*
X61866667Y-97871429D01*
X61828571Y-97909524D01*
X61752381Y-97947619D01*
X61714286Y-97947619D01*
X61638095Y-97909524D01*
X61600000Y-97871429D01*
X61561905Y-97795238D01*
X61561905Y-97642857D01*
X61600000Y-97566667D01*
X61638095Y-97528571D01*
X61714286Y-97490476D01*
X61752381Y-97490476D01*
X61828571Y-97528571D01*
X61866667Y-97566667D01*
X61904762Y-97642857D01*
X61904762Y-97795238D01*
X61942857Y-97871429D01*
X61980952Y-97909524D01*
X62057143Y-97947619D01*
X62209524Y-97947619D01*
X62285714Y-97909524D01*
X62323810Y-97871429D01*
X62361905Y-97795238D01*
X62361905Y-97642857D01*
X62323810Y-97566667D01*
X62285714Y-97528571D01*
X62209524Y-97490476D01*
X62057143Y-97490476D01*
X61980952Y-97528571D01*
X61942857Y-97566667D01*
X61904762Y-97642857D01*
M02*
