G04 #@! TF.FileFunction,Legend,Top*
%FSLAX46Y46*%
G04 Gerber Fmt 4.6, Leading zero omitted, Abs format (unit mm)*
G04 Created by KiCad (PCBNEW (2015-02-06 BZR 5407)-product) date Mon 09 Feb 2015 02:10:55 PM EST*
%MOMM*%
G01*
G04 APERTURE LIST*
%ADD10C,0.100000*%
%ADD11C,0.500000*%
%ADD12C,0.300000*%
%ADD13C,0.250000*%
%ADD14C,0.350000*%
%ADD15C,0.150000*%
%ADD16C,0.381000*%
%ADD17C,0.700000*%
%ADD18C,0.002540*%
%ADD19C,2.000000*%
%ADD20R,3.100000X3.300000*%
%ADD21C,3.000000*%
%ADD22C,2.350000*%
%ADD23C,1.000000*%
%ADD24R,1.000000X1.000000*%
%ADD25R,1.200000X0.900000*%
%ADD26R,0.900000X0.950000*%
%ADD27R,1.150000X1.450000*%
%ADD28R,1.450000X1.150000*%
%ADD29R,0.650000X0.600000*%
%ADD30R,0.600000X0.650000*%
%ADD31R,1.600000X3.000000*%
%ADD32R,2.100000X4.100000*%
%ADD33R,1.600000X3.150000*%
%ADD34R,0.900000X1.200000*%
%ADD35R,0.900000X1.300000*%
%ADD36R,0.800000X1.300000*%
%ADD37C,9.000000*%
%ADD38R,1.450000X2.450000*%
%ADD39R,6.950000X6.950000*%
%ADD40R,1.300000X0.900000*%
%ADD41R,1.300000X0.800000*%
%ADD42R,0.600000X0.600000*%
%ADD43R,3.450000X0.950000*%
%ADD44R,1.050000X1.800000*%
%ADD45R,3.500000X1.400000*%
%ADD46R,1.400000X3.500000*%
%ADD47R,0.600000X1.450000*%
%ADD48R,1.998980X1.998980*%
%ADD49C,1.998980*%
%ADD50R,1.524000X2.286000*%
%ADD51O,1.524000X2.286000*%
%ADD52R,3.150000X1.600000*%
%ADD53R,1.500000X1.500000*%
%ADD54C,1.500000*%
%ADD55R,4.295000X4.510000*%
%ADD56R,0.675000X0.675000*%
%ADD57R,0.655000X0.675000*%
%ADD58R,0.750000X0.675000*%
%ADD59R,4.510000X4.295000*%
%ADD60R,0.675000X0.655000*%
%ADD61R,0.675000X0.750000*%
%ADD62C,1.300000*%
%ADD63O,1.450000X0.450000*%
%ADD64R,3.000000X4.200000*%
%ADD65O,1.500000X0.450000*%
%ADD66R,2.900000X3.550000*%
%ADD67R,3.400000X1.250000*%
G04 APERTURE END LIST*
D10*
D11*
X212750000Y-122000000D02*
X212750000Y-97000000D01*
X201000000Y-97000000D02*
X201000000Y-134000000D01*
X199600000Y-130600000D02*
X199600000Y-97000000D01*
X192750000Y-97000000D02*
X192750000Y-122250000D01*
X181000000Y-134000000D02*
X181000000Y-97000000D01*
X179500000Y-97000000D02*
X179500000Y-131000000D01*
X172750000Y-122250000D02*
X172750000Y-97000000D01*
X161000000Y-97000000D02*
X161000000Y-134000000D01*
X159500000Y-130750000D02*
X159500000Y-97000000D01*
X152750000Y-97000000D02*
X152750000Y-122250000D01*
X141000000Y-134000000D02*
X141000000Y-97000000D01*
X139500000Y-97000000D02*
X139500000Y-131000000D01*
X132750000Y-122250000D02*
X132750000Y-97000000D01*
X121000000Y-97000000D02*
X121000000Y-134000000D01*
X120000000Y-130750000D02*
X120000000Y-97000000D01*
X112750000Y-97250000D02*
X112750000Y-122500000D01*
X101000000Y-134500000D02*
X101000000Y-97500000D01*
X99750000Y-97500000D02*
X99750000Y-130750000D01*
D12*
X85928572Y-80035714D02*
X85857143Y-80107143D01*
X85642857Y-80178571D01*
X85500000Y-80178571D01*
X85285715Y-80107143D01*
X85142857Y-79964286D01*
X85071429Y-79821429D01*
X85000000Y-79535714D01*
X85000000Y-79321429D01*
X85071429Y-79035714D01*
X85142857Y-78892857D01*
X85285715Y-78750000D01*
X85500000Y-78678571D01*
X85642857Y-78678571D01*
X85857143Y-78750000D01*
X85928572Y-78821429D01*
X86571429Y-80178571D02*
X86571429Y-78678571D01*
X87142857Y-78678571D01*
X87285715Y-78750000D01*
X87357143Y-78821429D01*
X87428572Y-78964286D01*
X87428572Y-79178571D01*
X87357143Y-79321429D01*
X87285715Y-79392857D01*
X87142857Y-79464286D01*
X86571429Y-79464286D01*
X88071429Y-78678571D02*
X88071429Y-79892857D01*
X88142857Y-80035714D01*
X88214286Y-80107143D01*
X88357143Y-80178571D01*
X88642857Y-80178571D01*
X88785715Y-80107143D01*
X88857143Y-80035714D01*
X88928572Y-79892857D01*
X88928572Y-78678571D01*
X71892857Y-144178571D02*
X71892857Y-142678571D01*
X72464285Y-142678571D01*
X72607143Y-142750000D01*
X72678571Y-142821429D01*
X72750000Y-142964286D01*
X72750000Y-143178571D01*
X72678571Y-143321429D01*
X72607143Y-143392857D01*
X72464285Y-143464286D01*
X71892857Y-143464286D01*
X73321428Y-143750000D02*
X74035714Y-143750000D01*
X73178571Y-144178571D02*
X73678571Y-142678571D01*
X74178571Y-144178571D01*
X74678571Y-144178571D02*
X74678571Y-142678571D01*
X75535714Y-144178571D01*
X75535714Y-142678571D01*
X76250000Y-143392857D02*
X76750000Y-143392857D01*
X76964286Y-144178571D02*
X76250000Y-144178571D01*
X76250000Y-142678571D01*
X76964286Y-142678571D01*
X78321429Y-144178571D02*
X77607143Y-144178571D01*
X77607143Y-142678571D01*
D11*
X47500000Y-150500000D02*
X47500000Y-136500000D01*
X63000000Y-150500000D02*
X47500000Y-150500000D01*
X63000000Y-136500000D02*
X63000000Y-150500000D01*
X47500000Y-136500000D02*
X63000000Y-136500000D01*
D12*
X58571429Y-147928571D02*
X58857143Y-147928571D01*
X59000001Y-148000000D01*
X59142858Y-148142857D01*
X59214286Y-148428571D01*
X59214286Y-148928571D01*
X59142858Y-149214286D01*
X59000001Y-149357143D01*
X58857143Y-149428571D01*
X58571429Y-149428571D01*
X58428572Y-149357143D01*
X58285715Y-149214286D01*
X58214286Y-148928571D01*
X58214286Y-148428571D01*
X58285715Y-148142857D01*
X58428572Y-148000000D01*
X58571429Y-147928571D01*
X60357144Y-148642857D02*
X59857144Y-148642857D01*
X59857144Y-149428571D02*
X59857144Y-147928571D01*
X60571430Y-147928571D01*
X61642858Y-148642857D02*
X61142858Y-148642857D01*
X61142858Y-149428571D02*
X61142858Y-147928571D01*
X61857144Y-147928571D01*
X59071428Y-144428571D02*
X59357142Y-144428571D01*
X59500000Y-144500000D01*
X59642857Y-144642857D01*
X59714285Y-144928571D01*
X59714285Y-145428571D01*
X59642857Y-145714286D01*
X59500000Y-145857143D01*
X59357142Y-145928571D01*
X59071428Y-145928571D01*
X58928571Y-145857143D01*
X58785714Y-145714286D01*
X58714285Y-145428571D01*
X58714285Y-144928571D01*
X58785714Y-144642857D01*
X58928571Y-144500000D01*
X59071428Y-144428571D01*
X60357143Y-145928571D02*
X60357143Y-144428571D01*
X61214286Y-145928571D01*
X61214286Y-144428571D01*
X58928572Y-142285714D02*
X58857143Y-142357143D01*
X58642857Y-142428571D01*
X58500000Y-142428571D01*
X58285715Y-142357143D01*
X58142857Y-142214286D01*
X58071429Y-142071429D01*
X58000000Y-141785714D01*
X58000000Y-141571429D01*
X58071429Y-141285714D01*
X58142857Y-141142857D01*
X58285715Y-141000000D01*
X58500000Y-140928571D01*
X58642857Y-140928571D01*
X58857143Y-141000000D01*
X58928572Y-141071429D01*
X59571429Y-142428571D02*
X59571429Y-140928571D01*
X60142857Y-140928571D01*
X60285715Y-141000000D01*
X60357143Y-141071429D01*
X60428572Y-141214286D01*
X60428572Y-141428571D01*
X60357143Y-141571429D01*
X60285715Y-141642857D01*
X60142857Y-141714286D01*
X59571429Y-141714286D01*
X61071429Y-140928571D02*
X61071429Y-142142857D01*
X61142857Y-142285714D01*
X61214286Y-142357143D01*
X61357143Y-142428571D01*
X61642857Y-142428571D01*
X61785715Y-142357143D01*
X61857143Y-142285714D01*
X61928572Y-142142857D01*
X61928572Y-140928571D01*
D11*
X54500000Y-149000000D02*
X54500000Y-148500000D01*
X55000000Y-149000000D02*
X54500000Y-149000000D01*
X55000000Y-148500000D02*
X55000000Y-149000000D01*
X54500000Y-148500000D02*
X55000000Y-148500000D01*
X52000000Y-149000000D02*
X52000000Y-148500000D01*
X52500000Y-149000000D02*
X52000000Y-149000000D01*
X52500000Y-148500000D02*
X52500000Y-149000000D01*
X52000000Y-148500000D02*
X52500000Y-148500000D01*
X49500000Y-149000000D02*
X49500000Y-148500000D01*
X50000000Y-149000000D02*
X49500000Y-149000000D01*
X50000000Y-148500000D02*
X50000000Y-149000000D01*
X49500000Y-148500000D02*
X50000000Y-148500000D01*
X51000000Y-146500000D02*
X51000000Y-144000000D01*
X56000000Y-146500000D02*
X51000000Y-146500000D01*
X56000000Y-144000000D02*
X56000000Y-146500000D01*
X51000000Y-144000000D02*
X56000000Y-144000000D01*
X54500000Y-145500000D02*
X54500000Y-145000000D01*
X55000000Y-145500000D02*
X54500000Y-145500000D01*
X55000000Y-145000000D02*
X55000000Y-145500000D01*
X54500000Y-145000000D02*
X55000000Y-145000000D01*
X52000000Y-145500000D02*
X52000000Y-145000000D01*
X52500000Y-145500000D02*
X52000000Y-145500000D01*
X52500000Y-145000000D02*
X52500000Y-145500000D01*
X52000000Y-145000000D02*
X52500000Y-145000000D01*
X50000000Y-145000000D02*
X49500000Y-145000000D01*
X50000000Y-145500000D02*
X50000000Y-145000000D01*
X49500000Y-145500000D02*
X50000000Y-145500000D01*
X49500000Y-145000000D02*
X49500000Y-145500000D01*
X53500000Y-143000000D02*
X53500000Y-142500000D01*
X48500000Y-143000000D02*
X53500000Y-143000000D01*
X48500000Y-142500000D02*
X48500000Y-143000000D01*
X48500000Y-140500000D02*
X48500000Y-142500000D01*
X49500000Y-140500000D02*
X48500000Y-140500000D01*
X55000000Y-141500000D02*
X54500000Y-141500000D01*
X55000000Y-142000000D02*
X55000000Y-141500000D01*
X54500000Y-142000000D02*
X55000000Y-142000000D01*
X54500000Y-141500000D02*
X54500000Y-142000000D01*
X53500000Y-140500000D02*
X53500000Y-142500000D01*
X49500000Y-140500000D02*
X53500000Y-140500000D01*
X52500000Y-141500000D02*
X52000000Y-141500000D01*
X52500000Y-142000000D02*
X52500000Y-141500000D01*
X52000000Y-142000000D02*
X52500000Y-142000000D01*
X52000000Y-141500000D02*
X52000000Y-142000000D01*
X50000000Y-141500000D02*
X49500000Y-141500000D01*
X50000000Y-142000000D02*
X50000000Y-141500000D01*
X49500000Y-142000000D02*
X50000000Y-142000000D01*
X49500000Y-141500000D02*
X49500000Y-142000000D01*
D13*
X49273810Y-137842857D02*
X49273810Y-138700000D01*
X49226190Y-138871429D01*
X49130952Y-138985714D01*
X48988095Y-139042857D01*
X48892857Y-139042857D01*
X49750000Y-139042857D02*
X49750000Y-137842857D01*
X50130953Y-137842857D01*
X50226191Y-137900000D01*
X50273810Y-137957143D01*
X50321429Y-138071429D01*
X50321429Y-138242857D01*
X50273810Y-138357143D01*
X50226191Y-138414286D01*
X50130953Y-138471429D01*
X49750000Y-138471429D01*
X51273810Y-139042857D02*
X50702381Y-139042857D01*
X50988095Y-139042857D02*
X50988095Y-137842857D01*
X50892857Y-138014286D01*
X50797619Y-138128571D01*
X50702381Y-138185714D01*
X51750000Y-138985714D02*
X51750000Y-139042857D01*
X51702381Y-139157143D01*
X51654762Y-139214286D01*
X53226191Y-137842857D02*
X53226191Y-138700000D01*
X53178571Y-138871429D01*
X53083333Y-138985714D01*
X52940476Y-139042857D01*
X52845238Y-139042857D01*
X53702381Y-139042857D02*
X53702381Y-137842857D01*
X54083334Y-137842857D01*
X54178572Y-137900000D01*
X54226191Y-137957143D01*
X54273810Y-138071429D01*
X54273810Y-138242857D01*
X54226191Y-138357143D01*
X54178572Y-138414286D01*
X54083334Y-138471429D01*
X53702381Y-138471429D01*
X54654762Y-137957143D02*
X54702381Y-137900000D01*
X54797619Y-137842857D01*
X55035715Y-137842857D01*
X55130953Y-137900000D01*
X55178572Y-137957143D01*
X55226191Y-138071429D01*
X55226191Y-138185714D01*
X55178572Y-138357143D01*
X54607143Y-139042857D01*
X55226191Y-139042857D01*
X55654762Y-138928571D02*
X55702381Y-138985714D01*
X55654762Y-139042857D01*
X55607143Y-138985714D01*
X55654762Y-138928571D01*
X55654762Y-139042857D01*
X55654762Y-138300000D02*
X55702381Y-138357143D01*
X55654762Y-138414286D01*
X55607143Y-138357143D01*
X55654762Y-138300000D01*
X55654762Y-138414286D01*
X56892857Y-139042857D02*
X56892857Y-137842857D01*
X57273810Y-137842857D01*
X57369048Y-137900000D01*
X57416667Y-137957143D01*
X57464286Y-138071429D01*
X57464286Y-138242857D01*
X57416667Y-138357143D01*
X57369048Y-138414286D01*
X57273810Y-138471429D01*
X56892857Y-138471429D01*
X58083333Y-137842857D02*
X58273810Y-137842857D01*
X58369048Y-137900000D01*
X58464286Y-138014286D01*
X58511905Y-138242857D01*
X58511905Y-138642857D01*
X58464286Y-138871429D01*
X58369048Y-138985714D01*
X58273810Y-139042857D01*
X58083333Y-139042857D01*
X57988095Y-138985714D01*
X57892857Y-138871429D01*
X57845238Y-138642857D01*
X57845238Y-138242857D01*
X57892857Y-138014286D01*
X57988095Y-137900000D01*
X58083333Y-137842857D01*
X58845238Y-137842857D02*
X59083333Y-139042857D01*
X59273810Y-138185714D01*
X59464286Y-139042857D01*
X59702381Y-137842857D01*
X60083333Y-138414286D02*
X60416667Y-138414286D01*
X60559524Y-139042857D02*
X60083333Y-139042857D01*
X60083333Y-137842857D01*
X60559524Y-137842857D01*
X61559524Y-139042857D02*
X61226190Y-138471429D01*
X60988095Y-139042857D02*
X60988095Y-137842857D01*
X61369048Y-137842857D01*
X61464286Y-137900000D01*
X61511905Y-137957143D01*
X61559524Y-138071429D01*
X61559524Y-138242857D01*
X61511905Y-138357143D01*
X61464286Y-138414286D01*
X61369048Y-138471429D01*
X60988095Y-138471429D01*
D12*
X133142858Y-60542857D02*
X132457143Y-60542857D01*
X132800001Y-60542857D02*
X132800001Y-59342857D01*
X132685715Y-59514286D01*
X132571429Y-59628571D01*
X132457143Y-59685714D01*
X133600000Y-59457143D02*
X133657143Y-59400000D01*
X133771429Y-59342857D01*
X134057143Y-59342857D01*
X134171429Y-59400000D01*
X134228572Y-59457143D01*
X134285715Y-59571429D01*
X134285715Y-59685714D01*
X134228572Y-59857143D01*
X133542858Y-60542857D01*
X134285715Y-60542857D01*
X134628572Y-59342857D02*
X135028572Y-60542857D01*
X135428572Y-59342857D01*
X137142857Y-59914286D02*
X136742857Y-59914286D01*
X136742857Y-60542857D02*
X136742857Y-59342857D01*
X137314286Y-59342857D01*
X137714285Y-60200000D02*
X138285714Y-60200000D01*
X137600000Y-60542857D02*
X138000000Y-59342857D01*
X138400000Y-60542857D01*
X138799999Y-60542857D02*
X138799999Y-59342857D01*
X139485714Y-60542857D01*
X139485714Y-59342857D01*
X133142857Y-62085714D02*
X134057143Y-62085714D01*
X135542857Y-62085714D02*
X136457143Y-62085714D01*
X136000000Y-62542857D02*
X136000000Y-61628571D01*
X137942857Y-62085714D02*
X138857143Y-62085714D01*
X114857144Y-74178571D02*
X114000001Y-74178571D01*
X114428573Y-74178571D02*
X114428573Y-72678571D01*
X114285716Y-72892857D01*
X114142858Y-73035714D01*
X114000001Y-73107143D01*
X116142858Y-72678571D02*
X115857144Y-72678571D01*
X115714287Y-72750000D01*
X115642858Y-72821429D01*
X115500001Y-73035714D01*
X115428572Y-73321429D01*
X115428572Y-73892857D01*
X115500001Y-74035714D01*
X115571429Y-74107143D01*
X115714287Y-74178571D01*
X116000001Y-74178571D01*
X116142858Y-74107143D01*
X116214287Y-74035714D01*
X116285715Y-73892857D01*
X116285715Y-73535714D01*
X116214287Y-73392857D01*
X116142858Y-73321429D01*
X116000001Y-73250000D01*
X115714287Y-73250000D01*
X115571429Y-73321429D01*
X115500001Y-73392857D01*
X115428572Y-73535714D01*
X116928572Y-73607143D02*
X118071429Y-73607143D01*
X118714286Y-72821429D02*
X118785715Y-72750000D01*
X118928572Y-72678571D01*
X119285715Y-72678571D01*
X119428572Y-72750000D01*
X119500001Y-72821429D01*
X119571429Y-72964286D01*
X119571429Y-73107143D01*
X119500001Y-73321429D01*
X118642858Y-74178571D01*
X119571429Y-74178571D01*
X120928572Y-72678571D02*
X120214286Y-72678571D01*
X120142857Y-73392857D01*
X120214286Y-73321429D01*
X120357143Y-73250000D01*
X120714286Y-73250000D01*
X120857143Y-73321429D01*
X120928572Y-73392857D01*
X121000000Y-73535714D01*
X121000000Y-73892857D01*
X120928572Y-74035714D01*
X120857143Y-74107143D01*
X120714286Y-74178571D01*
X120357143Y-74178571D01*
X120214286Y-74107143D01*
X120142857Y-74035714D01*
X121428571Y-72678571D02*
X121928571Y-74178571D01*
X122428571Y-72678571D01*
X124714285Y-72678571D02*
X124428571Y-72678571D01*
X124285714Y-72750000D01*
X124214285Y-72821429D01*
X124071428Y-73035714D01*
X123999999Y-73321429D01*
X123999999Y-73892857D01*
X124071428Y-74035714D01*
X124142856Y-74107143D01*
X124285714Y-74178571D01*
X124571428Y-74178571D01*
X124714285Y-74107143D01*
X124785714Y-74035714D01*
X124857142Y-73892857D01*
X124857142Y-73535714D01*
X124785714Y-73392857D01*
X124714285Y-73321429D01*
X124571428Y-73250000D01*
X124285714Y-73250000D01*
X124142856Y-73321429D01*
X124071428Y-73392857D01*
X123999999Y-73535714D01*
X126214285Y-72678571D02*
X125499999Y-72678571D01*
X125428570Y-73392857D01*
X125499999Y-73321429D01*
X125642856Y-73250000D01*
X125999999Y-73250000D01*
X126142856Y-73321429D01*
X126214285Y-73392857D01*
X126285713Y-73535714D01*
X126285713Y-73892857D01*
X126214285Y-74035714D01*
X126142856Y-74107143D01*
X125999999Y-74178571D01*
X125642856Y-74178571D01*
X125499999Y-74107143D01*
X125428570Y-74035714D01*
X126785713Y-72678571D02*
X127142856Y-74178571D01*
X127428570Y-73107143D01*
X127714284Y-74178571D01*
X128071427Y-72678571D01*
X117428572Y-71107143D02*
X118571429Y-71107143D01*
X120428572Y-71107143D02*
X121571429Y-71107143D01*
X121000000Y-71678571D02*
X121000000Y-70535714D01*
X123428572Y-71107143D02*
X124571429Y-71107143D01*
D11*
X42000000Y-135500000D02*
X40500000Y-134000000D01*
X146000000Y-83000000D02*
X146000000Y-66000000D01*
X207000000Y-83000000D02*
X146000000Y-83000000D01*
X207000000Y-66000000D02*
X207000000Y-83000000D01*
X146000000Y-66000000D02*
X207000000Y-66000000D01*
D12*
X166178571Y-79178571D02*
X166535714Y-80678571D01*
X166821428Y-79607143D01*
X167107142Y-80678571D01*
X167464285Y-79178571D01*
X167964285Y-80250000D02*
X168678571Y-80250000D01*
X167821428Y-80678571D02*
X168321428Y-79178571D01*
X168821428Y-80678571D01*
X170178571Y-80678571D02*
X169678571Y-79964286D01*
X169321428Y-80678571D02*
X169321428Y-79178571D01*
X169892856Y-79178571D01*
X170035714Y-79250000D01*
X170107142Y-79321429D01*
X170178571Y-79464286D01*
X170178571Y-79678571D01*
X170107142Y-79821429D01*
X170035714Y-79892857D01*
X169892856Y-79964286D01*
X169321428Y-79964286D01*
X170821428Y-80678571D02*
X170821428Y-79178571D01*
X171678571Y-80678571D01*
X171678571Y-79178571D01*
X172392857Y-80678571D02*
X172392857Y-79178571D01*
X173107143Y-80678571D02*
X173107143Y-79178571D01*
X173964286Y-80678571D01*
X173964286Y-79178571D01*
X175464286Y-79250000D02*
X175321429Y-79178571D01*
X175107143Y-79178571D01*
X174892858Y-79250000D01*
X174750000Y-79392857D01*
X174678572Y-79535714D01*
X174607143Y-79821429D01*
X174607143Y-80035714D01*
X174678572Y-80321429D01*
X174750000Y-80464286D01*
X174892858Y-80607143D01*
X175107143Y-80678571D01*
X175250000Y-80678571D01*
X175464286Y-80607143D01*
X175535715Y-80535714D01*
X175535715Y-80035714D01*
X175250000Y-80035714D01*
X176178572Y-80535714D02*
X176250000Y-80607143D01*
X176178572Y-80678571D01*
X176107143Y-80607143D01*
X176178572Y-80535714D01*
X176178572Y-80678571D01*
X176178572Y-79750000D02*
X176250000Y-79821429D01*
X176178572Y-79892857D01*
X176107143Y-79821429D01*
X176178572Y-79750000D01*
X176178572Y-79892857D01*
X178035715Y-80678571D02*
X178035715Y-79178571D01*
X178892858Y-80678571D01*
X178892858Y-79178571D01*
X179892858Y-79178571D02*
X180178572Y-79178571D01*
X180321430Y-79250000D01*
X180464287Y-79392857D01*
X180535715Y-79678571D01*
X180535715Y-80178571D01*
X180464287Y-80464286D01*
X180321430Y-80607143D01*
X180178572Y-80678571D01*
X179892858Y-80678571D01*
X179750001Y-80607143D01*
X179607144Y-80464286D01*
X179535715Y-80178571D01*
X179535715Y-79678571D01*
X179607144Y-79392857D01*
X179750001Y-79250000D01*
X179892858Y-79178571D01*
X180964287Y-79178571D02*
X181821430Y-79178571D01*
X181392859Y-80678571D02*
X181392859Y-79178571D01*
X183464287Y-80678571D02*
X183464287Y-79178571D01*
X184035715Y-79178571D01*
X184178573Y-79250000D01*
X184250001Y-79321429D01*
X184321430Y-79464286D01*
X184321430Y-79678571D01*
X184250001Y-79821429D01*
X184178573Y-79892857D01*
X184035715Y-79964286D01*
X183464287Y-79964286D01*
X185821430Y-80535714D02*
X185750001Y-80607143D01*
X185535715Y-80678571D01*
X185392858Y-80678571D01*
X185178573Y-80607143D01*
X185035715Y-80464286D01*
X184964287Y-80321429D01*
X184892858Y-80035714D01*
X184892858Y-79821429D01*
X184964287Y-79535714D01*
X185035715Y-79392857D01*
X185178573Y-79250000D01*
X185392858Y-79178571D01*
X185535715Y-79178571D01*
X185750001Y-79250000D01*
X185821430Y-79321429D01*
X186464287Y-80678571D02*
X186464287Y-79178571D01*
X187750001Y-80607143D02*
X187607144Y-80678571D01*
X187321430Y-80678571D01*
X187178573Y-80607143D01*
X187107144Y-80464286D01*
X187107144Y-79892857D01*
X187178573Y-79750000D01*
X187321430Y-79678571D01*
X187607144Y-79678571D01*
X187750001Y-79750000D01*
X187821430Y-79892857D01*
X187821430Y-80035714D01*
X187107144Y-80178571D01*
X189535715Y-80607143D02*
X189750001Y-80678571D01*
X190107144Y-80678571D01*
X190250001Y-80607143D01*
X190321430Y-80535714D01*
X190392858Y-80392857D01*
X190392858Y-80250000D01*
X190321430Y-80107143D01*
X190250001Y-80035714D01*
X190107144Y-79964286D01*
X189821430Y-79892857D01*
X189678572Y-79821429D01*
X189607144Y-79750000D01*
X189535715Y-79607143D01*
X189535715Y-79464286D01*
X189607144Y-79321429D01*
X189678572Y-79250000D01*
X189821430Y-79178571D01*
X190178572Y-79178571D01*
X190392858Y-79250000D01*
X191750001Y-80678571D02*
X191035715Y-80678571D01*
X191035715Y-79178571D01*
X192535715Y-79178571D02*
X192821429Y-79178571D01*
X192964287Y-79250000D01*
X193107144Y-79392857D01*
X193178572Y-79678571D01*
X193178572Y-80178571D01*
X193107144Y-80464286D01*
X192964287Y-80607143D01*
X192821429Y-80678571D01*
X192535715Y-80678571D01*
X192392858Y-80607143D01*
X192250001Y-80464286D01*
X192178572Y-80178571D01*
X192178572Y-79678571D01*
X192250001Y-79392857D01*
X192392858Y-79250000D01*
X192535715Y-79178571D01*
X193607144Y-79178571D02*
X194464287Y-79178571D01*
X194035716Y-80678571D02*
X194035716Y-79178571D01*
X194892858Y-80607143D02*
X195107144Y-80678571D01*
X195464287Y-80678571D01*
X195607144Y-80607143D01*
X195678573Y-80535714D01*
X195750001Y-80392857D01*
X195750001Y-80250000D01*
X195678573Y-80107143D01*
X195607144Y-80035714D01*
X195464287Y-79964286D01*
X195178573Y-79892857D01*
X195035715Y-79821429D01*
X194964287Y-79750000D01*
X194892858Y-79607143D01*
X194892858Y-79464286D01*
X194964287Y-79321429D01*
X195035715Y-79250000D01*
X195178573Y-79178571D01*
X195535715Y-79178571D01*
X195750001Y-79250000D01*
X191857145Y-75857143D02*
X191357145Y-75857143D01*
X191357145Y-76904762D02*
X191357145Y-74904762D01*
X192071431Y-74904762D01*
X192642859Y-75857143D02*
X193142859Y-75857143D01*
X193357145Y-76904762D02*
X192642859Y-76904762D01*
X192642859Y-74904762D01*
X193357145Y-74904762D01*
X194500002Y-75857143D02*
X194714288Y-75952381D01*
X194785716Y-76047619D01*
X194857145Y-76238095D01*
X194857145Y-76523810D01*
X194785716Y-76714286D01*
X194714288Y-76809524D01*
X194571430Y-76904762D01*
X194000002Y-76904762D01*
X194000002Y-74904762D01*
X194500002Y-74904762D01*
X194642859Y-75000000D01*
X194714288Y-75095238D01*
X194785716Y-75285714D01*
X194785716Y-75476190D01*
X194714288Y-75666667D01*
X194642859Y-75761905D01*
X194500002Y-75857143D01*
X194000002Y-75857143D01*
X196571430Y-75095238D02*
X196642859Y-75000000D01*
X196785716Y-74904762D01*
X197142859Y-74904762D01*
X197285716Y-75000000D01*
X197357145Y-75095238D01*
X197428573Y-75285714D01*
X197428573Y-75476190D01*
X197357145Y-75761905D01*
X196500002Y-76904762D01*
X197428573Y-76904762D01*
X198357144Y-74904762D02*
X198500001Y-74904762D01*
X198642858Y-75000000D01*
X198714287Y-75095238D01*
X198785716Y-75285714D01*
X198857144Y-75666667D01*
X198857144Y-76142857D01*
X198785716Y-76523810D01*
X198714287Y-76714286D01*
X198642858Y-76809524D01*
X198500001Y-76904762D01*
X198357144Y-76904762D01*
X198214287Y-76809524D01*
X198142858Y-76714286D01*
X198071430Y-76523810D01*
X198000001Y-76142857D01*
X198000001Y-75666667D01*
X198071430Y-75285714D01*
X198142858Y-75095238D01*
X198214287Y-75000000D01*
X198357144Y-74904762D01*
X200285715Y-76904762D02*
X199428572Y-76904762D01*
X199857144Y-76904762D02*
X199857144Y-74904762D01*
X199714287Y-75190476D01*
X199571429Y-75380952D01*
X199428572Y-75476190D01*
X201642858Y-74904762D02*
X200928572Y-74904762D01*
X200857143Y-75857143D01*
X200928572Y-75761905D01*
X201071429Y-75666667D01*
X201428572Y-75666667D01*
X201571429Y-75761905D01*
X201642858Y-75857143D01*
X201714286Y-76047619D01*
X201714286Y-76523810D01*
X201642858Y-76714286D01*
X201571429Y-76809524D01*
X201428572Y-76904762D01*
X201071429Y-76904762D01*
X200928572Y-76809524D01*
X200857143Y-76714286D01*
X162214286Y-76714286D02*
X162142857Y-76809524D01*
X161928571Y-76904762D01*
X161785714Y-76904762D01*
X161571429Y-76809524D01*
X161428571Y-76619048D01*
X161357143Y-76428571D01*
X161285714Y-76047619D01*
X161285714Y-75761905D01*
X161357143Y-75380952D01*
X161428571Y-75190476D01*
X161571429Y-75000000D01*
X161785714Y-74904762D01*
X161928571Y-74904762D01*
X162142857Y-75000000D01*
X162214286Y-75095238D01*
X162857143Y-76904762D02*
X162857143Y-74904762D01*
X162857143Y-75857143D02*
X163714286Y-75857143D01*
X163714286Y-76904762D02*
X163714286Y-74904762D01*
X165285715Y-76904762D02*
X164785715Y-75952381D01*
X164428572Y-76904762D02*
X164428572Y-74904762D01*
X165000000Y-74904762D01*
X165142858Y-75000000D01*
X165214286Y-75095238D01*
X165285715Y-75285714D01*
X165285715Y-75571429D01*
X165214286Y-75761905D01*
X165142858Y-75857143D01*
X165000000Y-75952381D01*
X164428572Y-75952381D01*
X165928572Y-76904762D02*
X165928572Y-74904762D01*
X166571429Y-76809524D02*
X166785715Y-76904762D01*
X167142858Y-76904762D01*
X167285715Y-76809524D01*
X167357144Y-76714286D01*
X167428572Y-76523810D01*
X167428572Y-76333333D01*
X167357144Y-76142857D01*
X167285715Y-76047619D01*
X167142858Y-75952381D01*
X166857144Y-75857143D01*
X166714286Y-75761905D01*
X166642858Y-75666667D01*
X166571429Y-75476190D01*
X166571429Y-75285714D01*
X166642858Y-75095238D01*
X166714286Y-75000000D01*
X166857144Y-74904762D01*
X167214286Y-74904762D01*
X167428572Y-75000000D01*
X169214286Y-76904762D02*
X169214286Y-74904762D01*
X169785714Y-74904762D01*
X169928572Y-75000000D01*
X170000000Y-75095238D01*
X170071429Y-75285714D01*
X170071429Y-75571429D01*
X170000000Y-75761905D01*
X169928572Y-75857143D01*
X169785714Y-75952381D01*
X169214286Y-75952381D01*
X170642857Y-76333333D02*
X171357143Y-76333333D01*
X170500000Y-76904762D02*
X171000000Y-74904762D01*
X171500000Y-76904762D01*
X171785714Y-74904762D02*
X172285714Y-76904762D01*
X172785714Y-74904762D01*
X174000000Y-76904762D02*
X173285714Y-76904762D01*
X173285714Y-74904762D01*
X174500000Y-76904762D02*
X174500000Y-74904762D01*
X175214286Y-76904762D02*
X175214286Y-74904762D01*
X176071429Y-76904762D01*
X176071429Y-74904762D01*
X176714286Y-76333333D02*
X177428572Y-76333333D01*
X176571429Y-76904762D02*
X177071429Y-74904762D01*
X177571429Y-76904762D01*
D11*
X178285714Y-70714286D02*
X178714285Y-70904762D01*
X178857142Y-71095238D01*
X178999999Y-71476190D01*
X178999999Y-72047619D01*
X178857142Y-72428571D01*
X178714285Y-72619048D01*
X178428571Y-72809524D01*
X177285714Y-72809524D01*
X177285714Y-68809524D01*
X178285714Y-68809524D01*
X178571428Y-69000000D01*
X178714285Y-69190476D01*
X178857142Y-69571429D01*
X178857142Y-69952381D01*
X178714285Y-70333333D01*
X178571428Y-70523810D01*
X178285714Y-70714286D01*
X177285714Y-70714286D01*
X180142857Y-71666667D02*
X181571428Y-71666667D01*
X179857142Y-72809524D02*
X180857142Y-68809524D01*
X181857142Y-72809524D01*
X184571428Y-72428571D02*
X184428571Y-72619048D01*
X184000000Y-72809524D01*
X183714286Y-72809524D01*
X183285714Y-72619048D01*
X183000000Y-72238095D01*
X182857143Y-71857143D01*
X182714286Y-71095238D01*
X182714286Y-70523810D01*
X182857143Y-69761905D01*
X183000000Y-69380952D01*
X183285714Y-69000000D01*
X183714286Y-68809524D01*
X184000000Y-68809524D01*
X184428571Y-69000000D01*
X184571428Y-69190476D01*
X185857143Y-72809524D02*
X185857143Y-68809524D01*
X187571428Y-72809524D02*
X186285714Y-70523810D01*
X187571428Y-68809524D02*
X185857143Y-71095238D01*
X188857143Y-72809524D02*
X188857143Y-68809524D01*
X190000000Y-68809524D01*
X190285714Y-69000000D01*
X190428571Y-69190476D01*
X190571428Y-69571429D01*
X190571428Y-70142857D01*
X190428571Y-70523810D01*
X190285714Y-70714286D01*
X190000000Y-70904762D01*
X188857143Y-70904762D01*
X193285714Y-72809524D02*
X191857143Y-72809524D01*
X191857143Y-68809524D01*
X194142857Y-71666667D02*
X195571428Y-71666667D01*
X193857142Y-72809524D02*
X194857142Y-68809524D01*
X195857142Y-72809524D01*
X196857143Y-72809524D02*
X196857143Y-68809524D01*
X198571428Y-72809524D01*
X198571428Y-68809524D01*
X200000000Y-70714286D02*
X201000000Y-70714286D01*
X201428571Y-72809524D02*
X200000000Y-72809524D01*
X200000000Y-68809524D01*
X201428571Y-68809524D01*
D14*
X107000000Y-74300000D02*
X107000000Y-59700000D01*
X107000000Y-59700000D02*
X111000000Y-59700000D01*
X111000000Y-59700000D02*
X111000000Y-74300000D01*
X111000000Y-74300000D02*
X107000000Y-74300000D01*
X71600000Y-119250000D02*
X71600000Y-132750000D01*
X56400000Y-119250000D02*
X71600000Y-119250000D01*
X56400000Y-132750000D02*
X56400000Y-119250000D01*
X71600000Y-132750000D02*
X56400000Y-132750000D01*
D12*
X127200000Y-68200000D02*
X114800000Y-68200000D01*
X127200000Y-59800000D02*
X127200000Y-69200000D01*
X114800000Y-59800000D02*
X127200000Y-59800000D01*
X114800000Y-69200000D02*
X114800000Y-59800000D01*
X127200000Y-69200000D02*
X114800000Y-69200000D01*
D15*
X54000000Y-127250000D02*
X52500000Y-127250000D01*
X52450000Y-130900000D02*
X52450000Y-128100000D01*
X54050000Y-129100000D02*
X52450000Y-129100000D01*
X52450000Y-128900000D02*
X54050000Y-128900000D01*
X54050000Y-128700000D02*
X52450000Y-128700000D01*
X54050000Y-128100000D02*
X54050000Y-130900000D01*
D14*
X42954000Y-82471000D02*
X43046000Y-82471000D01*
X43046000Y-82471000D02*
X42954000Y-82471000D01*
X42954000Y-82029000D02*
X43046000Y-82029000D01*
X43046000Y-82029000D02*
X42954000Y-82029000D01*
X99929000Y-60471000D02*
X100071000Y-60471000D01*
X100071000Y-60471000D02*
X99929000Y-60471000D01*
X99929000Y-59529000D02*
X100071000Y-59529000D01*
X100071000Y-59529000D02*
X99929000Y-59529000D01*
X85471000Y-69071000D02*
X85471000Y-68929000D01*
X85471000Y-68929000D02*
X85471000Y-69071000D01*
X84529000Y-69071000D02*
X84529000Y-68929000D01*
X84529000Y-68929000D02*
X84529000Y-69071000D01*
X44846000Y-91979000D02*
X44754000Y-91979000D01*
X44754000Y-91979000D02*
X44846000Y-91979000D01*
X44846000Y-92421000D02*
X44754000Y-92421000D01*
X44754000Y-92421000D02*
X44846000Y-92421000D01*
X38796000Y-85029000D02*
X38704000Y-85029000D01*
X38704000Y-85029000D02*
X38796000Y-85029000D01*
X38796000Y-85471000D02*
X38704000Y-85471000D01*
X38704000Y-85471000D02*
X38796000Y-85471000D01*
X42679000Y-124221000D02*
X42821000Y-124221000D01*
X42821000Y-124221000D02*
X42679000Y-124221000D01*
X42679000Y-123279000D02*
X42821000Y-123279000D01*
X42821000Y-123279000D02*
X42679000Y-123279000D01*
X38796000Y-130779000D02*
X38704000Y-130779000D01*
X38704000Y-130779000D02*
X38796000Y-130779000D01*
X38796000Y-131221000D02*
X38704000Y-131221000D01*
X38704000Y-131221000D02*
X38796000Y-131221000D01*
X51071000Y-125279000D02*
X50929000Y-125279000D01*
X50929000Y-125279000D02*
X51071000Y-125279000D01*
X51071000Y-126221000D02*
X50929000Y-126221000D01*
X50929000Y-126221000D02*
X51071000Y-126221000D01*
X50729000Y-86729000D02*
X50729000Y-86871000D01*
X50729000Y-86871000D02*
X50729000Y-86729000D01*
X51671000Y-86729000D02*
X51671000Y-86871000D01*
X51671000Y-86871000D02*
X51671000Y-86729000D01*
X51721000Y-129571000D02*
X51721000Y-129429000D01*
X51721000Y-129429000D02*
X51721000Y-129571000D01*
X50779000Y-129571000D02*
X50779000Y-129429000D01*
X50779000Y-129429000D02*
X50779000Y-129571000D01*
X47321000Y-83029000D02*
X47179000Y-83029000D01*
X47179000Y-83029000D02*
X47321000Y-83029000D01*
X47321000Y-83971000D02*
X47179000Y-83971000D01*
X47179000Y-83971000D02*
X47321000Y-83971000D01*
X62046000Y-103279000D02*
X61954000Y-103279000D01*
X61954000Y-103279000D02*
X62046000Y-103279000D01*
X62046000Y-103721000D02*
X61954000Y-103721000D01*
X61954000Y-103721000D02*
X62046000Y-103721000D01*
X68819000Y-111350000D02*
X67350000Y-111350000D01*
X67350000Y-111350000D02*
X67350000Y-115325000D01*
X67350000Y-115325000D02*
X68675000Y-116650000D01*
X68675000Y-116650000D02*
X68819000Y-116650000D01*
X71181000Y-111350000D02*
X72650000Y-111350000D01*
X72650000Y-111350000D02*
X72650000Y-115325000D01*
X72650000Y-115325000D02*
X71325000Y-116650000D01*
X71325000Y-116650000D02*
X71181000Y-116650000D01*
X68438000Y-117539000D02*
X68311000Y-117412000D01*
X68311000Y-117412000D02*
X68438000Y-117285000D01*
X68438000Y-117285000D02*
X68565000Y-117412000D01*
X68565000Y-117412000D02*
X68438000Y-117539000D01*
X70931000Y-107150000D02*
X74650000Y-107150000D01*
X74650000Y-107150000D02*
X74650000Y-99425000D01*
X74650000Y-99425000D02*
X72075000Y-96850000D01*
X72075000Y-96850000D02*
X70931000Y-96850000D01*
X68069000Y-107150000D02*
X64350000Y-107150000D01*
X64350000Y-107150000D02*
X64350000Y-99425000D01*
X64350000Y-99425000D02*
X66925000Y-96850000D01*
X66925000Y-96850000D02*
X68069000Y-96850000D01*
X71312000Y-95961000D02*
X71439000Y-96088000D01*
X71439000Y-96088000D02*
X71312000Y-96215000D01*
X71312000Y-96215000D02*
X71185000Y-96088000D01*
X71185000Y-96088000D02*
X71312000Y-95961000D01*
X70181000Y-78300000D02*
X72300000Y-78300000D01*
X72300000Y-78300000D02*
X72300000Y-73350000D01*
X72300000Y-73350000D02*
X70650000Y-71700000D01*
X70650000Y-71700000D02*
X70181000Y-71700000D01*
X67819000Y-78300000D02*
X65700000Y-78300000D01*
X65700000Y-78300000D02*
X65700000Y-73350000D01*
X65700000Y-73350000D02*
X67350000Y-71700000D01*
X67350000Y-71700000D02*
X67819000Y-71700000D01*
X70562000Y-70811000D02*
X70689000Y-70938000D01*
X70689000Y-70938000D02*
X70562000Y-71065000D01*
X70562000Y-71065000D02*
X70435000Y-70938000D01*
X70435000Y-70938000D02*
X70562000Y-70811000D01*
D15*
X60250000Y-73250000D02*
X60250000Y-74750000D01*
X63900000Y-74800000D02*
X61100000Y-74800000D01*
X62100000Y-73200000D02*
X62100000Y-74800000D01*
X61900000Y-74800000D02*
X61900000Y-73200000D01*
X61700000Y-73200000D02*
X61700000Y-74800000D01*
X61100000Y-73200000D02*
X63900000Y-73200000D01*
X48900000Y-75700000D02*
X48000000Y-75700000D01*
X48000000Y-75700000D02*
X48000000Y-74700000D01*
X51000000Y-74700000D02*
X51000000Y-75700000D01*
X51000000Y-75700000D02*
X50100000Y-75700000D01*
D14*
X96500000Y-67500000D02*
X96500000Y-66500000D01*
X96500000Y-66500000D02*
X97000000Y-66500000D01*
X97000000Y-66500000D02*
X97000000Y-66000000D01*
X103500000Y-66500000D02*
X103000000Y-66500000D01*
X103000000Y-66500000D02*
X103000000Y-66000000D01*
X103500000Y-67500000D02*
X103500000Y-66500000D01*
X87500000Y-67500000D02*
X87500000Y-66500000D01*
X87500000Y-66500000D02*
X88000000Y-66500000D01*
X88000000Y-66500000D02*
X88000000Y-66000000D01*
X94500000Y-66500000D02*
X94000000Y-66500000D01*
X94000000Y-66500000D02*
X94000000Y-66000000D01*
X94500000Y-67500000D02*
X94500000Y-66500000D01*
D15*
X34700000Y-128600000D02*
X34700000Y-129500000D01*
X34700000Y-129500000D02*
X33700000Y-129500000D01*
X33700000Y-126500000D02*
X34700000Y-126500000D01*
X34700000Y-126500000D02*
X34700000Y-127400000D01*
X39700000Y-83100000D02*
X39700000Y-84000000D01*
X39700000Y-84000000D02*
X38700000Y-84000000D01*
X38700000Y-81000000D02*
X39700000Y-81000000D01*
X39700000Y-81000000D02*
X39700000Y-81900000D01*
X52400000Y-75700000D02*
X51500000Y-75700000D01*
X51500000Y-75700000D02*
X51500000Y-74700000D01*
X54500000Y-74700000D02*
X54500000Y-75700000D01*
X54500000Y-75700000D02*
X53600000Y-75700000D01*
X57100000Y-74300000D02*
X58000000Y-74300000D01*
X58000000Y-74300000D02*
X58000000Y-75300000D01*
X55000000Y-75300000D02*
X55000000Y-74300000D01*
X55000000Y-74300000D02*
X55900000Y-74300000D01*
X68600000Y-64800000D02*
X69500000Y-64800000D01*
X69500000Y-64800000D02*
X69500000Y-65800000D01*
X66500000Y-65800000D02*
X66500000Y-64800000D01*
X66500000Y-64800000D02*
X67400000Y-64800000D01*
D14*
X65471000Y-112071000D02*
X65471000Y-111929000D01*
X65471000Y-111929000D02*
X65471000Y-112071000D01*
X62529000Y-112071000D02*
X62529000Y-111929000D01*
X62529000Y-111929000D02*
X62529000Y-112071000D01*
X55529000Y-106929000D02*
X55529000Y-107071000D01*
X55529000Y-107071000D02*
X55529000Y-106929000D01*
X58471000Y-106929000D02*
X58471000Y-107071000D01*
X58471000Y-107071000D02*
X58471000Y-106929000D01*
X68721000Y-68354000D02*
X67279000Y-68354000D01*
X67279000Y-68354000D02*
X68721000Y-68354000D01*
X68721000Y-69646000D02*
X67279000Y-69646000D01*
X67279000Y-69646000D02*
X68721000Y-69646000D01*
X71600000Y-80250000D02*
X71600000Y-93750000D01*
X56400000Y-80250000D02*
X71600000Y-80250000D01*
X56400000Y-93750000D02*
X56400000Y-80250000D01*
X71600000Y-93750000D02*
X56400000Y-93750000D01*
X52496000Y-114096000D02*
X52496000Y-111904000D01*
X52496000Y-111904000D02*
X52496000Y-114096000D01*
X49504000Y-114096000D02*
X49504000Y-111904000D01*
X49504000Y-111904000D02*
X49504000Y-114096000D01*
X49504000Y-103904000D02*
X49504000Y-106096000D01*
X49504000Y-106096000D02*
X49504000Y-103904000D01*
X52496000Y-103904000D02*
X52496000Y-106096000D01*
X52496000Y-106096000D02*
X52496000Y-103904000D01*
X60904000Y-78996000D02*
X63096000Y-78996000D01*
X63096000Y-78996000D02*
X60904000Y-78996000D01*
X60904000Y-76004000D02*
X63096000Y-76004000D01*
X63096000Y-76004000D02*
X60904000Y-76004000D01*
D15*
X67000000Y-140000000D02*
X77000000Y-140000000D01*
X77000000Y-140000000D02*
X77000000Y-139000000D01*
X77000000Y-139000000D02*
X67000000Y-139000000D01*
X67000000Y-139000000D02*
X67000000Y-140000000D01*
X65500000Y-139500000D02*
X65500000Y-141000000D01*
X67500000Y-138000000D02*
X67000000Y-138000000D01*
X65500000Y-139500000D02*
X67000000Y-138000000D01*
X66500000Y-141000000D02*
X65500000Y-141000000D01*
X77500000Y-138000000D02*
X78500000Y-138000000D01*
X78500000Y-138000000D02*
X78500000Y-141000000D01*
X78500000Y-141000000D02*
X76500000Y-141000000D01*
X55500000Y-96500000D02*
X55500000Y-98500000D01*
D14*
X58117600Y-94970800D02*
X58981200Y-95834400D01*
X59032000Y-95428000D02*
X58524000Y-94920000D01*
X59032000Y-94920000D02*
X59032000Y-105080000D01*
X59540000Y-94920000D02*
X54460000Y-94920000D01*
X54460000Y-94920000D02*
X54460000Y-105080000D01*
X54460000Y-105080000D02*
X59540000Y-105080000D01*
X59540000Y-105080000D02*
X59540000Y-94920000D01*
X95729000Y-128929000D02*
X95729000Y-129071000D01*
X95729000Y-129071000D02*
X95729000Y-128929000D01*
X96671000Y-128929000D02*
X96671000Y-129071000D01*
X96671000Y-129071000D02*
X96671000Y-128929000D01*
X32179000Y-131471000D02*
X32321000Y-131471000D01*
X32321000Y-131471000D02*
X32179000Y-131471000D01*
X32179000Y-130529000D02*
X32321000Y-130529000D01*
X32321000Y-130529000D02*
X32179000Y-130529000D01*
X34721000Y-85321000D02*
X34721000Y-85179000D01*
X34721000Y-85179000D02*
X34721000Y-85321000D01*
X33779000Y-85321000D02*
X33779000Y-85179000D01*
X33779000Y-85179000D02*
X33779000Y-85321000D01*
X31555000Y-135095000D02*
X40445000Y-135095000D01*
X40445000Y-135095000D02*
X40445000Y-138905000D01*
X40445000Y-138905000D02*
X31555000Y-138905000D01*
X31555000Y-138905000D02*
X31555000Y-135095000D01*
X34730000Y-135095000D02*
X34730000Y-138905000D01*
D15*
X31555000Y-139540000D02*
X34730000Y-139540000D01*
D14*
X36055000Y-75345000D02*
X44945000Y-75345000D01*
X44945000Y-75345000D02*
X44945000Y-79155000D01*
X44945000Y-79155000D02*
X36055000Y-79155000D01*
X36055000Y-79155000D02*
X36055000Y-75345000D01*
X39230000Y-75345000D02*
X39230000Y-79155000D01*
D15*
X36055000Y-79790000D02*
X39230000Y-79790000D01*
X128500000Y-72250000D02*
X130000000Y-72250000D01*
X130050000Y-68600000D02*
X130050000Y-71400000D01*
X128450000Y-70400000D02*
X130050000Y-70400000D01*
X130050000Y-70600000D02*
X128450000Y-70600000D01*
X128450000Y-70800000D02*
X130050000Y-70800000D01*
X128450000Y-71400000D02*
X128450000Y-68600000D01*
D14*
X131555000Y-63095000D02*
X140445000Y-63095000D01*
X140445000Y-63095000D02*
X140445000Y-66905000D01*
X140445000Y-66905000D02*
X131555000Y-66905000D01*
X131555000Y-66905000D02*
X131555000Y-63095000D01*
X134730000Y-63095000D02*
X134730000Y-66905000D01*
D15*
X131555000Y-67540000D02*
X134730000Y-67540000D01*
X133600000Y-69300000D02*
X134500000Y-69300000D01*
X134500000Y-69300000D02*
X134500000Y-70300000D01*
X131500000Y-70300000D02*
X131500000Y-69300000D01*
X131500000Y-69300000D02*
X132400000Y-69300000D01*
D14*
X136450000Y-72181000D02*
X136450000Y-74300000D01*
X136450000Y-74300000D02*
X141400000Y-74300000D01*
X141400000Y-74300000D02*
X143050000Y-72650000D01*
X143050000Y-72650000D02*
X143050000Y-72181000D01*
X136450000Y-69819000D02*
X136450000Y-67700000D01*
X136450000Y-67700000D02*
X141400000Y-67700000D01*
X141400000Y-67700000D02*
X143050000Y-69350000D01*
X143050000Y-69350000D02*
X143050000Y-69819000D01*
X143939000Y-72562000D02*
X143812000Y-72689000D01*
X143812000Y-72689000D02*
X143685000Y-72562000D01*
X143685000Y-72562000D02*
X143812000Y-72435000D01*
X143812000Y-72435000D02*
X143939000Y-72562000D01*
D16*
X40200000Y-113000000D02*
G75*
G03X40200000Y-113000000I-3200000J0D01*
G01*
X40200000Y-105000000D02*
G75*
G03X40200000Y-105000000I-3200000J0D01*
G01*
X47700000Y-105000000D02*
G75*
G03X47700000Y-105000000I-3200000J0D01*
G01*
X47700000Y-113000000D02*
G75*
G03X47700000Y-113000000I-3200000J0D01*
G01*
D15*
X61377500Y-116200000D02*
X61377500Y-117600000D01*
X54377500Y-122200000D02*
X54377500Y-123600000D01*
X51200000Y-94622500D02*
X52600000Y-94622500D01*
D14*
X64500000Y-67000000D02*
G75*
G03X64500000Y-67000000I-5000000J0D01*
G01*
X42750000Y-126596000D02*
X42750000Y-126573000D01*
X42750000Y-126573000D02*
X47250000Y-126573000D01*
X47250000Y-126573000D02*
X47250000Y-126596000D01*
X42750000Y-133404000D02*
X42750000Y-133427000D01*
X42750000Y-133427000D02*
X47250000Y-133427000D01*
X47250000Y-133427000D02*
X47250000Y-133404000D01*
X42115000Y-126342000D02*
X42242000Y-126215000D01*
X42242000Y-126215000D02*
X42369000Y-126342000D01*
X42369000Y-126342000D02*
X42242000Y-126469000D01*
X42242000Y-126469000D02*
X42115000Y-126342000D01*
X42750000Y-85246000D02*
X47250000Y-85246000D01*
X42750000Y-90754000D02*
X47250000Y-90754000D01*
X42115000Y-84992000D02*
X42242000Y-84865000D01*
X42242000Y-84865000D02*
X42369000Y-84992000D01*
X42369000Y-84992000D02*
X42242000Y-85119000D01*
X42242000Y-85119000D02*
X42115000Y-84992000D01*
X60554000Y-96329000D02*
X60554000Y-100671000D01*
X60554000Y-100671000D02*
X60554000Y-96329000D01*
X63446000Y-96329000D02*
X63446000Y-100671000D01*
X63446000Y-100671000D02*
X63446000Y-96329000D01*
D15*
X108561905Y-75861905D02*
X108295238Y-75480952D01*
X108104762Y-75861905D02*
X108104762Y-75061905D01*
X108409524Y-75061905D01*
X108485715Y-75100000D01*
X108523810Y-75138095D01*
X108561905Y-75214286D01*
X108561905Y-75328571D01*
X108523810Y-75404762D01*
X108485715Y-75442857D01*
X108409524Y-75480952D01*
X108104762Y-75480952D01*
X108790476Y-75061905D02*
X109247619Y-75061905D01*
X109019048Y-75861905D02*
X109019048Y-75061905D01*
X109933334Y-75861905D02*
X109476191Y-75861905D01*
X109704762Y-75861905D02*
X109704762Y-75061905D01*
X109628572Y-75176190D01*
X109552381Y-75252381D01*
X109476191Y-75290476D01*
X55861905Y-132383333D02*
X55861905Y-132764286D01*
X55061905Y-132764286D01*
X55138095Y-132154762D02*
X55100000Y-132116667D01*
X55061905Y-132040476D01*
X55061905Y-131850000D01*
X55100000Y-131773810D01*
X55138095Y-131735714D01*
X55214286Y-131697619D01*
X55290476Y-131697619D01*
X55404762Y-131735714D01*
X55861905Y-132192857D01*
X55861905Y-131697619D01*
X115233334Y-70061905D02*
X115233334Y-70633333D01*
X115195238Y-70747619D01*
X115119048Y-70823810D01*
X115004762Y-70861905D01*
X114928572Y-70861905D01*
X115538096Y-70061905D02*
X116033334Y-70061905D01*
X115766667Y-70366667D01*
X115880953Y-70366667D01*
X115957143Y-70404762D01*
X115995239Y-70442857D01*
X116033334Y-70519048D01*
X116033334Y-70709524D01*
X115995239Y-70785714D01*
X115957143Y-70823810D01*
X115880953Y-70861905D01*
X115652381Y-70861905D01*
X115576191Y-70823810D01*
X115538096Y-70785714D01*
X125342857Y-97323810D02*
X125457143Y-97361905D01*
X125647619Y-97361905D01*
X125723809Y-97323810D01*
X125761905Y-97285714D01*
X125800000Y-97209524D01*
X125800000Y-97133333D01*
X125761905Y-97057143D01*
X125723809Y-97019048D01*
X125647619Y-96980952D01*
X125495238Y-96942857D01*
X125419047Y-96904762D01*
X125380952Y-96866667D01*
X125342857Y-96790476D01*
X125342857Y-96714286D01*
X125380952Y-96638095D01*
X125419047Y-96600000D01*
X125495238Y-96561905D01*
X125685714Y-96561905D01*
X125800000Y-96600000D01*
X126523810Y-97361905D02*
X126142857Y-97361905D01*
X126142857Y-96561905D01*
X126942857Y-96561905D02*
X127095238Y-96561905D01*
X127171429Y-96600000D01*
X127247619Y-96676190D01*
X127285714Y-96828571D01*
X127285714Y-97095238D01*
X127247619Y-97247619D01*
X127171429Y-97323810D01*
X127095238Y-97361905D01*
X126942857Y-97361905D01*
X126866667Y-97323810D01*
X126790476Y-97247619D01*
X126752381Y-97095238D01*
X126752381Y-96828571D01*
X126790476Y-96676190D01*
X126866667Y-96600000D01*
X126942857Y-96561905D01*
X127514285Y-96561905D02*
X127971428Y-96561905D01*
X127742857Y-97361905D02*
X127742857Y-96561905D01*
X128200000Y-96638095D02*
X128238095Y-96600000D01*
X128314286Y-96561905D01*
X128504762Y-96561905D01*
X128580952Y-96600000D01*
X128619048Y-96638095D01*
X128657143Y-96714286D01*
X128657143Y-96790476D01*
X128619048Y-96904762D01*
X128161905Y-97361905D01*
X128657143Y-97361905D01*
X85342857Y-78323810D02*
X85457143Y-78361905D01*
X85647619Y-78361905D01*
X85723809Y-78323810D01*
X85761905Y-78285714D01*
X85800000Y-78209524D01*
X85800000Y-78133333D01*
X85761905Y-78057143D01*
X85723809Y-78019048D01*
X85647619Y-77980952D01*
X85495238Y-77942857D01*
X85419047Y-77904762D01*
X85380952Y-77866667D01*
X85342857Y-77790476D01*
X85342857Y-77714286D01*
X85380952Y-77638095D01*
X85419047Y-77600000D01*
X85495238Y-77561905D01*
X85685714Y-77561905D01*
X85800000Y-77600000D01*
X86523810Y-78361905D02*
X86142857Y-78361905D01*
X86142857Y-77561905D01*
X86942857Y-77561905D02*
X87095238Y-77561905D01*
X87171429Y-77600000D01*
X87247619Y-77676190D01*
X87285714Y-77828571D01*
X87285714Y-78095238D01*
X87247619Y-78247619D01*
X87171429Y-78323810D01*
X87095238Y-78361905D01*
X86942857Y-78361905D01*
X86866667Y-78323810D01*
X86790476Y-78247619D01*
X86752381Y-78095238D01*
X86752381Y-77828571D01*
X86790476Y-77676190D01*
X86866667Y-77600000D01*
X86942857Y-77561905D01*
X87514285Y-77561905D02*
X87971428Y-77561905D01*
X87742857Y-78361905D02*
X87742857Y-77561905D01*
X88390476Y-77561905D02*
X88466667Y-77561905D01*
X88542857Y-77600000D01*
X88580952Y-77638095D01*
X88619048Y-77714286D01*
X88657143Y-77866667D01*
X88657143Y-78057143D01*
X88619048Y-78209524D01*
X88580952Y-78285714D01*
X88542857Y-78323810D01*
X88466667Y-78361905D01*
X88390476Y-78361905D01*
X88314286Y-78323810D01*
X88276190Y-78285714D01*
X88238095Y-78209524D01*
X88200000Y-78057143D01*
X88200000Y-77866667D01*
X88238095Y-77714286D01*
X88276190Y-77638095D01*
X88314286Y-77600000D01*
X88390476Y-77561905D01*
X185342857Y-97323810D02*
X185457143Y-97361905D01*
X185647619Y-97361905D01*
X185723809Y-97323810D01*
X185761905Y-97285714D01*
X185800000Y-97209524D01*
X185800000Y-97133333D01*
X185761905Y-97057143D01*
X185723809Y-97019048D01*
X185647619Y-96980952D01*
X185495238Y-96942857D01*
X185419047Y-96904762D01*
X185380952Y-96866667D01*
X185342857Y-96790476D01*
X185342857Y-96714286D01*
X185380952Y-96638095D01*
X185419047Y-96600000D01*
X185495238Y-96561905D01*
X185685714Y-96561905D01*
X185800000Y-96600000D01*
X186523810Y-97361905D02*
X186142857Y-97361905D01*
X186142857Y-96561905D01*
X186942857Y-96561905D02*
X187095238Y-96561905D01*
X187171429Y-96600000D01*
X187247619Y-96676190D01*
X187285714Y-96828571D01*
X187285714Y-97095238D01*
X187247619Y-97247619D01*
X187171429Y-97323810D01*
X187095238Y-97361905D01*
X186942857Y-97361905D01*
X186866667Y-97323810D01*
X186790476Y-97247619D01*
X186752381Y-97095238D01*
X186752381Y-96828571D01*
X186790476Y-96676190D01*
X186866667Y-96600000D01*
X186942857Y-96561905D01*
X187514285Y-96561905D02*
X187971428Y-96561905D01*
X187742857Y-97361905D02*
X187742857Y-96561905D01*
X188619048Y-96561905D02*
X188238095Y-96561905D01*
X188200000Y-96942857D01*
X188238095Y-96904762D01*
X188314286Y-96866667D01*
X188504762Y-96866667D01*
X188580952Y-96904762D01*
X188619048Y-96942857D01*
X188657143Y-97019048D01*
X188657143Y-97209524D01*
X188619048Y-97285714D01*
X188580952Y-97323810D01*
X188504762Y-97361905D01*
X188314286Y-97361905D01*
X188238095Y-97323810D01*
X188200000Y-97285714D01*
X165342857Y-97323810D02*
X165457143Y-97361905D01*
X165647619Y-97361905D01*
X165723809Y-97323810D01*
X165761905Y-97285714D01*
X165800000Y-97209524D01*
X165800000Y-97133333D01*
X165761905Y-97057143D01*
X165723809Y-97019048D01*
X165647619Y-96980952D01*
X165495238Y-96942857D01*
X165419047Y-96904762D01*
X165380952Y-96866667D01*
X165342857Y-96790476D01*
X165342857Y-96714286D01*
X165380952Y-96638095D01*
X165419047Y-96600000D01*
X165495238Y-96561905D01*
X165685714Y-96561905D01*
X165800000Y-96600000D01*
X166523810Y-97361905D02*
X166142857Y-97361905D01*
X166142857Y-96561905D01*
X166942857Y-96561905D02*
X167095238Y-96561905D01*
X167171429Y-96600000D01*
X167247619Y-96676190D01*
X167285714Y-96828571D01*
X167285714Y-97095238D01*
X167247619Y-97247619D01*
X167171429Y-97323810D01*
X167095238Y-97361905D01*
X166942857Y-97361905D01*
X166866667Y-97323810D01*
X166790476Y-97247619D01*
X166752381Y-97095238D01*
X166752381Y-96828571D01*
X166790476Y-96676190D01*
X166866667Y-96600000D01*
X166942857Y-96561905D01*
X167514285Y-96561905D02*
X167971428Y-96561905D01*
X167742857Y-97361905D02*
X167742857Y-96561905D01*
X168580952Y-96828571D02*
X168580952Y-97361905D01*
X168390476Y-96523810D02*
X168200000Y-97095238D01*
X168695238Y-97095238D01*
X54111905Y-133840476D02*
X53311905Y-133840476D01*
X53311905Y-133650000D01*
X53350000Y-133535714D01*
X53426190Y-133459523D01*
X53502381Y-133421428D01*
X53654762Y-133383333D01*
X53769048Y-133383333D01*
X53921429Y-133421428D01*
X53997619Y-133459523D01*
X54073810Y-133535714D01*
X54111905Y-133650000D01*
X54111905Y-133840476D01*
X53311905Y-133116666D02*
X53311905Y-132621428D01*
X53616667Y-132888095D01*
X53616667Y-132773809D01*
X53654762Y-132697619D01*
X53692857Y-132659523D01*
X53769048Y-132621428D01*
X53959524Y-132621428D01*
X54035714Y-132659523D01*
X54073810Y-132697619D01*
X54111905Y-132773809D01*
X54111905Y-133002381D01*
X54073810Y-133078571D01*
X54035714Y-133116666D01*
X205342857Y-97323810D02*
X205457143Y-97361905D01*
X205647619Y-97361905D01*
X205723809Y-97323810D01*
X205761905Y-97285714D01*
X205800000Y-97209524D01*
X205800000Y-97133333D01*
X205761905Y-97057143D01*
X205723809Y-97019048D01*
X205647619Y-96980952D01*
X205495238Y-96942857D01*
X205419047Y-96904762D01*
X205380952Y-96866667D01*
X205342857Y-96790476D01*
X205342857Y-96714286D01*
X205380952Y-96638095D01*
X205419047Y-96600000D01*
X205495238Y-96561905D01*
X205685714Y-96561905D01*
X205800000Y-96600000D01*
X206523810Y-97361905D02*
X206142857Y-97361905D01*
X206142857Y-96561905D01*
X206942857Y-96561905D02*
X207095238Y-96561905D01*
X207171429Y-96600000D01*
X207247619Y-96676190D01*
X207285714Y-96828571D01*
X207285714Y-97095238D01*
X207247619Y-97247619D01*
X207171429Y-97323810D01*
X207095238Y-97361905D01*
X206942857Y-97361905D01*
X206866667Y-97323810D01*
X206790476Y-97247619D01*
X206752381Y-97095238D01*
X206752381Y-96828571D01*
X206790476Y-96676190D01*
X206866667Y-96600000D01*
X206942857Y-96561905D01*
X207514285Y-96561905D02*
X207971428Y-96561905D01*
X207742857Y-97361905D02*
X207742857Y-96561905D01*
X208580952Y-96561905D02*
X208428571Y-96561905D01*
X208352381Y-96600000D01*
X208314286Y-96638095D01*
X208238095Y-96752381D01*
X208200000Y-96904762D01*
X208200000Y-97209524D01*
X208238095Y-97285714D01*
X208276190Y-97323810D01*
X208352381Y-97361905D01*
X208504762Y-97361905D01*
X208580952Y-97323810D01*
X208619048Y-97285714D01*
X208657143Y-97209524D01*
X208657143Y-97019048D01*
X208619048Y-96942857D01*
X208580952Y-96904762D01*
X208504762Y-96866667D01*
X208352381Y-96866667D01*
X208276190Y-96904762D01*
X208238095Y-96942857D01*
X208200000Y-97019048D01*
X145342857Y-97323810D02*
X145457143Y-97361905D01*
X145647619Y-97361905D01*
X145723809Y-97323810D01*
X145761905Y-97285714D01*
X145800000Y-97209524D01*
X145800000Y-97133333D01*
X145761905Y-97057143D01*
X145723809Y-97019048D01*
X145647619Y-96980952D01*
X145495238Y-96942857D01*
X145419047Y-96904762D01*
X145380952Y-96866667D01*
X145342857Y-96790476D01*
X145342857Y-96714286D01*
X145380952Y-96638095D01*
X145419047Y-96600000D01*
X145495238Y-96561905D01*
X145685714Y-96561905D01*
X145800000Y-96600000D01*
X146523810Y-97361905D02*
X146142857Y-97361905D01*
X146142857Y-96561905D01*
X146942857Y-96561905D02*
X147095238Y-96561905D01*
X147171429Y-96600000D01*
X147247619Y-96676190D01*
X147285714Y-96828571D01*
X147285714Y-97095238D01*
X147247619Y-97247619D01*
X147171429Y-97323810D01*
X147095238Y-97361905D01*
X146942857Y-97361905D01*
X146866667Y-97323810D01*
X146790476Y-97247619D01*
X146752381Y-97095238D01*
X146752381Y-96828571D01*
X146790476Y-96676190D01*
X146866667Y-96600000D01*
X146942857Y-96561905D01*
X147514285Y-96561905D02*
X147971428Y-96561905D01*
X147742857Y-97361905D02*
X147742857Y-96561905D01*
X148161905Y-96561905D02*
X148657143Y-96561905D01*
X148390476Y-96866667D01*
X148504762Y-96866667D01*
X148580952Y-96904762D01*
X148619048Y-96942857D01*
X148657143Y-97019048D01*
X148657143Y-97209524D01*
X148619048Y-97285714D01*
X148580952Y-97323810D01*
X148504762Y-97361905D01*
X148276190Y-97361905D01*
X148200000Y-97323810D01*
X148161905Y-97285714D01*
X105342857Y-97323810D02*
X105457143Y-97361905D01*
X105647619Y-97361905D01*
X105723809Y-97323810D01*
X105761905Y-97285714D01*
X105800000Y-97209524D01*
X105800000Y-97133333D01*
X105761905Y-97057143D01*
X105723809Y-97019048D01*
X105647619Y-96980952D01*
X105495238Y-96942857D01*
X105419047Y-96904762D01*
X105380952Y-96866667D01*
X105342857Y-96790476D01*
X105342857Y-96714286D01*
X105380952Y-96638095D01*
X105419047Y-96600000D01*
X105495238Y-96561905D01*
X105685714Y-96561905D01*
X105800000Y-96600000D01*
X106523810Y-97361905D02*
X106142857Y-97361905D01*
X106142857Y-96561905D01*
X106942857Y-96561905D02*
X107095238Y-96561905D01*
X107171429Y-96600000D01*
X107247619Y-96676190D01*
X107285714Y-96828571D01*
X107285714Y-97095238D01*
X107247619Y-97247619D01*
X107171429Y-97323810D01*
X107095238Y-97361905D01*
X106942857Y-97361905D01*
X106866667Y-97323810D01*
X106790476Y-97247619D01*
X106752381Y-97095238D01*
X106752381Y-96828571D01*
X106790476Y-96676190D01*
X106866667Y-96600000D01*
X106942857Y-96561905D01*
X107514285Y-96561905D02*
X107971428Y-96561905D01*
X107742857Y-97361905D02*
X107742857Y-96561905D01*
X108657143Y-97361905D02*
X108200000Y-97361905D01*
X108428571Y-97361905D02*
X108428571Y-96561905D01*
X108352381Y-96676190D01*
X108276190Y-96752381D01*
X108200000Y-96790476D01*
X46735714Y-81035714D02*
X46697619Y-81073810D01*
X46583333Y-81111905D01*
X46507143Y-81111905D01*
X46392857Y-81073810D01*
X46316666Y-80997619D01*
X46278571Y-80921429D01*
X46240476Y-80769048D01*
X46240476Y-80654762D01*
X46278571Y-80502381D01*
X46316666Y-80426190D01*
X46392857Y-80350000D01*
X46507143Y-80311905D01*
X46583333Y-80311905D01*
X46697619Y-80350000D01*
X46735714Y-80388095D01*
X47040476Y-80388095D02*
X47078571Y-80350000D01*
X47154762Y-80311905D01*
X47345238Y-80311905D01*
X47421428Y-80350000D01*
X47459524Y-80388095D01*
X47497619Y-80464286D01*
X47497619Y-80540476D01*
X47459524Y-80654762D01*
X47002381Y-81111905D01*
X47497619Y-81111905D01*
X47764286Y-80311905D02*
X48259524Y-80311905D01*
X47992857Y-80616667D01*
X48107143Y-80616667D01*
X48183333Y-80654762D01*
X48221429Y-80692857D01*
X48259524Y-80769048D01*
X48259524Y-80959524D01*
X48221429Y-81035714D01*
X48183333Y-81073810D01*
X48107143Y-81111905D01*
X47878571Y-81111905D01*
X47802381Y-81073810D01*
X47764286Y-81035714D01*
X97116667Y-60285714D02*
X97078572Y-60323810D01*
X96964286Y-60361905D01*
X96888096Y-60361905D01*
X96773810Y-60323810D01*
X96697619Y-60247619D01*
X96659524Y-60171429D01*
X96621429Y-60019048D01*
X96621429Y-59904762D01*
X96659524Y-59752381D01*
X96697619Y-59676190D01*
X96773810Y-59600000D01*
X96888096Y-59561905D01*
X96964286Y-59561905D01*
X97078572Y-59600000D01*
X97116667Y-59638095D01*
X97383334Y-59561905D02*
X97916667Y-59561905D01*
X97573810Y-60361905D01*
X83785714Y-69133333D02*
X83823810Y-69171428D01*
X83861905Y-69285714D01*
X83861905Y-69361904D01*
X83823810Y-69476190D01*
X83747619Y-69552381D01*
X83671429Y-69590476D01*
X83519048Y-69628571D01*
X83404762Y-69628571D01*
X83252381Y-69590476D01*
X83176190Y-69552381D01*
X83100000Y-69476190D01*
X83061905Y-69361904D01*
X83061905Y-69285714D01*
X83100000Y-69171428D01*
X83138095Y-69133333D01*
X83404762Y-68676190D02*
X83366667Y-68752381D01*
X83328571Y-68790476D01*
X83252381Y-68828571D01*
X83214286Y-68828571D01*
X83138095Y-68790476D01*
X83100000Y-68752381D01*
X83061905Y-68676190D01*
X83061905Y-68523809D01*
X83100000Y-68447619D01*
X83138095Y-68409523D01*
X83214286Y-68371428D01*
X83252381Y-68371428D01*
X83328571Y-68409523D01*
X83366667Y-68447619D01*
X83404762Y-68523809D01*
X83404762Y-68676190D01*
X83442857Y-68752381D01*
X83480952Y-68790476D01*
X83557143Y-68828571D01*
X83709524Y-68828571D01*
X83785714Y-68790476D01*
X83823810Y-68752381D01*
X83861905Y-68676190D01*
X83861905Y-68523809D01*
X83823810Y-68447619D01*
X83785714Y-68409523D01*
X83709524Y-68371428D01*
X83557143Y-68371428D01*
X83480952Y-68409523D01*
X83442857Y-68447619D01*
X83404762Y-68523809D01*
X35735714Y-88285714D02*
X35697619Y-88323810D01*
X35583333Y-88361905D01*
X35507143Y-88361905D01*
X35392857Y-88323810D01*
X35316666Y-88247619D01*
X35278571Y-88171429D01*
X35240476Y-88019048D01*
X35240476Y-87904762D01*
X35278571Y-87752381D01*
X35316666Y-87676190D01*
X35392857Y-87600000D01*
X35507143Y-87561905D01*
X35583333Y-87561905D01*
X35697619Y-87600000D01*
X35735714Y-87638095D01*
X36040476Y-87638095D02*
X36078571Y-87600000D01*
X36154762Y-87561905D01*
X36345238Y-87561905D01*
X36421428Y-87600000D01*
X36459524Y-87638095D01*
X36497619Y-87714286D01*
X36497619Y-87790476D01*
X36459524Y-87904762D01*
X36002381Y-88361905D01*
X36497619Y-88361905D01*
X36764286Y-87561905D02*
X37297619Y-87561905D01*
X36954762Y-88361905D01*
X44485714Y-137285714D02*
X44447619Y-137323810D01*
X44333333Y-137361905D01*
X44257143Y-137361905D01*
X44142857Y-137323810D01*
X44066666Y-137247619D01*
X44028571Y-137171429D01*
X43990476Y-137019048D01*
X43990476Y-136904762D01*
X44028571Y-136752381D01*
X44066666Y-136676190D01*
X44142857Y-136600000D01*
X44257143Y-136561905D01*
X44333333Y-136561905D01*
X44447619Y-136600000D01*
X44485714Y-136638095D01*
X45247619Y-137361905D02*
X44790476Y-137361905D01*
X45019047Y-137361905D02*
X45019047Y-136561905D01*
X44942857Y-136676190D01*
X44866666Y-136752381D01*
X44790476Y-136790476D01*
X45933333Y-136561905D02*
X45780952Y-136561905D01*
X45704762Y-136600000D01*
X45666667Y-136638095D01*
X45590476Y-136752381D01*
X45552381Y-136904762D01*
X45552381Y-137209524D01*
X45590476Y-137285714D01*
X45628571Y-137323810D01*
X45704762Y-137361905D01*
X45857143Y-137361905D01*
X45933333Y-137323810D01*
X45971429Y-137285714D01*
X46009524Y-137209524D01*
X46009524Y-137019048D01*
X45971429Y-136942857D01*
X45933333Y-136904762D01*
X45857143Y-136866667D01*
X45704762Y-136866667D01*
X45628571Y-136904762D01*
X45590476Y-136942857D01*
X45552381Y-137019048D01*
X46285714Y-140014286D02*
X46323810Y-140052381D01*
X46361905Y-140166667D01*
X46361905Y-140242857D01*
X46323810Y-140357143D01*
X46247619Y-140433334D01*
X46171429Y-140471429D01*
X46019048Y-140509524D01*
X45904762Y-140509524D01*
X45752381Y-140471429D01*
X45676190Y-140433334D01*
X45600000Y-140357143D01*
X45561905Y-140242857D01*
X45561905Y-140166667D01*
X45600000Y-140052381D01*
X45638095Y-140014286D01*
X45638095Y-139709524D02*
X45600000Y-139671429D01*
X45561905Y-139595238D01*
X45561905Y-139404762D01*
X45600000Y-139328572D01*
X45638095Y-139290476D01*
X45714286Y-139252381D01*
X45790476Y-139252381D01*
X45904762Y-139290476D01*
X46361905Y-139747619D01*
X46361905Y-139252381D01*
X46361905Y-138490476D02*
X46361905Y-138947619D01*
X46361905Y-138719048D02*
X45561905Y-138719048D01*
X45676190Y-138795238D01*
X45752381Y-138871429D01*
X45790476Y-138947619D01*
X40535714Y-91014286D02*
X40573810Y-91052381D01*
X40611905Y-91166667D01*
X40611905Y-91242857D01*
X40573810Y-91357143D01*
X40497619Y-91433334D01*
X40421429Y-91471429D01*
X40269048Y-91509524D01*
X40154762Y-91509524D01*
X40002381Y-91471429D01*
X39926190Y-91433334D01*
X39850000Y-91357143D01*
X39811905Y-91242857D01*
X39811905Y-91166667D01*
X39850000Y-91052381D01*
X39888095Y-91014286D01*
X39811905Y-90747619D02*
X39811905Y-90252381D01*
X40116667Y-90519048D01*
X40116667Y-90404762D01*
X40154762Y-90328572D01*
X40192857Y-90290476D01*
X40269048Y-90252381D01*
X40459524Y-90252381D01*
X40535714Y-90290476D01*
X40573810Y-90328572D01*
X40611905Y-90404762D01*
X40611905Y-90633334D01*
X40573810Y-90709524D01*
X40535714Y-90747619D01*
X39811905Y-89985714D02*
X39811905Y-89490476D01*
X40116667Y-89757143D01*
X40116667Y-89642857D01*
X40154762Y-89566667D01*
X40192857Y-89528571D01*
X40269048Y-89490476D01*
X40459524Y-89490476D01*
X40535714Y-89528571D01*
X40573810Y-89566667D01*
X40611905Y-89642857D01*
X40611905Y-89871429D01*
X40573810Y-89947619D01*
X40535714Y-89985714D01*
X44235714Y-93785714D02*
X44197619Y-93823810D01*
X44083333Y-93861905D01*
X44007143Y-93861905D01*
X43892857Y-93823810D01*
X43816666Y-93747619D01*
X43778571Y-93671429D01*
X43740476Y-93519048D01*
X43740476Y-93404762D01*
X43778571Y-93252381D01*
X43816666Y-93176190D01*
X43892857Y-93100000D01*
X44007143Y-93061905D01*
X44083333Y-93061905D01*
X44197619Y-93100000D01*
X44235714Y-93138095D01*
X44540476Y-93138095D02*
X44578571Y-93100000D01*
X44654762Y-93061905D01*
X44845238Y-93061905D01*
X44921428Y-93100000D01*
X44959524Y-93138095D01*
X44997619Y-93214286D01*
X44997619Y-93290476D01*
X44959524Y-93404762D01*
X44502381Y-93861905D01*
X44997619Y-93861905D01*
X45683333Y-93061905D02*
X45530952Y-93061905D01*
X45454762Y-93100000D01*
X45416667Y-93138095D01*
X45340476Y-93252381D01*
X45302381Y-93404762D01*
X45302381Y-93709524D01*
X45340476Y-93785714D01*
X45378571Y-93823810D01*
X45454762Y-93861905D01*
X45607143Y-93861905D01*
X45683333Y-93823810D01*
X45721429Y-93785714D01*
X45759524Y-93709524D01*
X45759524Y-93519048D01*
X45721429Y-93442857D01*
X45683333Y-93404762D01*
X45607143Y-93366667D01*
X45454762Y-93366667D01*
X45378571Y-93404762D01*
X45340476Y-93442857D01*
X45302381Y-93519048D01*
X35735714Y-85535714D02*
X35697619Y-85573810D01*
X35583333Y-85611905D01*
X35507143Y-85611905D01*
X35392857Y-85573810D01*
X35316666Y-85497619D01*
X35278571Y-85421429D01*
X35240476Y-85269048D01*
X35240476Y-85154762D01*
X35278571Y-85002381D01*
X35316666Y-84926190D01*
X35392857Y-84850000D01*
X35507143Y-84811905D01*
X35583333Y-84811905D01*
X35697619Y-84850000D01*
X35735714Y-84888095D01*
X36040476Y-84888095D02*
X36078571Y-84850000D01*
X36154762Y-84811905D01*
X36345238Y-84811905D01*
X36421428Y-84850000D01*
X36459524Y-84888095D01*
X36497619Y-84964286D01*
X36497619Y-85040476D01*
X36459524Y-85154762D01*
X36002381Y-85611905D01*
X36497619Y-85611905D01*
X36878571Y-85611905D02*
X37030952Y-85611905D01*
X37107143Y-85573810D01*
X37145238Y-85535714D01*
X37221429Y-85421429D01*
X37259524Y-85269048D01*
X37259524Y-84964286D01*
X37221429Y-84888095D01*
X37183333Y-84850000D01*
X37107143Y-84811905D01*
X36954762Y-84811905D01*
X36878571Y-84850000D01*
X36840476Y-84888095D01*
X36802381Y-84964286D01*
X36802381Y-85154762D01*
X36840476Y-85230952D01*
X36878571Y-85269048D01*
X36954762Y-85307143D01*
X37107143Y-85307143D01*
X37183333Y-85269048D01*
X37221429Y-85230952D01*
X37259524Y-85154762D01*
X38985714Y-124035714D02*
X38947619Y-124073810D01*
X38833333Y-124111905D01*
X38757143Y-124111905D01*
X38642857Y-124073810D01*
X38566666Y-123997619D01*
X38528571Y-123921429D01*
X38490476Y-123769048D01*
X38490476Y-123654762D01*
X38528571Y-123502381D01*
X38566666Y-123426190D01*
X38642857Y-123350000D01*
X38757143Y-123311905D01*
X38833333Y-123311905D01*
X38947619Y-123350000D01*
X38985714Y-123388095D01*
X39747619Y-124111905D02*
X39290476Y-124111905D01*
X39519047Y-124111905D02*
X39519047Y-123311905D01*
X39442857Y-123426190D01*
X39366666Y-123502381D01*
X39290476Y-123540476D01*
X40433333Y-123578571D02*
X40433333Y-124111905D01*
X40242857Y-123273810D02*
X40052381Y-123845238D01*
X40547619Y-123845238D01*
X44485714Y-138285714D02*
X44447619Y-138323810D01*
X44333333Y-138361905D01*
X44257143Y-138361905D01*
X44142857Y-138323810D01*
X44066666Y-138247619D01*
X44028571Y-138171429D01*
X43990476Y-138019048D01*
X43990476Y-137904762D01*
X44028571Y-137752381D01*
X44066666Y-137676190D01*
X44142857Y-137600000D01*
X44257143Y-137561905D01*
X44333333Y-137561905D01*
X44447619Y-137600000D01*
X44485714Y-137638095D01*
X45247619Y-138361905D02*
X44790476Y-138361905D01*
X45019047Y-138361905D02*
X45019047Y-137561905D01*
X44942857Y-137676190D01*
X44866666Y-137752381D01*
X44790476Y-137790476D01*
X45704762Y-137904762D02*
X45628571Y-137866667D01*
X45590476Y-137828571D01*
X45552381Y-137752381D01*
X45552381Y-137714286D01*
X45590476Y-137638095D01*
X45628571Y-137600000D01*
X45704762Y-137561905D01*
X45857143Y-137561905D01*
X45933333Y-137600000D01*
X45971429Y-137638095D01*
X46009524Y-137714286D01*
X46009524Y-137752381D01*
X45971429Y-137828571D01*
X45933333Y-137866667D01*
X45857143Y-137904762D01*
X45704762Y-137904762D01*
X45628571Y-137942857D01*
X45590476Y-137980952D01*
X45552381Y-138057143D01*
X45552381Y-138209524D01*
X45590476Y-138285714D01*
X45628571Y-138323810D01*
X45704762Y-138361905D01*
X45857143Y-138361905D01*
X45933333Y-138323810D01*
X45971429Y-138285714D01*
X46009524Y-138209524D01*
X46009524Y-138057143D01*
X45971429Y-137980952D01*
X45933333Y-137942857D01*
X45857143Y-137904762D01*
X43485714Y-139285714D02*
X43447619Y-139323810D01*
X43333333Y-139361905D01*
X43257143Y-139361905D01*
X43142857Y-139323810D01*
X43066666Y-139247619D01*
X43028571Y-139171429D01*
X42990476Y-139019048D01*
X42990476Y-138904762D01*
X43028571Y-138752381D01*
X43066666Y-138676190D01*
X43142857Y-138600000D01*
X43257143Y-138561905D01*
X43333333Y-138561905D01*
X43447619Y-138600000D01*
X43485714Y-138638095D01*
X43790476Y-138638095D02*
X43828571Y-138600000D01*
X43904762Y-138561905D01*
X44095238Y-138561905D01*
X44171428Y-138600000D01*
X44209524Y-138638095D01*
X44247619Y-138714286D01*
X44247619Y-138790476D01*
X44209524Y-138904762D01*
X43752381Y-139361905D01*
X44247619Y-139361905D01*
X44552381Y-138638095D02*
X44590476Y-138600000D01*
X44666667Y-138561905D01*
X44857143Y-138561905D01*
X44933333Y-138600000D01*
X44971429Y-138638095D01*
X45009524Y-138714286D01*
X45009524Y-138790476D01*
X44971429Y-138904762D01*
X44514286Y-139361905D01*
X45009524Y-139361905D01*
X33485714Y-92035714D02*
X33447619Y-92073810D01*
X33333333Y-92111905D01*
X33257143Y-92111905D01*
X33142857Y-92073810D01*
X33066666Y-91997619D01*
X33028571Y-91921429D01*
X32990476Y-91769048D01*
X32990476Y-91654762D01*
X33028571Y-91502381D01*
X33066666Y-91426190D01*
X33142857Y-91350000D01*
X33257143Y-91311905D01*
X33333333Y-91311905D01*
X33447619Y-91350000D01*
X33485714Y-91388095D01*
X33752381Y-91311905D02*
X34247619Y-91311905D01*
X33980952Y-91616667D01*
X34095238Y-91616667D01*
X34171428Y-91654762D01*
X34209524Y-91692857D01*
X34247619Y-91769048D01*
X34247619Y-91959524D01*
X34209524Y-92035714D01*
X34171428Y-92073810D01*
X34095238Y-92111905D01*
X33866666Y-92111905D01*
X33790476Y-92073810D01*
X33752381Y-92035714D01*
X34933333Y-91578571D02*
X34933333Y-92111905D01*
X34742857Y-91273810D02*
X34552381Y-91845238D01*
X35047619Y-91845238D01*
X50485714Y-124535714D02*
X50447619Y-124573810D01*
X50333333Y-124611905D01*
X50257143Y-124611905D01*
X50142857Y-124573810D01*
X50066666Y-124497619D01*
X50028571Y-124421429D01*
X49990476Y-124269048D01*
X49990476Y-124154762D01*
X50028571Y-124002381D01*
X50066666Y-123926190D01*
X50142857Y-123850000D01*
X50257143Y-123811905D01*
X50333333Y-123811905D01*
X50447619Y-123850000D01*
X50485714Y-123888095D01*
X51247619Y-124611905D02*
X50790476Y-124611905D01*
X51019047Y-124611905D02*
X51019047Y-123811905D01*
X50942857Y-123926190D01*
X50866666Y-124002381D01*
X50790476Y-124040476D01*
X51971429Y-123811905D02*
X51590476Y-123811905D01*
X51552381Y-124192857D01*
X51590476Y-124154762D01*
X51666667Y-124116667D01*
X51857143Y-124116667D01*
X51933333Y-124154762D01*
X51971429Y-124192857D01*
X52009524Y-124269048D01*
X52009524Y-124459524D01*
X51971429Y-124535714D01*
X51933333Y-124573810D01*
X51857143Y-124611905D01*
X51666667Y-124611905D01*
X51590476Y-124573810D01*
X51552381Y-124535714D01*
X53035714Y-87264286D02*
X53073810Y-87302381D01*
X53111905Y-87416667D01*
X53111905Y-87492857D01*
X53073810Y-87607143D01*
X52997619Y-87683334D01*
X52921429Y-87721429D01*
X52769048Y-87759524D01*
X52654762Y-87759524D01*
X52502381Y-87721429D01*
X52426190Y-87683334D01*
X52350000Y-87607143D01*
X52311905Y-87492857D01*
X52311905Y-87416667D01*
X52350000Y-87302381D01*
X52388095Y-87264286D01*
X52388095Y-86959524D02*
X52350000Y-86921429D01*
X52311905Y-86845238D01*
X52311905Y-86654762D01*
X52350000Y-86578572D01*
X52388095Y-86540476D01*
X52464286Y-86502381D01*
X52540476Y-86502381D01*
X52654762Y-86540476D01*
X53111905Y-86997619D01*
X53111905Y-86502381D01*
X52311905Y-85778571D02*
X52311905Y-86159524D01*
X52692857Y-86197619D01*
X52654762Y-86159524D01*
X52616667Y-86083333D01*
X52616667Y-85892857D01*
X52654762Y-85816667D01*
X52692857Y-85778571D01*
X52769048Y-85740476D01*
X52959524Y-85740476D01*
X53035714Y-85778571D01*
X53073810Y-85816667D01*
X53111905Y-85892857D01*
X53111905Y-86083333D01*
X53073810Y-86159524D01*
X53035714Y-86197619D01*
X53035714Y-133764286D02*
X53073810Y-133802381D01*
X53111905Y-133916667D01*
X53111905Y-133992857D01*
X53073810Y-134107143D01*
X52997619Y-134183334D01*
X52921429Y-134221429D01*
X52769048Y-134259524D01*
X52654762Y-134259524D01*
X52502381Y-134221429D01*
X52426190Y-134183334D01*
X52350000Y-134107143D01*
X52311905Y-133992857D01*
X52311905Y-133916667D01*
X52350000Y-133802381D01*
X52388095Y-133764286D01*
X53111905Y-133002381D02*
X53111905Y-133459524D01*
X53111905Y-133230953D02*
X52311905Y-133230953D01*
X52426190Y-133307143D01*
X52502381Y-133383334D01*
X52540476Y-133459524D01*
X52311905Y-132735714D02*
X52311905Y-132240476D01*
X52616667Y-132507143D01*
X52616667Y-132392857D01*
X52654762Y-132316667D01*
X52692857Y-132278571D01*
X52769048Y-132240476D01*
X52959524Y-132240476D01*
X53035714Y-132278571D01*
X53073810Y-132316667D01*
X53111905Y-132392857D01*
X53111905Y-132621429D01*
X53073810Y-132697619D01*
X53035714Y-132735714D01*
X49735714Y-83785714D02*
X49697619Y-83823810D01*
X49583333Y-83861905D01*
X49507143Y-83861905D01*
X49392857Y-83823810D01*
X49316666Y-83747619D01*
X49278571Y-83671429D01*
X49240476Y-83519048D01*
X49240476Y-83404762D01*
X49278571Y-83252381D01*
X49316666Y-83176190D01*
X49392857Y-83100000D01*
X49507143Y-83061905D01*
X49583333Y-83061905D01*
X49697619Y-83100000D01*
X49735714Y-83138095D01*
X50040476Y-83138095D02*
X50078571Y-83100000D01*
X50154762Y-83061905D01*
X50345238Y-83061905D01*
X50421428Y-83100000D01*
X50459524Y-83138095D01*
X50497619Y-83214286D01*
X50497619Y-83290476D01*
X50459524Y-83404762D01*
X50002381Y-83861905D01*
X50497619Y-83861905D01*
X51183333Y-83328571D02*
X51183333Y-83861905D01*
X50992857Y-83023810D02*
X50802381Y-83595238D01*
X51297619Y-83595238D01*
X61485714Y-105285714D02*
X61447619Y-105323810D01*
X61333333Y-105361905D01*
X61257143Y-105361905D01*
X61142857Y-105323810D01*
X61066666Y-105247619D01*
X61028571Y-105171429D01*
X60990476Y-105019048D01*
X60990476Y-104904762D01*
X61028571Y-104752381D01*
X61066666Y-104676190D01*
X61142857Y-104600000D01*
X61257143Y-104561905D01*
X61333333Y-104561905D01*
X61447619Y-104600000D01*
X61485714Y-104638095D01*
X61752381Y-104561905D02*
X62247619Y-104561905D01*
X61980952Y-104866667D01*
X62095238Y-104866667D01*
X62171428Y-104904762D01*
X62209524Y-104942857D01*
X62247619Y-105019048D01*
X62247619Y-105209524D01*
X62209524Y-105285714D01*
X62171428Y-105323810D01*
X62095238Y-105361905D01*
X61866666Y-105361905D01*
X61790476Y-105323810D01*
X61752381Y-105285714D01*
X62742857Y-104561905D02*
X62819048Y-104561905D01*
X62895238Y-104600000D01*
X62933333Y-104638095D01*
X62971429Y-104714286D01*
X63009524Y-104866667D01*
X63009524Y-105057143D01*
X62971429Y-105209524D01*
X62933333Y-105285714D01*
X62895238Y-105323810D01*
X62819048Y-105361905D01*
X62742857Y-105361905D01*
X62666667Y-105323810D01*
X62628571Y-105285714D01*
X62590476Y-105209524D01*
X62552381Y-105057143D01*
X62552381Y-104866667D01*
X62590476Y-104714286D01*
X62628571Y-104638095D01*
X62666667Y-104600000D01*
X62742857Y-104561905D01*
X66985714Y-110785714D02*
X66947619Y-110823810D01*
X66833333Y-110861905D01*
X66757143Y-110861905D01*
X66642857Y-110823810D01*
X66566666Y-110747619D01*
X66528571Y-110671429D01*
X66490476Y-110519048D01*
X66490476Y-110404762D01*
X66528571Y-110252381D01*
X66566666Y-110176190D01*
X66642857Y-110100000D01*
X66757143Y-110061905D01*
X66833333Y-110061905D01*
X66947619Y-110100000D01*
X66985714Y-110138095D01*
X67747619Y-110861905D02*
X67290476Y-110861905D01*
X67519047Y-110861905D02*
X67519047Y-110061905D01*
X67442857Y-110176190D01*
X67366666Y-110252381D01*
X67290476Y-110290476D01*
X68128571Y-110861905D02*
X68280952Y-110861905D01*
X68357143Y-110823810D01*
X68395238Y-110785714D01*
X68471429Y-110671429D01*
X68509524Y-110519048D01*
X68509524Y-110214286D01*
X68471429Y-110138095D01*
X68433333Y-110100000D01*
X68357143Y-110061905D01*
X68204762Y-110061905D01*
X68128571Y-110100000D01*
X68090476Y-110138095D01*
X68052381Y-110214286D01*
X68052381Y-110404762D01*
X68090476Y-110480952D01*
X68128571Y-110519048D01*
X68204762Y-110557143D01*
X68357143Y-110557143D01*
X68433333Y-110519048D01*
X68471429Y-110480952D01*
X68509524Y-110404762D01*
X72985714Y-108285714D02*
X72947619Y-108323810D01*
X72833333Y-108361905D01*
X72757143Y-108361905D01*
X72642857Y-108323810D01*
X72566666Y-108247619D01*
X72528571Y-108171429D01*
X72490476Y-108019048D01*
X72490476Y-107904762D01*
X72528571Y-107752381D01*
X72566666Y-107676190D01*
X72642857Y-107600000D01*
X72757143Y-107561905D01*
X72833333Y-107561905D01*
X72947619Y-107600000D01*
X72985714Y-107638095D01*
X73252381Y-107561905D02*
X73747619Y-107561905D01*
X73480952Y-107866667D01*
X73595238Y-107866667D01*
X73671428Y-107904762D01*
X73709524Y-107942857D01*
X73747619Y-108019048D01*
X73747619Y-108209524D01*
X73709524Y-108285714D01*
X73671428Y-108323810D01*
X73595238Y-108361905D01*
X73366666Y-108361905D01*
X73290476Y-108323810D01*
X73252381Y-108285714D01*
X74509524Y-108361905D02*
X74052381Y-108361905D01*
X74280952Y-108361905D02*
X74280952Y-107561905D01*
X74204762Y-107676190D01*
X74128571Y-107752381D01*
X74052381Y-107790476D01*
X47985714Y-70785714D02*
X47947619Y-70823810D01*
X47833333Y-70861905D01*
X47757143Y-70861905D01*
X47642857Y-70823810D01*
X47566666Y-70747619D01*
X47528571Y-70671429D01*
X47490476Y-70519048D01*
X47490476Y-70404762D01*
X47528571Y-70252381D01*
X47566666Y-70176190D01*
X47642857Y-70100000D01*
X47757143Y-70061905D01*
X47833333Y-70061905D01*
X47947619Y-70100000D01*
X47985714Y-70138095D01*
X48747619Y-70861905D02*
X48290476Y-70861905D01*
X48519047Y-70861905D02*
X48519047Y-70061905D01*
X48442857Y-70176190D01*
X48366666Y-70252381D01*
X48290476Y-70290476D01*
X49052381Y-70138095D02*
X49090476Y-70100000D01*
X49166667Y-70061905D01*
X49357143Y-70061905D01*
X49433333Y-70100000D01*
X49471429Y-70138095D01*
X49509524Y-70214286D01*
X49509524Y-70290476D01*
X49471429Y-70404762D01*
X49014286Y-70861905D01*
X49509524Y-70861905D01*
X50485714Y-69785714D02*
X50447619Y-69823810D01*
X50333333Y-69861905D01*
X50257143Y-69861905D01*
X50142857Y-69823810D01*
X50066666Y-69747619D01*
X50028571Y-69671429D01*
X49990476Y-69519048D01*
X49990476Y-69404762D01*
X50028571Y-69252381D01*
X50066666Y-69176190D01*
X50142857Y-69100000D01*
X50257143Y-69061905D01*
X50333333Y-69061905D01*
X50447619Y-69100000D01*
X50485714Y-69138095D01*
X51247619Y-69861905D02*
X50790476Y-69861905D01*
X51019047Y-69861905D02*
X51019047Y-69061905D01*
X50942857Y-69176190D01*
X50866666Y-69252381D01*
X50790476Y-69290476D01*
X51742857Y-69061905D02*
X51819048Y-69061905D01*
X51895238Y-69100000D01*
X51933333Y-69138095D01*
X51971429Y-69214286D01*
X52009524Y-69366667D01*
X52009524Y-69557143D01*
X51971429Y-69709524D01*
X51933333Y-69785714D01*
X51895238Y-69823810D01*
X51819048Y-69861905D01*
X51742857Y-69861905D01*
X51666667Y-69823810D01*
X51628571Y-69785714D01*
X51590476Y-69709524D01*
X51552381Y-69557143D01*
X51552381Y-69366667D01*
X51590476Y-69214286D01*
X51628571Y-69138095D01*
X51666667Y-69100000D01*
X51742857Y-69061905D01*
X73785714Y-78014286D02*
X73823810Y-78052381D01*
X73861905Y-78166667D01*
X73861905Y-78242857D01*
X73823810Y-78357143D01*
X73747619Y-78433334D01*
X73671429Y-78471429D01*
X73519048Y-78509524D01*
X73404762Y-78509524D01*
X73252381Y-78471429D01*
X73176190Y-78433334D01*
X73100000Y-78357143D01*
X73061905Y-78242857D01*
X73061905Y-78166667D01*
X73100000Y-78052381D01*
X73138095Y-78014286D01*
X73861905Y-77252381D02*
X73861905Y-77709524D01*
X73861905Y-77480953D02*
X73061905Y-77480953D01*
X73176190Y-77557143D01*
X73252381Y-77633334D01*
X73290476Y-77709524D01*
X73861905Y-76490476D02*
X73861905Y-76947619D01*
X73861905Y-76719048D02*
X73061905Y-76719048D01*
X73176190Y-76795238D01*
X73252381Y-76871429D01*
X73290476Y-76947619D01*
X61909524Y-72861905D02*
X61909524Y-72061905D01*
X62100000Y-72061905D01*
X62214286Y-72100000D01*
X62290477Y-72176190D01*
X62328572Y-72252381D01*
X62366667Y-72404762D01*
X62366667Y-72519048D01*
X62328572Y-72671429D01*
X62290477Y-72747619D01*
X62214286Y-72823810D01*
X62100000Y-72861905D01*
X61909524Y-72861905D01*
X62671429Y-72138095D02*
X62709524Y-72100000D01*
X62785715Y-72061905D01*
X62976191Y-72061905D01*
X63052381Y-72100000D01*
X63090477Y-72138095D01*
X63128572Y-72214286D01*
X63128572Y-72290476D01*
X63090477Y-72404762D01*
X62633334Y-72861905D01*
X63128572Y-72861905D01*
X48528571Y-78361905D02*
X48528571Y-77561905D01*
X48719047Y-77561905D01*
X48833333Y-77600000D01*
X48909524Y-77676190D01*
X48947619Y-77752381D01*
X48985714Y-77904762D01*
X48985714Y-78019048D01*
X48947619Y-78171429D01*
X48909524Y-78247619D01*
X48833333Y-78323810D01*
X48719047Y-78361905D01*
X48528571Y-78361905D01*
X49252381Y-77561905D02*
X49785714Y-77561905D01*
X49252381Y-78361905D01*
X49785714Y-78361905D01*
X50509524Y-78361905D02*
X50052381Y-78361905D01*
X50280952Y-78361905D02*
X50280952Y-77561905D01*
X50204762Y-77676190D01*
X50128571Y-77752381D01*
X50052381Y-77790476D01*
X97173810Y-76188095D02*
X97097619Y-76150000D01*
X97021429Y-76073810D01*
X96907143Y-75959524D01*
X96830952Y-75921429D01*
X96754762Y-75921429D01*
X96792857Y-76111905D02*
X96716667Y-76073810D01*
X96640476Y-75997619D01*
X96602381Y-75845238D01*
X96602381Y-75578571D01*
X96640476Y-75426190D01*
X96716667Y-75350000D01*
X96792857Y-75311905D01*
X96945238Y-75311905D01*
X97021429Y-75350000D01*
X97097619Y-75426190D01*
X97135714Y-75578571D01*
X97135714Y-75845238D01*
X97097619Y-75997619D01*
X97021429Y-76073810D01*
X96945238Y-76111905D01*
X96792857Y-76111905D01*
X97440476Y-75388095D02*
X97478571Y-75350000D01*
X97554762Y-75311905D01*
X97745238Y-75311905D01*
X97821428Y-75350000D01*
X97859524Y-75388095D01*
X97897619Y-75464286D01*
X97897619Y-75540476D01*
X97859524Y-75654762D01*
X97402381Y-76111905D01*
X97897619Y-76111905D01*
X88173810Y-76188095D02*
X88097619Y-76150000D01*
X88021429Y-76073810D01*
X87907143Y-75959524D01*
X87830952Y-75921429D01*
X87754762Y-75921429D01*
X87792857Y-76111905D02*
X87716667Y-76073810D01*
X87640476Y-75997619D01*
X87602381Y-75845238D01*
X87602381Y-75578571D01*
X87640476Y-75426190D01*
X87716667Y-75350000D01*
X87792857Y-75311905D01*
X87945238Y-75311905D01*
X88021429Y-75350000D01*
X88097619Y-75426190D01*
X88135714Y-75578571D01*
X88135714Y-75845238D01*
X88097619Y-75997619D01*
X88021429Y-76073810D01*
X87945238Y-76111905D01*
X87792857Y-76111905D01*
X88402381Y-75311905D02*
X88897619Y-75311905D01*
X88630952Y-75616667D01*
X88745238Y-75616667D01*
X88821428Y-75654762D01*
X88859524Y-75692857D01*
X88897619Y-75769048D01*
X88897619Y-75959524D01*
X88859524Y-76035714D01*
X88821428Y-76073810D01*
X88745238Y-76111905D01*
X88516666Y-76111905D01*
X88440476Y-76073810D01*
X88402381Y-76035714D01*
X34673810Y-130688095D02*
X34597619Y-130650000D01*
X34521429Y-130573810D01*
X34407143Y-130459524D01*
X34330952Y-130421429D01*
X34254762Y-130421429D01*
X34292857Y-130611905D02*
X34216667Y-130573810D01*
X34140476Y-130497619D01*
X34102381Y-130345238D01*
X34102381Y-130078571D01*
X34140476Y-129926190D01*
X34216667Y-129850000D01*
X34292857Y-129811905D01*
X34445238Y-129811905D01*
X34521429Y-129850000D01*
X34597619Y-129926190D01*
X34635714Y-130078571D01*
X34635714Y-130345238D01*
X34597619Y-130497619D01*
X34521429Y-130573810D01*
X34445238Y-130611905D01*
X34292857Y-130611905D01*
X35092857Y-130154762D02*
X35016666Y-130116667D01*
X34978571Y-130078571D01*
X34940476Y-130002381D01*
X34940476Y-129964286D01*
X34978571Y-129888095D01*
X35016666Y-129850000D01*
X35092857Y-129811905D01*
X35245238Y-129811905D01*
X35321428Y-129850000D01*
X35359524Y-129888095D01*
X35397619Y-129964286D01*
X35397619Y-130002381D01*
X35359524Y-130078571D01*
X35321428Y-130116667D01*
X35245238Y-130154762D01*
X35092857Y-130154762D01*
X35016666Y-130192857D01*
X34978571Y-130230952D01*
X34940476Y-130307143D01*
X34940476Y-130459524D01*
X34978571Y-130535714D01*
X35016666Y-130573810D01*
X35092857Y-130611905D01*
X35245238Y-130611905D01*
X35321428Y-130573810D01*
X35359524Y-130535714D01*
X35397619Y-130459524D01*
X35397619Y-130307143D01*
X35359524Y-130230952D01*
X35321428Y-130192857D01*
X35245238Y-130154762D01*
X40542858Y-80938095D02*
X40466667Y-80900000D01*
X40390477Y-80823810D01*
X40276191Y-80709524D01*
X40200000Y-80671429D01*
X40123810Y-80671429D01*
X40161905Y-80861905D02*
X40085715Y-80823810D01*
X40009524Y-80747619D01*
X39971429Y-80595238D01*
X39971429Y-80328571D01*
X40009524Y-80176190D01*
X40085715Y-80100000D01*
X40161905Y-80061905D01*
X40314286Y-80061905D01*
X40390477Y-80100000D01*
X40466667Y-80176190D01*
X40504762Y-80328571D01*
X40504762Y-80595238D01*
X40466667Y-80747619D01*
X40390477Y-80823810D01*
X40314286Y-80861905D01*
X40161905Y-80861905D01*
X41266667Y-80861905D02*
X40809524Y-80861905D01*
X41038095Y-80861905D02*
X41038095Y-80061905D01*
X40961905Y-80176190D01*
X40885714Y-80252381D01*
X40809524Y-80290476D01*
X42028572Y-80861905D02*
X41571429Y-80861905D01*
X41800000Y-80861905D02*
X41800000Y-80061905D01*
X41723810Y-80176190D01*
X41647619Y-80252381D01*
X41571429Y-80290476D01*
X52923810Y-78438095D02*
X52847619Y-78400000D01*
X52771429Y-78323810D01*
X52657143Y-78209524D01*
X52580952Y-78171429D01*
X52504762Y-78171429D01*
X52542857Y-78361905D02*
X52466667Y-78323810D01*
X52390476Y-78247619D01*
X52352381Y-78095238D01*
X52352381Y-77828571D01*
X52390476Y-77676190D01*
X52466667Y-77600000D01*
X52542857Y-77561905D01*
X52695238Y-77561905D01*
X52771429Y-77600000D01*
X52847619Y-77676190D01*
X52885714Y-77828571D01*
X52885714Y-78095238D01*
X52847619Y-78247619D01*
X52771429Y-78323810D01*
X52695238Y-78361905D01*
X52542857Y-78361905D01*
X53571428Y-77561905D02*
X53419047Y-77561905D01*
X53342857Y-77600000D01*
X53304762Y-77638095D01*
X53228571Y-77752381D01*
X53190476Y-77904762D01*
X53190476Y-78209524D01*
X53228571Y-78285714D01*
X53266666Y-78323810D01*
X53342857Y-78361905D01*
X53495238Y-78361905D01*
X53571428Y-78323810D01*
X53609524Y-78285714D01*
X53647619Y-78209524D01*
X53647619Y-78019048D01*
X53609524Y-77942857D01*
X53571428Y-77904762D01*
X53495238Y-77866667D01*
X53342857Y-77866667D01*
X53266666Y-77904762D01*
X53228571Y-77942857D01*
X53190476Y-78019048D01*
X57923810Y-73938095D02*
X57847619Y-73900000D01*
X57771429Y-73823810D01*
X57657143Y-73709524D01*
X57580952Y-73671429D01*
X57504762Y-73671429D01*
X57542857Y-73861905D02*
X57466667Y-73823810D01*
X57390476Y-73747619D01*
X57352381Y-73595238D01*
X57352381Y-73328571D01*
X57390476Y-73176190D01*
X57466667Y-73100000D01*
X57542857Y-73061905D01*
X57695238Y-73061905D01*
X57771429Y-73100000D01*
X57847619Y-73176190D01*
X57885714Y-73328571D01*
X57885714Y-73595238D01*
X57847619Y-73747619D01*
X57771429Y-73823810D01*
X57695238Y-73861905D01*
X57542857Y-73861905D01*
X58571428Y-73328571D02*
X58571428Y-73861905D01*
X58380952Y-73023810D02*
X58190476Y-73595238D01*
X58685714Y-73595238D01*
X70923810Y-65938095D02*
X70847619Y-65900000D01*
X70771429Y-65823810D01*
X70657143Y-65709524D01*
X70580952Y-65671429D01*
X70504762Y-65671429D01*
X70542857Y-65861905D02*
X70466667Y-65823810D01*
X70390476Y-65747619D01*
X70352381Y-65595238D01*
X70352381Y-65328571D01*
X70390476Y-65176190D01*
X70466667Y-65100000D01*
X70542857Y-65061905D01*
X70695238Y-65061905D01*
X70771429Y-65100000D01*
X70847619Y-65176190D01*
X70885714Y-65328571D01*
X70885714Y-65595238D01*
X70847619Y-65747619D01*
X70771429Y-65823810D01*
X70695238Y-65861905D01*
X70542857Y-65861905D01*
X71609524Y-65061905D02*
X71228571Y-65061905D01*
X71190476Y-65442857D01*
X71228571Y-65404762D01*
X71304762Y-65366667D01*
X71495238Y-65366667D01*
X71571428Y-65404762D01*
X71609524Y-65442857D01*
X71647619Y-65519048D01*
X71647619Y-65709524D01*
X71609524Y-65785714D01*
X71571428Y-65823810D01*
X71495238Y-65861905D01*
X71304762Y-65861905D01*
X71228571Y-65823810D01*
X71190476Y-65785714D01*
X193111905Y-127383333D02*
X192730952Y-127650000D01*
X193111905Y-127840476D02*
X192311905Y-127840476D01*
X192311905Y-127535714D01*
X192350000Y-127459523D01*
X192388095Y-127421428D01*
X192464286Y-127383333D01*
X192578571Y-127383333D01*
X192654762Y-127421428D01*
X192692857Y-127459523D01*
X192730952Y-127535714D01*
X192730952Y-127840476D01*
X192311905Y-126697619D02*
X192311905Y-126850000D01*
X192350000Y-126926190D01*
X192388095Y-126964285D01*
X192502381Y-127040476D01*
X192654762Y-127078571D01*
X192959524Y-127078571D01*
X193035714Y-127040476D01*
X193073810Y-127002381D01*
X193111905Y-126926190D01*
X193111905Y-126773809D01*
X193073810Y-126697619D01*
X193035714Y-126659523D01*
X192959524Y-126621428D01*
X192769048Y-126621428D01*
X192692857Y-126659523D01*
X192654762Y-126697619D01*
X192616667Y-126773809D01*
X192616667Y-126926190D01*
X192654762Y-127002381D01*
X192692857Y-127040476D01*
X192769048Y-127078571D01*
X213111905Y-127133333D02*
X212730952Y-127400000D01*
X213111905Y-127590476D02*
X212311905Y-127590476D01*
X212311905Y-127285714D01*
X212350000Y-127209523D01*
X212388095Y-127171428D01*
X212464286Y-127133333D01*
X212578571Y-127133333D01*
X212654762Y-127171428D01*
X212692857Y-127209523D01*
X212730952Y-127285714D01*
X212730952Y-127590476D01*
X212311905Y-126866666D02*
X212311905Y-126333333D01*
X213111905Y-126676190D01*
X202485714Y-140611905D02*
X202219047Y-140230952D01*
X202028571Y-140611905D02*
X202028571Y-139811905D01*
X202333333Y-139811905D01*
X202409524Y-139850000D01*
X202447619Y-139888095D01*
X202485714Y-139964286D01*
X202485714Y-140078571D01*
X202447619Y-140154762D01*
X202409524Y-140192857D01*
X202333333Y-140230952D01*
X202028571Y-140230952D01*
X203247619Y-140611905D02*
X202790476Y-140611905D01*
X203019047Y-140611905D02*
X203019047Y-139811905D01*
X202942857Y-139926190D01*
X202866666Y-140002381D01*
X202790476Y-140040476D01*
X203514286Y-139811905D02*
X204009524Y-139811905D01*
X203742857Y-140116667D01*
X203857143Y-140116667D01*
X203933333Y-140154762D01*
X203971429Y-140192857D01*
X204009524Y-140269048D01*
X204009524Y-140459524D01*
X203971429Y-140535714D01*
X203933333Y-140573810D01*
X203857143Y-140611905D01*
X203628571Y-140611905D01*
X203552381Y-140573810D01*
X203514286Y-140535714D01*
X162735714Y-140611905D02*
X162469047Y-140230952D01*
X162278571Y-140611905D02*
X162278571Y-139811905D01*
X162583333Y-139811905D01*
X162659524Y-139850000D01*
X162697619Y-139888095D01*
X162735714Y-139964286D01*
X162735714Y-140078571D01*
X162697619Y-140154762D01*
X162659524Y-140192857D01*
X162583333Y-140230952D01*
X162278571Y-140230952D01*
X163497619Y-140611905D02*
X163040476Y-140611905D01*
X163269047Y-140611905D02*
X163269047Y-139811905D01*
X163192857Y-139926190D01*
X163116666Y-140002381D01*
X163040476Y-140040476D01*
X164259524Y-140611905D02*
X163802381Y-140611905D01*
X164030952Y-140611905D02*
X164030952Y-139811905D01*
X163954762Y-139926190D01*
X163878571Y-140002381D01*
X163802381Y-140040476D01*
X182735714Y-140611905D02*
X182469047Y-140230952D01*
X182278571Y-140611905D02*
X182278571Y-139811905D01*
X182583333Y-139811905D01*
X182659524Y-139850000D01*
X182697619Y-139888095D01*
X182735714Y-139964286D01*
X182735714Y-140078571D01*
X182697619Y-140154762D01*
X182659524Y-140192857D01*
X182583333Y-140230952D01*
X182278571Y-140230952D01*
X183497619Y-140611905D02*
X183040476Y-140611905D01*
X183269047Y-140611905D02*
X183269047Y-139811905D01*
X183192857Y-139926190D01*
X183116666Y-140002381D01*
X183040476Y-140040476D01*
X183802381Y-139888095D02*
X183840476Y-139850000D01*
X183916667Y-139811905D01*
X184107143Y-139811905D01*
X184183333Y-139850000D01*
X184221429Y-139888095D01*
X184259524Y-139964286D01*
X184259524Y-140040476D01*
X184221429Y-140154762D01*
X183764286Y-140611905D01*
X184259524Y-140611905D01*
X142735714Y-140611905D02*
X142469047Y-140230952D01*
X142278571Y-140611905D02*
X142278571Y-139811905D01*
X142583333Y-139811905D01*
X142659524Y-139850000D01*
X142697619Y-139888095D01*
X142735714Y-139964286D01*
X142735714Y-140078571D01*
X142697619Y-140154762D01*
X142659524Y-140192857D01*
X142583333Y-140230952D01*
X142278571Y-140230952D01*
X143497619Y-140611905D02*
X143040476Y-140611905D01*
X143269047Y-140611905D02*
X143269047Y-139811905D01*
X143192857Y-139926190D01*
X143116666Y-140002381D01*
X143040476Y-140040476D01*
X143992857Y-139811905D02*
X144069048Y-139811905D01*
X144145238Y-139850000D01*
X144183333Y-139888095D01*
X144221429Y-139964286D01*
X144259524Y-140116667D01*
X144259524Y-140307143D01*
X144221429Y-140459524D01*
X144183333Y-140535714D01*
X144145238Y-140573810D01*
X144069048Y-140611905D01*
X143992857Y-140611905D01*
X143916667Y-140573810D01*
X143878571Y-140535714D01*
X143840476Y-140459524D01*
X143802381Y-140307143D01*
X143802381Y-140116667D01*
X143840476Y-139964286D01*
X143878571Y-139888095D01*
X143916667Y-139850000D01*
X143992857Y-139811905D01*
X122866667Y-140611905D02*
X122600000Y-140230952D01*
X122409524Y-140611905D02*
X122409524Y-139811905D01*
X122714286Y-139811905D01*
X122790477Y-139850000D01*
X122828572Y-139888095D01*
X122866667Y-139964286D01*
X122866667Y-140078571D01*
X122828572Y-140154762D01*
X122790477Y-140192857D01*
X122714286Y-140230952D01*
X122409524Y-140230952D01*
X123247619Y-140611905D02*
X123400000Y-140611905D01*
X123476191Y-140573810D01*
X123514286Y-140535714D01*
X123590477Y-140421429D01*
X123628572Y-140269048D01*
X123628572Y-139964286D01*
X123590477Y-139888095D01*
X123552381Y-139850000D01*
X123476191Y-139811905D01*
X123323810Y-139811905D01*
X123247619Y-139850000D01*
X123209524Y-139888095D01*
X123171429Y-139964286D01*
X123171429Y-140154762D01*
X123209524Y-140230952D01*
X123247619Y-140269048D01*
X123323810Y-140307143D01*
X123476191Y-140307143D01*
X123552381Y-140269048D01*
X123590477Y-140230952D01*
X123628572Y-140154762D01*
X103116667Y-140611905D02*
X102850000Y-140230952D01*
X102659524Y-140611905D02*
X102659524Y-139811905D01*
X102964286Y-139811905D01*
X103040477Y-139850000D01*
X103078572Y-139888095D01*
X103116667Y-139964286D01*
X103116667Y-140078571D01*
X103078572Y-140154762D01*
X103040477Y-140192857D01*
X102964286Y-140230952D01*
X102659524Y-140230952D01*
X103573810Y-140154762D02*
X103497619Y-140116667D01*
X103459524Y-140078571D01*
X103421429Y-140002381D01*
X103421429Y-139964286D01*
X103459524Y-139888095D01*
X103497619Y-139850000D01*
X103573810Y-139811905D01*
X103726191Y-139811905D01*
X103802381Y-139850000D01*
X103840477Y-139888095D01*
X103878572Y-139964286D01*
X103878572Y-140002381D01*
X103840477Y-140078571D01*
X103802381Y-140116667D01*
X103726191Y-140154762D01*
X103573810Y-140154762D01*
X103497619Y-140192857D01*
X103459524Y-140230952D01*
X103421429Y-140307143D01*
X103421429Y-140459524D01*
X103459524Y-140535714D01*
X103497619Y-140573810D01*
X103573810Y-140611905D01*
X103726191Y-140611905D01*
X103802381Y-140573810D01*
X103840477Y-140535714D01*
X103878572Y-140459524D01*
X103878572Y-140307143D01*
X103840477Y-140230952D01*
X103802381Y-140192857D01*
X103726191Y-140154762D01*
X94735714Y-62361905D02*
X94469047Y-61980952D01*
X94278571Y-62361905D02*
X94278571Y-61561905D01*
X94583333Y-61561905D01*
X94659524Y-61600000D01*
X94697619Y-61638095D01*
X94735714Y-61714286D01*
X94735714Y-61828571D01*
X94697619Y-61904762D01*
X94659524Y-61942857D01*
X94583333Y-61980952D01*
X94278571Y-61980952D01*
X95459524Y-61561905D02*
X95078571Y-61561905D01*
X95040476Y-61942857D01*
X95078571Y-61904762D01*
X95154762Y-61866667D01*
X95345238Y-61866667D01*
X95421428Y-61904762D01*
X95459524Y-61942857D01*
X95497619Y-62019048D01*
X95497619Y-62209524D01*
X95459524Y-62285714D01*
X95421428Y-62323810D01*
X95345238Y-62361905D01*
X95154762Y-62361905D01*
X95078571Y-62323810D01*
X95040476Y-62285714D01*
X95764286Y-61561905D02*
X96259524Y-61561905D01*
X95992857Y-61866667D01*
X96107143Y-61866667D01*
X96183333Y-61904762D01*
X96221429Y-61942857D01*
X96259524Y-62019048D01*
X96259524Y-62209524D01*
X96221429Y-62285714D01*
X96183333Y-62323810D01*
X96107143Y-62361905D01*
X95878571Y-62361905D01*
X95802381Y-62323810D01*
X95764286Y-62285714D01*
X31235714Y-124611905D02*
X30969047Y-124230952D01*
X30778571Y-124611905D02*
X30778571Y-123811905D01*
X31083333Y-123811905D01*
X31159524Y-123850000D01*
X31197619Y-123888095D01*
X31235714Y-123964286D01*
X31235714Y-124078571D01*
X31197619Y-124154762D01*
X31159524Y-124192857D01*
X31083333Y-124230952D01*
X30778571Y-124230952D01*
X31921428Y-123811905D02*
X31769047Y-123811905D01*
X31692857Y-123850000D01*
X31654762Y-123888095D01*
X31578571Y-124002381D01*
X31540476Y-124154762D01*
X31540476Y-124459524D01*
X31578571Y-124535714D01*
X31616666Y-124573810D01*
X31692857Y-124611905D01*
X31845238Y-124611905D01*
X31921428Y-124573810D01*
X31959524Y-124535714D01*
X31997619Y-124459524D01*
X31997619Y-124269048D01*
X31959524Y-124192857D01*
X31921428Y-124154762D01*
X31845238Y-124116667D01*
X31692857Y-124116667D01*
X31616666Y-124154762D01*
X31578571Y-124192857D01*
X31540476Y-124269048D01*
X32759524Y-124611905D02*
X32302381Y-124611905D01*
X32530952Y-124611905D02*
X32530952Y-123811905D01*
X32454762Y-123926190D01*
X32378571Y-124002381D01*
X32302381Y-124040476D01*
X97235714Y-62361905D02*
X96969047Y-61980952D01*
X96778571Y-62361905D02*
X96778571Y-61561905D01*
X97083333Y-61561905D01*
X97159524Y-61600000D01*
X97197619Y-61638095D01*
X97235714Y-61714286D01*
X97235714Y-61828571D01*
X97197619Y-61904762D01*
X97159524Y-61942857D01*
X97083333Y-61980952D01*
X96778571Y-61980952D01*
X97959524Y-61561905D02*
X97578571Y-61561905D01*
X97540476Y-61942857D01*
X97578571Y-61904762D01*
X97654762Y-61866667D01*
X97845238Y-61866667D01*
X97921428Y-61904762D01*
X97959524Y-61942857D01*
X97997619Y-62019048D01*
X97997619Y-62209524D01*
X97959524Y-62285714D01*
X97921428Y-62323810D01*
X97845238Y-62361905D01*
X97654762Y-62361905D01*
X97578571Y-62323810D01*
X97540476Y-62285714D01*
X98721429Y-61561905D02*
X98340476Y-61561905D01*
X98302381Y-61942857D01*
X98340476Y-61904762D01*
X98416667Y-61866667D01*
X98607143Y-61866667D01*
X98683333Y-61904762D01*
X98721429Y-61942857D01*
X98759524Y-62019048D01*
X98759524Y-62209524D01*
X98721429Y-62285714D01*
X98683333Y-62323810D01*
X98607143Y-62361905D01*
X98416667Y-62361905D01*
X98340476Y-62323810D01*
X98302381Y-62285714D01*
X31235714Y-125861905D02*
X30969047Y-125480952D01*
X30778571Y-125861905D02*
X30778571Y-125061905D01*
X31083333Y-125061905D01*
X31159524Y-125100000D01*
X31197619Y-125138095D01*
X31235714Y-125214286D01*
X31235714Y-125328571D01*
X31197619Y-125404762D01*
X31159524Y-125442857D01*
X31083333Y-125480952D01*
X30778571Y-125480952D01*
X31921428Y-125061905D02*
X31769047Y-125061905D01*
X31692857Y-125100000D01*
X31654762Y-125138095D01*
X31578571Y-125252381D01*
X31540476Y-125404762D01*
X31540476Y-125709524D01*
X31578571Y-125785714D01*
X31616666Y-125823810D01*
X31692857Y-125861905D01*
X31845238Y-125861905D01*
X31921428Y-125823810D01*
X31959524Y-125785714D01*
X31997619Y-125709524D01*
X31997619Y-125519048D01*
X31959524Y-125442857D01*
X31921428Y-125404762D01*
X31845238Y-125366667D01*
X31692857Y-125366667D01*
X31616666Y-125404762D01*
X31578571Y-125442857D01*
X31540476Y-125519048D01*
X32302381Y-125138095D02*
X32340476Y-125100000D01*
X32416667Y-125061905D01*
X32607143Y-125061905D01*
X32683333Y-125100000D01*
X32721429Y-125138095D01*
X32759524Y-125214286D01*
X32759524Y-125290476D01*
X32721429Y-125404762D01*
X32264286Y-125861905D01*
X32759524Y-125861905D01*
X33735714Y-83111905D02*
X33469047Y-82730952D01*
X33278571Y-83111905D02*
X33278571Y-82311905D01*
X33583333Y-82311905D01*
X33659524Y-82350000D01*
X33697619Y-82388095D01*
X33735714Y-82464286D01*
X33735714Y-82578571D01*
X33697619Y-82654762D01*
X33659524Y-82692857D01*
X33583333Y-82730952D01*
X33278571Y-82730952D01*
X34002381Y-82311905D02*
X34535714Y-82311905D01*
X34192857Y-83111905D01*
X34802381Y-82388095D02*
X34840476Y-82350000D01*
X34916667Y-82311905D01*
X35107143Y-82311905D01*
X35183333Y-82350000D01*
X35221429Y-82388095D01*
X35259524Y-82464286D01*
X35259524Y-82540476D01*
X35221429Y-82654762D01*
X34764286Y-83111905D01*
X35259524Y-83111905D01*
X35735714Y-87111905D02*
X35469047Y-86730952D01*
X35278571Y-87111905D02*
X35278571Y-86311905D01*
X35583333Y-86311905D01*
X35659524Y-86350000D01*
X35697619Y-86388095D01*
X35735714Y-86464286D01*
X35735714Y-86578571D01*
X35697619Y-86654762D01*
X35659524Y-86692857D01*
X35583333Y-86730952D01*
X35278571Y-86730952D01*
X36002381Y-86311905D02*
X36535714Y-86311905D01*
X36192857Y-87111905D01*
X37183333Y-86578571D02*
X37183333Y-87111905D01*
X36992857Y-86273810D02*
X36802381Y-86845238D01*
X37297619Y-86845238D01*
X44485714Y-136361905D02*
X44219047Y-135980952D01*
X44028571Y-136361905D02*
X44028571Y-135561905D01*
X44333333Y-135561905D01*
X44409524Y-135600000D01*
X44447619Y-135638095D01*
X44485714Y-135714286D01*
X44485714Y-135828571D01*
X44447619Y-135904762D01*
X44409524Y-135942857D01*
X44333333Y-135980952D01*
X44028571Y-135980952D01*
X45171428Y-135561905D02*
X45019047Y-135561905D01*
X44942857Y-135600000D01*
X44904762Y-135638095D01*
X44828571Y-135752381D01*
X44790476Y-135904762D01*
X44790476Y-136209524D01*
X44828571Y-136285714D01*
X44866666Y-136323810D01*
X44942857Y-136361905D01*
X45095238Y-136361905D01*
X45171428Y-136323810D01*
X45209524Y-136285714D01*
X45247619Y-136209524D01*
X45247619Y-136019048D01*
X45209524Y-135942857D01*
X45171428Y-135904762D01*
X45095238Y-135866667D01*
X44942857Y-135866667D01*
X44866666Y-135904762D01*
X44828571Y-135942857D01*
X44790476Y-136019048D01*
X45514286Y-135561905D02*
X46009524Y-135561905D01*
X45742857Y-135866667D01*
X45857143Y-135866667D01*
X45933333Y-135904762D01*
X45971429Y-135942857D01*
X46009524Y-136019048D01*
X46009524Y-136209524D01*
X45971429Y-136285714D01*
X45933333Y-136323810D01*
X45857143Y-136361905D01*
X45628571Y-136361905D01*
X45552381Y-136323810D01*
X45514286Y-136285714D01*
X42361905Y-140014286D02*
X41980952Y-140280953D01*
X42361905Y-140471429D02*
X41561905Y-140471429D01*
X41561905Y-140166667D01*
X41600000Y-140090476D01*
X41638095Y-140052381D01*
X41714286Y-140014286D01*
X41828571Y-140014286D01*
X41904762Y-140052381D01*
X41942857Y-140090476D01*
X41980952Y-140166667D01*
X41980952Y-140471429D01*
X41561905Y-139328572D02*
X41561905Y-139480953D01*
X41600000Y-139557143D01*
X41638095Y-139595238D01*
X41752381Y-139671429D01*
X41904762Y-139709524D01*
X42209524Y-139709524D01*
X42285714Y-139671429D01*
X42323810Y-139633334D01*
X42361905Y-139557143D01*
X42361905Y-139404762D01*
X42323810Y-139328572D01*
X42285714Y-139290476D01*
X42209524Y-139252381D01*
X42019048Y-139252381D01*
X41942857Y-139290476D01*
X41904762Y-139328572D01*
X41866667Y-139404762D01*
X41866667Y-139557143D01*
X41904762Y-139633334D01*
X41942857Y-139671429D01*
X42019048Y-139709524D01*
X42361905Y-138871429D02*
X42361905Y-138719048D01*
X42323810Y-138642857D01*
X42285714Y-138604762D01*
X42171429Y-138528571D01*
X42019048Y-138490476D01*
X41714286Y-138490476D01*
X41638095Y-138528571D01*
X41600000Y-138566667D01*
X41561905Y-138642857D01*
X41561905Y-138795238D01*
X41600000Y-138871429D01*
X41638095Y-138909524D01*
X41714286Y-138947619D01*
X41904762Y-138947619D01*
X41980952Y-138909524D01*
X42019048Y-138871429D01*
X42057143Y-138795238D01*
X42057143Y-138642857D01*
X42019048Y-138566667D01*
X41980952Y-138528571D01*
X41904762Y-138490476D01*
X39235714Y-94611905D02*
X38969047Y-94230952D01*
X38778571Y-94611905D02*
X38778571Y-93811905D01*
X39083333Y-93811905D01*
X39159524Y-93850000D01*
X39197619Y-93888095D01*
X39235714Y-93964286D01*
X39235714Y-94078571D01*
X39197619Y-94154762D01*
X39159524Y-94192857D01*
X39083333Y-94230952D01*
X38778571Y-94230952D01*
X39692857Y-94154762D02*
X39616666Y-94116667D01*
X39578571Y-94078571D01*
X39540476Y-94002381D01*
X39540476Y-93964286D01*
X39578571Y-93888095D01*
X39616666Y-93850000D01*
X39692857Y-93811905D01*
X39845238Y-93811905D01*
X39921428Y-93850000D01*
X39959524Y-93888095D01*
X39997619Y-93964286D01*
X39997619Y-94002381D01*
X39959524Y-94078571D01*
X39921428Y-94116667D01*
X39845238Y-94154762D01*
X39692857Y-94154762D01*
X39616666Y-94192857D01*
X39578571Y-94230952D01*
X39540476Y-94307143D01*
X39540476Y-94459524D01*
X39578571Y-94535714D01*
X39616666Y-94573810D01*
X39692857Y-94611905D01*
X39845238Y-94611905D01*
X39921428Y-94573810D01*
X39959524Y-94535714D01*
X39997619Y-94459524D01*
X39997619Y-94307143D01*
X39959524Y-94230952D01*
X39921428Y-94192857D01*
X39845238Y-94154762D01*
X40759524Y-94611905D02*
X40302381Y-94611905D01*
X40530952Y-94611905D02*
X40530952Y-93811905D01*
X40454762Y-93926190D01*
X40378571Y-94002381D01*
X40302381Y-94040476D01*
X35735714Y-89611905D02*
X35469047Y-89230952D01*
X35278571Y-89611905D02*
X35278571Y-88811905D01*
X35583333Y-88811905D01*
X35659524Y-88850000D01*
X35697619Y-88888095D01*
X35735714Y-88964286D01*
X35735714Y-89078571D01*
X35697619Y-89154762D01*
X35659524Y-89192857D01*
X35583333Y-89230952D01*
X35278571Y-89230952D01*
X36002381Y-88811905D02*
X36535714Y-88811905D01*
X36192857Y-89611905D01*
X37183333Y-88811905D02*
X37030952Y-88811905D01*
X36954762Y-88850000D01*
X36916667Y-88888095D01*
X36840476Y-89002381D01*
X36802381Y-89154762D01*
X36802381Y-89459524D01*
X36840476Y-89535714D01*
X36878571Y-89573810D01*
X36954762Y-89611905D01*
X37107143Y-89611905D01*
X37183333Y-89573810D01*
X37221429Y-89535714D01*
X37259524Y-89459524D01*
X37259524Y-89269048D01*
X37221429Y-89192857D01*
X37183333Y-89154762D01*
X37107143Y-89116667D01*
X36954762Y-89116667D01*
X36878571Y-89154762D01*
X36840476Y-89192857D01*
X36802381Y-89269048D01*
X42361905Y-137514286D02*
X41980952Y-137780953D01*
X42361905Y-137971429D02*
X41561905Y-137971429D01*
X41561905Y-137666667D01*
X41600000Y-137590476D01*
X41638095Y-137552381D01*
X41714286Y-137514286D01*
X41828571Y-137514286D01*
X41904762Y-137552381D01*
X41942857Y-137590476D01*
X41980952Y-137666667D01*
X41980952Y-137971429D01*
X41561905Y-137247619D02*
X41561905Y-136714286D01*
X42361905Y-137057143D01*
X41561905Y-136257143D02*
X41561905Y-136180952D01*
X41600000Y-136104762D01*
X41638095Y-136066667D01*
X41714286Y-136028571D01*
X41866667Y-135990476D01*
X42057143Y-135990476D01*
X42209524Y-136028571D01*
X42285714Y-136066667D01*
X42323810Y-136104762D01*
X42361905Y-136180952D01*
X42361905Y-136257143D01*
X42323810Y-136333333D01*
X42285714Y-136371429D01*
X42209524Y-136409524D01*
X42057143Y-136447619D01*
X41866667Y-136447619D01*
X41714286Y-136409524D01*
X41638095Y-136371429D01*
X41600000Y-136333333D01*
X41561905Y-136257143D01*
X33485714Y-93361905D02*
X33219047Y-92980952D01*
X33028571Y-93361905D02*
X33028571Y-92561905D01*
X33333333Y-92561905D01*
X33409524Y-92600000D01*
X33447619Y-92638095D01*
X33485714Y-92714286D01*
X33485714Y-92828571D01*
X33447619Y-92904762D01*
X33409524Y-92942857D01*
X33333333Y-92980952D01*
X33028571Y-92980952D01*
X33942857Y-92904762D02*
X33866666Y-92866667D01*
X33828571Y-92828571D01*
X33790476Y-92752381D01*
X33790476Y-92714286D01*
X33828571Y-92638095D01*
X33866666Y-92600000D01*
X33942857Y-92561905D01*
X34095238Y-92561905D01*
X34171428Y-92600000D01*
X34209524Y-92638095D01*
X34247619Y-92714286D01*
X34247619Y-92752381D01*
X34209524Y-92828571D01*
X34171428Y-92866667D01*
X34095238Y-92904762D01*
X33942857Y-92904762D01*
X33866666Y-92942857D01*
X33828571Y-92980952D01*
X33790476Y-93057143D01*
X33790476Y-93209524D01*
X33828571Y-93285714D01*
X33866666Y-93323810D01*
X33942857Y-93361905D01*
X34095238Y-93361905D01*
X34171428Y-93323810D01*
X34209524Y-93285714D01*
X34247619Y-93209524D01*
X34247619Y-93057143D01*
X34209524Y-92980952D01*
X34171428Y-92942857D01*
X34095238Y-92904762D01*
X34552381Y-92638095D02*
X34590476Y-92600000D01*
X34666667Y-92561905D01*
X34857143Y-92561905D01*
X34933333Y-92600000D01*
X34971429Y-92638095D01*
X35009524Y-92714286D01*
X35009524Y-92790476D01*
X34971429Y-92904762D01*
X34514286Y-93361905D01*
X35009524Y-93361905D01*
X44485714Y-135361905D02*
X44219047Y-134980952D01*
X44028571Y-135361905D02*
X44028571Y-134561905D01*
X44333333Y-134561905D01*
X44409524Y-134600000D01*
X44447619Y-134638095D01*
X44485714Y-134714286D01*
X44485714Y-134828571D01*
X44447619Y-134904762D01*
X44409524Y-134942857D01*
X44333333Y-134980952D01*
X44028571Y-134980952D01*
X45171428Y-134561905D02*
X45019047Y-134561905D01*
X44942857Y-134600000D01*
X44904762Y-134638095D01*
X44828571Y-134752381D01*
X44790476Y-134904762D01*
X44790476Y-135209524D01*
X44828571Y-135285714D01*
X44866666Y-135323810D01*
X44942857Y-135361905D01*
X45095238Y-135361905D01*
X45171428Y-135323810D01*
X45209524Y-135285714D01*
X45247619Y-135209524D01*
X45247619Y-135019048D01*
X45209524Y-134942857D01*
X45171428Y-134904762D01*
X45095238Y-134866667D01*
X44942857Y-134866667D01*
X44866666Y-134904762D01*
X44828571Y-134942857D01*
X44790476Y-135019048D01*
X45933333Y-134828571D02*
X45933333Y-135361905D01*
X45742857Y-134523810D02*
X45552381Y-135095238D01*
X46047619Y-135095238D01*
X43485714Y-140361905D02*
X43219047Y-139980952D01*
X43028571Y-140361905D02*
X43028571Y-139561905D01*
X43333333Y-139561905D01*
X43409524Y-139600000D01*
X43447619Y-139638095D01*
X43485714Y-139714286D01*
X43485714Y-139828571D01*
X43447619Y-139904762D01*
X43409524Y-139942857D01*
X43333333Y-139980952D01*
X43028571Y-139980952D01*
X44171428Y-139561905D02*
X44019047Y-139561905D01*
X43942857Y-139600000D01*
X43904762Y-139638095D01*
X43828571Y-139752381D01*
X43790476Y-139904762D01*
X43790476Y-140209524D01*
X43828571Y-140285714D01*
X43866666Y-140323810D01*
X43942857Y-140361905D01*
X44095238Y-140361905D01*
X44171428Y-140323810D01*
X44209524Y-140285714D01*
X44247619Y-140209524D01*
X44247619Y-140019048D01*
X44209524Y-139942857D01*
X44171428Y-139904762D01*
X44095238Y-139866667D01*
X43942857Y-139866667D01*
X43866666Y-139904762D01*
X43828571Y-139942857D01*
X43790476Y-140019048D01*
X44704762Y-139904762D02*
X44628571Y-139866667D01*
X44590476Y-139828571D01*
X44552381Y-139752381D01*
X44552381Y-139714286D01*
X44590476Y-139638095D01*
X44628571Y-139600000D01*
X44704762Y-139561905D01*
X44857143Y-139561905D01*
X44933333Y-139600000D01*
X44971429Y-139638095D01*
X45009524Y-139714286D01*
X45009524Y-139752381D01*
X44971429Y-139828571D01*
X44933333Y-139866667D01*
X44857143Y-139904762D01*
X44704762Y-139904762D01*
X44628571Y-139942857D01*
X44590476Y-139980952D01*
X44552381Y-140057143D01*
X44552381Y-140209524D01*
X44590476Y-140285714D01*
X44628571Y-140323810D01*
X44704762Y-140361905D01*
X44857143Y-140361905D01*
X44933333Y-140323810D01*
X44971429Y-140285714D01*
X45009524Y-140209524D01*
X45009524Y-140057143D01*
X44971429Y-139980952D01*
X44933333Y-139942857D01*
X44857143Y-139904762D01*
X33485714Y-90861905D02*
X33219047Y-90480952D01*
X33028571Y-90861905D02*
X33028571Y-90061905D01*
X33333333Y-90061905D01*
X33409524Y-90100000D01*
X33447619Y-90138095D01*
X33485714Y-90214286D01*
X33485714Y-90328571D01*
X33447619Y-90404762D01*
X33409524Y-90442857D01*
X33333333Y-90480952D01*
X33028571Y-90480952D01*
X33942857Y-90404762D02*
X33866666Y-90366667D01*
X33828571Y-90328571D01*
X33790476Y-90252381D01*
X33790476Y-90214286D01*
X33828571Y-90138095D01*
X33866666Y-90100000D01*
X33942857Y-90061905D01*
X34095238Y-90061905D01*
X34171428Y-90100000D01*
X34209524Y-90138095D01*
X34247619Y-90214286D01*
X34247619Y-90252381D01*
X34209524Y-90328571D01*
X34171428Y-90366667D01*
X34095238Y-90404762D01*
X33942857Y-90404762D01*
X33866666Y-90442857D01*
X33828571Y-90480952D01*
X33790476Y-90557143D01*
X33790476Y-90709524D01*
X33828571Y-90785714D01*
X33866666Y-90823810D01*
X33942857Y-90861905D01*
X34095238Y-90861905D01*
X34171428Y-90823810D01*
X34209524Y-90785714D01*
X34247619Y-90709524D01*
X34247619Y-90557143D01*
X34209524Y-90480952D01*
X34171428Y-90442857D01*
X34095238Y-90404762D01*
X34742857Y-90061905D02*
X34819048Y-90061905D01*
X34895238Y-90100000D01*
X34933333Y-90138095D01*
X34971429Y-90214286D01*
X35009524Y-90366667D01*
X35009524Y-90557143D01*
X34971429Y-90709524D01*
X34933333Y-90785714D01*
X34895238Y-90823810D01*
X34819048Y-90861905D01*
X34742857Y-90861905D01*
X34666667Y-90823810D01*
X34628571Y-90785714D01*
X34590476Y-90709524D01*
X34552381Y-90557143D01*
X34552381Y-90366667D01*
X34590476Y-90214286D01*
X34628571Y-90138095D01*
X34666667Y-90100000D01*
X34742857Y-90061905D01*
X45485714Y-82111905D02*
X45219047Y-81730952D01*
X45028571Y-82111905D02*
X45028571Y-81311905D01*
X45333333Y-81311905D01*
X45409524Y-81350000D01*
X45447619Y-81388095D01*
X45485714Y-81464286D01*
X45485714Y-81578571D01*
X45447619Y-81654762D01*
X45409524Y-81692857D01*
X45333333Y-81730952D01*
X45028571Y-81730952D01*
X45752381Y-81311905D02*
X46285714Y-81311905D01*
X45942857Y-82111905D01*
X47009524Y-82111905D02*
X46552381Y-82111905D01*
X46780952Y-82111905D02*
X46780952Y-81311905D01*
X46704762Y-81426190D01*
X46628571Y-81502381D01*
X46552381Y-81540476D01*
X38985714Y-125611905D02*
X38719047Y-125230952D01*
X38528571Y-125611905D02*
X38528571Y-124811905D01*
X38833333Y-124811905D01*
X38909524Y-124850000D01*
X38947619Y-124888095D01*
X38985714Y-124964286D01*
X38985714Y-125078571D01*
X38947619Y-125154762D01*
X38909524Y-125192857D01*
X38833333Y-125230952D01*
X38528571Y-125230952D01*
X39709524Y-124811905D02*
X39328571Y-124811905D01*
X39290476Y-125192857D01*
X39328571Y-125154762D01*
X39404762Y-125116667D01*
X39595238Y-125116667D01*
X39671428Y-125154762D01*
X39709524Y-125192857D01*
X39747619Y-125269048D01*
X39747619Y-125459524D01*
X39709524Y-125535714D01*
X39671428Y-125573810D01*
X39595238Y-125611905D01*
X39404762Y-125611905D01*
X39328571Y-125573810D01*
X39290476Y-125535714D01*
X40128571Y-125611905D02*
X40280952Y-125611905D01*
X40357143Y-125573810D01*
X40395238Y-125535714D01*
X40471429Y-125421429D01*
X40509524Y-125269048D01*
X40509524Y-124964286D01*
X40471429Y-124888095D01*
X40433333Y-124850000D01*
X40357143Y-124811905D01*
X40204762Y-124811905D01*
X40128571Y-124850000D01*
X40090476Y-124888095D01*
X40052381Y-124964286D01*
X40052381Y-125154762D01*
X40090476Y-125230952D01*
X40128571Y-125269048D01*
X40204762Y-125307143D01*
X40357143Y-125307143D01*
X40433333Y-125269048D01*
X40471429Y-125230952D01*
X40509524Y-125154762D01*
X45985714Y-125611905D02*
X45719047Y-125230952D01*
X45528571Y-125611905D02*
X45528571Y-124811905D01*
X45833333Y-124811905D01*
X45909524Y-124850000D01*
X45947619Y-124888095D01*
X45985714Y-124964286D01*
X45985714Y-125078571D01*
X45947619Y-125154762D01*
X45909524Y-125192857D01*
X45833333Y-125230952D01*
X45528571Y-125230952D01*
X46671428Y-124811905D02*
X46519047Y-124811905D01*
X46442857Y-124850000D01*
X46404762Y-124888095D01*
X46328571Y-125002381D01*
X46290476Y-125154762D01*
X46290476Y-125459524D01*
X46328571Y-125535714D01*
X46366666Y-125573810D01*
X46442857Y-125611905D01*
X46595238Y-125611905D01*
X46671428Y-125573810D01*
X46709524Y-125535714D01*
X46747619Y-125459524D01*
X46747619Y-125269048D01*
X46709524Y-125192857D01*
X46671428Y-125154762D01*
X46595238Y-125116667D01*
X46442857Y-125116667D01*
X46366666Y-125154762D01*
X46328571Y-125192857D01*
X46290476Y-125269048D01*
X47242857Y-124811905D02*
X47319048Y-124811905D01*
X47395238Y-124850000D01*
X47433333Y-124888095D01*
X47471429Y-124964286D01*
X47509524Y-125116667D01*
X47509524Y-125307143D01*
X47471429Y-125459524D01*
X47433333Y-125535714D01*
X47395238Y-125573810D01*
X47319048Y-125611905D01*
X47242857Y-125611905D01*
X47166667Y-125573810D01*
X47128571Y-125535714D01*
X47090476Y-125459524D01*
X47052381Y-125307143D01*
X47052381Y-125116667D01*
X47090476Y-124964286D01*
X47128571Y-124888095D01*
X47166667Y-124850000D01*
X47242857Y-124811905D01*
X47985714Y-82111905D02*
X47719047Y-81730952D01*
X47528571Y-82111905D02*
X47528571Y-81311905D01*
X47833333Y-81311905D01*
X47909524Y-81350000D01*
X47947619Y-81388095D01*
X47985714Y-81464286D01*
X47985714Y-81578571D01*
X47947619Y-81654762D01*
X47909524Y-81692857D01*
X47833333Y-81730952D01*
X47528571Y-81730952D01*
X48252381Y-81311905D02*
X48785714Y-81311905D01*
X48442857Y-82111905D01*
X49014286Y-81311905D02*
X49509524Y-81311905D01*
X49242857Y-81616667D01*
X49357143Y-81616667D01*
X49433333Y-81654762D01*
X49471429Y-81692857D01*
X49509524Y-81769048D01*
X49509524Y-81959524D01*
X49471429Y-82035714D01*
X49433333Y-82073810D01*
X49357143Y-82111905D01*
X49128571Y-82111905D01*
X49052381Y-82073810D01*
X49014286Y-82035714D01*
X63485714Y-110361905D02*
X63219047Y-109980952D01*
X63028571Y-110361905D02*
X63028571Y-109561905D01*
X63333333Y-109561905D01*
X63409524Y-109600000D01*
X63447619Y-109638095D01*
X63485714Y-109714286D01*
X63485714Y-109828571D01*
X63447619Y-109904762D01*
X63409524Y-109942857D01*
X63333333Y-109980952D01*
X63028571Y-109980952D01*
X64171428Y-109561905D02*
X64019047Y-109561905D01*
X63942857Y-109600000D01*
X63904762Y-109638095D01*
X63828571Y-109752381D01*
X63790476Y-109904762D01*
X63790476Y-110209524D01*
X63828571Y-110285714D01*
X63866666Y-110323810D01*
X63942857Y-110361905D01*
X64095238Y-110361905D01*
X64171428Y-110323810D01*
X64209524Y-110285714D01*
X64247619Y-110209524D01*
X64247619Y-110019048D01*
X64209524Y-109942857D01*
X64171428Y-109904762D01*
X64095238Y-109866667D01*
X63942857Y-109866667D01*
X63866666Y-109904762D01*
X63828571Y-109942857D01*
X63790476Y-110019048D01*
X64514286Y-109561905D02*
X65047619Y-109561905D01*
X64704762Y-110361905D01*
X59985714Y-107361905D02*
X59719047Y-106980952D01*
X59528571Y-107361905D02*
X59528571Y-106561905D01*
X59833333Y-106561905D01*
X59909524Y-106600000D01*
X59947619Y-106638095D01*
X59985714Y-106714286D01*
X59985714Y-106828571D01*
X59947619Y-106904762D01*
X59909524Y-106942857D01*
X59833333Y-106980952D01*
X59528571Y-106980952D01*
X60252381Y-106561905D02*
X60785714Y-106561905D01*
X60442857Y-107361905D01*
X61128571Y-107361905D02*
X61280952Y-107361905D01*
X61357143Y-107323810D01*
X61395238Y-107285714D01*
X61471429Y-107171429D01*
X61509524Y-107019048D01*
X61509524Y-106714286D01*
X61471429Y-106638095D01*
X61433333Y-106600000D01*
X61357143Y-106561905D01*
X61204762Y-106561905D01*
X61128571Y-106600000D01*
X61090476Y-106638095D01*
X61052381Y-106714286D01*
X61052381Y-106904762D01*
X61090476Y-106980952D01*
X61128571Y-107019048D01*
X61204762Y-107057143D01*
X61357143Y-107057143D01*
X61433333Y-107019048D01*
X61471429Y-106980952D01*
X61509524Y-106904762D01*
X50485714Y-70861905D02*
X50219047Y-70480952D01*
X50028571Y-70861905D02*
X50028571Y-70061905D01*
X50333333Y-70061905D01*
X50409524Y-70100000D01*
X50447619Y-70138095D01*
X50485714Y-70214286D01*
X50485714Y-70328571D01*
X50447619Y-70404762D01*
X50409524Y-70442857D01*
X50333333Y-70480952D01*
X50028571Y-70480952D01*
X51209524Y-70061905D02*
X50828571Y-70061905D01*
X50790476Y-70442857D01*
X50828571Y-70404762D01*
X50904762Y-70366667D01*
X51095238Y-70366667D01*
X51171428Y-70404762D01*
X51209524Y-70442857D01*
X51247619Y-70519048D01*
X51247619Y-70709524D01*
X51209524Y-70785714D01*
X51171428Y-70823810D01*
X51095238Y-70861905D01*
X50904762Y-70861905D01*
X50828571Y-70823810D01*
X50790476Y-70785714D01*
X51933333Y-70061905D02*
X51780952Y-70061905D01*
X51704762Y-70100000D01*
X51666667Y-70138095D01*
X51590476Y-70252381D01*
X51552381Y-70404762D01*
X51552381Y-70709524D01*
X51590476Y-70785714D01*
X51628571Y-70823810D01*
X51704762Y-70861905D01*
X51857143Y-70861905D01*
X51933333Y-70823810D01*
X51971429Y-70785714D01*
X52009524Y-70709524D01*
X52009524Y-70519048D01*
X51971429Y-70442857D01*
X51933333Y-70404762D01*
X51857143Y-70366667D01*
X51704762Y-70366667D01*
X51628571Y-70404762D01*
X51590476Y-70442857D01*
X51552381Y-70519048D01*
X56985714Y-79861905D02*
X56719047Y-79480952D01*
X56528571Y-79861905D02*
X56528571Y-79061905D01*
X56833333Y-79061905D01*
X56909524Y-79100000D01*
X56947619Y-79138095D01*
X56985714Y-79214286D01*
X56985714Y-79328571D01*
X56947619Y-79404762D01*
X56909524Y-79442857D01*
X56833333Y-79480952D01*
X56528571Y-79480952D01*
X57709524Y-79061905D02*
X57328571Y-79061905D01*
X57290476Y-79442857D01*
X57328571Y-79404762D01*
X57404762Y-79366667D01*
X57595238Y-79366667D01*
X57671428Y-79404762D01*
X57709524Y-79442857D01*
X57747619Y-79519048D01*
X57747619Y-79709524D01*
X57709524Y-79785714D01*
X57671428Y-79823810D01*
X57595238Y-79861905D01*
X57404762Y-79861905D01*
X57328571Y-79823810D01*
X57290476Y-79785714D01*
X58433333Y-79328571D02*
X58433333Y-79861905D01*
X58242857Y-79023810D02*
X58052381Y-79595238D01*
X58547619Y-79595238D01*
X54485714Y-79861905D02*
X54219047Y-79480952D01*
X54028571Y-79861905D02*
X54028571Y-79061905D01*
X54333333Y-79061905D01*
X54409524Y-79100000D01*
X54447619Y-79138095D01*
X54485714Y-79214286D01*
X54485714Y-79328571D01*
X54447619Y-79404762D01*
X54409524Y-79442857D01*
X54333333Y-79480952D01*
X54028571Y-79480952D01*
X55209524Y-79061905D02*
X54828571Y-79061905D01*
X54790476Y-79442857D01*
X54828571Y-79404762D01*
X54904762Y-79366667D01*
X55095238Y-79366667D01*
X55171428Y-79404762D01*
X55209524Y-79442857D01*
X55247619Y-79519048D01*
X55247619Y-79709524D01*
X55209524Y-79785714D01*
X55171428Y-79823810D01*
X55095238Y-79861905D01*
X54904762Y-79861905D01*
X54828571Y-79823810D01*
X54790476Y-79785714D01*
X55514286Y-79061905D02*
X56047619Y-79061905D01*
X55704762Y-79861905D01*
X70985714Y-69361905D02*
X70719047Y-68980952D01*
X70528571Y-69361905D02*
X70528571Y-68561905D01*
X70833333Y-68561905D01*
X70909524Y-68600000D01*
X70947619Y-68638095D01*
X70985714Y-68714286D01*
X70985714Y-68828571D01*
X70947619Y-68904762D01*
X70909524Y-68942857D01*
X70833333Y-68980952D01*
X70528571Y-68980952D01*
X71709524Y-68561905D02*
X71328571Y-68561905D01*
X71290476Y-68942857D01*
X71328571Y-68904762D01*
X71404762Y-68866667D01*
X71595238Y-68866667D01*
X71671428Y-68904762D01*
X71709524Y-68942857D01*
X71747619Y-69019048D01*
X71747619Y-69209524D01*
X71709524Y-69285714D01*
X71671428Y-69323810D01*
X71595238Y-69361905D01*
X71404762Y-69361905D01*
X71328571Y-69323810D01*
X71290476Y-69285714D01*
X72204762Y-68904762D02*
X72128571Y-68866667D01*
X72090476Y-68828571D01*
X72052381Y-68752381D01*
X72052381Y-68714286D01*
X72090476Y-68638095D01*
X72128571Y-68600000D01*
X72204762Y-68561905D01*
X72357143Y-68561905D01*
X72433333Y-68600000D01*
X72471429Y-68638095D01*
X72509524Y-68714286D01*
X72509524Y-68752381D01*
X72471429Y-68828571D01*
X72433333Y-68866667D01*
X72357143Y-68904762D01*
X72204762Y-68904762D01*
X72128571Y-68942857D01*
X72090476Y-68980952D01*
X72052381Y-69057143D01*
X72052381Y-69209524D01*
X72090476Y-69285714D01*
X72128571Y-69323810D01*
X72204762Y-69361905D01*
X72357143Y-69361905D01*
X72433333Y-69323810D01*
X72471429Y-69285714D01*
X72509524Y-69209524D01*
X72509524Y-69057143D01*
X72471429Y-68980952D01*
X72433333Y-68942857D01*
X72357143Y-68904762D01*
X113111905Y-127883333D02*
X112730952Y-128150000D01*
X113111905Y-128340476D02*
X112311905Y-128340476D01*
X112311905Y-128035714D01*
X112350000Y-127959523D01*
X112388095Y-127921428D01*
X112464286Y-127883333D01*
X112578571Y-127883333D01*
X112654762Y-127921428D01*
X112692857Y-127959523D01*
X112730952Y-128035714D01*
X112730952Y-128340476D01*
X112388095Y-127578571D02*
X112350000Y-127540476D01*
X112311905Y-127464285D01*
X112311905Y-127273809D01*
X112350000Y-127197619D01*
X112388095Y-127159523D01*
X112464286Y-127121428D01*
X112540476Y-127121428D01*
X112654762Y-127159523D01*
X113111905Y-127616666D01*
X113111905Y-127121428D01*
X133111905Y-127883333D02*
X132730952Y-128150000D01*
X133111905Y-128340476D02*
X132311905Y-128340476D01*
X132311905Y-128035714D01*
X132350000Y-127959523D01*
X132388095Y-127921428D01*
X132464286Y-127883333D01*
X132578571Y-127883333D01*
X132654762Y-127921428D01*
X132692857Y-127959523D01*
X132730952Y-128035714D01*
X132730952Y-128340476D01*
X132311905Y-127616666D02*
X132311905Y-127121428D01*
X132616667Y-127388095D01*
X132616667Y-127273809D01*
X132654762Y-127197619D01*
X132692857Y-127159523D01*
X132769048Y-127121428D01*
X132959524Y-127121428D01*
X133035714Y-127159523D01*
X133073810Y-127197619D01*
X133111905Y-127273809D01*
X133111905Y-127502381D01*
X133073810Y-127578571D01*
X133035714Y-127616666D01*
X153111905Y-127883333D02*
X152730952Y-128150000D01*
X153111905Y-128340476D02*
X152311905Y-128340476D01*
X152311905Y-128035714D01*
X152350000Y-127959523D01*
X152388095Y-127921428D01*
X152464286Y-127883333D01*
X152578571Y-127883333D01*
X152654762Y-127921428D01*
X152692857Y-127959523D01*
X152730952Y-128035714D01*
X152730952Y-128340476D01*
X152578571Y-127197619D02*
X153111905Y-127197619D01*
X152273810Y-127388095D02*
X152845238Y-127578571D01*
X152845238Y-127083333D01*
X173111905Y-127883333D02*
X172730952Y-128150000D01*
X173111905Y-128340476D02*
X172311905Y-128340476D01*
X172311905Y-128035714D01*
X172350000Y-127959523D01*
X172388095Y-127921428D01*
X172464286Y-127883333D01*
X172578571Y-127883333D01*
X172654762Y-127921428D01*
X172692857Y-127959523D01*
X172730952Y-128035714D01*
X172730952Y-128340476D01*
X172311905Y-127159523D02*
X172311905Y-127540476D01*
X172692857Y-127578571D01*
X172654762Y-127540476D01*
X172616667Y-127464285D01*
X172616667Y-127273809D01*
X172654762Y-127197619D01*
X172692857Y-127159523D01*
X172769048Y-127121428D01*
X172959524Y-127121428D01*
X173035714Y-127159523D01*
X173073810Y-127197619D01*
X173111905Y-127273809D01*
X173111905Y-127464285D01*
X173073810Y-127540476D01*
X173035714Y-127578571D01*
X215485714Y-119611905D02*
X215219047Y-119230952D01*
X215028571Y-119611905D02*
X215028571Y-118811905D01*
X215333333Y-118811905D01*
X215409524Y-118850000D01*
X215447619Y-118888095D01*
X215485714Y-118964286D01*
X215485714Y-119078571D01*
X215447619Y-119154762D01*
X215409524Y-119192857D01*
X215333333Y-119230952D01*
X215028571Y-119230952D01*
X216247619Y-119611905D02*
X215790476Y-119611905D01*
X216019047Y-119611905D02*
X216019047Y-118811905D01*
X215942857Y-118926190D01*
X215866666Y-119002381D01*
X215790476Y-119040476D01*
X216704762Y-119154762D02*
X216628571Y-119116667D01*
X216590476Y-119078571D01*
X216552381Y-119002381D01*
X216552381Y-118964286D01*
X216590476Y-118888095D01*
X216628571Y-118850000D01*
X216704762Y-118811905D01*
X216857143Y-118811905D01*
X216933333Y-118850000D01*
X216971429Y-118888095D01*
X217009524Y-118964286D01*
X217009524Y-119002381D01*
X216971429Y-119078571D01*
X216933333Y-119116667D01*
X216857143Y-119154762D01*
X216704762Y-119154762D01*
X216628571Y-119192857D01*
X216590476Y-119230952D01*
X216552381Y-119307143D01*
X216552381Y-119459524D01*
X216590476Y-119535714D01*
X216628571Y-119573810D01*
X216704762Y-119611905D01*
X216857143Y-119611905D01*
X216933333Y-119573810D01*
X216971429Y-119535714D01*
X217009524Y-119459524D01*
X217009524Y-119307143D01*
X216971429Y-119230952D01*
X216933333Y-119192857D01*
X216857143Y-119154762D01*
X215485714Y-117361905D02*
X215219047Y-116980952D01*
X215028571Y-117361905D02*
X215028571Y-116561905D01*
X215333333Y-116561905D01*
X215409524Y-116600000D01*
X215447619Y-116638095D01*
X215485714Y-116714286D01*
X215485714Y-116828571D01*
X215447619Y-116904762D01*
X215409524Y-116942857D01*
X215333333Y-116980952D01*
X215028571Y-116980952D01*
X215790476Y-116638095D02*
X215828571Y-116600000D01*
X215904762Y-116561905D01*
X216095238Y-116561905D01*
X216171428Y-116600000D01*
X216209524Y-116638095D01*
X216247619Y-116714286D01*
X216247619Y-116790476D01*
X216209524Y-116904762D01*
X215752381Y-117361905D01*
X216247619Y-117361905D01*
X216552381Y-116638095D02*
X216590476Y-116600000D01*
X216666667Y-116561905D01*
X216857143Y-116561905D01*
X216933333Y-116600000D01*
X216971429Y-116638095D01*
X217009524Y-116714286D01*
X217009524Y-116790476D01*
X216971429Y-116904762D01*
X216514286Y-117361905D01*
X217009524Y-117361905D01*
X215485714Y-115111905D02*
X215219047Y-114730952D01*
X215028571Y-115111905D02*
X215028571Y-114311905D01*
X215333333Y-114311905D01*
X215409524Y-114350000D01*
X215447619Y-114388095D01*
X215485714Y-114464286D01*
X215485714Y-114578571D01*
X215447619Y-114654762D01*
X215409524Y-114692857D01*
X215333333Y-114730952D01*
X215028571Y-114730952D01*
X215790476Y-114388095D02*
X215828571Y-114350000D01*
X215904762Y-114311905D01*
X216095238Y-114311905D01*
X216171428Y-114350000D01*
X216209524Y-114388095D01*
X216247619Y-114464286D01*
X216247619Y-114540476D01*
X216209524Y-114654762D01*
X215752381Y-115111905D01*
X216247619Y-115111905D01*
X216933333Y-114311905D02*
X216780952Y-114311905D01*
X216704762Y-114350000D01*
X216666667Y-114388095D01*
X216590476Y-114502381D01*
X216552381Y-114654762D01*
X216552381Y-114959524D01*
X216590476Y-115035714D01*
X216628571Y-115073810D01*
X216704762Y-115111905D01*
X216857143Y-115111905D01*
X216933333Y-115073810D01*
X216971429Y-115035714D01*
X217009524Y-114959524D01*
X217009524Y-114769048D01*
X216971429Y-114692857D01*
X216933333Y-114654762D01*
X216857143Y-114616667D01*
X216704762Y-114616667D01*
X216628571Y-114654762D01*
X216590476Y-114692857D01*
X216552381Y-114769048D01*
X215485714Y-112861905D02*
X215219047Y-112480952D01*
X215028571Y-112861905D02*
X215028571Y-112061905D01*
X215333333Y-112061905D01*
X215409524Y-112100000D01*
X215447619Y-112138095D01*
X215485714Y-112214286D01*
X215485714Y-112328571D01*
X215447619Y-112404762D01*
X215409524Y-112442857D01*
X215333333Y-112480952D01*
X215028571Y-112480952D01*
X215752381Y-112061905D02*
X216247619Y-112061905D01*
X215980952Y-112366667D01*
X216095238Y-112366667D01*
X216171428Y-112404762D01*
X216209524Y-112442857D01*
X216247619Y-112519048D01*
X216247619Y-112709524D01*
X216209524Y-112785714D01*
X216171428Y-112823810D01*
X216095238Y-112861905D01*
X215866666Y-112861905D01*
X215790476Y-112823810D01*
X215752381Y-112785714D01*
X216742857Y-112061905D02*
X216819048Y-112061905D01*
X216895238Y-112100000D01*
X216933333Y-112138095D01*
X216971429Y-112214286D01*
X217009524Y-112366667D01*
X217009524Y-112557143D01*
X216971429Y-112709524D01*
X216933333Y-112785714D01*
X216895238Y-112823810D01*
X216819048Y-112861905D01*
X216742857Y-112861905D01*
X216666667Y-112823810D01*
X216628571Y-112785714D01*
X216590476Y-112709524D01*
X216552381Y-112557143D01*
X216552381Y-112366667D01*
X216590476Y-112214286D01*
X216628571Y-112138095D01*
X216666667Y-112100000D01*
X216742857Y-112061905D01*
X215485714Y-110611905D02*
X215219047Y-110230952D01*
X215028571Y-110611905D02*
X215028571Y-109811905D01*
X215333333Y-109811905D01*
X215409524Y-109850000D01*
X215447619Y-109888095D01*
X215485714Y-109964286D01*
X215485714Y-110078571D01*
X215447619Y-110154762D01*
X215409524Y-110192857D01*
X215333333Y-110230952D01*
X215028571Y-110230952D01*
X215752381Y-109811905D02*
X216247619Y-109811905D01*
X215980952Y-110116667D01*
X216095238Y-110116667D01*
X216171428Y-110154762D01*
X216209524Y-110192857D01*
X216247619Y-110269048D01*
X216247619Y-110459524D01*
X216209524Y-110535714D01*
X216171428Y-110573810D01*
X216095238Y-110611905D01*
X215866666Y-110611905D01*
X215790476Y-110573810D01*
X215752381Y-110535714D01*
X216933333Y-110078571D02*
X216933333Y-110611905D01*
X216742857Y-109773810D02*
X216552381Y-110345238D01*
X217047619Y-110345238D01*
X215485714Y-108361905D02*
X215219047Y-107980952D01*
X215028571Y-108361905D02*
X215028571Y-107561905D01*
X215333333Y-107561905D01*
X215409524Y-107600000D01*
X215447619Y-107638095D01*
X215485714Y-107714286D01*
X215485714Y-107828571D01*
X215447619Y-107904762D01*
X215409524Y-107942857D01*
X215333333Y-107980952D01*
X215028571Y-107980952D01*
X215752381Y-107561905D02*
X216247619Y-107561905D01*
X215980952Y-107866667D01*
X216095238Y-107866667D01*
X216171428Y-107904762D01*
X216209524Y-107942857D01*
X216247619Y-108019048D01*
X216247619Y-108209524D01*
X216209524Y-108285714D01*
X216171428Y-108323810D01*
X216095238Y-108361905D01*
X215866666Y-108361905D01*
X215790476Y-108323810D01*
X215752381Y-108285714D01*
X216704762Y-107904762D02*
X216628571Y-107866667D01*
X216590476Y-107828571D01*
X216552381Y-107752381D01*
X216552381Y-107714286D01*
X216590476Y-107638095D01*
X216628571Y-107600000D01*
X216704762Y-107561905D01*
X216857143Y-107561905D01*
X216933333Y-107600000D01*
X216971429Y-107638095D01*
X217009524Y-107714286D01*
X217009524Y-107752381D01*
X216971429Y-107828571D01*
X216933333Y-107866667D01*
X216857143Y-107904762D01*
X216704762Y-107904762D01*
X216628571Y-107942857D01*
X216590476Y-107980952D01*
X216552381Y-108057143D01*
X216552381Y-108209524D01*
X216590476Y-108285714D01*
X216628571Y-108323810D01*
X216704762Y-108361905D01*
X216857143Y-108361905D01*
X216933333Y-108323810D01*
X216971429Y-108285714D01*
X217009524Y-108209524D01*
X217009524Y-108057143D01*
X216971429Y-107980952D01*
X216933333Y-107942857D01*
X216857143Y-107904762D01*
X215485714Y-106111905D02*
X215219047Y-105730952D01*
X215028571Y-106111905D02*
X215028571Y-105311905D01*
X215333333Y-105311905D01*
X215409524Y-105350000D01*
X215447619Y-105388095D01*
X215485714Y-105464286D01*
X215485714Y-105578571D01*
X215447619Y-105654762D01*
X215409524Y-105692857D01*
X215333333Y-105730952D01*
X215028571Y-105730952D01*
X216171428Y-105578571D02*
X216171428Y-106111905D01*
X215980952Y-105273810D02*
X215790476Y-105845238D01*
X216285714Y-105845238D01*
X216552381Y-105388095D02*
X216590476Y-105350000D01*
X216666667Y-105311905D01*
X216857143Y-105311905D01*
X216933333Y-105350000D01*
X216971429Y-105388095D01*
X217009524Y-105464286D01*
X217009524Y-105540476D01*
X216971429Y-105654762D01*
X216514286Y-106111905D01*
X217009524Y-106111905D01*
X215485714Y-103861905D02*
X215219047Y-103480952D01*
X215028571Y-103861905D02*
X215028571Y-103061905D01*
X215333333Y-103061905D01*
X215409524Y-103100000D01*
X215447619Y-103138095D01*
X215485714Y-103214286D01*
X215485714Y-103328571D01*
X215447619Y-103404762D01*
X215409524Y-103442857D01*
X215333333Y-103480952D01*
X215028571Y-103480952D01*
X216171428Y-103328571D02*
X216171428Y-103861905D01*
X215980952Y-103023810D02*
X215790476Y-103595238D01*
X216285714Y-103595238D01*
X216933333Y-103061905D02*
X216780952Y-103061905D01*
X216704762Y-103100000D01*
X216666667Y-103138095D01*
X216590476Y-103252381D01*
X216552381Y-103404762D01*
X216552381Y-103709524D01*
X216590476Y-103785714D01*
X216628571Y-103823810D01*
X216704762Y-103861905D01*
X216857143Y-103861905D01*
X216933333Y-103823810D01*
X216971429Y-103785714D01*
X217009524Y-103709524D01*
X217009524Y-103519048D01*
X216971429Y-103442857D01*
X216933333Y-103404762D01*
X216857143Y-103366667D01*
X216704762Y-103366667D01*
X216628571Y-103404762D01*
X216590476Y-103442857D01*
X216552381Y-103519048D01*
X215485714Y-121861905D02*
X215219047Y-121480952D01*
X215028571Y-121861905D02*
X215028571Y-121061905D01*
X215333333Y-121061905D01*
X215409524Y-121100000D01*
X215447619Y-121138095D01*
X215485714Y-121214286D01*
X215485714Y-121328571D01*
X215447619Y-121404762D01*
X215409524Y-121442857D01*
X215333333Y-121480952D01*
X215028571Y-121480952D01*
X216209524Y-121061905D02*
X215828571Y-121061905D01*
X215790476Y-121442857D01*
X215828571Y-121404762D01*
X215904762Y-121366667D01*
X216095238Y-121366667D01*
X216171428Y-121404762D01*
X216209524Y-121442857D01*
X216247619Y-121519048D01*
X216247619Y-121709524D01*
X216209524Y-121785714D01*
X216171428Y-121823810D01*
X216095238Y-121861905D01*
X215904762Y-121861905D01*
X215828571Y-121823810D01*
X215790476Y-121785714D01*
X216742857Y-121061905D02*
X216819048Y-121061905D01*
X216895238Y-121100000D01*
X216933333Y-121138095D01*
X216971429Y-121214286D01*
X217009524Y-121366667D01*
X217009524Y-121557143D01*
X216971429Y-121709524D01*
X216933333Y-121785714D01*
X216895238Y-121823810D01*
X216819048Y-121861905D01*
X216742857Y-121861905D01*
X216666667Y-121823810D01*
X216628571Y-121785714D01*
X216590476Y-121709524D01*
X216552381Y-121557143D01*
X216552381Y-121366667D01*
X216590476Y-121214286D01*
X216628571Y-121138095D01*
X216666667Y-121100000D01*
X216742857Y-121061905D01*
X72861905Y-93133333D02*
X72861905Y-93514286D01*
X72061905Y-93514286D01*
X72061905Y-92942857D02*
X72061905Y-92447619D01*
X72366667Y-92714286D01*
X72366667Y-92600000D01*
X72404762Y-92523810D01*
X72442857Y-92485714D01*
X72519048Y-92447619D01*
X72709524Y-92447619D01*
X72785714Y-92485714D01*
X72823810Y-92523810D01*
X72861905Y-92600000D01*
X72861905Y-92828572D01*
X72823810Y-92904762D01*
X72785714Y-92942857D01*
X48785714Y-113514286D02*
X48823810Y-113552381D01*
X48861905Y-113666667D01*
X48861905Y-113742857D01*
X48823810Y-113857143D01*
X48747619Y-113933334D01*
X48671429Y-113971429D01*
X48519048Y-114009524D01*
X48404762Y-114009524D01*
X48252381Y-113971429D01*
X48176190Y-113933334D01*
X48100000Y-113857143D01*
X48061905Y-113742857D01*
X48061905Y-113666667D01*
X48100000Y-113552381D01*
X48138095Y-113514286D01*
X48138095Y-113209524D02*
X48100000Y-113171429D01*
X48061905Y-113095238D01*
X48061905Y-112904762D01*
X48100000Y-112828572D01*
X48138095Y-112790476D01*
X48214286Y-112752381D01*
X48290476Y-112752381D01*
X48404762Y-112790476D01*
X48861905Y-113247619D01*
X48861905Y-112752381D01*
X48061905Y-112257143D02*
X48061905Y-112180952D01*
X48100000Y-112104762D01*
X48138095Y-112066667D01*
X48214286Y-112028571D01*
X48366667Y-111990476D01*
X48557143Y-111990476D01*
X48709524Y-112028571D01*
X48785714Y-112066667D01*
X48823810Y-112104762D01*
X48861905Y-112180952D01*
X48861905Y-112257143D01*
X48823810Y-112333333D01*
X48785714Y-112371429D01*
X48709524Y-112409524D01*
X48557143Y-112447619D01*
X48366667Y-112447619D01*
X48214286Y-112409524D01*
X48138095Y-112371429D01*
X48100000Y-112333333D01*
X48061905Y-112257143D01*
X48785714Y-105514286D02*
X48823810Y-105552381D01*
X48861905Y-105666667D01*
X48861905Y-105742857D01*
X48823810Y-105857143D01*
X48747619Y-105933334D01*
X48671429Y-105971429D01*
X48519048Y-106009524D01*
X48404762Y-106009524D01*
X48252381Y-105971429D01*
X48176190Y-105933334D01*
X48100000Y-105857143D01*
X48061905Y-105742857D01*
X48061905Y-105666667D01*
X48100000Y-105552381D01*
X48138095Y-105514286D01*
X48061905Y-105247619D02*
X48061905Y-104752381D01*
X48366667Y-105019048D01*
X48366667Y-104904762D01*
X48404762Y-104828572D01*
X48442857Y-104790476D01*
X48519048Y-104752381D01*
X48709524Y-104752381D01*
X48785714Y-104790476D01*
X48823810Y-104828572D01*
X48861905Y-104904762D01*
X48861905Y-105133334D01*
X48823810Y-105209524D01*
X48785714Y-105247619D01*
X48138095Y-104447619D02*
X48100000Y-104409524D01*
X48061905Y-104333333D01*
X48061905Y-104142857D01*
X48100000Y-104066667D01*
X48138095Y-104028571D01*
X48214286Y-103990476D01*
X48290476Y-103990476D01*
X48404762Y-104028571D01*
X48861905Y-104485714D01*
X48861905Y-103990476D01*
X66366667Y-79785714D02*
X66328572Y-79823810D01*
X66214286Y-79861905D01*
X66138096Y-79861905D01*
X66023810Y-79823810D01*
X65947619Y-79747619D01*
X65909524Y-79671429D01*
X65871429Y-79519048D01*
X65871429Y-79404762D01*
X65909524Y-79252381D01*
X65947619Y-79176190D01*
X66023810Y-79100000D01*
X66138096Y-79061905D01*
X66214286Y-79061905D01*
X66328572Y-79100000D01*
X66366667Y-79138095D01*
X66747619Y-79861905D02*
X66900000Y-79861905D01*
X66976191Y-79823810D01*
X67014286Y-79785714D01*
X67090477Y-79671429D01*
X67128572Y-79519048D01*
X67128572Y-79214286D01*
X67090477Y-79138095D01*
X67052381Y-79100000D01*
X66976191Y-79061905D01*
X66823810Y-79061905D01*
X66747619Y-79100000D01*
X66709524Y-79138095D01*
X66671429Y-79214286D01*
X66671429Y-79404762D01*
X66709524Y-79480952D01*
X66747619Y-79519048D01*
X66823810Y-79557143D01*
X66976191Y-79557143D01*
X67052381Y-79519048D01*
X67090477Y-79480952D01*
X67128572Y-79404762D01*
X65483334Y-141311905D02*
X65483334Y-141883333D01*
X65445238Y-141997619D01*
X65369048Y-142073810D01*
X65254762Y-142111905D01*
X65178572Y-142111905D01*
X66283334Y-142111905D02*
X65826191Y-142111905D01*
X66054762Y-142111905D02*
X66054762Y-141311905D01*
X65978572Y-141426190D01*
X65902381Y-141502381D01*
X65826191Y-141540476D01*
X51111905Y-135264286D02*
X50730952Y-135530953D01*
X51111905Y-135721429D02*
X50311905Y-135721429D01*
X50311905Y-135416667D01*
X50350000Y-135340476D01*
X50388095Y-135302381D01*
X50464286Y-135264286D01*
X50578571Y-135264286D01*
X50654762Y-135302381D01*
X50692857Y-135340476D01*
X50730952Y-135416667D01*
X50730952Y-135721429D01*
X50311905Y-134578572D02*
X50311905Y-134730953D01*
X50350000Y-134807143D01*
X50388095Y-134845238D01*
X50502381Y-134921429D01*
X50654762Y-134959524D01*
X50959524Y-134959524D01*
X51035714Y-134921429D01*
X51073810Y-134883334D01*
X51111905Y-134807143D01*
X51111905Y-134654762D01*
X51073810Y-134578572D01*
X51035714Y-134540476D01*
X50959524Y-134502381D01*
X50769048Y-134502381D01*
X50692857Y-134540476D01*
X50654762Y-134578572D01*
X50616667Y-134654762D01*
X50616667Y-134807143D01*
X50654762Y-134883334D01*
X50692857Y-134921429D01*
X50769048Y-134959524D01*
X50311905Y-133816667D02*
X50311905Y-133969048D01*
X50350000Y-134045238D01*
X50388095Y-134083333D01*
X50502381Y-134159524D01*
X50654762Y-134197619D01*
X50959524Y-134197619D01*
X51035714Y-134159524D01*
X51073810Y-134121429D01*
X51111905Y-134045238D01*
X51111905Y-133892857D01*
X51073810Y-133816667D01*
X51035714Y-133778571D01*
X50959524Y-133740476D01*
X50769048Y-133740476D01*
X50692857Y-133778571D01*
X50654762Y-133816667D01*
X50616667Y-133892857D01*
X50616667Y-134045238D01*
X50654762Y-134121429D01*
X50692857Y-134159524D01*
X50769048Y-134197619D01*
X52611905Y-90514286D02*
X52230952Y-90780953D01*
X52611905Y-90971429D02*
X51811905Y-90971429D01*
X51811905Y-90666667D01*
X51850000Y-90590476D01*
X51888095Y-90552381D01*
X51964286Y-90514286D01*
X52078571Y-90514286D01*
X52154762Y-90552381D01*
X52192857Y-90590476D01*
X52230952Y-90666667D01*
X52230952Y-90971429D01*
X51811905Y-90247619D02*
X51811905Y-89714286D01*
X52611905Y-90057143D01*
X52154762Y-89295238D02*
X52116667Y-89371429D01*
X52078571Y-89409524D01*
X52002381Y-89447619D01*
X51964286Y-89447619D01*
X51888095Y-89409524D01*
X51850000Y-89371429D01*
X51811905Y-89295238D01*
X51811905Y-89142857D01*
X51850000Y-89066667D01*
X51888095Y-89028571D01*
X51964286Y-88990476D01*
X52002381Y-88990476D01*
X52078571Y-89028571D01*
X52116667Y-89066667D01*
X52154762Y-89142857D01*
X52154762Y-89295238D01*
X52192857Y-89371429D01*
X52230952Y-89409524D01*
X52307143Y-89447619D01*
X52459524Y-89447619D01*
X52535714Y-89409524D01*
X52573810Y-89371429D01*
X52611905Y-89295238D01*
X52611905Y-89142857D01*
X52573810Y-89066667D01*
X52535714Y-89028571D01*
X52459524Y-88990476D01*
X52307143Y-88990476D01*
X52230952Y-89028571D01*
X52192857Y-89066667D01*
X52154762Y-89142857D01*
X54409524Y-94361905D02*
X54409524Y-93561905D01*
X54600000Y-93561905D01*
X54714286Y-93600000D01*
X54790477Y-93676190D01*
X54828572Y-93752381D01*
X54866667Y-93904762D01*
X54866667Y-94019048D01*
X54828572Y-94171429D01*
X54790477Y-94247619D01*
X54714286Y-94323810D01*
X54600000Y-94361905D01*
X54409524Y-94361905D01*
X55552381Y-93828571D02*
X55552381Y-94361905D01*
X55361905Y-93523810D02*
X55171429Y-94095238D01*
X55666667Y-94095238D01*
X69366667Y-145111905D02*
X69100000Y-144730952D01*
X68909524Y-145111905D02*
X68909524Y-144311905D01*
X69214286Y-144311905D01*
X69290477Y-144350000D01*
X69328572Y-144388095D01*
X69366667Y-144464286D01*
X69366667Y-144578571D01*
X69328572Y-144654762D01*
X69290477Y-144692857D01*
X69214286Y-144730952D01*
X68909524Y-144730952D01*
X70128572Y-145111905D02*
X69671429Y-145111905D01*
X69900000Y-145111905D02*
X69900000Y-144311905D01*
X69823810Y-144426190D01*
X69747619Y-144502381D01*
X69671429Y-144540476D01*
X94861905Y-133014286D02*
X94480952Y-133280953D01*
X94861905Y-133471429D02*
X94061905Y-133471429D01*
X94061905Y-133166667D01*
X94100000Y-133090476D01*
X94138095Y-133052381D01*
X94214286Y-133014286D01*
X94328571Y-133014286D01*
X94404762Y-133052381D01*
X94442857Y-133090476D01*
X94480952Y-133166667D01*
X94480952Y-133471429D01*
X94861905Y-132252381D02*
X94861905Y-132709524D01*
X94861905Y-132480953D02*
X94061905Y-132480953D01*
X94176190Y-132557143D01*
X94252381Y-132633334D01*
X94290476Y-132709524D01*
X94328571Y-131566667D02*
X94861905Y-131566667D01*
X94023810Y-131757143D02*
X94595238Y-131947619D01*
X94595238Y-131452381D01*
X93361905Y-133014286D02*
X92980952Y-133280953D01*
X93361905Y-133471429D02*
X92561905Y-133471429D01*
X92561905Y-133166667D01*
X92600000Y-133090476D01*
X92638095Y-133052381D01*
X92714286Y-133014286D01*
X92828571Y-133014286D01*
X92904762Y-133052381D01*
X92942857Y-133090476D01*
X92980952Y-133166667D01*
X92980952Y-133471429D01*
X93361905Y-132252381D02*
X93361905Y-132709524D01*
X93361905Y-132480953D02*
X92561905Y-132480953D01*
X92676190Y-132557143D01*
X92752381Y-132633334D01*
X92790476Y-132709524D01*
X92561905Y-131528571D02*
X92561905Y-131909524D01*
X92942857Y-131947619D01*
X92904762Y-131909524D01*
X92866667Y-131833333D01*
X92866667Y-131642857D01*
X92904762Y-131566667D01*
X92942857Y-131528571D01*
X93019048Y-131490476D01*
X93209524Y-131490476D01*
X93285714Y-131528571D01*
X93323810Y-131566667D01*
X93361905Y-131642857D01*
X93361905Y-131833333D01*
X93323810Y-131909524D01*
X93285714Y-131947619D01*
X96535714Y-132633333D02*
X96573810Y-132671428D01*
X96611905Y-132785714D01*
X96611905Y-132861904D01*
X96573810Y-132976190D01*
X96497619Y-133052381D01*
X96421429Y-133090476D01*
X96269048Y-133128571D01*
X96154762Y-133128571D01*
X96002381Y-133090476D01*
X95926190Y-133052381D01*
X95850000Y-132976190D01*
X95811905Y-132861904D01*
X95811905Y-132785714D01*
X95850000Y-132671428D01*
X95888095Y-132633333D01*
X96611905Y-131871428D02*
X96611905Y-132328571D01*
X96611905Y-132100000D02*
X95811905Y-132100000D01*
X95926190Y-132176190D01*
X96002381Y-132252381D01*
X96040476Y-132328571D01*
X31735714Y-133035714D02*
X31697619Y-133073810D01*
X31583333Y-133111905D01*
X31507143Y-133111905D01*
X31392857Y-133073810D01*
X31316666Y-132997619D01*
X31278571Y-132921429D01*
X31240476Y-132769048D01*
X31240476Y-132654762D01*
X31278571Y-132502381D01*
X31316666Y-132426190D01*
X31392857Y-132350000D01*
X31507143Y-132311905D01*
X31583333Y-132311905D01*
X31697619Y-132350000D01*
X31735714Y-132388095D01*
X32497619Y-133111905D02*
X32040476Y-133111905D01*
X32269047Y-133111905D02*
X32269047Y-132311905D01*
X32192857Y-132426190D01*
X32116666Y-132502381D01*
X32040476Y-132540476D01*
X32764286Y-132311905D02*
X33297619Y-132311905D01*
X32954762Y-133111905D01*
X34535714Y-88764286D02*
X34573810Y-88802381D01*
X34611905Y-88916667D01*
X34611905Y-88992857D01*
X34573810Y-89107143D01*
X34497619Y-89183334D01*
X34421429Y-89221429D01*
X34269048Y-89259524D01*
X34154762Y-89259524D01*
X34002381Y-89221429D01*
X33926190Y-89183334D01*
X33850000Y-89107143D01*
X33811905Y-88992857D01*
X33811905Y-88916667D01*
X33850000Y-88802381D01*
X33888095Y-88764286D01*
X33888095Y-88459524D02*
X33850000Y-88421429D01*
X33811905Y-88345238D01*
X33811905Y-88154762D01*
X33850000Y-88078572D01*
X33888095Y-88040476D01*
X33964286Y-88002381D01*
X34040476Y-88002381D01*
X34154762Y-88040476D01*
X34611905Y-88497619D01*
X34611905Y-88002381D01*
X34154762Y-87545238D02*
X34116667Y-87621429D01*
X34078571Y-87659524D01*
X34002381Y-87697619D01*
X33964286Y-87697619D01*
X33888095Y-87659524D01*
X33850000Y-87621429D01*
X33811905Y-87545238D01*
X33811905Y-87392857D01*
X33850000Y-87316667D01*
X33888095Y-87278571D01*
X33964286Y-87240476D01*
X34002381Y-87240476D01*
X34078571Y-87278571D01*
X34116667Y-87316667D01*
X34154762Y-87392857D01*
X34154762Y-87545238D01*
X34192857Y-87621429D01*
X34230952Y-87659524D01*
X34307143Y-87697619D01*
X34459524Y-87697619D01*
X34535714Y-87659524D01*
X34573810Y-87621429D01*
X34611905Y-87545238D01*
X34611905Y-87392857D01*
X34573810Y-87316667D01*
X34535714Y-87278571D01*
X34459524Y-87240476D01*
X34307143Y-87240476D01*
X34230952Y-87278571D01*
X34192857Y-87316667D01*
X34154762Y-87392857D01*
X39333334Y-139561905D02*
X39333334Y-140133333D01*
X39295238Y-140247619D01*
X39219048Y-140323810D01*
X39104762Y-140361905D01*
X39028572Y-140361905D01*
X39714286Y-140361905D02*
X39714286Y-139561905D01*
X40019048Y-139561905D01*
X40095239Y-139600000D01*
X40133334Y-139638095D01*
X40171429Y-139714286D01*
X40171429Y-139828571D01*
X40133334Y-139904762D01*
X40095239Y-139942857D01*
X40019048Y-139980952D01*
X39714286Y-139980952D01*
X40933334Y-140361905D02*
X40476191Y-140361905D01*
X40704762Y-140361905D02*
X40704762Y-139561905D01*
X40628572Y-139676190D01*
X40552381Y-139752381D01*
X40476191Y-139790476D01*
X39833334Y-74061905D02*
X39833334Y-74633333D01*
X39795238Y-74747619D01*
X39719048Y-74823810D01*
X39604762Y-74861905D01*
X39528572Y-74861905D01*
X40214286Y-74861905D02*
X40214286Y-74061905D01*
X40519048Y-74061905D01*
X40595239Y-74100000D01*
X40633334Y-74138095D01*
X40671429Y-74214286D01*
X40671429Y-74328571D01*
X40633334Y-74404762D01*
X40595239Y-74442857D01*
X40519048Y-74480952D01*
X40214286Y-74480952D01*
X40976191Y-74138095D02*
X41014286Y-74100000D01*
X41090477Y-74061905D01*
X41280953Y-74061905D01*
X41357143Y-74100000D01*
X41395239Y-74138095D01*
X41433334Y-74214286D01*
X41433334Y-74290476D01*
X41395239Y-74404762D01*
X40938096Y-74861905D01*
X41433334Y-74861905D01*
X129611905Y-67090476D02*
X128811905Y-67090476D01*
X128811905Y-66900000D01*
X128850000Y-66785714D01*
X128926190Y-66709523D01*
X129002381Y-66671428D01*
X129154762Y-66633333D01*
X129269048Y-66633333D01*
X129421429Y-66671428D01*
X129497619Y-66709523D01*
X129573810Y-66785714D01*
X129611905Y-66900000D01*
X129611905Y-67090476D01*
X129611905Y-65871428D02*
X129611905Y-66328571D01*
X129611905Y-66100000D02*
X128811905Y-66100000D01*
X128926190Y-66176190D01*
X129002381Y-66252381D01*
X129040476Y-66328571D01*
X130061905Y-65266666D02*
X130633333Y-65266666D01*
X130747619Y-65304762D01*
X130823810Y-65380952D01*
X130861905Y-65495238D01*
X130861905Y-65571428D01*
X130138095Y-64923809D02*
X130100000Y-64885714D01*
X130061905Y-64809523D01*
X130061905Y-64619047D01*
X130100000Y-64542857D01*
X130138095Y-64504761D01*
X130214286Y-64466666D01*
X130290476Y-64466666D01*
X130404762Y-64504761D01*
X130861905Y-64961904D01*
X130861905Y-64466666D01*
X133923810Y-73438095D02*
X133847619Y-73400000D01*
X133771429Y-73323810D01*
X133657143Y-73209524D01*
X133580952Y-73171429D01*
X133504762Y-73171429D01*
X133542857Y-73361905D02*
X133466667Y-73323810D01*
X133390476Y-73247619D01*
X133352381Y-73095238D01*
X133352381Y-72828571D01*
X133390476Y-72676190D01*
X133466667Y-72600000D01*
X133542857Y-72561905D01*
X133695238Y-72561905D01*
X133771429Y-72600000D01*
X133847619Y-72676190D01*
X133885714Y-72828571D01*
X133885714Y-73095238D01*
X133847619Y-73247619D01*
X133771429Y-73323810D01*
X133695238Y-73361905D01*
X133542857Y-73361905D01*
X134647619Y-73361905D02*
X134190476Y-73361905D01*
X134419047Y-73361905D02*
X134419047Y-72561905D01*
X134342857Y-72676190D01*
X134266666Y-72752381D01*
X134190476Y-72790476D01*
X133485714Y-74861905D02*
X133219047Y-74480952D01*
X133028571Y-74861905D02*
X133028571Y-74061905D01*
X133333333Y-74061905D01*
X133409524Y-74100000D01*
X133447619Y-74138095D01*
X133485714Y-74214286D01*
X133485714Y-74328571D01*
X133447619Y-74404762D01*
X133409524Y-74442857D01*
X133333333Y-74480952D01*
X133028571Y-74480952D01*
X134209524Y-74061905D02*
X133828571Y-74061905D01*
X133790476Y-74442857D01*
X133828571Y-74404762D01*
X133904762Y-74366667D01*
X134095238Y-74366667D01*
X134171428Y-74404762D01*
X134209524Y-74442857D01*
X134247619Y-74519048D01*
X134247619Y-74709524D01*
X134209524Y-74785714D01*
X134171428Y-74823810D01*
X134095238Y-74861905D01*
X133904762Y-74861905D01*
X133828571Y-74823810D01*
X133790476Y-74785714D01*
X134552381Y-74138095D02*
X134590476Y-74100000D01*
X134666667Y-74061905D01*
X134857143Y-74061905D01*
X134933333Y-74100000D01*
X134971429Y-74138095D01*
X135009524Y-74214286D01*
X135009524Y-74290476D01*
X134971429Y-74404762D01*
X134514286Y-74861905D01*
X135009524Y-74861905D01*
X143366667Y-67035714D02*
X143328572Y-67073810D01*
X143214286Y-67111905D01*
X143138096Y-67111905D01*
X143023810Y-67073810D01*
X142947619Y-66997619D01*
X142909524Y-66921429D01*
X142871429Y-66769048D01*
X142871429Y-66654762D01*
X142909524Y-66502381D01*
X142947619Y-66426190D01*
X143023810Y-66350000D01*
X143138096Y-66311905D01*
X143214286Y-66311905D01*
X143328572Y-66350000D01*
X143366667Y-66388095D01*
X144052381Y-66311905D02*
X143900000Y-66311905D01*
X143823810Y-66350000D01*
X143785715Y-66388095D01*
X143709524Y-66502381D01*
X143671429Y-66654762D01*
X143671429Y-66959524D01*
X143709524Y-67035714D01*
X143747619Y-67073810D01*
X143823810Y-67111905D01*
X143976191Y-67111905D01*
X144052381Y-67073810D01*
X144090477Y-67035714D01*
X144128572Y-66959524D01*
X144128572Y-66769048D01*
X144090477Y-66692857D01*
X144052381Y-66654762D01*
X143976191Y-66616667D01*
X143823810Y-66616667D01*
X143747619Y-66654762D01*
X143709524Y-66692857D01*
X143671429Y-66769048D01*
X36866667Y-117785714D02*
X36828572Y-117823810D01*
X36714286Y-117861905D01*
X36638096Y-117861905D01*
X36523810Y-117823810D01*
X36447619Y-117747619D01*
X36409524Y-117671429D01*
X36371429Y-117519048D01*
X36371429Y-117404762D01*
X36409524Y-117252381D01*
X36447619Y-117176190D01*
X36523810Y-117100000D01*
X36638096Y-117061905D01*
X36714286Y-117061905D01*
X36828572Y-117100000D01*
X36866667Y-117138095D01*
X37590477Y-117061905D02*
X37209524Y-117061905D01*
X37171429Y-117442857D01*
X37209524Y-117404762D01*
X37285715Y-117366667D01*
X37476191Y-117366667D01*
X37552381Y-117404762D01*
X37590477Y-117442857D01*
X37628572Y-117519048D01*
X37628572Y-117709524D01*
X37590477Y-117785714D01*
X37552381Y-117823810D01*
X37476191Y-117861905D01*
X37285715Y-117861905D01*
X37209524Y-117823810D01*
X37171429Y-117785714D01*
X35507143Y-114771428D02*
X35507143Y-113628571D01*
X36078571Y-114200000D02*
X34935714Y-114200000D01*
X36866667Y-101285714D02*
X36828572Y-101323810D01*
X36714286Y-101361905D01*
X36638096Y-101361905D01*
X36523810Y-101323810D01*
X36447619Y-101247619D01*
X36409524Y-101171429D01*
X36371429Y-101019048D01*
X36371429Y-100904762D01*
X36409524Y-100752381D01*
X36447619Y-100676190D01*
X36523810Y-100600000D01*
X36638096Y-100561905D01*
X36714286Y-100561905D01*
X36828572Y-100600000D01*
X36866667Y-100638095D01*
X37171429Y-100638095D02*
X37209524Y-100600000D01*
X37285715Y-100561905D01*
X37476191Y-100561905D01*
X37552381Y-100600000D01*
X37590477Y-100638095D01*
X37628572Y-100714286D01*
X37628572Y-100790476D01*
X37590477Y-100904762D01*
X37133334Y-101361905D01*
X37628572Y-101361905D01*
X38707143Y-104371428D02*
X38707143Y-103228571D01*
X39278571Y-103800000D02*
X38135714Y-103800000D01*
X44366667Y-101285714D02*
X44328572Y-101323810D01*
X44214286Y-101361905D01*
X44138096Y-101361905D01*
X44023810Y-101323810D01*
X43947619Y-101247619D01*
X43909524Y-101171429D01*
X43871429Y-101019048D01*
X43871429Y-100904762D01*
X43909524Y-100752381D01*
X43947619Y-100676190D01*
X44023810Y-100600000D01*
X44138096Y-100561905D01*
X44214286Y-100561905D01*
X44328572Y-100600000D01*
X44366667Y-100638095D01*
X44633334Y-100561905D02*
X45128572Y-100561905D01*
X44861905Y-100866667D01*
X44976191Y-100866667D01*
X45052381Y-100904762D01*
X45090477Y-100942857D01*
X45128572Y-101019048D01*
X45128572Y-101209524D01*
X45090477Y-101285714D01*
X45052381Y-101323810D01*
X44976191Y-101361905D01*
X44747619Y-101361905D01*
X44671429Y-101323810D01*
X44633334Y-101285714D01*
X46207143Y-104371428D02*
X46207143Y-103228571D01*
X46778571Y-103800000D02*
X45635714Y-103800000D01*
X44366667Y-117785714D02*
X44328572Y-117823810D01*
X44214286Y-117861905D01*
X44138096Y-117861905D01*
X44023810Y-117823810D01*
X43947619Y-117747619D01*
X43909524Y-117671429D01*
X43871429Y-117519048D01*
X43871429Y-117404762D01*
X43909524Y-117252381D01*
X43947619Y-117176190D01*
X44023810Y-117100000D01*
X44138096Y-117061905D01*
X44214286Y-117061905D01*
X44328572Y-117100000D01*
X44366667Y-117138095D01*
X45052381Y-117328571D02*
X45052381Y-117861905D01*
X44861905Y-117023810D02*
X44671429Y-117595238D01*
X45166667Y-117595238D01*
X43007143Y-114771428D02*
X43007143Y-113628571D01*
X43578571Y-114200000D02*
X42435714Y-114200000D01*
X54923810Y-111938095D02*
X54847619Y-111900000D01*
X54771429Y-111823810D01*
X54657143Y-111709524D01*
X54580952Y-111671429D01*
X54504762Y-111671429D01*
X54542857Y-111861905D02*
X54466667Y-111823810D01*
X54390476Y-111747619D01*
X54352381Y-111595238D01*
X54352381Y-111328571D01*
X54390476Y-111176190D01*
X54466667Y-111100000D01*
X54542857Y-111061905D01*
X54695238Y-111061905D01*
X54771429Y-111100000D01*
X54847619Y-111176190D01*
X54885714Y-111328571D01*
X54885714Y-111595238D01*
X54847619Y-111747619D01*
X54771429Y-111823810D01*
X54695238Y-111861905D01*
X54542857Y-111861905D01*
X55266666Y-111861905D02*
X55419047Y-111861905D01*
X55495238Y-111823810D01*
X55533333Y-111785714D01*
X55609524Y-111671429D01*
X55647619Y-111519048D01*
X55647619Y-111214286D01*
X55609524Y-111138095D01*
X55571428Y-111100000D01*
X55495238Y-111061905D01*
X55342857Y-111061905D01*
X55266666Y-111100000D01*
X55228571Y-111138095D01*
X55190476Y-111214286D01*
X55190476Y-111404762D01*
X55228571Y-111480952D01*
X55266666Y-111519048D01*
X55342857Y-111557143D01*
X55495238Y-111557143D01*
X55571428Y-111519048D01*
X55609524Y-111480952D01*
X55647619Y-111404762D01*
X48423810Y-117938095D02*
X48347619Y-117900000D01*
X48271429Y-117823810D01*
X48157143Y-117709524D01*
X48080952Y-117671429D01*
X48004762Y-117671429D01*
X48042857Y-117861905D02*
X47966667Y-117823810D01*
X47890476Y-117747619D01*
X47852381Y-117595238D01*
X47852381Y-117328571D01*
X47890476Y-117176190D01*
X47966667Y-117100000D01*
X48042857Y-117061905D01*
X48195238Y-117061905D01*
X48271429Y-117100000D01*
X48347619Y-117176190D01*
X48385714Y-117328571D01*
X48385714Y-117595238D01*
X48347619Y-117747619D01*
X48271429Y-117823810D01*
X48195238Y-117861905D01*
X48042857Y-117861905D01*
X48652381Y-117061905D02*
X49185714Y-117061905D01*
X48842857Y-117861905D01*
X48042858Y-94438095D02*
X47966667Y-94400000D01*
X47890477Y-94323810D01*
X47776191Y-94209524D01*
X47700000Y-94171429D01*
X47623810Y-94171429D01*
X47661905Y-94361905D02*
X47585715Y-94323810D01*
X47509524Y-94247619D01*
X47471429Y-94095238D01*
X47471429Y-93828571D01*
X47509524Y-93676190D01*
X47585715Y-93600000D01*
X47661905Y-93561905D01*
X47814286Y-93561905D01*
X47890477Y-93600000D01*
X47966667Y-93676190D01*
X48004762Y-93828571D01*
X48004762Y-94095238D01*
X47966667Y-94247619D01*
X47890477Y-94323810D01*
X47814286Y-94361905D01*
X47661905Y-94361905D01*
X48766667Y-94361905D02*
X48309524Y-94361905D01*
X48538095Y-94361905D02*
X48538095Y-93561905D01*
X48461905Y-93676190D01*
X48385714Y-93752381D01*
X48309524Y-93790476D01*
X49261905Y-93561905D02*
X49338096Y-93561905D01*
X49414286Y-93600000D01*
X49452381Y-93638095D01*
X49490477Y-93714286D01*
X49528572Y-93866667D01*
X49528572Y-94057143D01*
X49490477Y-94209524D01*
X49452381Y-94285714D01*
X49414286Y-94323810D01*
X49338096Y-94361905D01*
X49261905Y-94361905D01*
X49185715Y-94323810D01*
X49147619Y-94285714D01*
X49109524Y-94209524D01*
X49071429Y-94057143D01*
X49071429Y-93866667D01*
X49109524Y-93714286D01*
X49147619Y-93638095D01*
X49185715Y-93600000D01*
X49261905Y-93561905D01*
X59366667Y-60861905D02*
X58985714Y-60861905D01*
X58985714Y-60061905D01*
X60052381Y-60861905D02*
X59595238Y-60861905D01*
X59823809Y-60861905D02*
X59823809Y-60061905D01*
X59747619Y-60176190D01*
X59671428Y-60252381D01*
X59595238Y-60290476D01*
X39890476Y-126061905D02*
X39890476Y-126709524D01*
X39928571Y-126785714D01*
X39966667Y-126823810D01*
X40042857Y-126861905D01*
X40195238Y-126861905D01*
X40271429Y-126823810D01*
X40309524Y-126785714D01*
X40347619Y-126709524D01*
X40347619Y-126061905D01*
X41147619Y-126861905D02*
X40690476Y-126861905D01*
X40919047Y-126861905D02*
X40919047Y-126061905D01*
X40842857Y-126176190D01*
X40766666Y-126252381D01*
X40690476Y-126290476D01*
X48890476Y-84561905D02*
X48890476Y-85209524D01*
X48928571Y-85285714D01*
X48966667Y-85323810D01*
X49042857Y-85361905D01*
X49195238Y-85361905D01*
X49271429Y-85323810D01*
X49309524Y-85285714D01*
X49347619Y-85209524D01*
X49347619Y-84561905D01*
X49690476Y-84638095D02*
X49728571Y-84600000D01*
X49804762Y-84561905D01*
X49995238Y-84561905D01*
X50071428Y-84600000D01*
X50109524Y-84638095D01*
X50147619Y-84714286D01*
X50147619Y-84790476D01*
X50109524Y-84904762D01*
X49652381Y-85361905D01*
X50147619Y-85361905D01*
X65361905Y-96514286D02*
X64980952Y-96780953D01*
X65361905Y-96971429D02*
X64561905Y-96971429D01*
X64561905Y-96666667D01*
X64600000Y-96590476D01*
X64638095Y-96552381D01*
X64714286Y-96514286D01*
X64828571Y-96514286D01*
X64904762Y-96552381D01*
X64942857Y-96590476D01*
X64980952Y-96666667D01*
X64980952Y-96971429D01*
X64561905Y-96247619D02*
X64561905Y-95714286D01*
X65361905Y-96057143D01*
X64561905Y-95028571D02*
X64561905Y-95409524D01*
X64942857Y-95447619D01*
X64904762Y-95409524D01*
X64866667Y-95333333D01*
X64866667Y-95142857D01*
X64904762Y-95066667D01*
X64942857Y-95028571D01*
X65019048Y-94990476D01*
X65209524Y-94990476D01*
X65285714Y-95028571D01*
X65323810Y-95066667D01*
X65361905Y-95142857D01*
X65361905Y-95333333D01*
X65323810Y-95409524D01*
X65285714Y-95447619D01*
%LPC*%
D17*
X213103553Y-123000000D02*
G75*
G03X213103553Y-123000000I-353553J0D01*
G01*
X193103553Y-123250000D02*
G75*
G03X193103553Y-123250000I-353553J0D01*
G01*
X199953553Y-96000000D02*
G75*
G03X199953553Y-96000000I-353553J0D01*
G01*
X193103553Y-96000000D02*
G75*
G03X193103553Y-96000000I-353553J0D01*
G01*
X201353553Y-96000000D02*
G75*
G03X201353553Y-96000000I-353553J0D01*
G01*
X213103553Y-96000000D02*
G75*
G03X213103553Y-96000000I-353553J0D01*
G01*
X181353553Y-96000000D02*
G75*
G03X181353553Y-96000000I-353553J0D01*
G01*
X179853553Y-96000000D02*
G75*
G03X179853553Y-96000000I-353553J0D01*
G01*
X113103553Y-96250000D02*
G75*
G03X113103553Y-96250000I-353553J0D01*
G01*
X119853553Y-96000000D02*
G75*
G03X119853553Y-96000000I-353553J0D01*
G01*
X132853553Y-96000000D02*
G75*
G03X132853553Y-96000000I-353553J0D01*
G01*
X121353553Y-96000000D02*
G75*
G03X121353553Y-96000000I-353553J0D01*
G01*
X152853553Y-96000000D02*
G75*
G03X152853553Y-96000000I-353553J0D01*
G01*
X159853553Y-96000000D02*
G75*
G03X159853553Y-96000000I-353553J0D01*
G01*
X141353553Y-96000000D02*
G75*
G03X141353553Y-96000000I-353553J0D01*
G01*
X139853553Y-96000000D02*
G75*
G03X139853553Y-96000000I-353553J0D01*
G01*
X161353553Y-96000000D02*
G75*
G03X161353553Y-96000000I-353553J0D01*
G01*
X172853553Y-96000000D02*
G75*
G03X172853553Y-96000000I-353553J0D01*
G01*
X141353553Y-135050000D02*
G75*
G03X141353553Y-135050000I-353553J0D01*
G01*
X159853553Y-132000000D02*
G75*
G03X159853553Y-132000000I-353553J0D01*
G01*
X99853553Y-96500000D02*
G75*
G03X99853553Y-96500000I-353553J0D01*
G01*
X101353553Y-96500000D02*
G75*
G03X101353553Y-96500000I-353553J0D01*
G01*
X201353553Y-135050000D02*
G75*
G03X201353553Y-135050000I-353553J0D01*
G01*
X200103553Y-131750000D02*
G75*
G03X200103553Y-131750000I-353553J0D01*
G01*
X101353553Y-135500000D02*
G75*
G03X101353553Y-135500000I-353553J0D01*
G01*
X161353553Y-135050000D02*
G75*
G03X161353553Y-135050000I-353553J0D01*
G01*
X181353553Y-135050000D02*
G75*
G03X181353553Y-135050000I-353553J0D01*
G01*
X179853553Y-132000000D02*
G75*
G03X179853553Y-132000000I-353553J0D01*
G01*
X120353553Y-132000000D02*
G75*
G03X120353553Y-132000000I-353553J0D01*
G01*
X100103553Y-131750000D02*
G75*
G03X100103553Y-131750000I-353553J0D01*
G01*
X121353553Y-135050000D02*
G75*
G03X121353553Y-135050000I-353553J0D01*
G01*
X139853553Y-132000000D02*
G75*
G03X139853553Y-132000000I-353553J0D01*
G01*
D11*
X147000000Y-82000000D02*
X206000000Y-82000000D01*
X147000000Y-67000000D02*
X147000000Y-82000000D01*
X206000000Y-67000000D02*
X147000000Y-67000000D01*
X206000000Y-82000000D02*
X206000000Y-67000000D01*
X162285714Y-68809524D02*
X162857143Y-68809524D01*
X163142857Y-69000000D01*
X163428571Y-69380952D01*
X163571429Y-70142857D01*
X163571429Y-71476190D01*
X163428571Y-72238095D01*
X163142857Y-72619048D01*
X162857143Y-72809524D01*
X162285714Y-72809524D01*
X162000000Y-72619048D01*
X161714286Y-72238095D01*
X161571429Y-71476190D01*
X161571429Y-70142857D01*
X161714286Y-69380952D01*
X162000000Y-69000000D01*
X162285714Y-68809524D01*
X164714286Y-72619048D02*
X165142857Y-72809524D01*
X165857143Y-72809524D01*
X166142857Y-72619048D01*
X166285714Y-72428571D01*
X166428571Y-72047619D01*
X166428571Y-71666667D01*
X166285714Y-71285714D01*
X166142857Y-71095238D01*
X165857143Y-70904762D01*
X165285714Y-70714286D01*
X165000000Y-70523810D01*
X164857143Y-70333333D01*
X164714286Y-69952381D01*
X164714286Y-69571429D01*
X164857143Y-69190476D01*
X165000000Y-69000000D01*
X165285714Y-68809524D01*
X166000000Y-68809524D01*
X166428571Y-69000000D01*
X167714286Y-71285714D02*
X170000000Y-71285714D01*
X173000000Y-72809524D02*
X171285715Y-72809524D01*
X172142857Y-72809524D02*
X172142857Y-68809524D01*
X171857143Y-69380952D01*
X171571429Y-69761905D01*
X171285715Y-69952381D01*
D18*
G36*
X158326000Y-70916060D02*
X158275200Y-71078620D01*
X158158360Y-71124340D01*
X158031360Y-71058300D01*
X157942460Y-70885580D01*
X157939920Y-70880500D01*
X157845940Y-70524900D01*
X157724020Y-70197240D01*
X157594480Y-69943240D01*
X157508120Y-69831480D01*
X157398900Y-69775600D01*
X157289680Y-69831480D01*
X157183000Y-69945780D01*
X157035680Y-70164220D01*
X156893440Y-70451240D01*
X156845180Y-70578240D01*
X156733420Y-70862720D01*
X156578480Y-71223400D01*
X156415920Y-71581540D01*
X156410840Y-71591700D01*
X156169540Y-72008260D01*
X155925700Y-72259720D01*
X155671700Y-72341000D01*
X155402460Y-72257180D01*
X155120520Y-72008260D01*
X155084960Y-71965080D01*
X154861440Y-71703460D01*
X154836040Y-72229240D01*
X154813180Y-72755020D01*
X154282320Y-72922660D01*
X153754000Y-73092840D01*
X153754000Y-74421260D01*
X153754000Y-75752220D01*
X153987680Y-75808100D01*
X154234060Y-75869060D01*
X154513460Y-75940180D01*
X154526160Y-75942720D01*
X154830960Y-76024000D01*
X154874140Y-76999360D01*
X154894460Y-77390520D01*
X154917320Y-77713100D01*
X154940180Y-77934080D01*
X154957960Y-78017900D01*
X155057020Y-78030600D01*
X155280540Y-78022980D01*
X155592960Y-78000120D01*
X155752980Y-77987420D01*
X156174620Y-77949320D01*
X156456560Y-77941700D01*
X156621660Y-77967100D01*
X156700400Y-78025520D01*
X156718180Y-78104260D01*
X156652140Y-78200780D01*
X156481960Y-78373500D01*
X156233040Y-78594480D01*
X155935860Y-78845940D01*
X155618360Y-79097400D01*
X155313560Y-79331080D01*
X155051940Y-79516500D01*
X154858900Y-79635880D01*
X154780160Y-79663820D01*
X154658240Y-79615560D01*
X154437260Y-79480940D01*
X154150240Y-79287900D01*
X153898780Y-79102480D01*
X153581280Y-78845940D01*
X153337440Y-78624960D01*
X153190120Y-78459860D01*
X153162180Y-78393820D01*
X153243460Y-78276980D01*
X153479680Y-78193160D01*
X153865760Y-78149980D01*
X154155320Y-78142360D01*
X154516000Y-78139820D01*
X154516000Y-77255900D01*
X154510920Y-76887600D01*
X154495680Y-76587880D01*
X154472820Y-76392300D01*
X154452500Y-76336420D01*
X154333120Y-76298320D01*
X154122300Y-76252600D01*
X154071500Y-76242440D01*
X153865760Y-76214500D01*
X153774320Y-76250060D01*
X153754000Y-76379600D01*
X153754000Y-76445640D01*
X153710820Y-76638680D01*
X153609220Y-76768220D01*
X153489840Y-76791080D01*
X153449200Y-76763140D01*
X153426340Y-76666620D01*
X153395860Y-76438020D01*
X153365380Y-76117980D01*
X153347600Y-75886840D01*
X153289180Y-75051180D01*
X153007240Y-75536320D01*
X152798960Y-75851280D01*
X152628780Y-76006220D01*
X152562740Y-76024000D01*
X152428120Y-75965580D01*
X152412880Y-75805560D01*
X152511940Y-75564260D01*
X152567820Y-75472820D01*
X152697360Y-75262000D01*
X152710060Y-75160400D01*
X152590680Y-75152780D01*
X152384940Y-75198500D01*
X151960760Y-75239140D01*
X151501020Y-75137540D01*
X150987940Y-74896240D01*
X150863480Y-74822580D01*
X150325000Y-74581280D01*
X149768740Y-74505080D01*
X149189620Y-74599060D01*
X149011820Y-74660020D01*
X148684160Y-74779400D01*
X148480960Y-74825120D01*
X148374280Y-74804800D01*
X148336180Y-74710820D01*
X148336180Y-74665100D01*
X148417460Y-74502540D01*
X148666380Y-74355220D01*
X149070240Y-74220600D01*
X149458860Y-74136780D01*
X149977020Y-74096140D01*
X150472320Y-74185040D01*
X150987940Y-74411100D01*
X151168280Y-74515240D01*
X151460380Y-74670180D01*
X151752480Y-74781940D01*
X151899800Y-74817500D01*
X152136020Y-74820040D01*
X152390020Y-74784480D01*
X152611000Y-74720980D01*
X152753240Y-74644780D01*
X152773560Y-74576200D01*
X152679580Y-74500000D01*
X152473840Y-74378080D01*
X152196980Y-74228220D01*
X152138560Y-74200280D01*
X151810900Y-74022480D01*
X151622940Y-73880240D01*
X151554360Y-73758320D01*
X151551820Y-73735460D01*
X151579760Y-73618620D01*
X151678820Y-73580520D01*
X151864240Y-73621160D01*
X152153800Y-73748160D01*
X152539880Y-73948820D01*
X152847220Y-74113920D01*
X153096140Y-74243460D01*
X153251080Y-74317120D01*
X153284100Y-74329820D01*
X153301880Y-74251080D01*
X153317120Y-74030100D01*
X153332360Y-73699900D01*
X153345060Y-73290960D01*
X153350140Y-73082680D01*
X153360300Y-72597540D01*
X153373000Y-72257180D01*
X153390780Y-72036200D01*
X153418720Y-71909200D01*
X153459360Y-71850780D01*
X153520320Y-71833000D01*
X153543180Y-71833000D01*
X153647320Y-71860940D01*
X153705740Y-71967620D01*
X153733680Y-72201300D01*
X153736220Y-72234320D01*
X153761620Y-72468000D01*
X153794640Y-72615320D01*
X153812420Y-72635640D01*
X153916560Y-72615320D01*
X154119760Y-72559440D01*
X154188340Y-72539120D01*
X154516000Y-72440060D01*
X154516000Y-70844940D01*
X154516000Y-70288680D01*
X154521080Y-69879740D01*
X154528700Y-69595260D01*
X154546480Y-69412380D01*
X154574420Y-69308240D01*
X154612520Y-69262520D01*
X154668400Y-69249820D01*
X154686180Y-69249820D01*
X154767460Y-69265060D01*
X154818260Y-69328560D01*
X154843660Y-69475880D01*
X154853820Y-69740040D01*
X154853820Y-69948320D01*
X154863980Y-70342020D01*
X154902080Y-70636660D01*
X154985900Y-70903360D01*
X155095120Y-71154820D01*
X155250060Y-71444380D01*
X155405000Y-71688220D01*
X155511680Y-71817760D01*
X155641220Y-71916820D01*
X155737740Y-71901580D01*
X155854580Y-71787280D01*
X155956180Y-71632340D01*
X156090800Y-71360560D01*
X156240660Y-71017660D01*
X156334640Y-70778900D01*
X156596260Y-70161680D01*
X156852800Y-69717180D01*
X157109340Y-69437780D01*
X157363340Y-69328560D01*
X157617340Y-69389520D01*
X157851020Y-69592720D01*
X158018660Y-69864500D01*
X158173600Y-70227720D01*
X158285360Y-70606180D01*
X158326000Y-70916060D01*
X158326000Y-70916060D01*
X158326000Y-70916060D01*
G37*
X158326000Y-70916060D02*
X158275200Y-71078620D01*
X158158360Y-71124340D01*
X158031360Y-71058300D01*
X157942460Y-70885580D01*
X157939920Y-70880500D01*
X157845940Y-70524900D01*
X157724020Y-70197240D01*
X157594480Y-69943240D01*
X157508120Y-69831480D01*
X157398900Y-69775600D01*
X157289680Y-69831480D01*
X157183000Y-69945780D01*
X157035680Y-70164220D01*
X156893440Y-70451240D01*
X156845180Y-70578240D01*
X156733420Y-70862720D01*
X156578480Y-71223400D01*
X156415920Y-71581540D01*
X156410840Y-71591700D01*
X156169540Y-72008260D01*
X155925700Y-72259720D01*
X155671700Y-72341000D01*
X155402460Y-72257180D01*
X155120520Y-72008260D01*
X155084960Y-71965080D01*
X154861440Y-71703460D01*
X154836040Y-72229240D01*
X154813180Y-72755020D01*
X154282320Y-72922660D01*
X153754000Y-73092840D01*
X153754000Y-74421260D01*
X153754000Y-75752220D01*
X153987680Y-75808100D01*
X154234060Y-75869060D01*
X154513460Y-75940180D01*
X154526160Y-75942720D01*
X154830960Y-76024000D01*
X154874140Y-76999360D01*
X154894460Y-77390520D01*
X154917320Y-77713100D01*
X154940180Y-77934080D01*
X154957960Y-78017900D01*
X155057020Y-78030600D01*
X155280540Y-78022980D01*
X155592960Y-78000120D01*
X155752980Y-77987420D01*
X156174620Y-77949320D01*
X156456560Y-77941700D01*
X156621660Y-77967100D01*
X156700400Y-78025520D01*
X156718180Y-78104260D01*
X156652140Y-78200780D01*
X156481960Y-78373500D01*
X156233040Y-78594480D01*
X155935860Y-78845940D01*
X155618360Y-79097400D01*
X155313560Y-79331080D01*
X155051940Y-79516500D01*
X154858900Y-79635880D01*
X154780160Y-79663820D01*
X154658240Y-79615560D01*
X154437260Y-79480940D01*
X154150240Y-79287900D01*
X153898780Y-79102480D01*
X153581280Y-78845940D01*
X153337440Y-78624960D01*
X153190120Y-78459860D01*
X153162180Y-78393820D01*
X153243460Y-78276980D01*
X153479680Y-78193160D01*
X153865760Y-78149980D01*
X154155320Y-78142360D01*
X154516000Y-78139820D01*
X154516000Y-77255900D01*
X154510920Y-76887600D01*
X154495680Y-76587880D01*
X154472820Y-76392300D01*
X154452500Y-76336420D01*
X154333120Y-76298320D01*
X154122300Y-76252600D01*
X154071500Y-76242440D01*
X153865760Y-76214500D01*
X153774320Y-76250060D01*
X153754000Y-76379600D01*
X153754000Y-76445640D01*
X153710820Y-76638680D01*
X153609220Y-76768220D01*
X153489840Y-76791080D01*
X153449200Y-76763140D01*
X153426340Y-76666620D01*
X153395860Y-76438020D01*
X153365380Y-76117980D01*
X153347600Y-75886840D01*
X153289180Y-75051180D01*
X153007240Y-75536320D01*
X152798960Y-75851280D01*
X152628780Y-76006220D01*
X152562740Y-76024000D01*
X152428120Y-75965580D01*
X152412880Y-75805560D01*
X152511940Y-75564260D01*
X152567820Y-75472820D01*
X152697360Y-75262000D01*
X152710060Y-75160400D01*
X152590680Y-75152780D01*
X152384940Y-75198500D01*
X151960760Y-75239140D01*
X151501020Y-75137540D01*
X150987940Y-74896240D01*
X150863480Y-74822580D01*
X150325000Y-74581280D01*
X149768740Y-74505080D01*
X149189620Y-74599060D01*
X149011820Y-74660020D01*
X148684160Y-74779400D01*
X148480960Y-74825120D01*
X148374280Y-74804800D01*
X148336180Y-74710820D01*
X148336180Y-74665100D01*
X148417460Y-74502540D01*
X148666380Y-74355220D01*
X149070240Y-74220600D01*
X149458860Y-74136780D01*
X149977020Y-74096140D01*
X150472320Y-74185040D01*
X150987940Y-74411100D01*
X151168280Y-74515240D01*
X151460380Y-74670180D01*
X151752480Y-74781940D01*
X151899800Y-74817500D01*
X152136020Y-74820040D01*
X152390020Y-74784480D01*
X152611000Y-74720980D01*
X152753240Y-74644780D01*
X152773560Y-74576200D01*
X152679580Y-74500000D01*
X152473840Y-74378080D01*
X152196980Y-74228220D01*
X152138560Y-74200280D01*
X151810900Y-74022480D01*
X151622940Y-73880240D01*
X151554360Y-73758320D01*
X151551820Y-73735460D01*
X151579760Y-73618620D01*
X151678820Y-73580520D01*
X151864240Y-73621160D01*
X152153800Y-73748160D01*
X152539880Y-73948820D01*
X152847220Y-74113920D01*
X153096140Y-74243460D01*
X153251080Y-74317120D01*
X153284100Y-74329820D01*
X153301880Y-74251080D01*
X153317120Y-74030100D01*
X153332360Y-73699900D01*
X153345060Y-73290960D01*
X153350140Y-73082680D01*
X153360300Y-72597540D01*
X153373000Y-72257180D01*
X153390780Y-72036200D01*
X153418720Y-71909200D01*
X153459360Y-71850780D01*
X153520320Y-71833000D01*
X153543180Y-71833000D01*
X153647320Y-71860940D01*
X153705740Y-71967620D01*
X153733680Y-72201300D01*
X153736220Y-72234320D01*
X153761620Y-72468000D01*
X153794640Y-72615320D01*
X153812420Y-72635640D01*
X153916560Y-72615320D01*
X154119760Y-72559440D01*
X154188340Y-72539120D01*
X154516000Y-72440060D01*
X154516000Y-70844940D01*
X154516000Y-70288680D01*
X154521080Y-69879740D01*
X154528700Y-69595260D01*
X154546480Y-69412380D01*
X154574420Y-69308240D01*
X154612520Y-69262520D01*
X154668400Y-69249820D01*
X154686180Y-69249820D01*
X154767460Y-69265060D01*
X154818260Y-69328560D01*
X154843660Y-69475880D01*
X154853820Y-69740040D01*
X154853820Y-69948320D01*
X154863980Y-70342020D01*
X154902080Y-70636660D01*
X154985900Y-70903360D01*
X155095120Y-71154820D01*
X155250060Y-71444380D01*
X155405000Y-71688220D01*
X155511680Y-71817760D01*
X155641220Y-71916820D01*
X155737740Y-71901580D01*
X155854580Y-71787280D01*
X155956180Y-71632340D01*
X156090800Y-71360560D01*
X156240660Y-71017660D01*
X156334640Y-70778900D01*
X156596260Y-70161680D01*
X156852800Y-69717180D01*
X157109340Y-69437780D01*
X157363340Y-69328560D01*
X157617340Y-69389520D01*
X157851020Y-69592720D01*
X158018660Y-69864500D01*
X158173600Y-70227720D01*
X158285360Y-70606180D01*
X158326000Y-70916060D01*
X158326000Y-70916060D01*
D19*
X109700000Y-61900000D03*
X108300000Y-72100000D03*
D20*
X69550000Y-126000000D03*
X58450000Y-126000000D03*
D21*
X124960000Y-65000000D03*
X121000000Y-65000000D03*
X117040000Y-65000000D03*
D22*
X127000000Y-123000000D03*
D23*
X128250000Y-134650000D03*
X130250000Y-133650000D03*
X128250000Y-132650000D03*
X130250000Y-131650000D03*
X128250000Y-130650000D03*
X130250000Y-129650000D03*
X128250000Y-128650000D03*
X130250000Y-127650000D03*
X128250000Y-126650000D03*
X130250000Y-125650000D03*
X128250000Y-124650000D03*
D24*
X125750000Y-134650000D03*
D23*
X123750000Y-133650000D03*
X125750000Y-132650000D03*
X123750000Y-131650000D03*
X125750000Y-130650000D03*
X123750000Y-129650000D03*
X125750000Y-128650000D03*
X123750000Y-127650000D03*
X125750000Y-126650000D03*
X123750000Y-125650000D03*
X125750000Y-124650000D03*
X130250000Y-121650000D03*
X128250000Y-120650000D03*
X130250000Y-119650000D03*
X128250000Y-118650000D03*
X130250000Y-117650000D03*
X128250000Y-116650000D03*
X130250000Y-115650000D03*
X128250000Y-114650000D03*
X130250000Y-113650000D03*
X128250000Y-112650000D03*
X130250000Y-111650000D03*
X128250000Y-110650000D03*
X130250000Y-109650000D03*
X128250000Y-108650000D03*
X130250000Y-107650000D03*
X128250000Y-106650000D03*
X130250000Y-105650000D03*
X128250000Y-104650000D03*
X130250000Y-103650000D03*
X128250000Y-102650000D03*
X130250000Y-101650000D03*
X123750000Y-121650000D03*
X125750000Y-120650000D03*
X123750000Y-119650000D03*
X125750000Y-118650000D03*
X123750000Y-117650000D03*
X125750000Y-116650000D03*
X123750000Y-115650000D03*
X125750000Y-114650000D03*
X123750000Y-113650000D03*
X125750000Y-112650000D03*
X123750000Y-111650000D03*
X125750000Y-110650000D03*
X123750000Y-109650000D03*
X125750000Y-108650000D03*
X123750000Y-107650000D03*
X125750000Y-106650000D03*
X123750000Y-105650000D03*
X125750000Y-104650000D03*
X123750000Y-103650000D03*
X125750000Y-102650000D03*
X123750000Y-101650000D03*
D22*
X127000000Y-99850000D03*
X87000000Y-123000000D03*
D23*
X88250000Y-134650000D03*
X90250000Y-133650000D03*
X88250000Y-132650000D03*
X90250000Y-131650000D03*
X88250000Y-130650000D03*
X90250000Y-129650000D03*
X88250000Y-128650000D03*
X90250000Y-127650000D03*
X88250000Y-126650000D03*
X90250000Y-125650000D03*
X88250000Y-124650000D03*
D24*
X85750000Y-134650000D03*
D23*
X83750000Y-133650000D03*
X85750000Y-132650000D03*
X83750000Y-131650000D03*
X85750000Y-130650000D03*
X83750000Y-129650000D03*
X85750000Y-128650000D03*
X83750000Y-127650000D03*
X85750000Y-126650000D03*
X83750000Y-125650000D03*
X85750000Y-124650000D03*
X90250000Y-121650000D03*
X88250000Y-120650000D03*
X90250000Y-119650000D03*
X88250000Y-118650000D03*
X90250000Y-117650000D03*
X88250000Y-116650000D03*
X90250000Y-115650000D03*
X88250000Y-114650000D03*
X90250000Y-113650000D03*
X88250000Y-112650000D03*
X90250000Y-111650000D03*
X88250000Y-110650000D03*
X90250000Y-109650000D03*
X88250000Y-108650000D03*
X90250000Y-107650000D03*
X88250000Y-106650000D03*
X90250000Y-105650000D03*
X88250000Y-104650000D03*
X90250000Y-103650000D03*
X88250000Y-102650000D03*
X90250000Y-101650000D03*
X88250000Y-100650000D03*
X90250000Y-99650000D03*
X88250000Y-98650000D03*
X90250000Y-97650000D03*
X88250000Y-96650000D03*
X90250000Y-95650000D03*
X88250000Y-94650000D03*
X90250000Y-93650000D03*
X88250000Y-92650000D03*
X90250000Y-91650000D03*
X88250000Y-90650000D03*
X90250000Y-89650000D03*
X88250000Y-88650000D03*
X90250000Y-87650000D03*
X88250000Y-86650000D03*
X90250000Y-85650000D03*
X88250000Y-84650000D03*
X83750000Y-121650000D03*
X85750000Y-120650000D03*
X83750000Y-119650000D03*
X85750000Y-118650000D03*
X83750000Y-117650000D03*
X85750000Y-116650000D03*
X83750000Y-115650000D03*
X85750000Y-114650000D03*
X83750000Y-113650000D03*
X85750000Y-112650000D03*
X83750000Y-111650000D03*
X85750000Y-110650000D03*
X83750000Y-109650000D03*
X85750000Y-108650000D03*
X83750000Y-107650000D03*
X85750000Y-106650000D03*
X83750000Y-105650000D03*
X85750000Y-104650000D03*
X83750000Y-103650000D03*
X85750000Y-102650000D03*
X83750000Y-101650000D03*
X85750000Y-100650000D03*
X83750000Y-99650000D03*
X85750000Y-98650000D03*
X83750000Y-97650000D03*
X85750000Y-96650000D03*
X83750000Y-95650000D03*
X85750000Y-94650000D03*
X83750000Y-93650000D03*
X85750000Y-92650000D03*
X83750000Y-91650000D03*
X85750000Y-90650000D03*
X83750000Y-89650000D03*
X85750000Y-88650000D03*
X83750000Y-87650000D03*
X85750000Y-86650000D03*
X83750000Y-85650000D03*
X85750000Y-84650000D03*
D22*
X87000000Y-82850000D03*
X187000000Y-123000000D03*
D23*
X188250000Y-134650000D03*
X190250000Y-133650000D03*
X188250000Y-132650000D03*
X190250000Y-131650000D03*
X188250000Y-130650000D03*
X190250000Y-129650000D03*
X188250000Y-128650000D03*
X190250000Y-127650000D03*
X188250000Y-126650000D03*
X190250000Y-125650000D03*
X188250000Y-124650000D03*
D24*
X185750000Y-134650000D03*
D23*
X183750000Y-133650000D03*
X185750000Y-132650000D03*
X183750000Y-131650000D03*
X185750000Y-130650000D03*
X183750000Y-129650000D03*
X185750000Y-128650000D03*
X183750000Y-127650000D03*
X185750000Y-126650000D03*
X183750000Y-125650000D03*
X185750000Y-124650000D03*
X190250000Y-121650000D03*
X188250000Y-120650000D03*
X190250000Y-119650000D03*
X188250000Y-118650000D03*
X190250000Y-117650000D03*
X188250000Y-116650000D03*
X190250000Y-115650000D03*
X188250000Y-114650000D03*
X190250000Y-113650000D03*
X188250000Y-112650000D03*
X190250000Y-111650000D03*
X188250000Y-110650000D03*
X190250000Y-109650000D03*
X188250000Y-108650000D03*
X190250000Y-107650000D03*
X188250000Y-106650000D03*
X190250000Y-105650000D03*
X188250000Y-104650000D03*
X190250000Y-103650000D03*
X188250000Y-102650000D03*
X190250000Y-101650000D03*
X183750000Y-121650000D03*
X185750000Y-120650000D03*
X183750000Y-119650000D03*
X185750000Y-118650000D03*
X183750000Y-117650000D03*
X185750000Y-116650000D03*
X183750000Y-115650000D03*
X185750000Y-114650000D03*
X183750000Y-113650000D03*
X185750000Y-112650000D03*
X183750000Y-111650000D03*
X185750000Y-110650000D03*
X183750000Y-109650000D03*
X185750000Y-108650000D03*
X183750000Y-107650000D03*
X185750000Y-106650000D03*
X183750000Y-105650000D03*
X185750000Y-104650000D03*
X183750000Y-103650000D03*
X185750000Y-102650000D03*
X183750000Y-101650000D03*
D22*
X187000000Y-99850000D03*
X167000000Y-123000000D03*
D23*
X168250000Y-134650000D03*
X170250000Y-133650000D03*
X168250000Y-132650000D03*
X170250000Y-131650000D03*
X168250000Y-130650000D03*
X170250000Y-129650000D03*
X168250000Y-128650000D03*
X170250000Y-127650000D03*
X168250000Y-126650000D03*
X170250000Y-125650000D03*
X168250000Y-124650000D03*
D24*
X165750000Y-134650000D03*
D23*
X163750000Y-133650000D03*
X165750000Y-132650000D03*
X163750000Y-131650000D03*
X165750000Y-130650000D03*
X163750000Y-129650000D03*
X165750000Y-128650000D03*
X163750000Y-127650000D03*
X165750000Y-126650000D03*
X163750000Y-125650000D03*
X165750000Y-124650000D03*
X170250000Y-121650000D03*
X168250000Y-120650000D03*
X170250000Y-119650000D03*
X168250000Y-118650000D03*
X170250000Y-117650000D03*
X168250000Y-116650000D03*
X170250000Y-115650000D03*
X168250000Y-114650000D03*
X170250000Y-113650000D03*
X168250000Y-112650000D03*
X170250000Y-111650000D03*
X168250000Y-110650000D03*
X170250000Y-109650000D03*
X168250000Y-108650000D03*
X170250000Y-107650000D03*
X168250000Y-106650000D03*
X170250000Y-105650000D03*
X168250000Y-104650000D03*
X170250000Y-103650000D03*
X168250000Y-102650000D03*
X170250000Y-101650000D03*
X163750000Y-121650000D03*
X165750000Y-120650000D03*
X163750000Y-119650000D03*
X165750000Y-118650000D03*
X163750000Y-117650000D03*
X165750000Y-116650000D03*
X163750000Y-115650000D03*
X165750000Y-114650000D03*
X163750000Y-113650000D03*
X165750000Y-112650000D03*
X163750000Y-111650000D03*
X165750000Y-110650000D03*
X163750000Y-109650000D03*
X165750000Y-108650000D03*
X163750000Y-107650000D03*
X165750000Y-106650000D03*
X163750000Y-105650000D03*
X165750000Y-104650000D03*
X163750000Y-103650000D03*
X165750000Y-102650000D03*
X163750000Y-101650000D03*
D22*
X167000000Y-99850000D03*
D25*
X53250000Y-127900000D03*
X53250000Y-131100000D03*
D22*
X207000000Y-123000000D03*
D23*
X208250000Y-134650000D03*
X210250000Y-133650000D03*
X208250000Y-132650000D03*
X210250000Y-131650000D03*
X208250000Y-130650000D03*
X210250000Y-129650000D03*
X208250000Y-128650000D03*
X210250000Y-127650000D03*
X208250000Y-126650000D03*
X210250000Y-125650000D03*
X208250000Y-124650000D03*
D24*
X205750000Y-134650000D03*
D23*
X203750000Y-133650000D03*
X205750000Y-132650000D03*
X203750000Y-131650000D03*
X205750000Y-130650000D03*
X203750000Y-129650000D03*
X205750000Y-128650000D03*
X203750000Y-127650000D03*
X205750000Y-126650000D03*
X203750000Y-125650000D03*
X205750000Y-124650000D03*
X210250000Y-121650000D03*
X208250000Y-120650000D03*
X210250000Y-119650000D03*
X208250000Y-118650000D03*
X210250000Y-117650000D03*
X208250000Y-116650000D03*
X210250000Y-115650000D03*
X208250000Y-114650000D03*
X210250000Y-113650000D03*
X208250000Y-112650000D03*
X210250000Y-111650000D03*
X208250000Y-110650000D03*
X210250000Y-109650000D03*
X208250000Y-108650000D03*
X210250000Y-107650000D03*
X208250000Y-106650000D03*
X210250000Y-105650000D03*
X208250000Y-104650000D03*
X210250000Y-103650000D03*
X208250000Y-102650000D03*
X210250000Y-101650000D03*
X203750000Y-121650000D03*
X205750000Y-120650000D03*
X203750000Y-119650000D03*
X205750000Y-118650000D03*
X203750000Y-117650000D03*
X205750000Y-116650000D03*
X203750000Y-115650000D03*
X205750000Y-114650000D03*
X203750000Y-113650000D03*
X205750000Y-112650000D03*
X203750000Y-111650000D03*
X205750000Y-110650000D03*
X203750000Y-109650000D03*
X205750000Y-108650000D03*
X203750000Y-107650000D03*
X205750000Y-106650000D03*
X203750000Y-105650000D03*
X205750000Y-104650000D03*
X203750000Y-103650000D03*
X205750000Y-102650000D03*
X203750000Y-101650000D03*
D22*
X207000000Y-99850000D03*
X147000000Y-123000000D03*
D23*
X148250000Y-134650000D03*
X150250000Y-133650000D03*
X148250000Y-132650000D03*
X150250000Y-131650000D03*
X148250000Y-130650000D03*
X150250000Y-129650000D03*
X148250000Y-128650000D03*
X150250000Y-127650000D03*
X148250000Y-126650000D03*
X150250000Y-125650000D03*
X148250000Y-124650000D03*
D24*
X145750000Y-134650000D03*
D23*
X143750000Y-133650000D03*
X145750000Y-132650000D03*
X143750000Y-131650000D03*
X145750000Y-130650000D03*
X143750000Y-129650000D03*
X145750000Y-128650000D03*
X143750000Y-127650000D03*
X145750000Y-126650000D03*
X143750000Y-125650000D03*
X145750000Y-124650000D03*
X150250000Y-121650000D03*
X148250000Y-120650000D03*
X150250000Y-119650000D03*
X148250000Y-118650000D03*
X150250000Y-117650000D03*
X148250000Y-116650000D03*
X150250000Y-115650000D03*
X148250000Y-114650000D03*
X150250000Y-113650000D03*
X148250000Y-112650000D03*
X150250000Y-111650000D03*
X148250000Y-110650000D03*
X150250000Y-109650000D03*
X148250000Y-108650000D03*
X150250000Y-107650000D03*
X148250000Y-106650000D03*
X150250000Y-105650000D03*
X148250000Y-104650000D03*
X150250000Y-103650000D03*
X148250000Y-102650000D03*
X150250000Y-101650000D03*
X143750000Y-121650000D03*
X145750000Y-120650000D03*
X143750000Y-119650000D03*
X145750000Y-118650000D03*
X143750000Y-117650000D03*
X145750000Y-116650000D03*
X143750000Y-115650000D03*
X145750000Y-114650000D03*
X143750000Y-113650000D03*
X145750000Y-112650000D03*
X143750000Y-111650000D03*
X145750000Y-110650000D03*
X143750000Y-109650000D03*
X145750000Y-108650000D03*
X143750000Y-107650000D03*
X145750000Y-106650000D03*
X143750000Y-105650000D03*
X145750000Y-104650000D03*
X143750000Y-103650000D03*
X145750000Y-102650000D03*
X143750000Y-101650000D03*
D22*
X147000000Y-99850000D03*
X107000000Y-123000000D03*
D23*
X108250000Y-134650000D03*
X110250000Y-133650000D03*
X108250000Y-132650000D03*
X110250000Y-131650000D03*
X108250000Y-130650000D03*
X110250000Y-129650000D03*
X108250000Y-128650000D03*
X110250000Y-127650000D03*
X108250000Y-126650000D03*
X110250000Y-125650000D03*
X108250000Y-124650000D03*
D24*
X105750000Y-134650000D03*
D23*
X103750000Y-133650000D03*
X105750000Y-132650000D03*
X103750000Y-131650000D03*
X105750000Y-130650000D03*
X103750000Y-129650000D03*
X105750000Y-128650000D03*
X103750000Y-127650000D03*
X105750000Y-126650000D03*
X103750000Y-125650000D03*
X105750000Y-124650000D03*
X110250000Y-121650000D03*
X108250000Y-120650000D03*
X110250000Y-119650000D03*
X108250000Y-118650000D03*
X110250000Y-117650000D03*
X108250000Y-116650000D03*
X110250000Y-115650000D03*
X108250000Y-114650000D03*
X110250000Y-113650000D03*
X108250000Y-112650000D03*
X110250000Y-111650000D03*
X108250000Y-110650000D03*
X110250000Y-109650000D03*
X108250000Y-108650000D03*
X110250000Y-107650000D03*
X108250000Y-106650000D03*
X110250000Y-105650000D03*
X108250000Y-104650000D03*
X110250000Y-103650000D03*
X108250000Y-102650000D03*
X110250000Y-101650000D03*
X103750000Y-121650000D03*
X105750000Y-120650000D03*
X103750000Y-119650000D03*
X105750000Y-118650000D03*
X103750000Y-117650000D03*
X105750000Y-116650000D03*
X103750000Y-115650000D03*
X105750000Y-114650000D03*
X103750000Y-113650000D03*
X105750000Y-112650000D03*
X103750000Y-111650000D03*
X105750000Y-110650000D03*
X103750000Y-109650000D03*
X105750000Y-108650000D03*
X103750000Y-107650000D03*
X105750000Y-106650000D03*
X103750000Y-105650000D03*
X105750000Y-104650000D03*
X103750000Y-103650000D03*
X105750000Y-102650000D03*
X103750000Y-101650000D03*
D22*
X107000000Y-99850000D03*
D26*
X42250000Y-82250000D03*
X43750000Y-82250000D03*
D27*
X99100000Y-60000000D03*
X100900000Y-60000000D03*
D28*
X85000000Y-69900000D03*
X85000000Y-68100000D03*
D29*
X39200000Y-88000000D03*
X38300000Y-88000000D03*
X39200000Y-129500000D03*
X38300000Y-129500000D03*
D30*
X39500000Y-133450000D03*
X39500000Y-132550000D03*
X39250000Y-90550000D03*
X39250000Y-91450000D03*
D26*
X45550000Y-92200000D03*
X44050000Y-92200000D03*
X39500000Y-85250000D03*
X38000000Y-85250000D03*
D27*
X41850000Y-123750000D03*
X43650000Y-123750000D03*
D26*
X39500000Y-131000000D03*
X38000000Y-131000000D03*
D29*
X37300000Y-132500000D03*
X38200000Y-132500000D03*
X37050000Y-91750000D03*
X37950000Y-91750000D03*
D27*
X51900000Y-125750000D03*
X50100000Y-125750000D03*
D28*
X51200000Y-85900000D03*
X51200000Y-87700000D03*
X51250000Y-130400000D03*
X51250000Y-128600000D03*
D27*
X48150000Y-83500000D03*
X46350000Y-83500000D03*
D26*
X62750000Y-103500000D03*
X61250000Y-103500000D03*
D31*
X70000000Y-116250000D03*
X70000000Y-111750000D03*
D32*
X69500000Y-97750000D03*
X69500000Y-106250000D03*
D29*
X51450000Y-72000000D03*
X50550000Y-72000000D03*
X53950000Y-70500000D03*
X53050000Y-70500000D03*
D33*
X69000000Y-72550000D03*
X69000000Y-77450000D03*
D34*
X60900000Y-74000000D03*
X64100000Y-74000000D03*
D35*
X50450000Y-73900000D03*
X48550000Y-73900000D03*
D36*
X49500000Y-76100000D03*
D37*
X35000000Y-145000000D03*
D23*
X38000000Y-145000000D03*
X36500000Y-147600000D03*
X33500000Y-147600000D03*
X32000000Y-145000000D03*
X33500000Y-142400000D03*
X36500000Y-142400000D03*
D37*
X215000000Y-145000000D03*
D23*
X218000000Y-145000000D03*
X216500000Y-147600000D03*
X213500000Y-147600000D03*
X212000000Y-145000000D03*
X213500000Y-142400000D03*
X216500000Y-142400000D03*
D37*
X35000000Y-65000000D03*
D23*
X38000000Y-65000000D03*
X36500000Y-67600000D03*
X33500000Y-67600000D03*
X32000000Y-65000000D03*
X33500000Y-62400000D03*
X36500000Y-62400000D03*
D37*
X215000000Y-65000000D03*
D23*
X218000000Y-65000000D03*
X216500000Y-67600000D03*
X213500000Y-67600000D03*
X212000000Y-65000000D03*
X213500000Y-62400000D03*
X216500000Y-62400000D03*
D38*
X102300000Y-64400000D03*
X97700000Y-64400000D03*
D39*
X100000000Y-71300000D03*
D38*
X93300000Y-64400000D03*
X88700000Y-64400000D03*
D39*
X91000000Y-71300000D03*
D40*
X32900000Y-127050000D03*
X32900000Y-128950000D03*
D41*
X35100000Y-128000000D03*
D40*
X37900000Y-81550000D03*
X37900000Y-83450000D03*
D41*
X40100000Y-82500000D03*
D35*
X53950000Y-73900000D03*
X52050000Y-73900000D03*
D36*
X53000000Y-76100000D03*
D35*
X55550000Y-76100000D03*
X57450000Y-76100000D03*
D36*
X56500000Y-73900000D03*
D35*
X67050000Y-66600000D03*
X68950000Y-66600000D03*
D36*
X68000000Y-64400000D03*
D42*
X192750000Y-124800000D03*
X192750000Y-125700000D03*
X212750000Y-124550000D03*
X212750000Y-125450000D03*
X203450000Y-139000000D03*
X202550000Y-139000000D03*
X163700000Y-139000000D03*
X162800000Y-139000000D03*
X183700000Y-139000000D03*
X182800000Y-139000000D03*
X143700000Y-139000000D03*
X142800000Y-139000000D03*
X123450000Y-139000000D03*
X122550000Y-139000000D03*
X103700000Y-139000000D03*
X102800000Y-139000000D03*
X99550000Y-62000000D03*
X100450000Y-62000000D03*
X34450000Y-124250000D03*
X33550000Y-124250000D03*
X102300000Y-62000000D03*
X103200000Y-62000000D03*
X34450000Y-125500000D03*
X33550000Y-125500000D03*
X33800000Y-81500000D03*
X34700000Y-81500000D03*
X38300000Y-86750000D03*
X39200000Y-86750000D03*
X38300000Y-128250000D03*
X39200000Y-128250000D03*
X36000000Y-132800000D03*
X36000000Y-133700000D03*
X39300000Y-93000000D03*
X40200000Y-93000000D03*
X39200000Y-89250000D03*
X38300000Y-89250000D03*
X36000000Y-131450000D03*
X36000000Y-130550000D03*
X37950000Y-93000000D03*
X37050000Y-93000000D03*
X39200000Y-127000000D03*
X38300000Y-127000000D03*
X38200000Y-133750000D03*
X37300000Y-133750000D03*
X37950000Y-90500000D03*
X37050000Y-90500000D03*
X41550000Y-83750000D03*
X42450000Y-83750000D03*
X41550000Y-125250000D03*
X42450000Y-125250000D03*
X43800000Y-125250000D03*
X44700000Y-125250000D03*
X43800000Y-83750000D03*
X44700000Y-83750000D03*
D43*
X64000000Y-112800000D03*
X64000000Y-111200000D03*
X57000000Y-106200000D03*
X57000000Y-107800000D03*
D42*
X53950000Y-72000000D03*
X53050000Y-72000000D03*
X57950000Y-78000000D03*
X57050000Y-78000000D03*
X55450000Y-78000000D03*
X54550000Y-78000000D03*
D44*
X69500000Y-69000000D03*
X66500000Y-69000000D03*
D42*
X112750000Y-124800000D03*
X112750000Y-125700000D03*
X132750000Y-124800000D03*
X132750000Y-125700000D03*
X152750000Y-124800000D03*
X152750000Y-125700000D03*
X172750000Y-124800000D03*
X172750000Y-125700000D03*
X214000000Y-118800000D03*
X214000000Y-119700000D03*
X214000000Y-116550000D03*
X214000000Y-117450000D03*
X214000000Y-114300000D03*
X214000000Y-115200000D03*
X214000000Y-112050000D03*
X214000000Y-112950000D03*
X214000000Y-109800000D03*
X214000000Y-110700000D03*
X214000000Y-107550000D03*
X214000000Y-108450000D03*
X214000000Y-105300000D03*
X214000000Y-106200000D03*
X214000000Y-103050000D03*
X214000000Y-103950000D03*
X214000000Y-121050000D03*
X214000000Y-121950000D03*
D20*
X69550000Y-87000000D03*
X58450000Y-87000000D03*
D45*
X51000000Y-115050000D03*
X51000000Y-110950000D03*
X51000000Y-102950000D03*
X51000000Y-107050000D03*
D46*
X59950000Y-77500000D03*
X64050000Y-77500000D03*
D47*
X67500000Y-141325000D03*
X68500000Y-137675000D03*
X69500000Y-141325000D03*
X70500000Y-137675000D03*
X71500000Y-141325000D03*
X72500000Y-137675000D03*
X73500000Y-141325000D03*
X74500000Y-137675000D03*
X75500000Y-141325000D03*
X76500000Y-137675000D03*
D42*
X50750000Y-132950000D03*
X50750000Y-132050000D03*
X51200000Y-89550000D03*
X51200000Y-90450000D03*
D48*
X57000000Y-97460000D03*
D49*
X57000000Y-102540000D03*
D42*
X69050000Y-143500000D03*
X69950000Y-143500000D03*
X94400000Y-129450000D03*
X94400000Y-128550000D03*
X93000000Y-129450000D03*
X93000000Y-128550000D03*
D28*
X96200000Y-128100000D03*
X96200000Y-129900000D03*
D27*
X31350000Y-131000000D03*
X33150000Y-131000000D03*
D28*
X34250000Y-86150000D03*
X34250000Y-84350000D03*
D50*
X33460000Y-137000000D03*
D51*
X36000000Y-137000000D03*
X38540000Y-137000000D03*
D50*
X37960000Y-77250000D03*
D51*
X40500000Y-77250000D03*
X43040000Y-77250000D03*
D25*
X129250000Y-71600000D03*
X129250000Y-68400000D03*
D50*
X133460000Y-65000000D03*
D51*
X136000000Y-65000000D03*
X138540000Y-65000000D03*
D35*
X132050000Y-71100000D03*
X133950000Y-71100000D03*
D36*
X133000000Y-68900000D03*
D42*
X132000000Y-73700000D03*
X132000000Y-72800000D03*
D52*
X142200000Y-71000000D03*
X137300000Y-71000000D03*
D53*
X37000000Y-114249680D03*
D54*
X37000000Y-111750320D03*
D53*
X37000000Y-103750320D03*
D54*
X37000000Y-106249680D03*
D53*
X44500000Y-103750320D03*
D54*
X44500000Y-106249680D03*
D53*
X44500000Y-114249680D03*
D54*
X44500000Y-111750320D03*
D37*
X125000000Y-80000000D03*
D23*
X128000000Y-80000000D03*
X126500000Y-82600000D03*
X123500000Y-82600000D03*
X122000000Y-80000000D03*
X123500000Y-77400000D03*
X126500000Y-77400000D03*
D37*
X125000000Y-145000000D03*
D23*
X128000000Y-145000000D03*
X126500000Y-147600000D03*
X123500000Y-147600000D03*
X122000000Y-145000000D03*
X123500000Y-142400000D03*
X126500000Y-142400000D03*
D55*
X57675000Y-115000000D03*
D56*
X55200000Y-116917500D03*
X55200000Y-115660000D03*
X55200000Y-114340000D03*
D57*
X55200000Y-113082500D03*
D58*
X60752500Y-113082500D03*
X60752500Y-114340000D03*
X60752500Y-115660000D03*
X60752500Y-116917500D03*
D55*
X50675000Y-121000000D03*
D56*
X48200000Y-122917500D03*
X48200000Y-121660000D03*
X48200000Y-120340000D03*
D57*
X48200000Y-119082500D03*
D58*
X53752500Y-119082500D03*
X53752500Y-120340000D03*
X53752500Y-121660000D03*
X53752500Y-122917500D03*
D59*
X50000000Y-98325000D03*
D56*
X51917500Y-100800000D03*
X50660000Y-100800000D03*
X49340000Y-100800000D03*
D60*
X48082500Y-100800000D03*
D61*
X48082500Y-95247500D03*
X49340000Y-95247500D03*
X50660000Y-95247500D03*
X51917500Y-95247500D03*
D62*
X59500000Y-64500000D03*
X59500000Y-69500000D03*
D63*
X42050000Y-127075000D03*
X42050000Y-127725000D03*
X42050000Y-128375000D03*
X42050000Y-129025000D03*
X42050000Y-129675000D03*
X42050000Y-130325000D03*
X42050000Y-130975000D03*
X42050000Y-131625000D03*
X42050000Y-132275000D03*
X42050000Y-132925000D03*
X47950000Y-132925000D03*
X47950000Y-132275000D03*
X47950000Y-131625000D03*
X47950000Y-130975000D03*
X47950000Y-130325000D03*
X47950000Y-129675000D03*
X47950000Y-129025000D03*
X47950000Y-128375000D03*
X47950000Y-127725000D03*
X47950000Y-127075000D03*
D64*
X45000000Y-130000000D03*
D65*
X42050000Y-85725000D03*
X42050000Y-86375000D03*
X42050000Y-87025000D03*
X42050000Y-87675000D03*
X42050000Y-88325000D03*
X42050000Y-88975000D03*
X42050000Y-89625000D03*
X42050000Y-90275000D03*
X47950000Y-90275000D03*
X47950000Y-89625000D03*
X47950000Y-88975000D03*
X47950000Y-88325000D03*
X47950000Y-87675000D03*
X47950000Y-87025000D03*
X47950000Y-86375000D03*
X47950000Y-85725000D03*
D66*
X45000000Y-88000000D03*
D67*
X62000000Y-95450000D03*
X62000000Y-101550000D03*
M02*
