M48
;DRILL file {kicad (2015-02-06 BZR 5407)-product} date Mon 09 Feb 2015 02:11:20 PM EST
;FORMAT={-:-/ absolute / inch / decimal}
FMAT,2
INCH,TZ
T1C0.016
T2C0.028
T3C0.031
T4C0.035
T5C0.039
T6C0.050
T7C0.079
T8C0.138
%
G90
G05
M72
T1
X1.3976Y-5.
X1.3976Y-5.
X1.4075Y-3.6122
X1.4665Y-3.4154
X1.4665Y-5.0492
X1.5157Y-4.0748
X1.5157Y-4.5079
X1.5748Y-4.0748
X1.5748Y-4.5079
X1.5846Y-5.0689
X1.5846Y-5.0689
X1.5846Y-5.0689
X1.5984Y-3.2047
X1.6043Y-3.6122
X1.6339Y-4.0748
X1.6339Y-4.5079
X1.6929Y-4.0748
X1.6929Y-4.5079
X1.7008Y-3.2047
X1.7323Y-3.4154
X1.7323Y-3.5138
X1.7323Y-5.0591
X1.7323Y-5.1181
X1.7323Y-5.1772
X1.7717Y-3.4646
X1.7717Y-5.0591
X1.7717Y-5.1181
X1.7717Y-5.1772
X1.811Y-3.4154
X1.811Y-3.5138
X1.811Y-5.0591
X1.811Y-5.1181
X1.811Y-5.1772
X1.8406Y-3.3563
X1.8504Y-4.2913
X1.939Y-5.1476
X1.939Y-5.1476
X1.9488Y-2.8346
X1.9488Y-2.8346
X1.9488Y-2.8346
X1.9488Y-3.6378
X1.9488Y-3.6378
X1.9488Y-5.0098
X1.9528Y-3.4803
X1.9528Y-3.4803
X1.9528Y-3.4803
X1.9528Y-3.4803
X1.9606Y-3.4213
X1.9606Y-3.4213
X1.9606Y-3.5276
X1.9606Y-3.5276
X1.9606Y-3.5276
X1.9606Y-3.5276
X1.9606Y-3.5276
X1.9606Y-3.5276
X1.9606Y-3.5276
X1.9606Y-3.5276
X1.9606Y-3.5276
X1.9606Y-3.5276
X1.9685Y-4.2913
X2.049Y-5.1724
X2.0571Y-2.8642
X2.0669Y-3.6024
X2.0866Y-4.2913
X2.1161Y-4.6457
X2.1161Y-4.6457
X2.1425Y-4.216
X2.1575Y-4.1811
X2.1575Y-4.1811
X2.2047Y-4.2913
X2.2146Y-4.4094
X2.2146Y-4.4094
X2.2146Y-4.4094
X2.3228Y-4.2913
X2.4409Y-4.2913
X2.4409Y-4.4252
X2.4409Y-4.4252
X2.5591Y-3.6024
X2.5591Y-4.2913
X2.6142Y-4.5748
X2.6673Y-2.8642
X2.6673Y-2.8642
X2.6673Y-3.0413
X2.6673Y-3.0413
X2.6772Y-4.2913
X2.7756Y-2.815
X2.7756Y-2.8543
X2.7756Y-2.8937
X2.7953Y-4.2913
X2.815Y-2.815
X2.815Y-2.8543
X2.815Y-2.8937
X2.8346Y-4.5276
X2.8346Y-4.5669
X2.8543Y-3.7795
X2.8543Y-3.8386
X2.8543Y-3.8976
X2.8543Y-3.9567
X2.874Y-4.5276
X2.874Y-4.5669
X2.874Y-4.6063
X2.874Y-4.6457
X2.874Y-4.685
X2.874Y-4.7244
X2.9134Y-3.7795
X2.9134Y-3.8386
X2.9134Y-3.8976
X2.9134Y-3.9567
X2.9134Y-4.5276
X2.9134Y-4.5669
X2.9134Y-4.6063
X2.9134Y-4.6457
X2.9134Y-4.685
X2.9134Y-4.7244
X2.9724Y-3.7795
X2.9724Y-3.8386
X2.9724Y-3.8976
X2.9724Y-3.9567
X2.9823Y-4.9213
X3.0079Y-4.8896
X3.0315Y-3.7795
X3.0315Y-3.8386
X3.0315Y-3.8976
X3.061Y-4.0354
X3.061Y-4.124
X3.061Y-4.2224
X3.061Y-4.3209
X3.061Y-4.4193
X3.061Y-4.5177
X3.061Y-4.6161
X3.061Y-4.7047
X3.061Y-4.8031
X3.7008Y-4.0846
X3.7008Y-4.1634
X3.7008Y-4.2421
X3.7008Y-4.3209
X3.7008Y-4.3996
X3.7008Y-4.4783
X3.7008Y-4.5571
X3.7008Y-4.6358
X3.7008Y-4.7146
X3.7008Y-4.8051
X3.7011Y-4.002
X3.7598Y-3.4449
X4.4877Y-4.002
X4.4882Y-4.0846
X4.4882Y-4.1634
X4.4882Y-4.2421
X4.4882Y-4.3209
X4.4882Y-4.3996
X4.4882Y-4.4783
X4.4882Y-4.5571
X4.4882Y-4.6358
X4.4882Y-4.7146
X4.4882Y-4.8051
X5.1476Y-2.8051
X5.1476Y-2.9035
X5.1476Y-2.9035
X5.2747Y-4.002
X5.2756Y-4.0846
X5.2756Y-4.1634
X5.2756Y-4.2421
X5.2756Y-4.3209
X5.2756Y-4.3996
X5.2756Y-4.4783
X5.2756Y-4.5571
X5.2756Y-4.6358
X5.2756Y-4.7146
X5.2756Y-4.8051
X6.0621Y-4.002
X6.063Y-4.0846
X6.063Y-4.1634
X6.063Y-4.2421
X6.063Y-4.3209
X6.063Y-4.3996
X6.063Y-4.4783
X6.063Y-4.5571
X6.063Y-4.6358
X6.063Y-4.7146
X6.063Y-4.8031
X6.8504Y-4.0846
X6.8504Y-4.1634
X6.8504Y-4.2421
X6.8504Y-4.3209
X6.8504Y-4.3996
X6.8504Y-4.4783
X6.8504Y-4.5571
X6.8504Y-4.6358
X6.8504Y-4.7146
X6.8504Y-4.8031
X6.8507Y-4.002
X7.6367Y-4.002
X7.6378Y-4.0846
X7.6378Y-4.1634
X7.6378Y-4.2421
X7.6378Y-4.3209
X7.6378Y-4.3996
X7.6378Y-4.4783
X7.6378Y-4.5571
X7.6378Y-4.6358
X7.6378Y-4.7146
X7.6378Y-4.8051
T2
X1.2598Y-2.5591
X1.2598Y-5.7087
X1.3189Y-2.4567
X1.3189Y-2.6614
X1.3189Y-5.6063
X1.3189Y-5.811
X1.437Y-2.4567
X1.437Y-2.6614
X1.437Y-5.6063
X1.437Y-5.811
X1.4961Y-2.5591
X1.4961Y-5.7087
X3.2972Y-3.372
X3.2972Y-3.4508
X3.2972Y-3.5295
X3.2972Y-3.6083
X3.2972Y-3.687
X3.2972Y-3.7657
X3.2972Y-3.8445
X3.2972Y-3.9232
X3.2972Y-4.002
X3.2972Y-4.0807
X3.2972Y-4.1594
X3.2972Y-4.2382
X3.2972Y-4.3169
X3.2972Y-4.3957
X3.2972Y-4.4744
X3.2972Y-4.5531
X3.2972Y-4.6319
X3.2972Y-4.7106
X3.2972Y-4.7894
X3.2972Y-4.9469
X3.2972Y-5.0256
X3.2972Y-5.1043
X3.2972Y-5.1831
X3.2972Y-5.2618
X3.376Y-3.3327
X3.376Y-3.4114
X3.376Y-3.4902
X3.376Y-3.5689
X3.376Y-3.6476
X3.376Y-3.7264
X3.376Y-3.8051
X3.376Y-3.8839
X3.376Y-3.9626
X3.376Y-4.0413
X3.376Y-4.1201
X3.376Y-4.1988
X3.376Y-4.2776
X3.376Y-4.3563
X3.376Y-4.435
X3.376Y-4.5138
X3.376Y-4.5925
X3.376Y-4.6713
X3.376Y-4.75
X3.376Y-4.9075
X3.376Y-4.9862
X3.376Y-5.065
X3.376Y-5.1437
X3.376Y-5.2224
X3.376Y-5.3012
X3.4744Y-3.3327
X3.4744Y-3.4114
X3.4744Y-3.4902
X3.4744Y-3.5689
X3.4744Y-3.6476
X3.4744Y-3.7264
X3.4744Y-3.8051
X3.4744Y-3.8839
X3.4744Y-3.9626
X3.4744Y-4.0413
X3.4744Y-4.1201
X3.4744Y-4.1988
X3.4744Y-4.2776
X3.4744Y-4.3563
X3.4744Y-4.435
X3.4744Y-4.5138
X3.4744Y-4.5925
X3.4744Y-4.6713
X3.4744Y-4.75
X3.4744Y-4.9075
X3.4744Y-4.9862
X3.4744Y-5.065
X3.4744Y-5.1437
X3.4744Y-5.2224
X3.4744Y-5.3012
X3.5531Y-3.372
X3.5531Y-3.4508
X3.5531Y-3.5295
X3.5531Y-3.6083
X3.5531Y-3.687
X3.5531Y-3.7657
X3.5531Y-3.8445
X3.5531Y-3.9232
X3.5531Y-4.002
X3.5531Y-4.0807
X3.5531Y-4.1594
X3.5531Y-4.2382
X3.5531Y-4.3169
X3.5531Y-4.3957
X3.5531Y-4.4744
X3.5531Y-4.5531
X3.5531Y-4.6319
X3.5531Y-4.7106
X3.5531Y-4.7894
X3.5531Y-4.9469
X3.5531Y-5.0256
X3.5531Y-5.1043
X3.5531Y-5.1831
X3.5531Y-5.2618
X3.9173Y-3.7974
X3.9272Y-5.187
X3.9764Y-3.7992
X3.9764Y-5.3346
X4.0846Y-4.002
X4.0846Y-4.0807
X4.0846Y-4.1594
X4.0846Y-4.2382
X4.0846Y-4.3169
X4.0846Y-4.3957
X4.0846Y-4.4744
X4.0846Y-4.5531
X4.0846Y-4.6319
X4.0846Y-4.7106
X4.0846Y-4.7894
X4.0846Y-4.9469
X4.0846Y-5.0256
X4.0846Y-5.1043
X4.0846Y-5.1831
X4.0846Y-5.2618
X4.1634Y-4.0413
X4.1634Y-4.1201
X4.1634Y-4.1988
X4.1634Y-4.2776
X4.1634Y-4.3563
X4.1634Y-4.435
X4.1634Y-4.5138
X4.1634Y-4.5925
X4.1634Y-4.6713
X4.1634Y-4.75
X4.1634Y-4.9075
X4.1634Y-4.9862
X4.1634Y-5.065
X4.1634Y-5.1437
X4.1634Y-5.2224
X4.1634Y-5.3012
X4.2618Y-4.0413
X4.2618Y-4.1201
X4.2618Y-4.1988
X4.2618Y-4.2776
X4.2618Y-4.3563
X4.2618Y-4.435
X4.2618Y-4.5138
X4.2618Y-4.5925
X4.2618Y-4.6713
X4.2618Y-4.75
X4.2618Y-4.9075
X4.2618Y-4.9862
X4.2618Y-5.065
X4.2618Y-5.1437
X4.2618Y-5.2224
X4.2618Y-5.3012
X4.3406Y-4.002
X4.3406Y-4.0807
X4.3406Y-4.1594
X4.3406Y-4.2382
X4.3406Y-4.3169
X4.3406Y-4.3957
X4.3406Y-4.4744
X4.3406Y-4.5531
X4.3406Y-4.6319
X4.3406Y-4.7106
X4.3406Y-4.7894
X4.3406Y-4.9469
X4.3406Y-5.0256
X4.3406Y-5.1043
X4.3406Y-5.1831
X4.3406Y-5.2618
X4.439Y-3.7894
X4.439Y-4.8563
X4.7047Y-3.7795
X4.7244Y-5.1969
X4.7638Y-3.7795
X4.7638Y-5.3175
X4.8031Y-3.1496
X4.8031Y-5.7087
X4.8622Y-3.0472
X4.8622Y-3.252
X4.8622Y-5.6063
X4.8622Y-5.811
X4.872Y-4.002
X4.872Y-4.0807
X4.872Y-4.1594
X4.872Y-4.2382
X4.872Y-4.3169
X4.872Y-4.3957
X4.872Y-4.4744
X4.872Y-4.5531
X4.872Y-4.6319
X4.872Y-4.7106
X4.872Y-4.7894
X4.872Y-4.9469
X4.872Y-5.0256
X4.872Y-5.1043
X4.872Y-5.1831
X4.872Y-5.2618
X4.9508Y-4.0413
X4.9508Y-4.1201
X4.9508Y-4.1988
X4.9508Y-4.2776
X4.9508Y-4.3563
X4.9508Y-4.435
X4.9508Y-4.5138
X4.9508Y-4.5925
X4.9508Y-4.6713
X4.9508Y-4.75
X4.9508Y-4.9075
X4.9508Y-4.9862
X4.9508Y-5.065
X4.9508Y-5.1437
X4.9508Y-5.2224
X4.9508Y-5.3012
X4.9803Y-3.0472
X4.9803Y-3.252
X4.9803Y-5.6063
X4.9803Y-5.811
X5.0394Y-3.1496
X5.0394Y-5.7087
X5.0492Y-4.0413
X5.0492Y-4.1201
X5.0492Y-4.1988
X5.0492Y-4.2776
X5.0492Y-4.3563
X5.0492Y-4.435
X5.0492Y-4.5138
X5.0492Y-4.5925
X5.0492Y-4.6713
X5.0492Y-4.75
X5.0492Y-4.9075
X5.0492Y-4.9862
X5.0492Y-5.065
X5.0492Y-5.1437
X5.0492Y-5.2224
X5.0492Y-5.3012
X5.128Y-4.002
X5.128Y-4.0807
X5.128Y-4.1594
X5.128Y-4.2382
X5.128Y-4.3169
X5.128Y-4.3957
X5.128Y-4.4744
X5.128Y-4.5531
X5.128Y-4.6319
X5.128Y-4.7106
X5.128Y-4.7894
X5.128Y-4.9469
X5.128Y-5.0256
X5.128Y-5.1043
X5.128Y-5.1831
X5.128Y-5.2618
X5.2165Y-3.7795
X5.2264Y-4.8524
X5.4921Y-3.7795
X5.4921Y-5.1969
X5.5512Y-3.7795
X5.5512Y-5.3175
X5.6594Y-4.002
X5.6594Y-4.0807
X5.6594Y-4.1594
X5.6594Y-4.2382
X5.6594Y-4.3169
X5.6594Y-4.3957
X5.6594Y-4.4744
X5.6594Y-4.5531
X5.6594Y-4.6319
X5.6594Y-4.7106
X5.6594Y-4.7894
X5.6594Y-4.9469
X5.6594Y-5.0256
X5.6594Y-5.1043
X5.6594Y-5.1831
X5.6594Y-5.2618
X5.7382Y-4.0413
X5.7382Y-4.1201
X5.7382Y-4.1988
X5.7382Y-4.2776
X5.7382Y-4.3563
X5.7382Y-4.435
X5.7382Y-4.5138
X5.7382Y-4.5925
X5.7382Y-4.6713
X5.7382Y-4.75
X5.7382Y-4.9075
X5.7382Y-4.9862
X5.7382Y-5.065
X5.7382Y-5.1437
X5.7382Y-5.2224
X5.7382Y-5.3012
X5.8366Y-4.0413
X5.8366Y-4.1201
X5.8366Y-4.1988
X5.8366Y-4.2776
X5.8366Y-4.3563
X5.8366Y-4.435
X5.8366Y-4.5138
X5.8366Y-4.5925
X5.8366Y-4.6713
X5.8366Y-4.75
X5.8366Y-4.9075
X5.8366Y-4.9862
X5.8366Y-5.065
X5.8366Y-5.1437
X5.8366Y-5.2224
X5.8366Y-5.3012
X5.9154Y-4.002
X5.9154Y-4.0807
X5.9154Y-4.1594
X5.9154Y-4.2382
X5.9154Y-4.3169
X5.9154Y-4.3957
X5.9154Y-4.4744
X5.9154Y-4.5531
X5.9154Y-4.6319
X5.9154Y-4.7106
X5.9154Y-4.7894
X5.9154Y-4.9469
X5.9154Y-5.0256
X5.9154Y-5.1043
X5.9154Y-5.1831
X5.9154Y-5.2618
X6.0039Y-3.7795
X6.0138Y-4.8563
X6.2795Y-3.7795
X6.2795Y-5.1969
X6.3386Y-3.7795
X6.3386Y-5.3175
X6.4469Y-4.002
X6.4469Y-4.0807
X6.4469Y-4.1594
X6.4469Y-4.2382
X6.4469Y-4.3169
X6.4469Y-4.3957
X6.4469Y-4.4744
X6.4469Y-4.5531
X6.4469Y-4.6319
X6.4469Y-4.7106
X6.4469Y-4.7894
X6.4469Y-4.9469
X6.4469Y-5.0256
X6.4469Y-5.1043
X6.4469Y-5.1831
X6.4469Y-5.2618
X6.5256Y-4.0413
X6.5256Y-4.1201
X6.5256Y-4.1988
X6.5256Y-4.2776
X6.5256Y-4.3563
X6.5256Y-4.435
X6.5256Y-4.5138
X6.5256Y-4.5925
X6.5256Y-4.6713
X6.5256Y-4.75
X6.5256Y-4.9075
X6.5256Y-4.9862
X6.5256Y-5.065
X6.5256Y-5.1437
X6.5256Y-5.2224
X6.5256Y-5.3012
X6.624Y-4.0413
X6.624Y-4.1201
X6.624Y-4.1988
X6.624Y-4.2776
X6.624Y-4.3563
X6.624Y-4.435
X6.624Y-4.5138
X6.624Y-4.5925
X6.624Y-4.6713
X6.624Y-4.75
X6.624Y-4.9075
X6.624Y-4.9862
X6.624Y-5.065
X6.624Y-5.1437
X6.624Y-5.2224
X6.624Y-5.3012
X6.7028Y-4.002
X6.7028Y-4.0807
X6.7028Y-4.1594
X6.7028Y-4.2382
X6.7028Y-4.3169
X6.7028Y-4.3957
X6.7028Y-4.4744
X6.7028Y-4.5531
X6.7028Y-4.6319
X6.7028Y-4.7106
X6.7028Y-4.7894
X6.7028Y-4.9469
X6.7028Y-5.0256
X6.7028Y-5.1043
X6.7028Y-5.1831
X6.7028Y-5.2618
X6.7913Y-3.7795
X6.8012Y-4.8524
X7.0669Y-3.7795
X7.0669Y-5.1969
X7.126Y-3.7795
X7.126Y-5.3175
X7.2343Y-4.002
X7.2343Y-4.0807
X7.2343Y-4.1594
X7.2343Y-4.2382
X7.2343Y-4.3169
X7.2343Y-4.3957
X7.2343Y-4.4744
X7.2343Y-4.5531
X7.2343Y-4.6319
X7.2343Y-4.7106
X7.2343Y-4.7894
X7.2343Y-4.9469
X7.2343Y-5.0256
X7.2343Y-5.1043
X7.2343Y-5.1831
X7.2343Y-5.2618
X7.313Y-4.0413
X7.313Y-4.1201
X7.313Y-4.1988
X7.313Y-4.2776
X7.313Y-4.3563
X7.313Y-4.435
X7.313Y-4.5138
X7.313Y-4.5925
X7.313Y-4.6713
X7.313Y-4.75
X7.313Y-4.9075
X7.313Y-4.9862
X7.313Y-5.065
X7.313Y-5.1437
X7.313Y-5.2224
X7.313Y-5.3012
X7.4114Y-4.0413
X7.4114Y-4.1201
X7.4114Y-4.1988
X7.4114Y-4.2776
X7.4114Y-4.3563
X7.4114Y-4.435
X7.4114Y-4.5138
X7.4114Y-4.5925
X7.4114Y-4.6713
X7.4114Y-4.75
X7.4114Y-4.9075
X7.4114Y-4.9862
X7.4114Y-5.065
X7.4114Y-5.1437
X7.4114Y-5.2224
X7.4114Y-5.3012
X7.4902Y-4.002
X7.4902Y-4.0807
X7.4902Y-4.1594
X7.4902Y-4.2382
X7.4902Y-4.3169
X7.4902Y-4.3957
X7.4902Y-4.4744
X7.4902Y-4.5531
X7.4902Y-4.6319
X7.4902Y-4.7106
X7.4902Y-4.7894
X7.4902Y-4.9469
X7.4902Y-5.0256
X7.4902Y-5.1043
X7.4902Y-5.1831
X7.4902Y-5.2618
X7.5886Y-3.7795
X7.5886Y-4.8524
X7.8596Y-3.7795
X7.8642Y-5.187
X7.9134Y-3.7795
X7.9134Y-5.3175
X8.0217Y-4.002
X8.0217Y-4.0807
X8.0217Y-4.1594
X8.0217Y-4.2382
X8.0217Y-4.3169
X8.0217Y-4.3957
X8.0217Y-4.4744
X8.0217Y-4.5531
X8.0217Y-4.6319
X8.0217Y-4.7106
X8.0217Y-4.7894
X8.0217Y-4.9469
X8.0217Y-5.0256
X8.0217Y-5.1043
X8.0217Y-5.1831
X8.0217Y-5.2618
X8.1004Y-4.0413
X8.1004Y-4.1201
X8.1004Y-4.1988
X8.1004Y-4.2776
X8.1004Y-4.3563
X8.1004Y-4.435
X8.1004Y-4.5138
X8.1004Y-4.5925
X8.1004Y-4.6713
X8.1004Y-4.75
X8.1004Y-4.9075
X8.1004Y-4.9862
X8.1004Y-5.065
X8.1004Y-5.1437
X8.1004Y-5.2224
X8.1004Y-5.3012
X8.1988Y-4.0413
X8.1988Y-4.1201
X8.1988Y-4.1988
X8.1988Y-4.2776
X8.1988Y-4.3563
X8.1988Y-4.435
X8.1988Y-4.5138
X8.1988Y-4.5925
X8.1988Y-4.6713
X8.1988Y-4.75
X8.1988Y-4.9075
X8.1988Y-4.9862
X8.1988Y-5.065
X8.1988Y-5.1437
X8.1988Y-5.2224
X8.1988Y-5.3012
X8.2776Y-4.002
X8.2776Y-4.0807
X8.2776Y-4.1594
X8.2776Y-4.2382
X8.2776Y-4.3169
X8.2776Y-4.3957
X8.2776Y-4.4744
X8.2776Y-4.5531
X8.2776Y-4.6319
X8.2776Y-4.7106
X8.2776Y-4.7894
X8.2776Y-4.9469
X8.2776Y-5.0256
X8.2776Y-5.1043
X8.2776Y-5.1831
X8.2776Y-5.2618
X8.3465Y-2.5591
X8.3465Y-5.7087
X8.376Y-3.7795
X8.376Y-4.8425
X8.4055Y-2.4567
X8.4055Y-2.6614
X8.4055Y-5.6063
X8.4055Y-5.811
X8.5236Y-2.4567
X8.5236Y-2.6614
X8.5236Y-5.6063
X8.5236Y-5.811
X8.5827Y-2.5591
X8.5827Y-5.7087
T3
X1.4567Y-4.0847
X1.4567Y-4.1831
X1.4567Y-4.3996
X1.4567Y-4.498
X1.752Y-4.0847
X1.752Y-4.1831
X1.752Y-4.3996
X1.752Y-4.498
X2.3425Y-2.5394
X2.3425Y-2.7362
T4
X4.2638Y-2.8386
X4.3189Y-2.437
T5
X1.3173Y-5.3937
X1.4173Y-5.3937
X1.4945Y-3.0413
X1.5173Y-5.3937
X1.5945Y-3.0413
X1.6945Y-3.0413
X5.2543Y-2.5591
X5.3543Y-2.5591
X5.4543Y-2.5591
T6
X2.2441Y-3.837
X2.2441Y-4.037
T7
X4.6079Y-2.5591
X4.7638Y-2.5591
X4.9197Y-2.5591
T8
X1.378Y-2.5591
X1.378Y-5.7087
X4.9213Y-3.1496
X4.9213Y-5.7087
X8.4646Y-2.5591
X8.4646Y-5.7087
T0
M30
