G04 #@! TF.FileFunction,Soldermask,Bot*
%FSLAX46Y46*%
G04 Gerber Fmt 4.6, Leading zero omitted, Abs format (unit mm)*
G04 Created by KiCad (PCBNEW (2015-02-06 BZR 5407)-product) date Mon 09 Feb 2015 02:11:19 PM EST*
%MOMM*%
G01*
G04 APERTURE LIST*
%ADD10C,0.100000*%
%ADD11C,0.700000*%
%ADD12C,2.000000*%
%ADD13C,3.000000*%
%ADD14C,2.350000*%
%ADD15C,1.000000*%
%ADD16R,1.000000X1.000000*%
%ADD17C,9.000000*%
%ADD18R,0.600000X0.600000*%
%ADD19R,1.998980X1.998980*%
%ADD20C,1.998980*%
%ADD21R,1.524000X2.286000*%
%ADD22O,1.524000X2.286000*%
%ADD23R,1.500000X1.500000*%
%ADD24C,1.500000*%
%ADD25C,1.300000*%
%ADD26C,0.300000*%
G04 APERTURE END LIST*
D10*
D11*
X213103553Y-123000000D02*
G75*
G03X213103553Y-123000000I-353553J0D01*
G01*
X193103553Y-123250000D02*
G75*
G03X193103553Y-123250000I-353553J0D01*
G01*
X199953553Y-96000000D02*
G75*
G03X199953553Y-96000000I-353553J0D01*
G01*
X193103553Y-96000000D02*
G75*
G03X193103553Y-96000000I-353553J0D01*
G01*
X201353553Y-96000000D02*
G75*
G03X201353553Y-96000000I-353553J0D01*
G01*
X213103553Y-96000000D02*
G75*
G03X213103553Y-96000000I-353553J0D01*
G01*
X181353553Y-96000000D02*
G75*
G03X181353553Y-96000000I-353553J0D01*
G01*
X179853553Y-96000000D02*
G75*
G03X179853553Y-96000000I-353553J0D01*
G01*
X139853553Y-132000000D02*
G75*
G03X139853553Y-132000000I-353553J0D01*
G01*
X120353553Y-132000000D02*
G75*
G03X120353553Y-132000000I-353553J0D01*
G01*
X100103553Y-131750000D02*
G75*
G03X100103553Y-131750000I-353553J0D01*
G01*
X121353553Y-135050000D02*
G75*
G03X121353553Y-135050000I-353553J0D01*
G01*
X179853553Y-132000000D02*
G75*
G03X179853553Y-132000000I-353553J0D01*
G01*
X181353553Y-135050000D02*
G75*
G03X181353553Y-135050000I-353553J0D01*
G01*
X161353553Y-135050000D02*
G75*
G03X161353553Y-135050000I-353553J0D01*
G01*
X101353553Y-135500000D02*
G75*
G03X101353553Y-135500000I-353553J0D01*
G01*
X200103553Y-131750000D02*
G75*
G03X200103553Y-131750000I-353553J0D01*
G01*
X201353553Y-135050000D02*
G75*
G03X201353553Y-135050000I-353553J0D01*
G01*
X101353553Y-96500000D02*
G75*
G03X101353553Y-96500000I-353553J0D01*
G01*
X99853553Y-96500000D02*
G75*
G03X99853553Y-96500000I-353553J0D01*
G01*
X159853553Y-132000000D02*
G75*
G03X159853553Y-132000000I-353553J0D01*
G01*
X141353553Y-135050000D02*
G75*
G03X141353553Y-135050000I-353553J0D01*
G01*
X172853553Y-96000000D02*
G75*
G03X172853553Y-96000000I-353553J0D01*
G01*
X161353553Y-96000000D02*
G75*
G03X161353553Y-96000000I-353553J0D01*
G01*
X139853553Y-96000000D02*
G75*
G03X139853553Y-96000000I-353553J0D01*
G01*
X141353553Y-96000000D02*
G75*
G03X141353553Y-96000000I-353553J0D01*
G01*
X159853553Y-96000000D02*
G75*
G03X159853553Y-96000000I-353553J0D01*
G01*
X152853553Y-96000000D02*
G75*
G03X152853553Y-96000000I-353553J0D01*
G01*
X121353553Y-96000000D02*
G75*
G03X121353553Y-96000000I-353553J0D01*
G01*
X132853553Y-96000000D02*
G75*
G03X132853553Y-96000000I-353553J0D01*
G01*
X119853553Y-96000000D02*
G75*
G03X119853553Y-96000000I-353553J0D01*
G01*
X113103553Y-96250000D02*
G75*
G03X113103553Y-96250000I-353553J0D01*
G01*
D12*
X109700000Y-61900000D03*
X108300000Y-72100000D03*
D13*
X124960000Y-65000000D03*
X121000000Y-65000000D03*
X117040000Y-65000000D03*
D14*
X127000000Y-123000000D03*
D15*
X128250000Y-134650000D03*
X130250000Y-133650000D03*
X128250000Y-132650000D03*
X130250000Y-131650000D03*
X128250000Y-130650000D03*
X130250000Y-129650000D03*
X128250000Y-128650000D03*
X130250000Y-127650000D03*
X128250000Y-126650000D03*
X130250000Y-125650000D03*
X128250000Y-124650000D03*
D16*
X125750000Y-134650000D03*
D15*
X123750000Y-133650000D03*
X125750000Y-132650000D03*
X123750000Y-131650000D03*
X125750000Y-130650000D03*
X123750000Y-129650000D03*
X125750000Y-128650000D03*
X123750000Y-127650000D03*
X125750000Y-126650000D03*
X123750000Y-125650000D03*
X125750000Y-124650000D03*
X130250000Y-121650000D03*
X128250000Y-120650000D03*
X130250000Y-119650000D03*
X128250000Y-118650000D03*
X130250000Y-117650000D03*
X128250000Y-116650000D03*
X130250000Y-115650000D03*
X128250000Y-114650000D03*
X130250000Y-113650000D03*
X128250000Y-112650000D03*
X130250000Y-111650000D03*
X128250000Y-110650000D03*
X130250000Y-109650000D03*
X128250000Y-108650000D03*
X130250000Y-107650000D03*
X128250000Y-106650000D03*
X130250000Y-105650000D03*
X128250000Y-104650000D03*
X130250000Y-103650000D03*
X128250000Y-102650000D03*
X130250000Y-101650000D03*
X123750000Y-121650000D03*
X125750000Y-120650000D03*
X123750000Y-119650000D03*
X125750000Y-118650000D03*
X123750000Y-117650000D03*
X125750000Y-116650000D03*
X123750000Y-115650000D03*
X125750000Y-114650000D03*
X123750000Y-113650000D03*
X125750000Y-112650000D03*
X123750000Y-111650000D03*
X125750000Y-110650000D03*
X123750000Y-109650000D03*
X125750000Y-108650000D03*
X123750000Y-107650000D03*
X125750000Y-106650000D03*
X123750000Y-105650000D03*
X125750000Y-104650000D03*
X123750000Y-103650000D03*
X125750000Y-102650000D03*
X123750000Y-101650000D03*
D14*
X127000000Y-99850000D03*
X87000000Y-123000000D03*
D15*
X88250000Y-134650000D03*
X90250000Y-133650000D03*
X88250000Y-132650000D03*
X90250000Y-131650000D03*
X88250000Y-130650000D03*
X90250000Y-129650000D03*
X88250000Y-128650000D03*
X90250000Y-127650000D03*
X88250000Y-126650000D03*
X90250000Y-125650000D03*
X88250000Y-124650000D03*
D16*
X85750000Y-134650000D03*
D15*
X83750000Y-133650000D03*
X85750000Y-132650000D03*
X83750000Y-131650000D03*
X85750000Y-130650000D03*
X83750000Y-129650000D03*
X85750000Y-128650000D03*
X83750000Y-127650000D03*
X85750000Y-126650000D03*
X83750000Y-125650000D03*
X85750000Y-124650000D03*
X90250000Y-121650000D03*
X88250000Y-120650000D03*
X90250000Y-119650000D03*
X88250000Y-118650000D03*
X90250000Y-117650000D03*
X88250000Y-116650000D03*
X90250000Y-115650000D03*
X88250000Y-114650000D03*
X90250000Y-113650000D03*
X88250000Y-112650000D03*
X90250000Y-111650000D03*
X88250000Y-110650000D03*
X90250000Y-109650000D03*
X88250000Y-108650000D03*
X90250000Y-107650000D03*
X88250000Y-106650000D03*
X90250000Y-105650000D03*
X88250000Y-104650000D03*
X90250000Y-103650000D03*
X88250000Y-102650000D03*
X90250000Y-101650000D03*
X88250000Y-100650000D03*
X90250000Y-99650000D03*
X88250000Y-98650000D03*
X90250000Y-97650000D03*
X88250000Y-96650000D03*
X90250000Y-95650000D03*
X88250000Y-94650000D03*
X90250000Y-93650000D03*
X88250000Y-92650000D03*
X90250000Y-91650000D03*
X88250000Y-90650000D03*
X90250000Y-89650000D03*
X88250000Y-88650000D03*
X90250000Y-87650000D03*
X88250000Y-86650000D03*
X90250000Y-85650000D03*
X88250000Y-84650000D03*
X83750000Y-121650000D03*
X85750000Y-120650000D03*
X83750000Y-119650000D03*
X85750000Y-118650000D03*
X83750000Y-117650000D03*
X85750000Y-116650000D03*
X83750000Y-115650000D03*
X85750000Y-114650000D03*
X83750000Y-113650000D03*
X85750000Y-112650000D03*
X83750000Y-111650000D03*
X85750000Y-110650000D03*
X83750000Y-109650000D03*
X85750000Y-108650000D03*
X83750000Y-107650000D03*
X85750000Y-106650000D03*
X83750000Y-105650000D03*
X85750000Y-104650000D03*
X83750000Y-103650000D03*
X85750000Y-102650000D03*
X83750000Y-101650000D03*
X85750000Y-100650000D03*
X83750000Y-99650000D03*
X85750000Y-98650000D03*
X83750000Y-97650000D03*
X85750000Y-96650000D03*
X83750000Y-95650000D03*
X85750000Y-94650000D03*
X83750000Y-93650000D03*
X85750000Y-92650000D03*
X83750000Y-91650000D03*
X85750000Y-90650000D03*
X83750000Y-89650000D03*
X85750000Y-88650000D03*
X83750000Y-87650000D03*
X85750000Y-86650000D03*
X83750000Y-85650000D03*
X85750000Y-84650000D03*
D14*
X87000000Y-82850000D03*
X187000000Y-123000000D03*
D15*
X188250000Y-134650000D03*
X190250000Y-133650000D03*
X188250000Y-132650000D03*
X190250000Y-131650000D03*
X188250000Y-130650000D03*
X190250000Y-129650000D03*
X188250000Y-128650000D03*
X190250000Y-127650000D03*
X188250000Y-126650000D03*
X190250000Y-125650000D03*
X188250000Y-124650000D03*
D16*
X185750000Y-134650000D03*
D15*
X183750000Y-133650000D03*
X185750000Y-132650000D03*
X183750000Y-131650000D03*
X185750000Y-130650000D03*
X183750000Y-129650000D03*
X185750000Y-128650000D03*
X183750000Y-127650000D03*
X185750000Y-126650000D03*
X183750000Y-125650000D03*
X185750000Y-124650000D03*
X190250000Y-121650000D03*
X188250000Y-120650000D03*
X190250000Y-119650000D03*
X188250000Y-118650000D03*
X190250000Y-117650000D03*
X188250000Y-116650000D03*
X190250000Y-115650000D03*
X188250000Y-114650000D03*
X190250000Y-113650000D03*
X188250000Y-112650000D03*
X190250000Y-111650000D03*
X188250000Y-110650000D03*
X190250000Y-109650000D03*
X188250000Y-108650000D03*
X190250000Y-107650000D03*
X188250000Y-106650000D03*
X190250000Y-105650000D03*
X188250000Y-104650000D03*
X190250000Y-103650000D03*
X188250000Y-102650000D03*
X190250000Y-101650000D03*
X183750000Y-121650000D03*
X185750000Y-120650000D03*
X183750000Y-119650000D03*
X185750000Y-118650000D03*
X183750000Y-117650000D03*
X185750000Y-116650000D03*
X183750000Y-115650000D03*
X185750000Y-114650000D03*
X183750000Y-113650000D03*
X185750000Y-112650000D03*
X183750000Y-111650000D03*
X185750000Y-110650000D03*
X183750000Y-109650000D03*
X185750000Y-108650000D03*
X183750000Y-107650000D03*
X185750000Y-106650000D03*
X183750000Y-105650000D03*
X185750000Y-104650000D03*
X183750000Y-103650000D03*
X185750000Y-102650000D03*
X183750000Y-101650000D03*
D14*
X187000000Y-99850000D03*
X167000000Y-123000000D03*
D15*
X168250000Y-134650000D03*
X170250000Y-133650000D03*
X168250000Y-132650000D03*
X170250000Y-131650000D03*
X168250000Y-130650000D03*
X170250000Y-129650000D03*
X168250000Y-128650000D03*
X170250000Y-127650000D03*
X168250000Y-126650000D03*
X170250000Y-125650000D03*
X168250000Y-124650000D03*
D16*
X165750000Y-134650000D03*
D15*
X163750000Y-133650000D03*
X165750000Y-132650000D03*
X163750000Y-131650000D03*
X165750000Y-130650000D03*
X163750000Y-129650000D03*
X165750000Y-128650000D03*
X163750000Y-127650000D03*
X165750000Y-126650000D03*
X163750000Y-125650000D03*
X165750000Y-124650000D03*
X170250000Y-121650000D03*
X168250000Y-120650000D03*
X170250000Y-119650000D03*
X168250000Y-118650000D03*
X170250000Y-117650000D03*
X168250000Y-116650000D03*
X170250000Y-115650000D03*
X168250000Y-114650000D03*
X170250000Y-113650000D03*
X168250000Y-112650000D03*
X170250000Y-111650000D03*
X168250000Y-110650000D03*
X170250000Y-109650000D03*
X168250000Y-108650000D03*
X170250000Y-107650000D03*
X168250000Y-106650000D03*
X170250000Y-105650000D03*
X168250000Y-104650000D03*
X170250000Y-103650000D03*
X168250000Y-102650000D03*
X170250000Y-101650000D03*
X163750000Y-121650000D03*
X165750000Y-120650000D03*
X163750000Y-119650000D03*
X165750000Y-118650000D03*
X163750000Y-117650000D03*
X165750000Y-116650000D03*
X163750000Y-115650000D03*
X165750000Y-114650000D03*
X163750000Y-113650000D03*
X165750000Y-112650000D03*
X163750000Y-111650000D03*
X165750000Y-110650000D03*
X163750000Y-109650000D03*
X165750000Y-108650000D03*
X163750000Y-107650000D03*
X165750000Y-106650000D03*
X163750000Y-105650000D03*
X165750000Y-104650000D03*
X163750000Y-103650000D03*
X165750000Y-102650000D03*
X163750000Y-101650000D03*
D14*
X167000000Y-99850000D03*
X207000000Y-123000000D03*
D15*
X208250000Y-134650000D03*
X210250000Y-133650000D03*
X208250000Y-132650000D03*
X210250000Y-131650000D03*
X208250000Y-130650000D03*
X210250000Y-129650000D03*
X208250000Y-128650000D03*
X210250000Y-127650000D03*
X208250000Y-126650000D03*
X210250000Y-125650000D03*
X208250000Y-124650000D03*
D16*
X205750000Y-134650000D03*
D15*
X203750000Y-133650000D03*
X205750000Y-132650000D03*
X203750000Y-131650000D03*
X205750000Y-130650000D03*
X203750000Y-129650000D03*
X205750000Y-128650000D03*
X203750000Y-127650000D03*
X205750000Y-126650000D03*
X203750000Y-125650000D03*
X205750000Y-124650000D03*
X210250000Y-121650000D03*
X208250000Y-120650000D03*
X210250000Y-119650000D03*
X208250000Y-118650000D03*
X210250000Y-117650000D03*
X208250000Y-116650000D03*
X210250000Y-115650000D03*
X208250000Y-114650000D03*
X210250000Y-113650000D03*
X208250000Y-112650000D03*
X210250000Y-111650000D03*
X208250000Y-110650000D03*
X210250000Y-109650000D03*
X208250000Y-108650000D03*
X210250000Y-107650000D03*
X208250000Y-106650000D03*
X210250000Y-105650000D03*
X208250000Y-104650000D03*
X210250000Y-103650000D03*
X208250000Y-102650000D03*
X210250000Y-101650000D03*
X203750000Y-121650000D03*
X205750000Y-120650000D03*
X203750000Y-119650000D03*
X205750000Y-118650000D03*
X203750000Y-117650000D03*
X205750000Y-116650000D03*
X203750000Y-115650000D03*
X205750000Y-114650000D03*
X203750000Y-113650000D03*
X205750000Y-112650000D03*
X203750000Y-111650000D03*
X205750000Y-110650000D03*
X203750000Y-109650000D03*
X205750000Y-108650000D03*
X203750000Y-107650000D03*
X205750000Y-106650000D03*
X203750000Y-105650000D03*
X205750000Y-104650000D03*
X203750000Y-103650000D03*
X205750000Y-102650000D03*
X203750000Y-101650000D03*
D14*
X207000000Y-99850000D03*
X147000000Y-123000000D03*
D15*
X148250000Y-134650000D03*
X150250000Y-133650000D03*
X148250000Y-132650000D03*
X150250000Y-131650000D03*
X148250000Y-130650000D03*
X150250000Y-129650000D03*
X148250000Y-128650000D03*
X150250000Y-127650000D03*
X148250000Y-126650000D03*
X150250000Y-125650000D03*
X148250000Y-124650000D03*
D16*
X145750000Y-134650000D03*
D15*
X143750000Y-133650000D03*
X145750000Y-132650000D03*
X143750000Y-131650000D03*
X145750000Y-130650000D03*
X143750000Y-129650000D03*
X145750000Y-128650000D03*
X143750000Y-127650000D03*
X145750000Y-126650000D03*
X143750000Y-125650000D03*
X145750000Y-124650000D03*
X150250000Y-121650000D03*
X148250000Y-120650000D03*
X150250000Y-119650000D03*
X148250000Y-118650000D03*
X150250000Y-117650000D03*
X148250000Y-116650000D03*
X150250000Y-115650000D03*
X148250000Y-114650000D03*
X150250000Y-113650000D03*
X148250000Y-112650000D03*
X150250000Y-111650000D03*
X148250000Y-110650000D03*
X150250000Y-109650000D03*
X148250000Y-108650000D03*
X150250000Y-107650000D03*
X148250000Y-106650000D03*
X150250000Y-105650000D03*
X148250000Y-104650000D03*
X150250000Y-103650000D03*
X148250000Y-102650000D03*
X150250000Y-101650000D03*
X143750000Y-121650000D03*
X145750000Y-120650000D03*
X143750000Y-119650000D03*
X145750000Y-118650000D03*
X143750000Y-117650000D03*
X145750000Y-116650000D03*
X143750000Y-115650000D03*
X145750000Y-114650000D03*
X143750000Y-113650000D03*
X145750000Y-112650000D03*
X143750000Y-111650000D03*
X145750000Y-110650000D03*
X143750000Y-109650000D03*
X145750000Y-108650000D03*
X143750000Y-107650000D03*
X145750000Y-106650000D03*
X143750000Y-105650000D03*
X145750000Y-104650000D03*
X143750000Y-103650000D03*
X145750000Y-102650000D03*
X143750000Y-101650000D03*
D14*
X147000000Y-99850000D03*
X107000000Y-123000000D03*
D15*
X108250000Y-134650000D03*
X110250000Y-133650000D03*
X108250000Y-132650000D03*
X110250000Y-131650000D03*
X108250000Y-130650000D03*
X110250000Y-129650000D03*
X108250000Y-128650000D03*
X110250000Y-127650000D03*
X108250000Y-126650000D03*
X110250000Y-125650000D03*
X108250000Y-124650000D03*
D16*
X105750000Y-134650000D03*
D15*
X103750000Y-133650000D03*
X105750000Y-132650000D03*
X103750000Y-131650000D03*
X105750000Y-130650000D03*
X103750000Y-129650000D03*
X105750000Y-128650000D03*
X103750000Y-127650000D03*
X105750000Y-126650000D03*
X103750000Y-125650000D03*
X105750000Y-124650000D03*
X110250000Y-121650000D03*
X108250000Y-120650000D03*
X110250000Y-119650000D03*
X108250000Y-118650000D03*
X110250000Y-117650000D03*
X108250000Y-116650000D03*
X110250000Y-115650000D03*
X108250000Y-114650000D03*
X110250000Y-113650000D03*
X108250000Y-112650000D03*
X110250000Y-111650000D03*
X108250000Y-110650000D03*
X110250000Y-109650000D03*
X108250000Y-108650000D03*
X110250000Y-107650000D03*
X108250000Y-106650000D03*
X110250000Y-105650000D03*
X108250000Y-104650000D03*
X110250000Y-103650000D03*
X108250000Y-102650000D03*
X110250000Y-101650000D03*
X103750000Y-121650000D03*
X105750000Y-120650000D03*
X103750000Y-119650000D03*
X105750000Y-118650000D03*
X103750000Y-117650000D03*
X105750000Y-116650000D03*
X103750000Y-115650000D03*
X105750000Y-114650000D03*
X103750000Y-113650000D03*
X105750000Y-112650000D03*
X103750000Y-111650000D03*
X105750000Y-110650000D03*
X103750000Y-109650000D03*
X105750000Y-108650000D03*
X103750000Y-107650000D03*
X105750000Y-106650000D03*
X103750000Y-105650000D03*
X105750000Y-104650000D03*
X103750000Y-103650000D03*
X105750000Y-102650000D03*
X103750000Y-101650000D03*
D14*
X107000000Y-99850000D03*
D17*
X35000000Y-145000000D03*
D15*
X38000000Y-145000000D03*
X36500000Y-147600000D03*
X33500000Y-147600000D03*
X32000000Y-145000000D03*
X33500000Y-142400000D03*
X36500000Y-142400000D03*
D17*
X215000000Y-145000000D03*
D15*
X218000000Y-145000000D03*
X216500000Y-147600000D03*
X213500000Y-147600000D03*
X212000000Y-145000000D03*
X213500000Y-142400000D03*
X216500000Y-142400000D03*
D17*
X35000000Y-65000000D03*
D15*
X38000000Y-65000000D03*
X36500000Y-67600000D03*
X33500000Y-67600000D03*
X32000000Y-65000000D03*
X33500000Y-62400000D03*
X36500000Y-62400000D03*
D17*
X215000000Y-65000000D03*
D15*
X218000000Y-65000000D03*
X216500000Y-67600000D03*
X213500000Y-67600000D03*
X212000000Y-65000000D03*
X213500000Y-62400000D03*
X216500000Y-62400000D03*
D18*
X78550000Y-118500000D03*
X79450000Y-118500000D03*
X81000000Y-118050000D03*
X81000000Y-118950000D03*
X79450000Y-119500000D03*
X78550000Y-119500000D03*
X78550000Y-116000000D03*
X79450000Y-116000000D03*
X81000000Y-115800000D03*
X81000000Y-116700000D03*
X79450000Y-117250000D03*
X78550000Y-117250000D03*
X78550000Y-113500000D03*
X79450000Y-113500000D03*
X81000000Y-113550000D03*
X81000000Y-114450000D03*
X79450000Y-114750000D03*
X78550000Y-114750000D03*
X78550000Y-111000000D03*
X79450000Y-111000000D03*
X81000000Y-111300000D03*
X81000000Y-112200000D03*
X79450000Y-112250000D03*
X78550000Y-112250000D03*
X78550000Y-108500000D03*
X79450000Y-108500000D03*
X81000000Y-108800000D03*
X81000000Y-109700000D03*
X79450000Y-109750000D03*
X78550000Y-109750000D03*
X78550000Y-106000000D03*
X79450000Y-106000000D03*
X81000000Y-106550000D03*
X81000000Y-107450000D03*
X79450000Y-107250000D03*
X78550000Y-107250000D03*
X78550000Y-103500000D03*
X79450000Y-103500000D03*
X81000000Y-104300000D03*
X81000000Y-105200000D03*
X79450000Y-104750000D03*
X78550000Y-104750000D03*
X78550000Y-101000000D03*
X79450000Y-101000000D03*
X81000000Y-102050000D03*
X81000000Y-102950000D03*
X79450000Y-102250000D03*
X78550000Y-102250000D03*
X78550000Y-120750000D03*
X79450000Y-120750000D03*
X81000000Y-120300000D03*
X81000000Y-121200000D03*
X79450000Y-122000000D03*
X78550000Y-122000000D03*
D19*
X57000000Y-97460000D03*
D20*
X57000000Y-102540000D03*
D21*
X33460000Y-137000000D03*
D22*
X36000000Y-137000000D03*
X38540000Y-137000000D03*
D21*
X37960000Y-77250000D03*
D22*
X40500000Y-77250000D03*
X43040000Y-77250000D03*
D21*
X133460000Y-65000000D03*
D22*
X136000000Y-65000000D03*
X138540000Y-65000000D03*
D23*
X37000000Y-114249680D03*
D24*
X37000000Y-111750320D03*
D23*
X37000000Y-103750320D03*
D24*
X37000000Y-106249680D03*
D23*
X44500000Y-103750320D03*
D24*
X44500000Y-106249680D03*
D23*
X44500000Y-114249680D03*
D24*
X44500000Y-111750320D03*
D17*
X125000000Y-80000000D03*
D15*
X128000000Y-80000000D03*
X126500000Y-82600000D03*
X123500000Y-82600000D03*
X122000000Y-80000000D03*
X123500000Y-77400000D03*
X126500000Y-77400000D03*
D17*
X125000000Y-145000000D03*
D15*
X128000000Y-145000000D03*
X126500000Y-147600000D03*
X123500000Y-147600000D03*
X122000000Y-145000000D03*
X123500000Y-142400000D03*
X126500000Y-142400000D03*
D25*
X59500000Y-64500000D03*
X59500000Y-69500000D03*
D26*
G36*
X46650000Y-90150000D02*
X43350000Y-90150000D01*
X43350000Y-85850000D01*
X46650000Y-85850000D01*
X46650000Y-90150000D01*
X46650000Y-90150000D01*
G37*
X46650000Y-90150000D02*
X43350000Y-90150000D01*
X43350000Y-85850000D01*
X46650000Y-85850000D01*
X46650000Y-90150000D01*
G36*
X46650000Y-132400000D02*
X43350000Y-132400000D01*
X43350000Y-127600000D01*
X46650000Y-127600000D01*
X46650000Y-132400000D01*
X46650000Y-132400000D01*
G37*
X46650000Y-132400000D02*
X43350000Y-132400000D01*
X43350000Y-127600000D01*
X46650000Y-127600000D01*
X46650000Y-132400000D01*
M02*
