G04 #@! TF.FileFunction,Legend,Bot*
%FSLAX46Y46*%
G04 Gerber Fmt 4.6, Leading zero omitted, Abs format (unit mm)*
G04 Created by KiCad (PCBNEW (after 2015-may-25 BZR unknown)-product) date Wed 27 May 2015 09:58:39 PM EDT*
%MOMM*%
G01*
G04 APERTURE LIST*
%ADD10C,0.100000*%
%ADD11C,0.150000*%
%ADD12C,0.200000*%
%ADD13C,0.250000*%
%ADD14C,0.350000*%
%ADD15C,0.002540*%
%ADD16R,0.900000X2.300000*%
%ADD17C,2.000000*%
%ADD18C,0.800000*%
%ADD19C,1.500000*%
%ADD20R,1.450000X0.950000*%
%ADD21R,1.500000X1.500000*%
%ADD22O,1.500000X2.500000*%
%ADD23O,1.500000X1.500000*%
%ADD24C,1.300000*%
%ADD25R,2.286000X1.524000*%
%ADD26O,2.286000X1.524000*%
%ADD27R,1.150000X1.450000*%
%ADD28R,2.200000X0.750000*%
%ADD29R,0.600000X0.650000*%
%ADD30R,0.650000X0.600000*%
%ADD31R,1.450000X1.150000*%
%ADD32C,3.200000*%
%ADD33O,2.500000X1.500000*%
%ADD34R,0.950000X1.450000*%
%ADD35R,0.850000X1.000000*%
%ADD36C,2.500000*%
%ADD37C,1.200000*%
%ADD38R,0.600000X0.600000*%
%ADD39R,2.790000X0.760000*%
%ADD40C,0.254000*%
G04 APERTURE END LIST*
D10*
D11*
X131250000Y-50250000D02*
X130750000Y-49750000D01*
X131750000Y-49750000D02*
X131250000Y-50250000D01*
X130750000Y-49750000D02*
X131750000Y-49750000D01*
X131250000Y-49500000D02*
X131250000Y-49750000D01*
X131250000Y-97000000D02*
X130750000Y-96500000D01*
X131750000Y-96500000D02*
X131250000Y-97000000D01*
X130750000Y-96500000D02*
X131750000Y-96500000D01*
X131250000Y-95750000D02*
X131250000Y-96500000D01*
X121500000Y-101250000D02*
X121000000Y-100750000D01*
X122000000Y-100750000D02*
X121500000Y-101250000D01*
X121000000Y-100750000D02*
X122000000Y-100750000D01*
X121500000Y-100500000D02*
X121500000Y-100750000D01*
X122500000Y-99500000D02*
G75*
G03X122500000Y-99500000I-1000000J0D01*
G01*
X121500000Y-55250000D02*
X121000000Y-54750000D01*
X122000000Y-54750000D02*
X121500000Y-55250000D01*
X121000000Y-54750000D02*
X122000000Y-54750000D01*
X121500000Y-54500000D02*
X121500000Y-54750000D01*
X122500000Y-53500000D02*
G75*
G03X122500000Y-53500000I-1000000J0D01*
G01*
X130000000Y-84250000D02*
X129500000Y-83750000D01*
X130500000Y-83750000D02*
X130000000Y-84250000D01*
X129500000Y-83750000D02*
X130500000Y-83750000D01*
X130000000Y-83500000D02*
X130000000Y-83750000D01*
X131414214Y-82000000D02*
G75*
G03X131414214Y-82000000I-1414214J0D01*
G01*
X130000000Y-38500000D02*
X129500000Y-38000000D01*
X130500000Y-38000000D02*
X130000000Y-38500000D01*
X129500000Y-38000000D02*
X130500000Y-38000000D01*
X130000000Y-37500000D02*
X130000000Y-38000000D01*
X131414214Y-36000000D02*
G75*
G03X131414214Y-36000000I-1414214J0D01*
G01*
D12*
X156609523Y-52100000D02*
X156685714Y-52061905D01*
X156799999Y-52061905D01*
X156914285Y-52100000D01*
X156990476Y-52176190D01*
X157028571Y-52252381D01*
X157066666Y-52404762D01*
X157066666Y-52519048D01*
X157028571Y-52671429D01*
X156990476Y-52747619D01*
X156914285Y-52823810D01*
X156799999Y-52861905D01*
X156723809Y-52861905D01*
X156609523Y-52823810D01*
X156571428Y-52785714D01*
X156571428Y-52519048D01*
X156723809Y-52519048D01*
X156228571Y-52861905D02*
X156228571Y-52061905D01*
X155771428Y-52861905D01*
X155771428Y-52061905D01*
X155390476Y-52861905D02*
X155390476Y-52061905D01*
X155200000Y-52061905D01*
X155085714Y-52100000D01*
X155009523Y-52176190D01*
X154971428Y-52252381D01*
X154933333Y-52404762D01*
X154933333Y-52519048D01*
X154971428Y-52671429D01*
X155009523Y-52747619D01*
X155085714Y-52823810D01*
X155200000Y-52861905D01*
X155390476Y-52861905D01*
X146938095Y-52861905D02*
X147204762Y-52480952D01*
X147395238Y-52861905D02*
X147395238Y-52061905D01*
X147090476Y-52061905D01*
X147014285Y-52100000D01*
X146976190Y-52138095D01*
X146938095Y-52214286D01*
X146938095Y-52328571D01*
X146976190Y-52404762D01*
X147014285Y-52442857D01*
X147090476Y-52480952D01*
X147395238Y-52480952D01*
X146633333Y-52823810D02*
X146519047Y-52861905D01*
X146328571Y-52861905D01*
X146252381Y-52823810D01*
X146214285Y-52785714D01*
X146176190Y-52709524D01*
X146176190Y-52633333D01*
X146214285Y-52557143D01*
X146252381Y-52519048D01*
X146328571Y-52480952D01*
X146480952Y-52442857D01*
X146557143Y-52404762D01*
X146595238Y-52366667D01*
X146633333Y-52290476D01*
X146633333Y-52214286D01*
X146595238Y-52138095D01*
X146557143Y-52100000D01*
X146480952Y-52061905D01*
X146290476Y-52061905D01*
X146176190Y-52100000D01*
X145947619Y-52061905D02*
X145490476Y-52061905D01*
X145719047Y-52861905D02*
X145719047Y-52061905D01*
X147585714Y-51924000D02*
X145414285Y-51924000D01*
X156990476Y-62061905D02*
X156495238Y-62061905D01*
X156761905Y-62366667D01*
X156647619Y-62366667D01*
X156571429Y-62404762D01*
X156533333Y-62442857D01*
X156495238Y-62519048D01*
X156495238Y-62709524D01*
X156533333Y-62785714D01*
X156571429Y-62823810D01*
X156647619Y-62861905D01*
X156876191Y-62861905D01*
X156952381Y-62823810D01*
X156990476Y-62785714D01*
X156266667Y-62061905D02*
X156000000Y-62861905D01*
X155733333Y-62061905D01*
X155542857Y-62061905D02*
X155047619Y-62061905D01*
X155314286Y-62366667D01*
X155200000Y-62366667D01*
X155123810Y-62404762D01*
X155085714Y-62442857D01*
X155047619Y-62519048D01*
X155047619Y-62709524D01*
X155085714Y-62785714D01*
X155123810Y-62823810D01*
X155200000Y-62861905D01*
X155428572Y-62861905D01*
X155504762Y-62823810D01*
X155542857Y-62785714D01*
X156609523Y-59600000D02*
X156685714Y-59561905D01*
X156799999Y-59561905D01*
X156914285Y-59600000D01*
X156990476Y-59676190D01*
X157028571Y-59752381D01*
X157066666Y-59904762D01*
X157066666Y-60019048D01*
X157028571Y-60171429D01*
X156990476Y-60247619D01*
X156914285Y-60323810D01*
X156799999Y-60361905D01*
X156723809Y-60361905D01*
X156609523Y-60323810D01*
X156571428Y-60285714D01*
X156571428Y-60019048D01*
X156723809Y-60019048D01*
X156228571Y-60361905D02*
X156228571Y-59561905D01*
X155771428Y-60361905D01*
X155771428Y-59561905D01*
X155390476Y-60361905D02*
X155390476Y-59561905D01*
X155200000Y-59561905D01*
X155085714Y-59600000D01*
X155009523Y-59676190D01*
X154971428Y-59752381D01*
X154933333Y-59904762D01*
X154933333Y-60019048D01*
X154971428Y-60171429D01*
X155009523Y-60247619D01*
X155085714Y-60323810D01*
X155200000Y-60361905D01*
X155390476Y-60361905D01*
X156609523Y-57100000D02*
X156685714Y-57061905D01*
X156799999Y-57061905D01*
X156914285Y-57100000D01*
X156990476Y-57176190D01*
X157028571Y-57252381D01*
X157066666Y-57404762D01*
X157066666Y-57519048D01*
X157028571Y-57671429D01*
X156990476Y-57747619D01*
X156914285Y-57823810D01*
X156799999Y-57861905D01*
X156723809Y-57861905D01*
X156609523Y-57823810D01*
X156571428Y-57785714D01*
X156571428Y-57519048D01*
X156723809Y-57519048D01*
X156228571Y-57861905D02*
X156228571Y-57061905D01*
X155771428Y-57861905D01*
X155771428Y-57061905D01*
X155390476Y-57861905D02*
X155390476Y-57061905D01*
X155200000Y-57061905D01*
X155085714Y-57100000D01*
X155009523Y-57176190D01*
X154971428Y-57252381D01*
X154933333Y-57404762D01*
X154933333Y-57519048D01*
X154971428Y-57671429D01*
X155009523Y-57747619D01*
X155085714Y-57823810D01*
X155200000Y-57861905D01*
X155390476Y-57861905D01*
X147195238Y-62823810D02*
X147080952Y-62861905D01*
X146890476Y-62861905D01*
X146814286Y-62823810D01*
X146776190Y-62785714D01*
X146738095Y-62709524D01*
X146738095Y-62633333D01*
X146776190Y-62557143D01*
X146814286Y-62519048D01*
X146890476Y-62480952D01*
X147042857Y-62442857D01*
X147119048Y-62404762D01*
X147157143Y-62366667D01*
X147195238Y-62290476D01*
X147195238Y-62214286D01*
X147157143Y-62138095D01*
X147119048Y-62100000D01*
X147042857Y-62061905D01*
X146852381Y-62061905D01*
X146738095Y-62100000D01*
X146471428Y-62061905D02*
X146280952Y-62861905D01*
X146128571Y-62290476D01*
X145976190Y-62861905D01*
X145785714Y-62061905D01*
X145480952Y-62861905D02*
X145480952Y-62061905D01*
X145290476Y-62061905D01*
X145176190Y-62100000D01*
X145099999Y-62176190D01*
X145061904Y-62252381D01*
X145023809Y-62404762D01*
X145023809Y-62519048D01*
X145061904Y-62671429D01*
X145099999Y-62747619D01*
X145176190Y-62823810D01*
X145290476Y-62861905D01*
X145480952Y-62861905D01*
X144680952Y-62861905D02*
X144680952Y-62061905D01*
X144147619Y-62061905D02*
X143995238Y-62061905D01*
X143919047Y-62100000D01*
X143842857Y-62176190D01*
X143804762Y-62328571D01*
X143804762Y-62595238D01*
X143842857Y-62747619D01*
X143919047Y-62823810D01*
X143995238Y-62861905D01*
X144147619Y-62861905D01*
X144223809Y-62823810D01*
X144300000Y-62747619D01*
X144338095Y-62595238D01*
X144338095Y-62328571D01*
X144300000Y-62176190D01*
X144223809Y-62100000D01*
X144147619Y-62061905D01*
X147309524Y-60323810D02*
X147195238Y-60361905D01*
X147004762Y-60361905D01*
X146928572Y-60323810D01*
X146890476Y-60285714D01*
X146852381Y-60209524D01*
X146852381Y-60133333D01*
X146890476Y-60057143D01*
X146928572Y-60019048D01*
X147004762Y-59980952D01*
X147157143Y-59942857D01*
X147233334Y-59904762D01*
X147271429Y-59866667D01*
X147309524Y-59790476D01*
X147309524Y-59714286D01*
X147271429Y-59638095D01*
X147233334Y-59600000D01*
X147157143Y-59561905D01*
X146966667Y-59561905D01*
X146852381Y-59600000D01*
X146585714Y-59561905D02*
X146395238Y-60361905D01*
X146242857Y-59790476D01*
X146090476Y-60361905D01*
X145900000Y-59561905D01*
X145138095Y-60285714D02*
X145176190Y-60323810D01*
X145290476Y-60361905D01*
X145366666Y-60361905D01*
X145480952Y-60323810D01*
X145557143Y-60247619D01*
X145595238Y-60171429D01*
X145633333Y-60019048D01*
X145633333Y-59904762D01*
X145595238Y-59752381D01*
X145557143Y-59676190D01*
X145480952Y-59600000D01*
X145366666Y-59561905D01*
X145290476Y-59561905D01*
X145176190Y-59600000D01*
X145138095Y-59638095D01*
X144414285Y-60361905D02*
X144795238Y-60361905D01*
X144795238Y-59561905D01*
X144147619Y-60361905D02*
X144147619Y-59561905D01*
X143690476Y-60361905D02*
X144033333Y-59904762D01*
X143690476Y-59561905D02*
X144147619Y-60019048D01*
D11*
X113283333Y-108900000D02*
X113349999Y-108866667D01*
X113449999Y-108866667D01*
X113549999Y-108900000D01*
X113616666Y-108966667D01*
X113649999Y-109033333D01*
X113683333Y-109166667D01*
X113683333Y-109266667D01*
X113649999Y-109400000D01*
X113616666Y-109466667D01*
X113549999Y-109533333D01*
X113449999Y-109566667D01*
X113383333Y-109566667D01*
X113283333Y-109533333D01*
X113249999Y-109500000D01*
X113249999Y-109266667D01*
X113383333Y-109266667D01*
X112949999Y-109566667D02*
X112949999Y-108866667D01*
X112549999Y-109566667D01*
X112549999Y-108866667D01*
X112216666Y-109566667D02*
X112216666Y-108866667D01*
X112050000Y-108866667D01*
X111950000Y-108900000D01*
X111883333Y-108966667D01*
X111850000Y-109033333D01*
X111816666Y-109166667D01*
X111816666Y-109266667D01*
X111850000Y-109400000D01*
X111883333Y-109466667D01*
X111950000Y-109533333D01*
X112050000Y-109566667D01*
X112216666Y-109566667D01*
X112500000Y-112000000D02*
X112500000Y-110000000D01*
X114500000Y-112000000D02*
X114500000Y-110000000D01*
X117500000Y-112000000D02*
X117500000Y-110000000D01*
X119500000Y-110000000D02*
X119500000Y-112000000D01*
X122500000Y-110000000D02*
X122500000Y-112000000D01*
X123500000Y-110000000D02*
X123500000Y-112000000D01*
X126500000Y-110000000D02*
X126500000Y-112000000D01*
X127500000Y-110000000D02*
X127500000Y-112000000D01*
X130500000Y-110000000D02*
X130500000Y-112000000D01*
X111500000Y-110000000D02*
X130500000Y-110000000D01*
X111500000Y-112000000D02*
X111500000Y-110000000D01*
X101150000Y-108716667D02*
X101116667Y-108650001D01*
X101116667Y-108550001D01*
X101150000Y-108450001D01*
X101216667Y-108383334D01*
X101283333Y-108350001D01*
X101416667Y-108316667D01*
X101516667Y-108316667D01*
X101650000Y-108350001D01*
X101716667Y-108383334D01*
X101783333Y-108450001D01*
X101816667Y-108550001D01*
X101816667Y-108616667D01*
X101783333Y-108716667D01*
X101750000Y-108750001D01*
X101516667Y-108750001D01*
X101516667Y-108616667D01*
X101816667Y-109050001D02*
X101116667Y-109050001D01*
X101816667Y-109450001D01*
X101116667Y-109450001D01*
X101816667Y-109783334D02*
X101116667Y-109783334D01*
X101116667Y-109950000D01*
X101150000Y-110050000D01*
X101216667Y-110116667D01*
X101283333Y-110150000D01*
X101416667Y-110183334D01*
X101516667Y-110183334D01*
X101650000Y-110150000D01*
X101716667Y-110116667D01*
X101783333Y-110050000D01*
X101816667Y-109950000D01*
X101816667Y-109783334D01*
X100550000Y-108316667D02*
X100550000Y-108850000D01*
X100816667Y-108583333D02*
X100283333Y-108583333D01*
X100816667Y-109550000D02*
X100816667Y-109150000D01*
X100816667Y-109350000D02*
X100116667Y-109350000D01*
X100216667Y-109283334D01*
X100283333Y-109216667D01*
X100316667Y-109150000D01*
X100183333Y-109816667D02*
X100150000Y-109850001D01*
X100116667Y-109916667D01*
X100116667Y-110083334D01*
X100150000Y-110150001D01*
X100183333Y-110183334D01*
X100250000Y-110216667D01*
X100316667Y-110216667D01*
X100416667Y-110183334D01*
X100816667Y-109783334D01*
X100816667Y-110216667D01*
X99550000Y-108316667D02*
X99550000Y-108850000D01*
X99816667Y-108583333D02*
X99283333Y-108583333D01*
X99816667Y-109550000D02*
X99816667Y-109150000D01*
X99816667Y-109350000D02*
X99116667Y-109350000D01*
X99216667Y-109283334D01*
X99283333Y-109216667D01*
X99316667Y-109150000D01*
X99183333Y-109816667D02*
X99150000Y-109850001D01*
X99116667Y-109916667D01*
X99116667Y-110083334D01*
X99150000Y-110150001D01*
X99183333Y-110183334D01*
X99250000Y-110216667D01*
X99316667Y-110216667D01*
X99416667Y-110183334D01*
X99816667Y-109783334D01*
X99816667Y-110216667D01*
X98150000Y-108716667D02*
X98116667Y-108650001D01*
X98116667Y-108550001D01*
X98150000Y-108450001D01*
X98216667Y-108383334D01*
X98283333Y-108350001D01*
X98416667Y-108316667D01*
X98516667Y-108316667D01*
X98650000Y-108350001D01*
X98716667Y-108383334D01*
X98783333Y-108450001D01*
X98816667Y-108550001D01*
X98816667Y-108616667D01*
X98783333Y-108716667D01*
X98750000Y-108750001D01*
X98516667Y-108750001D01*
X98516667Y-108616667D01*
X98816667Y-109050001D02*
X98116667Y-109050001D01*
X98816667Y-109450001D01*
X98116667Y-109450001D01*
X98816667Y-109783334D02*
X98116667Y-109783334D01*
X98116667Y-109950000D01*
X98150000Y-110050000D01*
X98216667Y-110116667D01*
X98283333Y-110150000D01*
X98416667Y-110183334D01*
X98516667Y-110183334D01*
X98650000Y-110150000D01*
X98716667Y-110116667D01*
X98783333Y-110050000D01*
X98816667Y-109950000D01*
X98816667Y-109783334D01*
X108816667Y-108800001D02*
X108116667Y-108800001D01*
X108116667Y-109066667D01*
X108150000Y-109133334D01*
X108183333Y-109166667D01*
X108250000Y-109200001D01*
X108350000Y-109200001D01*
X108416667Y-109166667D01*
X108450000Y-109133334D01*
X108483333Y-109066667D01*
X108483333Y-108800001D01*
X108450000Y-109500001D02*
X108450000Y-109733334D01*
X108816667Y-109833334D02*
X108816667Y-109500001D01*
X108116667Y-109500001D01*
X108116667Y-109833334D01*
X108816667Y-110533334D02*
X108483333Y-110300000D01*
X108816667Y-110133334D02*
X108116667Y-110133334D01*
X108116667Y-110400000D01*
X108150000Y-110466667D01*
X108183333Y-110500000D01*
X108250000Y-110533334D01*
X108350000Y-110533334D01*
X108416667Y-110500000D01*
X108450000Y-110466667D01*
X108483333Y-110400000D01*
X108483333Y-110133334D01*
X108783333Y-110800000D02*
X108816667Y-110900000D01*
X108816667Y-111066667D01*
X108783333Y-111133334D01*
X108750000Y-111166667D01*
X108683333Y-111200000D01*
X108616667Y-111200000D01*
X108550000Y-111166667D01*
X108516667Y-111133334D01*
X108483333Y-111066667D01*
X108450000Y-110933334D01*
X108416667Y-110866667D01*
X108383333Y-110833334D01*
X108316667Y-110800000D01*
X108250000Y-110800000D01*
X108183333Y-110833334D01*
X108150000Y-110866667D01*
X108116667Y-110933334D01*
X108116667Y-111100000D01*
X108150000Y-111200000D01*
X108116667Y-111400001D02*
X108116667Y-111800001D01*
X108816667Y-111600001D02*
X108116667Y-111600001D01*
X107996000Y-108633334D02*
X107996000Y-111866667D01*
X105783333Y-107716666D02*
X105816667Y-107816666D01*
X105816667Y-107983333D01*
X105783333Y-108050000D01*
X105750000Y-108083333D01*
X105683333Y-108116666D01*
X105616667Y-108116666D01*
X105550000Y-108083333D01*
X105516667Y-108050000D01*
X105483333Y-107983333D01*
X105450000Y-107850000D01*
X105416667Y-107783333D01*
X105383333Y-107750000D01*
X105316667Y-107716666D01*
X105250000Y-107716666D01*
X105183333Y-107750000D01*
X105150000Y-107783333D01*
X105116667Y-107850000D01*
X105116667Y-108016666D01*
X105150000Y-108116666D01*
X105783333Y-108383333D02*
X105816667Y-108483333D01*
X105816667Y-108650000D01*
X105783333Y-108716667D01*
X105750000Y-108750000D01*
X105683333Y-108783333D01*
X105616667Y-108783333D01*
X105550000Y-108750000D01*
X105516667Y-108716667D01*
X105483333Y-108650000D01*
X105450000Y-108516667D01*
X105416667Y-108450000D01*
X105383333Y-108416667D01*
X105316667Y-108383333D01*
X105250000Y-108383333D01*
X105183333Y-108416667D01*
X105150000Y-108450000D01*
X105116667Y-108516667D01*
X105116667Y-108683333D01*
X105150000Y-108783333D01*
X104996000Y-107583333D02*
X104996000Y-108916667D01*
X104816667Y-107150001D02*
X104116667Y-107150001D01*
X104616667Y-107383334D01*
X104116667Y-107616667D01*
X104816667Y-107616667D01*
X104816667Y-107950001D02*
X104116667Y-107950001D01*
X104783333Y-108250000D02*
X104816667Y-108350000D01*
X104816667Y-108516667D01*
X104783333Y-108583334D01*
X104750000Y-108616667D01*
X104683333Y-108650000D01*
X104616667Y-108650000D01*
X104550000Y-108616667D01*
X104516667Y-108583334D01*
X104483333Y-108516667D01*
X104450000Y-108383334D01*
X104416667Y-108316667D01*
X104383333Y-108283334D01*
X104316667Y-108250000D01*
X104250000Y-108250000D01*
X104183333Y-108283334D01*
X104150000Y-108316667D01*
X104116667Y-108383334D01*
X104116667Y-108550000D01*
X104150000Y-108650000D01*
X104116667Y-109083334D02*
X104116667Y-109216667D01*
X104150000Y-109283334D01*
X104216667Y-109350001D01*
X104350000Y-109383334D01*
X104583333Y-109383334D01*
X104716667Y-109350001D01*
X104783333Y-109283334D01*
X104816667Y-109216667D01*
X104816667Y-109083334D01*
X104783333Y-109016667D01*
X104716667Y-108950001D01*
X104583333Y-108916667D01*
X104350000Y-108916667D01*
X104216667Y-108950001D01*
X104150000Y-109016667D01*
X104116667Y-109083334D01*
X103816667Y-107150001D02*
X103116667Y-107150001D01*
X103616667Y-107383334D01*
X103116667Y-107616667D01*
X103816667Y-107616667D01*
X103116667Y-108083334D02*
X103116667Y-108216667D01*
X103150000Y-108283334D01*
X103216667Y-108350001D01*
X103350000Y-108383334D01*
X103583333Y-108383334D01*
X103716667Y-108350001D01*
X103783333Y-108283334D01*
X103816667Y-108216667D01*
X103816667Y-108083334D01*
X103783333Y-108016667D01*
X103716667Y-107950001D01*
X103583333Y-107916667D01*
X103350000Y-107916667D01*
X103216667Y-107950001D01*
X103150000Y-108016667D01*
X103116667Y-108083334D01*
X103783333Y-108650000D02*
X103816667Y-108750000D01*
X103816667Y-108916667D01*
X103783333Y-108983334D01*
X103750000Y-109016667D01*
X103683333Y-109050000D01*
X103616667Y-109050000D01*
X103550000Y-109016667D01*
X103516667Y-108983334D01*
X103483333Y-108916667D01*
X103450000Y-108783334D01*
X103416667Y-108716667D01*
X103383333Y-108683334D01*
X103316667Y-108650000D01*
X103250000Y-108650000D01*
X103183333Y-108683334D01*
X103150000Y-108716667D01*
X103116667Y-108783334D01*
X103116667Y-108950000D01*
X103150000Y-109050000D01*
X103816667Y-109350001D02*
X103116667Y-109350001D01*
X102783333Y-107350000D02*
X102816667Y-107450000D01*
X102816667Y-107616667D01*
X102783333Y-107683334D01*
X102750000Y-107716667D01*
X102683333Y-107750000D01*
X102616667Y-107750000D01*
X102550000Y-107716667D01*
X102516667Y-107683334D01*
X102483333Y-107616667D01*
X102450000Y-107483334D01*
X102416667Y-107416667D01*
X102383333Y-107383334D01*
X102316667Y-107350000D01*
X102250000Y-107350000D01*
X102183333Y-107383334D01*
X102150000Y-107416667D01*
X102116667Y-107483334D01*
X102116667Y-107650000D01*
X102150000Y-107750000D01*
X102750000Y-108450001D02*
X102783333Y-108416667D01*
X102816667Y-108316667D01*
X102816667Y-108250001D01*
X102783333Y-108150001D01*
X102716667Y-108083334D01*
X102650000Y-108050001D01*
X102516667Y-108016667D01*
X102416667Y-108016667D01*
X102283333Y-108050001D01*
X102216667Y-108083334D01*
X102150000Y-108150001D01*
X102116667Y-108250001D01*
X102116667Y-108316667D01*
X102150000Y-108416667D01*
X102183333Y-108450001D01*
X102816667Y-108750001D02*
X102116667Y-108750001D01*
X102816667Y-109150001D02*
X102416667Y-108850001D01*
X102116667Y-109150001D02*
X102516667Y-108750001D01*
D13*
X153535714Y-23082143D02*
X152392857Y-23082143D01*
X151464285Y-22796429D02*
X151607143Y-22725000D01*
X151678571Y-22653571D01*
X151750000Y-22510714D01*
X151750000Y-22439286D01*
X151678571Y-22296429D01*
X151607143Y-22225000D01*
X151464285Y-22153571D01*
X151178571Y-22153571D01*
X151035714Y-22225000D01*
X150964285Y-22296429D01*
X150892857Y-22439286D01*
X150892857Y-22510714D01*
X150964285Y-22653571D01*
X151035714Y-22725000D01*
X151178571Y-22796429D01*
X151464285Y-22796429D01*
X151607143Y-22867857D01*
X151678571Y-22939286D01*
X151750000Y-23082143D01*
X151750000Y-23367857D01*
X151678571Y-23510714D01*
X151607143Y-23582143D01*
X151464285Y-23653571D01*
X151178571Y-23653571D01*
X151035714Y-23582143D01*
X150964285Y-23510714D01*
X150892857Y-23367857D01*
X150892857Y-23082143D01*
X150964285Y-22939286D01*
X151035714Y-22867857D01*
X151178571Y-22796429D01*
X153392857Y-24575000D02*
X153535714Y-24503571D01*
X153750000Y-24503571D01*
X153964285Y-24575000D01*
X154107143Y-24717857D01*
X154178571Y-24860714D01*
X154250000Y-25146429D01*
X154250000Y-25360714D01*
X154178571Y-25646429D01*
X154107143Y-25789286D01*
X153964285Y-25932143D01*
X153750000Y-26003571D01*
X153607143Y-26003571D01*
X153392857Y-25932143D01*
X153321428Y-25860714D01*
X153321428Y-25360714D01*
X153607143Y-25360714D01*
X152678571Y-26003571D02*
X152678571Y-24503571D01*
X151821428Y-26003571D01*
X151821428Y-24503571D01*
X151107142Y-26003571D02*
X151107142Y-24503571D01*
X150749999Y-24503571D01*
X150535714Y-24575000D01*
X150392856Y-24717857D01*
X150321428Y-24860714D01*
X150249999Y-25146429D01*
X150249999Y-25360714D01*
X150321428Y-25646429D01*
X150392856Y-25789286D01*
X150535714Y-25932143D01*
X150749999Y-26003571D01*
X151107142Y-26003571D01*
X153392857Y-26925000D02*
X153535714Y-26853571D01*
X153750000Y-26853571D01*
X153964285Y-26925000D01*
X154107143Y-27067857D01*
X154178571Y-27210714D01*
X154250000Y-27496429D01*
X154250000Y-27710714D01*
X154178571Y-27996429D01*
X154107143Y-28139286D01*
X153964285Y-28282143D01*
X153750000Y-28353571D01*
X153607143Y-28353571D01*
X153392857Y-28282143D01*
X153321428Y-28210714D01*
X153321428Y-27710714D01*
X153607143Y-27710714D01*
X152678571Y-28353571D02*
X152678571Y-26853571D01*
X151821428Y-28353571D01*
X151821428Y-26853571D01*
X151107142Y-28353571D02*
X151107142Y-26853571D01*
X150749999Y-26853571D01*
X150535714Y-26925000D01*
X150392856Y-27067857D01*
X150321428Y-27210714D01*
X150249999Y-27496429D01*
X150249999Y-27710714D01*
X150321428Y-27996429D01*
X150392856Y-28139286D01*
X150535714Y-28282143D01*
X150749999Y-28353571D01*
X151107142Y-28353571D01*
X153535714Y-30132143D02*
X152392857Y-30132143D01*
X152964286Y-30703571D02*
X152964286Y-29560714D01*
X151464285Y-29846429D02*
X151607143Y-29775000D01*
X151678571Y-29703571D01*
X151750000Y-29560714D01*
X151750000Y-29489286D01*
X151678571Y-29346429D01*
X151607143Y-29275000D01*
X151464285Y-29203571D01*
X151178571Y-29203571D01*
X151035714Y-29275000D01*
X150964285Y-29346429D01*
X150892857Y-29489286D01*
X150892857Y-29560714D01*
X150964285Y-29703571D01*
X151035714Y-29775000D01*
X151178571Y-29846429D01*
X151464285Y-29846429D01*
X151607143Y-29917857D01*
X151678571Y-29989286D01*
X151750000Y-30132143D01*
X151750000Y-30417857D01*
X151678571Y-30560714D01*
X151607143Y-30632143D01*
X151464285Y-30703571D01*
X151178571Y-30703571D01*
X151035714Y-30632143D01*
X150964285Y-30560714D01*
X150892857Y-30417857D01*
X150892857Y-30132143D01*
X150964285Y-29989286D01*
X151035714Y-29917857D01*
X151178571Y-29846429D01*
D12*
X160500000Y-75659950D02*
X147000000Y-75659950D01*
X160500000Y-92659950D02*
X160500000Y-75659950D01*
X160000000Y-92659950D02*
X160500000Y-92659950D01*
X147000000Y-75659950D02*
X147000000Y-76159950D01*
X147000000Y-92659950D02*
X160000000Y-92659950D01*
X147000000Y-92159950D02*
X147000000Y-92659950D01*
X147000000Y-76159950D02*
X147000000Y-92159950D01*
X155130952Y-91612331D02*
X155464286Y-91136140D01*
X155702381Y-91612331D02*
X155702381Y-90612331D01*
X155321428Y-90612331D01*
X155226190Y-90659950D01*
X155178571Y-90707569D01*
X155130952Y-90802807D01*
X155130952Y-90945664D01*
X155178571Y-91040902D01*
X155226190Y-91088521D01*
X155321428Y-91136140D01*
X155702381Y-91136140D01*
X154702381Y-91088521D02*
X154369047Y-91088521D01*
X154226190Y-91612331D02*
X154702381Y-91612331D01*
X154702381Y-90612331D01*
X154226190Y-90612331D01*
X153940476Y-90612331D02*
X153607143Y-91612331D01*
X153273809Y-90612331D01*
X152226190Y-91326617D02*
X151749999Y-91326617D01*
X152321428Y-91612331D02*
X151988095Y-90612331D01*
X151654761Y-91612331D01*
X159630953Y-88612331D02*
X159440476Y-88612331D01*
X159345238Y-88659950D01*
X159250000Y-88755188D01*
X159202381Y-88945664D01*
X159202381Y-89278998D01*
X159250000Y-89469474D01*
X159345238Y-89564712D01*
X159440476Y-89612331D01*
X159630953Y-89612331D01*
X159726191Y-89564712D01*
X159821429Y-89469474D01*
X159869048Y-89278998D01*
X159869048Y-88945664D01*
X159821429Y-88755188D01*
X159726191Y-88659950D01*
X159630953Y-88612331D01*
X158821429Y-89564712D02*
X158678572Y-89612331D01*
X158440476Y-89612331D01*
X158345238Y-89564712D01*
X158297619Y-89517093D01*
X158250000Y-89421855D01*
X158250000Y-89326617D01*
X158297619Y-89231379D01*
X158345238Y-89183760D01*
X158440476Y-89136140D01*
X158630953Y-89088521D01*
X158726191Y-89040902D01*
X158773810Y-88993283D01*
X158821429Y-88898045D01*
X158821429Y-88802807D01*
X158773810Y-88707569D01*
X158726191Y-88659950D01*
X158630953Y-88612331D01*
X158392857Y-88612331D01*
X158250000Y-88659950D01*
X157821429Y-89231379D02*
X157059524Y-89231379D01*
X156059524Y-89612331D02*
X156630953Y-89612331D01*
X156345239Y-89612331D02*
X156345239Y-88612331D01*
X156440477Y-88755188D01*
X156535715Y-88850426D01*
X156630953Y-88898045D01*
X154535714Y-89088521D02*
X154869048Y-89088521D01*
X154869048Y-89612331D02*
X154869048Y-88612331D01*
X154392857Y-88612331D01*
X153440476Y-89612331D02*
X153773810Y-89136140D01*
X154011905Y-89612331D02*
X154011905Y-88612331D01*
X153630952Y-88612331D01*
X153535714Y-88659950D01*
X153488095Y-88707569D01*
X153440476Y-88802807D01*
X153440476Y-88945664D01*
X153488095Y-89040902D01*
X153535714Y-89088521D01*
X153630952Y-89136140D01*
X154011905Y-89136140D01*
X152821429Y-88612331D02*
X152630952Y-88612331D01*
X152535714Y-88659950D01*
X152440476Y-88755188D01*
X152392857Y-88945664D01*
X152392857Y-89278998D01*
X152440476Y-89469474D01*
X152535714Y-89564712D01*
X152630952Y-89612331D01*
X152821429Y-89612331D01*
X152916667Y-89564712D01*
X153011905Y-89469474D01*
X153059524Y-89278998D01*
X153059524Y-88945664D01*
X153011905Y-88755188D01*
X152916667Y-88659950D01*
X152821429Y-88612331D01*
X151964286Y-89612331D02*
X151964286Y-88612331D01*
X151392857Y-89612331D01*
X151392857Y-88612331D01*
X151059524Y-88612331D02*
X150488095Y-88612331D01*
X150773810Y-89612331D02*
X150773810Y-88612331D01*
X150154762Y-89088521D02*
X149821428Y-89088521D01*
X149678571Y-89612331D02*
X150154762Y-89612331D01*
X150154762Y-88612331D01*
X149678571Y-88612331D01*
X149250000Y-89612331D02*
X149250000Y-88612331D01*
X148678571Y-89612331D01*
X148678571Y-88612331D01*
X148202381Y-89612331D02*
X148202381Y-88612331D01*
X147964286Y-88612331D01*
X147821428Y-88659950D01*
X147726190Y-88755188D01*
X147678571Y-88850426D01*
X147630952Y-89040902D01*
X147630952Y-89183760D01*
X147678571Y-89374236D01*
X147726190Y-89469474D01*
X147821428Y-89564712D01*
X147964286Y-89612331D01*
X148202381Y-89612331D01*
D14*
X132650000Y-24250000D02*
X132650000Y-17800000D01*
X115750000Y-24250000D02*
X132650000Y-24250000D01*
X115750000Y-17800000D02*
X115750000Y-24250000D01*
X132650000Y-17800000D02*
X115750000Y-17800000D01*
D15*
G36*
X149174000Y-78576010D02*
X149224800Y-78738570D01*
X149341640Y-78784290D01*
X149468640Y-78718250D01*
X149557540Y-78545530D01*
X149560080Y-78540450D01*
X149654060Y-78184850D01*
X149775980Y-77857190D01*
X149905520Y-77603190D01*
X149991880Y-77491430D01*
X150101100Y-77435550D01*
X150210320Y-77491430D01*
X150317000Y-77605730D01*
X150464320Y-77824170D01*
X150606560Y-78111190D01*
X150654820Y-78238190D01*
X150766580Y-78522670D01*
X150921520Y-78883350D01*
X151084080Y-79241490D01*
X151089160Y-79251650D01*
X151330460Y-79668210D01*
X151574300Y-79919670D01*
X151828300Y-80000950D01*
X152097540Y-79917130D01*
X152379480Y-79668210D01*
X152415040Y-79625030D01*
X152638560Y-79363410D01*
X152663960Y-79889190D01*
X152686820Y-80414970D01*
X153217680Y-80582610D01*
X153746000Y-80752790D01*
X153746000Y-82081210D01*
X153746000Y-83412170D01*
X153512320Y-83468050D01*
X153265940Y-83529010D01*
X152986540Y-83600130D01*
X152973840Y-83602670D01*
X152669040Y-83683950D01*
X152625860Y-84659310D01*
X152605540Y-85050470D01*
X152582680Y-85373050D01*
X152559820Y-85594030D01*
X152542040Y-85677850D01*
X152442980Y-85690550D01*
X152219460Y-85682930D01*
X151907040Y-85660070D01*
X151747020Y-85647370D01*
X151325380Y-85609270D01*
X151043440Y-85601650D01*
X150878340Y-85627050D01*
X150799600Y-85685470D01*
X150781820Y-85764210D01*
X150847860Y-85860730D01*
X151018040Y-86033450D01*
X151266960Y-86254430D01*
X151564140Y-86505890D01*
X151881640Y-86757350D01*
X152186440Y-86991030D01*
X152448060Y-87176450D01*
X152641100Y-87295830D01*
X152719840Y-87323770D01*
X152841760Y-87275510D01*
X153062740Y-87140890D01*
X153349760Y-86947850D01*
X153601220Y-86762430D01*
X153918720Y-86505890D01*
X154162560Y-86284910D01*
X154309880Y-86119810D01*
X154337820Y-86053770D01*
X154256540Y-85936930D01*
X154020320Y-85853110D01*
X153634240Y-85809930D01*
X153344680Y-85802310D01*
X152984000Y-85799770D01*
X152984000Y-84915850D01*
X152989080Y-84547550D01*
X153004320Y-84247830D01*
X153027180Y-84052250D01*
X153047500Y-83996370D01*
X153166880Y-83958270D01*
X153377700Y-83912550D01*
X153428500Y-83902390D01*
X153634240Y-83874450D01*
X153725680Y-83910010D01*
X153746000Y-84039550D01*
X153746000Y-84105590D01*
X153789180Y-84298630D01*
X153890780Y-84428170D01*
X154010160Y-84451030D01*
X154050800Y-84423090D01*
X154073660Y-84326570D01*
X154104140Y-84097970D01*
X154134620Y-83777930D01*
X154152400Y-83546790D01*
X154210820Y-82711130D01*
X154492760Y-83196270D01*
X154701040Y-83511230D01*
X154871220Y-83666170D01*
X154937260Y-83683950D01*
X155071880Y-83625530D01*
X155087120Y-83465510D01*
X154988060Y-83224210D01*
X154932180Y-83132770D01*
X154802640Y-82921950D01*
X154789940Y-82820350D01*
X154909320Y-82812730D01*
X155115060Y-82858450D01*
X155539240Y-82899090D01*
X155998980Y-82797490D01*
X156512060Y-82556190D01*
X156636520Y-82482530D01*
X157175000Y-82241230D01*
X157731260Y-82165030D01*
X158310380Y-82259010D01*
X158488180Y-82319970D01*
X158815840Y-82439350D01*
X159019040Y-82485070D01*
X159125720Y-82464750D01*
X159163820Y-82370770D01*
X159163820Y-82325050D01*
X159082540Y-82162490D01*
X158833620Y-82015170D01*
X158429760Y-81880550D01*
X158041140Y-81796730D01*
X157522980Y-81756090D01*
X157027680Y-81844990D01*
X156512060Y-82071050D01*
X156331720Y-82175190D01*
X156039620Y-82330130D01*
X155747520Y-82441890D01*
X155600200Y-82477450D01*
X155363980Y-82479990D01*
X155109980Y-82444430D01*
X154889000Y-82380930D01*
X154746760Y-82304730D01*
X154726440Y-82236150D01*
X154820420Y-82159950D01*
X155026160Y-82038030D01*
X155303020Y-81888170D01*
X155361440Y-81860230D01*
X155689100Y-81682430D01*
X155877060Y-81540190D01*
X155945640Y-81418270D01*
X155948180Y-81395410D01*
X155920240Y-81278570D01*
X155821180Y-81240470D01*
X155635760Y-81281110D01*
X155346200Y-81408110D01*
X154960120Y-81608770D01*
X154652780Y-81773870D01*
X154403860Y-81903410D01*
X154248920Y-81977070D01*
X154215900Y-81989770D01*
X154198120Y-81911030D01*
X154182880Y-81690050D01*
X154167640Y-81359850D01*
X154154940Y-80950910D01*
X154149860Y-80742630D01*
X154139700Y-80257490D01*
X154127000Y-79917130D01*
X154109220Y-79696150D01*
X154081280Y-79569150D01*
X154040640Y-79510730D01*
X153979680Y-79492950D01*
X153956820Y-79492950D01*
X153852680Y-79520890D01*
X153794260Y-79627570D01*
X153766320Y-79861250D01*
X153763780Y-79894270D01*
X153738380Y-80127950D01*
X153705360Y-80275270D01*
X153687580Y-80295590D01*
X153583440Y-80275270D01*
X153380240Y-80219390D01*
X153311660Y-80199070D01*
X152984000Y-80100010D01*
X152984000Y-78504890D01*
X152984000Y-77948630D01*
X152978920Y-77539690D01*
X152971300Y-77255210D01*
X152953520Y-77072330D01*
X152925580Y-76968190D01*
X152887480Y-76922470D01*
X152831600Y-76909770D01*
X152813820Y-76909770D01*
X152732540Y-76925010D01*
X152681740Y-76988510D01*
X152656340Y-77135830D01*
X152646180Y-77399990D01*
X152646180Y-77608270D01*
X152636020Y-78001970D01*
X152597920Y-78296610D01*
X152514100Y-78563310D01*
X152404880Y-78814770D01*
X152249940Y-79104330D01*
X152095000Y-79348170D01*
X151988320Y-79477710D01*
X151858780Y-79576770D01*
X151762260Y-79561530D01*
X151645420Y-79447230D01*
X151543820Y-79292290D01*
X151409200Y-79020510D01*
X151259340Y-78677610D01*
X151165360Y-78438850D01*
X150903740Y-77821630D01*
X150647200Y-77377130D01*
X150390660Y-77097730D01*
X150136660Y-76988510D01*
X149882660Y-77049470D01*
X149648980Y-77252670D01*
X149481340Y-77524450D01*
X149326400Y-77887670D01*
X149214640Y-78266130D01*
X149174000Y-78576010D01*
X149174000Y-78576010D01*
X149174000Y-78576010D01*
G37*
X149174000Y-78576010D02*
X149224800Y-78738570D01*
X149341640Y-78784290D01*
X149468640Y-78718250D01*
X149557540Y-78545530D01*
X149560080Y-78540450D01*
X149654060Y-78184850D01*
X149775980Y-77857190D01*
X149905520Y-77603190D01*
X149991880Y-77491430D01*
X150101100Y-77435550D01*
X150210320Y-77491430D01*
X150317000Y-77605730D01*
X150464320Y-77824170D01*
X150606560Y-78111190D01*
X150654820Y-78238190D01*
X150766580Y-78522670D01*
X150921520Y-78883350D01*
X151084080Y-79241490D01*
X151089160Y-79251650D01*
X151330460Y-79668210D01*
X151574300Y-79919670D01*
X151828300Y-80000950D01*
X152097540Y-79917130D01*
X152379480Y-79668210D01*
X152415040Y-79625030D01*
X152638560Y-79363410D01*
X152663960Y-79889190D01*
X152686820Y-80414970D01*
X153217680Y-80582610D01*
X153746000Y-80752790D01*
X153746000Y-82081210D01*
X153746000Y-83412170D01*
X153512320Y-83468050D01*
X153265940Y-83529010D01*
X152986540Y-83600130D01*
X152973840Y-83602670D01*
X152669040Y-83683950D01*
X152625860Y-84659310D01*
X152605540Y-85050470D01*
X152582680Y-85373050D01*
X152559820Y-85594030D01*
X152542040Y-85677850D01*
X152442980Y-85690550D01*
X152219460Y-85682930D01*
X151907040Y-85660070D01*
X151747020Y-85647370D01*
X151325380Y-85609270D01*
X151043440Y-85601650D01*
X150878340Y-85627050D01*
X150799600Y-85685470D01*
X150781820Y-85764210D01*
X150847860Y-85860730D01*
X151018040Y-86033450D01*
X151266960Y-86254430D01*
X151564140Y-86505890D01*
X151881640Y-86757350D01*
X152186440Y-86991030D01*
X152448060Y-87176450D01*
X152641100Y-87295830D01*
X152719840Y-87323770D01*
X152841760Y-87275510D01*
X153062740Y-87140890D01*
X153349760Y-86947850D01*
X153601220Y-86762430D01*
X153918720Y-86505890D01*
X154162560Y-86284910D01*
X154309880Y-86119810D01*
X154337820Y-86053770D01*
X154256540Y-85936930D01*
X154020320Y-85853110D01*
X153634240Y-85809930D01*
X153344680Y-85802310D01*
X152984000Y-85799770D01*
X152984000Y-84915850D01*
X152989080Y-84547550D01*
X153004320Y-84247830D01*
X153027180Y-84052250D01*
X153047500Y-83996370D01*
X153166880Y-83958270D01*
X153377700Y-83912550D01*
X153428500Y-83902390D01*
X153634240Y-83874450D01*
X153725680Y-83910010D01*
X153746000Y-84039550D01*
X153746000Y-84105590D01*
X153789180Y-84298630D01*
X153890780Y-84428170D01*
X154010160Y-84451030D01*
X154050800Y-84423090D01*
X154073660Y-84326570D01*
X154104140Y-84097970D01*
X154134620Y-83777930D01*
X154152400Y-83546790D01*
X154210820Y-82711130D01*
X154492760Y-83196270D01*
X154701040Y-83511230D01*
X154871220Y-83666170D01*
X154937260Y-83683950D01*
X155071880Y-83625530D01*
X155087120Y-83465510D01*
X154988060Y-83224210D01*
X154932180Y-83132770D01*
X154802640Y-82921950D01*
X154789940Y-82820350D01*
X154909320Y-82812730D01*
X155115060Y-82858450D01*
X155539240Y-82899090D01*
X155998980Y-82797490D01*
X156512060Y-82556190D01*
X156636520Y-82482530D01*
X157175000Y-82241230D01*
X157731260Y-82165030D01*
X158310380Y-82259010D01*
X158488180Y-82319970D01*
X158815840Y-82439350D01*
X159019040Y-82485070D01*
X159125720Y-82464750D01*
X159163820Y-82370770D01*
X159163820Y-82325050D01*
X159082540Y-82162490D01*
X158833620Y-82015170D01*
X158429760Y-81880550D01*
X158041140Y-81796730D01*
X157522980Y-81756090D01*
X157027680Y-81844990D01*
X156512060Y-82071050D01*
X156331720Y-82175190D01*
X156039620Y-82330130D01*
X155747520Y-82441890D01*
X155600200Y-82477450D01*
X155363980Y-82479990D01*
X155109980Y-82444430D01*
X154889000Y-82380930D01*
X154746760Y-82304730D01*
X154726440Y-82236150D01*
X154820420Y-82159950D01*
X155026160Y-82038030D01*
X155303020Y-81888170D01*
X155361440Y-81860230D01*
X155689100Y-81682430D01*
X155877060Y-81540190D01*
X155945640Y-81418270D01*
X155948180Y-81395410D01*
X155920240Y-81278570D01*
X155821180Y-81240470D01*
X155635760Y-81281110D01*
X155346200Y-81408110D01*
X154960120Y-81608770D01*
X154652780Y-81773870D01*
X154403860Y-81903410D01*
X154248920Y-81977070D01*
X154215900Y-81989770D01*
X154198120Y-81911030D01*
X154182880Y-81690050D01*
X154167640Y-81359850D01*
X154154940Y-80950910D01*
X154149860Y-80742630D01*
X154139700Y-80257490D01*
X154127000Y-79917130D01*
X154109220Y-79696150D01*
X154081280Y-79569150D01*
X154040640Y-79510730D01*
X153979680Y-79492950D01*
X153956820Y-79492950D01*
X153852680Y-79520890D01*
X153794260Y-79627570D01*
X153766320Y-79861250D01*
X153763780Y-79894270D01*
X153738380Y-80127950D01*
X153705360Y-80275270D01*
X153687580Y-80295590D01*
X153583440Y-80275270D01*
X153380240Y-80219390D01*
X153311660Y-80199070D01*
X152984000Y-80100010D01*
X152984000Y-78504890D01*
X152984000Y-77948630D01*
X152978920Y-77539690D01*
X152971300Y-77255210D01*
X152953520Y-77072330D01*
X152925580Y-76968190D01*
X152887480Y-76922470D01*
X152831600Y-76909770D01*
X152813820Y-76909770D01*
X152732540Y-76925010D01*
X152681740Y-76988510D01*
X152656340Y-77135830D01*
X152646180Y-77399990D01*
X152646180Y-77608270D01*
X152636020Y-78001970D01*
X152597920Y-78296610D01*
X152514100Y-78563310D01*
X152404880Y-78814770D01*
X152249940Y-79104330D01*
X152095000Y-79348170D01*
X151988320Y-79477710D01*
X151858780Y-79576770D01*
X151762260Y-79561530D01*
X151645420Y-79447230D01*
X151543820Y-79292290D01*
X151409200Y-79020510D01*
X151259340Y-78677610D01*
X151165360Y-78438850D01*
X150903740Y-77821630D01*
X150647200Y-77377130D01*
X150390660Y-77097730D01*
X150136660Y-76988510D01*
X149882660Y-77049470D01*
X149648980Y-77252670D01*
X149481340Y-77524450D01*
X149326400Y-77887670D01*
X149214640Y-78266130D01*
X149174000Y-78576010D01*
X149174000Y-78576010D01*
D14*
X94279000Y-40771000D02*
X94279000Y-40229000D01*
X94279000Y-40229000D02*
X94279000Y-40771000D01*
X95221000Y-40771000D02*
X95221000Y-40229000D01*
X95221000Y-40229000D02*
X95221000Y-40771000D01*
X83571000Y-72471000D02*
X83429000Y-72471000D01*
X83429000Y-72471000D02*
X83571000Y-72471000D01*
X83571000Y-71529000D02*
X83429000Y-71529000D01*
X83429000Y-71529000D02*
X83571000Y-71529000D01*
X135529000Y-62571000D02*
X135529000Y-62429000D01*
X135529000Y-62429000D02*
X135529000Y-62571000D01*
X136471000Y-62571000D02*
X136471000Y-62429000D01*
X136471000Y-62429000D02*
X136471000Y-62571000D01*
X83571000Y-26471000D02*
X83429000Y-26471000D01*
X83429000Y-26471000D02*
X83571000Y-26471000D01*
X83571000Y-25529000D02*
X83429000Y-25529000D01*
X83429000Y-25529000D02*
X83571000Y-25529000D01*
X161310000Y-33485000D02*
X161310000Y-19515000D01*
X161310000Y-19515000D02*
X155595000Y-19515000D01*
X155595000Y-19515000D02*
X155595000Y-33485000D01*
X155595000Y-33485000D02*
X161310000Y-33485000D01*
X161310000Y-29040000D02*
X155595000Y-29040000D01*
D11*
X154960000Y-33485000D02*
X154960000Y-29040000D01*
D14*
X88229000Y-85029000D02*
X88771000Y-85029000D01*
X88771000Y-85029000D02*
X88229000Y-85029000D01*
X88229000Y-85971000D02*
X88771000Y-85971000D01*
X88771000Y-85971000D02*
X88229000Y-85971000D01*
X87971000Y-81729000D02*
X87971000Y-82271000D01*
X87971000Y-82271000D02*
X87971000Y-81729000D01*
X87029000Y-81729000D02*
X87029000Y-82271000D01*
X87029000Y-82271000D02*
X87029000Y-81729000D01*
X88771000Y-78971000D02*
X88229000Y-78971000D01*
X88229000Y-78971000D02*
X88771000Y-78971000D01*
X88771000Y-78029000D02*
X88229000Y-78029000D01*
X88229000Y-78029000D02*
X88771000Y-78029000D01*
X91971000Y-86229000D02*
X91971000Y-86771000D01*
X91971000Y-86771000D02*
X91971000Y-86229000D01*
X91029000Y-86229000D02*
X91029000Y-86771000D01*
X91029000Y-86771000D02*
X91029000Y-86229000D01*
X93729000Y-80029000D02*
X94271000Y-80029000D01*
X94271000Y-80029000D02*
X93729000Y-80029000D01*
X93729000Y-80971000D02*
X94271000Y-80971000D01*
X94271000Y-80971000D02*
X93729000Y-80971000D01*
X79571000Y-79246000D02*
X79429000Y-79246000D01*
X79429000Y-79246000D02*
X79571000Y-79246000D01*
X79571000Y-78754000D02*
X79429000Y-78754000D01*
X79429000Y-78754000D02*
X79571000Y-78754000D01*
X92729000Y-89029000D02*
X93271000Y-89029000D01*
X93271000Y-89029000D02*
X92729000Y-89029000D01*
X92729000Y-89971000D02*
X93271000Y-89971000D01*
X93271000Y-89971000D02*
X92729000Y-89971000D01*
X97471000Y-80979000D02*
X97471000Y-81521000D01*
X97471000Y-81521000D02*
X97471000Y-80979000D01*
X96529000Y-80979000D02*
X96529000Y-81521000D01*
X96529000Y-81521000D02*
X96529000Y-80979000D01*
X94279000Y-86771000D02*
X94279000Y-86229000D01*
X94279000Y-86229000D02*
X94279000Y-86771000D01*
X95221000Y-86771000D02*
X95221000Y-86229000D01*
X95221000Y-86229000D02*
X95221000Y-86771000D01*
X79571000Y-87246000D02*
X79429000Y-87246000D01*
X79429000Y-87246000D02*
X79571000Y-87246000D01*
X79571000Y-86754000D02*
X79429000Y-86754000D01*
X79429000Y-86754000D02*
X79571000Y-86754000D01*
X97471000Y-84479000D02*
X97471000Y-85021000D01*
X97471000Y-85021000D02*
X97471000Y-84479000D01*
X96529000Y-84479000D02*
X96529000Y-85021000D01*
X96529000Y-85021000D02*
X96529000Y-84479000D01*
X88229000Y-39029000D02*
X88771000Y-39029000D01*
X88771000Y-39029000D02*
X88229000Y-39029000D01*
X88229000Y-39971000D02*
X88771000Y-39971000D01*
X88771000Y-39971000D02*
X88229000Y-39971000D01*
X87971000Y-35729000D02*
X87971000Y-36271000D01*
X87971000Y-36271000D02*
X87971000Y-35729000D01*
X87029000Y-35729000D02*
X87029000Y-36271000D01*
X87029000Y-36271000D02*
X87029000Y-35729000D01*
X88771000Y-32971000D02*
X88229000Y-32971000D01*
X88229000Y-32971000D02*
X88771000Y-32971000D01*
X88771000Y-32029000D02*
X88229000Y-32029000D01*
X88229000Y-32029000D02*
X88771000Y-32029000D01*
X91971000Y-40229000D02*
X91971000Y-40771000D01*
X91971000Y-40771000D02*
X91971000Y-40229000D01*
X91029000Y-40229000D02*
X91029000Y-40771000D01*
X91029000Y-40771000D02*
X91029000Y-40229000D01*
X93729000Y-34029000D02*
X94271000Y-34029000D01*
X94271000Y-34029000D02*
X93729000Y-34029000D01*
X93729000Y-34971000D02*
X94271000Y-34971000D01*
X94271000Y-34971000D02*
X93729000Y-34971000D01*
X79571000Y-33246000D02*
X79429000Y-33246000D01*
X79429000Y-33246000D02*
X79571000Y-33246000D01*
X79571000Y-32754000D02*
X79429000Y-32754000D01*
X79429000Y-32754000D02*
X79571000Y-32754000D01*
X92729000Y-43029000D02*
X93271000Y-43029000D01*
X93271000Y-43029000D02*
X92729000Y-43029000D01*
X92729000Y-43971000D02*
X93271000Y-43971000D01*
X93271000Y-43971000D02*
X92729000Y-43971000D01*
X97471000Y-34979000D02*
X97471000Y-35521000D01*
X97471000Y-35521000D02*
X97471000Y-34979000D01*
X96529000Y-34979000D02*
X96529000Y-35521000D01*
X96529000Y-35521000D02*
X96529000Y-34979000D01*
X79571000Y-41246000D02*
X79429000Y-41246000D01*
X79429000Y-41246000D02*
X79571000Y-41246000D01*
X79571000Y-40754000D02*
X79429000Y-40754000D01*
X79429000Y-40754000D02*
X79571000Y-40754000D01*
X97471000Y-38729000D02*
X97471000Y-39271000D01*
X97471000Y-39271000D02*
X97471000Y-38729000D01*
X96529000Y-38729000D02*
X96529000Y-39271000D01*
X96529000Y-39271000D02*
X96529000Y-38729000D01*
X132760000Y-71300000D02*
X132760000Y-64850000D01*
X115860000Y-71300000D02*
X132760000Y-71300000D01*
X115860000Y-64850000D02*
X115860000Y-71300000D01*
X132760000Y-64850000D02*
X115860000Y-64850000D01*
D11*
X91895000Y-36750000D02*
X91895000Y-35250000D01*
X89105000Y-35250000D02*
X89105000Y-36750000D01*
X91895000Y-82750000D02*
X91895000Y-81250000D01*
X89105000Y-81250000D02*
X89105000Y-82750000D01*
X132700000Y-24671429D02*
X132700000Y-25100000D01*
X132728572Y-25185714D01*
X132785715Y-25242857D01*
X132871429Y-25271429D01*
X132928572Y-25271429D01*
X132100000Y-25271429D02*
X132442857Y-25271429D01*
X132271429Y-25271429D02*
X132271429Y-24671429D01*
X132328572Y-24757143D01*
X132385714Y-24814286D01*
X132442857Y-24842857D01*
X96521429Y-42114285D02*
X96235714Y-41914285D01*
X96521429Y-41771428D02*
X95921429Y-41771428D01*
X95921429Y-42000000D01*
X95950000Y-42057142D01*
X95978571Y-42085714D01*
X96035714Y-42114285D01*
X96121429Y-42114285D01*
X96178571Y-42085714D01*
X96207143Y-42057142D01*
X96235714Y-42000000D01*
X96235714Y-41771428D01*
X95978571Y-42342857D02*
X95950000Y-42371428D01*
X95921429Y-42428571D01*
X95921429Y-42571428D01*
X95950000Y-42628571D01*
X95978571Y-42657142D01*
X96035714Y-42685714D01*
X96092857Y-42685714D01*
X96178571Y-42657142D01*
X96521429Y-42314285D01*
X96521429Y-42685714D01*
X96121429Y-43200000D02*
X96521429Y-43200000D01*
X95892857Y-43057143D02*
X96321429Y-42914286D01*
X96321429Y-43285714D01*
X83885715Y-70714286D02*
X83914286Y-70742857D01*
X84000000Y-70771429D01*
X84057143Y-70771429D01*
X84142858Y-70742857D01*
X84200000Y-70685714D01*
X84228572Y-70628571D01*
X84257143Y-70514286D01*
X84257143Y-70428571D01*
X84228572Y-70314286D01*
X84200000Y-70257143D01*
X84142858Y-70200000D01*
X84057143Y-70171429D01*
X84000000Y-70171429D01*
X83914286Y-70200000D01*
X83885715Y-70228571D01*
X83371429Y-70371429D02*
X83371429Y-70771429D01*
X83514286Y-70142857D02*
X83657143Y-70571429D01*
X83285715Y-70571429D01*
X82971429Y-70428571D02*
X83028571Y-70400000D01*
X83057143Y-70371429D01*
X83085714Y-70314286D01*
X83085714Y-70285714D01*
X83057143Y-70228571D01*
X83028571Y-70200000D01*
X82971429Y-70171429D01*
X82857143Y-70171429D01*
X82800000Y-70200000D01*
X82771429Y-70228571D01*
X82742857Y-70285714D01*
X82742857Y-70314286D01*
X82771429Y-70371429D01*
X82800000Y-70400000D01*
X82857143Y-70428571D01*
X82971429Y-70428571D01*
X83028571Y-70457143D01*
X83057143Y-70485714D01*
X83085714Y-70542857D01*
X83085714Y-70657143D01*
X83057143Y-70714286D01*
X83028571Y-70742857D01*
X82971429Y-70771429D01*
X82857143Y-70771429D01*
X82800000Y-70742857D01*
X82771429Y-70714286D01*
X82742857Y-70657143D01*
X82742857Y-70542857D01*
X82771429Y-70485714D01*
X82800000Y-70457143D01*
X82857143Y-70428571D01*
X129714286Y-72364285D02*
X129742857Y-72335714D01*
X129771429Y-72250000D01*
X129771429Y-72192857D01*
X129742857Y-72107142D01*
X129685714Y-72050000D01*
X129628571Y-72021428D01*
X129514286Y-71992857D01*
X129428571Y-71992857D01*
X129314286Y-72021428D01*
X129257143Y-72050000D01*
X129200000Y-72107142D01*
X129171429Y-72192857D01*
X129171429Y-72250000D01*
X129200000Y-72335714D01*
X129228571Y-72364285D01*
X129171429Y-72878571D02*
X129171429Y-72764285D01*
X129200000Y-72707142D01*
X129228571Y-72678571D01*
X129314286Y-72621428D01*
X129428571Y-72592857D01*
X129657143Y-72592857D01*
X129714286Y-72621428D01*
X129742857Y-72650000D01*
X129771429Y-72707142D01*
X129771429Y-72821428D01*
X129742857Y-72878571D01*
X129714286Y-72907142D01*
X129657143Y-72935714D01*
X129514286Y-72935714D01*
X129457143Y-72907142D01*
X129428571Y-72878571D01*
X129400000Y-72821428D01*
X129400000Y-72707142D01*
X129428571Y-72650000D01*
X129457143Y-72621428D01*
X129514286Y-72592857D01*
X129171429Y-73135714D02*
X129171429Y-73507143D01*
X129400000Y-73307143D01*
X129400000Y-73392857D01*
X129428571Y-73450000D01*
X129457143Y-73478571D01*
X129514286Y-73507143D01*
X129657143Y-73507143D01*
X129714286Y-73478571D01*
X129742857Y-73450000D01*
X129771429Y-73392857D01*
X129771429Y-73221429D01*
X129742857Y-73164286D01*
X129714286Y-73135714D01*
X120464286Y-93864285D02*
X120492857Y-93835714D01*
X120521429Y-93750000D01*
X120521429Y-93692857D01*
X120492857Y-93607142D01*
X120435714Y-93550000D01*
X120378571Y-93521428D01*
X120264286Y-93492857D01*
X120178571Y-93492857D01*
X120064286Y-93521428D01*
X120007143Y-93550000D01*
X119950000Y-93607142D01*
X119921429Y-93692857D01*
X119921429Y-93750000D01*
X119950000Y-93835714D01*
X119978571Y-93864285D01*
X119921429Y-94378571D02*
X119921429Y-94264285D01*
X119950000Y-94207142D01*
X119978571Y-94178571D01*
X120064286Y-94121428D01*
X120178571Y-94092857D01*
X120407143Y-94092857D01*
X120464286Y-94121428D01*
X120492857Y-94150000D01*
X120521429Y-94207142D01*
X120521429Y-94321428D01*
X120492857Y-94378571D01*
X120464286Y-94407142D01*
X120407143Y-94435714D01*
X120264286Y-94435714D01*
X120207143Y-94407142D01*
X120178571Y-94378571D01*
X120150000Y-94321428D01*
X120150000Y-94207142D01*
X120178571Y-94150000D01*
X120207143Y-94121428D01*
X120264286Y-94092857D01*
X120121429Y-94950000D02*
X120521429Y-94950000D01*
X119892857Y-94807143D02*
X120321429Y-94664286D01*
X120321429Y-95035714D01*
X124464286Y-91114285D02*
X124492857Y-91085714D01*
X124521429Y-91000000D01*
X124521429Y-90942857D01*
X124492857Y-90857142D01*
X124435714Y-90800000D01*
X124378571Y-90771428D01*
X124264286Y-90742857D01*
X124178571Y-90742857D01*
X124064286Y-90771428D01*
X124007143Y-90800000D01*
X123950000Y-90857142D01*
X123921429Y-90942857D01*
X123921429Y-91000000D01*
X123950000Y-91085714D01*
X123978571Y-91114285D01*
X123921429Y-91628571D02*
X123921429Y-91514285D01*
X123950000Y-91457142D01*
X123978571Y-91428571D01*
X124064286Y-91371428D01*
X124178571Y-91342857D01*
X124407143Y-91342857D01*
X124464286Y-91371428D01*
X124492857Y-91400000D01*
X124521429Y-91457142D01*
X124521429Y-91571428D01*
X124492857Y-91628571D01*
X124464286Y-91657142D01*
X124407143Y-91685714D01*
X124264286Y-91685714D01*
X124207143Y-91657142D01*
X124178571Y-91628571D01*
X124150000Y-91571428D01*
X124150000Y-91457142D01*
X124178571Y-91400000D01*
X124207143Y-91371428D01*
X124264286Y-91342857D01*
X123921429Y-92228571D02*
X123921429Y-91942857D01*
X124207143Y-91914286D01*
X124178571Y-91942857D01*
X124150000Y-92000000D01*
X124150000Y-92142857D01*
X124178571Y-92200000D01*
X124207143Y-92228571D01*
X124264286Y-92257143D01*
X124407143Y-92257143D01*
X124464286Y-92228571D01*
X124492857Y-92200000D01*
X124521429Y-92142857D01*
X124521429Y-92000000D01*
X124492857Y-91942857D01*
X124464286Y-91914286D01*
X130135715Y-87964286D02*
X130164286Y-87992857D01*
X130250000Y-88021429D01*
X130307143Y-88021429D01*
X130392858Y-87992857D01*
X130450000Y-87935714D01*
X130478572Y-87878571D01*
X130507143Y-87764286D01*
X130507143Y-87678571D01*
X130478572Y-87564286D01*
X130450000Y-87507143D01*
X130392858Y-87450000D01*
X130307143Y-87421429D01*
X130250000Y-87421429D01*
X130164286Y-87450000D01*
X130135715Y-87478571D01*
X129621429Y-87421429D02*
X129735715Y-87421429D01*
X129792858Y-87450000D01*
X129821429Y-87478571D01*
X129878572Y-87564286D01*
X129907143Y-87678571D01*
X129907143Y-87907143D01*
X129878572Y-87964286D01*
X129850000Y-87992857D01*
X129792858Y-88021429D01*
X129678572Y-88021429D01*
X129621429Y-87992857D01*
X129592858Y-87964286D01*
X129564286Y-87907143D01*
X129564286Y-87764286D01*
X129592858Y-87707143D01*
X129621429Y-87678571D01*
X129678572Y-87650000D01*
X129792858Y-87650000D01*
X129850000Y-87678571D01*
X129878572Y-87707143D01*
X129907143Y-87764286D01*
X129050000Y-87421429D02*
X129164286Y-87421429D01*
X129221429Y-87450000D01*
X129250000Y-87478571D01*
X129307143Y-87564286D01*
X129335714Y-87678571D01*
X129335714Y-87907143D01*
X129307143Y-87964286D01*
X129278571Y-87992857D01*
X129221429Y-88021429D01*
X129107143Y-88021429D01*
X129050000Y-87992857D01*
X129021429Y-87964286D01*
X128992857Y-87907143D01*
X128992857Y-87764286D01*
X129021429Y-87707143D01*
X129050000Y-87678571D01*
X129107143Y-87650000D01*
X129221429Y-87650000D01*
X129278571Y-87678571D01*
X129307143Y-87707143D01*
X129335714Y-87764286D01*
X131885715Y-94214286D02*
X131914286Y-94242857D01*
X132000000Y-94271429D01*
X132057143Y-94271429D01*
X132142858Y-94242857D01*
X132200000Y-94185714D01*
X132228572Y-94128571D01*
X132257143Y-94014286D01*
X132257143Y-93928571D01*
X132228572Y-93814286D01*
X132200000Y-93757143D01*
X132142858Y-93700000D01*
X132057143Y-93671429D01*
X132000000Y-93671429D01*
X131914286Y-93700000D01*
X131885715Y-93728571D01*
X131371429Y-93671429D02*
X131485715Y-93671429D01*
X131542858Y-93700000D01*
X131571429Y-93728571D01*
X131628572Y-93814286D01*
X131657143Y-93928571D01*
X131657143Y-94157143D01*
X131628572Y-94214286D01*
X131600000Y-94242857D01*
X131542858Y-94271429D01*
X131428572Y-94271429D01*
X131371429Y-94242857D01*
X131342858Y-94214286D01*
X131314286Y-94157143D01*
X131314286Y-94014286D01*
X131342858Y-93957143D01*
X131371429Y-93928571D01*
X131428572Y-93900000D01*
X131542858Y-93900000D01*
X131600000Y-93928571D01*
X131628572Y-93957143D01*
X131657143Y-94014286D01*
X131114286Y-93671429D02*
X130714286Y-93671429D01*
X130971429Y-94271429D01*
X121885715Y-84214286D02*
X121914286Y-84242857D01*
X122000000Y-84271429D01*
X122057143Y-84271429D01*
X122142858Y-84242857D01*
X122200000Y-84185714D01*
X122228572Y-84128571D01*
X122257143Y-84014286D01*
X122257143Y-83928571D01*
X122228572Y-83814286D01*
X122200000Y-83757143D01*
X122142858Y-83700000D01*
X122057143Y-83671429D01*
X122000000Y-83671429D01*
X121914286Y-83700000D01*
X121885715Y-83728571D01*
X121371429Y-83671429D02*
X121485715Y-83671429D01*
X121542858Y-83700000D01*
X121571429Y-83728571D01*
X121628572Y-83814286D01*
X121657143Y-83928571D01*
X121657143Y-84157143D01*
X121628572Y-84214286D01*
X121600000Y-84242857D01*
X121542858Y-84271429D01*
X121428572Y-84271429D01*
X121371429Y-84242857D01*
X121342858Y-84214286D01*
X121314286Y-84157143D01*
X121314286Y-84014286D01*
X121342858Y-83957143D01*
X121371429Y-83928571D01*
X121428572Y-83900000D01*
X121542858Y-83900000D01*
X121600000Y-83928571D01*
X121628572Y-83957143D01*
X121657143Y-84014286D01*
X120971429Y-83928571D02*
X121028571Y-83900000D01*
X121057143Y-83871429D01*
X121085714Y-83814286D01*
X121085714Y-83785714D01*
X121057143Y-83728571D01*
X121028571Y-83700000D01*
X120971429Y-83671429D01*
X120857143Y-83671429D01*
X120800000Y-83700000D01*
X120771429Y-83728571D01*
X120742857Y-83785714D01*
X120742857Y-83814286D01*
X120771429Y-83871429D01*
X120800000Y-83900000D01*
X120857143Y-83928571D01*
X120971429Y-83928571D01*
X121028571Y-83957143D01*
X121057143Y-83985714D01*
X121085714Y-84042857D01*
X121085714Y-84157143D01*
X121057143Y-84214286D01*
X121028571Y-84242857D01*
X120971429Y-84271429D01*
X120857143Y-84271429D01*
X120800000Y-84242857D01*
X120771429Y-84214286D01*
X120742857Y-84157143D01*
X120742857Y-84042857D01*
X120771429Y-83985714D01*
X120800000Y-83957143D01*
X120857143Y-83928571D01*
X125135715Y-85964286D02*
X125164286Y-85992857D01*
X125250000Y-86021429D01*
X125307143Y-86021429D01*
X125392858Y-85992857D01*
X125450000Y-85935714D01*
X125478572Y-85878571D01*
X125507143Y-85764286D01*
X125507143Y-85678571D01*
X125478572Y-85564286D01*
X125450000Y-85507143D01*
X125392858Y-85450000D01*
X125307143Y-85421429D01*
X125250000Y-85421429D01*
X125164286Y-85450000D01*
X125135715Y-85478571D01*
X124621429Y-85421429D02*
X124735715Y-85421429D01*
X124792858Y-85450000D01*
X124821429Y-85478571D01*
X124878572Y-85564286D01*
X124907143Y-85678571D01*
X124907143Y-85907143D01*
X124878572Y-85964286D01*
X124850000Y-85992857D01*
X124792858Y-86021429D01*
X124678572Y-86021429D01*
X124621429Y-85992857D01*
X124592858Y-85964286D01*
X124564286Y-85907143D01*
X124564286Y-85764286D01*
X124592858Y-85707143D01*
X124621429Y-85678571D01*
X124678572Y-85650000D01*
X124792858Y-85650000D01*
X124850000Y-85678571D01*
X124878572Y-85707143D01*
X124907143Y-85764286D01*
X124278571Y-86021429D02*
X124164286Y-86021429D01*
X124107143Y-85992857D01*
X124078571Y-85964286D01*
X124021429Y-85878571D01*
X123992857Y-85764286D01*
X123992857Y-85535714D01*
X124021429Y-85478571D01*
X124050000Y-85450000D01*
X124107143Y-85421429D01*
X124221429Y-85421429D01*
X124278571Y-85450000D01*
X124307143Y-85478571D01*
X124335714Y-85535714D01*
X124335714Y-85678571D01*
X124307143Y-85735714D01*
X124278571Y-85764286D01*
X124221429Y-85792857D01*
X124107143Y-85792857D01*
X124050000Y-85764286D01*
X124021429Y-85735714D01*
X123992857Y-85678571D01*
X122714286Y-72364285D02*
X122742857Y-72335714D01*
X122771429Y-72250000D01*
X122771429Y-72192857D01*
X122742857Y-72107142D01*
X122685714Y-72050000D01*
X122628571Y-72021428D01*
X122514286Y-71992857D01*
X122428571Y-71992857D01*
X122314286Y-72021428D01*
X122257143Y-72050000D01*
X122200000Y-72107142D01*
X122171429Y-72192857D01*
X122171429Y-72250000D01*
X122200000Y-72335714D01*
X122228571Y-72364285D01*
X122171429Y-72564285D02*
X122171429Y-72964285D01*
X122771429Y-72707142D01*
X122771429Y-73507143D02*
X122771429Y-73164286D01*
X122771429Y-73335714D02*
X122171429Y-73335714D01*
X122257143Y-73278571D01*
X122314286Y-73221429D01*
X122342857Y-73164286D01*
X120464286Y-91614285D02*
X120492857Y-91585714D01*
X120521429Y-91500000D01*
X120521429Y-91442857D01*
X120492857Y-91357142D01*
X120435714Y-91300000D01*
X120378571Y-91271428D01*
X120264286Y-91242857D01*
X120178571Y-91242857D01*
X120064286Y-91271428D01*
X120007143Y-91300000D01*
X119950000Y-91357142D01*
X119921429Y-91442857D01*
X119921429Y-91500000D01*
X119950000Y-91585714D01*
X119978571Y-91614285D01*
X119921429Y-91814285D02*
X119921429Y-92214285D01*
X120521429Y-91957142D01*
X119978571Y-92414286D02*
X119950000Y-92442857D01*
X119921429Y-92500000D01*
X119921429Y-92642857D01*
X119950000Y-92700000D01*
X119978571Y-92728571D01*
X120035714Y-92757143D01*
X120092857Y-92757143D01*
X120178571Y-92728571D01*
X120521429Y-92385714D01*
X120521429Y-92757143D01*
X124464286Y-93864285D02*
X124492857Y-93835714D01*
X124521429Y-93750000D01*
X124521429Y-93692857D01*
X124492857Y-93607142D01*
X124435714Y-93550000D01*
X124378571Y-93521428D01*
X124264286Y-93492857D01*
X124178571Y-93492857D01*
X124064286Y-93521428D01*
X124007143Y-93550000D01*
X123950000Y-93607142D01*
X123921429Y-93692857D01*
X123921429Y-93750000D01*
X123950000Y-93835714D01*
X123978571Y-93864285D01*
X123921429Y-94064285D02*
X123921429Y-94464285D01*
X124521429Y-94207142D01*
X123921429Y-94635714D02*
X123921429Y-95007143D01*
X124150000Y-94807143D01*
X124150000Y-94892857D01*
X124178571Y-94950000D01*
X124207143Y-94978571D01*
X124264286Y-95007143D01*
X124407143Y-95007143D01*
X124464286Y-94978571D01*
X124492857Y-94950000D01*
X124521429Y-94892857D01*
X124521429Y-94721429D01*
X124492857Y-94664286D01*
X124464286Y-94635714D01*
X132635715Y-87714286D02*
X132664286Y-87742857D01*
X132750000Y-87771429D01*
X132807143Y-87771429D01*
X132892858Y-87742857D01*
X132950000Y-87685714D01*
X132978572Y-87628571D01*
X133007143Y-87514286D01*
X133007143Y-87428571D01*
X132978572Y-87314286D01*
X132950000Y-87257143D01*
X132892858Y-87200000D01*
X132807143Y-87171429D01*
X132750000Y-87171429D01*
X132664286Y-87200000D01*
X132635715Y-87228571D01*
X132435715Y-87171429D02*
X132035715Y-87171429D01*
X132292858Y-87771429D01*
X131550000Y-87371429D02*
X131550000Y-87771429D01*
X131692857Y-87142857D02*
X131835714Y-87571429D01*
X131464286Y-87571429D01*
X129635715Y-94214286D02*
X129664286Y-94242857D01*
X129750000Y-94271429D01*
X129807143Y-94271429D01*
X129892858Y-94242857D01*
X129950000Y-94185714D01*
X129978572Y-94128571D01*
X130007143Y-94014286D01*
X130007143Y-93928571D01*
X129978572Y-93814286D01*
X129950000Y-93757143D01*
X129892858Y-93700000D01*
X129807143Y-93671429D01*
X129750000Y-93671429D01*
X129664286Y-93700000D01*
X129635715Y-93728571D01*
X129435715Y-93671429D02*
X129035715Y-93671429D01*
X129292858Y-94271429D01*
X128521429Y-93671429D02*
X128807143Y-93671429D01*
X128835714Y-93957143D01*
X128807143Y-93928571D01*
X128750000Y-93900000D01*
X128607143Y-93900000D01*
X128550000Y-93928571D01*
X128521429Y-93957143D01*
X128492857Y-94014286D01*
X128492857Y-94157143D01*
X128521429Y-94214286D01*
X128550000Y-94242857D01*
X128607143Y-94271429D01*
X128750000Y-94271429D01*
X128807143Y-94242857D01*
X128835714Y-94214286D01*
X124385715Y-84214286D02*
X124414286Y-84242857D01*
X124500000Y-84271429D01*
X124557143Y-84271429D01*
X124642858Y-84242857D01*
X124700000Y-84185714D01*
X124728572Y-84128571D01*
X124757143Y-84014286D01*
X124757143Y-83928571D01*
X124728572Y-83814286D01*
X124700000Y-83757143D01*
X124642858Y-83700000D01*
X124557143Y-83671429D01*
X124500000Y-83671429D01*
X124414286Y-83700000D01*
X124385715Y-83728571D01*
X124185715Y-83671429D02*
X123785715Y-83671429D01*
X124042858Y-84271429D01*
X123300000Y-83671429D02*
X123414286Y-83671429D01*
X123471429Y-83700000D01*
X123500000Y-83728571D01*
X123557143Y-83814286D01*
X123585714Y-83928571D01*
X123585714Y-84157143D01*
X123557143Y-84214286D01*
X123528571Y-84242857D01*
X123471429Y-84271429D01*
X123357143Y-84271429D01*
X123300000Y-84242857D01*
X123271429Y-84214286D01*
X123242857Y-84157143D01*
X123242857Y-84014286D01*
X123271429Y-83957143D01*
X123300000Y-83928571D01*
X123357143Y-83900000D01*
X123471429Y-83900000D01*
X123528571Y-83928571D01*
X123557143Y-83957143D01*
X123585714Y-84014286D01*
X121885715Y-86214286D02*
X121914286Y-86242857D01*
X122000000Y-86271429D01*
X122057143Y-86271429D01*
X122142858Y-86242857D01*
X122200000Y-86185714D01*
X122228572Y-86128571D01*
X122257143Y-86014286D01*
X122257143Y-85928571D01*
X122228572Y-85814286D01*
X122200000Y-85757143D01*
X122142858Y-85700000D01*
X122057143Y-85671429D01*
X122000000Y-85671429D01*
X121914286Y-85700000D01*
X121885715Y-85728571D01*
X121685715Y-85671429D02*
X121285715Y-85671429D01*
X121542858Y-86271429D01*
X121114286Y-85671429D02*
X120714286Y-85671429D01*
X120971429Y-86271429D01*
X134464286Y-62114285D02*
X134492857Y-62085714D01*
X134521429Y-62000000D01*
X134521429Y-61942857D01*
X134492857Y-61857142D01*
X134435714Y-61800000D01*
X134378571Y-61771428D01*
X134264286Y-61742857D01*
X134178571Y-61742857D01*
X134064286Y-61771428D01*
X134007143Y-61800000D01*
X133950000Y-61857142D01*
X133921429Y-61942857D01*
X133921429Y-62000000D01*
X133950000Y-62085714D01*
X133978571Y-62114285D01*
X134178571Y-62457142D02*
X134150000Y-62400000D01*
X134121429Y-62371428D01*
X134064286Y-62342857D01*
X134035714Y-62342857D01*
X133978571Y-62371428D01*
X133950000Y-62400000D01*
X133921429Y-62457142D01*
X133921429Y-62571428D01*
X133950000Y-62628571D01*
X133978571Y-62657142D01*
X134035714Y-62685714D01*
X134064286Y-62685714D01*
X134121429Y-62657142D01*
X134150000Y-62628571D01*
X134178571Y-62571428D01*
X134178571Y-62457142D01*
X134207143Y-62400000D01*
X134235714Y-62371428D01*
X134292857Y-62342857D01*
X134407143Y-62342857D01*
X134464286Y-62371428D01*
X134492857Y-62400000D01*
X134521429Y-62457142D01*
X134521429Y-62571428D01*
X134492857Y-62628571D01*
X134464286Y-62657142D01*
X134407143Y-62685714D01*
X134292857Y-62685714D01*
X134235714Y-62657142D01*
X134207143Y-62628571D01*
X134178571Y-62571428D01*
X133978571Y-62914286D02*
X133950000Y-62942857D01*
X133921429Y-63000000D01*
X133921429Y-63142857D01*
X133950000Y-63200000D01*
X133978571Y-63228571D01*
X134035714Y-63257143D01*
X134092857Y-63257143D01*
X134178571Y-63228571D01*
X134521429Y-62885714D01*
X134521429Y-63257143D01*
X83600000Y-24714286D02*
X83628571Y-24742857D01*
X83714285Y-24771429D01*
X83771428Y-24771429D01*
X83857143Y-24742857D01*
X83914285Y-24685714D01*
X83942857Y-24628571D01*
X83971428Y-24514286D01*
X83971428Y-24428571D01*
X83942857Y-24314286D01*
X83914285Y-24257143D01*
X83857143Y-24200000D01*
X83771428Y-24171429D01*
X83714285Y-24171429D01*
X83628571Y-24200000D01*
X83600000Y-24228571D01*
X83314285Y-24771429D02*
X83200000Y-24771429D01*
X83142857Y-24742857D01*
X83114285Y-24714286D01*
X83057143Y-24628571D01*
X83028571Y-24514286D01*
X83028571Y-24285714D01*
X83057143Y-24228571D01*
X83085714Y-24200000D01*
X83142857Y-24171429D01*
X83257143Y-24171429D01*
X83314285Y-24200000D01*
X83342857Y-24228571D01*
X83371428Y-24285714D01*
X83371428Y-24428571D01*
X83342857Y-24485714D01*
X83314285Y-24514286D01*
X83257143Y-24542857D01*
X83142857Y-24542857D01*
X83085714Y-24514286D01*
X83057143Y-24485714D01*
X83028571Y-24428571D01*
X129714286Y-26114285D02*
X129742857Y-26085714D01*
X129771429Y-26000000D01*
X129771429Y-25942857D01*
X129742857Y-25857142D01*
X129685714Y-25800000D01*
X129628571Y-25771428D01*
X129514286Y-25742857D01*
X129428571Y-25742857D01*
X129314286Y-25771428D01*
X129257143Y-25800000D01*
X129200000Y-25857142D01*
X129171429Y-25942857D01*
X129171429Y-26000000D01*
X129200000Y-26085714D01*
X129228571Y-26114285D01*
X129228571Y-26342857D02*
X129200000Y-26371428D01*
X129171429Y-26428571D01*
X129171429Y-26571428D01*
X129200000Y-26628571D01*
X129228571Y-26657142D01*
X129285714Y-26685714D01*
X129342857Y-26685714D01*
X129428571Y-26657142D01*
X129771429Y-26314285D01*
X129771429Y-26685714D01*
X129371429Y-27200000D02*
X129771429Y-27200000D01*
X129142857Y-27057143D02*
X129571429Y-26914286D01*
X129571429Y-27285714D01*
X119464286Y-48114285D02*
X119492857Y-48085714D01*
X119521429Y-48000000D01*
X119521429Y-47942857D01*
X119492857Y-47857142D01*
X119435714Y-47800000D01*
X119378571Y-47771428D01*
X119264286Y-47742857D01*
X119178571Y-47742857D01*
X119064286Y-47771428D01*
X119007143Y-47800000D01*
X118950000Y-47857142D01*
X118921429Y-47942857D01*
X118921429Y-48000000D01*
X118950000Y-48085714D01*
X118978571Y-48114285D01*
X118978571Y-48342857D02*
X118950000Y-48371428D01*
X118921429Y-48428571D01*
X118921429Y-48571428D01*
X118950000Y-48628571D01*
X118978571Y-48657142D01*
X119035714Y-48685714D01*
X119092857Y-48685714D01*
X119178571Y-48657142D01*
X119521429Y-48314285D01*
X119521429Y-48685714D01*
X118921429Y-49228571D02*
X118921429Y-48942857D01*
X119207143Y-48914286D01*
X119178571Y-48942857D01*
X119150000Y-49000000D01*
X119150000Y-49142857D01*
X119178571Y-49200000D01*
X119207143Y-49228571D01*
X119264286Y-49257143D01*
X119407143Y-49257143D01*
X119464286Y-49228571D01*
X119492857Y-49200000D01*
X119521429Y-49142857D01*
X119521429Y-49000000D01*
X119492857Y-48942857D01*
X119464286Y-48914286D01*
X124464286Y-44864285D02*
X124492857Y-44835714D01*
X124521429Y-44750000D01*
X124521429Y-44692857D01*
X124492857Y-44607142D01*
X124435714Y-44550000D01*
X124378571Y-44521428D01*
X124264286Y-44492857D01*
X124178571Y-44492857D01*
X124064286Y-44521428D01*
X124007143Y-44550000D01*
X123950000Y-44607142D01*
X123921429Y-44692857D01*
X123921429Y-44750000D01*
X123950000Y-44835714D01*
X123978571Y-44864285D01*
X123978571Y-45092857D02*
X123950000Y-45121428D01*
X123921429Y-45178571D01*
X123921429Y-45321428D01*
X123950000Y-45378571D01*
X123978571Y-45407142D01*
X124035714Y-45435714D01*
X124092857Y-45435714D01*
X124178571Y-45407142D01*
X124521429Y-45064285D01*
X124521429Y-45435714D01*
X123921429Y-45950000D02*
X123921429Y-45835714D01*
X123950000Y-45778571D01*
X123978571Y-45750000D01*
X124064286Y-45692857D01*
X124178571Y-45664286D01*
X124407143Y-45664286D01*
X124464286Y-45692857D01*
X124492857Y-45721429D01*
X124521429Y-45778571D01*
X124521429Y-45892857D01*
X124492857Y-45950000D01*
X124464286Y-45978571D01*
X124407143Y-46007143D01*
X124264286Y-46007143D01*
X124207143Y-45978571D01*
X124178571Y-45950000D01*
X124150000Y-45892857D01*
X124150000Y-45778571D01*
X124178571Y-45721429D01*
X124207143Y-45692857D01*
X124264286Y-45664286D01*
X133135715Y-51214286D02*
X133164286Y-51242857D01*
X133250000Y-51271429D01*
X133307143Y-51271429D01*
X133392858Y-51242857D01*
X133450000Y-51185714D01*
X133478572Y-51128571D01*
X133507143Y-51014286D01*
X133507143Y-50928571D01*
X133478572Y-50814286D01*
X133450000Y-50757143D01*
X133392858Y-50700000D01*
X133307143Y-50671429D01*
X133250000Y-50671429D01*
X133164286Y-50700000D01*
X133135715Y-50728571D01*
X132907143Y-50728571D02*
X132878572Y-50700000D01*
X132821429Y-50671429D01*
X132678572Y-50671429D01*
X132621429Y-50700000D01*
X132592858Y-50728571D01*
X132564286Y-50785714D01*
X132564286Y-50842857D01*
X132592858Y-50928571D01*
X132935715Y-51271429D01*
X132564286Y-51271429D01*
X132364286Y-50671429D02*
X131964286Y-50671429D01*
X132221429Y-51271429D01*
X130135715Y-41714286D02*
X130164286Y-41742857D01*
X130250000Y-41771429D01*
X130307143Y-41771429D01*
X130392858Y-41742857D01*
X130450000Y-41685714D01*
X130478572Y-41628571D01*
X130507143Y-41514286D01*
X130507143Y-41428571D01*
X130478572Y-41314286D01*
X130450000Y-41257143D01*
X130392858Y-41200000D01*
X130307143Y-41171429D01*
X130250000Y-41171429D01*
X130164286Y-41200000D01*
X130135715Y-41228571D01*
X129907143Y-41228571D02*
X129878572Y-41200000D01*
X129821429Y-41171429D01*
X129678572Y-41171429D01*
X129621429Y-41200000D01*
X129592858Y-41228571D01*
X129564286Y-41285714D01*
X129564286Y-41342857D01*
X129592858Y-41428571D01*
X129935715Y-41771429D01*
X129564286Y-41771429D01*
X129221429Y-41428571D02*
X129278571Y-41400000D01*
X129307143Y-41371429D01*
X129335714Y-41314286D01*
X129335714Y-41285714D01*
X129307143Y-41228571D01*
X129278571Y-41200000D01*
X129221429Y-41171429D01*
X129107143Y-41171429D01*
X129050000Y-41200000D01*
X129021429Y-41228571D01*
X128992857Y-41285714D01*
X128992857Y-41314286D01*
X129021429Y-41371429D01*
X129050000Y-41400000D01*
X129107143Y-41428571D01*
X129221429Y-41428571D01*
X129278571Y-41457143D01*
X129307143Y-41485714D01*
X129335714Y-41542857D01*
X129335714Y-41657143D01*
X129307143Y-41714286D01*
X129278571Y-41742857D01*
X129221429Y-41771429D01*
X129107143Y-41771429D01*
X129050000Y-41742857D01*
X129021429Y-41714286D01*
X128992857Y-41657143D01*
X128992857Y-41542857D01*
X129021429Y-41485714D01*
X129050000Y-41457143D01*
X129107143Y-41428571D01*
X126635715Y-40714286D02*
X126664286Y-40742857D01*
X126750000Y-40771429D01*
X126807143Y-40771429D01*
X126892858Y-40742857D01*
X126950000Y-40685714D01*
X126978572Y-40628571D01*
X127007143Y-40514286D01*
X127007143Y-40428571D01*
X126978572Y-40314286D01*
X126950000Y-40257143D01*
X126892858Y-40200000D01*
X126807143Y-40171429D01*
X126750000Y-40171429D01*
X126664286Y-40200000D01*
X126635715Y-40228571D01*
X126407143Y-40228571D02*
X126378572Y-40200000D01*
X126321429Y-40171429D01*
X126178572Y-40171429D01*
X126121429Y-40200000D01*
X126092858Y-40228571D01*
X126064286Y-40285714D01*
X126064286Y-40342857D01*
X126092858Y-40428571D01*
X126435715Y-40771429D01*
X126064286Y-40771429D01*
X125778571Y-40771429D02*
X125664286Y-40771429D01*
X125607143Y-40742857D01*
X125578571Y-40714286D01*
X125521429Y-40628571D01*
X125492857Y-40514286D01*
X125492857Y-40285714D01*
X125521429Y-40228571D01*
X125550000Y-40200000D01*
X125607143Y-40171429D01*
X125721429Y-40171429D01*
X125778571Y-40200000D01*
X125807143Y-40228571D01*
X125835714Y-40285714D01*
X125835714Y-40428571D01*
X125807143Y-40485714D01*
X125778571Y-40514286D01*
X125721429Y-40542857D01*
X125607143Y-40542857D01*
X125550000Y-40514286D01*
X125521429Y-40485714D01*
X125492857Y-40428571D01*
X122135715Y-35214286D02*
X122164286Y-35242857D01*
X122250000Y-35271429D01*
X122307143Y-35271429D01*
X122392858Y-35242857D01*
X122450000Y-35185714D01*
X122478572Y-35128571D01*
X122507143Y-35014286D01*
X122507143Y-34928571D01*
X122478572Y-34814286D01*
X122450000Y-34757143D01*
X122392858Y-34700000D01*
X122307143Y-34671429D01*
X122250000Y-34671429D01*
X122164286Y-34700000D01*
X122135715Y-34728571D01*
X121935715Y-34671429D02*
X121564286Y-34671429D01*
X121764286Y-34900000D01*
X121678572Y-34900000D01*
X121621429Y-34928571D01*
X121592858Y-34957143D01*
X121564286Y-35014286D01*
X121564286Y-35157143D01*
X121592858Y-35214286D01*
X121621429Y-35242857D01*
X121678572Y-35271429D01*
X121850000Y-35271429D01*
X121907143Y-35242857D01*
X121935715Y-35214286D01*
X121192857Y-34671429D02*
X121135714Y-34671429D01*
X121078571Y-34700000D01*
X121050000Y-34728571D01*
X121021429Y-34785714D01*
X120992857Y-34900000D01*
X120992857Y-35042857D01*
X121021429Y-35157143D01*
X121050000Y-35214286D01*
X121078571Y-35242857D01*
X121135714Y-35271429D01*
X121192857Y-35271429D01*
X121250000Y-35242857D01*
X121278571Y-35214286D01*
X121307143Y-35157143D01*
X121335714Y-35042857D01*
X121335714Y-34900000D01*
X121307143Y-34785714D01*
X121278571Y-34728571D01*
X121250000Y-34700000D01*
X121192857Y-34671429D01*
X122714286Y-26114285D02*
X122742857Y-26085714D01*
X122771429Y-26000000D01*
X122771429Y-25942857D01*
X122742857Y-25857142D01*
X122685714Y-25800000D01*
X122628571Y-25771428D01*
X122514286Y-25742857D01*
X122428571Y-25742857D01*
X122314286Y-25771428D01*
X122257143Y-25800000D01*
X122200000Y-25857142D01*
X122171429Y-25942857D01*
X122171429Y-26000000D01*
X122200000Y-26085714D01*
X122228571Y-26114285D01*
X122171429Y-26314285D02*
X122171429Y-26685714D01*
X122400000Y-26485714D01*
X122400000Y-26571428D01*
X122428571Y-26628571D01*
X122457143Y-26657142D01*
X122514286Y-26685714D01*
X122657143Y-26685714D01*
X122714286Y-26657142D01*
X122742857Y-26628571D01*
X122771429Y-26571428D01*
X122771429Y-26400000D01*
X122742857Y-26342857D01*
X122714286Y-26314285D01*
X122228571Y-26914286D02*
X122200000Y-26942857D01*
X122171429Y-27000000D01*
X122171429Y-27142857D01*
X122200000Y-27200000D01*
X122228571Y-27228571D01*
X122285714Y-27257143D01*
X122342857Y-27257143D01*
X122428571Y-27228571D01*
X122771429Y-26885714D01*
X122771429Y-27257143D01*
X119464286Y-45614285D02*
X119492857Y-45585714D01*
X119521429Y-45500000D01*
X119521429Y-45442857D01*
X119492857Y-45357142D01*
X119435714Y-45300000D01*
X119378571Y-45271428D01*
X119264286Y-45242857D01*
X119178571Y-45242857D01*
X119064286Y-45271428D01*
X119007143Y-45300000D01*
X118950000Y-45357142D01*
X118921429Y-45442857D01*
X118921429Y-45500000D01*
X118950000Y-45585714D01*
X118978571Y-45614285D01*
X118921429Y-45814285D02*
X118921429Y-46185714D01*
X119150000Y-45985714D01*
X119150000Y-46071428D01*
X119178571Y-46128571D01*
X119207143Y-46157142D01*
X119264286Y-46185714D01*
X119407143Y-46185714D01*
X119464286Y-46157142D01*
X119492857Y-46128571D01*
X119521429Y-46071428D01*
X119521429Y-45900000D01*
X119492857Y-45842857D01*
X119464286Y-45814285D01*
X118921429Y-46385714D02*
X118921429Y-46757143D01*
X119150000Y-46557143D01*
X119150000Y-46642857D01*
X119178571Y-46700000D01*
X119207143Y-46728571D01*
X119264286Y-46757143D01*
X119407143Y-46757143D01*
X119464286Y-46728571D01*
X119492857Y-46700000D01*
X119521429Y-46642857D01*
X119521429Y-46471429D01*
X119492857Y-46414286D01*
X119464286Y-46385714D01*
X127714286Y-49364285D02*
X127742857Y-49335714D01*
X127771429Y-49250000D01*
X127771429Y-49192857D01*
X127742857Y-49107142D01*
X127685714Y-49050000D01*
X127628571Y-49021428D01*
X127514286Y-48992857D01*
X127428571Y-48992857D01*
X127314286Y-49021428D01*
X127257143Y-49050000D01*
X127200000Y-49107142D01*
X127171429Y-49192857D01*
X127171429Y-49250000D01*
X127200000Y-49335714D01*
X127228571Y-49364285D01*
X127171429Y-49564285D02*
X127171429Y-49935714D01*
X127400000Y-49735714D01*
X127400000Y-49821428D01*
X127428571Y-49878571D01*
X127457143Y-49907142D01*
X127514286Y-49935714D01*
X127657143Y-49935714D01*
X127714286Y-49907142D01*
X127742857Y-49878571D01*
X127771429Y-49821428D01*
X127771429Y-49650000D01*
X127742857Y-49592857D01*
X127714286Y-49564285D01*
X127371429Y-50450000D02*
X127771429Y-50450000D01*
X127142857Y-50307143D02*
X127571429Y-50164286D01*
X127571429Y-50535714D01*
X130635715Y-51214286D02*
X130664286Y-51242857D01*
X130750000Y-51271429D01*
X130807143Y-51271429D01*
X130892858Y-51242857D01*
X130950000Y-51185714D01*
X130978572Y-51128571D01*
X131007143Y-51014286D01*
X131007143Y-50928571D01*
X130978572Y-50814286D01*
X130950000Y-50757143D01*
X130892858Y-50700000D01*
X130807143Y-50671429D01*
X130750000Y-50671429D01*
X130664286Y-50700000D01*
X130635715Y-50728571D01*
X130435715Y-50671429D02*
X130064286Y-50671429D01*
X130264286Y-50900000D01*
X130178572Y-50900000D01*
X130121429Y-50928571D01*
X130092858Y-50957143D01*
X130064286Y-51014286D01*
X130064286Y-51157143D01*
X130092858Y-51214286D01*
X130121429Y-51242857D01*
X130178572Y-51271429D01*
X130350000Y-51271429D01*
X130407143Y-51242857D01*
X130435715Y-51214286D01*
X129521429Y-50671429D02*
X129807143Y-50671429D01*
X129835714Y-50957143D01*
X129807143Y-50928571D01*
X129750000Y-50900000D01*
X129607143Y-50900000D01*
X129550000Y-50928571D01*
X129521429Y-50957143D01*
X129492857Y-51014286D01*
X129492857Y-51157143D01*
X129521429Y-51214286D01*
X129550000Y-51242857D01*
X129607143Y-51271429D01*
X129750000Y-51271429D01*
X129807143Y-51242857D01*
X129835714Y-51214286D01*
X132635715Y-41714286D02*
X132664286Y-41742857D01*
X132750000Y-41771429D01*
X132807143Y-41771429D01*
X132892858Y-41742857D01*
X132950000Y-41685714D01*
X132978572Y-41628571D01*
X133007143Y-41514286D01*
X133007143Y-41428571D01*
X132978572Y-41314286D01*
X132950000Y-41257143D01*
X132892858Y-41200000D01*
X132807143Y-41171429D01*
X132750000Y-41171429D01*
X132664286Y-41200000D01*
X132635715Y-41228571D01*
X132435715Y-41171429D02*
X132064286Y-41171429D01*
X132264286Y-41400000D01*
X132178572Y-41400000D01*
X132121429Y-41428571D01*
X132092858Y-41457143D01*
X132064286Y-41514286D01*
X132064286Y-41657143D01*
X132092858Y-41714286D01*
X132121429Y-41742857D01*
X132178572Y-41771429D01*
X132350000Y-41771429D01*
X132407143Y-41742857D01*
X132435715Y-41714286D01*
X131550000Y-41171429D02*
X131664286Y-41171429D01*
X131721429Y-41200000D01*
X131750000Y-41228571D01*
X131807143Y-41314286D01*
X131835714Y-41428571D01*
X131835714Y-41657143D01*
X131807143Y-41714286D01*
X131778571Y-41742857D01*
X131721429Y-41771429D01*
X131607143Y-41771429D01*
X131550000Y-41742857D01*
X131521429Y-41714286D01*
X131492857Y-41657143D01*
X131492857Y-41514286D01*
X131521429Y-41457143D01*
X131550000Y-41428571D01*
X131607143Y-41400000D01*
X131721429Y-41400000D01*
X131778571Y-41428571D01*
X131807143Y-41457143D01*
X131835714Y-41514286D01*
X121135715Y-40714286D02*
X121164286Y-40742857D01*
X121250000Y-40771429D01*
X121307143Y-40771429D01*
X121392858Y-40742857D01*
X121450000Y-40685714D01*
X121478572Y-40628571D01*
X121507143Y-40514286D01*
X121507143Y-40428571D01*
X121478572Y-40314286D01*
X121450000Y-40257143D01*
X121392858Y-40200000D01*
X121307143Y-40171429D01*
X121250000Y-40171429D01*
X121164286Y-40200000D01*
X121135715Y-40228571D01*
X120935715Y-40171429D02*
X120564286Y-40171429D01*
X120764286Y-40400000D01*
X120678572Y-40400000D01*
X120621429Y-40428571D01*
X120592858Y-40457143D01*
X120564286Y-40514286D01*
X120564286Y-40657143D01*
X120592858Y-40714286D01*
X120621429Y-40742857D01*
X120678572Y-40771429D01*
X120850000Y-40771429D01*
X120907143Y-40742857D01*
X120935715Y-40714286D01*
X120364286Y-40171429D02*
X119964286Y-40171429D01*
X120221429Y-40771429D01*
X124885715Y-35214286D02*
X124914286Y-35242857D01*
X125000000Y-35271429D01*
X125057143Y-35271429D01*
X125142858Y-35242857D01*
X125200000Y-35185714D01*
X125228572Y-35128571D01*
X125257143Y-35014286D01*
X125257143Y-34928571D01*
X125228572Y-34814286D01*
X125200000Y-34757143D01*
X125142858Y-34700000D01*
X125057143Y-34671429D01*
X125000000Y-34671429D01*
X124914286Y-34700000D01*
X124885715Y-34728571D01*
X124685715Y-34671429D02*
X124314286Y-34671429D01*
X124514286Y-34900000D01*
X124428572Y-34900000D01*
X124371429Y-34928571D01*
X124342858Y-34957143D01*
X124314286Y-35014286D01*
X124314286Y-35157143D01*
X124342858Y-35214286D01*
X124371429Y-35242857D01*
X124428572Y-35271429D01*
X124600000Y-35271429D01*
X124657143Y-35242857D01*
X124685715Y-35214286D01*
X123971429Y-34928571D02*
X124028571Y-34900000D01*
X124057143Y-34871429D01*
X124085714Y-34814286D01*
X124085714Y-34785714D01*
X124057143Y-34728571D01*
X124028571Y-34700000D01*
X123971429Y-34671429D01*
X123857143Y-34671429D01*
X123800000Y-34700000D01*
X123771429Y-34728571D01*
X123742857Y-34785714D01*
X123742857Y-34814286D01*
X123771429Y-34871429D01*
X123800000Y-34900000D01*
X123857143Y-34928571D01*
X123971429Y-34928571D01*
X124028571Y-34957143D01*
X124057143Y-34985714D01*
X124085714Y-35042857D01*
X124085714Y-35157143D01*
X124057143Y-35214286D01*
X124028571Y-35242857D01*
X123971429Y-35271429D01*
X123857143Y-35271429D01*
X123800000Y-35242857D01*
X123771429Y-35214286D01*
X123742857Y-35157143D01*
X123742857Y-35042857D01*
X123771429Y-34985714D01*
X123800000Y-34957143D01*
X123857143Y-34928571D01*
X154421429Y-19514286D02*
X154850000Y-19514286D01*
X154935714Y-19485714D01*
X154992857Y-19428571D01*
X155021429Y-19342857D01*
X155021429Y-19285714D01*
X155021429Y-20114286D02*
X155021429Y-19771429D01*
X155021429Y-19942857D02*
X154421429Y-19942857D01*
X154507143Y-19885714D01*
X154564286Y-19828572D01*
X154592857Y-19771429D01*
X155021429Y-20685715D02*
X155021429Y-20342858D01*
X155021429Y-20514286D02*
X154421429Y-20514286D01*
X154507143Y-20457143D01*
X154564286Y-20400001D01*
X154592857Y-20342858D01*
X85885715Y-85771429D02*
X86085715Y-85485714D01*
X86228572Y-85771429D02*
X86228572Y-85171429D01*
X86000000Y-85171429D01*
X85942858Y-85200000D01*
X85914286Y-85228571D01*
X85885715Y-85285714D01*
X85885715Y-85371429D01*
X85914286Y-85428571D01*
X85942858Y-85457143D01*
X86000000Y-85485714D01*
X86228572Y-85485714D01*
X85342858Y-85171429D02*
X85628572Y-85171429D01*
X85657143Y-85457143D01*
X85628572Y-85428571D01*
X85571429Y-85400000D01*
X85428572Y-85400000D01*
X85371429Y-85428571D01*
X85342858Y-85457143D01*
X85314286Y-85514286D01*
X85314286Y-85657143D01*
X85342858Y-85714286D01*
X85371429Y-85742857D01*
X85428572Y-85771429D01*
X85571429Y-85771429D01*
X85628572Y-85742857D01*
X85657143Y-85714286D01*
X85085714Y-85228571D02*
X85057143Y-85200000D01*
X85000000Y-85171429D01*
X84857143Y-85171429D01*
X84800000Y-85200000D01*
X84771429Y-85228571D01*
X84742857Y-85285714D01*
X84742857Y-85342857D01*
X84771429Y-85428571D01*
X85114286Y-85771429D01*
X84742857Y-85771429D01*
X86021429Y-81614285D02*
X85735714Y-81414285D01*
X86021429Y-81271428D02*
X85421429Y-81271428D01*
X85421429Y-81500000D01*
X85450000Y-81557142D01*
X85478571Y-81585714D01*
X85535714Y-81614285D01*
X85621429Y-81614285D01*
X85678571Y-81585714D01*
X85707143Y-81557142D01*
X85735714Y-81500000D01*
X85735714Y-81271428D01*
X85421429Y-82157142D02*
X85421429Y-81871428D01*
X85707143Y-81842857D01*
X85678571Y-81871428D01*
X85650000Y-81928571D01*
X85650000Y-82071428D01*
X85678571Y-82128571D01*
X85707143Y-82157142D01*
X85764286Y-82185714D01*
X85907143Y-82185714D01*
X85964286Y-82157142D01*
X85992857Y-82128571D01*
X86021429Y-82071428D01*
X86021429Y-81928571D01*
X85992857Y-81871428D01*
X85964286Y-81842857D01*
X85421429Y-82385714D02*
X85421429Y-82757143D01*
X85650000Y-82557143D01*
X85650000Y-82642857D01*
X85678571Y-82700000D01*
X85707143Y-82728571D01*
X85764286Y-82757143D01*
X85907143Y-82757143D01*
X85964286Y-82728571D01*
X85992857Y-82700000D01*
X86021429Y-82642857D01*
X86021429Y-82471429D01*
X85992857Y-82414286D01*
X85964286Y-82385714D01*
X88885715Y-77021429D02*
X89085715Y-76735714D01*
X89228572Y-77021429D02*
X89228572Y-76421429D01*
X89000000Y-76421429D01*
X88942858Y-76450000D01*
X88914286Y-76478571D01*
X88885715Y-76535714D01*
X88885715Y-76621429D01*
X88914286Y-76678571D01*
X88942858Y-76707143D01*
X89000000Y-76735714D01*
X89228572Y-76735714D01*
X88342858Y-76421429D02*
X88628572Y-76421429D01*
X88657143Y-76707143D01*
X88628572Y-76678571D01*
X88571429Y-76650000D01*
X88428572Y-76650000D01*
X88371429Y-76678571D01*
X88342858Y-76707143D01*
X88314286Y-76764286D01*
X88314286Y-76907143D01*
X88342858Y-76964286D01*
X88371429Y-76992857D01*
X88428572Y-77021429D01*
X88571429Y-77021429D01*
X88628572Y-76992857D01*
X88657143Y-76964286D01*
X87800000Y-76621429D02*
X87800000Y-77021429D01*
X87942857Y-76392857D02*
X88085714Y-76821429D01*
X87714286Y-76821429D01*
X90271429Y-87864285D02*
X89985714Y-87664285D01*
X90271429Y-87521428D02*
X89671429Y-87521428D01*
X89671429Y-87750000D01*
X89700000Y-87807142D01*
X89728571Y-87835714D01*
X89785714Y-87864285D01*
X89871429Y-87864285D01*
X89928571Y-87835714D01*
X89957143Y-87807142D01*
X89985714Y-87750000D01*
X89985714Y-87521428D01*
X89671429Y-88407142D02*
X89671429Y-88121428D01*
X89957143Y-88092857D01*
X89928571Y-88121428D01*
X89900000Y-88178571D01*
X89900000Y-88321428D01*
X89928571Y-88378571D01*
X89957143Y-88407142D01*
X90014286Y-88435714D01*
X90157143Y-88435714D01*
X90214286Y-88407142D01*
X90242857Y-88378571D01*
X90271429Y-88321428D01*
X90271429Y-88178571D01*
X90242857Y-88121428D01*
X90214286Y-88092857D01*
X89671429Y-88635714D02*
X89671429Y-89035714D01*
X90271429Y-88778571D01*
X94385715Y-79021429D02*
X94585715Y-78735714D01*
X94728572Y-79021429D02*
X94728572Y-78421429D01*
X94500000Y-78421429D01*
X94442858Y-78450000D01*
X94414286Y-78478571D01*
X94385715Y-78535714D01*
X94385715Y-78621429D01*
X94414286Y-78678571D01*
X94442858Y-78707143D01*
X94500000Y-78735714D01*
X94728572Y-78735714D01*
X93842858Y-78421429D02*
X94128572Y-78421429D01*
X94157143Y-78707143D01*
X94128572Y-78678571D01*
X94071429Y-78650000D01*
X93928572Y-78650000D01*
X93871429Y-78678571D01*
X93842858Y-78707143D01*
X93814286Y-78764286D01*
X93814286Y-78907143D01*
X93842858Y-78964286D01*
X93871429Y-78992857D01*
X93928572Y-79021429D01*
X94071429Y-79021429D01*
X94128572Y-78992857D01*
X94157143Y-78964286D01*
X93471429Y-78678571D02*
X93528571Y-78650000D01*
X93557143Y-78621429D01*
X93585714Y-78564286D01*
X93585714Y-78535714D01*
X93557143Y-78478571D01*
X93528571Y-78450000D01*
X93471429Y-78421429D01*
X93357143Y-78421429D01*
X93300000Y-78450000D01*
X93271429Y-78478571D01*
X93242857Y-78535714D01*
X93242857Y-78564286D01*
X93271429Y-78621429D01*
X93300000Y-78650000D01*
X93357143Y-78678571D01*
X93471429Y-78678571D01*
X93528571Y-78707143D01*
X93557143Y-78735714D01*
X93585714Y-78792857D01*
X93585714Y-78907143D01*
X93557143Y-78964286D01*
X93528571Y-78992857D01*
X93471429Y-79021429D01*
X93357143Y-79021429D01*
X93300000Y-78992857D01*
X93271429Y-78964286D01*
X93242857Y-78907143D01*
X93242857Y-78792857D01*
X93271429Y-78735714D01*
X93300000Y-78707143D01*
X93357143Y-78678571D01*
X79885715Y-78021429D02*
X80085715Y-77735714D01*
X80228572Y-78021429D02*
X80228572Y-77421429D01*
X80000000Y-77421429D01*
X79942858Y-77450000D01*
X79914286Y-77478571D01*
X79885715Y-77535714D01*
X79885715Y-77621429D01*
X79914286Y-77678571D01*
X79942858Y-77707143D01*
X80000000Y-77735714D01*
X80228572Y-77735714D01*
X79371429Y-77421429D02*
X79485715Y-77421429D01*
X79542858Y-77450000D01*
X79571429Y-77478571D01*
X79628572Y-77564286D01*
X79657143Y-77678571D01*
X79657143Y-77907143D01*
X79628572Y-77964286D01*
X79600000Y-77992857D01*
X79542858Y-78021429D01*
X79428572Y-78021429D01*
X79371429Y-77992857D01*
X79342858Y-77964286D01*
X79314286Y-77907143D01*
X79314286Y-77764286D01*
X79342858Y-77707143D01*
X79371429Y-77678571D01*
X79428572Y-77650000D01*
X79542858Y-77650000D01*
X79600000Y-77678571D01*
X79628572Y-77707143D01*
X79657143Y-77764286D01*
X79114286Y-77421429D02*
X78742857Y-77421429D01*
X78942857Y-77650000D01*
X78857143Y-77650000D01*
X78800000Y-77678571D01*
X78771429Y-77707143D01*
X78742857Y-77764286D01*
X78742857Y-77907143D01*
X78771429Y-77964286D01*
X78800000Y-77992857D01*
X78857143Y-78021429D01*
X79028571Y-78021429D01*
X79085714Y-77992857D01*
X79114286Y-77964286D01*
X94885715Y-91271429D02*
X95085715Y-90985714D01*
X95228572Y-91271429D02*
X95228572Y-90671429D01*
X95000000Y-90671429D01*
X94942858Y-90700000D01*
X94914286Y-90728571D01*
X94885715Y-90785714D01*
X94885715Y-90871429D01*
X94914286Y-90928571D01*
X94942858Y-90957143D01*
X95000000Y-90985714D01*
X95228572Y-90985714D01*
X94371429Y-90671429D02*
X94485715Y-90671429D01*
X94542858Y-90700000D01*
X94571429Y-90728571D01*
X94628572Y-90814286D01*
X94657143Y-90928571D01*
X94657143Y-91157143D01*
X94628572Y-91214286D01*
X94600000Y-91242857D01*
X94542858Y-91271429D01*
X94428572Y-91271429D01*
X94371429Y-91242857D01*
X94342858Y-91214286D01*
X94314286Y-91157143D01*
X94314286Y-91014286D01*
X94342858Y-90957143D01*
X94371429Y-90928571D01*
X94428572Y-90900000D01*
X94542858Y-90900000D01*
X94600000Y-90928571D01*
X94628572Y-90957143D01*
X94657143Y-91014286D01*
X93771429Y-90671429D02*
X94057143Y-90671429D01*
X94085714Y-90957143D01*
X94057143Y-90928571D01*
X94000000Y-90900000D01*
X93857143Y-90900000D01*
X93800000Y-90928571D01*
X93771429Y-90957143D01*
X93742857Y-91014286D01*
X93742857Y-91157143D01*
X93771429Y-91214286D01*
X93800000Y-91242857D01*
X93857143Y-91271429D01*
X94000000Y-91271429D01*
X94057143Y-91242857D01*
X94085714Y-91214286D01*
X98771429Y-81114285D02*
X98485714Y-80914285D01*
X98771429Y-80771428D02*
X98171429Y-80771428D01*
X98171429Y-81000000D01*
X98200000Y-81057142D01*
X98228571Y-81085714D01*
X98285714Y-81114285D01*
X98371429Y-81114285D01*
X98428571Y-81085714D01*
X98457143Y-81057142D01*
X98485714Y-81000000D01*
X98485714Y-80771428D01*
X98171429Y-81628571D02*
X98171429Y-81514285D01*
X98200000Y-81457142D01*
X98228571Y-81428571D01*
X98314286Y-81371428D01*
X98428571Y-81342857D01*
X98657143Y-81342857D01*
X98714286Y-81371428D01*
X98742857Y-81400000D01*
X98771429Y-81457142D01*
X98771429Y-81571428D01*
X98742857Y-81628571D01*
X98714286Y-81657142D01*
X98657143Y-81685714D01*
X98514286Y-81685714D01*
X98457143Y-81657142D01*
X98428571Y-81628571D01*
X98400000Y-81571428D01*
X98400000Y-81457142D01*
X98428571Y-81400000D01*
X98457143Y-81371428D01*
X98514286Y-81342857D01*
X98171429Y-82200000D02*
X98171429Y-82085714D01*
X98200000Y-82028571D01*
X98228571Y-82000000D01*
X98314286Y-81942857D01*
X98428571Y-81914286D01*
X98657143Y-81914286D01*
X98714286Y-81942857D01*
X98742857Y-81971429D01*
X98771429Y-82028571D01*
X98771429Y-82142857D01*
X98742857Y-82200000D01*
X98714286Y-82228571D01*
X98657143Y-82257143D01*
X98514286Y-82257143D01*
X98457143Y-82228571D01*
X98428571Y-82200000D01*
X98400000Y-82142857D01*
X98400000Y-82028571D01*
X98428571Y-81971429D01*
X98457143Y-81942857D01*
X98514286Y-81914286D01*
X96521429Y-87614285D02*
X96235714Y-87414285D01*
X96521429Y-87271428D02*
X95921429Y-87271428D01*
X95921429Y-87500000D01*
X95950000Y-87557142D01*
X95978571Y-87585714D01*
X96035714Y-87614285D01*
X96121429Y-87614285D01*
X96178571Y-87585714D01*
X96207143Y-87557142D01*
X96235714Y-87500000D01*
X96235714Y-87271428D01*
X95921429Y-88128571D02*
X95921429Y-88014285D01*
X95950000Y-87957142D01*
X95978571Y-87928571D01*
X96064286Y-87871428D01*
X96178571Y-87842857D01*
X96407143Y-87842857D01*
X96464286Y-87871428D01*
X96492857Y-87900000D01*
X96521429Y-87957142D01*
X96521429Y-88071428D01*
X96492857Y-88128571D01*
X96464286Y-88157142D01*
X96407143Y-88185714D01*
X96264286Y-88185714D01*
X96207143Y-88157142D01*
X96178571Y-88128571D01*
X96150000Y-88071428D01*
X96150000Y-87957142D01*
X96178571Y-87900000D01*
X96207143Y-87871428D01*
X96264286Y-87842857D01*
X96178571Y-88528571D02*
X96150000Y-88471429D01*
X96121429Y-88442857D01*
X96064286Y-88414286D01*
X96035714Y-88414286D01*
X95978571Y-88442857D01*
X95950000Y-88471429D01*
X95921429Y-88528571D01*
X95921429Y-88642857D01*
X95950000Y-88700000D01*
X95978571Y-88728571D01*
X96035714Y-88757143D01*
X96064286Y-88757143D01*
X96121429Y-88728571D01*
X96150000Y-88700000D01*
X96178571Y-88642857D01*
X96178571Y-88528571D01*
X96207143Y-88471429D01*
X96235714Y-88442857D01*
X96292857Y-88414286D01*
X96407143Y-88414286D01*
X96464286Y-88442857D01*
X96492857Y-88471429D01*
X96521429Y-88528571D01*
X96521429Y-88642857D01*
X96492857Y-88700000D01*
X96464286Y-88728571D01*
X96407143Y-88757143D01*
X96292857Y-88757143D01*
X96235714Y-88728571D01*
X96207143Y-88700000D01*
X96178571Y-88642857D01*
X79885715Y-86021429D02*
X80085715Y-85735714D01*
X80228572Y-86021429D02*
X80228572Y-85421429D01*
X80000000Y-85421429D01*
X79942858Y-85450000D01*
X79914286Y-85478571D01*
X79885715Y-85535714D01*
X79885715Y-85621429D01*
X79914286Y-85678571D01*
X79942858Y-85707143D01*
X80000000Y-85735714D01*
X80228572Y-85735714D01*
X79371429Y-85421429D02*
X79485715Y-85421429D01*
X79542858Y-85450000D01*
X79571429Y-85478571D01*
X79628572Y-85564286D01*
X79657143Y-85678571D01*
X79657143Y-85907143D01*
X79628572Y-85964286D01*
X79600000Y-85992857D01*
X79542858Y-86021429D01*
X79428572Y-86021429D01*
X79371429Y-85992857D01*
X79342858Y-85964286D01*
X79314286Y-85907143D01*
X79314286Y-85764286D01*
X79342858Y-85707143D01*
X79371429Y-85678571D01*
X79428572Y-85650000D01*
X79542858Y-85650000D01*
X79600000Y-85678571D01*
X79628572Y-85707143D01*
X79657143Y-85764286D01*
X79028571Y-86021429D02*
X78914286Y-86021429D01*
X78857143Y-85992857D01*
X78828571Y-85964286D01*
X78771429Y-85878571D01*
X78742857Y-85764286D01*
X78742857Y-85535714D01*
X78771429Y-85478571D01*
X78800000Y-85450000D01*
X78857143Y-85421429D01*
X78971429Y-85421429D01*
X79028571Y-85450000D01*
X79057143Y-85478571D01*
X79085714Y-85535714D01*
X79085714Y-85678571D01*
X79057143Y-85735714D01*
X79028571Y-85764286D01*
X78971429Y-85792857D01*
X78857143Y-85792857D01*
X78800000Y-85764286D01*
X78771429Y-85735714D01*
X78742857Y-85678571D01*
X98771429Y-83864285D02*
X98485714Y-83664285D01*
X98771429Y-83521428D02*
X98171429Y-83521428D01*
X98171429Y-83750000D01*
X98200000Y-83807142D01*
X98228571Y-83835714D01*
X98285714Y-83864285D01*
X98371429Y-83864285D01*
X98428571Y-83835714D01*
X98457143Y-83807142D01*
X98485714Y-83750000D01*
X98485714Y-83521428D01*
X98171429Y-84064285D02*
X98171429Y-84464285D01*
X98771429Y-84207142D01*
X98171429Y-84807143D02*
X98171429Y-84864286D01*
X98200000Y-84921429D01*
X98228571Y-84950000D01*
X98285714Y-84978571D01*
X98400000Y-85007143D01*
X98542857Y-85007143D01*
X98657143Y-84978571D01*
X98714286Y-84950000D01*
X98742857Y-84921429D01*
X98771429Y-84864286D01*
X98771429Y-84807143D01*
X98742857Y-84750000D01*
X98714286Y-84721429D01*
X98657143Y-84692857D01*
X98542857Y-84664286D01*
X98400000Y-84664286D01*
X98285714Y-84692857D01*
X98228571Y-84721429D01*
X98200000Y-84750000D01*
X98171429Y-84807143D01*
X86100000Y-39771429D02*
X86300000Y-39485714D01*
X86442857Y-39771429D02*
X86442857Y-39171429D01*
X86214285Y-39171429D01*
X86157143Y-39200000D01*
X86128571Y-39228571D01*
X86100000Y-39285714D01*
X86100000Y-39371429D01*
X86128571Y-39428571D01*
X86157143Y-39457143D01*
X86214285Y-39485714D01*
X86442857Y-39485714D01*
X85757143Y-39428571D02*
X85814285Y-39400000D01*
X85842857Y-39371429D01*
X85871428Y-39314286D01*
X85871428Y-39285714D01*
X85842857Y-39228571D01*
X85814285Y-39200000D01*
X85757143Y-39171429D01*
X85642857Y-39171429D01*
X85585714Y-39200000D01*
X85557143Y-39228571D01*
X85528571Y-39285714D01*
X85528571Y-39314286D01*
X85557143Y-39371429D01*
X85585714Y-39400000D01*
X85642857Y-39428571D01*
X85757143Y-39428571D01*
X85814285Y-39457143D01*
X85842857Y-39485714D01*
X85871428Y-39542857D01*
X85871428Y-39657143D01*
X85842857Y-39714286D01*
X85814285Y-39742857D01*
X85757143Y-39771429D01*
X85642857Y-39771429D01*
X85585714Y-39742857D01*
X85557143Y-39714286D01*
X85528571Y-39657143D01*
X85528571Y-39542857D01*
X85557143Y-39485714D01*
X85585714Y-39457143D01*
X85642857Y-39428571D01*
X86271429Y-34900000D02*
X85985714Y-34700000D01*
X86271429Y-34557143D02*
X85671429Y-34557143D01*
X85671429Y-34785715D01*
X85700000Y-34842857D01*
X85728571Y-34871429D01*
X85785714Y-34900000D01*
X85871429Y-34900000D01*
X85928571Y-34871429D01*
X85957143Y-34842857D01*
X85985714Y-34785715D01*
X85985714Y-34557143D01*
X86271429Y-35185715D02*
X86271429Y-35300000D01*
X86242857Y-35357143D01*
X86214286Y-35385715D01*
X86128571Y-35442857D01*
X86014286Y-35471429D01*
X85785714Y-35471429D01*
X85728571Y-35442857D01*
X85700000Y-35414286D01*
X85671429Y-35357143D01*
X85671429Y-35242857D01*
X85700000Y-35185715D01*
X85728571Y-35157143D01*
X85785714Y-35128572D01*
X85928571Y-35128572D01*
X85985714Y-35157143D01*
X86014286Y-35185715D01*
X86042857Y-35242857D01*
X86042857Y-35357143D01*
X86014286Y-35414286D01*
X85985714Y-35442857D01*
X85928571Y-35471429D01*
X88885715Y-31271429D02*
X89085715Y-30985714D01*
X89228572Y-31271429D02*
X89228572Y-30671429D01*
X89000000Y-30671429D01*
X88942858Y-30700000D01*
X88914286Y-30728571D01*
X88885715Y-30785714D01*
X88885715Y-30871429D01*
X88914286Y-30928571D01*
X88942858Y-30957143D01*
X89000000Y-30985714D01*
X89228572Y-30985714D01*
X88314286Y-31271429D02*
X88657143Y-31271429D01*
X88485715Y-31271429D02*
X88485715Y-30671429D01*
X88542858Y-30757143D01*
X88600000Y-30814286D01*
X88657143Y-30842857D01*
X87942857Y-30671429D02*
X87885714Y-30671429D01*
X87828571Y-30700000D01*
X87800000Y-30728571D01*
X87771429Y-30785714D01*
X87742857Y-30900000D01*
X87742857Y-31042857D01*
X87771429Y-31157143D01*
X87800000Y-31214286D01*
X87828571Y-31242857D01*
X87885714Y-31271429D01*
X87942857Y-31271429D01*
X88000000Y-31242857D01*
X88028571Y-31214286D01*
X88057143Y-31157143D01*
X88085714Y-31042857D01*
X88085714Y-30900000D01*
X88057143Y-30785714D01*
X88028571Y-30728571D01*
X88000000Y-30700000D01*
X87942857Y-30671429D01*
X90271429Y-42114285D02*
X89985714Y-41914285D01*
X90271429Y-41771428D02*
X89671429Y-41771428D01*
X89671429Y-42000000D01*
X89700000Y-42057142D01*
X89728571Y-42085714D01*
X89785714Y-42114285D01*
X89871429Y-42114285D01*
X89928571Y-42085714D01*
X89957143Y-42057142D01*
X89985714Y-42000000D01*
X89985714Y-41771428D01*
X90271429Y-42685714D02*
X90271429Y-42342857D01*
X90271429Y-42514285D02*
X89671429Y-42514285D01*
X89757143Y-42457142D01*
X89814286Y-42400000D01*
X89842857Y-42342857D01*
X89671429Y-42885714D02*
X89671429Y-43257143D01*
X89900000Y-43057143D01*
X89900000Y-43142857D01*
X89928571Y-43200000D01*
X89957143Y-43228571D01*
X90014286Y-43257143D01*
X90157143Y-43257143D01*
X90214286Y-43228571D01*
X90242857Y-43200000D01*
X90271429Y-43142857D01*
X90271429Y-42971429D01*
X90242857Y-42914286D01*
X90214286Y-42885714D01*
X94385715Y-33271429D02*
X94585715Y-32985714D01*
X94728572Y-33271429D02*
X94728572Y-32671429D01*
X94500000Y-32671429D01*
X94442858Y-32700000D01*
X94414286Y-32728571D01*
X94385715Y-32785714D01*
X94385715Y-32871429D01*
X94414286Y-32928571D01*
X94442858Y-32957143D01*
X94500000Y-32985714D01*
X94728572Y-32985714D01*
X93814286Y-33271429D02*
X94157143Y-33271429D01*
X93985715Y-33271429D02*
X93985715Y-32671429D01*
X94042858Y-32757143D01*
X94100000Y-32814286D01*
X94157143Y-32842857D01*
X93300000Y-32871429D02*
X93300000Y-33271429D01*
X93442857Y-32642857D02*
X93585714Y-33071429D01*
X93214286Y-33071429D01*
X79885715Y-32021429D02*
X80085715Y-31735714D01*
X80228572Y-32021429D02*
X80228572Y-31421429D01*
X80000000Y-31421429D01*
X79942858Y-31450000D01*
X79914286Y-31478571D01*
X79885715Y-31535714D01*
X79885715Y-31621429D01*
X79914286Y-31678571D01*
X79942858Y-31707143D01*
X80000000Y-31735714D01*
X80228572Y-31735714D01*
X79314286Y-32021429D02*
X79657143Y-32021429D01*
X79485715Y-32021429D02*
X79485715Y-31421429D01*
X79542858Y-31507143D01*
X79600000Y-31564286D01*
X79657143Y-31592857D01*
X79028571Y-32021429D02*
X78914286Y-32021429D01*
X78857143Y-31992857D01*
X78828571Y-31964286D01*
X78771429Y-31878571D01*
X78742857Y-31764286D01*
X78742857Y-31535714D01*
X78771429Y-31478571D01*
X78800000Y-31450000D01*
X78857143Y-31421429D01*
X78971429Y-31421429D01*
X79028571Y-31450000D01*
X79057143Y-31478571D01*
X79085714Y-31535714D01*
X79085714Y-31678571D01*
X79057143Y-31735714D01*
X79028571Y-31764286D01*
X78971429Y-31792857D01*
X78857143Y-31792857D01*
X78800000Y-31764286D01*
X78771429Y-31735714D01*
X78742857Y-31678571D01*
X94635715Y-45271429D02*
X94835715Y-44985714D01*
X94978572Y-45271429D02*
X94978572Y-44671429D01*
X94750000Y-44671429D01*
X94692858Y-44700000D01*
X94664286Y-44728571D01*
X94635715Y-44785714D01*
X94635715Y-44871429D01*
X94664286Y-44928571D01*
X94692858Y-44957143D01*
X94750000Y-44985714D01*
X94978572Y-44985714D01*
X94407143Y-44728571D02*
X94378572Y-44700000D01*
X94321429Y-44671429D01*
X94178572Y-44671429D01*
X94121429Y-44700000D01*
X94092858Y-44728571D01*
X94064286Y-44785714D01*
X94064286Y-44842857D01*
X94092858Y-44928571D01*
X94435715Y-45271429D01*
X94064286Y-45271429D01*
X93492857Y-45271429D02*
X93835714Y-45271429D01*
X93664286Y-45271429D02*
X93664286Y-44671429D01*
X93721429Y-44757143D01*
X93778571Y-44814286D01*
X93835714Y-44842857D01*
X98771429Y-34864285D02*
X98485714Y-34664285D01*
X98771429Y-34521428D02*
X98171429Y-34521428D01*
X98171429Y-34750000D01*
X98200000Y-34807142D01*
X98228571Y-34835714D01*
X98285714Y-34864285D01*
X98371429Y-34864285D01*
X98428571Y-34835714D01*
X98457143Y-34807142D01*
X98485714Y-34750000D01*
X98485714Y-34521428D01*
X98228571Y-35092857D02*
X98200000Y-35121428D01*
X98171429Y-35178571D01*
X98171429Y-35321428D01*
X98200000Y-35378571D01*
X98228571Y-35407142D01*
X98285714Y-35435714D01*
X98342857Y-35435714D01*
X98428571Y-35407142D01*
X98771429Y-35064285D01*
X98771429Y-35435714D01*
X98228571Y-35664286D02*
X98200000Y-35692857D01*
X98171429Y-35750000D01*
X98171429Y-35892857D01*
X98200000Y-35950000D01*
X98228571Y-35978571D01*
X98285714Y-36007143D01*
X98342857Y-36007143D01*
X98428571Y-35978571D01*
X98771429Y-35635714D01*
X98771429Y-36007143D01*
X79885715Y-40021429D02*
X80085715Y-39735714D01*
X80228572Y-40021429D02*
X80228572Y-39421429D01*
X80000000Y-39421429D01*
X79942858Y-39450000D01*
X79914286Y-39478571D01*
X79885715Y-39535714D01*
X79885715Y-39621429D01*
X79914286Y-39678571D01*
X79942858Y-39707143D01*
X80000000Y-39735714D01*
X80228572Y-39735714D01*
X79657143Y-39478571D02*
X79628572Y-39450000D01*
X79571429Y-39421429D01*
X79428572Y-39421429D01*
X79371429Y-39450000D01*
X79342858Y-39478571D01*
X79314286Y-39535714D01*
X79314286Y-39592857D01*
X79342858Y-39678571D01*
X79685715Y-40021429D01*
X79314286Y-40021429D01*
X78771429Y-39421429D02*
X79057143Y-39421429D01*
X79085714Y-39707143D01*
X79057143Y-39678571D01*
X79000000Y-39650000D01*
X78857143Y-39650000D01*
X78800000Y-39678571D01*
X78771429Y-39707143D01*
X78742857Y-39764286D01*
X78742857Y-39907143D01*
X78771429Y-39964286D01*
X78800000Y-39992857D01*
X78857143Y-40021429D01*
X79000000Y-40021429D01*
X79057143Y-39992857D01*
X79085714Y-39964286D01*
X98771429Y-38114285D02*
X98485714Y-37914285D01*
X98771429Y-37771428D02*
X98171429Y-37771428D01*
X98171429Y-38000000D01*
X98200000Y-38057142D01*
X98228571Y-38085714D01*
X98285714Y-38114285D01*
X98371429Y-38114285D01*
X98428571Y-38085714D01*
X98457143Y-38057142D01*
X98485714Y-38000000D01*
X98485714Y-37771428D01*
X98228571Y-38342857D02*
X98200000Y-38371428D01*
X98171429Y-38428571D01*
X98171429Y-38571428D01*
X98200000Y-38628571D01*
X98228571Y-38657142D01*
X98285714Y-38685714D01*
X98342857Y-38685714D01*
X98428571Y-38657142D01*
X98771429Y-38314285D01*
X98771429Y-38685714D01*
X98171429Y-39200000D02*
X98171429Y-39085714D01*
X98200000Y-39028571D01*
X98228571Y-39000000D01*
X98314286Y-38942857D01*
X98428571Y-38914286D01*
X98657143Y-38914286D01*
X98714286Y-38942857D01*
X98742857Y-38971429D01*
X98771429Y-39028571D01*
X98771429Y-39142857D01*
X98742857Y-39200000D01*
X98714286Y-39228571D01*
X98657143Y-39257143D01*
X98514286Y-39257143D01*
X98457143Y-39228571D01*
X98428571Y-39200000D01*
X98400000Y-39142857D01*
X98400000Y-39028571D01*
X98428571Y-38971429D01*
X98457143Y-38942857D01*
X98514286Y-38914286D01*
X135135715Y-66964286D02*
X135164286Y-66992857D01*
X135250000Y-67021429D01*
X135307143Y-67021429D01*
X135392858Y-66992857D01*
X135450000Y-66935714D01*
X135478572Y-66878571D01*
X135507143Y-66764286D01*
X135507143Y-66678571D01*
X135478572Y-66564286D01*
X135450000Y-66507143D01*
X135392858Y-66450000D01*
X135307143Y-66421429D01*
X135250000Y-66421429D01*
X135164286Y-66450000D01*
X135135715Y-66478571D01*
X134792858Y-66678571D02*
X134850000Y-66650000D01*
X134878572Y-66621429D01*
X134907143Y-66564286D01*
X134907143Y-66535714D01*
X134878572Y-66478571D01*
X134850000Y-66450000D01*
X134792858Y-66421429D01*
X134678572Y-66421429D01*
X134621429Y-66450000D01*
X134592858Y-66478571D01*
X134564286Y-66535714D01*
X134564286Y-66564286D01*
X134592858Y-66621429D01*
X134621429Y-66650000D01*
X134678572Y-66678571D01*
X134792858Y-66678571D01*
X134850000Y-66707143D01*
X134878572Y-66735714D01*
X134907143Y-66792857D01*
X134907143Y-66907143D01*
X134878572Y-66964286D01*
X134850000Y-66992857D01*
X134792858Y-67021429D01*
X134678572Y-67021429D01*
X134621429Y-66992857D01*
X134592858Y-66964286D01*
X134564286Y-66907143D01*
X134564286Y-66792857D01*
X134592858Y-66735714D01*
X134621429Y-66707143D01*
X134678572Y-66678571D01*
X134050000Y-66621429D02*
X134050000Y-67021429D01*
X134192857Y-66392857D02*
X134335714Y-66821429D01*
X133964286Y-66821429D01*
X137964286Y-59614285D02*
X137992857Y-59585714D01*
X138021429Y-59500000D01*
X138021429Y-59442857D01*
X137992857Y-59357142D01*
X137935714Y-59300000D01*
X137878571Y-59271428D01*
X137764286Y-59242857D01*
X137678571Y-59242857D01*
X137564286Y-59271428D01*
X137507143Y-59300000D01*
X137450000Y-59357142D01*
X137421429Y-59442857D01*
X137421429Y-59500000D01*
X137450000Y-59585714D01*
X137478571Y-59614285D01*
X137678571Y-59957142D02*
X137650000Y-59900000D01*
X137621429Y-59871428D01*
X137564286Y-59842857D01*
X137535714Y-59842857D01*
X137478571Y-59871428D01*
X137450000Y-59900000D01*
X137421429Y-59957142D01*
X137421429Y-60071428D01*
X137450000Y-60128571D01*
X137478571Y-60157142D01*
X137535714Y-60185714D01*
X137564286Y-60185714D01*
X137621429Y-60157142D01*
X137650000Y-60128571D01*
X137678571Y-60071428D01*
X137678571Y-59957142D01*
X137707143Y-59900000D01*
X137735714Y-59871428D01*
X137792857Y-59842857D01*
X137907143Y-59842857D01*
X137964286Y-59871428D01*
X137992857Y-59900000D01*
X138021429Y-59957142D01*
X138021429Y-60071428D01*
X137992857Y-60128571D01*
X137964286Y-60157142D01*
X137907143Y-60185714D01*
X137792857Y-60185714D01*
X137735714Y-60157142D01*
X137707143Y-60128571D01*
X137678571Y-60071428D01*
X137421429Y-60728571D02*
X137421429Y-60442857D01*
X137707143Y-60414286D01*
X137678571Y-60442857D01*
X137650000Y-60500000D01*
X137650000Y-60642857D01*
X137678571Y-60700000D01*
X137707143Y-60728571D01*
X137764286Y-60757143D01*
X137907143Y-60757143D01*
X137964286Y-60728571D01*
X137992857Y-60700000D01*
X138021429Y-60642857D01*
X138021429Y-60500000D01*
X137992857Y-60442857D01*
X137964286Y-60414286D01*
X133635715Y-56214286D02*
X133664286Y-56242857D01*
X133750000Y-56271429D01*
X133807143Y-56271429D01*
X133892858Y-56242857D01*
X133950000Y-56185714D01*
X133978572Y-56128571D01*
X134007143Y-56014286D01*
X134007143Y-55928571D01*
X133978572Y-55814286D01*
X133950000Y-55757143D01*
X133892858Y-55700000D01*
X133807143Y-55671429D01*
X133750000Y-55671429D01*
X133664286Y-55700000D01*
X133635715Y-55728571D01*
X133292858Y-55928571D02*
X133350000Y-55900000D01*
X133378572Y-55871429D01*
X133407143Y-55814286D01*
X133407143Y-55785714D01*
X133378572Y-55728571D01*
X133350000Y-55700000D01*
X133292858Y-55671429D01*
X133178572Y-55671429D01*
X133121429Y-55700000D01*
X133092858Y-55728571D01*
X133064286Y-55785714D01*
X133064286Y-55814286D01*
X133092858Y-55871429D01*
X133121429Y-55900000D01*
X133178572Y-55928571D01*
X133292858Y-55928571D01*
X133350000Y-55957143D01*
X133378572Y-55985714D01*
X133407143Y-56042857D01*
X133407143Y-56157143D01*
X133378572Y-56214286D01*
X133350000Y-56242857D01*
X133292858Y-56271429D01*
X133178572Y-56271429D01*
X133121429Y-56242857D01*
X133092858Y-56214286D01*
X133064286Y-56157143D01*
X133064286Y-56042857D01*
X133092858Y-55985714D01*
X133121429Y-55957143D01*
X133178572Y-55928571D01*
X132550000Y-55671429D02*
X132664286Y-55671429D01*
X132721429Y-55700000D01*
X132750000Y-55728571D01*
X132807143Y-55814286D01*
X132835714Y-55928571D01*
X132835714Y-56157143D01*
X132807143Y-56214286D01*
X132778571Y-56242857D01*
X132721429Y-56271429D01*
X132607143Y-56271429D01*
X132550000Y-56242857D01*
X132521429Y-56214286D01*
X132492857Y-56157143D01*
X132492857Y-56014286D01*
X132521429Y-55957143D01*
X132550000Y-55928571D01*
X132607143Y-55900000D01*
X132721429Y-55900000D01*
X132778571Y-55928571D01*
X132807143Y-55957143D01*
X132835714Y-56014286D01*
X143771429Y-85078571D02*
X143485714Y-84878571D01*
X143771429Y-84735714D02*
X143171429Y-84735714D01*
X143171429Y-84964286D01*
X143200000Y-85021428D01*
X143228571Y-85050000D01*
X143285714Y-85078571D01*
X143371429Y-85078571D01*
X143428571Y-85050000D01*
X143457143Y-85021428D01*
X143485714Y-84964286D01*
X143485714Y-84735714D01*
X143771429Y-85650000D02*
X143771429Y-85307143D01*
X143771429Y-85478571D02*
X143171429Y-85478571D01*
X143257143Y-85421428D01*
X143314286Y-85364286D01*
X143342857Y-85307143D01*
X143371429Y-86164286D02*
X143771429Y-86164286D01*
X143142857Y-86021429D02*
X143571429Y-85878572D01*
X143571429Y-86250000D01*
X143771429Y-86507144D02*
X143771429Y-86621429D01*
X143742857Y-86678572D01*
X143714286Y-86707144D01*
X143628571Y-86764286D01*
X143514286Y-86792858D01*
X143285714Y-86792858D01*
X143228571Y-86764286D01*
X143200000Y-86735715D01*
X143171429Y-86678572D01*
X143171429Y-86564286D01*
X143200000Y-86507144D01*
X143228571Y-86478572D01*
X143285714Y-86450001D01*
X143428571Y-86450001D01*
X143485714Y-86478572D01*
X143514286Y-86507144D01*
X143542857Y-86564286D01*
X143542857Y-86678572D01*
X143514286Y-86735715D01*
X143485714Y-86764286D01*
X143428571Y-86792858D01*
X144521429Y-93578571D02*
X144235714Y-93378571D01*
X144521429Y-93235714D02*
X143921429Y-93235714D01*
X143921429Y-93464286D01*
X143950000Y-93521428D01*
X143978571Y-93550000D01*
X144035714Y-93578571D01*
X144121429Y-93578571D01*
X144178571Y-93550000D01*
X144207143Y-93521428D01*
X144235714Y-93464286D01*
X144235714Y-93235714D01*
X144521429Y-94150000D02*
X144521429Y-93807143D01*
X144521429Y-93978571D02*
X143921429Y-93978571D01*
X144007143Y-93921428D01*
X144064286Y-93864286D01*
X144092857Y-93807143D01*
X143921429Y-94692857D02*
X143921429Y-94407143D01*
X144207143Y-94378572D01*
X144178571Y-94407143D01*
X144150000Y-94464286D01*
X144150000Y-94607143D01*
X144178571Y-94664286D01*
X144207143Y-94692857D01*
X144264286Y-94721429D01*
X144407143Y-94721429D01*
X144464286Y-94692857D01*
X144492857Y-94664286D01*
X144521429Y-94607143D01*
X144521429Y-94464286D01*
X144492857Y-94407143D01*
X144464286Y-94378572D01*
X143921429Y-95092858D02*
X143921429Y-95150001D01*
X143950000Y-95207144D01*
X143978571Y-95235715D01*
X144035714Y-95264286D01*
X144150000Y-95292858D01*
X144292857Y-95292858D01*
X144407143Y-95264286D01*
X144464286Y-95235715D01*
X144492857Y-95207144D01*
X144521429Y-95150001D01*
X144521429Y-95092858D01*
X144492857Y-95035715D01*
X144464286Y-95007144D01*
X144407143Y-94978572D01*
X144292857Y-94950001D01*
X144150000Y-94950001D01*
X144035714Y-94978572D01*
X143978571Y-95007144D01*
X143950000Y-95035715D01*
X143921429Y-95092858D01*
X143021429Y-93578571D02*
X142735714Y-93378571D01*
X143021429Y-93235714D02*
X142421429Y-93235714D01*
X142421429Y-93464286D01*
X142450000Y-93521428D01*
X142478571Y-93550000D01*
X142535714Y-93578571D01*
X142621429Y-93578571D01*
X142678571Y-93550000D01*
X142707143Y-93521428D01*
X142735714Y-93464286D01*
X142735714Y-93235714D01*
X143021429Y-94150000D02*
X143021429Y-93807143D01*
X143021429Y-93978571D02*
X142421429Y-93978571D01*
X142507143Y-93921428D01*
X142564286Y-93864286D01*
X142592857Y-93807143D01*
X142421429Y-94692857D02*
X142421429Y-94407143D01*
X142707143Y-94378572D01*
X142678571Y-94407143D01*
X142650000Y-94464286D01*
X142650000Y-94607143D01*
X142678571Y-94664286D01*
X142707143Y-94692857D01*
X142764286Y-94721429D01*
X142907143Y-94721429D01*
X142964286Y-94692857D01*
X142992857Y-94664286D01*
X143021429Y-94607143D01*
X143021429Y-94464286D01*
X142992857Y-94407143D01*
X142964286Y-94378572D01*
X143021429Y-95292858D02*
X143021429Y-94950001D01*
X143021429Y-95121429D02*
X142421429Y-95121429D01*
X142507143Y-95064286D01*
X142564286Y-95007144D01*
X142592857Y-94950001D01*
X145521429Y-85078571D02*
X145235714Y-84878571D01*
X145521429Y-84735714D02*
X144921429Y-84735714D01*
X144921429Y-84964286D01*
X144950000Y-85021428D01*
X144978571Y-85050000D01*
X145035714Y-85078571D01*
X145121429Y-85078571D01*
X145178571Y-85050000D01*
X145207143Y-85021428D01*
X145235714Y-84964286D01*
X145235714Y-84735714D01*
X145521429Y-85650000D02*
X145521429Y-85307143D01*
X145521429Y-85478571D02*
X144921429Y-85478571D01*
X145007143Y-85421428D01*
X145064286Y-85364286D01*
X145092857Y-85307143D01*
X144921429Y-86192857D02*
X144921429Y-85907143D01*
X145207143Y-85878572D01*
X145178571Y-85907143D01*
X145150000Y-85964286D01*
X145150000Y-86107143D01*
X145178571Y-86164286D01*
X145207143Y-86192857D01*
X145264286Y-86221429D01*
X145407143Y-86221429D01*
X145464286Y-86192857D01*
X145492857Y-86164286D01*
X145521429Y-86107143D01*
X145521429Y-85964286D01*
X145492857Y-85907143D01*
X145464286Y-85878572D01*
X144978571Y-86450001D02*
X144950000Y-86478572D01*
X144921429Y-86535715D01*
X144921429Y-86678572D01*
X144950000Y-86735715D01*
X144978571Y-86764286D01*
X145035714Y-86792858D01*
X145092857Y-86792858D01*
X145178571Y-86764286D01*
X145521429Y-86421429D01*
X145521429Y-86792858D01*
X124671429Y-50742857D02*
X124671429Y-51085714D01*
X125271429Y-50914285D02*
X124671429Y-50914285D01*
X125271429Y-51285714D02*
X124671429Y-51285714D01*
X124671429Y-51514286D01*
X124700000Y-51571428D01*
X124728571Y-51600000D01*
X124785714Y-51628571D01*
X124871429Y-51628571D01*
X124928571Y-51600000D01*
X124957143Y-51571428D01*
X124985714Y-51514286D01*
X124985714Y-51285714D01*
X124871429Y-52142857D02*
X125271429Y-52142857D01*
X124642857Y-52000000D02*
X125071429Y-51857143D01*
X125071429Y-52228571D01*
X124671429Y-96742857D02*
X124671429Y-97085714D01*
X125271429Y-96914285D02*
X124671429Y-96914285D01*
X125271429Y-97285714D02*
X124671429Y-97285714D01*
X124671429Y-97514286D01*
X124700000Y-97571428D01*
X124728571Y-97600000D01*
X124785714Y-97628571D01*
X124871429Y-97628571D01*
X124928571Y-97600000D01*
X124957143Y-97571428D01*
X124985714Y-97514286D01*
X124985714Y-97285714D01*
X124671429Y-98171428D02*
X124671429Y-97885714D01*
X124957143Y-97857143D01*
X124928571Y-97885714D01*
X124900000Y-97942857D01*
X124900000Y-98085714D01*
X124928571Y-98142857D01*
X124957143Y-98171428D01*
X125014286Y-98200000D01*
X125157143Y-98200000D01*
X125214286Y-98171428D01*
X125242857Y-98142857D01*
X125271429Y-98085714D01*
X125271429Y-97942857D01*
X125242857Y-97885714D01*
X125214286Y-97857143D01*
X129507143Y-47421429D02*
X129164286Y-47421429D01*
X129335715Y-48021429D02*
X129335715Y-47421429D01*
X128964286Y-48021429D02*
X128964286Y-47421429D01*
X128735714Y-47421429D01*
X128678572Y-47450000D01*
X128650000Y-47478571D01*
X128621429Y-47535714D01*
X128621429Y-47621429D01*
X128650000Y-47678571D01*
X128678572Y-47707143D01*
X128735714Y-47735714D01*
X128964286Y-47735714D01*
X128107143Y-47421429D02*
X128221429Y-47421429D01*
X128278572Y-47450000D01*
X128307143Y-47478571D01*
X128364286Y-47564286D01*
X128392857Y-47678571D01*
X128392857Y-47907143D01*
X128364286Y-47964286D01*
X128335714Y-47992857D01*
X128278572Y-48021429D01*
X128164286Y-48021429D01*
X128107143Y-47992857D01*
X128078572Y-47964286D01*
X128050000Y-47907143D01*
X128050000Y-47764286D01*
X128078572Y-47707143D01*
X128107143Y-47678571D01*
X128164286Y-47650000D01*
X128278572Y-47650000D01*
X128335714Y-47678571D01*
X128364286Y-47707143D01*
X128392857Y-47764286D01*
X129507143Y-91171429D02*
X129164286Y-91171429D01*
X129335715Y-91771429D02*
X129335715Y-91171429D01*
X128964286Y-91771429D02*
X128964286Y-91171429D01*
X128735714Y-91171429D01*
X128678572Y-91200000D01*
X128650000Y-91228571D01*
X128621429Y-91285714D01*
X128621429Y-91371429D01*
X128650000Y-91428571D01*
X128678572Y-91457143D01*
X128735714Y-91485714D01*
X128964286Y-91485714D01*
X128421429Y-91171429D02*
X128021429Y-91171429D01*
X128278572Y-91771429D01*
X134042857Y-45421429D02*
X133700000Y-45421429D01*
X133871429Y-46021429D02*
X133871429Y-45421429D01*
X133500000Y-46021429D02*
X133500000Y-45421429D01*
X133271428Y-45421429D01*
X133214286Y-45450000D01*
X133185714Y-45478571D01*
X133157143Y-45535714D01*
X133157143Y-45621429D01*
X133185714Y-45678571D01*
X133214286Y-45707143D01*
X133271428Y-45735714D01*
X133500000Y-45735714D01*
X132585714Y-46021429D02*
X132928571Y-46021429D01*
X132757143Y-46021429D02*
X132757143Y-45421429D01*
X132814286Y-45507143D01*
X132871428Y-45564286D01*
X132928571Y-45592857D01*
X132014285Y-46021429D02*
X132357142Y-46021429D01*
X132185714Y-46021429D02*
X132185714Y-45421429D01*
X132242857Y-45507143D01*
X132299999Y-45564286D01*
X132357142Y-45592857D01*
X134542857Y-90421429D02*
X134200000Y-90421429D01*
X134371429Y-91021429D02*
X134371429Y-90421429D01*
X134000000Y-91021429D02*
X134000000Y-90421429D01*
X133771428Y-90421429D01*
X133714286Y-90450000D01*
X133685714Y-90478571D01*
X133657143Y-90535714D01*
X133657143Y-90621429D01*
X133685714Y-90678571D01*
X133714286Y-90707143D01*
X133771428Y-90735714D01*
X134000000Y-90735714D01*
X133085714Y-91021429D02*
X133428571Y-91021429D01*
X133257143Y-91021429D02*
X133257143Y-90421429D01*
X133314286Y-90507143D01*
X133371428Y-90564286D01*
X133428571Y-90592857D01*
X132857142Y-90478571D02*
X132828571Y-90450000D01*
X132771428Y-90421429D01*
X132628571Y-90421429D01*
X132571428Y-90450000D01*
X132542857Y-90478571D01*
X132514285Y-90535714D01*
X132514285Y-90592857D01*
X132542857Y-90678571D01*
X132885714Y-91021429D01*
X132514285Y-91021429D01*
X129292857Y-31671429D02*
X128950000Y-31671429D01*
X129121429Y-32271429D02*
X129121429Y-31671429D01*
X128750000Y-32271429D02*
X128750000Y-31671429D01*
X128521428Y-31671429D01*
X128464286Y-31700000D01*
X128435714Y-31728571D01*
X128407143Y-31785714D01*
X128407143Y-31871429D01*
X128435714Y-31928571D01*
X128464286Y-31957143D01*
X128521428Y-31985714D01*
X128750000Y-31985714D01*
X127835714Y-32271429D02*
X128178571Y-32271429D01*
X128007143Y-32271429D02*
X128007143Y-31671429D01*
X128064286Y-31757143D01*
X128121428Y-31814286D01*
X128178571Y-31842857D01*
X127635714Y-31671429D02*
X127264285Y-31671429D01*
X127464285Y-31900000D01*
X127378571Y-31900000D01*
X127321428Y-31928571D01*
X127292857Y-31957143D01*
X127264285Y-32014286D01*
X127264285Y-32157143D01*
X127292857Y-32214286D01*
X127321428Y-32242857D01*
X127378571Y-32271429D01*
X127549999Y-32271429D01*
X127607142Y-32242857D01*
X127635714Y-32214286D01*
X127292857Y-79171429D02*
X126950000Y-79171429D01*
X127121429Y-79771429D02*
X127121429Y-79171429D01*
X126750000Y-79771429D02*
X126750000Y-79171429D01*
X126521428Y-79171429D01*
X126464286Y-79200000D01*
X126435714Y-79228571D01*
X126407143Y-79285714D01*
X126407143Y-79371429D01*
X126435714Y-79428571D01*
X126464286Y-79457143D01*
X126521428Y-79485714D01*
X126750000Y-79485714D01*
X125835714Y-79771429D02*
X126178571Y-79771429D01*
X126007143Y-79771429D02*
X126007143Y-79171429D01*
X126064286Y-79257143D01*
X126121428Y-79314286D01*
X126178571Y-79342857D01*
X125321428Y-79371429D02*
X125321428Y-79771429D01*
X125464285Y-79142857D02*
X125607142Y-79571429D01*
X125235714Y-79571429D01*
X116450000Y-71921429D02*
X116450000Y-72350000D01*
X116478572Y-72435714D01*
X116535715Y-72492857D01*
X116621429Y-72521429D01*
X116678572Y-72521429D01*
X116221429Y-71921429D02*
X115850000Y-71921429D01*
X116050000Y-72150000D01*
X115964286Y-72150000D01*
X115907143Y-72178571D01*
X115878572Y-72207143D01*
X115850000Y-72264286D01*
X115850000Y-72407143D01*
X115878572Y-72464286D01*
X115907143Y-72492857D01*
X115964286Y-72521429D01*
X116135714Y-72521429D01*
X116192857Y-72492857D01*
X116221429Y-72464286D01*
X92964286Y-36400000D02*
X92992857Y-36371429D01*
X93021429Y-36285715D01*
X93021429Y-36228572D01*
X92992857Y-36142857D01*
X92935714Y-36085715D01*
X92878571Y-36057143D01*
X92764286Y-36028572D01*
X92678571Y-36028572D01*
X92564286Y-36057143D01*
X92507143Y-36085715D01*
X92450000Y-36142857D01*
X92421429Y-36228572D01*
X92421429Y-36285715D01*
X92450000Y-36371429D01*
X92478571Y-36400000D01*
X92421429Y-36600000D02*
X92421429Y-37000000D01*
X93021429Y-36742857D01*
X92714286Y-82364285D02*
X92742857Y-82335714D01*
X92771429Y-82250000D01*
X92771429Y-82192857D01*
X92742857Y-82107142D01*
X92685714Y-82050000D01*
X92628571Y-82021428D01*
X92514286Y-81992857D01*
X92428571Y-81992857D01*
X92314286Y-82021428D01*
X92257143Y-82050000D01*
X92200000Y-82107142D01*
X92171429Y-82192857D01*
X92171429Y-82250000D01*
X92200000Y-82335714D01*
X92228571Y-82364285D01*
X92371429Y-82878571D02*
X92771429Y-82878571D01*
X92142857Y-82735714D02*
X92571429Y-82592857D01*
X92571429Y-82964285D01*
X92171429Y-83450000D02*
X92171429Y-83335714D01*
X92200000Y-83278571D01*
X92228571Y-83250000D01*
X92314286Y-83192857D01*
X92428571Y-83164286D01*
X92657143Y-83164286D01*
X92714286Y-83192857D01*
X92742857Y-83221429D01*
X92771429Y-83278571D01*
X92771429Y-83392857D01*
X92742857Y-83450000D01*
X92714286Y-83478571D01*
X92657143Y-83507143D01*
X92514286Y-83507143D01*
X92457143Y-83478571D01*
X92428571Y-83450000D01*
X92400000Y-83392857D01*
X92400000Y-83278571D01*
X92428571Y-83221429D01*
X92457143Y-83192857D01*
X92514286Y-83164286D01*
%LPC*%
D12*
X116000000Y-88250000D02*
X116000000Y-90000000D01*
X109000000Y-93250000D02*
X109250000Y-93500000D01*
X108750000Y-93250000D02*
X109000000Y-93250000D01*
X105750000Y-93250000D02*
X108750000Y-93250000D01*
X104750000Y-94250000D02*
X105750000Y-93250000D01*
X104750000Y-96250000D02*
X104750000Y-94250000D01*
X105500000Y-97000000D02*
X104750000Y-96250000D01*
X109000000Y-97000000D02*
X105500000Y-97000000D01*
X109250000Y-96750000D02*
X109000000Y-97000000D01*
X109250000Y-93500000D02*
X109250000Y-96750000D01*
X115250000Y-87500000D02*
X116000000Y-88250000D01*
X113750000Y-87500000D02*
X115250000Y-87500000D01*
X113000000Y-88250000D02*
X113750000Y-87500000D01*
X113000000Y-90000000D02*
X113000000Y-88250000D01*
X113500000Y-90500000D02*
X113000000Y-90000000D01*
X115500000Y-90500000D02*
X113500000Y-90500000D01*
X116000000Y-90000000D02*
X115500000Y-90500000D01*
X113000000Y-44000000D02*
X113000000Y-43250000D01*
X113250000Y-44250000D02*
X113000000Y-44000000D01*
X115500000Y-44250000D02*
X113250000Y-44250000D01*
X116000000Y-43750000D02*
X115500000Y-44250000D01*
X116000000Y-42000000D02*
X116000000Y-43750000D01*
X115500000Y-41500000D02*
X116000000Y-42000000D01*
X113500000Y-41500000D02*
X115500000Y-41500000D01*
X113000000Y-42000000D02*
X113500000Y-41500000D01*
X113000000Y-43250000D02*
X113000000Y-42000000D01*
X105000000Y-48000000D02*
X105500000Y-47500000D01*
X105000000Y-50250000D02*
X105000000Y-48000000D01*
X105500000Y-50750000D02*
X105000000Y-50250000D01*
X108500000Y-50750000D02*
X105500000Y-50750000D01*
X109000000Y-50250000D02*
X108500000Y-50750000D01*
X109000000Y-48000000D02*
X109000000Y-50250000D01*
X108500000Y-47500000D02*
X109000000Y-48000000D01*
X105500000Y-47500000D02*
X108500000Y-47500000D01*
X94750000Y-82000000D02*
X94750000Y-84750000D01*
X96250000Y-81250000D02*
X97750000Y-81250000D01*
X95500000Y-82000000D02*
X96250000Y-81250000D01*
X94000000Y-82000000D02*
X95500000Y-82000000D01*
X94000000Y-79500000D02*
X94000000Y-82000000D01*
X86500000Y-82000000D02*
X91000000Y-82000000D01*
X88500000Y-79500000D02*
X88500000Y-77500000D01*
X88750000Y-79750000D02*
X88500000Y-79500000D01*
X88750000Y-84000000D02*
X88750000Y-79750000D01*
X88500000Y-84250000D02*
X88750000Y-84000000D01*
X88500000Y-87000000D02*
X88500000Y-84250000D01*
X90000000Y-87000000D02*
X88500000Y-87000000D01*
X90500000Y-86500000D02*
X90000000Y-87000000D01*
X93000000Y-86500000D02*
X90500000Y-86500000D01*
X93000000Y-85500000D02*
X93750000Y-85500000D01*
X93000000Y-90500000D02*
X93000000Y-85500000D01*
X88500000Y-33500000D02*
X88500000Y-31750000D01*
X88750000Y-33750000D02*
X88500000Y-33500000D01*
X88750000Y-36000000D02*
X88750000Y-33750000D01*
X96000000Y-35250000D02*
X97750000Y-35250000D01*
X95250000Y-36000000D02*
X96000000Y-35250000D01*
X94750000Y-36000000D02*
X95250000Y-36000000D01*
X94000000Y-36000000D02*
X94000000Y-33750000D01*
X94750000Y-36000000D02*
X94000000Y-36000000D01*
X94750000Y-38750000D02*
X94750000Y-36000000D01*
X93000000Y-40500000D02*
X93000000Y-44500000D01*
X93000000Y-39500000D02*
X93750000Y-39500000D01*
X93000000Y-40500000D02*
X93000000Y-39500000D01*
X90500000Y-40500000D02*
X93000000Y-40500000D01*
X90000000Y-41000000D02*
X90500000Y-40500000D01*
X88500000Y-41000000D02*
X90000000Y-41000000D01*
X88500000Y-38500000D02*
X88500000Y-41000000D01*
X88750000Y-38250000D02*
X88500000Y-38500000D01*
X88750000Y-36000000D02*
X88750000Y-38250000D01*
X86500000Y-36000000D02*
X91000000Y-36000000D01*
D16*
X128010000Y-21200000D03*
X126740000Y-21200000D03*
X125470000Y-21200000D03*
X124200000Y-21200000D03*
X122930000Y-21200000D03*
X121660000Y-21200000D03*
X120390000Y-21200000D03*
D17*
X117785000Y-22200000D03*
X130615000Y-21200000D03*
D18*
X130000000Y-36000000D03*
X130500000Y-35500000D03*
X130500000Y-36500000D03*
X129500000Y-36500000D03*
X129500000Y-35500000D03*
X121500000Y-53500000D03*
X121100000Y-53100000D03*
X121900000Y-53100000D03*
X121900000Y-53900000D03*
X121100000Y-53900000D03*
X130000000Y-82000000D03*
X130500000Y-81500000D03*
X130500000Y-82500000D03*
X129500000Y-82500000D03*
X129500000Y-81500000D03*
X121500000Y-99500000D03*
X121100000Y-99100000D03*
X121900000Y-99100000D03*
X121900000Y-99900000D03*
X121100000Y-99900000D03*
D19*
X114500000Y-89000000D03*
X114500000Y-79000000D03*
D20*
X94750000Y-41500000D03*
X94750000Y-39500000D03*
D21*
X100120000Y-94500000D03*
D22*
X95040000Y-94500000D03*
X89960000Y-94500000D03*
D23*
X84880000Y-94500000D03*
D24*
X86000000Y-26000000D03*
X81000000Y-26000000D03*
D25*
X152274000Y-62580000D03*
D26*
X152274000Y-60040000D03*
X152274000Y-57500000D03*
X152274000Y-52420000D03*
X149226000Y-62580000D03*
X149226000Y-60040000D03*
X149226000Y-57500000D03*
X149226000Y-54960000D03*
X149226000Y-52420000D03*
D19*
X114500000Y-43000000D03*
X114500000Y-33000000D03*
D24*
X82000000Y-87000000D03*
X77000000Y-87000000D03*
X86000000Y-72000000D03*
X81000000Y-72000000D03*
X82000000Y-79000000D03*
X77000000Y-79000000D03*
X117000000Y-95000000D03*
X112000000Y-95000000D03*
X117000000Y-49000000D03*
X112000000Y-49000000D03*
X82000000Y-33000000D03*
X77000000Y-33000000D03*
X82000000Y-41000000D03*
X77000000Y-41000000D03*
D27*
X84400000Y-72000000D03*
X82600000Y-72000000D03*
D28*
X127500000Y-73300000D03*
X127500000Y-72200000D03*
D29*
X121250000Y-94700000D03*
X121250000Y-93800000D03*
X126500000Y-91100000D03*
X126500000Y-92000000D03*
D30*
X129300000Y-89750000D03*
X130200000Y-89750000D03*
X132450000Y-95000000D03*
X131550000Y-95000000D03*
X121300000Y-82250000D03*
X122200000Y-82250000D03*
X124700000Y-87250000D03*
X123800000Y-87250000D03*
D28*
X124500000Y-72200000D03*
X124500000Y-73300000D03*
D29*
X121250000Y-92450000D03*
X121250000Y-91550000D03*
X126500000Y-93800000D03*
X126500000Y-94700000D03*
D30*
X131550000Y-89750000D03*
X132450000Y-89750000D03*
X130200000Y-95000000D03*
X129300000Y-95000000D03*
X123550000Y-82250000D03*
X124450000Y-82250000D03*
X122450000Y-87250000D03*
X121550000Y-87250000D03*
D31*
X136000000Y-63400000D03*
X136000000Y-61600000D03*
D21*
X158000000Y-97000000D03*
D19*
X158000000Y-99000000D03*
D21*
X158000000Y-71000000D03*
D19*
X158000000Y-73000000D03*
D21*
X146500000Y-41500000D03*
D19*
X146500000Y-43500000D03*
D21*
X139000000Y-29500000D03*
D19*
X139000000Y-31500000D03*
D27*
X84400000Y-26000000D03*
X82600000Y-26000000D03*
D28*
X127500000Y-27050000D03*
X127500000Y-25950000D03*
D29*
X121000000Y-48950000D03*
X121000000Y-48050000D03*
X126250000Y-45700000D03*
X126250000Y-44800000D03*
D30*
X132950000Y-49000000D03*
X132050000Y-49000000D03*
X129300000Y-43500000D03*
X130200000Y-43500000D03*
X124550000Y-41500000D03*
X125450000Y-41500000D03*
X121300000Y-36000000D03*
X122200000Y-36000000D03*
D28*
X124500000Y-25950000D03*
X124500000Y-27050000D03*
D29*
X121000000Y-46450000D03*
X121000000Y-45550000D03*
X126250000Y-48950000D03*
X126250000Y-48050000D03*
D30*
X130500000Y-49000000D03*
X129600000Y-49000000D03*
X131550000Y-43500000D03*
X132450000Y-43500000D03*
X122950000Y-41500000D03*
X122050000Y-41500000D03*
X123800000Y-36000000D03*
X124700000Y-36000000D03*
D19*
X75000000Y-46000000D03*
X75000000Y-48540000D03*
D32*
X69920000Y-40920000D03*
X69920000Y-51080000D03*
D19*
X75000000Y-92000000D03*
X75000000Y-94540000D03*
D32*
X69920000Y-86920000D03*
X69920000Y-97080000D03*
D25*
X157500000Y-30310000D03*
D26*
X157500000Y-27770000D03*
X157500000Y-25230000D03*
X157500000Y-22690000D03*
D21*
X107000000Y-95120000D03*
D33*
X107000000Y-90040000D03*
X107000000Y-84960000D03*
D23*
X107000000Y-79880000D03*
D21*
X107000000Y-49120000D03*
D33*
X107000000Y-44040000D03*
X107000000Y-38960000D03*
D23*
X107000000Y-33880000D03*
D21*
X100120000Y-48500000D03*
D22*
X95040000Y-48500000D03*
X89960000Y-48500000D03*
D23*
X84880000Y-48500000D03*
D34*
X87500000Y-85500000D03*
X89500000Y-85500000D03*
D20*
X87500000Y-81000000D03*
X87500000Y-83000000D03*
D34*
X89500000Y-78500000D03*
X87500000Y-78500000D03*
D20*
X91500000Y-85500000D03*
X91500000Y-87500000D03*
D34*
X93000000Y-80500000D03*
X95000000Y-80500000D03*
D35*
X80250000Y-79000000D03*
X78750000Y-79000000D03*
D34*
X92000000Y-89500000D03*
X94000000Y-89500000D03*
D20*
X97000000Y-80250000D03*
X97000000Y-82250000D03*
X94750000Y-87500000D03*
X94750000Y-85500000D03*
D35*
X80250000Y-87000000D03*
X78750000Y-87000000D03*
D20*
X97000000Y-83750000D03*
X97000000Y-85750000D03*
D34*
X87500000Y-39500000D03*
X89500000Y-39500000D03*
D20*
X87500000Y-35000000D03*
X87500000Y-37000000D03*
D34*
X89500000Y-32500000D03*
X87500000Y-32500000D03*
D20*
X91500000Y-39500000D03*
X91500000Y-41500000D03*
D34*
X93000000Y-34500000D03*
X95000000Y-34500000D03*
D35*
X80250000Y-33000000D03*
X78750000Y-33000000D03*
D34*
X92000000Y-43500000D03*
X94000000Y-43500000D03*
D20*
X97000000Y-34250000D03*
X97000000Y-36250000D03*
D35*
X80250000Y-41000000D03*
X78750000Y-41000000D03*
D20*
X97000000Y-38000000D03*
X97000000Y-40000000D03*
D36*
X158160000Y-105000000D03*
X137840000Y-105000000D03*
D37*
X140000000Y-52000000D03*
D21*
X157000000Y-41749940D03*
D19*
X157000000Y-45250060D03*
D21*
X137500000Y-21249940D03*
D19*
X137500000Y-24750060D03*
D30*
X135400000Y-65000000D03*
X134500000Y-65000000D03*
D29*
X137750000Y-62900000D03*
X137750000Y-62000000D03*
D30*
X130350000Y-56000000D03*
X131250000Y-56000000D03*
D38*
X143500000Y-88550000D03*
X143500000Y-89450000D03*
X144250000Y-91100000D03*
X144250000Y-92000000D03*
X142750000Y-91100000D03*
X142750000Y-92000000D03*
X145250000Y-88550000D03*
X145250000Y-89450000D03*
D37*
X123500000Y-52000000D03*
X123500000Y-97500000D03*
X128750000Y-46500000D03*
X128750000Y-92750000D03*
X131250000Y-45000000D03*
X131500000Y-91750000D03*
X128000000Y-33250000D03*
X128250000Y-80000000D03*
D16*
X128120000Y-68250000D03*
X126850000Y-68250000D03*
X125580000Y-68250000D03*
X124310000Y-68250000D03*
X123040000Y-68250000D03*
X121770000Y-68250000D03*
X120500000Y-68250000D03*
D17*
X117895000Y-69250000D03*
X130725000Y-68250000D03*
D39*
X90500000Y-34510000D03*
X90500000Y-37490000D03*
X90500000Y-80510000D03*
X90500000Y-83490000D03*
D40*
G36*
X132123000Y-118373000D02*
X97877000Y-118373000D01*
X97877000Y-117750000D01*
X97877000Y-112627000D01*
X132123000Y-112627000D01*
X132123000Y-118373000D01*
X132123000Y-118373000D01*
G37*
X132123000Y-118373000D02*
X97877000Y-118373000D01*
X97877000Y-117750000D01*
X97877000Y-112627000D01*
X132123000Y-112627000D01*
X132123000Y-118373000D01*
G36*
X84873000Y-21373000D02*
X76377000Y-21373000D01*
X76377000Y-18627000D01*
X84873000Y-18627000D01*
X84873000Y-21373000D01*
X84873000Y-21373000D01*
G37*
X84873000Y-21373000D02*
X76377000Y-21373000D01*
X76377000Y-18627000D01*
X84873000Y-18627000D01*
X84873000Y-21373000D01*
D13*
G36*
X73875000Y-37875000D02*
X63125000Y-37875000D01*
X63125000Y-19125000D01*
X73875000Y-19125000D01*
X73875000Y-37875000D01*
X73875000Y-37875000D01*
G37*
X73875000Y-37875000D02*
X63125000Y-37875000D01*
X63125000Y-19125000D01*
X73875000Y-19125000D01*
X73875000Y-37875000D01*
G36*
X130875000Y-36698223D02*
X130698223Y-36875000D01*
X129301777Y-36875000D01*
X129125000Y-36698223D01*
X129125000Y-35301777D01*
X129301777Y-35125000D01*
X130698223Y-35125000D01*
X130875000Y-35301777D01*
X130875000Y-36698223D01*
X130875000Y-36698223D01*
G37*
X130875000Y-36698223D02*
X130698223Y-36875000D01*
X129301777Y-36875000D01*
X129125000Y-36698223D01*
X129125000Y-35301777D01*
X129301777Y-35125000D01*
X130698223Y-35125000D01*
X130875000Y-35301777D01*
X130875000Y-36698223D01*
G36*
X130875000Y-82698223D02*
X130698223Y-82875000D01*
X129301777Y-82875000D01*
X129125000Y-82698223D01*
X129125000Y-81301777D01*
X129301777Y-81125000D01*
X130698223Y-81125000D01*
X130875000Y-81301777D01*
X130875000Y-82698223D01*
X130875000Y-82698223D01*
G37*
X130875000Y-82698223D02*
X130698223Y-82875000D01*
X129301777Y-82875000D01*
X129125000Y-82698223D01*
X129125000Y-81301777D01*
X129301777Y-81125000D01*
X130698223Y-81125000D01*
X130875000Y-81301777D01*
X130875000Y-82698223D01*
G36*
X131375000Y-95375000D02*
X130375000Y-95375000D01*
X130375000Y-94625000D01*
X131375000Y-94625000D01*
X131375000Y-95375000D01*
X131375000Y-95375000D01*
G37*
X131375000Y-95375000D02*
X130375000Y-95375000D01*
X130375000Y-94625000D01*
X131375000Y-94625000D01*
X131375000Y-95375000D01*
G36*
X131875000Y-49125000D02*
X130625000Y-49125000D01*
X130625000Y-48375000D01*
X131875000Y-48375000D01*
X131875000Y-49125000D01*
X131875000Y-49125000D01*
G37*
X131875000Y-49125000D02*
X130625000Y-49125000D01*
X130625000Y-48375000D01*
X131875000Y-48375000D01*
X131875000Y-49125000D01*
M02*
