G04 #@! TF.FileFunction,Profile,NP*
%FSLAX46Y46*%
G04 Gerber Fmt 4.6, Leading zero omitted, Abs format (unit mm)*
G04 Created by KiCad (PCBNEW (after 2015-may-25 BZR unknown)-product) date Fri 29 May 2015 05:56:03 PM EDT*
%MOMM*%
G01*
G04 APERTURE LIST*
%ADD10C,0.100000*%
G04 APERTURE END LIST*
D10*
X110900000Y-117700000D02*
X111200000Y-118000000D01*
X132100000Y-117700000D02*
X131800000Y-118000000D01*
X111200000Y-118000000D02*
X131800000Y-118000000D01*
X108700000Y-118000000D02*
X109100000Y-117600000D01*
X98200000Y-118000000D02*
X108700000Y-118000000D01*
X97900000Y-117700000D02*
X98200000Y-118000000D01*
X112000000Y-86500000D02*
X112000000Y-81500000D01*
X111000000Y-82500000D02*
X111000000Y-86500000D01*
X111000000Y-86500000D02*
G75*
G03X112000000Y-86500000I500000J0D01*
G01*
X112000000Y-81500000D02*
G75*
G03X111500000Y-81000000I-500000J0D01*
G01*
X111000000Y-82500000D02*
G75*
G03X110500000Y-82000000I-500000J0D01*
G01*
X118250000Y-79500000D02*
X118250000Y-86500000D01*
X118250000Y-79500000D02*
G75*
G03X117250000Y-79500000I-500000J0D01*
G01*
X117250000Y-86500000D02*
G75*
G03X118250000Y-86500000I500000J0D01*
G01*
X117250000Y-86500000D02*
X117250000Y-79500000D01*
X118250000Y-33750000D02*
X118250000Y-40750000D01*
X117250000Y-40750000D02*
X117250000Y-33750000D01*
X117250000Y-40750000D02*
G75*
G03X118250000Y-40750000I500000J0D01*
G01*
X118250000Y-33750000D02*
G75*
G03X117250000Y-33750000I-500000J0D01*
G01*
X111500000Y-36000000D02*
X111500000Y-40750000D01*
X111000000Y-35500000D02*
X110500000Y-35500000D01*
X111500000Y-36000000D02*
G75*
G03X111000000Y-35500000I-500000J0D01*
G01*
X110500000Y-37000000D02*
X110500000Y-40750000D01*
X110000000Y-36500000D02*
X106000000Y-36500000D01*
X110500000Y-37000000D02*
G75*
G03X110000000Y-36500000I-500000J0D01*
G01*
X105750000Y-82000000D02*
X110500000Y-82000000D01*
X111500000Y-81000000D02*
X105750000Y-81000000D01*
X110500000Y-35500000D02*
X106000000Y-35500000D01*
X115250000Y-31500000D02*
G75*
G03X115250000Y-30500000I0J500000D01*
G01*
X105750000Y-30500000D02*
G75*
G03X105750000Y-31500000I0J-500000D01*
G01*
X105750000Y-31500000D02*
X115250000Y-31500000D01*
X105750000Y-30500000D02*
X115250000Y-30500000D01*
X110500000Y-40750000D02*
G75*
G03X111500000Y-40750000I500000J0D01*
G01*
X106000000Y-35500000D02*
G75*
G03X106000000Y-36500000I0J-500000D01*
G01*
X115250000Y-77750000D02*
G75*
G03X115250000Y-76750000I0J500000D01*
G01*
X105750000Y-77750000D02*
X115250000Y-77750000D01*
X105750000Y-76750000D02*
X115250000Y-76750000D01*
X105750000Y-76750000D02*
G75*
G03X105750000Y-77750000I0J-500000D01*
G01*
X105750000Y-81000000D02*
G75*
G03X105750000Y-82000000I0J-500000D01*
G01*
X132900000Y-109000000D02*
G75*
G03X132100000Y-109800000I0J-800000D01*
G01*
X133000000Y-109000000D02*
X132900000Y-109000000D01*
X132100000Y-117700000D02*
X132100000Y-109800000D01*
X110900000Y-110700000D02*
X110900000Y-117700000D01*
X110900000Y-110700000D02*
G75*
G03X109100000Y-110700000I-900000J0D01*
G01*
X109100000Y-117600000D02*
X109100000Y-110700000D01*
X97900000Y-109800000D02*
X97900000Y-117700000D01*
X97900000Y-109800000D02*
G75*
G03X97100000Y-109000000I-800000J0D01*
G01*
X97000000Y-109000000D02*
X97100000Y-109000000D01*
X162000000Y-109000000D02*
X133000000Y-109000000D01*
X162000000Y-18000000D02*
X162000000Y-109000000D01*
X152000000Y-18000000D02*
X162000000Y-18000000D01*
X62000000Y-18000000D02*
X152000000Y-18000000D01*
X62000000Y-109000000D02*
X62000000Y-18000000D01*
X97000000Y-109000000D02*
X62000000Y-109000000D01*
M02*
