G04 #@! TF.FileFunction,Legend,Top*
%FSLAX46Y46*%
G04 Gerber Fmt 4.6, Leading zero omitted, Abs format (unit mm)*
G04 Created by KiCad (PCBNEW (after 2015-may-01 BZR unknown)-product) date Sat 23 May 2015 10:21:05 PM EDT*
%MOMM*%
G01*
G04 APERTURE LIST*
%ADD10C,0.100000*%
%ADD11C,0.200000*%
%ADD12C,0.150000*%
%ADD13C,0.300000*%
%ADD14C,0.350000*%
%ADD15C,0.002540*%
%ADD16C,0.381000*%
%ADD17O,1.500000X0.300000*%
%ADD18O,0.300000X1.500000*%
%ADD19O,0.300000X0.850000*%
%ADD20R,0.300000X0.850000*%
%ADD21O,0.850000X0.300000*%
%ADD22R,0.850000X0.300000*%
%ADD23R,2.550000X2.550000*%
%ADD24O,0.650000X0.300000*%
%ADD25R,1.450000X1.450000*%
%ADD26C,1.500000*%
%ADD27O,1.450000X0.450000*%
%ADD28R,0.600000X0.600000*%
%ADD29R,1.500000X1.500000*%
%ADD30O,1.500000X2.500000*%
%ADD31O,1.500000X1.500000*%
%ADD32R,4.200000X1.500000*%
%ADD33R,1.524000X16.256000*%
%ADD34C,1.300000*%
%ADD35R,2.286000X1.524000*%
%ADD36O,2.286000X1.524000*%
%ADD37R,1.110000X3.000000*%
%ADD38R,0.701040X4.000500*%
%ADD39R,0.701040X3.200400*%
%ADD40R,1.200000X1.600000*%
%ADD41R,1.450000X1.150000*%
%ADD42R,0.950000X0.900000*%
%ADD43R,1.200000X1.800000*%
%ADD44R,0.900000X0.950000*%
%ADD45R,2.350000X2.450000*%
%ADD46R,0.750000X2.200000*%
%ADD47R,2.200000X0.750000*%
%ADD48R,2.450000X2.350000*%
%ADD49R,1.800000X2.250000*%
%ADD50R,0.650000X0.600000*%
%ADD51R,2.250000X1.800000*%
%ADD52R,1.150000X1.450000*%
%ADD53R,0.850000X0.650000*%
%ADD54R,0.650000X0.850000*%
%ADD55R,2.300000X1.500000*%
%ADD56R,2.400000X1.550000*%
%ADD57R,1.800000X1.050000*%
%ADD58R,1.050000X1.800000*%
%ADD59C,3.200000*%
%ADD60O,2.500000X1.500000*%
%ADD61O,1.500000X0.600000*%
%ADD62R,0.850000X1.000000*%
%ADD63R,0.950000X1.450000*%
%ADD64R,1.450000X0.950000*%
%ADD65R,1.000000X0.850000*%
%ADD66R,0.900000X1.300000*%
%ADD67R,0.800000X1.300000*%
%ADD68O,1.550000X0.400000*%
%ADD69O,0.400000X1.550000*%
%ADD70O,0.450000X1.450000*%
%ADD71R,2.300000X3.800000*%
%ADD72R,10.900000X9.550000*%
%ADD73R,2.450000X1.450000*%
%ADD74R,6.950000X6.950000*%
%ADD75C,2.500000*%
%ADD76C,1.200000*%
%ADD77R,0.899160X0.800100*%
%ADD78R,0.600000X0.650000*%
%ADD79R,1.300000X0.900000*%
%ADD80R,1.300000X0.800000*%
%ADD81R,1.500000X0.280000*%
%ADD82R,0.950000X1.500000*%
%ADD83R,2.300000X1.200000*%
%ADD84R,0.700000X0.650000*%
%ADD85C,0.254000*%
G04 APERTURE END LIST*
D10*
D11*
X90500000Y-54000000D02*
X90500000Y-54500000D01*
X84500000Y-54000000D02*
X90500000Y-54000000D01*
X84500000Y-54500000D02*
X84500000Y-54000000D01*
X90500000Y-67000000D02*
X90500000Y-66500000D01*
X84500000Y-67000000D02*
X90500000Y-67000000D01*
X84500000Y-66500000D02*
X84500000Y-67000000D01*
D12*
X131400000Y-71057143D02*
X132009524Y-71057143D01*
X131704762Y-71361905D02*
X131704762Y-70752381D01*
X132314286Y-70561905D02*
X132809524Y-70561905D01*
X132542857Y-70866667D01*
X132657143Y-70866667D01*
X132733333Y-70904762D01*
X132771429Y-70942857D01*
X132809524Y-71019048D01*
X132809524Y-71209524D01*
X132771429Y-71285714D01*
X132733333Y-71323810D01*
X132657143Y-71361905D01*
X132428571Y-71361905D01*
X132352381Y-71323810D01*
X132314286Y-71285714D01*
X133152381Y-71285714D02*
X133190476Y-71323810D01*
X133152381Y-71361905D01*
X133114286Y-71323810D01*
X133152381Y-71285714D01*
X133152381Y-71361905D01*
X133457143Y-70561905D02*
X133952381Y-70561905D01*
X133685714Y-70866667D01*
X133800000Y-70866667D01*
X133876190Y-70904762D01*
X133914286Y-70942857D01*
X133952381Y-71019048D01*
X133952381Y-71209524D01*
X133914286Y-71285714D01*
X133876190Y-71323810D01*
X133800000Y-71361905D01*
X133571428Y-71361905D01*
X133495238Y-71323810D01*
X133457143Y-71285714D01*
X134257143Y-71133333D02*
X134638095Y-71133333D01*
X134180952Y-71361905D02*
X134447619Y-70561905D01*
X134714286Y-71361905D01*
X68814286Y-79557143D02*
X69423810Y-79557143D01*
X70185715Y-79061905D02*
X69804762Y-79061905D01*
X69766667Y-79442857D01*
X69804762Y-79404762D01*
X69880953Y-79366667D01*
X70071429Y-79366667D01*
X70147619Y-79404762D01*
X70185715Y-79442857D01*
X70223810Y-79519048D01*
X70223810Y-79709524D01*
X70185715Y-79785714D01*
X70147619Y-79823810D01*
X70071429Y-79861905D01*
X69880953Y-79861905D01*
X69804762Y-79823810D01*
X69766667Y-79785714D01*
X68814286Y-77557143D02*
X69423810Y-77557143D01*
X69119048Y-77861905D02*
X69119048Y-77252381D01*
X70185715Y-77061905D02*
X69804762Y-77061905D01*
X69766667Y-77442857D01*
X69804762Y-77404762D01*
X69880953Y-77366667D01*
X70071429Y-77366667D01*
X70147619Y-77404762D01*
X70185715Y-77442857D01*
X70223810Y-77519048D01*
X70223810Y-77709524D01*
X70185715Y-77785714D01*
X70147619Y-77823810D01*
X70071429Y-77861905D01*
X69880953Y-77861905D01*
X69804762Y-77823810D01*
X69766667Y-77785714D01*
D11*
X114789432Y-108342857D02*
X115332289Y-108342857D01*
X114910861Y-109542857D02*
X115060861Y-108342857D01*
X115498956Y-109542857D02*
X115648956Y-108342857D01*
X115906099Y-109542857D02*
X115984670Y-108914286D01*
X115953718Y-108800000D01*
X115870385Y-108742857D01*
X115734671Y-108742857D01*
X115637052Y-108800000D01*
X115584670Y-108857143D01*
X116358480Y-109542857D02*
X116458480Y-108742857D01*
X116508480Y-108342857D02*
X116456099Y-108400000D01*
X116494194Y-108457143D01*
X116546576Y-108400000D01*
X116508480Y-108342857D01*
X116494194Y-108457143D01*
X116772766Y-109485714D02*
X116856100Y-109542857D01*
X117037052Y-109542857D01*
X117134671Y-109485714D01*
X117194194Y-109371429D01*
X117201337Y-109314286D01*
X117170385Y-109200000D01*
X117087052Y-109142857D01*
X116951338Y-109142857D01*
X116868004Y-109085714D01*
X116837051Y-108971429D01*
X116844194Y-108914286D01*
X116903718Y-108800000D01*
X117001338Y-108742857D01*
X117137052Y-108742857D01*
X117220385Y-108800000D01*
X118303719Y-109542857D02*
X118403719Y-108742857D01*
X118453719Y-108342857D02*
X118401338Y-108400000D01*
X118439433Y-108457143D01*
X118491815Y-108400000D01*
X118453719Y-108342857D01*
X118439433Y-108457143D01*
X118718005Y-109485714D02*
X118801339Y-109542857D01*
X118982291Y-109542857D01*
X119079910Y-109485714D01*
X119139433Y-109371429D01*
X119146576Y-109314286D01*
X119115624Y-109200000D01*
X119032291Y-109142857D01*
X118896577Y-109142857D01*
X118813243Y-109085714D01*
X118782290Y-108971429D01*
X118789433Y-108914286D01*
X118848957Y-108800000D01*
X118946577Y-108742857D01*
X119082291Y-108742857D01*
X119165624Y-108800000D01*
X120348958Y-108742857D02*
X120248958Y-109542857D01*
X120334672Y-108857143D02*
X120387054Y-108800000D01*
X120484673Y-108742857D01*
X120620387Y-108742857D01*
X120703720Y-108800000D01*
X120734672Y-108914286D01*
X120656101Y-109542857D01*
X121244197Y-109542857D02*
X121160864Y-109485714D01*
X121122768Y-109428571D01*
X121091815Y-109314286D01*
X121134672Y-108971429D01*
X121194196Y-108857143D01*
X121246578Y-108800000D01*
X121344197Y-108742857D01*
X121479911Y-108742857D01*
X121563244Y-108800000D01*
X121601339Y-108857143D01*
X121632291Y-108971429D01*
X121589434Y-109314286D01*
X121529911Y-109428571D01*
X121477530Y-109485714D01*
X121379911Y-109542857D01*
X121244197Y-109542857D01*
X121932292Y-108742857D02*
X122294197Y-108742857D01*
X122118006Y-108342857D02*
X121989434Y-109371429D01*
X122020388Y-109485714D01*
X122103721Y-109542857D01*
X122194197Y-109542857D01*
X123648959Y-109485714D02*
X123551340Y-109542857D01*
X123370388Y-109542857D01*
X123287055Y-109485714D01*
X123248959Y-109428571D01*
X123218006Y-109314286D01*
X123260863Y-108971429D01*
X123320387Y-108857143D01*
X123372769Y-108800000D01*
X123470388Y-108742857D01*
X123651340Y-108742857D01*
X123734673Y-108800000D01*
X124048959Y-109542857D02*
X124198959Y-108342857D01*
X124456102Y-109542857D02*
X124534673Y-108914286D01*
X124503721Y-108800000D01*
X124420388Y-108742857D01*
X124284674Y-108742857D01*
X124187055Y-108800000D01*
X124134673Y-108857143D01*
X125277531Y-109485714D02*
X125179912Y-109542857D01*
X124998960Y-109542857D01*
X124915626Y-109485714D01*
X124884673Y-109371429D01*
X124941816Y-108914286D01*
X125001340Y-108800000D01*
X125098960Y-108742857D01*
X125279912Y-108742857D01*
X125363245Y-108800000D01*
X125394197Y-108914286D01*
X125379912Y-109028571D01*
X124913245Y-109142857D01*
X126091817Y-109485714D02*
X125994198Y-109542857D01*
X125813246Y-109542857D01*
X125729912Y-109485714D01*
X125698959Y-109371429D01*
X125756102Y-108914286D01*
X125815626Y-108800000D01*
X125913246Y-108742857D01*
X126094198Y-108742857D01*
X126177531Y-108800000D01*
X126208483Y-108914286D01*
X126194198Y-109028571D01*
X125727531Y-109142857D01*
X126498960Y-109485714D02*
X126582294Y-109542857D01*
X126763246Y-109542857D01*
X126860865Y-109485714D01*
X126920388Y-109371429D01*
X126927531Y-109314286D01*
X126896579Y-109200000D01*
X126813246Y-109142857D01*
X126677532Y-109142857D01*
X126594198Y-109085714D01*
X126563245Y-108971429D01*
X126570388Y-108914286D01*
X126629912Y-108800000D01*
X126727532Y-108742857D01*
X126863246Y-108742857D01*
X126946579Y-108800000D01*
X127675151Y-109485714D02*
X127577532Y-109542857D01*
X127396580Y-109542857D01*
X127313246Y-109485714D01*
X127282293Y-109371429D01*
X127339436Y-108914286D01*
X127398960Y-108800000D01*
X127496580Y-108742857D01*
X127677532Y-108742857D01*
X127760865Y-108800000D01*
X127791817Y-108914286D01*
X127777532Y-109028571D01*
X127310865Y-109142857D01*
X128134675Y-109428571D02*
X128172771Y-109485714D01*
X128120389Y-109542857D01*
X128082294Y-109485714D01*
X128134675Y-109428571D01*
X128120389Y-109542857D01*
D12*
X85012857Y-65614285D02*
X85012857Y-64928571D01*
X86212857Y-65271428D02*
X85012857Y-65271428D01*
X86212857Y-64528571D02*
X85012857Y-64528571D01*
X85584286Y-64528571D02*
X85584286Y-63842856D01*
X86212857Y-63842856D02*
X85012857Y-63842856D01*
X86212857Y-63271428D02*
X85012857Y-63271428D01*
X86155714Y-62757142D02*
X86212857Y-62585713D01*
X86212857Y-62299999D01*
X86155714Y-62185713D01*
X86098571Y-62128570D01*
X85984286Y-62071427D01*
X85870000Y-62071427D01*
X85755714Y-62128570D01*
X85698571Y-62185713D01*
X85641429Y-62299999D01*
X85584286Y-62528570D01*
X85527143Y-62642856D01*
X85470000Y-62699999D01*
X85355714Y-62757142D01*
X85241429Y-62757142D01*
X85127143Y-62699999D01*
X85070000Y-62642856D01*
X85012857Y-62528570D01*
X85012857Y-62242856D01*
X85070000Y-62071427D01*
X86155714Y-60699999D02*
X86212857Y-60528570D01*
X86212857Y-60242856D01*
X86155714Y-60128570D01*
X86098571Y-60071427D01*
X85984286Y-60014284D01*
X85870000Y-60014284D01*
X85755714Y-60071427D01*
X85698571Y-60128570D01*
X85641429Y-60242856D01*
X85584286Y-60471427D01*
X85527143Y-60585713D01*
X85470000Y-60642856D01*
X85355714Y-60699999D01*
X85241429Y-60699999D01*
X85127143Y-60642856D01*
X85070000Y-60585713D01*
X85012857Y-60471427D01*
X85012857Y-60185713D01*
X85070000Y-60014284D01*
X86212857Y-59499999D02*
X85012857Y-59499999D01*
X85012857Y-59042856D01*
X85070000Y-58928570D01*
X85127143Y-58871427D01*
X85241429Y-58814284D01*
X85412857Y-58814284D01*
X85527143Y-58871427D01*
X85584286Y-58928570D01*
X85641429Y-59042856D01*
X85641429Y-59499999D01*
X85870000Y-58357142D02*
X85870000Y-57785713D01*
X86212857Y-58471427D02*
X85012857Y-58071427D01*
X86212857Y-57671427D01*
X86098571Y-56585713D02*
X86155714Y-56642856D01*
X86212857Y-56814285D01*
X86212857Y-56928571D01*
X86155714Y-57099999D01*
X86041429Y-57214285D01*
X85927143Y-57271428D01*
X85698571Y-57328571D01*
X85527143Y-57328571D01*
X85298571Y-57271428D01*
X85184286Y-57214285D01*
X85070000Y-57099999D01*
X85012857Y-56928571D01*
X85012857Y-56814285D01*
X85070000Y-56642856D01*
X85127143Y-56585713D01*
X85584286Y-56071428D02*
X85584286Y-55671428D01*
X86212857Y-55499999D02*
X86212857Y-56071428D01*
X85012857Y-56071428D01*
X85012857Y-55499999D01*
X87700000Y-66500000D02*
X87700000Y-65928571D01*
X88042857Y-66614285D02*
X86842857Y-66214285D01*
X88042857Y-65814285D01*
X87928571Y-64728571D02*
X87985714Y-64785714D01*
X88042857Y-64957143D01*
X88042857Y-65071429D01*
X87985714Y-65242857D01*
X87871429Y-65357143D01*
X87757143Y-65414286D01*
X87528571Y-65471429D01*
X87357143Y-65471429D01*
X87128571Y-65414286D01*
X87014286Y-65357143D01*
X86900000Y-65242857D01*
X86842857Y-65071429D01*
X86842857Y-64957143D01*
X86900000Y-64785714D01*
X86957143Y-64728571D01*
X87928571Y-63528571D02*
X87985714Y-63585714D01*
X88042857Y-63757143D01*
X88042857Y-63871429D01*
X87985714Y-64042857D01*
X87871429Y-64157143D01*
X87757143Y-64214286D01*
X87528571Y-64271429D01*
X87357143Y-64271429D01*
X87128571Y-64214286D01*
X87014286Y-64157143D01*
X86900000Y-64042857D01*
X86842857Y-63871429D01*
X86842857Y-63757143D01*
X86900000Y-63585714D01*
X86957143Y-63528571D01*
X88042857Y-63014286D02*
X86842857Y-63014286D01*
X88042857Y-62442857D02*
X86842857Y-62442857D01*
X86842857Y-62157142D01*
X86900000Y-61985714D01*
X87014286Y-61871428D01*
X87128571Y-61814285D01*
X87357143Y-61757142D01*
X87528571Y-61757142D01*
X87757143Y-61814285D01*
X87871429Y-61871428D01*
X87985714Y-61985714D01*
X88042857Y-62157142D01*
X88042857Y-62442857D01*
X87414286Y-61242857D02*
X87414286Y-60842857D01*
X88042857Y-60671428D02*
X88042857Y-61242857D01*
X86842857Y-61242857D01*
X86842857Y-60671428D01*
X88042857Y-60157143D02*
X86842857Y-60157143D01*
X88042857Y-59471428D01*
X86842857Y-59471428D01*
X86842857Y-59071428D02*
X86842857Y-58385714D01*
X88042857Y-58728571D02*
X86842857Y-58728571D01*
X87700000Y-58042857D02*
X87700000Y-57471428D01*
X88042857Y-58157142D02*
X86842857Y-57757142D01*
X88042857Y-57357142D01*
X88042857Y-56385714D02*
X88042857Y-56957143D01*
X86842857Y-56957143D01*
X88042857Y-55414285D02*
X88042857Y-55985714D01*
X86842857Y-55985714D01*
X87471429Y-54785713D02*
X88042857Y-54785713D01*
X86842857Y-55185713D02*
X87471429Y-54785713D01*
X86842857Y-54385713D01*
X89872857Y-64928571D02*
X89872857Y-65500000D01*
X88672857Y-65500000D01*
X89244286Y-64528571D02*
X89244286Y-64128571D01*
X89872857Y-63957142D02*
X89872857Y-64528571D01*
X88672857Y-64528571D01*
X88672857Y-63957142D01*
X89244286Y-63042857D02*
X89244286Y-63442857D01*
X89872857Y-63442857D02*
X88672857Y-63442857D01*
X88672857Y-62871428D01*
X88672857Y-62585714D02*
X88672857Y-61900000D01*
X89872857Y-62242857D02*
X88672857Y-62242857D01*
X89244286Y-60185714D02*
X89301429Y-60014285D01*
X89358571Y-59957142D01*
X89472857Y-59899999D01*
X89644286Y-59899999D01*
X89758571Y-59957142D01*
X89815714Y-60014285D01*
X89872857Y-60128571D01*
X89872857Y-60585714D01*
X88672857Y-60585714D01*
X88672857Y-60185714D01*
X88730000Y-60071428D01*
X88787143Y-60014285D01*
X88901429Y-59957142D01*
X89015714Y-59957142D01*
X89130000Y-60014285D01*
X89187143Y-60071428D01*
X89244286Y-60185714D01*
X89244286Y-60585714D01*
X89872857Y-58814285D02*
X89872857Y-59385714D01*
X88672857Y-59385714D01*
X89530000Y-58471428D02*
X89530000Y-57899999D01*
X89872857Y-58585713D02*
X88672857Y-58185713D01*
X89872857Y-57785713D01*
X89872857Y-57385714D02*
X88672857Y-57385714D01*
X89872857Y-56699999D01*
X88672857Y-56699999D01*
X89872857Y-56128571D02*
X88672857Y-56128571D01*
X89872857Y-55442856D02*
X89187143Y-55957142D01*
X88672857Y-55442856D02*
X89358571Y-56128571D01*
D11*
X62500000Y-18500000D02*
X76000000Y-18500000D01*
X62500000Y-35500000D02*
X62500000Y-18500000D01*
D13*
X158042857Y-56942858D02*
X156842857Y-56942858D01*
X157700000Y-56542858D01*
X156842857Y-56142858D01*
X158042857Y-56142858D01*
X157928571Y-54885714D02*
X157985714Y-54942857D01*
X158042857Y-55114286D01*
X158042857Y-55228572D01*
X157985714Y-55400000D01*
X157871429Y-55514286D01*
X157757143Y-55571429D01*
X157528571Y-55628572D01*
X157357143Y-55628572D01*
X157128571Y-55571429D01*
X157014286Y-55514286D01*
X156900000Y-55400000D01*
X156842857Y-55228572D01*
X156842857Y-55114286D01*
X156900000Y-54942857D01*
X156957143Y-54885714D01*
X156842857Y-54371429D02*
X157814286Y-54371429D01*
X157928571Y-54314286D01*
X157985714Y-54257143D01*
X158042857Y-54142857D01*
X158042857Y-53914286D01*
X157985714Y-53800000D01*
X157928571Y-53742857D01*
X157814286Y-53685714D01*
X156842857Y-53685714D01*
X157985714Y-52257143D02*
X158042857Y-52085714D01*
X158042857Y-51800000D01*
X157985714Y-51685714D01*
X157928571Y-51628571D01*
X157814286Y-51571428D01*
X157700000Y-51571428D01*
X157585714Y-51628571D01*
X157528571Y-51685714D01*
X157471429Y-51800000D01*
X157414286Y-52028571D01*
X157357143Y-52142857D01*
X157300000Y-52200000D01*
X157185714Y-52257143D01*
X157071429Y-52257143D01*
X156957143Y-52200000D01*
X156900000Y-52142857D01*
X156842857Y-52028571D01*
X156842857Y-51742857D01*
X156900000Y-51571428D01*
X156842857Y-51171428D02*
X158042857Y-50885714D01*
X157185714Y-50657143D01*
X158042857Y-50428571D01*
X156842857Y-50142857D01*
X158042857Y-49685714D02*
X156842857Y-49685714D01*
X156842857Y-49399999D01*
X156900000Y-49228571D01*
X157014286Y-49114285D01*
X157128571Y-49057142D01*
X157357143Y-48999999D01*
X157528571Y-48999999D01*
X157757143Y-49057142D01*
X157871429Y-49114285D01*
X157985714Y-49228571D01*
X158042857Y-49399999D01*
X158042857Y-49685714D01*
D11*
X97588665Y-105954417D02*
X98088665Y-105954417D01*
X98088665Y-99704417D02*
X97588665Y-99704417D01*
X98088665Y-105954417D02*
X98088665Y-99704417D01*
X84250000Y-106000000D02*
X84750000Y-106000000D01*
X84250000Y-99750000D02*
X84250000Y-106000000D01*
X84750000Y-99750000D02*
X84250000Y-99750000D01*
D12*
X85885715Y-100512857D02*
X86571429Y-100512857D01*
X86228572Y-101712857D02*
X86228572Y-100512857D01*
X86971429Y-101712857D02*
X86971429Y-100512857D01*
X86971429Y-101084286D02*
X87657144Y-101084286D01*
X87657144Y-101712857D02*
X87657144Y-100512857D01*
X88228572Y-101712857D02*
X88228572Y-100512857D01*
X88742858Y-101655714D02*
X88914287Y-101712857D01*
X89200001Y-101712857D01*
X89314287Y-101655714D01*
X89371430Y-101598571D01*
X89428573Y-101484286D01*
X89428573Y-101370000D01*
X89371430Y-101255714D01*
X89314287Y-101198571D01*
X89200001Y-101141429D01*
X88971430Y-101084286D01*
X88857144Y-101027143D01*
X88800001Y-100970000D01*
X88742858Y-100855714D01*
X88742858Y-100741429D01*
X88800001Y-100627143D01*
X88857144Y-100570000D01*
X88971430Y-100512857D01*
X89257144Y-100512857D01*
X89428573Y-100570000D01*
X90800001Y-101655714D02*
X90971430Y-101712857D01*
X91257144Y-101712857D01*
X91371430Y-101655714D01*
X91428573Y-101598571D01*
X91485716Y-101484286D01*
X91485716Y-101370000D01*
X91428573Y-101255714D01*
X91371430Y-101198571D01*
X91257144Y-101141429D01*
X91028573Y-101084286D01*
X90914287Y-101027143D01*
X90857144Y-100970000D01*
X90800001Y-100855714D01*
X90800001Y-100741429D01*
X90857144Y-100627143D01*
X90914287Y-100570000D01*
X91028573Y-100512857D01*
X91314287Y-100512857D01*
X91485716Y-100570000D01*
X92000001Y-101712857D02*
X92000001Y-100512857D01*
X92457144Y-100512857D01*
X92571430Y-100570000D01*
X92628573Y-100627143D01*
X92685716Y-100741429D01*
X92685716Y-100912857D01*
X92628573Y-101027143D01*
X92571430Y-101084286D01*
X92457144Y-101141429D01*
X92000001Y-101141429D01*
X93142858Y-101370000D02*
X93714287Y-101370000D01*
X93028573Y-101712857D02*
X93428573Y-100512857D01*
X93828573Y-101712857D01*
X94914287Y-101598571D02*
X94857144Y-101655714D01*
X94685715Y-101712857D01*
X94571429Y-101712857D01*
X94400001Y-101655714D01*
X94285715Y-101541429D01*
X94228572Y-101427143D01*
X94171429Y-101198571D01*
X94171429Y-101027143D01*
X94228572Y-100798571D01*
X94285715Y-100684286D01*
X94400001Y-100570000D01*
X94571429Y-100512857D01*
X94685715Y-100512857D01*
X94857144Y-100570000D01*
X94914287Y-100627143D01*
X95428572Y-101084286D02*
X95828572Y-101084286D01*
X96000001Y-101712857D02*
X95428572Y-101712857D01*
X95428572Y-100512857D01*
X96000001Y-100512857D01*
X84742856Y-103542857D02*
X84742856Y-102342857D01*
X85314285Y-103542857D02*
X85314285Y-102342857D01*
X86000000Y-103542857D01*
X86000000Y-102342857D01*
X86400000Y-102342857D02*
X87085714Y-102342857D01*
X86742857Y-103542857D02*
X86742857Y-102342857D01*
X87485714Y-102914286D02*
X87885714Y-102914286D01*
X88057143Y-103542857D02*
X87485714Y-103542857D01*
X87485714Y-102342857D01*
X88057143Y-102342857D01*
X88571428Y-103542857D02*
X88571428Y-102342857D01*
X89257143Y-103542857D01*
X89257143Y-102342857D01*
X89657143Y-102342857D02*
X90342857Y-102342857D01*
X90000000Y-103542857D02*
X90000000Y-102342857D01*
X90742857Y-103542857D02*
X90742857Y-102342857D01*
X91542858Y-102342857D02*
X91771429Y-102342857D01*
X91885715Y-102400000D01*
X92000001Y-102514286D01*
X92057143Y-102742857D01*
X92057143Y-103142857D01*
X92000001Y-103371429D01*
X91885715Y-103485714D01*
X91771429Y-103542857D01*
X91542858Y-103542857D01*
X91428572Y-103485714D01*
X91314286Y-103371429D01*
X91257143Y-103142857D01*
X91257143Y-102742857D01*
X91314286Y-102514286D01*
X91428572Y-102400000D01*
X91542858Y-102342857D01*
X92571429Y-103542857D02*
X92571429Y-102342857D01*
X93257144Y-103542857D01*
X93257144Y-102342857D01*
X93771429Y-103200000D02*
X94342858Y-103200000D01*
X93657144Y-103542857D02*
X94057144Y-102342857D01*
X94457144Y-103542857D01*
X95428572Y-103542857D02*
X94857143Y-103542857D01*
X94857143Y-102342857D01*
X96400001Y-103542857D02*
X95828572Y-103542857D01*
X95828572Y-102342857D01*
X97028573Y-102971429D02*
X97028573Y-103542857D01*
X96628573Y-102342857D02*
X97028573Y-102971429D01*
X97428573Y-102342857D01*
X86571429Y-105372857D02*
X86000000Y-105372857D01*
X86000000Y-104172857D01*
X86971429Y-104744286D02*
X87371429Y-104744286D01*
X87542858Y-105372857D02*
X86971429Y-105372857D01*
X86971429Y-104172857D01*
X87542858Y-104172857D01*
X88457143Y-104744286D02*
X88057143Y-104744286D01*
X88057143Y-105372857D02*
X88057143Y-104172857D01*
X88628572Y-104172857D01*
X88914286Y-104172857D02*
X89600000Y-104172857D01*
X89257143Y-105372857D02*
X89257143Y-104172857D01*
X91314286Y-104744286D02*
X91485715Y-104801429D01*
X91542858Y-104858571D01*
X91600001Y-104972857D01*
X91600001Y-105144286D01*
X91542858Y-105258571D01*
X91485715Y-105315714D01*
X91371429Y-105372857D01*
X90914286Y-105372857D01*
X90914286Y-104172857D01*
X91314286Y-104172857D01*
X91428572Y-104230000D01*
X91485715Y-104287143D01*
X91542858Y-104401429D01*
X91542858Y-104515714D01*
X91485715Y-104630000D01*
X91428572Y-104687143D01*
X91314286Y-104744286D01*
X90914286Y-104744286D01*
X92685715Y-105372857D02*
X92114286Y-105372857D01*
X92114286Y-104172857D01*
X93028572Y-105030000D02*
X93600001Y-105030000D01*
X92914287Y-105372857D02*
X93314287Y-104172857D01*
X93714287Y-105372857D01*
X94114286Y-105372857D02*
X94114286Y-104172857D01*
X94800001Y-105372857D01*
X94800001Y-104172857D01*
X95371429Y-105372857D02*
X95371429Y-104172857D01*
X96057144Y-105372857D02*
X95542858Y-104687143D01*
X96057144Y-104172857D02*
X95371429Y-104858571D01*
D11*
X63000000Y-35500000D02*
X62500000Y-35500000D01*
X76000000Y-18500000D02*
X76000000Y-19000000D01*
X76000000Y-35500000D02*
X63000000Y-35500000D01*
X76000000Y-35000000D02*
X76000000Y-35500000D01*
X76000000Y-19000000D02*
X76000000Y-35000000D01*
X67869048Y-34452381D02*
X67535714Y-33976190D01*
X67297619Y-34452381D02*
X67297619Y-33452381D01*
X67678572Y-33452381D01*
X67773810Y-33500000D01*
X67821429Y-33547619D01*
X67869048Y-33642857D01*
X67869048Y-33785714D01*
X67821429Y-33880952D01*
X67773810Y-33928571D01*
X67678572Y-33976190D01*
X67297619Y-33976190D01*
X68297619Y-33928571D02*
X68630953Y-33928571D01*
X68773810Y-34452381D02*
X68297619Y-34452381D01*
X68297619Y-33452381D01*
X68773810Y-33452381D01*
X69059524Y-33452381D02*
X69392857Y-34452381D01*
X69726191Y-33452381D01*
X70773810Y-34166667D02*
X71250001Y-34166667D01*
X70678572Y-34452381D02*
X71011905Y-33452381D01*
X71345239Y-34452381D01*
X63369047Y-31452381D02*
X63559524Y-31452381D01*
X63654762Y-31500000D01*
X63750000Y-31595238D01*
X63797619Y-31785714D01*
X63797619Y-32119048D01*
X63750000Y-32309524D01*
X63654762Y-32404762D01*
X63559524Y-32452381D01*
X63369047Y-32452381D01*
X63273809Y-32404762D01*
X63178571Y-32309524D01*
X63130952Y-32119048D01*
X63130952Y-31785714D01*
X63178571Y-31595238D01*
X63273809Y-31500000D01*
X63369047Y-31452381D01*
X64178571Y-32404762D02*
X64321428Y-32452381D01*
X64559524Y-32452381D01*
X64654762Y-32404762D01*
X64702381Y-32357143D01*
X64750000Y-32261905D01*
X64750000Y-32166667D01*
X64702381Y-32071429D01*
X64654762Y-32023810D01*
X64559524Y-31976190D01*
X64369047Y-31928571D01*
X64273809Y-31880952D01*
X64226190Y-31833333D01*
X64178571Y-31738095D01*
X64178571Y-31642857D01*
X64226190Y-31547619D01*
X64273809Y-31500000D01*
X64369047Y-31452381D01*
X64607143Y-31452381D01*
X64750000Y-31500000D01*
X65178571Y-32071429D02*
X65940476Y-32071429D01*
X66940476Y-32452381D02*
X66369047Y-32452381D01*
X66654761Y-32452381D02*
X66654761Y-31452381D01*
X66559523Y-31595238D01*
X66464285Y-31690476D01*
X66369047Y-31738095D01*
X68464286Y-31928571D02*
X68130952Y-31928571D01*
X68130952Y-32452381D02*
X68130952Y-31452381D01*
X68607143Y-31452381D01*
X69559524Y-32452381D02*
X69226190Y-31976190D01*
X68988095Y-32452381D02*
X68988095Y-31452381D01*
X69369048Y-31452381D01*
X69464286Y-31500000D01*
X69511905Y-31547619D01*
X69559524Y-31642857D01*
X69559524Y-31785714D01*
X69511905Y-31880952D01*
X69464286Y-31928571D01*
X69369048Y-31976190D01*
X68988095Y-31976190D01*
X70178571Y-31452381D02*
X70369048Y-31452381D01*
X70464286Y-31500000D01*
X70559524Y-31595238D01*
X70607143Y-31785714D01*
X70607143Y-32119048D01*
X70559524Y-32309524D01*
X70464286Y-32404762D01*
X70369048Y-32452381D01*
X70178571Y-32452381D01*
X70083333Y-32404762D01*
X69988095Y-32309524D01*
X69940476Y-32119048D01*
X69940476Y-31785714D01*
X69988095Y-31595238D01*
X70083333Y-31500000D01*
X70178571Y-31452381D01*
X71035714Y-32452381D02*
X71035714Y-31452381D01*
X71607143Y-32452381D01*
X71607143Y-31452381D01*
X71940476Y-31452381D02*
X72511905Y-31452381D01*
X72226190Y-32452381D02*
X72226190Y-31452381D01*
X72845238Y-31928571D02*
X73178572Y-31928571D01*
X73321429Y-32452381D02*
X72845238Y-32452381D01*
X72845238Y-31452381D01*
X73321429Y-31452381D01*
X73750000Y-32452381D02*
X73750000Y-31452381D01*
X74321429Y-32452381D01*
X74321429Y-31452381D01*
X74797619Y-32452381D02*
X74797619Y-31452381D01*
X75035714Y-31452381D01*
X75178572Y-31500000D01*
X75273810Y-31595238D01*
X75321429Y-31690476D01*
X75369048Y-31880952D01*
X75369048Y-32023810D01*
X75321429Y-32214286D01*
X75273810Y-32309524D01*
X75178572Y-32404762D01*
X75035714Y-32452381D01*
X74797619Y-32452381D01*
X141500000Y-54000000D02*
X138500000Y-54000000D01*
X141500000Y-50250000D02*
X141500000Y-54000000D01*
X138500000Y-50250000D02*
X141500000Y-50250000D01*
X138500000Y-54000000D02*
X138500000Y-50250000D01*
D12*
X138819048Y-53611905D02*
X138819048Y-52811905D01*
X139200000Y-53611905D02*
X139200000Y-52811905D01*
X139657143Y-53611905D01*
X139657143Y-52811905D01*
X140304762Y-53192857D02*
X140038095Y-53192857D01*
X140038095Y-53611905D02*
X140038095Y-52811905D01*
X140419048Y-52811905D01*
X140876190Y-52811905D02*
X141028571Y-52811905D01*
X141104762Y-52850000D01*
X141180952Y-52926190D01*
X141219047Y-53078571D01*
X141219047Y-53345238D01*
X141180952Y-53497619D01*
X141104762Y-53573810D01*
X141028571Y-53611905D01*
X140876190Y-53611905D01*
X140800000Y-53573810D01*
X140723809Y-53497619D01*
X140685714Y-53345238D01*
X140685714Y-53078571D01*
X140723809Y-52926190D01*
X140800000Y-52850000D01*
X140876190Y-52811905D01*
X135626191Y-49100000D02*
X135550000Y-49061905D01*
X135435715Y-49061905D01*
X135321429Y-49100000D01*
X135245238Y-49176190D01*
X135207143Y-49252381D01*
X135169048Y-49404762D01*
X135169048Y-49519048D01*
X135207143Y-49671429D01*
X135245238Y-49747619D01*
X135321429Y-49823810D01*
X135435715Y-49861905D01*
X135511905Y-49861905D01*
X135626191Y-49823810D01*
X135664286Y-49785714D01*
X135664286Y-49519048D01*
X135511905Y-49519048D01*
X135969048Y-49633333D02*
X136350000Y-49633333D01*
X135892857Y-49861905D02*
X136159524Y-49061905D01*
X136426191Y-49861905D01*
X136692857Y-49861905D02*
X136692857Y-49061905D01*
X137073809Y-49861905D02*
X137073809Y-49061905D01*
X137530952Y-49861905D01*
X137530952Y-49061905D01*
X137873809Y-49138095D02*
X137911904Y-49100000D01*
X137988095Y-49061905D01*
X138178571Y-49061905D01*
X138254761Y-49100000D01*
X138292857Y-49138095D01*
X138330952Y-49214286D01*
X138330952Y-49290476D01*
X138292857Y-49404762D01*
X137835714Y-49861905D01*
X138330952Y-49861905D01*
X135569048Y-46633333D02*
X135950000Y-46633333D01*
X135492857Y-46861905D02*
X135759524Y-46061905D01*
X136026191Y-46861905D01*
X136178571Y-46061905D02*
X136635714Y-46061905D01*
X136407143Y-46861905D02*
X136407143Y-46061905D01*
X136788095Y-46061905D02*
X137245238Y-46061905D01*
X137016667Y-46861905D02*
X137016667Y-46061905D01*
X137473810Y-46138095D02*
X137511905Y-46100000D01*
X137588096Y-46061905D01*
X137778572Y-46061905D01*
X137854762Y-46100000D01*
X137892858Y-46138095D01*
X137930953Y-46214286D01*
X137930953Y-46290476D01*
X137892858Y-46404762D01*
X137435715Y-46861905D01*
X137930953Y-46861905D01*
X135626191Y-47600000D02*
X135550000Y-47561905D01*
X135435715Y-47561905D01*
X135321429Y-47600000D01*
X135245238Y-47676190D01*
X135207143Y-47752381D01*
X135169048Y-47904762D01*
X135169048Y-48019048D01*
X135207143Y-48171429D01*
X135245238Y-48247619D01*
X135321429Y-48323810D01*
X135435715Y-48361905D01*
X135511905Y-48361905D01*
X135626191Y-48323810D01*
X135664286Y-48285714D01*
X135664286Y-48019048D01*
X135511905Y-48019048D01*
X135969048Y-48133333D02*
X136350000Y-48133333D01*
X135892857Y-48361905D02*
X136159524Y-47561905D01*
X136426191Y-48361905D01*
X136692857Y-48361905D02*
X136692857Y-47561905D01*
X137073809Y-48361905D02*
X137073809Y-47561905D01*
X137530952Y-48361905D01*
X137530952Y-47561905D01*
X138330952Y-48361905D02*
X137873809Y-48361905D01*
X138102380Y-48361905D02*
X138102380Y-47561905D01*
X138026190Y-47676190D01*
X137949999Y-47752381D01*
X137873809Y-47790476D01*
X131376191Y-105100000D02*
X131300000Y-105061905D01*
X131185715Y-105061905D01*
X131071429Y-105100000D01*
X130995238Y-105176190D01*
X130957143Y-105252381D01*
X130919048Y-105404762D01*
X130919048Y-105519048D01*
X130957143Y-105671429D01*
X130995238Y-105747619D01*
X131071429Y-105823810D01*
X131185715Y-105861905D01*
X131261905Y-105861905D01*
X131376191Y-105823810D01*
X131414286Y-105785714D01*
X131414286Y-105519048D01*
X131261905Y-105519048D01*
X131719048Y-105633333D02*
X132100000Y-105633333D01*
X131642857Y-105861905D02*
X131909524Y-105061905D01*
X132176191Y-105861905D01*
X132442857Y-105861905D02*
X132442857Y-105061905D01*
X132823809Y-105861905D02*
X132823809Y-105061905D01*
X133280952Y-105861905D01*
X133280952Y-105061905D01*
X134080952Y-105861905D02*
X133623809Y-105861905D01*
X133852380Y-105861905D02*
X133852380Y-105061905D01*
X133776190Y-105176190D01*
X133699999Y-105252381D01*
X133623809Y-105290476D01*
X131376191Y-106600000D02*
X131300000Y-106561905D01*
X131185715Y-106561905D01*
X131071429Y-106600000D01*
X130995238Y-106676190D01*
X130957143Y-106752381D01*
X130919048Y-106904762D01*
X130919048Y-107019048D01*
X130957143Y-107171429D01*
X130995238Y-107247619D01*
X131071429Y-107323810D01*
X131185715Y-107361905D01*
X131261905Y-107361905D01*
X131376191Y-107323810D01*
X131414286Y-107285714D01*
X131414286Y-107019048D01*
X131261905Y-107019048D01*
X131719048Y-107133333D02*
X132100000Y-107133333D01*
X131642857Y-107361905D02*
X131909524Y-106561905D01*
X132176191Y-107361905D01*
X132442857Y-107361905D02*
X132442857Y-106561905D01*
X132823809Y-107361905D02*
X132823809Y-106561905D01*
X133280952Y-107361905D01*
X133280952Y-106561905D01*
X133623809Y-106638095D02*
X133661904Y-106600000D01*
X133738095Y-106561905D01*
X133928571Y-106561905D01*
X134004761Y-106600000D01*
X134042857Y-106638095D01*
X134080952Y-106714286D01*
X134080952Y-106790476D01*
X134042857Y-106904762D01*
X133585714Y-107361905D01*
X134080952Y-107361905D01*
X131319048Y-104133333D02*
X131700000Y-104133333D01*
X131242857Y-104361905D02*
X131509524Y-103561905D01*
X131776191Y-104361905D01*
X131928571Y-103561905D02*
X132385714Y-103561905D01*
X132157143Y-104361905D02*
X132157143Y-103561905D01*
X132538095Y-103561905D02*
X132995238Y-103561905D01*
X132766667Y-104361905D02*
X132766667Y-103561905D01*
X133223810Y-103638095D02*
X133261905Y-103600000D01*
X133338096Y-103561905D01*
X133528572Y-103561905D01*
X133604762Y-103600000D01*
X133642858Y-103638095D01*
X133680953Y-103714286D01*
X133680953Y-103790476D01*
X133642858Y-103904762D01*
X133185715Y-104361905D01*
X133680953Y-104361905D01*
X62947619Y-72785714D02*
X62909524Y-72823810D01*
X62795238Y-72861905D01*
X62719048Y-72861905D01*
X62604762Y-72823810D01*
X62528571Y-72747619D01*
X62490476Y-72671429D01*
X62452381Y-72519048D01*
X62452381Y-72404762D01*
X62490476Y-72252381D01*
X62528571Y-72176190D01*
X62604762Y-72100000D01*
X62719048Y-72061905D01*
X62795238Y-72061905D01*
X62909524Y-72100000D01*
X62947619Y-72138095D01*
X63290476Y-72861905D02*
X63290476Y-72061905D01*
X63290476Y-72442857D02*
X63747619Y-72442857D01*
X63747619Y-72861905D02*
X63747619Y-72061905D01*
X64090476Y-72138095D02*
X64128571Y-72100000D01*
X64204762Y-72061905D01*
X64395238Y-72061905D01*
X64471428Y-72100000D01*
X64509524Y-72138095D01*
X64547619Y-72214286D01*
X64547619Y-72290476D01*
X64509524Y-72404762D01*
X64052381Y-72861905D01*
X64547619Y-72861905D01*
X62947619Y-71785714D02*
X62909524Y-71823810D01*
X62795238Y-71861905D01*
X62719048Y-71861905D01*
X62604762Y-71823810D01*
X62528571Y-71747619D01*
X62490476Y-71671429D01*
X62452381Y-71519048D01*
X62452381Y-71404762D01*
X62490476Y-71252381D01*
X62528571Y-71176190D01*
X62604762Y-71100000D01*
X62719048Y-71061905D01*
X62795238Y-71061905D01*
X62909524Y-71100000D01*
X62947619Y-71138095D01*
X63290476Y-71861905D02*
X63290476Y-71061905D01*
X63290476Y-71442857D02*
X63747619Y-71442857D01*
X63747619Y-71861905D02*
X63747619Y-71061905D01*
X64547619Y-71861905D02*
X64090476Y-71861905D01*
X64319047Y-71861905D02*
X64319047Y-71061905D01*
X64242857Y-71176190D01*
X64166666Y-71252381D01*
X64090476Y-71290476D01*
D11*
X65250000Y-73750000D02*
X65750000Y-73750000D01*
X65250000Y-70000000D02*
X65250000Y-73750000D01*
X65750000Y-70000000D02*
X65250000Y-70000000D01*
D12*
X65552380Y-70311905D02*
X66009523Y-70311905D01*
X65780952Y-71111905D02*
X65780952Y-70311905D01*
X66276190Y-70692857D02*
X66542857Y-70692857D01*
X66657143Y-71111905D02*
X66276190Y-71111905D01*
X66276190Y-70311905D01*
X66657143Y-70311905D01*
X67457143Y-71111905D02*
X67190476Y-70730952D01*
X67000000Y-71111905D02*
X67000000Y-70311905D01*
X67304762Y-70311905D01*
X67380953Y-70350000D01*
X67419048Y-70388095D01*
X67457143Y-70464286D01*
X67457143Y-70578571D01*
X67419048Y-70654762D01*
X67380953Y-70692857D01*
X67304762Y-70730952D01*
X67000000Y-70730952D01*
X67800000Y-71111905D02*
X67800000Y-70311905D01*
X68066667Y-70883333D01*
X68333334Y-70311905D01*
X68333334Y-71111905D01*
X65819048Y-73383333D02*
X66200000Y-73383333D01*
X65742857Y-73611905D02*
X66009524Y-72811905D01*
X66276191Y-73611905D01*
X66428571Y-72811905D02*
X66885714Y-72811905D01*
X66657143Y-73611905D02*
X66657143Y-72811905D01*
X67038095Y-72811905D02*
X67495238Y-72811905D01*
X67266667Y-73611905D02*
X67266667Y-72811905D01*
X68180953Y-73611905D02*
X67723810Y-73611905D01*
X67952381Y-73611905D02*
X67952381Y-72811905D01*
X67876191Y-72926190D01*
X67800000Y-73002381D01*
X67723810Y-73040476D01*
X66390476Y-72361905D02*
X66390476Y-71561905D01*
X66580952Y-71561905D01*
X66695238Y-71600000D01*
X66771429Y-71676190D01*
X66809524Y-71752381D01*
X66847619Y-71904762D01*
X66847619Y-72019048D01*
X66809524Y-72171429D01*
X66771429Y-72247619D01*
X66695238Y-72323810D01*
X66580952Y-72361905D01*
X66390476Y-72361905D01*
X67647619Y-72285714D02*
X67609524Y-72323810D01*
X67495238Y-72361905D01*
X67419048Y-72361905D01*
X67304762Y-72323810D01*
X67228571Y-72247619D01*
X67190476Y-72171429D01*
X67152381Y-72019048D01*
X67152381Y-71904762D01*
X67190476Y-71752381D01*
X67228571Y-71676190D01*
X67304762Y-71600000D01*
X67419048Y-71561905D01*
X67495238Y-71561905D01*
X67609524Y-71600000D01*
X67647619Y-71638095D01*
X107321428Y-52311905D02*
X107588095Y-53111905D01*
X107854762Y-52311905D01*
X108083333Y-52388095D02*
X108121428Y-52350000D01*
X108197619Y-52311905D01*
X108388095Y-52311905D01*
X108464285Y-52350000D01*
X108502381Y-52388095D01*
X108540476Y-52464286D01*
X108540476Y-52540476D01*
X108502381Y-52654762D01*
X108045238Y-53111905D01*
X108540476Y-53111905D01*
X109340476Y-53035714D02*
X109302381Y-53073810D01*
X109188095Y-53111905D01*
X109111905Y-53111905D01*
X108997619Y-53073810D01*
X108921428Y-52997619D01*
X108883333Y-52921429D01*
X108845238Y-52769048D01*
X108845238Y-52654762D01*
X108883333Y-52502381D01*
X108921428Y-52426190D01*
X108997619Y-52350000D01*
X109111905Y-52311905D01*
X109188095Y-52311905D01*
X109302381Y-52350000D01*
X109340476Y-52388095D01*
X110102381Y-53111905D02*
X109645238Y-53111905D01*
X109873809Y-53111905D02*
X109873809Y-52311905D01*
X109797619Y-52426190D01*
X109721428Y-52502381D01*
X109645238Y-52540476D01*
X89071428Y-52311905D02*
X89338095Y-53111905D01*
X89604762Y-52311905D01*
X90290476Y-53111905D02*
X89833333Y-53111905D01*
X90061904Y-53111905D02*
X90061904Y-52311905D01*
X89985714Y-52426190D01*
X89909523Y-52502381D01*
X89833333Y-52540476D01*
X91090476Y-53035714D02*
X91052381Y-53073810D01*
X90938095Y-53111905D01*
X90861905Y-53111905D01*
X90747619Y-53073810D01*
X90671428Y-52997619D01*
X90633333Y-52921429D01*
X90595238Y-52769048D01*
X90595238Y-52654762D01*
X90633333Y-52502381D01*
X90671428Y-52426190D01*
X90747619Y-52350000D01*
X90861905Y-52311905D01*
X90938095Y-52311905D01*
X91052381Y-52350000D01*
X91090476Y-52388095D01*
X91852381Y-53111905D02*
X91395238Y-53111905D01*
X91623809Y-53111905D02*
X91623809Y-52311905D01*
X91547619Y-52426190D01*
X91471428Y-52502381D01*
X91395238Y-52540476D01*
X88071428Y-68811905D02*
X88338095Y-69611905D01*
X88604762Y-68811905D01*
X89290476Y-69611905D02*
X88833333Y-69611905D01*
X89061904Y-69611905D02*
X89061904Y-68811905D01*
X88985714Y-68926190D01*
X88909523Y-69002381D01*
X88833333Y-69040476D01*
X90090476Y-69535714D02*
X90052381Y-69573810D01*
X89938095Y-69611905D01*
X89861905Y-69611905D01*
X89747619Y-69573810D01*
X89671428Y-69497619D01*
X89633333Y-69421429D01*
X89595238Y-69269048D01*
X89595238Y-69154762D01*
X89633333Y-69002381D01*
X89671428Y-68926190D01*
X89747619Y-68850000D01*
X89861905Y-68811905D01*
X89938095Y-68811905D01*
X90052381Y-68850000D01*
X90090476Y-68888095D01*
X90395238Y-68888095D02*
X90433333Y-68850000D01*
X90509524Y-68811905D01*
X90700000Y-68811905D01*
X90776190Y-68850000D01*
X90814286Y-68888095D01*
X90852381Y-68964286D01*
X90852381Y-69040476D01*
X90814286Y-69154762D01*
X90357143Y-69611905D01*
X90852381Y-69611905D01*
D14*
X135942000Y-57808000D02*
X130058000Y-57808000D01*
X130058000Y-57808000D02*
X130058000Y-63692000D01*
X130058000Y-63692000D02*
X135942000Y-63692000D01*
X135942000Y-63692000D02*
X135942000Y-57808000D01*
X135561000Y-62930000D02*
X135180000Y-63311000D01*
X135180000Y-63311000D02*
X134799000Y-62930000D01*
X134799000Y-62930000D02*
X135180000Y-62549000D01*
X135180000Y-62549000D02*
X135561000Y-62930000D01*
X137875000Y-64000000D02*
X137800000Y-64075000D01*
X137800000Y-64075000D02*
X137725000Y-64000000D01*
X137725000Y-64000000D02*
X137800000Y-63925000D01*
X137800000Y-63925000D02*
X137875000Y-64000000D01*
X131654000Y-33873000D02*
X132127000Y-33873000D01*
X132127000Y-33873000D02*
X132127000Y-34346000D01*
X132127000Y-37654000D02*
X132127000Y-38127000D01*
X132127000Y-38127000D02*
X131654000Y-38127000D01*
X128346000Y-33873000D02*
X127873000Y-33873000D01*
X127873000Y-33873000D02*
X127873000Y-34346000D01*
X127873000Y-37654000D02*
X127873000Y-38127000D01*
X127873000Y-38127000D02*
X128346000Y-38127000D01*
X131908000Y-33365000D02*
X132035000Y-33492000D01*
X132035000Y-33492000D02*
X131908000Y-33619000D01*
X131908000Y-33619000D02*
X131781000Y-33492000D01*
X131781000Y-33492000D02*
X131908000Y-33365000D01*
D12*
X123100000Y-54700000D02*
X123100000Y-55100000D01*
X123100000Y-55100000D02*
X119900000Y-55100000D01*
X119900000Y-55100000D02*
X119900000Y-54700000D01*
X119900000Y-52100000D02*
X119900000Y-51900000D01*
X119900000Y-51900000D02*
X123100000Y-51900000D01*
X123100000Y-51900000D02*
X123100000Y-52300000D01*
X119700000Y-52500000D02*
X119700000Y-52300000D01*
X119700000Y-52300000D02*
X120500000Y-52300000D01*
D14*
X131654000Y-79873000D02*
X132127000Y-79873000D01*
X132127000Y-79873000D02*
X132127000Y-80346000D01*
X132127000Y-83654000D02*
X132127000Y-84127000D01*
X132127000Y-84127000D02*
X131654000Y-84127000D01*
X128346000Y-79873000D02*
X127873000Y-79873000D01*
X127873000Y-79873000D02*
X127873000Y-80346000D01*
X127873000Y-83654000D02*
X127873000Y-84127000D01*
X127873000Y-84127000D02*
X128346000Y-84127000D01*
X131908000Y-79365000D02*
X132035000Y-79492000D01*
X132035000Y-79492000D02*
X131908000Y-79619000D01*
X131908000Y-79619000D02*
X131781000Y-79492000D01*
X131781000Y-79492000D02*
X131908000Y-79365000D01*
D12*
X123100000Y-100700000D02*
X123100000Y-101100000D01*
X123100000Y-101100000D02*
X119900000Y-101100000D01*
X119900000Y-101100000D02*
X119900000Y-100700000D01*
X119900000Y-98100000D02*
X119900000Y-97900000D01*
X119900000Y-97900000D02*
X123100000Y-97900000D01*
X123100000Y-97900000D02*
X123100000Y-98300000D01*
X119700000Y-98500000D02*
X119700000Y-98300000D01*
X119700000Y-98300000D02*
X120500000Y-98300000D01*
D11*
X111850000Y-90000000D02*
X111850000Y-78000000D01*
X111850000Y-78000000D02*
X117150000Y-78000000D01*
X117150000Y-78000000D02*
X117150000Y-90000000D01*
X117150000Y-90000000D02*
X111850000Y-90000000D01*
D14*
X113550000Y-74954000D02*
X113550000Y-75177000D01*
X113550000Y-75177000D02*
X110450000Y-75177000D01*
X110450000Y-75177000D02*
X110450000Y-74954000D01*
X113550000Y-72046000D02*
X113550000Y-71823000D01*
X113550000Y-71823000D02*
X110450000Y-71823000D01*
X110450000Y-71823000D02*
X110450000Y-72046000D01*
X114185000Y-75208000D02*
X114058000Y-75335000D01*
X114058000Y-75335000D02*
X113931000Y-75208000D01*
X113931000Y-75208000D02*
X114058000Y-75081000D01*
X114058000Y-75081000D02*
X114185000Y-75208000D01*
X121250000Y-58596000D02*
X121250000Y-58573000D01*
X121250000Y-58573000D02*
X125750000Y-58573000D01*
X125750000Y-58573000D02*
X125750000Y-58596000D01*
X121250000Y-65404000D02*
X121250000Y-65427000D01*
X121250000Y-65427000D02*
X125750000Y-65427000D01*
X125750000Y-65427000D02*
X125750000Y-65404000D01*
X120615000Y-58342000D02*
X120742000Y-58215000D01*
X120742000Y-58215000D02*
X120869000Y-58342000D01*
X120869000Y-58342000D02*
X120742000Y-58469000D01*
X120742000Y-58469000D02*
X120615000Y-58342000D01*
D15*
G36*
X73826000Y-21416060D02*
X73775200Y-21578620D01*
X73658360Y-21624340D01*
X73531360Y-21558300D01*
X73442460Y-21385580D01*
X73439920Y-21380500D01*
X73345940Y-21024900D01*
X73224020Y-20697240D01*
X73094480Y-20443240D01*
X73008120Y-20331480D01*
X72898900Y-20275600D01*
X72789680Y-20331480D01*
X72683000Y-20445780D01*
X72535680Y-20664220D01*
X72393440Y-20951240D01*
X72345180Y-21078240D01*
X72233420Y-21362720D01*
X72078480Y-21723400D01*
X71915920Y-22081540D01*
X71910840Y-22091700D01*
X71669540Y-22508260D01*
X71425700Y-22759720D01*
X71171700Y-22841000D01*
X70902460Y-22757180D01*
X70620520Y-22508260D01*
X70584960Y-22465080D01*
X70361440Y-22203460D01*
X70336040Y-22729240D01*
X70313180Y-23255020D01*
X69782320Y-23422660D01*
X69254000Y-23592840D01*
X69254000Y-24921260D01*
X69254000Y-26252220D01*
X69487680Y-26308100D01*
X69734060Y-26369060D01*
X70013460Y-26440180D01*
X70026160Y-26442720D01*
X70330960Y-26524000D01*
X70374140Y-27499360D01*
X70394460Y-27890520D01*
X70417320Y-28213100D01*
X70440180Y-28434080D01*
X70457960Y-28517900D01*
X70557020Y-28530600D01*
X70780540Y-28522980D01*
X71092960Y-28500120D01*
X71252980Y-28487420D01*
X71674620Y-28449320D01*
X71956560Y-28441700D01*
X72121660Y-28467100D01*
X72200400Y-28525520D01*
X72218180Y-28604260D01*
X72152140Y-28700780D01*
X71981960Y-28873500D01*
X71733040Y-29094480D01*
X71435860Y-29345940D01*
X71118360Y-29597400D01*
X70813560Y-29831080D01*
X70551940Y-30016500D01*
X70358900Y-30135880D01*
X70280160Y-30163820D01*
X70158240Y-30115560D01*
X69937260Y-29980940D01*
X69650240Y-29787900D01*
X69398780Y-29602480D01*
X69081280Y-29345940D01*
X68837440Y-29124960D01*
X68690120Y-28959860D01*
X68662180Y-28893820D01*
X68743460Y-28776980D01*
X68979680Y-28693160D01*
X69365760Y-28649980D01*
X69655320Y-28642360D01*
X70016000Y-28639820D01*
X70016000Y-27755900D01*
X70010920Y-27387600D01*
X69995680Y-27087880D01*
X69972820Y-26892300D01*
X69952500Y-26836420D01*
X69833120Y-26798320D01*
X69622300Y-26752600D01*
X69571500Y-26742440D01*
X69365760Y-26714500D01*
X69274320Y-26750060D01*
X69254000Y-26879600D01*
X69254000Y-26945640D01*
X69210820Y-27138680D01*
X69109220Y-27268220D01*
X68989840Y-27291080D01*
X68949200Y-27263140D01*
X68926340Y-27166620D01*
X68895860Y-26938020D01*
X68865380Y-26617980D01*
X68847600Y-26386840D01*
X68789180Y-25551180D01*
X68507240Y-26036320D01*
X68298960Y-26351280D01*
X68128780Y-26506220D01*
X68062740Y-26524000D01*
X67928120Y-26465580D01*
X67912880Y-26305560D01*
X68011940Y-26064260D01*
X68067820Y-25972820D01*
X68197360Y-25762000D01*
X68210060Y-25660400D01*
X68090680Y-25652780D01*
X67884940Y-25698500D01*
X67460760Y-25739140D01*
X67001020Y-25637540D01*
X66487940Y-25396240D01*
X66363480Y-25322580D01*
X65825000Y-25081280D01*
X65268740Y-25005080D01*
X64689620Y-25099060D01*
X64511820Y-25160020D01*
X64184160Y-25279400D01*
X63980960Y-25325120D01*
X63874280Y-25304800D01*
X63836180Y-25210820D01*
X63836180Y-25165100D01*
X63917460Y-25002540D01*
X64166380Y-24855220D01*
X64570240Y-24720600D01*
X64958860Y-24636780D01*
X65477020Y-24596140D01*
X65972320Y-24685040D01*
X66487940Y-24911100D01*
X66668280Y-25015240D01*
X66960380Y-25170180D01*
X67252480Y-25281940D01*
X67399800Y-25317500D01*
X67636020Y-25320040D01*
X67890020Y-25284480D01*
X68111000Y-25220980D01*
X68253240Y-25144780D01*
X68273560Y-25076200D01*
X68179580Y-25000000D01*
X67973840Y-24878080D01*
X67696980Y-24728220D01*
X67638560Y-24700280D01*
X67310900Y-24522480D01*
X67122940Y-24380240D01*
X67054360Y-24258320D01*
X67051820Y-24235460D01*
X67079760Y-24118620D01*
X67178820Y-24080520D01*
X67364240Y-24121160D01*
X67653800Y-24248160D01*
X68039880Y-24448820D01*
X68347220Y-24613920D01*
X68596140Y-24743460D01*
X68751080Y-24817120D01*
X68784100Y-24829820D01*
X68801880Y-24751080D01*
X68817120Y-24530100D01*
X68832360Y-24199900D01*
X68845060Y-23790960D01*
X68850140Y-23582680D01*
X68860300Y-23097540D01*
X68873000Y-22757180D01*
X68890780Y-22536200D01*
X68918720Y-22409200D01*
X68959360Y-22350780D01*
X69020320Y-22333000D01*
X69043180Y-22333000D01*
X69147320Y-22360940D01*
X69205740Y-22467620D01*
X69233680Y-22701300D01*
X69236220Y-22734320D01*
X69261620Y-22968000D01*
X69294640Y-23115320D01*
X69312420Y-23135640D01*
X69416560Y-23115320D01*
X69619760Y-23059440D01*
X69688340Y-23039120D01*
X70016000Y-22940060D01*
X70016000Y-21344940D01*
X70016000Y-20788680D01*
X70021080Y-20379740D01*
X70028700Y-20095260D01*
X70046480Y-19912380D01*
X70074420Y-19808240D01*
X70112520Y-19762520D01*
X70168400Y-19749820D01*
X70186180Y-19749820D01*
X70267460Y-19765060D01*
X70318260Y-19828560D01*
X70343660Y-19975880D01*
X70353820Y-20240040D01*
X70353820Y-20448320D01*
X70363980Y-20842020D01*
X70402080Y-21136660D01*
X70485900Y-21403360D01*
X70595120Y-21654820D01*
X70750060Y-21944380D01*
X70905000Y-22188220D01*
X71011680Y-22317760D01*
X71141220Y-22416820D01*
X71237740Y-22401580D01*
X71354580Y-22287280D01*
X71456180Y-22132340D01*
X71590800Y-21860560D01*
X71740660Y-21517660D01*
X71834640Y-21278900D01*
X72096260Y-20661680D01*
X72352800Y-20217180D01*
X72609340Y-19937780D01*
X72863340Y-19828560D01*
X73117340Y-19889520D01*
X73351020Y-20092720D01*
X73518660Y-20364500D01*
X73673600Y-20727720D01*
X73785360Y-21106180D01*
X73826000Y-21416060D01*
X73826000Y-21416060D01*
X73826000Y-21416060D01*
G37*
X73826000Y-21416060D02*
X73775200Y-21578620D01*
X73658360Y-21624340D01*
X73531360Y-21558300D01*
X73442460Y-21385580D01*
X73439920Y-21380500D01*
X73345940Y-21024900D01*
X73224020Y-20697240D01*
X73094480Y-20443240D01*
X73008120Y-20331480D01*
X72898900Y-20275600D01*
X72789680Y-20331480D01*
X72683000Y-20445780D01*
X72535680Y-20664220D01*
X72393440Y-20951240D01*
X72345180Y-21078240D01*
X72233420Y-21362720D01*
X72078480Y-21723400D01*
X71915920Y-22081540D01*
X71910840Y-22091700D01*
X71669540Y-22508260D01*
X71425700Y-22759720D01*
X71171700Y-22841000D01*
X70902460Y-22757180D01*
X70620520Y-22508260D01*
X70584960Y-22465080D01*
X70361440Y-22203460D01*
X70336040Y-22729240D01*
X70313180Y-23255020D01*
X69782320Y-23422660D01*
X69254000Y-23592840D01*
X69254000Y-24921260D01*
X69254000Y-26252220D01*
X69487680Y-26308100D01*
X69734060Y-26369060D01*
X70013460Y-26440180D01*
X70026160Y-26442720D01*
X70330960Y-26524000D01*
X70374140Y-27499360D01*
X70394460Y-27890520D01*
X70417320Y-28213100D01*
X70440180Y-28434080D01*
X70457960Y-28517900D01*
X70557020Y-28530600D01*
X70780540Y-28522980D01*
X71092960Y-28500120D01*
X71252980Y-28487420D01*
X71674620Y-28449320D01*
X71956560Y-28441700D01*
X72121660Y-28467100D01*
X72200400Y-28525520D01*
X72218180Y-28604260D01*
X72152140Y-28700780D01*
X71981960Y-28873500D01*
X71733040Y-29094480D01*
X71435860Y-29345940D01*
X71118360Y-29597400D01*
X70813560Y-29831080D01*
X70551940Y-30016500D01*
X70358900Y-30135880D01*
X70280160Y-30163820D01*
X70158240Y-30115560D01*
X69937260Y-29980940D01*
X69650240Y-29787900D01*
X69398780Y-29602480D01*
X69081280Y-29345940D01*
X68837440Y-29124960D01*
X68690120Y-28959860D01*
X68662180Y-28893820D01*
X68743460Y-28776980D01*
X68979680Y-28693160D01*
X69365760Y-28649980D01*
X69655320Y-28642360D01*
X70016000Y-28639820D01*
X70016000Y-27755900D01*
X70010920Y-27387600D01*
X69995680Y-27087880D01*
X69972820Y-26892300D01*
X69952500Y-26836420D01*
X69833120Y-26798320D01*
X69622300Y-26752600D01*
X69571500Y-26742440D01*
X69365760Y-26714500D01*
X69274320Y-26750060D01*
X69254000Y-26879600D01*
X69254000Y-26945640D01*
X69210820Y-27138680D01*
X69109220Y-27268220D01*
X68989840Y-27291080D01*
X68949200Y-27263140D01*
X68926340Y-27166620D01*
X68895860Y-26938020D01*
X68865380Y-26617980D01*
X68847600Y-26386840D01*
X68789180Y-25551180D01*
X68507240Y-26036320D01*
X68298960Y-26351280D01*
X68128780Y-26506220D01*
X68062740Y-26524000D01*
X67928120Y-26465580D01*
X67912880Y-26305560D01*
X68011940Y-26064260D01*
X68067820Y-25972820D01*
X68197360Y-25762000D01*
X68210060Y-25660400D01*
X68090680Y-25652780D01*
X67884940Y-25698500D01*
X67460760Y-25739140D01*
X67001020Y-25637540D01*
X66487940Y-25396240D01*
X66363480Y-25322580D01*
X65825000Y-25081280D01*
X65268740Y-25005080D01*
X64689620Y-25099060D01*
X64511820Y-25160020D01*
X64184160Y-25279400D01*
X63980960Y-25325120D01*
X63874280Y-25304800D01*
X63836180Y-25210820D01*
X63836180Y-25165100D01*
X63917460Y-25002540D01*
X64166380Y-24855220D01*
X64570240Y-24720600D01*
X64958860Y-24636780D01*
X65477020Y-24596140D01*
X65972320Y-24685040D01*
X66487940Y-24911100D01*
X66668280Y-25015240D01*
X66960380Y-25170180D01*
X67252480Y-25281940D01*
X67399800Y-25317500D01*
X67636020Y-25320040D01*
X67890020Y-25284480D01*
X68111000Y-25220980D01*
X68253240Y-25144780D01*
X68273560Y-25076200D01*
X68179580Y-25000000D01*
X67973840Y-24878080D01*
X67696980Y-24728220D01*
X67638560Y-24700280D01*
X67310900Y-24522480D01*
X67122940Y-24380240D01*
X67054360Y-24258320D01*
X67051820Y-24235460D01*
X67079760Y-24118620D01*
X67178820Y-24080520D01*
X67364240Y-24121160D01*
X67653800Y-24248160D01*
X68039880Y-24448820D01*
X68347220Y-24613920D01*
X68596140Y-24743460D01*
X68751080Y-24817120D01*
X68784100Y-24829820D01*
X68801880Y-24751080D01*
X68817120Y-24530100D01*
X68832360Y-24199900D01*
X68845060Y-23790960D01*
X68850140Y-23582680D01*
X68860300Y-23097540D01*
X68873000Y-22757180D01*
X68890780Y-22536200D01*
X68918720Y-22409200D01*
X68959360Y-22350780D01*
X69020320Y-22333000D01*
X69043180Y-22333000D01*
X69147320Y-22360940D01*
X69205740Y-22467620D01*
X69233680Y-22701300D01*
X69236220Y-22734320D01*
X69261620Y-22968000D01*
X69294640Y-23115320D01*
X69312420Y-23135640D01*
X69416560Y-23115320D01*
X69619760Y-23059440D01*
X69688340Y-23039120D01*
X70016000Y-22940060D01*
X70016000Y-21344940D01*
X70016000Y-20788680D01*
X70021080Y-20379740D01*
X70028700Y-20095260D01*
X70046480Y-19912380D01*
X70074420Y-19808240D01*
X70112520Y-19762520D01*
X70168400Y-19749820D01*
X70186180Y-19749820D01*
X70267460Y-19765060D01*
X70318260Y-19828560D01*
X70343660Y-19975880D01*
X70353820Y-20240040D01*
X70353820Y-20448320D01*
X70363980Y-20842020D01*
X70402080Y-21136660D01*
X70485900Y-21403360D01*
X70595120Y-21654820D01*
X70750060Y-21944380D01*
X70905000Y-22188220D01*
X71011680Y-22317760D01*
X71141220Y-22416820D01*
X71237740Y-22401580D01*
X71354580Y-22287280D01*
X71456180Y-22132340D01*
X71590800Y-21860560D01*
X71740660Y-21517660D01*
X71834640Y-21278900D01*
X72096260Y-20661680D01*
X72352800Y-20217180D01*
X72609340Y-19937780D01*
X72863340Y-19828560D01*
X73117340Y-19889520D01*
X73351020Y-20092720D01*
X73518660Y-20364500D01*
X73673600Y-20727720D01*
X73785360Y-21106180D01*
X73826000Y-21416060D01*
X73826000Y-21416060D01*
D14*
X100500000Y-91500000D02*
X82500000Y-91500000D01*
X102500000Y-93500000D02*
X102500000Y-97500000D01*
X102500000Y-93500000D02*
X100500000Y-91500000D01*
X102500000Y-97500000D02*
X82500000Y-97500000D01*
X82500000Y-97500000D02*
X82500000Y-91500000D01*
D11*
X80500000Y-49500000D02*
X77500000Y-49500000D01*
X77500000Y-49500000D02*
X79000000Y-48500000D01*
X79000000Y-48500000D02*
X80500000Y-49500000D01*
X80500000Y-47500000D02*
X77500000Y-47500000D01*
X77500000Y-47500000D02*
X79000000Y-48500000D01*
X79000000Y-48500000D02*
X80500000Y-47500000D01*
D13*
X86750000Y-26000000D02*
G75*
G03X86750000Y-26000000I-3250000J0D01*
G01*
D14*
X146305000Y-66390000D02*
X146305000Y-48610000D01*
X146305000Y-48610000D02*
X155195000Y-48610000D01*
X155195000Y-48610000D02*
X155195000Y-66390000D01*
X155195000Y-66390000D02*
X146305000Y-66390000D01*
X150750000Y-66390000D02*
X150750000Y-61310000D01*
X150750000Y-61310000D02*
X155195000Y-61310000D01*
D12*
X155830000Y-66390000D02*
X155830000Y-61310000D01*
D11*
X111850000Y-44000000D02*
X111850000Y-32000000D01*
X111850000Y-32000000D02*
X117150000Y-32000000D01*
X117150000Y-32000000D02*
X117150000Y-44000000D01*
X117150000Y-44000000D02*
X111850000Y-44000000D01*
X89620000Y-77245000D02*
X86370000Y-77245000D01*
X96370000Y-86755000D02*
X99370000Y-86755000D01*
X99370000Y-86755000D02*
X99370000Y-77245000D01*
X99370000Y-77245000D02*
X96370000Y-77245000D01*
X86370000Y-86755000D02*
X89620000Y-86755000D01*
X84620000Y-77245000D02*
X84370000Y-77245000D01*
X84370000Y-77245000D02*
X84370000Y-86755000D01*
X84370000Y-86755000D02*
X84620000Y-86755000D01*
D13*
X82750000Y-87000000D02*
G75*
G03X82750000Y-87000000I-3250000J0D01*
G01*
X86750000Y-72000000D02*
G75*
G03X86750000Y-72000000I-3250000J0D01*
G01*
X82750000Y-79000000D02*
G75*
G03X82750000Y-79000000I-3250000J0D01*
G01*
X117750000Y-95000000D02*
G75*
G03X117750000Y-95000000I-3250000J0D01*
G01*
X117750000Y-49000000D02*
G75*
G03X117750000Y-49000000I-3250000J0D01*
G01*
X82750000Y-33000000D02*
G75*
G03X82750000Y-33000000I-3250000J0D01*
G01*
X82750000Y-41000000D02*
G75*
G03X82750000Y-41000000I-3250000J0D01*
G01*
D14*
X128000000Y-29250000D02*
X128000000Y-28500000D01*
X127550000Y-28904000D02*
X127550000Y-29127000D01*
X127550000Y-29127000D02*
X124450000Y-29127000D01*
X124450000Y-29127000D02*
X124450000Y-28904000D01*
X127550000Y-26596000D02*
X127550000Y-26373000D01*
X127550000Y-26373000D02*
X124450000Y-26373000D01*
X124450000Y-26373000D02*
X124450000Y-26596000D01*
X65471000Y-101571000D02*
X65471000Y-101429000D01*
X65471000Y-101429000D02*
X65471000Y-101571000D01*
X64529000Y-101571000D02*
X64529000Y-101429000D01*
X64529000Y-101429000D02*
X64529000Y-101571000D01*
X111279000Y-98454000D02*
X111279000Y-98546000D01*
X111279000Y-98546000D02*
X111279000Y-98454000D01*
X111721000Y-98454000D02*
X111721000Y-98546000D01*
X111721000Y-98546000D02*
X111721000Y-98454000D01*
X95096000Y-71104000D02*
X93904000Y-71104000D01*
X93904000Y-71104000D02*
X95096000Y-71104000D01*
X95096000Y-72396000D02*
X93904000Y-72396000D01*
X93904000Y-72396000D02*
X95096000Y-72396000D01*
X90096000Y-73854000D02*
X88904000Y-73854000D01*
X88904000Y-73854000D02*
X90096000Y-73854000D01*
X90096000Y-75146000D02*
X88904000Y-75146000D01*
X88904000Y-75146000D02*
X90096000Y-75146000D01*
X89596000Y-88854000D02*
X88404000Y-88854000D01*
X88404000Y-88854000D02*
X89596000Y-88854000D01*
X89596000Y-90146000D02*
X88404000Y-90146000D01*
X88404000Y-90146000D02*
X89596000Y-90146000D01*
X112954000Y-70721000D02*
X113046000Y-70721000D01*
X113046000Y-70721000D02*
X112954000Y-70721000D01*
X112954000Y-70279000D02*
X113046000Y-70279000D01*
X113046000Y-70279000D02*
X112954000Y-70279000D01*
X128223000Y-97144000D02*
X128223000Y-96473000D01*
X128223000Y-96473000D02*
X135777000Y-96473000D01*
X135777000Y-96473000D02*
X135777000Y-97144000D01*
X128223000Y-100356000D02*
X128223000Y-101027000D01*
X128223000Y-101027000D02*
X135777000Y-101027000D01*
X135777000Y-101027000D02*
X135777000Y-100356000D01*
X127461000Y-96978900D02*
X127588000Y-96851900D01*
X127588000Y-96851900D02*
X127715000Y-96978900D01*
X127715000Y-96978900D02*
X127588000Y-97105900D01*
X127588000Y-97105900D02*
X127461000Y-96978900D01*
X136894000Y-94777000D02*
X136223000Y-94777000D01*
X136223000Y-94777000D02*
X136223000Y-87223000D01*
X136223000Y-87223000D02*
X136894000Y-87223000D01*
X140106000Y-94777000D02*
X140777000Y-94777000D01*
X140777000Y-94777000D02*
X140777000Y-87223000D01*
X140777000Y-87223000D02*
X140106000Y-87223000D01*
X136728900Y-95539000D02*
X136601900Y-95412000D01*
X136601900Y-95412000D02*
X136728900Y-95285000D01*
X136728900Y-95285000D02*
X136855900Y-95412000D01*
X136855900Y-95412000D02*
X136728900Y-95539000D01*
X106546000Y-75029000D02*
X106454000Y-75029000D01*
X106454000Y-75029000D02*
X106546000Y-75029000D01*
X106546000Y-75471000D02*
X106454000Y-75471000D01*
X106454000Y-75471000D02*
X106546000Y-75471000D01*
X116471000Y-73296000D02*
X116471000Y-73204000D01*
X116471000Y-73204000D02*
X116471000Y-73296000D01*
X116029000Y-73296000D02*
X116029000Y-73204000D01*
X116029000Y-73204000D02*
X116029000Y-73296000D01*
X140623000Y-62994000D02*
X140623000Y-62973000D01*
X140623000Y-62973000D02*
X144377000Y-62973000D01*
X144377000Y-62973000D02*
X144377000Y-62994000D01*
X140623000Y-66006000D02*
X140623000Y-66027000D01*
X140623000Y-66027000D02*
X144377000Y-66027000D01*
X144377000Y-66027000D02*
X144377000Y-66006000D01*
X139861000Y-62828900D02*
X139988000Y-62701900D01*
X139988000Y-62701900D02*
X140115000Y-62828900D01*
X140115000Y-62828900D02*
X139988000Y-62955900D01*
X139988000Y-62955900D02*
X139861000Y-62828900D01*
X118971000Y-66046000D02*
X118971000Y-65954000D01*
X118971000Y-65954000D02*
X118971000Y-66046000D01*
X118529000Y-66046000D02*
X118529000Y-65954000D01*
X118529000Y-65954000D02*
X118529000Y-66046000D01*
X109546000Y-63529000D02*
X109454000Y-63529000D01*
X109454000Y-63529000D02*
X109546000Y-63529000D01*
X109546000Y-63971000D02*
X109454000Y-63971000D01*
X109454000Y-63971000D02*
X109546000Y-63971000D01*
X113744000Y-63127000D02*
X113723000Y-63127000D01*
X113723000Y-63127000D02*
X113723000Y-59373000D01*
X113723000Y-59373000D02*
X113744000Y-59373000D01*
X116756000Y-63127000D02*
X116777000Y-63127000D01*
X116777000Y-63127000D02*
X116777000Y-59373000D01*
X116777000Y-59373000D02*
X116756000Y-59373000D01*
X113578900Y-63889000D02*
X113451900Y-63762000D01*
X113451900Y-63762000D02*
X113578900Y-63635000D01*
X113578900Y-63635000D02*
X113705900Y-63762000D01*
X113705900Y-63762000D02*
X113578900Y-63889000D01*
X112221000Y-61296000D02*
X112221000Y-61204000D01*
X112221000Y-61204000D02*
X112221000Y-61296000D01*
X111779000Y-61296000D02*
X111779000Y-61204000D01*
X111779000Y-61204000D02*
X111779000Y-61296000D01*
X100471000Y-61296000D02*
X100471000Y-61204000D01*
X100471000Y-61204000D02*
X100471000Y-61296000D01*
X100029000Y-61296000D02*
X100029000Y-61204000D01*
X100029000Y-61204000D02*
X100029000Y-61296000D01*
X78244000Y-64127000D02*
X78223000Y-64127000D01*
X78223000Y-64127000D02*
X78223000Y-60373000D01*
X78223000Y-60373000D02*
X78244000Y-60373000D01*
X81256000Y-64127000D02*
X81277000Y-64127000D01*
X81277000Y-64127000D02*
X81277000Y-60373000D01*
X81277000Y-60373000D02*
X81256000Y-60373000D01*
X78078900Y-64889000D02*
X77951900Y-64762000D01*
X77951900Y-64762000D02*
X78078900Y-64635000D01*
X78078900Y-64635000D02*
X78205900Y-64762000D01*
X78205900Y-64762000D02*
X78078900Y-64889000D01*
X105971000Y-58046000D02*
X105971000Y-57954000D01*
X105971000Y-57954000D02*
X105971000Y-58046000D01*
X105529000Y-58046000D02*
X105529000Y-57954000D01*
X105529000Y-57954000D02*
X105529000Y-58046000D01*
X94221000Y-58046000D02*
X94221000Y-57954000D01*
X94221000Y-57954000D02*
X94221000Y-58046000D01*
X93779000Y-58046000D02*
X93779000Y-57954000D01*
X93779000Y-57954000D02*
X93779000Y-58046000D01*
D16*
X160500000Y-98000000D02*
G75*
G03X160500000Y-98000000I-2500000J0D01*
G01*
X160500000Y-72000000D02*
G75*
G03X160500000Y-72000000I-2500000J0D01*
G01*
D14*
X143954000Y-30721000D02*
X144046000Y-30721000D01*
X144046000Y-30721000D02*
X143954000Y-30721000D01*
X143954000Y-30279000D02*
X144046000Y-30279000D01*
X144046000Y-30279000D02*
X143954000Y-30279000D01*
D16*
X149000000Y-42500000D02*
G75*
G03X149000000Y-42500000I-2500000J0D01*
G01*
D14*
X140721000Y-70321000D02*
X140721000Y-70179000D01*
X140721000Y-70179000D02*
X140721000Y-70321000D01*
X139779000Y-70321000D02*
X139779000Y-70179000D01*
X139779000Y-70179000D02*
X139779000Y-70321000D01*
X136929000Y-69471000D02*
X137071000Y-69471000D01*
X137071000Y-69471000D02*
X136929000Y-69471000D01*
X136929000Y-68529000D02*
X137071000Y-68529000D01*
X137071000Y-68529000D02*
X136929000Y-68529000D01*
X144046000Y-28279000D02*
X143954000Y-28279000D01*
X143954000Y-28279000D02*
X144046000Y-28279000D01*
X144046000Y-28721000D02*
X143954000Y-28721000D01*
X143954000Y-28721000D02*
X144046000Y-28721000D01*
D16*
X141500000Y-30500000D02*
G75*
G03X141500000Y-30500000I-2500000J0D01*
G01*
D14*
X65471000Y-55571000D02*
X65471000Y-55429000D01*
X65471000Y-55429000D02*
X65471000Y-55571000D01*
X64529000Y-55571000D02*
X64529000Y-55429000D01*
X64529000Y-55429000D02*
X64529000Y-55571000D01*
X111279000Y-52454000D02*
X111279000Y-52546000D01*
X111279000Y-52546000D02*
X111279000Y-52454000D01*
X111721000Y-52454000D02*
X111721000Y-52546000D01*
X111721000Y-52546000D02*
X111721000Y-52454000D01*
X95096000Y-24854000D02*
X93904000Y-24854000D01*
X93904000Y-24854000D02*
X95096000Y-24854000D01*
X95096000Y-26146000D02*
X93904000Y-26146000D01*
X93904000Y-26146000D02*
X95096000Y-26146000D01*
X90096000Y-27854000D02*
X88904000Y-27854000D01*
X88904000Y-27854000D02*
X90096000Y-27854000D01*
X90096000Y-29146000D02*
X88904000Y-29146000D01*
X88904000Y-29146000D02*
X90096000Y-29146000D01*
X89596000Y-42854000D02*
X88404000Y-42854000D01*
X88404000Y-42854000D02*
X89596000Y-42854000D01*
X89596000Y-44146000D02*
X88404000Y-44146000D01*
X88404000Y-44146000D02*
X89596000Y-44146000D01*
X112954000Y-24721000D02*
X113046000Y-24721000D01*
X113046000Y-24721000D02*
X112954000Y-24721000D01*
X112954000Y-24279000D02*
X113046000Y-24279000D01*
X113046000Y-24279000D02*
X112954000Y-24279000D01*
X128323000Y-51144000D02*
X128323000Y-50473000D01*
X128323000Y-50473000D02*
X135877000Y-50473000D01*
X135877000Y-50473000D02*
X135877000Y-51144000D01*
X128323000Y-54356000D02*
X128323000Y-55027000D01*
X128323000Y-55027000D02*
X135877000Y-55027000D01*
X135877000Y-55027000D02*
X135877000Y-54356000D01*
X127561000Y-50978900D02*
X127688000Y-50851900D01*
X127688000Y-50851900D02*
X127815000Y-50978900D01*
X127815000Y-50978900D02*
X127688000Y-51105900D01*
X127688000Y-51105900D02*
X127561000Y-50978900D01*
X106546000Y-29029000D02*
X106454000Y-29029000D01*
X106454000Y-29029000D02*
X106546000Y-29029000D01*
X106546000Y-29471000D02*
X106454000Y-29471000D01*
X106454000Y-29471000D02*
X106546000Y-29471000D01*
X116796000Y-26029000D02*
X116704000Y-26029000D01*
X116704000Y-26029000D02*
X116796000Y-26029000D01*
X116796000Y-26471000D02*
X116704000Y-26471000D01*
X116704000Y-26471000D02*
X116796000Y-26471000D01*
X113250000Y-102500000D02*
X113250000Y-102750000D01*
X113250000Y-102750000D02*
X112750000Y-102750000D01*
X112750000Y-100750000D02*
X113250000Y-100750000D01*
X113250000Y-100750000D02*
X113250000Y-101000000D01*
X112500000Y-67750000D02*
X112500000Y-67500000D01*
X112500000Y-67500000D02*
X113000000Y-67500000D01*
X113000000Y-69500000D02*
X112500000Y-69500000D01*
X112500000Y-69500000D02*
X112500000Y-69250000D01*
X115500000Y-70250000D02*
X115250000Y-70250000D01*
X115250000Y-70250000D02*
X115250000Y-69750000D01*
X117250000Y-69750000D02*
X117250000Y-70250000D01*
X117250000Y-70250000D02*
X117000000Y-70250000D01*
X148088000Y-70869000D02*
X148088000Y-70573000D01*
X148088000Y-70573000D02*
X153612000Y-70573000D01*
X153612000Y-70573000D02*
X153612000Y-70869000D01*
X148088000Y-73131000D02*
X148088000Y-73427000D01*
X148088000Y-73427000D02*
X153612000Y-73427000D01*
X153612000Y-73427000D02*
X153612000Y-73131000D01*
X147326000Y-70703900D02*
X147453000Y-70576900D01*
X147453000Y-70576900D02*
X147580000Y-70703900D01*
X147580000Y-70703900D02*
X147453000Y-70830900D01*
X147453000Y-70830900D02*
X147326000Y-70703900D01*
X113250000Y-56750000D02*
X113250000Y-57000000D01*
X113250000Y-57000000D02*
X112750000Y-57000000D01*
X112750000Y-55000000D02*
X113250000Y-55000000D01*
X113250000Y-55000000D02*
X113250000Y-55250000D01*
X112500000Y-21750000D02*
X112500000Y-21500000D01*
X112500000Y-21500000D02*
X113000000Y-21500000D01*
X113000000Y-23500000D02*
X112500000Y-23500000D01*
X112500000Y-23500000D02*
X112500000Y-23250000D01*
X115750000Y-24000000D02*
X115500000Y-24000000D01*
X115500000Y-24000000D02*
X115500000Y-23500000D01*
X117500000Y-23500000D02*
X117500000Y-24000000D01*
X117500000Y-24000000D02*
X117250000Y-24000000D01*
X76227000Y-74656000D02*
X76227000Y-74927000D01*
X76227000Y-74927000D02*
X70773000Y-74927000D01*
X70773000Y-74927000D02*
X70773000Y-74656000D01*
X76227000Y-72344000D02*
X76227000Y-72073000D01*
X76227000Y-72073000D02*
X70773000Y-72073000D01*
X70773000Y-72073000D02*
X70773000Y-72344000D01*
X76989000Y-74821100D02*
X76862000Y-74948100D01*
X76862000Y-74948100D02*
X76735000Y-74821100D01*
X76735000Y-74821100D02*
X76862000Y-74694100D01*
X76862000Y-74694100D02*
X76989000Y-74821100D01*
X106854000Y-106279000D02*
X106854000Y-107721000D01*
X106854000Y-107721000D02*
X106854000Y-106279000D01*
X108146000Y-106279000D02*
X108146000Y-107721000D01*
X108146000Y-107721000D02*
X108146000Y-106279000D01*
X156854000Y-33279000D02*
X156854000Y-34721000D01*
X156854000Y-34721000D02*
X156854000Y-33279000D01*
X158146000Y-33279000D02*
X158146000Y-34721000D01*
X158146000Y-34721000D02*
X158146000Y-33279000D01*
X158721000Y-19354000D02*
X157279000Y-19354000D01*
X157279000Y-19354000D02*
X158721000Y-19354000D01*
X158721000Y-20646000D02*
X157279000Y-20646000D01*
X157279000Y-20646000D02*
X158721000Y-20646000D01*
D11*
X80500000Y-95500000D02*
X77500000Y-95500000D01*
X77500000Y-95500000D02*
X79000000Y-94500000D01*
X79000000Y-94500000D02*
X80500000Y-95500000D01*
X80500000Y-93500000D02*
X77500000Y-93500000D01*
X77500000Y-93500000D02*
X79000000Y-94500000D01*
X79000000Y-94500000D02*
X80500000Y-93500000D01*
D14*
X110000000Y-95500000D02*
X110000000Y-77500000D01*
X108000000Y-97500000D02*
X104000000Y-97500000D01*
X108000000Y-97500000D02*
X110000000Y-95500000D01*
X104000000Y-97500000D02*
X104000000Y-77500000D01*
X104000000Y-77500000D02*
X110000000Y-77500000D01*
X110000000Y-49500000D02*
X110000000Y-31500000D01*
X108000000Y-51500000D02*
X104000000Y-51500000D01*
X108000000Y-51500000D02*
X110000000Y-49500000D01*
X104000000Y-51500000D02*
X104000000Y-31500000D01*
X104000000Y-31500000D02*
X110000000Y-31500000D01*
D11*
X89620000Y-31245000D02*
X86370000Y-31245000D01*
X96370000Y-40755000D02*
X99370000Y-40755000D01*
X99370000Y-40755000D02*
X99370000Y-31245000D01*
X99370000Y-31245000D02*
X96370000Y-31245000D01*
X86370000Y-40755000D02*
X89620000Y-40755000D01*
X84620000Y-31245000D02*
X84370000Y-31245000D01*
X84370000Y-31245000D02*
X84370000Y-40755000D01*
X84370000Y-40755000D02*
X84620000Y-40755000D01*
D14*
X100500000Y-45500000D02*
X82500000Y-45500000D01*
X102500000Y-47500000D02*
X102500000Y-51500000D01*
X102500000Y-47500000D02*
X100500000Y-45500000D01*
X102500000Y-51500000D02*
X82500000Y-51500000D01*
X82500000Y-51500000D02*
X82500000Y-45500000D01*
X74942000Y-60500000D02*
X72058000Y-60500000D01*
X72058000Y-60500000D02*
X72058000Y-70500000D01*
X72058000Y-70500000D02*
X74942000Y-70500000D01*
X74942000Y-70500000D02*
X74942000Y-60500000D01*
X70177000Y-60201000D02*
X70304000Y-60074000D01*
X70304000Y-60074000D02*
X70431000Y-60201000D01*
X70431000Y-60201000D02*
X70304000Y-60328000D01*
X70304000Y-60328000D02*
X70177000Y-60201000D01*
X72185000Y-61008000D02*
X72566000Y-60627000D01*
X72566000Y-60627000D02*
X72947000Y-61008000D01*
X72947000Y-61008000D02*
X72566000Y-61389000D01*
X72566000Y-61389000D02*
X72185000Y-61008000D01*
X113929000Y-99746000D02*
X114071000Y-99746000D01*
X114071000Y-99746000D02*
X113929000Y-99746000D01*
X113929000Y-99254000D02*
X114071000Y-99254000D01*
X114071000Y-99254000D02*
X113929000Y-99254000D01*
X99071000Y-71504000D02*
X98929000Y-71504000D01*
X98929000Y-71504000D02*
X99071000Y-71504000D01*
X99071000Y-71996000D02*
X98929000Y-71996000D01*
X98929000Y-71996000D02*
X99071000Y-71996000D01*
X117571000Y-99254000D02*
X117429000Y-99254000D01*
X117429000Y-99254000D02*
X117571000Y-99254000D01*
X117571000Y-99746000D02*
X117429000Y-99746000D01*
X117429000Y-99746000D02*
X117571000Y-99746000D01*
X94271000Y-74029000D02*
X93729000Y-74029000D01*
X93729000Y-74029000D02*
X94271000Y-74029000D01*
X94271000Y-74971000D02*
X93729000Y-74971000D01*
X93729000Y-74971000D02*
X94271000Y-74971000D01*
X98021000Y-74029000D02*
X97479000Y-74029000D01*
X97479000Y-74029000D02*
X98021000Y-74029000D01*
X98021000Y-74971000D02*
X97479000Y-74971000D01*
X97479000Y-74971000D02*
X98021000Y-74971000D01*
X101471000Y-77271000D02*
X101471000Y-76729000D01*
X101471000Y-76729000D02*
X101471000Y-77271000D01*
X100529000Y-77271000D02*
X100529000Y-76729000D01*
X100529000Y-76729000D02*
X100529000Y-77271000D01*
X115254000Y-101929000D02*
X115254000Y-102071000D01*
X115254000Y-102071000D02*
X115254000Y-101929000D01*
X115746000Y-101929000D02*
X115746000Y-102071000D01*
X115746000Y-102071000D02*
X115746000Y-101929000D01*
X117254000Y-101929000D02*
X117254000Y-102071000D01*
X117254000Y-102071000D02*
X117254000Y-101929000D01*
X117746000Y-101929000D02*
X117746000Y-102071000D01*
X117746000Y-102071000D02*
X117746000Y-101929000D01*
X81646000Y-102221000D02*
X81646000Y-100779000D01*
X81646000Y-100779000D02*
X81646000Y-102221000D01*
X80354000Y-102221000D02*
X80354000Y-100779000D01*
X80354000Y-100779000D02*
X80354000Y-102221000D01*
X78646000Y-102221000D02*
X78646000Y-100779000D01*
X78646000Y-100779000D02*
X78646000Y-102221000D01*
X77354000Y-102221000D02*
X77354000Y-100779000D01*
X77354000Y-100779000D02*
X77354000Y-102221000D01*
X75646000Y-102221000D02*
X75646000Y-100779000D01*
X75646000Y-100779000D02*
X75646000Y-102221000D01*
X74354000Y-102221000D02*
X74354000Y-100779000D01*
X74354000Y-100779000D02*
X74354000Y-102221000D01*
X72646000Y-102221000D02*
X72646000Y-100779000D01*
X72646000Y-100779000D02*
X72646000Y-102221000D01*
X71354000Y-102221000D02*
X71354000Y-100779000D01*
X71354000Y-100779000D02*
X71354000Y-102221000D01*
X124754000Y-67429000D02*
X124754000Y-67571000D01*
X124754000Y-67571000D02*
X124754000Y-67429000D01*
X125246000Y-67429000D02*
X125246000Y-67571000D01*
X125246000Y-67571000D02*
X125246000Y-67429000D01*
X143821000Y-52254000D02*
X143679000Y-52254000D01*
X143679000Y-52254000D02*
X143821000Y-52254000D01*
X143821000Y-52746000D02*
X143679000Y-52746000D01*
X143679000Y-52746000D02*
X143821000Y-52746000D01*
X144321000Y-57254000D02*
X144179000Y-57254000D01*
X144179000Y-57254000D02*
X144321000Y-57254000D01*
X144321000Y-57746000D02*
X144179000Y-57746000D01*
X144179000Y-57746000D02*
X144321000Y-57746000D01*
X150071000Y-95754000D02*
X149929000Y-95754000D01*
X149929000Y-95754000D02*
X150071000Y-95754000D01*
X150071000Y-96246000D02*
X149929000Y-96246000D01*
X149929000Y-96246000D02*
X150071000Y-96246000D01*
X146821000Y-95754000D02*
X146679000Y-95754000D01*
X146679000Y-95754000D02*
X146821000Y-95754000D01*
X146821000Y-96246000D02*
X146679000Y-96246000D01*
X146679000Y-96246000D02*
X146821000Y-96246000D01*
X113929000Y-53746000D02*
X114071000Y-53746000D01*
X114071000Y-53746000D02*
X113929000Y-53746000D01*
X113929000Y-53254000D02*
X114071000Y-53254000D01*
X114071000Y-53254000D02*
X113929000Y-53254000D01*
X99321000Y-25254000D02*
X99179000Y-25254000D01*
X99179000Y-25254000D02*
X99321000Y-25254000D01*
X99321000Y-25746000D02*
X99179000Y-25746000D01*
X99179000Y-25746000D02*
X99321000Y-25746000D01*
X117571000Y-53254000D02*
X117429000Y-53254000D01*
X117429000Y-53254000D02*
X117571000Y-53254000D01*
X117571000Y-53746000D02*
X117429000Y-53746000D01*
X117429000Y-53746000D02*
X117571000Y-53746000D01*
X94271000Y-28029000D02*
X93729000Y-28029000D01*
X93729000Y-28029000D02*
X94271000Y-28029000D01*
X94271000Y-28971000D02*
X93729000Y-28971000D01*
X93729000Y-28971000D02*
X94271000Y-28971000D01*
X98021000Y-28029000D02*
X97479000Y-28029000D01*
X97479000Y-28029000D02*
X98021000Y-28029000D01*
X98021000Y-28971000D02*
X97479000Y-28971000D01*
X97479000Y-28971000D02*
X98021000Y-28971000D01*
X101721000Y-30521000D02*
X101721000Y-29979000D01*
X101721000Y-29979000D02*
X101721000Y-30521000D01*
X100779000Y-30521000D02*
X100779000Y-29979000D01*
X100779000Y-29979000D02*
X100779000Y-30521000D01*
X115254000Y-55929000D02*
X115254000Y-56071000D01*
X115254000Y-56071000D02*
X115254000Y-55929000D01*
X115746000Y-55929000D02*
X115746000Y-56071000D01*
X115746000Y-56071000D02*
X115746000Y-55929000D01*
X117254000Y-55929000D02*
X117254000Y-56071000D01*
X117254000Y-56071000D02*
X117254000Y-55929000D01*
X117746000Y-55929000D02*
X117746000Y-56071000D01*
X117746000Y-56071000D02*
X117746000Y-55929000D01*
X78646000Y-56221000D02*
X78646000Y-54779000D01*
X78646000Y-54779000D02*
X78646000Y-56221000D01*
X77354000Y-56221000D02*
X77354000Y-54779000D01*
X77354000Y-54779000D02*
X77354000Y-56221000D01*
X75646000Y-56221000D02*
X75646000Y-54779000D01*
X75646000Y-54779000D02*
X75646000Y-56221000D01*
X74354000Y-56221000D02*
X74354000Y-54779000D01*
X74354000Y-54779000D02*
X74354000Y-56221000D01*
X72646000Y-56221000D02*
X72646000Y-54779000D01*
X72646000Y-54779000D02*
X72646000Y-56221000D01*
X71354000Y-56221000D02*
X71354000Y-54779000D01*
X71354000Y-54779000D02*
X71354000Y-56221000D01*
X81646000Y-56221000D02*
X81646000Y-54779000D01*
X81646000Y-54779000D02*
X81646000Y-56221000D01*
X80354000Y-56221000D02*
X80354000Y-54779000D01*
X80354000Y-54779000D02*
X80354000Y-56221000D01*
D12*
X69100000Y-100800000D02*
X70000000Y-100800000D01*
X70000000Y-100800000D02*
X70000000Y-101800000D01*
X67000000Y-101800000D02*
X67000000Y-100800000D01*
X67000000Y-100800000D02*
X67900000Y-100800000D01*
D14*
X121750000Y-90341000D02*
X125750000Y-90341000D01*
X121750000Y-95659000D02*
X125750000Y-95659000D01*
X121115000Y-90087000D02*
X121242000Y-89960000D01*
X121242000Y-89960000D02*
X121369000Y-90087000D01*
X121369000Y-90087000D02*
X121242000Y-90214000D01*
X121242000Y-90214000D02*
X121115000Y-90087000D01*
X128341000Y-94250000D02*
X128341000Y-90250000D01*
X133659000Y-94250000D02*
X133659000Y-90250000D01*
X128087000Y-94885000D02*
X127960000Y-94758000D01*
X127960000Y-94758000D02*
X128087000Y-94631000D01*
X128087000Y-94631000D02*
X128214000Y-94758000D01*
X128214000Y-94758000D02*
X128087000Y-94885000D01*
X120591000Y-86750000D02*
X120591000Y-82750000D01*
X125909000Y-86750000D02*
X125909000Y-82750000D01*
X120337000Y-87385000D02*
X120210000Y-87258000D01*
X120210000Y-87258000D02*
X120337000Y-87131000D01*
X120337000Y-87131000D02*
X120464000Y-87258000D01*
X120464000Y-87258000D02*
X120337000Y-87385000D01*
X127550000Y-74904000D02*
X127550000Y-75127000D01*
X127550000Y-75127000D02*
X124450000Y-75127000D01*
X124450000Y-75127000D02*
X124450000Y-74904000D01*
X127550000Y-72596000D02*
X127550000Y-72373000D01*
X127550000Y-72373000D02*
X124450000Y-72373000D01*
X124450000Y-72373000D02*
X124450000Y-72596000D01*
X128185000Y-75158000D02*
X128058000Y-75285000D01*
X128058000Y-75285000D02*
X127931000Y-75158000D01*
X127931000Y-75158000D02*
X128058000Y-75031000D01*
X128058000Y-75031000D02*
X128185000Y-75158000D01*
X110204000Y-57950000D02*
X110427000Y-57950000D01*
X110427000Y-57950000D02*
X110427000Y-61050000D01*
X110427000Y-61050000D02*
X110204000Y-61050000D01*
X107296000Y-57950000D02*
X107073000Y-57950000D01*
X107073000Y-57950000D02*
X107073000Y-61050000D01*
X107073000Y-61050000D02*
X107296000Y-61050000D01*
X110458000Y-57315000D02*
X110585000Y-57442000D01*
X110585000Y-57442000D02*
X110458000Y-57569000D01*
X110458000Y-57569000D02*
X110331000Y-57442000D01*
X110331000Y-57442000D02*
X110458000Y-57315000D01*
X98454000Y-57950000D02*
X98677000Y-57950000D01*
X98677000Y-57950000D02*
X98677000Y-61050000D01*
X98677000Y-61050000D02*
X98454000Y-61050000D01*
X95546000Y-57950000D02*
X95323000Y-57950000D01*
X95323000Y-57950000D02*
X95323000Y-61050000D01*
X95323000Y-61050000D02*
X95546000Y-61050000D01*
X98708000Y-57315000D02*
X98835000Y-57442000D01*
X98835000Y-57442000D02*
X98708000Y-57569000D01*
X98708000Y-57569000D02*
X98581000Y-57442000D01*
X98581000Y-57442000D02*
X98708000Y-57315000D01*
X113550000Y-28954000D02*
X113550000Y-29177000D01*
X113550000Y-29177000D02*
X110450000Y-29177000D01*
X110450000Y-29177000D02*
X110450000Y-28954000D01*
X113550000Y-26046000D02*
X113550000Y-25823000D01*
X113550000Y-25823000D02*
X110450000Y-25823000D01*
X110450000Y-25823000D02*
X110450000Y-26046000D01*
X114185000Y-29208000D02*
X114058000Y-29335000D01*
X114058000Y-29335000D02*
X113931000Y-29208000D01*
X113931000Y-29208000D02*
X114058000Y-29081000D01*
X114058000Y-29081000D02*
X114185000Y-29208000D01*
X156500000Y-86700000D02*
X156500000Y-88700000D01*
X156500000Y-88700000D02*
X154500000Y-88700000D01*
X154500000Y-88700000D02*
X154500000Y-89700000D01*
X145500000Y-88700000D02*
X147500000Y-88700000D01*
X147500000Y-88700000D02*
X147500000Y-89700000D01*
X145500000Y-86700000D02*
X145500000Y-88700000D01*
X147000000Y-39000000D02*
X146000000Y-39000000D01*
X146000000Y-39000000D02*
X146000000Y-38500000D01*
X146000000Y-38500000D02*
X145500000Y-38500000D01*
X146000000Y-32000000D02*
X146000000Y-32500000D01*
X146000000Y-32500000D02*
X145500000Y-32500000D01*
X147000000Y-32000000D02*
X146000000Y-32000000D01*
X147000000Y-27000000D02*
X146000000Y-27000000D01*
X146000000Y-27000000D02*
X146000000Y-26500000D01*
X146000000Y-26500000D02*
X145500000Y-26500000D01*
X146000000Y-20000000D02*
X146000000Y-20500000D01*
X146000000Y-20500000D02*
X145500000Y-20500000D01*
X147000000Y-20000000D02*
X146000000Y-20000000D01*
D12*
X69100000Y-54800000D02*
X70000000Y-54800000D01*
X70000000Y-54800000D02*
X70000000Y-55800000D01*
X67000000Y-55800000D02*
X67000000Y-54800000D01*
X67000000Y-54800000D02*
X67900000Y-54800000D01*
D14*
X121750000Y-44341000D02*
X125750000Y-44341000D01*
X121750000Y-49659000D02*
X125750000Y-49659000D01*
X121115000Y-44087000D02*
X121242000Y-43960000D01*
X121242000Y-43960000D02*
X121369000Y-44087000D01*
X121369000Y-44087000D02*
X121242000Y-44214000D01*
X121242000Y-44214000D02*
X121115000Y-44087000D01*
X128341000Y-48250000D02*
X128341000Y-44250000D01*
X133659000Y-48250000D02*
X133659000Y-44250000D01*
X128087000Y-48885000D02*
X127960000Y-48758000D01*
X127960000Y-48758000D02*
X128087000Y-48631000D01*
X128087000Y-48631000D02*
X128214000Y-48758000D01*
X128214000Y-48758000D02*
X128087000Y-48885000D01*
X120591000Y-40750000D02*
X120591000Y-36750000D01*
X125909000Y-40750000D02*
X125909000Y-36750000D01*
X120337000Y-41385000D02*
X120210000Y-41258000D01*
X120210000Y-41258000D02*
X120337000Y-41131000D01*
X120337000Y-41131000D02*
X120464000Y-41258000D01*
X120464000Y-41258000D02*
X120337000Y-41385000D01*
X126971000Y-67546000D02*
X126971000Y-67454000D01*
X126971000Y-67454000D02*
X126971000Y-67546000D01*
X126529000Y-67546000D02*
X126529000Y-67454000D01*
X126529000Y-67454000D02*
X126529000Y-67546000D01*
X149016000Y-105000000D02*
X156636000Y-105000000D01*
X139364000Y-105000000D02*
X146984000Y-105000000D01*
X149016000Y-105508000D02*
X149016000Y-104492000D01*
X149016000Y-104492000D02*
X146984000Y-104492000D01*
X146984000Y-104492000D02*
X146984000Y-105508000D01*
X146984000Y-105508000D02*
X149016000Y-105508000D01*
D12*
X64750000Y-61250000D02*
X64250000Y-61250000D01*
X64250000Y-60750000D02*
X64750000Y-60750000D01*
X62750000Y-60500000D02*
X62750000Y-61500000D01*
X64750000Y-62750000D02*
X64250000Y-62750000D01*
X64250000Y-62250000D02*
X64750000Y-62250000D01*
X62750000Y-62000000D02*
X62750000Y-63000000D01*
X64750000Y-64250000D02*
X64250000Y-64250000D01*
X64250000Y-63750000D02*
X64750000Y-63750000D01*
X62750000Y-63500000D02*
X62750000Y-64500000D01*
X64750000Y-65750000D02*
X64250000Y-65750000D01*
X64250000Y-65250000D02*
X64750000Y-65250000D01*
X62750000Y-65000000D02*
X62750000Y-66000000D01*
X64750000Y-67250000D02*
X64250000Y-67250000D01*
X64250000Y-66750000D02*
X64750000Y-66750000D01*
X62750000Y-66500000D02*
X62750000Y-67500000D01*
X64750000Y-68750000D02*
X64250000Y-68750000D01*
X64250000Y-68250000D02*
X64750000Y-68250000D01*
X62750000Y-68000000D02*
X62750000Y-69000000D01*
X143000000Y-47750000D02*
X143500000Y-47750000D01*
X143500000Y-48250000D02*
X143000000Y-48250000D01*
X145000000Y-48500000D02*
X145000000Y-47500000D01*
X143000000Y-46250000D02*
X143500000Y-46250000D01*
X143500000Y-46750000D02*
X143000000Y-46750000D01*
X145000000Y-47000000D02*
X145000000Y-46000000D01*
X143000000Y-49250000D02*
X143500000Y-49250000D01*
X143500000Y-49750000D02*
X143000000Y-49750000D01*
X145000000Y-50000000D02*
X145000000Y-49000000D01*
X128250000Y-103750000D02*
X128750000Y-103750000D01*
X128750000Y-104250000D02*
X128250000Y-104250000D01*
X130250000Y-104500000D02*
X130250000Y-103500000D01*
X128250000Y-106750000D02*
X128750000Y-106750000D01*
X128750000Y-107250000D02*
X128250000Y-107250000D01*
X130250000Y-107500000D02*
X130250000Y-106500000D01*
X128250000Y-105250000D02*
X128750000Y-105250000D01*
X128750000Y-105750000D02*
X128250000Y-105750000D01*
X130250000Y-106000000D02*
X130250000Y-105000000D01*
D14*
X144971000Y-70029000D02*
X144829000Y-70029000D01*
X144829000Y-70029000D02*
X144971000Y-70029000D01*
X144971000Y-70971000D02*
X144829000Y-70971000D01*
X144829000Y-70971000D02*
X144971000Y-70971000D01*
X148071000Y-29029000D02*
X147929000Y-29029000D01*
X147929000Y-29029000D02*
X148071000Y-29029000D01*
X148071000Y-29971000D02*
X147929000Y-29971000D01*
X147929000Y-29971000D02*
X148071000Y-29971000D01*
D12*
X144400000Y-74450000D02*
X143500000Y-74450000D01*
X143500000Y-74450000D02*
X143500000Y-73450000D01*
X146500000Y-73450000D02*
X146500000Y-74450000D01*
X146500000Y-74450000D02*
X145600000Y-74450000D01*
X153200000Y-30100000D02*
X153200000Y-31000000D01*
X153200000Y-31000000D02*
X152200000Y-31000000D01*
X152200000Y-28000000D02*
X153200000Y-28000000D01*
X153200000Y-28000000D02*
X153200000Y-28900000D01*
D16*
X161000000Y-43500000D02*
G75*
G03X161000000Y-43500000I-4000000J0D01*
G01*
X141500000Y-23000000D02*
G75*
G03X141500000Y-23000000I-4000000J0D01*
G01*
D14*
X137321000Y-72754000D02*
X137179000Y-72754000D01*
X137179000Y-72754000D02*
X137321000Y-72754000D01*
X137321000Y-73246000D02*
X137179000Y-73246000D01*
X137179000Y-73246000D02*
X137321000Y-73246000D01*
D11*
X138500000Y-72000000D02*
X137750000Y-72000000D01*
D14*
X121527000Y-66873000D02*
X121527000Y-69127000D01*
X119973000Y-66873000D02*
X119973000Y-69127000D01*
X121771100Y-66111000D02*
X121898100Y-66238000D01*
X121898100Y-66238000D02*
X121771100Y-66365000D01*
X121771100Y-66365000D02*
X121644100Y-66238000D01*
X121644100Y-66238000D02*
X121771100Y-66111000D01*
X142027000Y-58873000D02*
X142027000Y-61127000D01*
X140473000Y-58873000D02*
X140473000Y-61127000D01*
X142271100Y-58111000D02*
X142398100Y-58238000D01*
X142398100Y-58238000D02*
X142271100Y-58365000D01*
X142271100Y-58365000D02*
X142144100Y-58238000D01*
X142144100Y-58238000D02*
X142271100Y-58111000D01*
X115396000Y-38446000D02*
X115396000Y-35854000D01*
X115396000Y-35854000D02*
X115396000Y-38446000D01*
X113604000Y-38446000D02*
X113604000Y-35854000D01*
X113604000Y-35854000D02*
X113604000Y-38446000D01*
X115396000Y-84446000D02*
X115396000Y-81854000D01*
X115396000Y-81854000D02*
X115396000Y-84446000D01*
X113604000Y-84446000D02*
X113604000Y-81854000D01*
X113604000Y-81854000D02*
X113604000Y-84446000D01*
D12*
X136759524Y-64561905D02*
X136759524Y-65209524D01*
X136797619Y-65285714D01*
X136835715Y-65323810D01*
X136911905Y-65361905D01*
X137064286Y-65361905D01*
X137140477Y-65323810D01*
X137178572Y-65285714D01*
X137216667Y-65209524D01*
X137216667Y-64561905D01*
X138016667Y-65361905D02*
X137559524Y-65361905D01*
X137788095Y-65361905D02*
X137788095Y-64561905D01*
X137711905Y-64676190D01*
X137635714Y-64752381D01*
X137559524Y-64790476D01*
X138473810Y-64904762D02*
X138397619Y-64866667D01*
X138359524Y-64828571D01*
X138321429Y-64752381D01*
X138321429Y-64714286D01*
X138359524Y-64638095D01*
X138397619Y-64600000D01*
X138473810Y-64561905D01*
X138626191Y-64561905D01*
X138702381Y-64600000D01*
X138740477Y-64638095D01*
X138778572Y-64714286D01*
X138778572Y-64752381D01*
X138740477Y-64828571D01*
X138702381Y-64866667D01*
X138626191Y-64904762D01*
X138473810Y-64904762D01*
X138397619Y-64942857D01*
X138359524Y-64980952D01*
X138321429Y-65057143D01*
X138321429Y-65209524D01*
X138359524Y-65285714D01*
X138397619Y-65323810D01*
X138473810Y-65361905D01*
X138626191Y-65361905D01*
X138702381Y-65323810D01*
X138740477Y-65285714D01*
X138778572Y-65209524D01*
X138778572Y-65057143D01*
X138740477Y-64980952D01*
X138702381Y-64942857D01*
X138626191Y-64904762D01*
X127311905Y-32859524D02*
X127959524Y-32859524D01*
X128035714Y-32821429D01*
X128073810Y-32783333D01*
X128111905Y-32707143D01*
X128111905Y-32554762D01*
X128073810Y-32478571D01*
X128035714Y-32440476D01*
X127959524Y-32402381D01*
X127311905Y-32402381D01*
X127311905Y-31678572D02*
X127311905Y-31830953D01*
X127350000Y-31907143D01*
X127388095Y-31945238D01*
X127502381Y-32021429D01*
X127654762Y-32059524D01*
X127959524Y-32059524D01*
X128035714Y-32021429D01*
X128073810Y-31983334D01*
X128111905Y-31907143D01*
X128111905Y-31754762D01*
X128073810Y-31678572D01*
X128035714Y-31640476D01*
X127959524Y-31602381D01*
X127769048Y-31602381D01*
X127692857Y-31640476D01*
X127654762Y-31678572D01*
X127616667Y-31754762D01*
X127616667Y-31907143D01*
X127654762Y-31983334D01*
X127692857Y-32021429D01*
X127769048Y-32059524D01*
X118640476Y-50561905D02*
X118640476Y-51209524D01*
X118678571Y-51285714D01*
X118716667Y-51323810D01*
X118792857Y-51361905D01*
X118945238Y-51361905D01*
X119021429Y-51323810D01*
X119059524Y-51285714D01*
X119097619Y-51209524D01*
X119097619Y-50561905D01*
X119440476Y-50638095D02*
X119478571Y-50600000D01*
X119554762Y-50561905D01*
X119745238Y-50561905D01*
X119821428Y-50600000D01*
X119859524Y-50638095D01*
X119897619Y-50714286D01*
X119897619Y-50790476D01*
X119859524Y-50904762D01*
X119402381Y-51361905D01*
X119897619Y-51361905D01*
X133259524Y-77311905D02*
X133259524Y-77959524D01*
X133297619Y-78035714D01*
X133335715Y-78073810D01*
X133411905Y-78111905D01*
X133564286Y-78111905D01*
X133640477Y-78073810D01*
X133678572Y-78035714D01*
X133716667Y-77959524D01*
X133716667Y-77311905D01*
X134516667Y-78111905D02*
X134059524Y-78111905D01*
X134288095Y-78111905D02*
X134288095Y-77311905D01*
X134211905Y-77426190D01*
X134135714Y-77502381D01*
X134059524Y-77540476D01*
X135202381Y-77578571D02*
X135202381Y-78111905D01*
X135011905Y-77273810D02*
X134821429Y-77845238D01*
X135316667Y-77845238D01*
X118561905Y-98490476D02*
X119209524Y-98490476D01*
X119285714Y-98452381D01*
X119323810Y-98414285D01*
X119361905Y-98338095D01*
X119361905Y-98185714D01*
X119323810Y-98109523D01*
X119285714Y-98071428D01*
X119209524Y-98033333D01*
X118561905Y-98033333D01*
X119361905Y-97233333D02*
X119361905Y-97690476D01*
X119361905Y-97461905D02*
X118561905Y-97461905D01*
X118676190Y-97538095D01*
X118752381Y-97614286D01*
X118790476Y-97690476D01*
X118561905Y-96738095D02*
X118561905Y-96661904D01*
X118600000Y-96585714D01*
X118638095Y-96547619D01*
X118714286Y-96509523D01*
X118866667Y-96471428D01*
X119057143Y-96471428D01*
X119209524Y-96509523D01*
X119285714Y-96547619D01*
X119323810Y-96585714D01*
X119361905Y-96661904D01*
X119361905Y-96738095D01*
X119323810Y-96814285D01*
X119285714Y-96852381D01*
X119209524Y-96890476D01*
X119057143Y-96928571D01*
X118866667Y-96928571D01*
X118714286Y-96890476D01*
X118638095Y-96852381D01*
X118600000Y-96814285D01*
X118561905Y-96738095D01*
X114759524Y-75061905D02*
X114759524Y-75709524D01*
X114797619Y-75785714D01*
X114835715Y-75823810D01*
X114911905Y-75861905D01*
X115064286Y-75861905D01*
X115140477Y-75823810D01*
X115178572Y-75785714D01*
X115216667Y-75709524D01*
X115216667Y-75061905D01*
X116016667Y-75861905D02*
X115559524Y-75861905D01*
X115788095Y-75861905D02*
X115788095Y-75061905D01*
X115711905Y-75176190D01*
X115635714Y-75252381D01*
X115559524Y-75290476D01*
X116702381Y-75061905D02*
X116550000Y-75061905D01*
X116473810Y-75100000D01*
X116435715Y-75138095D01*
X116359524Y-75252381D01*
X116321429Y-75404762D01*
X116321429Y-75709524D01*
X116359524Y-75785714D01*
X116397619Y-75823810D01*
X116473810Y-75861905D01*
X116626191Y-75861905D01*
X116702381Y-75823810D01*
X116740477Y-75785714D01*
X116778572Y-75709524D01*
X116778572Y-75519048D01*
X116740477Y-75442857D01*
X116702381Y-75404762D01*
X116626191Y-75366667D01*
X116473810Y-75366667D01*
X116397619Y-75404762D01*
X116359524Y-75442857D01*
X116321429Y-75519048D01*
X120259524Y-56811905D02*
X120259524Y-57459524D01*
X120297619Y-57535714D01*
X120335715Y-57573810D01*
X120411905Y-57611905D01*
X120564286Y-57611905D01*
X120640477Y-57573810D01*
X120678572Y-57535714D01*
X120716667Y-57459524D01*
X120716667Y-56811905D01*
X121516667Y-57611905D02*
X121059524Y-57611905D01*
X121288095Y-57611905D02*
X121288095Y-56811905D01*
X121211905Y-56926190D01*
X121135714Y-57002381D01*
X121059524Y-57040476D01*
X121783334Y-56811905D02*
X122316667Y-56811905D01*
X121973810Y-57611905D01*
X83159524Y-90861905D02*
X83159524Y-90061905D01*
X83616667Y-90861905D02*
X83273810Y-90404762D01*
X83616667Y-90061905D02*
X83159524Y-90519048D01*
X84302381Y-90061905D02*
X84150000Y-90061905D01*
X84073810Y-90100000D01*
X84035715Y-90138095D01*
X83959524Y-90252381D01*
X83921429Y-90404762D01*
X83921429Y-90709524D01*
X83959524Y-90785714D01*
X83997619Y-90823810D01*
X84073810Y-90861905D01*
X84226191Y-90861905D01*
X84302381Y-90823810D01*
X84340477Y-90785714D01*
X84378572Y-90709524D01*
X84378572Y-90519048D01*
X84340477Y-90442857D01*
X84302381Y-90404762D01*
X84226191Y-90366667D01*
X84073810Y-90366667D01*
X83997619Y-90404762D01*
X83959524Y-90442857D01*
X83921429Y-90519048D01*
X79523810Y-22785714D02*
X79485715Y-22823810D01*
X79371429Y-22861905D01*
X79295239Y-22861905D01*
X79180953Y-22823810D01*
X79104762Y-22747619D01*
X79066667Y-22671429D01*
X79028572Y-22519048D01*
X79028572Y-22404762D01*
X79066667Y-22252381D01*
X79104762Y-22176190D01*
X79180953Y-22100000D01*
X79295239Y-22061905D01*
X79371429Y-22061905D01*
X79485715Y-22100000D01*
X79523810Y-22138095D01*
X79752381Y-22061905D02*
X80019048Y-22861905D01*
X80285715Y-22061905D01*
X80476191Y-22061905D02*
X80971429Y-22061905D01*
X80704762Y-22366667D01*
X80819048Y-22366667D01*
X80895238Y-22404762D01*
X80933334Y-22442857D01*
X80971429Y-22519048D01*
X80971429Y-22709524D01*
X80933334Y-22785714D01*
X80895238Y-22823810D01*
X80819048Y-22861905D01*
X80590476Y-22861905D01*
X80514286Y-22823810D01*
X80476191Y-22785714D01*
X156842857Y-66221429D02*
X157700000Y-66221429D01*
X157871429Y-66278571D01*
X157985714Y-66392857D01*
X158042857Y-66564286D01*
X158042857Y-66678571D01*
X158042857Y-65021428D02*
X158042857Y-65707143D01*
X158042857Y-65364285D02*
X156842857Y-65364285D01*
X157014286Y-65478571D01*
X157128571Y-65592857D01*
X157185714Y-65707143D01*
X156842857Y-64278571D02*
X156842857Y-64164286D01*
X156900000Y-64050000D01*
X156957143Y-63992857D01*
X157071429Y-63935714D01*
X157300000Y-63878571D01*
X157585714Y-63878571D01*
X157814286Y-63935714D01*
X157928571Y-63992857D01*
X157985714Y-64050000D01*
X158042857Y-64164286D01*
X158042857Y-64278571D01*
X157985714Y-64392857D01*
X157928571Y-64450000D01*
X157814286Y-64507143D01*
X157585714Y-64564286D01*
X157300000Y-64564286D01*
X157071429Y-64507143D01*
X156957143Y-64450000D01*
X156900000Y-64392857D01*
X156842857Y-64278571D01*
X98409524Y-88361905D02*
X98409524Y-87561905D01*
X98866667Y-88361905D02*
X98523810Y-87904762D01*
X98866667Y-87561905D02*
X98409524Y-88019048D01*
X99590477Y-87561905D02*
X99209524Y-87561905D01*
X99171429Y-87942857D01*
X99209524Y-87904762D01*
X99285715Y-87866667D01*
X99476191Y-87866667D01*
X99552381Y-87904762D01*
X99590477Y-87942857D01*
X99628572Y-88019048D01*
X99628572Y-88209524D01*
X99590477Y-88285714D01*
X99552381Y-88323810D01*
X99476191Y-88361905D01*
X99285715Y-88361905D01*
X99209524Y-88323810D01*
X99171429Y-88285714D01*
X75023810Y-83785714D02*
X74985715Y-83823810D01*
X74871429Y-83861905D01*
X74795239Y-83861905D01*
X74680953Y-83823810D01*
X74604762Y-83747619D01*
X74566667Y-83671429D01*
X74528572Y-83519048D01*
X74528572Y-83404762D01*
X74566667Y-83252381D01*
X74604762Y-83176190D01*
X74680953Y-83100000D01*
X74795239Y-83061905D01*
X74871429Y-83061905D01*
X74985715Y-83100000D01*
X75023810Y-83138095D01*
X75252381Y-83061905D02*
X75519048Y-83861905D01*
X75785715Y-83061905D01*
X76166667Y-83404762D02*
X76090476Y-83366667D01*
X76052381Y-83328571D01*
X76014286Y-83252381D01*
X76014286Y-83214286D01*
X76052381Y-83138095D01*
X76090476Y-83100000D01*
X76166667Y-83061905D01*
X76319048Y-83061905D01*
X76395238Y-83100000D01*
X76433334Y-83138095D01*
X76471429Y-83214286D01*
X76471429Y-83252381D01*
X76433334Y-83328571D01*
X76395238Y-83366667D01*
X76319048Y-83404762D01*
X76166667Y-83404762D01*
X76090476Y-83442857D01*
X76052381Y-83480952D01*
X76014286Y-83557143D01*
X76014286Y-83709524D01*
X76052381Y-83785714D01*
X76090476Y-83823810D01*
X76166667Y-83861905D01*
X76319048Y-83861905D01*
X76395238Y-83823810D01*
X76433334Y-83785714D01*
X76471429Y-83709524D01*
X76471429Y-83557143D01*
X76433334Y-83480952D01*
X76395238Y-83442857D01*
X76319048Y-83404762D01*
X79523810Y-68785714D02*
X79485715Y-68823810D01*
X79371429Y-68861905D01*
X79295239Y-68861905D01*
X79180953Y-68823810D01*
X79104762Y-68747619D01*
X79066667Y-68671429D01*
X79028572Y-68519048D01*
X79028572Y-68404762D01*
X79066667Y-68252381D01*
X79104762Y-68176190D01*
X79180953Y-68100000D01*
X79295239Y-68061905D01*
X79371429Y-68061905D01*
X79485715Y-68100000D01*
X79523810Y-68138095D01*
X79752381Y-68061905D02*
X80019048Y-68861905D01*
X80285715Y-68061905D01*
X80476191Y-68061905D02*
X81009524Y-68061905D01*
X80666667Y-68861905D01*
X74523810Y-76785714D02*
X74485715Y-76823810D01*
X74371429Y-76861905D01*
X74295239Y-76861905D01*
X74180953Y-76823810D01*
X74104762Y-76747619D01*
X74066667Y-76671429D01*
X74028572Y-76519048D01*
X74028572Y-76404762D01*
X74066667Y-76252381D01*
X74104762Y-76176190D01*
X74180953Y-76100000D01*
X74295239Y-76061905D01*
X74371429Y-76061905D01*
X74485715Y-76100000D01*
X74523810Y-76138095D01*
X74752381Y-76061905D02*
X75019048Y-76861905D01*
X75285715Y-76061905D01*
X75895238Y-76061905D02*
X75742857Y-76061905D01*
X75666667Y-76100000D01*
X75628572Y-76138095D01*
X75552381Y-76252381D01*
X75514286Y-76404762D01*
X75514286Y-76709524D01*
X75552381Y-76785714D01*
X75590476Y-76823810D01*
X75666667Y-76861905D01*
X75819048Y-76861905D01*
X75895238Y-76823810D01*
X75933334Y-76785714D01*
X75971429Y-76709524D01*
X75971429Y-76519048D01*
X75933334Y-76442857D01*
X75895238Y-76404762D01*
X75819048Y-76366667D01*
X75666667Y-76366667D01*
X75590476Y-76404762D01*
X75552381Y-76442857D01*
X75514286Y-76519048D01*
X108023810Y-99285714D02*
X107985715Y-99323810D01*
X107871429Y-99361905D01*
X107795239Y-99361905D01*
X107680953Y-99323810D01*
X107604762Y-99247619D01*
X107566667Y-99171429D01*
X107528572Y-99019048D01*
X107528572Y-98904762D01*
X107566667Y-98752381D01*
X107604762Y-98676190D01*
X107680953Y-98600000D01*
X107795239Y-98561905D01*
X107871429Y-98561905D01*
X107985715Y-98600000D01*
X108023810Y-98638095D01*
X108252381Y-98561905D02*
X108519048Y-99361905D01*
X108785715Y-98561905D01*
X109433334Y-98561905D02*
X109052381Y-98561905D01*
X109014286Y-98942857D01*
X109052381Y-98904762D01*
X109128572Y-98866667D01*
X109319048Y-98866667D01*
X109395238Y-98904762D01*
X109433334Y-98942857D01*
X109471429Y-99019048D01*
X109471429Y-99209524D01*
X109433334Y-99285714D01*
X109395238Y-99323810D01*
X109319048Y-99361905D01*
X109128572Y-99361905D01*
X109052381Y-99323810D01*
X109014286Y-99285714D01*
X116273810Y-45535714D02*
X116235715Y-45573810D01*
X116121429Y-45611905D01*
X116045239Y-45611905D01*
X115930953Y-45573810D01*
X115854762Y-45497619D01*
X115816667Y-45421429D01*
X115778572Y-45269048D01*
X115778572Y-45154762D01*
X115816667Y-45002381D01*
X115854762Y-44926190D01*
X115930953Y-44850000D01*
X116045239Y-44811905D01*
X116121429Y-44811905D01*
X116235715Y-44850000D01*
X116273810Y-44888095D01*
X116502381Y-44811905D02*
X116769048Y-45611905D01*
X117035715Y-44811905D01*
X117721429Y-45611905D02*
X117264286Y-45611905D01*
X117492857Y-45611905D02*
X117492857Y-44811905D01*
X117416667Y-44926190D01*
X117340476Y-45002381D01*
X117264286Y-45040476D01*
X77523810Y-28285714D02*
X77485715Y-28323810D01*
X77371429Y-28361905D01*
X77295239Y-28361905D01*
X77180953Y-28323810D01*
X77104762Y-28247619D01*
X77066667Y-28171429D01*
X77028572Y-28019048D01*
X77028572Y-27904762D01*
X77066667Y-27752381D01*
X77104762Y-27676190D01*
X77180953Y-27600000D01*
X77295239Y-27561905D01*
X77371429Y-27561905D01*
X77485715Y-27600000D01*
X77523810Y-27638095D01*
X77752381Y-27561905D02*
X78019048Y-28361905D01*
X78285715Y-27561905D01*
X78514286Y-27638095D02*
X78552381Y-27600000D01*
X78628572Y-27561905D01*
X78819048Y-27561905D01*
X78895238Y-27600000D01*
X78933334Y-27638095D01*
X78971429Y-27714286D01*
X78971429Y-27790476D01*
X78933334Y-27904762D01*
X78476191Y-28361905D01*
X78971429Y-28361905D01*
X75523810Y-37785714D02*
X75485715Y-37823810D01*
X75371429Y-37861905D01*
X75295239Y-37861905D01*
X75180953Y-37823810D01*
X75104762Y-37747619D01*
X75066667Y-37671429D01*
X75028572Y-37519048D01*
X75028572Y-37404762D01*
X75066667Y-37252381D01*
X75104762Y-37176190D01*
X75180953Y-37100000D01*
X75295239Y-37061905D01*
X75371429Y-37061905D01*
X75485715Y-37100000D01*
X75523810Y-37138095D01*
X75752381Y-37061905D02*
X76019048Y-37861905D01*
X76285715Y-37061905D01*
X76895238Y-37328571D02*
X76895238Y-37861905D01*
X76704762Y-37023810D02*
X76514286Y-37595238D01*
X77009524Y-37595238D01*
X125390476Y-29811905D02*
X125390476Y-30459524D01*
X125428571Y-30535714D01*
X125466667Y-30573810D01*
X125542857Y-30611905D01*
X125695238Y-30611905D01*
X125771429Y-30573810D01*
X125809524Y-30535714D01*
X125847619Y-30459524D01*
X125847619Y-29811905D01*
X126152381Y-29811905D02*
X126685714Y-29811905D01*
X126342857Y-30611905D01*
X131485714Y-102285714D02*
X131447619Y-102323810D01*
X131333333Y-102361905D01*
X131257143Y-102361905D01*
X131142857Y-102323810D01*
X131066666Y-102247619D01*
X131028571Y-102171429D01*
X130990476Y-102019048D01*
X130990476Y-101904762D01*
X131028571Y-101752381D01*
X131066666Y-101676190D01*
X131142857Y-101600000D01*
X131257143Y-101561905D01*
X131333333Y-101561905D01*
X131447619Y-101600000D01*
X131485714Y-101638095D01*
X132209524Y-101561905D02*
X131828571Y-101561905D01*
X131790476Y-101942857D01*
X131828571Y-101904762D01*
X131904762Y-101866667D01*
X132095238Y-101866667D01*
X132171428Y-101904762D01*
X132209524Y-101942857D01*
X132247619Y-102019048D01*
X132247619Y-102209524D01*
X132209524Y-102285714D01*
X132171428Y-102323810D01*
X132095238Y-102361905D01*
X131904762Y-102361905D01*
X131828571Y-102323810D01*
X131790476Y-102285714D01*
X132514286Y-101561905D02*
X133009524Y-101561905D01*
X132742857Y-101866667D01*
X132857143Y-101866667D01*
X132933333Y-101904762D01*
X132971429Y-101942857D01*
X133009524Y-102019048D01*
X133009524Y-102209524D01*
X132971429Y-102285714D01*
X132933333Y-102323810D01*
X132857143Y-102361905D01*
X132628571Y-102361905D01*
X132552381Y-102323810D01*
X132514286Y-102285714D01*
X137985714Y-96535714D02*
X137947619Y-96573810D01*
X137833333Y-96611905D01*
X137757143Y-96611905D01*
X137642857Y-96573810D01*
X137566666Y-96497619D01*
X137528571Y-96421429D01*
X137490476Y-96269048D01*
X137490476Y-96154762D01*
X137528571Y-96002381D01*
X137566666Y-95926190D01*
X137642857Y-95850000D01*
X137757143Y-95811905D01*
X137833333Y-95811905D01*
X137947619Y-95850000D01*
X137985714Y-95888095D01*
X138709524Y-95811905D02*
X138328571Y-95811905D01*
X138290476Y-96192857D01*
X138328571Y-96154762D01*
X138404762Y-96116667D01*
X138595238Y-96116667D01*
X138671428Y-96154762D01*
X138709524Y-96192857D01*
X138747619Y-96269048D01*
X138747619Y-96459524D01*
X138709524Y-96535714D01*
X138671428Y-96573810D01*
X138595238Y-96611905D01*
X138404762Y-96611905D01*
X138328571Y-96573810D01*
X138290476Y-96535714D01*
X139204762Y-96154762D02*
X139128571Y-96116667D01*
X139090476Y-96078571D01*
X139052381Y-96002381D01*
X139052381Y-95964286D01*
X139090476Y-95888095D01*
X139128571Y-95850000D01*
X139204762Y-95811905D01*
X139357143Y-95811905D01*
X139433333Y-95850000D01*
X139471429Y-95888095D01*
X139509524Y-95964286D01*
X139509524Y-96002381D01*
X139471429Y-96078571D01*
X139433333Y-96116667D01*
X139357143Y-96154762D01*
X139204762Y-96154762D01*
X139128571Y-96192857D01*
X139090476Y-96230952D01*
X139052381Y-96307143D01*
X139052381Y-96459524D01*
X139090476Y-96535714D01*
X139128571Y-96573810D01*
X139204762Y-96611905D01*
X139357143Y-96611905D01*
X139433333Y-96573810D01*
X139471429Y-96535714D01*
X139509524Y-96459524D01*
X139509524Y-96307143D01*
X139471429Y-96230952D01*
X139433333Y-96192857D01*
X139357143Y-96154762D01*
X114735714Y-64785714D02*
X114697619Y-64823810D01*
X114583333Y-64861905D01*
X114507143Y-64861905D01*
X114392857Y-64823810D01*
X114316666Y-64747619D01*
X114278571Y-64671429D01*
X114240476Y-64519048D01*
X114240476Y-64404762D01*
X114278571Y-64252381D01*
X114316666Y-64176190D01*
X114392857Y-64100000D01*
X114507143Y-64061905D01*
X114583333Y-64061905D01*
X114697619Y-64100000D01*
X114735714Y-64138095D01*
X115116666Y-64861905D02*
X115269047Y-64861905D01*
X115345238Y-64823810D01*
X115383333Y-64785714D01*
X115459524Y-64671429D01*
X115497619Y-64519048D01*
X115497619Y-64214286D01*
X115459524Y-64138095D01*
X115421428Y-64100000D01*
X115345238Y-64061905D01*
X115192857Y-64061905D01*
X115116666Y-64100000D01*
X115078571Y-64138095D01*
X115040476Y-64214286D01*
X115040476Y-64404762D01*
X115078571Y-64480952D01*
X115116666Y-64519048D01*
X115192857Y-64557143D01*
X115345238Y-64557143D01*
X115421428Y-64519048D01*
X115459524Y-64480952D01*
X115497619Y-64404762D01*
X115764286Y-64061905D02*
X116297619Y-64061905D01*
X115954762Y-64861905D01*
X78854762Y-66285714D02*
X78816667Y-66323810D01*
X78702381Y-66361905D01*
X78626191Y-66361905D01*
X78511905Y-66323810D01*
X78435714Y-66247619D01*
X78397619Y-66171429D01*
X78359524Y-66019048D01*
X78359524Y-65904762D01*
X78397619Y-65752381D01*
X78435714Y-65676190D01*
X78511905Y-65600000D01*
X78626191Y-65561905D01*
X78702381Y-65561905D01*
X78816667Y-65600000D01*
X78854762Y-65638095D01*
X79616667Y-66361905D02*
X79159524Y-66361905D01*
X79388095Y-66361905D02*
X79388095Y-65561905D01*
X79311905Y-65676190D01*
X79235714Y-65752381D01*
X79159524Y-65790476D01*
X80111905Y-65561905D02*
X80188096Y-65561905D01*
X80264286Y-65600000D01*
X80302381Y-65638095D01*
X80340477Y-65714286D01*
X80378572Y-65866667D01*
X80378572Y-66057143D01*
X80340477Y-66209524D01*
X80302381Y-66285714D01*
X80264286Y-66323810D01*
X80188096Y-66361905D01*
X80111905Y-66361905D01*
X80035715Y-66323810D01*
X79997619Y-66285714D01*
X79959524Y-66209524D01*
X79921429Y-66057143D01*
X79921429Y-65866667D01*
X79959524Y-65714286D01*
X79997619Y-65638095D01*
X80035715Y-65600000D01*
X80111905Y-65561905D01*
X80683334Y-65638095D02*
X80721429Y-65600000D01*
X80797620Y-65561905D01*
X80988096Y-65561905D01*
X81064286Y-65600000D01*
X81102382Y-65638095D01*
X81140477Y-65714286D01*
X81140477Y-65790476D01*
X81102382Y-65904762D01*
X80645239Y-66361905D01*
X81140477Y-66361905D01*
X159571429Y-97380952D02*
X159571429Y-96619047D01*
X159952381Y-96999999D02*
X159190476Y-96999999D01*
X159571429Y-71380952D02*
X159571429Y-70619047D01*
X159952381Y-70999999D02*
X159190476Y-70999999D01*
X145604762Y-46035714D02*
X145566667Y-46073810D01*
X145452381Y-46111905D01*
X145376191Y-46111905D01*
X145261905Y-46073810D01*
X145185714Y-45997619D01*
X145147619Y-45921429D01*
X145109524Y-45769048D01*
X145109524Y-45654762D01*
X145147619Y-45502381D01*
X145185714Y-45426190D01*
X145261905Y-45350000D01*
X145376191Y-45311905D01*
X145452381Y-45311905D01*
X145566667Y-45350000D01*
X145604762Y-45388095D01*
X146366667Y-46111905D02*
X145909524Y-46111905D01*
X146138095Y-46111905D02*
X146138095Y-45311905D01*
X146061905Y-45426190D01*
X145985714Y-45502381D01*
X145909524Y-45540476D01*
X147128572Y-46111905D02*
X146671429Y-46111905D01*
X146900000Y-46111905D02*
X146900000Y-45311905D01*
X146823810Y-45426190D01*
X146747619Y-45502381D01*
X146671429Y-45540476D01*
X147395239Y-45311905D02*
X147890477Y-45311905D01*
X147623810Y-45616667D01*
X147738096Y-45616667D01*
X147814286Y-45654762D01*
X147852382Y-45692857D01*
X147890477Y-45769048D01*
X147890477Y-45959524D01*
X147852382Y-46035714D01*
X147814286Y-46073810D01*
X147738096Y-46111905D01*
X147509524Y-46111905D01*
X147433334Y-46073810D01*
X147395239Y-46035714D01*
X148071429Y-41880952D02*
X148071429Y-41119047D01*
X148452381Y-41499999D02*
X147690476Y-41499999D01*
X138604762Y-34285714D02*
X138566667Y-34323810D01*
X138452381Y-34361905D01*
X138376191Y-34361905D01*
X138261905Y-34323810D01*
X138185714Y-34247619D01*
X138147619Y-34171429D01*
X138109524Y-34019048D01*
X138109524Y-33904762D01*
X138147619Y-33752381D01*
X138185714Y-33676190D01*
X138261905Y-33600000D01*
X138376191Y-33561905D01*
X138452381Y-33561905D01*
X138566667Y-33600000D01*
X138604762Y-33638095D01*
X139366667Y-34361905D02*
X138909524Y-34361905D01*
X139138095Y-34361905D02*
X139138095Y-33561905D01*
X139061905Y-33676190D01*
X138985714Y-33752381D01*
X138909524Y-33790476D01*
X140128572Y-34361905D02*
X139671429Y-34361905D01*
X139900000Y-34361905D02*
X139900000Y-33561905D01*
X139823810Y-33676190D01*
X139747619Y-33752381D01*
X139671429Y-33790476D01*
X140585715Y-33904762D02*
X140509524Y-33866667D01*
X140471429Y-33828571D01*
X140433334Y-33752381D01*
X140433334Y-33714286D01*
X140471429Y-33638095D01*
X140509524Y-33600000D01*
X140585715Y-33561905D01*
X140738096Y-33561905D01*
X140814286Y-33600000D01*
X140852382Y-33638095D01*
X140890477Y-33714286D01*
X140890477Y-33752381D01*
X140852382Y-33828571D01*
X140814286Y-33866667D01*
X140738096Y-33904762D01*
X140585715Y-33904762D01*
X140509524Y-33942857D01*
X140471429Y-33980952D01*
X140433334Y-34057143D01*
X140433334Y-34209524D01*
X140471429Y-34285714D01*
X140509524Y-34323810D01*
X140585715Y-34361905D01*
X140738096Y-34361905D01*
X140814286Y-34323810D01*
X140852382Y-34285714D01*
X140890477Y-34209524D01*
X140890477Y-34057143D01*
X140852382Y-33980952D01*
X140814286Y-33942857D01*
X140738096Y-33904762D01*
X140571429Y-29880952D02*
X140571429Y-29119047D01*
X140952381Y-29499999D02*
X140190476Y-29499999D01*
X138035714Y-53264286D02*
X138073810Y-53302381D01*
X138111905Y-53416667D01*
X138111905Y-53492857D01*
X138073810Y-53607143D01*
X137997619Y-53683334D01*
X137921429Y-53721429D01*
X137769048Y-53759524D01*
X137654762Y-53759524D01*
X137502381Y-53721429D01*
X137426190Y-53683334D01*
X137350000Y-53607143D01*
X137311905Y-53492857D01*
X137311905Y-53416667D01*
X137350000Y-53302381D01*
X137388095Y-53264286D01*
X138111905Y-52502381D02*
X138111905Y-52959524D01*
X138111905Y-52730953D02*
X137311905Y-52730953D01*
X137426190Y-52807143D01*
X137502381Y-52883334D01*
X137540476Y-52959524D01*
X137578571Y-51816667D02*
X138111905Y-51816667D01*
X137273810Y-52007143D02*
X137845238Y-52197619D01*
X137845238Y-51702381D01*
X108942857Y-107552381D02*
X108942857Y-107285714D01*
X109361905Y-107171428D02*
X109361905Y-107552381D01*
X108561905Y-107552381D01*
X108561905Y-107171428D01*
X109361905Y-106409523D02*
X109361905Y-106866666D01*
X109361905Y-106638095D02*
X108561905Y-106638095D01*
X108676190Y-106714285D01*
X108752381Y-106790476D01*
X108790476Y-106866666D01*
X159442857Y-34552381D02*
X159442857Y-34285714D01*
X159861905Y-34171428D02*
X159861905Y-34552381D01*
X159061905Y-34552381D01*
X159061905Y-34171428D01*
X159328571Y-33485714D02*
X159861905Y-33485714D01*
X159023810Y-33676190D02*
X159595238Y-33866666D01*
X159595238Y-33371428D01*
X159197619Y-21942857D02*
X159464286Y-21942857D01*
X159578572Y-22361905D02*
X159197619Y-22361905D01*
X159197619Y-21561905D01*
X159578572Y-21561905D01*
X160302382Y-21561905D02*
X159921429Y-21561905D01*
X159883334Y-21942857D01*
X159921429Y-21904762D01*
X159997620Y-21866667D01*
X160188096Y-21866667D01*
X160264286Y-21904762D01*
X160302382Y-21942857D01*
X160340477Y-22019048D01*
X160340477Y-22209524D01*
X160302382Y-22285714D01*
X160264286Y-22323810D01*
X160188096Y-22361905D01*
X159997620Y-22361905D01*
X159921429Y-22323810D01*
X159883334Y-22285714D01*
X104159524Y-99111905D02*
X104159524Y-98311905D01*
X104616667Y-99111905D02*
X104273810Y-98654762D01*
X104616667Y-98311905D02*
X104159524Y-98769048D01*
X105302381Y-98578571D02*
X105302381Y-99111905D01*
X105111905Y-98273810D02*
X104921429Y-98845238D01*
X105416667Y-98845238D01*
X108909524Y-51861905D02*
X108909524Y-51061905D01*
X109366667Y-51861905D02*
X109023810Y-51404762D01*
X109366667Y-51061905D02*
X108909524Y-51519048D01*
X110128572Y-51861905D02*
X109671429Y-51861905D01*
X109900000Y-51861905D02*
X109900000Y-51061905D01*
X109823810Y-51176190D01*
X109747619Y-51252381D01*
X109671429Y-51290476D01*
X97909524Y-42111905D02*
X97909524Y-41311905D01*
X98366667Y-42111905D02*
X98023810Y-41654762D01*
X98366667Y-41311905D02*
X97909524Y-41769048D01*
X98671429Y-41388095D02*
X98709524Y-41350000D01*
X98785715Y-41311905D01*
X98976191Y-41311905D01*
X99052381Y-41350000D01*
X99090477Y-41388095D01*
X99128572Y-41464286D01*
X99128572Y-41540476D01*
X99090477Y-41654762D01*
X98633334Y-42111905D01*
X99128572Y-42111905D01*
X101159524Y-52861905D02*
X101159524Y-52061905D01*
X101616667Y-52861905D02*
X101273810Y-52404762D01*
X101616667Y-52061905D02*
X101159524Y-52519048D01*
X101883334Y-52061905D02*
X102378572Y-52061905D01*
X102111905Y-52366667D01*
X102226191Y-52366667D01*
X102302381Y-52404762D01*
X102340477Y-52442857D01*
X102378572Y-52519048D01*
X102378572Y-52709524D01*
X102340477Y-52785714D01*
X102302381Y-52823810D01*
X102226191Y-52861905D01*
X101997619Y-52861905D01*
X101921429Y-52823810D01*
X101883334Y-52785714D01*
X73423810Y-59438095D02*
X73347619Y-59400000D01*
X73271429Y-59323810D01*
X73157143Y-59209524D01*
X73080952Y-59171429D01*
X73004762Y-59171429D01*
X73042857Y-59361905D02*
X72966667Y-59323810D01*
X72890476Y-59247619D01*
X72852381Y-59095238D01*
X72852381Y-58828571D01*
X72890476Y-58676190D01*
X72966667Y-58600000D01*
X73042857Y-58561905D01*
X73195238Y-58561905D01*
X73271429Y-58600000D01*
X73347619Y-58676190D01*
X73385714Y-58828571D01*
X73385714Y-59095238D01*
X73347619Y-59247619D01*
X73271429Y-59323810D01*
X73195238Y-59361905D01*
X73042857Y-59361905D01*
X74147619Y-59361905D02*
X73690476Y-59361905D01*
X73919047Y-59361905D02*
X73919047Y-58561905D01*
X73842857Y-58676190D01*
X73766666Y-58752381D01*
X73690476Y-58790476D01*
X67890476Y-104061905D02*
X67890476Y-104709524D01*
X67928571Y-104785714D01*
X67966667Y-104823810D01*
X68042857Y-104861905D01*
X68195238Y-104861905D01*
X68271429Y-104823810D01*
X68309524Y-104785714D01*
X68347619Y-104709524D01*
X68347619Y-104061905D01*
X68766666Y-104861905D02*
X68919047Y-104861905D01*
X68995238Y-104823810D01*
X69033333Y-104785714D01*
X69109524Y-104671429D01*
X69147619Y-104519048D01*
X69147619Y-104214286D01*
X69109524Y-104138095D01*
X69071428Y-104100000D01*
X68995238Y-104061905D01*
X68842857Y-104061905D01*
X68766666Y-104100000D01*
X68728571Y-104138095D01*
X68690476Y-104214286D01*
X68690476Y-104404762D01*
X68728571Y-104480952D01*
X68766666Y-104519048D01*
X68842857Y-104557143D01*
X68995238Y-104557143D01*
X69071428Y-104519048D01*
X69109524Y-104480952D01*
X69147619Y-104404762D01*
X118759524Y-89561905D02*
X118759524Y-90209524D01*
X118797619Y-90285714D01*
X118835715Y-90323810D01*
X118911905Y-90361905D01*
X119064286Y-90361905D01*
X119140477Y-90323810D01*
X119178572Y-90285714D01*
X119216667Y-90209524D01*
X119216667Y-89561905D01*
X120016667Y-90361905D02*
X119559524Y-90361905D01*
X119788095Y-90361905D02*
X119788095Y-89561905D01*
X119711905Y-89676190D01*
X119635714Y-89752381D01*
X119559524Y-89790476D01*
X120778572Y-90361905D02*
X120321429Y-90361905D01*
X120550000Y-90361905D02*
X120550000Y-89561905D01*
X120473810Y-89676190D01*
X120397619Y-89752381D01*
X120321429Y-89790476D01*
X134061905Y-93240476D02*
X134709524Y-93240476D01*
X134785714Y-93202381D01*
X134823810Y-93164285D01*
X134861905Y-93088095D01*
X134861905Y-92935714D01*
X134823810Y-92859523D01*
X134785714Y-92821428D01*
X134709524Y-92783333D01*
X134061905Y-92783333D01*
X134861905Y-91983333D02*
X134861905Y-92440476D01*
X134861905Y-92211905D02*
X134061905Y-92211905D01*
X134176190Y-92288095D01*
X134252381Y-92364286D01*
X134290476Y-92440476D01*
X134061905Y-91716666D02*
X134061905Y-91221428D01*
X134366667Y-91488095D01*
X134366667Y-91373809D01*
X134404762Y-91297619D01*
X134442857Y-91259523D01*
X134519048Y-91221428D01*
X134709524Y-91221428D01*
X134785714Y-91259523D01*
X134823810Y-91297619D01*
X134861905Y-91373809D01*
X134861905Y-91602381D01*
X134823810Y-91678571D01*
X134785714Y-91716666D01*
X119311905Y-85740476D02*
X119959524Y-85740476D01*
X120035714Y-85702381D01*
X120073810Y-85664285D01*
X120111905Y-85588095D01*
X120111905Y-85435714D01*
X120073810Y-85359523D01*
X120035714Y-85321428D01*
X119959524Y-85283333D01*
X119311905Y-85283333D01*
X120111905Y-84483333D02*
X120111905Y-84940476D01*
X120111905Y-84711905D02*
X119311905Y-84711905D01*
X119426190Y-84788095D01*
X119502381Y-84864286D01*
X119540476Y-84940476D01*
X119388095Y-84178571D02*
X119350000Y-84140476D01*
X119311905Y-84064285D01*
X119311905Y-83873809D01*
X119350000Y-83797619D01*
X119388095Y-83759523D01*
X119464286Y-83721428D01*
X119540476Y-83721428D01*
X119654762Y-83759523D01*
X120111905Y-84216666D01*
X120111905Y-83721428D01*
X125009524Y-75811905D02*
X125009524Y-76459524D01*
X125047619Y-76535714D01*
X125085715Y-76573810D01*
X125161905Y-76611905D01*
X125314286Y-76611905D01*
X125390477Y-76573810D01*
X125428572Y-76535714D01*
X125466667Y-76459524D01*
X125466667Y-75811905D01*
X126266667Y-76611905D02*
X125809524Y-76611905D01*
X126038095Y-76611905D02*
X126038095Y-75811905D01*
X125961905Y-75926190D01*
X125885714Y-76002381D01*
X125809524Y-76040476D01*
X126990477Y-75811905D02*
X126609524Y-75811905D01*
X126571429Y-76192857D01*
X126609524Y-76154762D01*
X126685715Y-76116667D01*
X126876191Y-76116667D01*
X126952381Y-76154762D01*
X126990477Y-76192857D01*
X127028572Y-76269048D01*
X127028572Y-76459524D01*
X126990477Y-76535714D01*
X126952381Y-76573810D01*
X126876191Y-76611905D01*
X126685715Y-76611905D01*
X126609524Y-76573810D01*
X126571429Y-76535714D01*
X107809524Y-65761905D02*
X107809524Y-66409524D01*
X107847619Y-66485714D01*
X107885715Y-66523810D01*
X107961905Y-66561905D01*
X108114286Y-66561905D01*
X108190477Y-66523810D01*
X108228572Y-66485714D01*
X108266667Y-66409524D01*
X108266667Y-65761905D01*
X109066667Y-66561905D02*
X108609524Y-66561905D01*
X108838095Y-66561905D02*
X108838095Y-65761905D01*
X108761905Y-65876190D01*
X108685714Y-65952381D01*
X108609524Y-65990476D01*
X109447619Y-66561905D02*
X109600000Y-66561905D01*
X109676191Y-66523810D01*
X109714286Y-66485714D01*
X109790477Y-66371429D01*
X109828572Y-66219048D01*
X109828572Y-65914286D01*
X109790477Y-65838095D01*
X109752381Y-65800000D01*
X109676191Y-65761905D01*
X109523810Y-65761905D01*
X109447619Y-65800000D01*
X109409524Y-65838095D01*
X109371429Y-65914286D01*
X109371429Y-66104762D01*
X109409524Y-66180952D01*
X109447619Y-66219048D01*
X109523810Y-66257143D01*
X109676191Y-66257143D01*
X109752381Y-66219048D01*
X109790477Y-66180952D01*
X109828572Y-66104762D01*
X95759524Y-65811905D02*
X95759524Y-66459524D01*
X95797619Y-66535714D01*
X95835715Y-66573810D01*
X95911905Y-66611905D01*
X96064286Y-66611905D01*
X96140477Y-66573810D01*
X96178572Y-66535714D01*
X96216667Y-66459524D01*
X96216667Y-65811905D01*
X96559524Y-65888095D02*
X96597619Y-65850000D01*
X96673810Y-65811905D01*
X96864286Y-65811905D01*
X96940476Y-65850000D01*
X96978572Y-65888095D01*
X97016667Y-65964286D01*
X97016667Y-66040476D01*
X96978572Y-66154762D01*
X96521429Y-66611905D01*
X97016667Y-66611905D01*
X97511905Y-65811905D02*
X97588096Y-65811905D01*
X97664286Y-65850000D01*
X97702381Y-65888095D01*
X97740477Y-65964286D01*
X97778572Y-66116667D01*
X97778572Y-66307143D01*
X97740477Y-66459524D01*
X97702381Y-66535714D01*
X97664286Y-66573810D01*
X97588096Y-66611905D01*
X97511905Y-66611905D01*
X97435715Y-66573810D01*
X97397619Y-66535714D01*
X97359524Y-66459524D01*
X97321429Y-66307143D01*
X97321429Y-66116667D01*
X97359524Y-65964286D01*
X97397619Y-65888095D01*
X97435715Y-65850000D01*
X97511905Y-65811905D01*
X115640476Y-28811905D02*
X115640476Y-29459524D01*
X115678571Y-29535714D01*
X115716667Y-29573810D01*
X115792857Y-29611905D01*
X115945238Y-29611905D01*
X116021429Y-29573810D01*
X116059524Y-29535714D01*
X116097619Y-29459524D01*
X116097619Y-28811905D01*
X116592857Y-29154762D02*
X116516666Y-29116667D01*
X116478571Y-29078571D01*
X116440476Y-29002381D01*
X116440476Y-28964286D01*
X116478571Y-28888095D01*
X116516666Y-28850000D01*
X116592857Y-28811905D01*
X116745238Y-28811905D01*
X116821428Y-28850000D01*
X116859524Y-28888095D01*
X116897619Y-28964286D01*
X116897619Y-29002381D01*
X116859524Y-29078571D01*
X116821428Y-29116667D01*
X116745238Y-29154762D01*
X116592857Y-29154762D01*
X116516666Y-29192857D01*
X116478571Y-29230952D01*
X116440476Y-29307143D01*
X116440476Y-29459524D01*
X116478571Y-29535714D01*
X116516666Y-29573810D01*
X116592857Y-29611905D01*
X116745238Y-29611905D01*
X116821428Y-29573810D01*
X116859524Y-29535714D01*
X116897619Y-29459524D01*
X116897619Y-29307143D01*
X116859524Y-29230952D01*
X116821428Y-29192857D01*
X116745238Y-29154762D01*
X144409524Y-93761905D02*
X144409524Y-94409524D01*
X144447619Y-94485714D01*
X144485715Y-94523810D01*
X144561905Y-94561905D01*
X144714286Y-94561905D01*
X144790477Y-94523810D01*
X144828572Y-94485714D01*
X144866667Y-94409524D01*
X144866667Y-93761905D01*
X145209524Y-93838095D02*
X145247619Y-93800000D01*
X145323810Y-93761905D01*
X145514286Y-93761905D01*
X145590476Y-93800000D01*
X145628572Y-93838095D01*
X145666667Y-93914286D01*
X145666667Y-93990476D01*
X145628572Y-94104762D01*
X145171429Y-94561905D01*
X145666667Y-94561905D01*
X145933334Y-93761905D02*
X146428572Y-93761905D01*
X146161905Y-94066667D01*
X146276191Y-94066667D01*
X146352381Y-94104762D01*
X146390477Y-94142857D01*
X146428572Y-94219048D01*
X146428572Y-94409524D01*
X146390477Y-94485714D01*
X146352381Y-94523810D01*
X146276191Y-94561905D01*
X146047619Y-94561905D01*
X145971429Y-94523810D01*
X145933334Y-94485714D01*
X154811905Y-38990476D02*
X155459524Y-38990476D01*
X155535714Y-38952381D01*
X155573810Y-38914285D01*
X155611905Y-38838095D01*
X155611905Y-38685714D01*
X155573810Y-38609523D01*
X155535714Y-38571428D01*
X155459524Y-38533333D01*
X154811905Y-38533333D01*
X154888095Y-38190476D02*
X154850000Y-38152381D01*
X154811905Y-38076190D01*
X154811905Y-37885714D01*
X154850000Y-37809524D01*
X154888095Y-37771428D01*
X154964286Y-37733333D01*
X155040476Y-37733333D01*
X155154762Y-37771428D01*
X155611905Y-38228571D01*
X155611905Y-37733333D01*
X154811905Y-37009523D02*
X154811905Y-37390476D01*
X155192857Y-37428571D01*
X155154762Y-37390476D01*
X155116667Y-37314285D01*
X155116667Y-37123809D01*
X155154762Y-37047619D01*
X155192857Y-37009523D01*
X155269048Y-36971428D01*
X155459524Y-36971428D01*
X155535714Y-37009523D01*
X155573810Y-37047619D01*
X155611905Y-37123809D01*
X155611905Y-37314285D01*
X155573810Y-37390476D01*
X155535714Y-37428571D01*
X147259524Y-18561905D02*
X147259524Y-19209524D01*
X147297619Y-19285714D01*
X147335715Y-19323810D01*
X147411905Y-19361905D01*
X147564286Y-19361905D01*
X147640477Y-19323810D01*
X147678572Y-19285714D01*
X147716667Y-19209524D01*
X147716667Y-18561905D01*
X148059524Y-18638095D02*
X148097619Y-18600000D01*
X148173810Y-18561905D01*
X148364286Y-18561905D01*
X148440476Y-18600000D01*
X148478572Y-18638095D01*
X148516667Y-18714286D01*
X148516667Y-18790476D01*
X148478572Y-18904762D01*
X148021429Y-19361905D01*
X148516667Y-19361905D01*
X148973810Y-18904762D02*
X148897619Y-18866667D01*
X148859524Y-18828571D01*
X148821429Y-18752381D01*
X148821429Y-18714286D01*
X148859524Y-18638095D01*
X148897619Y-18600000D01*
X148973810Y-18561905D01*
X149126191Y-18561905D01*
X149202381Y-18600000D01*
X149240477Y-18638095D01*
X149278572Y-18714286D01*
X149278572Y-18752381D01*
X149240477Y-18828571D01*
X149202381Y-18866667D01*
X149126191Y-18904762D01*
X148973810Y-18904762D01*
X148897619Y-18942857D01*
X148859524Y-18980952D01*
X148821429Y-19057143D01*
X148821429Y-19209524D01*
X148859524Y-19285714D01*
X148897619Y-19323810D01*
X148973810Y-19361905D01*
X149126191Y-19361905D01*
X149202381Y-19323810D01*
X149240477Y-19285714D01*
X149278572Y-19209524D01*
X149278572Y-19057143D01*
X149240477Y-18980952D01*
X149202381Y-18942857D01*
X149126191Y-18904762D01*
X67890476Y-58061905D02*
X67890476Y-58709524D01*
X67928571Y-58785714D01*
X67966667Y-58823810D01*
X68042857Y-58861905D01*
X68195238Y-58861905D01*
X68271429Y-58823810D01*
X68309524Y-58785714D01*
X68347619Y-58709524D01*
X68347619Y-58061905D01*
X69147619Y-58861905D02*
X68690476Y-58861905D01*
X68919047Y-58861905D02*
X68919047Y-58061905D01*
X68842857Y-58176190D01*
X68766666Y-58252381D01*
X68690476Y-58290476D01*
X118640476Y-43311905D02*
X118640476Y-43959524D01*
X118678571Y-44035714D01*
X118716667Y-44073810D01*
X118792857Y-44111905D01*
X118945238Y-44111905D01*
X119021429Y-44073810D01*
X119059524Y-44035714D01*
X119097619Y-43959524D01*
X119097619Y-43311905D01*
X119402381Y-43311905D02*
X119897619Y-43311905D01*
X119630952Y-43616667D01*
X119745238Y-43616667D01*
X119821428Y-43654762D01*
X119859524Y-43692857D01*
X119897619Y-43769048D01*
X119897619Y-43959524D01*
X119859524Y-44035714D01*
X119821428Y-44073810D01*
X119745238Y-44111905D01*
X119516666Y-44111905D01*
X119440476Y-44073810D01*
X119402381Y-44035714D01*
X134311905Y-44859524D02*
X134959524Y-44859524D01*
X135035714Y-44821429D01*
X135073810Y-44783333D01*
X135111905Y-44707143D01*
X135111905Y-44554762D01*
X135073810Y-44478571D01*
X135035714Y-44440476D01*
X134959524Y-44402381D01*
X134311905Y-44402381D01*
X134311905Y-43640476D02*
X134311905Y-44021429D01*
X134692857Y-44059524D01*
X134654762Y-44021429D01*
X134616667Y-43945238D01*
X134616667Y-43754762D01*
X134654762Y-43678572D01*
X134692857Y-43640476D01*
X134769048Y-43602381D01*
X134959524Y-43602381D01*
X135035714Y-43640476D01*
X135073810Y-43678572D01*
X135111905Y-43754762D01*
X135111905Y-43945238D01*
X135073810Y-44021429D01*
X135035714Y-44059524D01*
X118640476Y-42061905D02*
X118640476Y-42709524D01*
X118678571Y-42785714D01*
X118716667Y-42823810D01*
X118792857Y-42861905D01*
X118945238Y-42861905D01*
X119021429Y-42823810D01*
X119059524Y-42785714D01*
X119097619Y-42709524D01*
X119097619Y-42061905D01*
X119821428Y-42328571D02*
X119821428Y-42861905D01*
X119630952Y-42023810D02*
X119440476Y-42595238D01*
X119935714Y-42595238D01*
X138990476Y-50561905D02*
X139447619Y-50561905D01*
X139219048Y-51361905D02*
X139219048Y-50561905D01*
X139714286Y-51361905D02*
X139714286Y-50561905D01*
X140019048Y-50561905D01*
X140095239Y-50600000D01*
X140133334Y-50638095D01*
X140171429Y-50714286D01*
X140171429Y-50828571D01*
X140133334Y-50904762D01*
X140095239Y-50942857D01*
X140019048Y-50980952D01*
X139714286Y-50980952D01*
X140933334Y-51361905D02*
X140476191Y-51361905D01*
X140704762Y-51361905D02*
X140704762Y-50561905D01*
X140628572Y-50676190D01*
X140552381Y-50752381D01*
X140476191Y-50790476D01*
X100061905Y-58509524D02*
X100061905Y-58052381D01*
X100861905Y-58280952D02*
X100061905Y-58280952D01*
X100861905Y-57785714D02*
X100061905Y-57785714D01*
X100061905Y-57480952D01*
X100100000Y-57404761D01*
X100138095Y-57366666D01*
X100214286Y-57328571D01*
X100328571Y-57328571D01*
X100404762Y-57366666D01*
X100442857Y-57404761D01*
X100480952Y-57480952D01*
X100480952Y-57785714D01*
X100138095Y-57023809D02*
X100100000Y-56985714D01*
X100061905Y-56909523D01*
X100061905Y-56719047D01*
X100100000Y-56642857D01*
X100138095Y-56604761D01*
X100214286Y-56566666D01*
X100290476Y-56566666D01*
X100404762Y-56604761D01*
X100861905Y-57061904D01*
X100861905Y-56566666D01*
X97990476Y-66561905D02*
X98447619Y-66561905D01*
X98219048Y-67361905D02*
X98219048Y-66561905D01*
X98714286Y-67361905D02*
X98714286Y-66561905D01*
X99019048Y-66561905D01*
X99095239Y-66600000D01*
X99133334Y-66638095D01*
X99171429Y-66714286D01*
X99171429Y-66828571D01*
X99133334Y-66904762D01*
X99095239Y-66942857D01*
X99019048Y-66980952D01*
X98714286Y-66980952D01*
X99438096Y-66561905D02*
X99933334Y-66561905D01*
X99666667Y-66866667D01*
X99780953Y-66866667D01*
X99857143Y-66904762D01*
X99895239Y-66942857D01*
X99933334Y-67019048D01*
X99933334Y-67209524D01*
X99895239Y-67285714D01*
X99857143Y-67323810D01*
X99780953Y-67361905D01*
X99552381Y-67361905D01*
X99476191Y-67323810D01*
X99438096Y-67285714D01*
X146759524Y-69061905D02*
X146759524Y-69709524D01*
X146797619Y-69785714D01*
X146835715Y-69823810D01*
X146911905Y-69861905D01*
X147064286Y-69861905D01*
X147140477Y-69823810D01*
X147178572Y-69785714D01*
X147216667Y-69709524D01*
X147216667Y-69061905D01*
X147559524Y-69138095D02*
X147597619Y-69100000D01*
X147673810Y-69061905D01*
X147864286Y-69061905D01*
X147940476Y-69100000D01*
X147978572Y-69138095D01*
X148016667Y-69214286D01*
X148016667Y-69290476D01*
X147978572Y-69404762D01*
X147521429Y-69861905D01*
X148016667Y-69861905D01*
X148702381Y-69328571D02*
X148702381Y-69861905D01*
X148511905Y-69023810D02*
X148321429Y-69595238D01*
X148816667Y-69595238D01*
X154561905Y-30490476D02*
X155209524Y-30490476D01*
X155285714Y-30452381D01*
X155323810Y-30414285D01*
X155361905Y-30338095D01*
X155361905Y-30185714D01*
X155323810Y-30109523D01*
X155285714Y-30071428D01*
X155209524Y-30033333D01*
X154561905Y-30033333D01*
X154638095Y-29690476D02*
X154600000Y-29652381D01*
X154561905Y-29576190D01*
X154561905Y-29385714D01*
X154600000Y-29309524D01*
X154638095Y-29271428D01*
X154714286Y-29233333D01*
X154790476Y-29233333D01*
X154904762Y-29271428D01*
X155361905Y-29728571D01*
X155361905Y-29233333D01*
X154561905Y-28966666D02*
X154561905Y-28433333D01*
X155361905Y-28776190D01*
X151104762Y-45785714D02*
X151066667Y-45823810D01*
X150952381Y-45861905D01*
X150876191Y-45861905D01*
X150761905Y-45823810D01*
X150685714Y-45747619D01*
X150647619Y-45671429D01*
X150609524Y-45519048D01*
X150609524Y-45404762D01*
X150647619Y-45252381D01*
X150685714Y-45176190D01*
X150761905Y-45100000D01*
X150876191Y-45061905D01*
X150952381Y-45061905D01*
X151066667Y-45100000D01*
X151104762Y-45138095D01*
X151866667Y-45861905D02*
X151409524Y-45861905D01*
X151638095Y-45861905D02*
X151638095Y-45061905D01*
X151561905Y-45176190D01*
X151485714Y-45252381D01*
X151409524Y-45290476D01*
X152628572Y-45861905D02*
X152171429Y-45861905D01*
X152400000Y-45861905D02*
X152400000Y-45061905D01*
X152323810Y-45176190D01*
X152247619Y-45252381D01*
X152171429Y-45290476D01*
X153390477Y-45861905D02*
X152933334Y-45861905D01*
X153161905Y-45861905D02*
X153161905Y-45061905D01*
X153085715Y-45176190D01*
X153009524Y-45252381D01*
X152933334Y-45290476D01*
X159107143Y-42571428D02*
X159107143Y-41428571D01*
X159678571Y-42000000D02*
X158535714Y-42000000D01*
X132854762Y-19535714D02*
X132816667Y-19573810D01*
X132702381Y-19611905D01*
X132626191Y-19611905D01*
X132511905Y-19573810D01*
X132435714Y-19497619D01*
X132397619Y-19421429D01*
X132359524Y-19269048D01*
X132359524Y-19154762D01*
X132397619Y-19002381D01*
X132435714Y-18926190D01*
X132511905Y-18850000D01*
X132626191Y-18811905D01*
X132702381Y-18811905D01*
X132816667Y-18850000D01*
X132854762Y-18888095D01*
X133616667Y-19611905D02*
X133159524Y-19611905D01*
X133388095Y-19611905D02*
X133388095Y-18811905D01*
X133311905Y-18926190D01*
X133235714Y-19002381D01*
X133159524Y-19040476D01*
X134378572Y-19611905D02*
X133921429Y-19611905D01*
X134150000Y-19611905D02*
X134150000Y-18811905D01*
X134073810Y-18926190D01*
X133997619Y-19002381D01*
X133921429Y-19040476D01*
X135064286Y-18811905D02*
X134911905Y-18811905D01*
X134835715Y-18850000D01*
X134797620Y-18888095D01*
X134721429Y-19002381D01*
X134683334Y-19154762D01*
X134683334Y-19459524D01*
X134721429Y-19535714D01*
X134759524Y-19573810D01*
X134835715Y-19611905D01*
X134988096Y-19611905D01*
X135064286Y-19573810D01*
X135102382Y-19535714D01*
X135140477Y-19459524D01*
X135140477Y-19269048D01*
X135102382Y-19192857D01*
X135064286Y-19154762D01*
X134988096Y-19116667D01*
X134835715Y-19116667D01*
X134759524Y-19154762D01*
X134721429Y-19192857D01*
X134683334Y-19269048D01*
X139607143Y-22071428D02*
X139607143Y-20928571D01*
X140178571Y-21500000D02*
X139035714Y-21500000D01*
X139509524Y-72311905D02*
X139509524Y-72959524D01*
X139547619Y-73035714D01*
X139585715Y-73073810D01*
X139661905Y-73111905D01*
X139814286Y-73111905D01*
X139890477Y-73073810D01*
X139928572Y-73035714D01*
X139966667Y-72959524D01*
X139966667Y-72311905D01*
X140309524Y-72388095D02*
X140347619Y-72350000D01*
X140423810Y-72311905D01*
X140614286Y-72311905D01*
X140690476Y-72350000D01*
X140728572Y-72388095D01*
X140766667Y-72464286D01*
X140766667Y-72540476D01*
X140728572Y-72654762D01*
X140271429Y-73111905D01*
X140766667Y-73111905D01*
X141452381Y-72311905D02*
X141300000Y-72311905D01*
X141223810Y-72350000D01*
X141185715Y-72388095D01*
X141109524Y-72502381D01*
X141071429Y-72654762D01*
X141071429Y-72959524D01*
X141109524Y-73035714D01*
X141147619Y-73073810D01*
X141223810Y-73111905D01*
X141376191Y-73111905D01*
X141452381Y-73073810D01*
X141490477Y-73035714D01*
X141528572Y-72959524D01*
X141528572Y-72769048D01*
X141490477Y-72692857D01*
X141452381Y-72654762D01*
X141376191Y-72616667D01*
X141223810Y-72616667D01*
X141147619Y-72654762D01*
X141109524Y-72692857D01*
X141071429Y-72769048D01*
X63490476Y-77061905D02*
X63947619Y-77061905D01*
X63719048Y-77861905D02*
X63719048Y-77061905D01*
X64214286Y-77861905D02*
X64214286Y-77061905D01*
X64519048Y-77061905D01*
X64595239Y-77100000D01*
X64633334Y-77138095D01*
X64671429Y-77214286D01*
X64671429Y-77328571D01*
X64633334Y-77404762D01*
X64595239Y-77442857D01*
X64519048Y-77480952D01*
X64214286Y-77480952D01*
X65128572Y-77404762D02*
X65052381Y-77366667D01*
X65014286Y-77328571D01*
X64976191Y-77252381D01*
X64976191Y-77214286D01*
X65014286Y-77138095D01*
X65052381Y-77100000D01*
X65128572Y-77061905D01*
X65280953Y-77061905D01*
X65357143Y-77100000D01*
X65395239Y-77138095D01*
X65433334Y-77214286D01*
X65433334Y-77252381D01*
X65395239Y-77328571D01*
X65357143Y-77366667D01*
X65280953Y-77404762D01*
X65128572Y-77404762D01*
X65052381Y-77442857D01*
X65014286Y-77480952D01*
X64976191Y-77557143D01*
X64976191Y-77709524D01*
X65014286Y-77785714D01*
X65052381Y-77823810D01*
X65128572Y-77861905D01*
X65280953Y-77861905D01*
X65357143Y-77823810D01*
X65395239Y-77785714D01*
X65433334Y-77709524D01*
X65433334Y-77557143D01*
X65395239Y-77480952D01*
X65357143Y-77442857D01*
X65280953Y-77404762D01*
X63490476Y-79061905D02*
X63947619Y-79061905D01*
X63719048Y-79861905D02*
X63719048Y-79061905D01*
X64214286Y-79861905D02*
X64214286Y-79061905D01*
X64519048Y-79061905D01*
X64595239Y-79100000D01*
X64633334Y-79138095D01*
X64671429Y-79214286D01*
X64671429Y-79328571D01*
X64633334Y-79404762D01*
X64595239Y-79442857D01*
X64519048Y-79480952D01*
X64214286Y-79480952D01*
X65052381Y-79861905D02*
X65204762Y-79861905D01*
X65280953Y-79823810D01*
X65319048Y-79785714D01*
X65395239Y-79671429D01*
X65433334Y-79519048D01*
X65433334Y-79214286D01*
X65395239Y-79138095D01*
X65357143Y-79100000D01*
X65280953Y-79061905D01*
X65128572Y-79061905D01*
X65052381Y-79100000D01*
X65014286Y-79138095D01*
X64976191Y-79214286D01*
X64976191Y-79404762D01*
X65014286Y-79480952D01*
X65052381Y-79519048D01*
X65128572Y-79557143D01*
X65280953Y-79557143D01*
X65357143Y-79519048D01*
X65395239Y-79480952D01*
X65433334Y-79404762D01*
X131609523Y-67561905D02*
X132066666Y-67561905D01*
X131838095Y-68361905D02*
X131838095Y-67561905D01*
X132333333Y-68361905D02*
X132333333Y-67561905D01*
X132638095Y-67561905D01*
X132714286Y-67600000D01*
X132752381Y-67638095D01*
X132790476Y-67714286D01*
X132790476Y-67828571D01*
X132752381Y-67904762D01*
X132714286Y-67942857D01*
X132638095Y-67980952D01*
X132333333Y-67980952D01*
X133552381Y-68361905D02*
X133095238Y-68361905D01*
X133323809Y-68361905D02*
X133323809Y-67561905D01*
X133247619Y-67676190D01*
X133171428Y-67752381D01*
X133095238Y-67790476D01*
X134047619Y-67561905D02*
X134123810Y-67561905D01*
X134200000Y-67600000D01*
X134238095Y-67638095D01*
X134276191Y-67714286D01*
X134314286Y-67866667D01*
X134314286Y-68057143D01*
X134276191Y-68209524D01*
X134238095Y-68285714D01*
X134200000Y-68323810D01*
X134123810Y-68361905D01*
X134047619Y-68361905D01*
X133971429Y-68323810D01*
X133933333Y-68285714D01*
X133895238Y-68209524D01*
X133857143Y-68057143D01*
X133857143Y-67866667D01*
X133895238Y-67714286D01*
X133933333Y-67638095D01*
X133971429Y-67600000D01*
X134047619Y-67561905D01*
X103442857Y-109052381D02*
X103442857Y-108785714D01*
X103861905Y-108671428D02*
X103861905Y-109052381D01*
X103061905Y-109052381D01*
X103061905Y-108671428D01*
X103061905Y-107985714D02*
X103061905Y-108138095D01*
X103100000Y-108214285D01*
X103138095Y-108252380D01*
X103252381Y-108328571D01*
X103404762Y-108366666D01*
X103709524Y-108366666D01*
X103785714Y-108328571D01*
X103823810Y-108290476D01*
X103861905Y-108214285D01*
X103861905Y-108061904D01*
X103823810Y-107985714D01*
X103785714Y-107947618D01*
X103709524Y-107909523D01*
X103519048Y-107909523D01*
X103442857Y-107947618D01*
X103404762Y-107985714D01*
X103366667Y-108061904D01*
X103366667Y-108214285D01*
X103404762Y-108290476D01*
X103442857Y-108328571D01*
X103519048Y-108366666D01*
X101942857Y-109052381D02*
X101942857Y-108785714D01*
X102361905Y-108671428D02*
X102361905Y-109052381D01*
X101561905Y-109052381D01*
X101561905Y-108671428D01*
X101561905Y-108404761D02*
X101561905Y-107871428D01*
X102361905Y-108214285D01*
X105361905Y-104645238D02*
X104980952Y-104911905D01*
X105361905Y-105102381D02*
X104561905Y-105102381D01*
X104561905Y-104797619D01*
X104600000Y-104721428D01*
X104638095Y-104683333D01*
X104714286Y-104645238D01*
X104828571Y-104645238D01*
X104904762Y-104683333D01*
X104942857Y-104721428D01*
X104980952Y-104797619D01*
X104980952Y-105102381D01*
X105361905Y-103883333D02*
X105361905Y-104340476D01*
X105361905Y-104111905D02*
X104561905Y-104111905D01*
X104676190Y-104188095D01*
X104752381Y-104264286D01*
X104790476Y-104340476D01*
X104561905Y-103388095D02*
X104561905Y-103311904D01*
X104600000Y-103235714D01*
X104638095Y-103197619D01*
X104714286Y-103159523D01*
X104866667Y-103121428D01*
X105057143Y-103121428D01*
X105209524Y-103159523D01*
X105285714Y-103197619D01*
X105323810Y-103235714D01*
X105361905Y-103311904D01*
X105361905Y-103388095D01*
X105323810Y-103464285D01*
X105285714Y-103502381D01*
X105209524Y-103540476D01*
X105057143Y-103578571D01*
X104866667Y-103578571D01*
X104714286Y-103540476D01*
X104638095Y-103502381D01*
X104600000Y-103464285D01*
X104561905Y-103388095D01*
X104904762Y-102664285D02*
X104866667Y-102740476D01*
X104828571Y-102778571D01*
X104752381Y-102816666D01*
X104714286Y-102816666D01*
X104638095Y-102778571D01*
X104600000Y-102740476D01*
X104561905Y-102664285D01*
X104561905Y-102511904D01*
X104600000Y-102435714D01*
X104638095Y-102397618D01*
X104714286Y-102359523D01*
X104752381Y-102359523D01*
X104828571Y-102397618D01*
X104866667Y-102435714D01*
X104904762Y-102511904D01*
X104904762Y-102664285D01*
X104942857Y-102740476D01*
X104980952Y-102778571D01*
X105057143Y-102816666D01*
X105209524Y-102816666D01*
X105285714Y-102778571D01*
X105323810Y-102740476D01*
X105361905Y-102664285D01*
X105361905Y-102511904D01*
X105323810Y-102435714D01*
X105285714Y-102397618D01*
X105209524Y-102359523D01*
X105057143Y-102359523D01*
X104980952Y-102397618D01*
X104942857Y-102435714D01*
X104904762Y-102511904D01*
X102361905Y-101645238D02*
X101980952Y-101911905D01*
X102361905Y-102102381D02*
X101561905Y-102102381D01*
X101561905Y-101797619D01*
X101600000Y-101721428D01*
X101638095Y-101683333D01*
X101714286Y-101645238D01*
X101828571Y-101645238D01*
X101904762Y-101683333D01*
X101942857Y-101721428D01*
X101980952Y-101797619D01*
X101980952Y-102102381D01*
X102361905Y-100883333D02*
X102361905Y-101340476D01*
X102361905Y-101111905D02*
X101561905Y-101111905D01*
X101676190Y-101188095D01*
X101752381Y-101264286D01*
X101790476Y-101340476D01*
X101561905Y-100388095D02*
X101561905Y-100311904D01*
X101600000Y-100235714D01*
X101638095Y-100197619D01*
X101714286Y-100159523D01*
X101866667Y-100121428D01*
X102057143Y-100121428D01*
X102209524Y-100159523D01*
X102285714Y-100197619D01*
X102323810Y-100235714D01*
X102361905Y-100311904D01*
X102361905Y-100388095D01*
X102323810Y-100464285D01*
X102285714Y-100502381D01*
X102209524Y-100540476D01*
X102057143Y-100578571D01*
X101866667Y-100578571D01*
X101714286Y-100540476D01*
X101638095Y-100502381D01*
X101600000Y-100464285D01*
X101561905Y-100388095D01*
X102361905Y-99740476D02*
X102361905Y-99588095D01*
X102323810Y-99511904D01*
X102285714Y-99473809D01*
X102171429Y-99397618D01*
X102019048Y-99359523D01*
X101714286Y-99359523D01*
X101638095Y-99397618D01*
X101600000Y-99435714D01*
X101561905Y-99511904D01*
X101561905Y-99664285D01*
X101600000Y-99740476D01*
X101638095Y-99778571D01*
X101714286Y-99816666D01*
X101904762Y-99816666D01*
X101980952Y-99778571D01*
X102019048Y-99740476D01*
X102057143Y-99664285D01*
X102057143Y-99511904D01*
X102019048Y-99435714D01*
X101980952Y-99397618D01*
X101904762Y-99359523D01*
X103861905Y-101645238D02*
X103480952Y-101911905D01*
X103861905Y-102102381D02*
X103061905Y-102102381D01*
X103061905Y-101797619D01*
X103100000Y-101721428D01*
X103138095Y-101683333D01*
X103214286Y-101645238D01*
X103328571Y-101645238D01*
X103404762Y-101683333D01*
X103442857Y-101721428D01*
X103480952Y-101797619D01*
X103480952Y-102102381D01*
X103861905Y-100883333D02*
X103861905Y-101340476D01*
X103861905Y-101111905D02*
X103061905Y-101111905D01*
X103176190Y-101188095D01*
X103252381Y-101264286D01*
X103290476Y-101340476D01*
X103861905Y-100121428D02*
X103861905Y-100578571D01*
X103861905Y-100350000D02*
X103061905Y-100350000D01*
X103176190Y-100426190D01*
X103252381Y-100502381D01*
X103290476Y-100578571D01*
X103061905Y-99626190D02*
X103061905Y-99549999D01*
X103100000Y-99473809D01*
X103138095Y-99435714D01*
X103214286Y-99397618D01*
X103366667Y-99359523D01*
X103557143Y-99359523D01*
X103709524Y-99397618D01*
X103785714Y-99435714D01*
X103823810Y-99473809D01*
X103861905Y-99549999D01*
X103861905Y-99626190D01*
X103823810Y-99702380D01*
X103785714Y-99740476D01*
X103709524Y-99778571D01*
X103557143Y-99816666D01*
X103366667Y-99816666D01*
X103214286Y-99778571D01*
X103138095Y-99740476D01*
X103100000Y-99702380D01*
X103061905Y-99626190D01*
%LPC*%
D11*
X116000000Y-40750000D02*
X116000000Y-42000000D01*
X116500000Y-40250000D02*
X116000000Y-40750000D01*
X116500000Y-38000000D02*
X116500000Y-40250000D01*
X116000000Y-37500000D02*
X116500000Y-38000000D01*
X113000000Y-37500000D02*
X116000000Y-37500000D01*
X112500000Y-38000000D02*
X113000000Y-37500000D01*
X112500000Y-40250000D02*
X112500000Y-38000000D01*
X113000000Y-40750000D02*
X112500000Y-40250000D01*
X113000000Y-42000000D02*
X113000000Y-40750000D01*
X116000000Y-87000000D02*
X116000000Y-88250000D01*
X116250000Y-86750000D02*
X116000000Y-87000000D01*
X116250000Y-84500000D02*
X116250000Y-86750000D01*
X115750000Y-84000000D02*
X116250000Y-84500000D01*
X113250000Y-84000000D02*
X115750000Y-84000000D01*
X112750000Y-84500000D02*
X113250000Y-84000000D01*
X112750000Y-86750000D02*
X112750000Y-84500000D01*
X113000000Y-87000000D02*
X112750000Y-86750000D01*
X113000000Y-88250000D02*
X113000000Y-87000000D01*
X102250000Y-74500000D02*
X101750000Y-74000000D01*
X102250000Y-77000000D02*
X102250000Y-74500000D01*
X97750000Y-77000000D02*
X102250000Y-77000000D01*
X97750000Y-73250000D02*
X97750000Y-77000000D01*
X94500000Y-73250000D02*
X97750000Y-73250000D01*
X94000000Y-73250000D02*
X94000000Y-75500000D01*
X94500000Y-73250000D02*
X94000000Y-73250000D01*
X94500000Y-70500000D02*
X94500000Y-73250000D01*
X94000000Y-27000000D02*
X94000000Y-29250000D01*
X94500000Y-27000000D02*
X94000000Y-27000000D01*
X102500000Y-28500000D02*
X101750000Y-27750000D01*
X102500000Y-30250000D02*
X102500000Y-28500000D01*
X97750000Y-30250000D02*
X102500000Y-30250000D01*
X97750000Y-27000000D02*
X97750000Y-30250000D01*
X94500000Y-27000000D02*
X97750000Y-27000000D01*
X94500000Y-24000000D02*
X94500000Y-27000000D01*
X108750000Y-50750000D02*
X105500000Y-50750000D01*
X109250000Y-50250000D02*
X108750000Y-50750000D01*
X109250000Y-49250000D02*
X109250000Y-50250000D01*
X110500000Y-48000000D02*
X109250000Y-49250000D01*
X113250000Y-48000000D02*
X110500000Y-48000000D01*
X113750000Y-48500000D02*
X113250000Y-48000000D01*
X113750000Y-52250000D02*
X113750000Y-48500000D01*
X114000000Y-52500000D02*
X113750000Y-52250000D01*
X114000000Y-52750000D02*
X114000000Y-52500000D01*
X117500000Y-52250000D02*
X117500000Y-52750000D01*
X117250000Y-52000000D02*
X117500000Y-52250000D01*
X116250000Y-52000000D02*
X117250000Y-52000000D01*
X115500000Y-51250000D02*
X116250000Y-52000000D01*
X115500000Y-48500000D02*
X115500000Y-51250000D01*
X116000000Y-48000000D02*
X115500000Y-48500000D01*
X116000000Y-42000000D02*
X116000000Y-48000000D01*
X113000000Y-46250000D02*
X113000000Y-42000000D01*
X112750000Y-46500000D02*
X113000000Y-46250000D01*
X109750000Y-46500000D02*
X112750000Y-46500000D01*
X108750000Y-47500000D02*
X109750000Y-46500000D01*
X105500000Y-47500000D02*
X108750000Y-47500000D01*
X105000000Y-48000000D02*
X105500000Y-47500000D01*
X105000000Y-50250000D02*
X105000000Y-48000000D01*
X105500000Y-50750000D02*
X105000000Y-50250000D01*
X114000000Y-95250000D02*
X114000000Y-98750000D01*
X112750000Y-94000000D02*
X114000000Y-95250000D01*
X111500000Y-94000000D02*
X112750000Y-94000000D01*
X110500000Y-95000000D02*
X111500000Y-94000000D01*
X110500000Y-95750000D02*
X110500000Y-95000000D01*
X109250000Y-97000000D02*
X110500000Y-95750000D01*
X105500000Y-97000000D02*
X109250000Y-97000000D01*
X117000000Y-98000000D02*
X117500000Y-98500000D01*
X116500000Y-98000000D02*
X117000000Y-98000000D01*
X115750000Y-97250000D02*
X116500000Y-98000000D01*
X115750000Y-94750000D02*
X115750000Y-97250000D01*
X115000000Y-94000000D02*
X115750000Y-94750000D01*
X115000000Y-92500000D02*
X115000000Y-94000000D01*
X116000000Y-91500000D02*
X115000000Y-92500000D01*
X116000000Y-88250000D02*
X116000000Y-91500000D01*
X113000000Y-90250000D02*
X113000000Y-88250000D01*
X110000000Y-93250000D02*
X113000000Y-90250000D01*
X105750000Y-93250000D02*
X110000000Y-93250000D01*
X104750000Y-94250000D02*
X105750000Y-93250000D01*
X104750000Y-96250000D02*
X104750000Y-94250000D01*
X105500000Y-97000000D02*
X104750000Y-96250000D01*
D17*
X137200000Y-63500000D03*
X137200000Y-63000000D03*
X137200000Y-62500000D03*
X137200000Y-62000000D03*
X137200000Y-61500000D03*
X137200000Y-61000000D03*
X137200000Y-60500000D03*
X137200000Y-60000000D03*
X137200000Y-59500000D03*
X137200000Y-59000000D03*
X137200000Y-58500000D03*
X137200000Y-58000000D03*
D18*
X135750000Y-56550000D03*
X135250000Y-56550000D03*
X134750000Y-56550000D03*
X134250000Y-56550000D03*
X133750000Y-56550000D03*
X133250000Y-56550000D03*
X132750000Y-56550000D03*
X132250000Y-56550000D03*
X131750000Y-56550000D03*
X131250000Y-56550000D03*
X130750000Y-56550000D03*
X130250000Y-56550000D03*
D17*
X128800000Y-58000000D03*
X128800000Y-58500000D03*
X128800000Y-59000000D03*
X128800000Y-59500000D03*
X128800000Y-60000000D03*
X128800000Y-60500000D03*
X128800000Y-61000000D03*
X128800000Y-61500000D03*
X128800000Y-62000000D03*
X128800000Y-62500000D03*
X128800000Y-63000000D03*
X128800000Y-63500000D03*
D18*
X130250000Y-64950000D03*
X130750000Y-64950000D03*
X131250000Y-64950000D03*
X131750000Y-64950000D03*
X132250000Y-64950000D03*
X132750000Y-64950000D03*
X133250000Y-64950000D03*
X133750000Y-64950000D03*
X134250000Y-64950000D03*
X134750000Y-64950000D03*
X135250000Y-64950000D03*
X135750000Y-64950000D03*
D19*
X131250000Y-34050000D03*
D20*
X130750000Y-34050000D03*
X130250000Y-34050000D03*
X129750000Y-34050000D03*
X129250000Y-34050000D03*
D19*
X128750000Y-34050000D03*
D21*
X128050000Y-34750000D03*
D22*
X128050000Y-35250000D03*
X128050000Y-35750000D03*
X128050000Y-36250000D03*
X128050000Y-36750000D03*
D21*
X128050000Y-37250000D03*
D19*
X128750000Y-37950000D03*
D20*
X129250000Y-37950000D03*
X129750000Y-37950000D03*
X130250000Y-37950000D03*
X130750000Y-37950000D03*
D19*
X131250000Y-37950000D03*
D21*
X131950000Y-37250000D03*
D22*
X131950000Y-36750000D03*
X131950000Y-36250000D03*
X131950000Y-35750000D03*
X131950000Y-35250000D03*
D21*
X131950000Y-34750000D03*
D23*
X130000000Y-36000000D03*
D24*
X120195000Y-52750000D03*
X120195000Y-53250000D03*
X120195000Y-53750000D03*
X120195000Y-54250000D03*
X122805000Y-54250000D03*
X122805000Y-53750000D03*
X122805000Y-53250000D03*
X122805000Y-52750000D03*
D25*
X121500000Y-53500000D03*
D19*
X131250000Y-80050000D03*
D20*
X130750000Y-80050000D03*
X130250000Y-80050000D03*
X129750000Y-80050000D03*
X129250000Y-80050000D03*
D19*
X128750000Y-80050000D03*
D21*
X128050000Y-80750000D03*
D22*
X128050000Y-81250000D03*
X128050000Y-81750000D03*
X128050000Y-82250000D03*
X128050000Y-82750000D03*
D21*
X128050000Y-83250000D03*
D19*
X128750000Y-83950000D03*
D20*
X129250000Y-83950000D03*
X129750000Y-83950000D03*
X130250000Y-83950000D03*
X130750000Y-83950000D03*
D19*
X131250000Y-83950000D03*
D21*
X131950000Y-83250000D03*
D22*
X131950000Y-82750000D03*
X131950000Y-82250000D03*
X131950000Y-81750000D03*
X131950000Y-81250000D03*
D21*
X131950000Y-80750000D03*
D23*
X130000000Y-82000000D03*
D24*
X120195000Y-98750000D03*
X120195000Y-99250000D03*
X120195000Y-99750000D03*
X120195000Y-100250000D03*
X122805000Y-100250000D03*
X122805000Y-99750000D03*
X122805000Y-99250000D03*
X122805000Y-98750000D03*
D25*
X121500000Y-99500000D03*
D26*
X114500000Y-89000000D03*
X114500000Y-79000000D03*
D27*
X114200000Y-74475000D03*
X114200000Y-73825000D03*
X114200000Y-73175000D03*
X114200000Y-72525000D03*
X109800000Y-72525000D03*
X109800000Y-73175000D03*
X109800000Y-73825000D03*
X109800000Y-74475000D03*
D28*
X109550000Y-23000000D03*
X110450000Y-23000000D03*
D27*
X120550000Y-59075000D03*
X120550000Y-59725000D03*
X120550000Y-60375000D03*
X120550000Y-61025000D03*
X120550000Y-61675000D03*
X120550000Y-62325000D03*
X120550000Y-62975000D03*
X120550000Y-63625000D03*
X120550000Y-64275000D03*
X120550000Y-64925000D03*
X126450000Y-64925000D03*
X126450000Y-64275000D03*
X126450000Y-63625000D03*
X126450000Y-62975000D03*
X126450000Y-62325000D03*
X126450000Y-61675000D03*
X126450000Y-61025000D03*
X126450000Y-60375000D03*
X126450000Y-59725000D03*
X126450000Y-59075000D03*
D29*
X100120000Y-94500000D03*
D30*
X95040000Y-94500000D03*
X89960000Y-94500000D03*
D31*
X84880000Y-94500000D03*
D32*
X79000000Y-46250000D03*
X79000000Y-50750000D03*
D33*
X143634000Y-85000000D03*
X158366000Y-85000000D03*
D34*
X86000000Y-26000000D03*
X81000000Y-26000000D03*
D35*
X152274000Y-62580000D03*
D36*
X152274000Y-60040000D03*
X152274000Y-57500000D03*
X152274000Y-52420000D03*
X149226000Y-62580000D03*
X149226000Y-60040000D03*
X149226000Y-57500000D03*
X149226000Y-54960000D03*
X149226000Y-52420000D03*
D26*
X114500000Y-43000000D03*
X114500000Y-33000000D03*
D37*
X90500000Y-78355000D03*
X93040000Y-78355000D03*
X95580000Y-78355000D03*
X90500000Y-85645000D03*
X93040000Y-85645000D03*
X95580000Y-85645000D03*
X85420000Y-78355000D03*
X85420000Y-85645000D03*
D38*
X111501140Y-114599440D03*
X112499360Y-114599440D03*
X113500120Y-114599440D03*
X114500880Y-114599440D03*
X115499100Y-114599440D03*
X116499860Y-114599440D03*
X117500620Y-114599440D03*
X111501140Y-114599440D03*
X112499360Y-114599440D03*
X113500120Y-114599440D03*
X114500880Y-114599440D03*
X115499100Y-114599440D03*
X116499860Y-114599440D03*
X117500620Y-114599440D03*
X108498860Y-114599440D03*
D39*
X98498880Y-114200660D03*
D38*
X99499640Y-114599440D03*
X100500400Y-114599440D03*
X101501160Y-114599440D03*
X102499380Y-114599440D03*
X103500140Y-114599440D03*
X104500900Y-114599440D03*
X105499120Y-114599440D03*
X106499880Y-114599440D03*
X107500640Y-114599440D03*
X98498880Y-114599440D03*
X99499640Y-114599440D03*
X100500400Y-114599440D03*
X101501160Y-114599440D03*
X102499380Y-114599440D03*
X103500140Y-114599440D03*
X104500900Y-114599440D03*
X105499120Y-114599440D03*
X106499880Y-114599440D03*
X107500640Y-114599440D03*
X108498860Y-114599440D03*
X118498840Y-114599440D03*
X119499600Y-114599440D03*
X120500360Y-114599440D03*
X121501120Y-114599440D03*
X122499340Y-114599440D03*
X123500100Y-114599440D03*
X124500860Y-114599440D03*
X125499080Y-114599440D03*
X126499840Y-114599440D03*
X127500600Y-114599440D03*
X128498820Y-114599440D03*
X129499580Y-114599440D03*
X130500340Y-114599440D03*
X131501100Y-114599440D03*
X118498840Y-114599440D03*
X119499600Y-114599440D03*
X120500360Y-114599440D03*
X121501120Y-114599440D03*
X122499340Y-114599440D03*
X123500100Y-114599440D03*
X124500860Y-114599440D03*
X125499080Y-114599440D03*
X126499840Y-114599440D03*
X127500600Y-114599440D03*
X128498820Y-114599440D03*
X129499580Y-114599440D03*
D39*
X130500340Y-114200660D03*
D38*
X131501100Y-114599440D03*
D34*
X82000000Y-87000000D03*
X77000000Y-87000000D03*
X86000000Y-72000000D03*
X81000000Y-72000000D03*
X82000000Y-79000000D03*
X77000000Y-79000000D03*
X117000000Y-95000000D03*
X112000000Y-95000000D03*
X117000000Y-49000000D03*
X112000000Y-49000000D03*
X82000000Y-33000000D03*
X77000000Y-33000000D03*
X82000000Y-41000000D03*
X77000000Y-41000000D03*
D24*
X127200000Y-28500000D03*
X127200000Y-28000000D03*
X127200000Y-27500000D03*
X127200000Y-27000000D03*
X124800000Y-27000000D03*
X124800000Y-27500000D03*
X124800000Y-28000000D03*
X124800000Y-28500000D03*
D40*
X126000000Y-27750000D03*
D41*
X65000000Y-102400000D03*
X65000000Y-100600000D03*
D42*
X111500000Y-97750000D03*
X111500000Y-99250000D03*
D43*
X95950000Y-71750000D03*
X93050000Y-71750000D03*
X90950000Y-74500000D03*
X88050000Y-74500000D03*
X90450000Y-89500000D03*
X87550000Y-89500000D03*
D44*
X112250000Y-70500000D03*
X113750000Y-70500000D03*
D45*
X128900000Y-98750000D03*
X135100000Y-98750000D03*
D46*
X124200000Y-97500000D03*
X125300000Y-97500000D03*
X130950000Y-77500000D03*
X132050000Y-77500000D03*
X133850000Y-87000000D03*
X134950000Y-87000000D03*
D47*
X134500000Y-83450000D03*
X134500000Y-84550000D03*
D48*
X138500000Y-94100000D03*
X138500000Y-87900000D03*
D46*
X125300000Y-101500000D03*
X124200000Y-101500000D03*
X134800000Y-79750000D03*
X133700000Y-79750000D03*
D47*
X128000000Y-87050000D03*
X128000000Y-85950000D03*
D46*
X125200000Y-79250000D03*
X126300000Y-79250000D03*
D44*
X107250000Y-75250000D03*
X105750000Y-75250000D03*
D42*
X116250000Y-74000000D03*
X116250000Y-72500000D03*
D49*
X141050000Y-64500000D03*
X143950000Y-64500000D03*
D42*
X118750000Y-66750000D03*
X118750000Y-65250000D03*
D50*
X98950000Y-55500000D03*
X98050000Y-55500000D03*
X98950000Y-63500000D03*
X98050000Y-63500000D03*
D44*
X110250000Y-63750000D03*
X108750000Y-63750000D03*
D51*
X115250000Y-62700000D03*
X115250000Y-59800000D03*
D42*
X112000000Y-62000000D03*
X112000000Y-60500000D03*
X100250000Y-62000000D03*
X100250000Y-60500000D03*
D51*
X79750000Y-63700000D03*
X79750000Y-60800000D03*
D42*
X105750000Y-58750000D03*
X105750000Y-57250000D03*
X94000000Y-58750000D03*
X94000000Y-57250000D03*
D29*
X158000000Y-97000000D03*
D26*
X158000000Y-99000000D03*
D29*
X158000000Y-71000000D03*
D26*
X158000000Y-73000000D03*
D44*
X143250000Y-30500000D03*
X144750000Y-30500000D03*
D29*
X146500000Y-41500000D03*
D26*
X146500000Y-43500000D03*
D41*
X140250000Y-71150000D03*
X140250000Y-69350000D03*
D52*
X136100000Y-69000000D03*
X137900000Y-69000000D03*
D44*
X144750000Y-28500000D03*
X143250000Y-28500000D03*
D29*
X139000000Y-29500000D03*
D26*
X139000000Y-31500000D03*
D41*
X65000000Y-56400000D03*
X65000000Y-54600000D03*
D42*
X111500000Y-51750000D03*
X111500000Y-53250000D03*
D43*
X95950000Y-25500000D03*
X93050000Y-25500000D03*
X90950000Y-28500000D03*
X88050000Y-28500000D03*
X90450000Y-43500000D03*
X87550000Y-43500000D03*
D44*
X112250000Y-24500000D03*
X113750000Y-24500000D03*
D45*
X129000000Y-52750000D03*
X135200000Y-52750000D03*
D46*
X124200000Y-51500000D03*
X125300000Y-51500000D03*
X130950000Y-31500000D03*
X132050000Y-31500000D03*
X133950000Y-40750000D03*
X135050000Y-40750000D03*
D47*
X134500000Y-37450000D03*
X134500000Y-38550000D03*
D46*
X125300000Y-55500000D03*
X124200000Y-55500000D03*
X134800000Y-33750000D03*
X133700000Y-33750000D03*
D47*
X128000000Y-41050000D03*
X128000000Y-39950000D03*
D46*
X125200000Y-33250000D03*
X126300000Y-33250000D03*
D44*
X107250000Y-29250000D03*
X105750000Y-29250000D03*
X117500000Y-26250000D03*
X116000000Y-26250000D03*
D53*
X111800000Y-101100000D03*
X111800000Y-102400000D03*
X113700000Y-101750000D03*
X113950000Y-69150000D03*
X113950000Y-67850000D03*
X112050000Y-68500000D03*
D54*
X116900000Y-68800000D03*
X115600000Y-68800000D03*
X116250000Y-70700000D03*
D55*
X148700000Y-72000000D03*
X153000000Y-72000000D03*
D53*
X111800000Y-55350000D03*
X111800000Y-56650000D03*
X113700000Y-56000000D03*
X113950000Y-23150000D03*
X113950000Y-21850000D03*
X112050000Y-22500000D03*
D54*
X117150000Y-22550000D03*
X115850000Y-22550000D03*
X116500000Y-24450000D03*
D56*
X75600000Y-73500000D03*
X71400000Y-73500000D03*
D57*
X107500000Y-105500000D03*
X107500000Y-108500000D03*
X157500000Y-32500000D03*
X157500000Y-35500000D03*
D58*
X159500000Y-20000000D03*
X156500000Y-20000000D03*
D32*
X79000000Y-92250000D03*
X79000000Y-96750000D03*
D35*
X106500000Y-24730000D03*
D36*
X106500000Y-27270000D03*
D26*
X75000000Y-46000000D03*
X75000000Y-48540000D03*
D59*
X69920000Y-40920000D03*
X69920000Y-51080000D03*
D35*
X106500000Y-70730000D03*
D36*
X106500000Y-73270000D03*
D26*
X75000000Y-92000000D03*
X75000000Y-94540000D03*
D59*
X69920000Y-86920000D03*
X69920000Y-97080000D03*
D35*
X157500000Y-30310000D03*
D36*
X157500000Y-27770000D03*
X157500000Y-25230000D03*
X157500000Y-22690000D03*
D29*
X107000000Y-95120000D03*
D60*
X107000000Y-90040000D03*
X107000000Y-84960000D03*
D31*
X107000000Y-79880000D03*
D29*
X107000000Y-49120000D03*
D60*
X107000000Y-44040000D03*
X107000000Y-38960000D03*
D31*
X107000000Y-33880000D03*
D37*
X90500000Y-32355000D03*
X93040000Y-32355000D03*
X95580000Y-32355000D03*
X90500000Y-39645000D03*
X93040000Y-39645000D03*
X95580000Y-39645000D03*
X85420000Y-32355000D03*
X85420000Y-39645000D03*
D29*
X100120000Y-48500000D03*
D30*
X95040000Y-48500000D03*
X89960000Y-48500000D03*
D31*
X84880000Y-48500000D03*
D61*
X70800000Y-61055000D03*
X70800000Y-62325000D03*
X70800000Y-63595000D03*
X70800000Y-64865000D03*
X70800000Y-66135000D03*
X70800000Y-67405000D03*
X70800000Y-68675000D03*
X70800000Y-69945000D03*
X76200000Y-69945000D03*
X76200000Y-68675000D03*
X76200000Y-67405000D03*
X76200000Y-66135000D03*
X76200000Y-64865000D03*
X76200000Y-63595000D03*
X76200000Y-62325000D03*
X76200000Y-61055000D03*
D62*
X113250000Y-99500000D03*
X114750000Y-99500000D03*
X99750000Y-71750000D03*
X98250000Y-71750000D03*
X118250000Y-99500000D03*
X116750000Y-99500000D03*
D28*
X94050000Y-89500000D03*
X94950000Y-89500000D03*
D63*
X95000000Y-74500000D03*
X93000000Y-74500000D03*
X98750000Y-74500000D03*
X96750000Y-74500000D03*
D64*
X101000000Y-78000000D03*
X101000000Y-76000000D03*
D65*
X115500000Y-101250000D03*
X115500000Y-102750000D03*
X117500000Y-101250000D03*
X117500000Y-102750000D03*
D57*
X81000000Y-103000000D03*
X81000000Y-100000000D03*
X78000000Y-103000000D03*
X78000000Y-100000000D03*
X75000000Y-103000000D03*
X75000000Y-100000000D03*
X72000000Y-103000000D03*
X72000000Y-100000000D03*
D28*
X110250000Y-102200000D03*
X110250000Y-101300000D03*
X129250000Y-74800000D03*
X129250000Y-75700000D03*
X129250000Y-72550000D03*
X129250000Y-73450000D03*
X119250000Y-95250000D03*
X119250000Y-94350000D03*
X129250000Y-77300000D03*
X129250000Y-78200000D03*
X130300000Y-86500000D03*
X131200000Y-86500000D03*
X131200000Y-85400000D03*
X130300000Y-85400000D03*
X119250000Y-91700000D03*
X119250000Y-90800000D03*
X136050000Y-82000000D03*
X136950000Y-82000000D03*
X134700000Y-82000000D03*
X133800000Y-82000000D03*
X122750000Y-74800000D03*
X122750000Y-75700000D03*
X122750000Y-72550000D03*
X122750000Y-73450000D03*
X106050000Y-69000000D03*
X106950000Y-69000000D03*
X110450000Y-70500000D03*
X109550000Y-70500000D03*
X109550000Y-69000000D03*
X110450000Y-69000000D03*
D65*
X125000000Y-66750000D03*
X125000000Y-68250000D03*
D62*
X144500000Y-52500000D03*
X143000000Y-52500000D03*
X145000000Y-57500000D03*
X143500000Y-57500000D03*
D28*
X94950000Y-54000000D03*
X94050000Y-54000000D03*
X98950000Y-54000000D03*
X98050000Y-54000000D03*
X94950000Y-65000000D03*
X94050000Y-65000000D03*
X98950000Y-65000000D03*
X98050000Y-65000000D03*
X94950000Y-55500000D03*
X94050000Y-55500000D03*
X96500000Y-54300000D03*
X96500000Y-55200000D03*
X94950000Y-63500000D03*
X94050000Y-63500000D03*
X96500000Y-64700000D03*
X96500000Y-63800000D03*
X93300000Y-60500000D03*
X94200000Y-60500000D03*
X93300000Y-62000000D03*
X94200000Y-62000000D03*
X109050000Y-55250000D03*
X109950000Y-55250000D03*
X109050000Y-65250000D03*
X109950000Y-65250000D03*
X106300000Y-63750000D03*
X107200000Y-63750000D03*
X106300000Y-65250000D03*
X107200000Y-65250000D03*
D62*
X150750000Y-96000000D03*
X149250000Y-96000000D03*
X147500000Y-96000000D03*
X146000000Y-96000000D03*
X113250000Y-53500000D03*
X114750000Y-53500000D03*
X100000000Y-25500000D03*
X98500000Y-25500000D03*
X118250000Y-53500000D03*
X116750000Y-53500000D03*
D28*
X94050000Y-43500000D03*
X94950000Y-43500000D03*
D63*
X95000000Y-28500000D03*
X93000000Y-28500000D03*
X98750000Y-28500000D03*
X96750000Y-28500000D03*
D64*
X101250000Y-31250000D03*
X101250000Y-29250000D03*
D65*
X115500000Y-55250000D03*
X115500000Y-56750000D03*
X117500000Y-55250000D03*
X117500000Y-56750000D03*
D57*
X78000000Y-57000000D03*
X78000000Y-54000000D03*
X75000000Y-57000000D03*
X75000000Y-54000000D03*
X72000000Y-57000000D03*
X72000000Y-54000000D03*
X81000000Y-57000000D03*
X81000000Y-54000000D03*
D28*
X112000000Y-58050000D03*
X112000000Y-58950000D03*
X129250000Y-28800000D03*
X129250000Y-29700000D03*
X129250000Y-26550000D03*
X129250000Y-27450000D03*
X120450000Y-50250000D03*
X119550000Y-50250000D03*
X129250000Y-31300000D03*
X129250000Y-32200000D03*
X130550000Y-40500000D03*
X131450000Y-40500000D03*
X131450000Y-39400000D03*
X130550000Y-39400000D03*
X119250000Y-45200000D03*
X119250000Y-44300000D03*
X136050000Y-36000000D03*
X136950000Y-36000000D03*
X134700000Y-36000000D03*
X133800000Y-36000000D03*
X122750000Y-28800000D03*
X122750000Y-29700000D03*
X122750000Y-26550000D03*
X122750000Y-27450000D03*
X106050000Y-23000000D03*
X106950000Y-23000000D03*
X110450000Y-24500000D03*
X109550000Y-24500000D03*
D66*
X67550000Y-102600000D03*
X69450000Y-102600000D03*
D67*
X68500000Y-100400000D03*
D68*
X121050000Y-90795000D03*
X121050000Y-91425000D03*
X121050000Y-92055000D03*
X121050000Y-92685000D03*
X121050000Y-93315000D03*
X121050000Y-93945000D03*
X121050000Y-94575000D03*
X121050000Y-95205000D03*
X126450000Y-95205000D03*
X126450000Y-94575000D03*
X126450000Y-93945000D03*
X126450000Y-93315000D03*
X126450000Y-92685000D03*
X126450000Y-92055000D03*
X126450000Y-91425000D03*
X126450000Y-90795000D03*
D69*
X128795000Y-94950000D03*
X129425000Y-94950000D03*
X130055000Y-94950000D03*
X130685000Y-94950000D03*
X131315000Y-94950000D03*
X131945000Y-94950000D03*
X132575000Y-94950000D03*
X133205000Y-94950000D03*
X133205000Y-89550000D03*
X132575000Y-89550000D03*
X131945000Y-89550000D03*
X131315000Y-89550000D03*
X130685000Y-89550000D03*
X130055000Y-89550000D03*
X129425000Y-89550000D03*
X128795000Y-89550000D03*
X121045000Y-87450000D03*
X121675000Y-87450000D03*
X122305000Y-87450000D03*
X122935000Y-87450000D03*
X123565000Y-87450000D03*
X124195000Y-87450000D03*
X124825000Y-87450000D03*
X125455000Y-87450000D03*
X125455000Y-82050000D03*
X124825000Y-82050000D03*
X124195000Y-82050000D03*
X123565000Y-82050000D03*
X122935000Y-82050000D03*
X122305000Y-82050000D03*
X121675000Y-82050000D03*
X121045000Y-82050000D03*
D24*
X127200000Y-74500000D03*
X127200000Y-74000000D03*
X127200000Y-73500000D03*
X127200000Y-73000000D03*
X124800000Y-73000000D03*
X124800000Y-73500000D03*
X124800000Y-74000000D03*
X124800000Y-74500000D03*
D40*
X126000000Y-73750000D03*
D70*
X109725000Y-57300000D03*
X109075000Y-57300000D03*
X108425000Y-57300000D03*
X107775000Y-57300000D03*
X107775000Y-61700000D03*
X108425000Y-61700000D03*
X109075000Y-61700000D03*
X109725000Y-61700000D03*
X97975000Y-57300000D03*
X97325000Y-57300000D03*
X96675000Y-57300000D03*
X96025000Y-57300000D03*
X96025000Y-61700000D03*
X96675000Y-61700000D03*
X97325000Y-61700000D03*
X97975000Y-61700000D03*
D27*
X114200000Y-28475000D03*
X114200000Y-27825000D03*
X114200000Y-27175000D03*
X114200000Y-26525000D03*
X109800000Y-26525000D03*
X109800000Y-27175000D03*
X109800000Y-27825000D03*
X109800000Y-28475000D03*
D71*
X148460000Y-92050000D03*
X153540000Y-92050000D03*
D72*
X151000000Y-81000000D03*
D73*
X143900000Y-33200000D03*
X143900000Y-37800000D03*
D74*
X150800000Y-35500000D03*
D73*
X143900000Y-21200000D03*
X143900000Y-25800000D03*
D74*
X150800000Y-23500000D03*
D66*
X67550000Y-56600000D03*
X69450000Y-56600000D03*
D67*
X68500000Y-54400000D03*
D68*
X121050000Y-44795000D03*
X121050000Y-45425000D03*
X121050000Y-46055000D03*
X121050000Y-46685000D03*
X121050000Y-47315000D03*
X121050000Y-47945000D03*
X121050000Y-48575000D03*
X121050000Y-49205000D03*
X126450000Y-49205000D03*
X126450000Y-48575000D03*
X126450000Y-47945000D03*
X126450000Y-47315000D03*
X126450000Y-46685000D03*
X126450000Y-46055000D03*
X126450000Y-45425000D03*
X126450000Y-44795000D03*
D69*
X128795000Y-48950000D03*
X129425000Y-48950000D03*
X130055000Y-48950000D03*
X130685000Y-48950000D03*
X131315000Y-48950000D03*
X131945000Y-48950000D03*
X132575000Y-48950000D03*
X133205000Y-48950000D03*
X133205000Y-43550000D03*
X132575000Y-43550000D03*
X131945000Y-43550000D03*
X131315000Y-43550000D03*
X130685000Y-43550000D03*
X130055000Y-43550000D03*
X129425000Y-43550000D03*
X128795000Y-43550000D03*
X121045000Y-41450000D03*
X121675000Y-41450000D03*
X122305000Y-41450000D03*
X122935000Y-41450000D03*
X123565000Y-41450000D03*
X124195000Y-41450000D03*
X124825000Y-41450000D03*
X125455000Y-41450000D03*
X125455000Y-36050000D03*
X124825000Y-36050000D03*
X124195000Y-36050000D03*
X123565000Y-36050000D03*
X122935000Y-36050000D03*
X122305000Y-36050000D03*
X121675000Y-36050000D03*
X121045000Y-36050000D03*
D42*
X126750000Y-68250000D03*
X126750000Y-66750000D03*
D28*
X128300000Y-25000000D03*
X129200000Y-25000000D03*
X123700000Y-25000000D03*
X122800000Y-25000000D03*
X128300000Y-71000000D03*
X129200000Y-71000000D03*
X123700000Y-71000000D03*
X122800000Y-71000000D03*
D75*
X158160000Y-105000000D03*
X137840000Y-105000000D03*
D76*
X140000000Y-52000000D03*
X100500000Y-55500000D03*
X99000000Y-68250000D03*
D77*
X63600840Y-61000000D03*
X65399160Y-61000000D03*
X63600840Y-62500000D03*
X65399160Y-62500000D03*
X63600840Y-64000000D03*
X65399160Y-64000000D03*
X63600840Y-65500000D03*
X65399160Y-65500000D03*
X63600840Y-67000000D03*
X65399160Y-67000000D03*
X63600840Y-68500000D03*
X65399160Y-68500000D03*
D28*
X68450000Y-61000000D03*
X67550000Y-61000000D03*
X68450000Y-62500000D03*
X67550000Y-62500000D03*
X68450000Y-64000000D03*
X67550000Y-64000000D03*
X68450000Y-65500000D03*
X67550000Y-65500000D03*
X68450000Y-67000000D03*
X67550000Y-67000000D03*
X68450000Y-68500000D03*
X67550000Y-68500000D03*
D77*
X144149160Y-48000000D03*
X142350840Y-48000000D03*
X144149160Y-46500000D03*
X142350840Y-46500000D03*
X144149160Y-49500000D03*
X142350840Y-49500000D03*
X129399160Y-104000000D03*
X127600840Y-104000000D03*
X129399160Y-107000000D03*
X127600840Y-107000000D03*
X129399160Y-105500000D03*
X127600840Y-105500000D03*
D28*
X139600000Y-48000000D03*
X140500000Y-48000000D03*
X139550000Y-46500000D03*
X140450000Y-46500000D03*
X139550000Y-49500000D03*
X140450000Y-49500000D03*
X124850000Y-104000000D03*
X125750000Y-104000000D03*
X124850000Y-107000000D03*
X125750000Y-107000000D03*
X124800000Y-105500000D03*
X125700000Y-105500000D03*
D78*
X132400000Y-87450000D03*
X132400000Y-86550000D03*
X132700000Y-41450000D03*
X132700000Y-40550000D03*
D28*
X130300000Y-87600000D03*
X131200000Y-87600000D03*
X130550000Y-41600000D03*
X131450000Y-41600000D03*
D78*
X137500000Y-79750000D03*
X137500000Y-80650000D03*
X137500000Y-33750000D03*
X137500000Y-34650000D03*
D28*
X136400000Y-80650000D03*
X136400000Y-79750000D03*
X136400000Y-34650000D03*
X136400000Y-33750000D03*
D52*
X145800000Y-70500000D03*
X144000000Y-70500000D03*
X148900000Y-29500000D03*
X147100000Y-29500000D03*
D28*
X140450000Y-43500000D03*
X139550000Y-43500000D03*
X140450000Y-45000000D03*
X139550000Y-45000000D03*
X137700000Y-43500000D03*
X136800000Y-43500000D03*
X137700000Y-45000000D03*
X136800000Y-45000000D03*
D66*
X145950000Y-72650000D03*
X144050000Y-72650000D03*
D67*
X145000000Y-74850000D03*
D79*
X151400000Y-28550000D03*
X151400000Y-30450000D03*
D80*
X153600000Y-29500000D03*
D29*
X157000000Y-41749940D03*
D26*
X157000000Y-45250060D03*
D29*
X137500000Y-21249940D03*
D26*
X137500000Y-24750060D03*
D62*
X138000000Y-73000000D03*
X136500000Y-73000000D03*
D81*
X137925000Y-71500000D03*
X137925000Y-71000000D03*
X137925000Y-70500000D03*
X136075000Y-70500000D03*
X136075000Y-71000000D03*
X136075000Y-71500000D03*
D82*
X120750000Y-67150000D03*
X120750000Y-68850000D03*
X141250000Y-59150000D03*
X141250000Y-60850000D03*
D83*
X114500000Y-39300000D03*
X114500000Y-35000000D03*
X114500000Y-85300000D03*
X114500000Y-81000000D03*
D76*
X67000000Y-77500000D03*
X67000000Y-79500000D03*
X133000000Y-69500000D03*
D84*
X143500000Y-60400000D03*
X143500000Y-59500000D03*
X123000000Y-67950000D03*
X123000000Y-67050000D03*
D78*
X127250000Y-56950000D03*
X127250000Y-56050000D03*
X139000000Y-59300000D03*
X139000000Y-60200000D03*
D84*
X103500000Y-106950000D03*
X103500000Y-106050000D03*
X102000000Y-106950000D03*
X102000000Y-106050000D03*
D28*
X105000000Y-106050000D03*
X105000000Y-106950000D03*
X102000000Y-103050000D03*
X102000000Y-103950000D03*
X103500000Y-103050000D03*
X103500000Y-103950000D03*
X130750000Y-27800000D03*
X130750000Y-28700000D03*
X121250000Y-27600000D03*
X121250000Y-28500000D03*
X130750000Y-73600000D03*
X130750000Y-74500000D03*
X121250000Y-73550000D03*
X121250000Y-74450000D03*
X103500000Y-58050000D03*
X103500000Y-58950000D03*
X103500000Y-62200000D03*
X103500000Y-61300000D03*
X102000000Y-58950000D03*
X102000000Y-58050000D03*
X102000000Y-55500000D03*
X102000000Y-56400000D03*
X103500000Y-64750000D03*
X103500000Y-63850000D03*
X102000000Y-61300000D03*
X102000000Y-62200000D03*
D85*
G36*
X132123000Y-118373000D02*
X97877000Y-118373000D01*
X97877000Y-112627000D01*
X132123000Y-112627000D01*
X132123000Y-118373000D01*
X132123000Y-118373000D01*
G37*
X132123000Y-118373000D02*
X97877000Y-118373000D01*
X97877000Y-112627000D01*
X132123000Y-112627000D01*
X132123000Y-118373000D01*
G36*
X84873000Y-21373000D02*
X76377000Y-21373000D01*
X76377000Y-18627000D01*
X84873000Y-18627000D01*
X84873000Y-21373000D01*
X84873000Y-21373000D01*
G37*
X84873000Y-21373000D02*
X76377000Y-21373000D01*
X76377000Y-18627000D01*
X84873000Y-18627000D01*
X84873000Y-21373000D01*
M02*
