G04 #@! TF.FileFunction,Soldermask,Top*
%FSLAX46Y46*%
G04 Gerber Fmt 4.6, Leading zero omitted, Abs format (unit mm)*
G04 Created by KiCad (PCBNEW (after 2015-may-25 BZR unknown)-product) date Wed 27 May 2015 09:58:39 PM EDT*
%MOMM*%
G01*
G04 APERTURE LIST*
%ADD10C,0.100000*%
%ADD11C,0.150000*%
%ADD12C,0.200000*%
%ADD13R,0.760000X2.790000*%
%ADD14R,0.600000X0.600000*%
%ADD15C,2.000000*%
%ADD16R,0.950000X1.500000*%
%ADD17O,1.500000X0.300000*%
%ADD18O,0.300000X1.500000*%
%ADD19O,0.300000X0.850000*%
%ADD20R,0.300000X0.850000*%
%ADD21O,0.850000X0.300000*%
%ADD22R,0.850000X0.300000*%
%ADD23R,2.550000X2.550000*%
%ADD24O,0.650000X0.300000*%
%ADD25R,1.450000X1.450000*%
%ADD26C,1.500000*%
%ADD27O,1.450000X0.450000*%
%ADD28R,1.500000X1.500000*%
%ADD29O,1.500000X2.500000*%
%ADD30O,1.500000X1.500000*%
%ADD31R,4.200000X1.500000*%
%ADD32R,1.524000X16.256000*%
%ADD33C,1.300000*%
%ADD34R,2.286000X1.524000*%
%ADD35O,2.286000X1.524000*%
%ADD36R,1.110000X3.000000*%
%ADD37R,0.701040X4.000500*%
%ADD38R,0.701040X3.200400*%
%ADD39R,1.200000X1.600000*%
%ADD40R,1.450000X1.150000*%
%ADD41R,0.950000X0.900000*%
%ADD42R,1.200000X1.800000*%
%ADD43R,0.900000X0.950000*%
%ADD44R,2.350000X2.450000*%
%ADD45R,0.750000X2.200000*%
%ADD46R,2.200000X0.750000*%
%ADD47R,2.450000X2.350000*%
%ADD48R,1.800000X2.250000*%
%ADD49R,0.650000X0.600000*%
%ADD50R,2.250000X1.800000*%
%ADD51R,1.150000X1.450000*%
%ADD52R,0.850000X0.650000*%
%ADD53R,0.650000X0.850000*%
%ADD54R,2.300000X1.500000*%
%ADD55R,2.400000X1.550000*%
%ADD56R,1.800000X1.050000*%
%ADD57R,1.050000X1.800000*%
%ADD58C,3.200000*%
%ADD59O,2.500000X1.500000*%
%ADD60O,1.500000X0.600000*%
%ADD61R,0.850000X1.000000*%
%ADD62R,0.950000X1.450000*%
%ADD63R,1.450000X0.950000*%
%ADD64R,1.000000X0.850000*%
%ADD65R,0.900000X1.300000*%
%ADD66R,0.800000X1.300000*%
%ADD67O,1.550000X0.400000*%
%ADD68O,0.400000X1.550000*%
%ADD69O,0.450000X1.450000*%
%ADD70R,2.300000X3.800000*%
%ADD71R,10.900000X9.550000*%
%ADD72R,2.450000X1.450000*%
%ADD73R,6.950000X6.950000*%
%ADD74C,2.500000*%
%ADD75C,1.200000*%
%ADD76R,0.899160X0.800100*%
%ADD77R,0.600000X0.650000*%
%ADD78R,1.300000X0.900000*%
%ADD79R,1.300000X0.800000*%
%ADD80R,1.500000X0.280000*%
%ADD81R,2.300000X1.200000*%
%ADD82R,0.700000X0.650000*%
%ADD83C,0.254000*%
%ADD84C,0.250000*%
G04 APERTURE END LIST*
D10*
D11*
X94500000Y-73000000D02*
X94500000Y-70250000D01*
X94000000Y-73500000D02*
X94500000Y-73000000D01*
X94000000Y-75950000D02*
X94000000Y-73500000D01*
X94150000Y-76100000D02*
X94000000Y-75950000D01*
X97750000Y-76100000D02*
X94150000Y-76100000D01*
X94000000Y-30250000D02*
X97750000Y-30250000D01*
X94000000Y-27500000D02*
X94000000Y-30250000D01*
X94500000Y-27000000D02*
X94000000Y-27500000D01*
D12*
X116000000Y-40750000D02*
X116000000Y-42000000D01*
X116500000Y-40250000D02*
X116000000Y-40750000D01*
X116500000Y-38000000D02*
X116500000Y-40250000D01*
X116000000Y-37500000D02*
X116500000Y-38000000D01*
X113000000Y-37500000D02*
X116000000Y-37500000D01*
X112500000Y-38000000D02*
X113000000Y-37500000D01*
X112500000Y-40250000D02*
X112500000Y-38000000D01*
X113000000Y-40750000D02*
X112500000Y-40250000D01*
X113000000Y-42000000D02*
X113000000Y-40750000D01*
X116000000Y-87000000D02*
X116000000Y-88250000D01*
X116250000Y-86750000D02*
X116000000Y-87000000D01*
X116250000Y-84500000D02*
X116250000Y-86750000D01*
X115750000Y-84000000D02*
X116250000Y-84500000D01*
X113250000Y-84000000D02*
X115750000Y-84000000D01*
X112750000Y-84500000D02*
X113250000Y-84000000D01*
X112750000Y-86750000D02*
X112750000Y-84500000D01*
X113000000Y-87000000D02*
X112750000Y-86750000D01*
X113000000Y-88250000D02*
X113000000Y-87000000D01*
X102250000Y-74500000D02*
X101750000Y-74000000D01*
X102250000Y-77000000D02*
X102250000Y-74500000D01*
X97750000Y-77000000D02*
X102250000Y-77000000D01*
X97750000Y-73250000D02*
X97750000Y-77000000D01*
X102500000Y-28500000D02*
X101750000Y-27750000D01*
X102500000Y-30250000D02*
X102500000Y-28500000D01*
X97750000Y-30250000D02*
X102500000Y-30250000D01*
X97750000Y-27000000D02*
X97750000Y-30250000D01*
X94500000Y-24000000D02*
X94500000Y-27000000D01*
X108750000Y-50750000D02*
X105500000Y-50750000D01*
X109250000Y-50250000D02*
X108750000Y-50750000D01*
X109250000Y-49250000D02*
X109250000Y-50250000D01*
X110500000Y-48000000D02*
X109250000Y-49250000D01*
X113250000Y-48000000D02*
X110500000Y-48000000D01*
X113750000Y-48500000D02*
X113250000Y-48000000D01*
X113750000Y-52250000D02*
X113750000Y-48500000D01*
X114000000Y-52500000D02*
X113750000Y-52250000D01*
X114000000Y-52750000D02*
X114000000Y-52500000D01*
X117500000Y-52250000D02*
X117500000Y-52750000D01*
X117250000Y-52000000D02*
X117500000Y-52250000D01*
X116250000Y-52000000D02*
X117250000Y-52000000D01*
X115500000Y-51250000D02*
X116250000Y-52000000D01*
X115500000Y-48500000D02*
X115500000Y-51250000D01*
X116000000Y-48000000D02*
X115500000Y-48500000D01*
X116000000Y-42000000D02*
X116000000Y-48000000D01*
X113000000Y-46250000D02*
X113000000Y-42000000D01*
X112750000Y-46500000D02*
X113000000Y-46250000D01*
X109750000Y-46500000D02*
X112750000Y-46500000D01*
X108750000Y-47500000D02*
X109750000Y-46500000D01*
X105500000Y-47500000D02*
X108750000Y-47500000D01*
X105000000Y-48000000D02*
X105500000Y-47500000D01*
X105000000Y-50250000D02*
X105000000Y-48000000D01*
X105500000Y-50750000D02*
X105000000Y-50250000D01*
X114000000Y-95250000D02*
X114000000Y-98750000D01*
X112750000Y-94000000D02*
X114000000Y-95250000D01*
X111500000Y-94000000D02*
X112750000Y-94000000D01*
X110500000Y-95000000D02*
X111500000Y-94000000D01*
X110500000Y-95750000D02*
X110500000Y-95000000D01*
X109250000Y-97000000D02*
X110500000Y-95750000D01*
X105500000Y-97000000D02*
X109250000Y-97000000D01*
X117000000Y-98000000D02*
X117500000Y-98500000D01*
X116500000Y-98000000D02*
X117000000Y-98000000D01*
X115750000Y-97250000D02*
X116500000Y-98000000D01*
X115750000Y-94750000D02*
X115750000Y-97250000D01*
X115000000Y-94000000D02*
X115750000Y-94750000D01*
X115000000Y-92500000D02*
X115000000Y-94000000D01*
X116000000Y-91500000D02*
X115000000Y-92500000D01*
X116000000Y-88250000D02*
X116000000Y-91500000D01*
X113000000Y-90250000D02*
X113000000Y-88250000D01*
X110000000Y-93250000D02*
X113000000Y-90250000D01*
X105750000Y-93250000D02*
X110000000Y-93250000D01*
X104750000Y-94250000D02*
X105750000Y-93250000D01*
X104750000Y-96250000D02*
X104750000Y-94250000D01*
X105500000Y-97000000D02*
X104750000Y-96250000D01*
D13*
X95990000Y-25500000D03*
X93010000Y-25500000D03*
D14*
X102000000Y-61000000D03*
X102000000Y-61900000D03*
D15*
X117785000Y-22200000D03*
X130615000Y-21200000D03*
D16*
X102000000Y-63400000D03*
X102000000Y-65100000D03*
D17*
X137200000Y-63500000D03*
X137200000Y-63000000D03*
X137200000Y-62500000D03*
X137200000Y-62000000D03*
X137200000Y-61500000D03*
X137200000Y-61000000D03*
X137200000Y-60500000D03*
X137200000Y-60000000D03*
X137200000Y-59500000D03*
X137200000Y-59000000D03*
X137200000Y-58500000D03*
X137200000Y-58000000D03*
D18*
X135750000Y-56550000D03*
X135250000Y-56550000D03*
X134750000Y-56550000D03*
X134250000Y-56550000D03*
X133750000Y-56550000D03*
X133250000Y-56550000D03*
X132750000Y-56550000D03*
X132250000Y-56550000D03*
X131750000Y-56550000D03*
X131250000Y-56550000D03*
X130750000Y-56550000D03*
X130250000Y-56550000D03*
D17*
X128800000Y-58000000D03*
X128800000Y-58500000D03*
X128800000Y-59000000D03*
X128800000Y-59500000D03*
X128800000Y-60000000D03*
X128800000Y-60500000D03*
X128800000Y-61000000D03*
X128800000Y-61500000D03*
X128800000Y-62000000D03*
X128800000Y-62500000D03*
X128800000Y-63000000D03*
X128800000Y-63500000D03*
D18*
X130250000Y-64950000D03*
X130750000Y-64950000D03*
X131250000Y-64950000D03*
X131750000Y-64950000D03*
X132250000Y-64950000D03*
X132750000Y-64950000D03*
X133250000Y-64950000D03*
X133750000Y-64950000D03*
X134250000Y-64950000D03*
X134750000Y-64950000D03*
X135250000Y-64950000D03*
X135750000Y-64950000D03*
D19*
X131250000Y-34050000D03*
D20*
X130750000Y-34050000D03*
X130250000Y-34050000D03*
X129750000Y-34050000D03*
X129250000Y-34050000D03*
D19*
X128750000Y-34050000D03*
D21*
X128050000Y-34750000D03*
D22*
X128050000Y-35250000D03*
X128050000Y-35750000D03*
X128050000Y-36250000D03*
X128050000Y-36750000D03*
D21*
X128050000Y-37250000D03*
D19*
X128750000Y-37950000D03*
D20*
X129250000Y-37950000D03*
X129750000Y-37950000D03*
X130250000Y-37950000D03*
X130750000Y-37950000D03*
D19*
X131250000Y-37950000D03*
D21*
X131950000Y-37250000D03*
D22*
X131950000Y-36750000D03*
X131950000Y-36250000D03*
X131950000Y-35750000D03*
X131950000Y-35250000D03*
D21*
X131950000Y-34750000D03*
D23*
X130000000Y-36000000D03*
D24*
X120195000Y-52750000D03*
X120195000Y-53250000D03*
X120195000Y-53750000D03*
X120195000Y-54250000D03*
X122805000Y-54250000D03*
X122805000Y-53750000D03*
X122805000Y-53250000D03*
X122805000Y-52750000D03*
D25*
X121500000Y-53500000D03*
D19*
X131250000Y-80050000D03*
D20*
X130750000Y-80050000D03*
X130250000Y-80050000D03*
X129750000Y-80050000D03*
X129250000Y-80050000D03*
D19*
X128750000Y-80050000D03*
D21*
X128050000Y-80750000D03*
D22*
X128050000Y-81250000D03*
X128050000Y-81750000D03*
X128050000Y-82250000D03*
X128050000Y-82750000D03*
D21*
X128050000Y-83250000D03*
D19*
X128750000Y-83950000D03*
D20*
X129250000Y-83950000D03*
X129750000Y-83950000D03*
X130250000Y-83950000D03*
X130750000Y-83950000D03*
D19*
X131250000Y-83950000D03*
D21*
X131950000Y-83250000D03*
D22*
X131950000Y-82750000D03*
X131950000Y-82250000D03*
X131950000Y-81750000D03*
X131950000Y-81250000D03*
D21*
X131950000Y-80750000D03*
D23*
X130000000Y-82000000D03*
D24*
X120195000Y-98750000D03*
X120195000Y-99250000D03*
X120195000Y-99750000D03*
X120195000Y-100250000D03*
X122805000Y-100250000D03*
X122805000Y-99750000D03*
X122805000Y-99250000D03*
X122805000Y-98750000D03*
D25*
X121500000Y-99500000D03*
D26*
X114500000Y-89000000D03*
X114500000Y-79000000D03*
D27*
X114200000Y-74475000D03*
X114200000Y-73825000D03*
X114200000Y-73175000D03*
X114200000Y-72525000D03*
X109800000Y-72525000D03*
X109800000Y-73175000D03*
X109800000Y-73825000D03*
X109800000Y-74475000D03*
D14*
X109550000Y-23000000D03*
X110450000Y-23000000D03*
D27*
X120550000Y-59075000D03*
X120550000Y-59725000D03*
X120550000Y-60375000D03*
X120550000Y-61025000D03*
X120550000Y-61675000D03*
X120550000Y-62325000D03*
X120550000Y-62975000D03*
X120550000Y-63625000D03*
X120550000Y-64275000D03*
X120550000Y-64925000D03*
X126450000Y-64925000D03*
X126450000Y-64275000D03*
X126450000Y-63625000D03*
X126450000Y-62975000D03*
X126450000Y-62325000D03*
X126450000Y-61675000D03*
X126450000Y-61025000D03*
X126450000Y-60375000D03*
X126450000Y-59725000D03*
X126450000Y-59075000D03*
D28*
X100120000Y-94500000D03*
D29*
X95040000Y-94500000D03*
X89960000Y-94500000D03*
D30*
X84880000Y-94500000D03*
D31*
X79000000Y-46250000D03*
X79000000Y-50750000D03*
D32*
X143634000Y-85000000D03*
X158366000Y-85000000D03*
D33*
X86000000Y-26000000D03*
X81000000Y-26000000D03*
D34*
X152274000Y-62580000D03*
D35*
X152274000Y-60040000D03*
X152274000Y-57500000D03*
X152274000Y-52420000D03*
X149226000Y-62580000D03*
X149226000Y-60040000D03*
X149226000Y-57500000D03*
X149226000Y-54960000D03*
X149226000Y-52420000D03*
D26*
X114500000Y-43000000D03*
X114500000Y-33000000D03*
D36*
X90500000Y-78355000D03*
X93040000Y-78355000D03*
X95580000Y-78355000D03*
X90500000Y-85645000D03*
X93040000Y-85645000D03*
X95580000Y-85645000D03*
X85420000Y-78355000D03*
X85420000Y-85645000D03*
D37*
X111501140Y-114599440D03*
X112499360Y-114599440D03*
X113500120Y-114599440D03*
X114500880Y-114599440D03*
X115499100Y-114599440D03*
X116499860Y-114599440D03*
X117500620Y-114599440D03*
X111501140Y-114599440D03*
X112499360Y-114599440D03*
X113500120Y-114599440D03*
X114500880Y-114599440D03*
X115499100Y-114599440D03*
X116499860Y-114599440D03*
X117500620Y-114599440D03*
X108498860Y-114599440D03*
D38*
X98498880Y-114200660D03*
D37*
X99499640Y-114599440D03*
X100500400Y-114599440D03*
X101501160Y-114599440D03*
X102499380Y-114599440D03*
X103500140Y-114599440D03*
X104500900Y-114599440D03*
X105499120Y-114599440D03*
X106499880Y-114599440D03*
X107500640Y-114599440D03*
X98498880Y-114599440D03*
X99499640Y-114599440D03*
X100500400Y-114599440D03*
X101501160Y-114599440D03*
X102499380Y-114599440D03*
X103500140Y-114599440D03*
X104500900Y-114599440D03*
X105499120Y-114599440D03*
X106499880Y-114599440D03*
X107500640Y-114599440D03*
X108498860Y-114599440D03*
X118498840Y-114599440D03*
X119499600Y-114599440D03*
X120500360Y-114599440D03*
X121501120Y-114599440D03*
X122499340Y-114599440D03*
X123500100Y-114599440D03*
X124500860Y-114599440D03*
X125499080Y-114599440D03*
X126499840Y-114599440D03*
X127500600Y-114599440D03*
X128498820Y-114599440D03*
X129499580Y-114599440D03*
X130500340Y-114599440D03*
X131501100Y-114599440D03*
X118498840Y-114599440D03*
X119499600Y-114599440D03*
X120500360Y-114599440D03*
X121501120Y-114599440D03*
X122499340Y-114599440D03*
X123500100Y-114599440D03*
X124500860Y-114599440D03*
X125499080Y-114599440D03*
X126499840Y-114599440D03*
X127500600Y-114599440D03*
X128498820Y-114599440D03*
X129499580Y-114599440D03*
D38*
X130500340Y-114200660D03*
D37*
X131501100Y-114599440D03*
D33*
X82000000Y-87000000D03*
X77000000Y-87000000D03*
X86000000Y-72000000D03*
X81000000Y-72000000D03*
X82000000Y-79000000D03*
X77000000Y-79000000D03*
X117000000Y-95000000D03*
X112000000Y-95000000D03*
X117000000Y-49000000D03*
X112000000Y-49000000D03*
X82000000Y-33000000D03*
X77000000Y-33000000D03*
X82000000Y-41000000D03*
X77000000Y-41000000D03*
D24*
X127200000Y-28500000D03*
X127200000Y-28000000D03*
X127200000Y-27500000D03*
X127200000Y-27000000D03*
X124800000Y-27000000D03*
X124800000Y-27500000D03*
X124800000Y-28000000D03*
X124800000Y-28500000D03*
D39*
X126000000Y-27750000D03*
D40*
X65000000Y-102400000D03*
X65000000Y-100600000D03*
D41*
X111500000Y-97750000D03*
X111500000Y-99250000D03*
D42*
X90950000Y-74500000D03*
X88050000Y-74500000D03*
X90450000Y-89500000D03*
X87550000Y-89500000D03*
D43*
X112250000Y-70500000D03*
X113750000Y-70500000D03*
D44*
X128900000Y-98750000D03*
X135100000Y-98750000D03*
D45*
X124200000Y-97500000D03*
X125300000Y-97500000D03*
X130950000Y-77500000D03*
X132050000Y-77500000D03*
X133850000Y-87000000D03*
X134950000Y-87000000D03*
D46*
X134500000Y-83450000D03*
X134500000Y-84550000D03*
D47*
X138500000Y-94100000D03*
X138500000Y-87900000D03*
D45*
X125300000Y-101500000D03*
X124200000Y-101500000D03*
X134800000Y-79750000D03*
X133700000Y-79750000D03*
D46*
X128000000Y-87050000D03*
X128000000Y-85950000D03*
D45*
X125200000Y-79250000D03*
X126300000Y-79250000D03*
D43*
X107250000Y-75250000D03*
X105750000Y-75250000D03*
D41*
X116250000Y-74000000D03*
X116250000Y-72500000D03*
D48*
X141050000Y-64500000D03*
X143950000Y-64500000D03*
D41*
X118750000Y-66750000D03*
X118750000Y-65250000D03*
D49*
X98950000Y-55500000D03*
X98050000Y-55500000D03*
X98950000Y-63500000D03*
X98050000Y-63500000D03*
D43*
X110250000Y-63750000D03*
X108750000Y-63750000D03*
D50*
X115250000Y-62700000D03*
X115250000Y-59800000D03*
D41*
X112000000Y-62000000D03*
X112000000Y-60500000D03*
X100250000Y-62000000D03*
X100250000Y-60500000D03*
D50*
X79750000Y-63700000D03*
X79750000Y-60800000D03*
D41*
X105750000Y-58750000D03*
X105750000Y-57250000D03*
X94000000Y-58750000D03*
X94000000Y-57250000D03*
D28*
X158000000Y-97000000D03*
D26*
X158000000Y-99000000D03*
D28*
X158000000Y-71000000D03*
D26*
X158000000Y-73000000D03*
D43*
X143250000Y-30500000D03*
X144750000Y-30500000D03*
D28*
X146500000Y-41500000D03*
D26*
X146500000Y-43500000D03*
D40*
X140250000Y-71150000D03*
X140250000Y-69350000D03*
D51*
X136100000Y-69000000D03*
X137900000Y-69000000D03*
D43*
X144750000Y-28500000D03*
X143250000Y-28500000D03*
D28*
X139000000Y-29500000D03*
D26*
X139000000Y-31500000D03*
D40*
X65000000Y-56400000D03*
X65000000Y-54600000D03*
D41*
X111500000Y-51750000D03*
X111500000Y-53250000D03*
D42*
X90950000Y-28500000D03*
X88050000Y-28500000D03*
X90450000Y-43500000D03*
X87550000Y-43500000D03*
D43*
X112250000Y-24500000D03*
X113750000Y-24500000D03*
D44*
X129000000Y-52750000D03*
X135200000Y-52750000D03*
D45*
X124200000Y-51500000D03*
X125300000Y-51500000D03*
X130950000Y-31500000D03*
X132050000Y-31500000D03*
X133950000Y-40750000D03*
X135050000Y-40750000D03*
D46*
X134500000Y-37450000D03*
X134500000Y-38550000D03*
D45*
X125300000Y-55500000D03*
X124200000Y-55500000D03*
X134800000Y-33750000D03*
X133700000Y-33750000D03*
D46*
X128000000Y-41050000D03*
X128000000Y-39950000D03*
D45*
X125200000Y-33250000D03*
X126300000Y-33250000D03*
D43*
X107250000Y-29250000D03*
X105750000Y-29250000D03*
X117500000Y-26250000D03*
X116000000Y-26250000D03*
D52*
X111800000Y-101100000D03*
X111800000Y-102400000D03*
X113700000Y-101750000D03*
X113950000Y-69150000D03*
X113950000Y-67850000D03*
X112050000Y-68500000D03*
D53*
X132850000Y-74900000D03*
X134150000Y-74900000D03*
X133500000Y-73000000D03*
D54*
X148700000Y-72000000D03*
X153000000Y-72000000D03*
D52*
X111800000Y-55350000D03*
X111800000Y-56650000D03*
X113700000Y-56000000D03*
X113950000Y-23150000D03*
X113950000Y-21850000D03*
X112050000Y-22500000D03*
X118150000Y-29650000D03*
X118150000Y-28350000D03*
X116250000Y-29000000D03*
D55*
X75600000Y-73500000D03*
X71400000Y-73500000D03*
D56*
X107500000Y-105500000D03*
X107500000Y-108500000D03*
X157500000Y-32500000D03*
X157500000Y-35500000D03*
D57*
X159500000Y-20000000D03*
X156500000Y-20000000D03*
D31*
X79000000Y-92250000D03*
X79000000Y-96750000D03*
D26*
X75000000Y-46000000D03*
X75000000Y-48540000D03*
D58*
X69920000Y-40920000D03*
X69920000Y-51080000D03*
D26*
X75000000Y-92000000D03*
X75000000Y-94540000D03*
D58*
X69920000Y-86920000D03*
X69920000Y-97080000D03*
D34*
X157500000Y-30310000D03*
D35*
X157500000Y-27770000D03*
X157500000Y-25230000D03*
X157500000Y-22690000D03*
D28*
X107000000Y-95120000D03*
D59*
X107000000Y-90040000D03*
X107000000Y-84960000D03*
D30*
X107000000Y-79880000D03*
D28*
X107000000Y-49120000D03*
D59*
X107000000Y-44040000D03*
X107000000Y-38960000D03*
D30*
X107000000Y-33880000D03*
D36*
X90500000Y-32355000D03*
X93040000Y-32355000D03*
X95580000Y-32355000D03*
X90500000Y-39645000D03*
X93040000Y-39645000D03*
X95580000Y-39645000D03*
X85420000Y-32355000D03*
X85420000Y-39645000D03*
D28*
X100120000Y-48500000D03*
D29*
X95040000Y-48500000D03*
X89960000Y-48500000D03*
D30*
X84880000Y-48500000D03*
D60*
X70800000Y-61055000D03*
X70800000Y-62325000D03*
X70800000Y-63595000D03*
X70800000Y-64865000D03*
X70800000Y-66135000D03*
X70800000Y-67405000D03*
X70800000Y-68675000D03*
X70800000Y-69945000D03*
X76200000Y-69945000D03*
X76200000Y-68675000D03*
X76200000Y-67405000D03*
X76200000Y-66135000D03*
X76200000Y-64865000D03*
X76200000Y-63595000D03*
X76200000Y-62325000D03*
X76200000Y-61055000D03*
D61*
X113250000Y-99500000D03*
X114750000Y-99500000D03*
X99750000Y-71750000D03*
X98250000Y-71750000D03*
X118250000Y-99500000D03*
X116750000Y-99500000D03*
D14*
X94050000Y-89500000D03*
X94950000Y-89500000D03*
D62*
X95000000Y-74500000D03*
X93000000Y-74500000D03*
X98750000Y-74500000D03*
X96750000Y-74500000D03*
D63*
X101000000Y-78000000D03*
X101000000Y-76000000D03*
D64*
X115500000Y-101250000D03*
X115500000Y-102750000D03*
X117500000Y-101250000D03*
X117500000Y-102750000D03*
D56*
X81000000Y-103000000D03*
X81000000Y-100000000D03*
X78000000Y-103000000D03*
X78000000Y-100000000D03*
X75000000Y-103000000D03*
X75000000Y-100000000D03*
X72000000Y-103000000D03*
X72000000Y-100000000D03*
D14*
X110250000Y-102200000D03*
X110250000Y-101300000D03*
X129250000Y-74800000D03*
X129250000Y-75700000D03*
X129250000Y-72550000D03*
X129250000Y-73450000D03*
X119250000Y-95250000D03*
X119250000Y-94350000D03*
X129250000Y-77300000D03*
X129250000Y-78200000D03*
X130300000Y-86500000D03*
X131200000Y-86500000D03*
X131200000Y-85400000D03*
X130300000Y-85400000D03*
X119250000Y-91700000D03*
X119250000Y-90800000D03*
X136050000Y-82000000D03*
X136950000Y-82000000D03*
X134700000Y-82000000D03*
X133800000Y-82000000D03*
X122750000Y-74800000D03*
X122750000Y-75700000D03*
X122750000Y-72550000D03*
X122750000Y-73450000D03*
X108000000Y-68800000D03*
X108000000Y-69700000D03*
X110450000Y-70500000D03*
X109550000Y-70500000D03*
X109550000Y-69000000D03*
X110450000Y-69000000D03*
X94950000Y-54000000D03*
X94050000Y-54000000D03*
X98950000Y-54000000D03*
X98050000Y-54000000D03*
X94950000Y-65000000D03*
X94050000Y-65000000D03*
X98950000Y-65000000D03*
X98050000Y-65000000D03*
X94950000Y-55500000D03*
X94050000Y-55500000D03*
X94950000Y-63500000D03*
X94050000Y-63500000D03*
X93300000Y-60500000D03*
X94200000Y-60500000D03*
X93300000Y-62000000D03*
X94200000Y-62000000D03*
X109050000Y-55250000D03*
X109950000Y-55250000D03*
X109050000Y-65250000D03*
X109950000Y-65250000D03*
X106300000Y-63750000D03*
X107200000Y-63750000D03*
X106300000Y-65250000D03*
X107200000Y-65250000D03*
D61*
X150750000Y-96000000D03*
X149250000Y-96000000D03*
X147500000Y-96000000D03*
X146000000Y-96000000D03*
X113250000Y-53500000D03*
X114750000Y-53500000D03*
X100000000Y-25500000D03*
X98500000Y-25500000D03*
X118250000Y-53500000D03*
X116750000Y-53500000D03*
D14*
X94050000Y-43500000D03*
X94950000Y-43500000D03*
D62*
X95000000Y-28500000D03*
X93000000Y-28500000D03*
X98750000Y-28500000D03*
X96750000Y-28500000D03*
D63*
X101250000Y-31250000D03*
X101250000Y-29250000D03*
D64*
X115500000Y-55250000D03*
X115500000Y-56750000D03*
X117500000Y-55250000D03*
X117500000Y-56750000D03*
D56*
X78000000Y-57000000D03*
X78000000Y-54000000D03*
X75000000Y-57000000D03*
X75000000Y-54000000D03*
X72000000Y-57000000D03*
X72000000Y-54000000D03*
X81000000Y-57000000D03*
X81000000Y-54000000D03*
D14*
X112000000Y-58050000D03*
X112000000Y-58950000D03*
X129250000Y-28800000D03*
X129250000Y-29700000D03*
X129250000Y-26550000D03*
X129250000Y-27450000D03*
X120450000Y-50250000D03*
X119550000Y-50250000D03*
X129250000Y-31300000D03*
X129250000Y-32200000D03*
X130550000Y-40500000D03*
X131450000Y-40500000D03*
X131450000Y-39400000D03*
X130550000Y-39400000D03*
X119250000Y-45200000D03*
X119250000Y-44300000D03*
X136050000Y-36000000D03*
X136950000Y-36000000D03*
X134700000Y-36000000D03*
X133800000Y-36000000D03*
X122750000Y-28800000D03*
X122750000Y-29700000D03*
X122750000Y-26550000D03*
X122750000Y-27450000D03*
X110450000Y-21500000D03*
X109550000Y-21500000D03*
X110450000Y-24500000D03*
X109550000Y-24500000D03*
D65*
X67550000Y-102600000D03*
X69450000Y-102600000D03*
D66*
X68500000Y-100400000D03*
D67*
X121050000Y-90795000D03*
X121050000Y-91425000D03*
X121050000Y-92055000D03*
X121050000Y-92685000D03*
X121050000Y-93315000D03*
X121050000Y-93945000D03*
X121050000Y-94575000D03*
X121050000Y-95205000D03*
X126450000Y-95205000D03*
X126450000Y-94575000D03*
X126450000Y-93945000D03*
X126450000Y-93315000D03*
X126450000Y-92685000D03*
X126450000Y-92055000D03*
X126450000Y-91425000D03*
X126450000Y-90795000D03*
D68*
X128795000Y-94950000D03*
X129425000Y-94950000D03*
X130055000Y-94950000D03*
X130685000Y-94950000D03*
X131315000Y-94950000D03*
X131945000Y-94950000D03*
X132575000Y-94950000D03*
X133205000Y-94950000D03*
X133205000Y-89550000D03*
X132575000Y-89550000D03*
X131945000Y-89550000D03*
X131315000Y-89550000D03*
X130685000Y-89550000D03*
X130055000Y-89550000D03*
X129425000Y-89550000D03*
X128795000Y-89550000D03*
X121045000Y-87450000D03*
X121675000Y-87450000D03*
X122305000Y-87450000D03*
X122935000Y-87450000D03*
X123565000Y-87450000D03*
X124195000Y-87450000D03*
X124825000Y-87450000D03*
X125455000Y-87450000D03*
X125455000Y-82050000D03*
X124825000Y-82050000D03*
X124195000Y-82050000D03*
X123565000Y-82050000D03*
X122935000Y-82050000D03*
X122305000Y-82050000D03*
X121675000Y-82050000D03*
X121045000Y-82050000D03*
D24*
X127200000Y-74500000D03*
X127200000Y-74000000D03*
X127200000Y-73500000D03*
X127200000Y-73000000D03*
X124800000Y-73000000D03*
X124800000Y-73500000D03*
X124800000Y-74000000D03*
X124800000Y-74500000D03*
D39*
X126000000Y-73750000D03*
D69*
X109725000Y-57300000D03*
X109075000Y-57300000D03*
X108425000Y-57300000D03*
X107775000Y-57300000D03*
X107775000Y-61700000D03*
X108425000Y-61700000D03*
X109075000Y-61700000D03*
X109725000Y-61700000D03*
X97975000Y-57300000D03*
X97325000Y-57300000D03*
X96675000Y-57300000D03*
X96025000Y-57300000D03*
X96025000Y-61700000D03*
X96675000Y-61700000D03*
X97325000Y-61700000D03*
X97975000Y-61700000D03*
D27*
X114200000Y-28475000D03*
X114200000Y-27825000D03*
X114200000Y-27175000D03*
X114200000Y-26525000D03*
X109800000Y-26525000D03*
X109800000Y-27175000D03*
X109800000Y-27825000D03*
X109800000Y-28475000D03*
D70*
X148460000Y-92050000D03*
X153540000Y-92050000D03*
D71*
X151000000Y-81000000D03*
D72*
X143900000Y-33200000D03*
X143900000Y-37800000D03*
D73*
X150800000Y-35500000D03*
D72*
X143900000Y-21200000D03*
X143900000Y-25800000D03*
D73*
X150800000Y-23500000D03*
D65*
X67550000Y-56600000D03*
X69450000Y-56600000D03*
D66*
X68500000Y-54400000D03*
D67*
X121050000Y-44795000D03*
X121050000Y-45425000D03*
X121050000Y-46055000D03*
X121050000Y-46685000D03*
X121050000Y-47315000D03*
X121050000Y-47945000D03*
X121050000Y-48575000D03*
X121050000Y-49205000D03*
X126450000Y-49205000D03*
X126450000Y-48575000D03*
X126450000Y-47945000D03*
X126450000Y-47315000D03*
X126450000Y-46685000D03*
X126450000Y-46055000D03*
X126450000Y-45425000D03*
X126450000Y-44795000D03*
D68*
X128795000Y-48950000D03*
X129425000Y-48950000D03*
X130055000Y-48950000D03*
X130685000Y-48950000D03*
X131315000Y-48950000D03*
X131945000Y-48950000D03*
X132575000Y-48950000D03*
X133205000Y-48950000D03*
X133205000Y-43550000D03*
X132575000Y-43550000D03*
X131945000Y-43550000D03*
X131315000Y-43550000D03*
X130685000Y-43550000D03*
X130055000Y-43550000D03*
X129425000Y-43550000D03*
X128795000Y-43550000D03*
X121045000Y-41450000D03*
X121675000Y-41450000D03*
X122305000Y-41450000D03*
X122935000Y-41450000D03*
X123565000Y-41450000D03*
X124195000Y-41450000D03*
X124825000Y-41450000D03*
X125455000Y-41450000D03*
X125455000Y-36050000D03*
X124825000Y-36050000D03*
X124195000Y-36050000D03*
X123565000Y-36050000D03*
X122935000Y-36050000D03*
X122305000Y-36050000D03*
X121675000Y-36050000D03*
X121045000Y-36050000D03*
D41*
X126750000Y-68250000D03*
X126750000Y-66750000D03*
D14*
X128300000Y-25000000D03*
X129200000Y-25000000D03*
X123700000Y-25000000D03*
X122800000Y-25000000D03*
X128300000Y-71000000D03*
X129200000Y-71000000D03*
X123700000Y-71000000D03*
X122800000Y-71000000D03*
D74*
X158160000Y-105000000D03*
X137840000Y-105000000D03*
D75*
X140000000Y-52000000D03*
X100500000Y-55500000D03*
X98500000Y-69000000D03*
D76*
X63600840Y-61000000D03*
X65399160Y-61000000D03*
X63600840Y-62500000D03*
X65399160Y-62500000D03*
X63600840Y-64000000D03*
X65399160Y-64000000D03*
X63600840Y-65500000D03*
X65399160Y-65500000D03*
X63600840Y-67000000D03*
X65399160Y-67000000D03*
X63600840Y-68500000D03*
X65399160Y-68500000D03*
D14*
X68450000Y-61000000D03*
X67550000Y-61000000D03*
X68450000Y-62500000D03*
X67550000Y-62500000D03*
X68450000Y-64000000D03*
X67550000Y-64000000D03*
X68450000Y-65500000D03*
X67550000Y-65500000D03*
X68450000Y-67000000D03*
X67550000Y-67000000D03*
X68450000Y-68500000D03*
X67550000Y-68500000D03*
D76*
X144149160Y-48000000D03*
X142350840Y-48000000D03*
X144149160Y-46500000D03*
X142350840Y-46500000D03*
X144149160Y-49500000D03*
X142350840Y-49500000D03*
X129399160Y-104000000D03*
X127600840Y-104000000D03*
X129399160Y-107000000D03*
X127600840Y-107000000D03*
X129399160Y-105500000D03*
X127600840Y-105500000D03*
D14*
X139600000Y-48000000D03*
X140500000Y-48000000D03*
X139550000Y-46500000D03*
X140450000Y-46500000D03*
X139550000Y-49500000D03*
X140450000Y-49500000D03*
X124850000Y-104000000D03*
X125750000Y-104000000D03*
X124850000Y-107000000D03*
X125750000Y-107000000D03*
X124800000Y-105500000D03*
X125700000Y-105500000D03*
D77*
X132400000Y-87450000D03*
X132400000Y-86550000D03*
X132700000Y-41450000D03*
X132700000Y-40550000D03*
D14*
X130300000Y-87600000D03*
X131200000Y-87600000D03*
X130550000Y-41600000D03*
X131450000Y-41600000D03*
D77*
X137500000Y-79750000D03*
X137500000Y-80650000D03*
X137500000Y-33750000D03*
X137500000Y-34650000D03*
D14*
X136400000Y-80650000D03*
X136400000Y-79750000D03*
X136400000Y-34650000D03*
X136400000Y-33750000D03*
D51*
X145800000Y-70500000D03*
X144000000Y-70500000D03*
X148900000Y-29500000D03*
X147100000Y-29500000D03*
D14*
X140450000Y-43500000D03*
X139550000Y-43500000D03*
X140450000Y-45000000D03*
X139550000Y-45000000D03*
X137700000Y-43500000D03*
X136800000Y-43500000D03*
X137700000Y-45000000D03*
X136800000Y-45000000D03*
D65*
X145950000Y-72650000D03*
X144050000Y-72650000D03*
D66*
X145000000Y-74850000D03*
D78*
X151400000Y-28550000D03*
X151400000Y-30450000D03*
D79*
X153600000Y-29500000D03*
D28*
X157000000Y-41749940D03*
D26*
X157000000Y-45250060D03*
D28*
X137500000Y-21249940D03*
D26*
X137500000Y-24750060D03*
D61*
X138000000Y-73000000D03*
X136500000Y-73000000D03*
D80*
X137925000Y-71500000D03*
X137925000Y-71000000D03*
X137925000Y-70500000D03*
X136075000Y-70500000D03*
X136075000Y-71000000D03*
X136075000Y-71500000D03*
D16*
X120750000Y-67150000D03*
X120750000Y-68850000D03*
X141250000Y-59150000D03*
X141250000Y-60850000D03*
D81*
X114500000Y-39300000D03*
X114500000Y-35000000D03*
X114500000Y-85300000D03*
X114500000Y-81000000D03*
D75*
X67000000Y-77500000D03*
X67000000Y-79500000D03*
X133000000Y-69500000D03*
D82*
X143500000Y-60400000D03*
X143500000Y-59500000D03*
X123000000Y-67950000D03*
X123000000Y-67050000D03*
D77*
X127250000Y-56950000D03*
X127250000Y-56050000D03*
X139000000Y-59300000D03*
X139000000Y-60200000D03*
D82*
X103500000Y-106950000D03*
X103500000Y-106050000D03*
X102000000Y-106950000D03*
X102000000Y-106050000D03*
D14*
X105000000Y-106050000D03*
X105000000Y-106950000D03*
X102000000Y-103050000D03*
X102000000Y-103950000D03*
X103500000Y-103050000D03*
X103500000Y-103950000D03*
X130750000Y-27800000D03*
X130750000Y-28700000D03*
X121250000Y-27600000D03*
X121250000Y-28500000D03*
X130750000Y-73600000D03*
X130750000Y-74500000D03*
X121250000Y-73550000D03*
X121250000Y-74450000D03*
X105050000Y-60000000D03*
X105950000Y-60000000D03*
X104000000Y-62200000D03*
X104000000Y-61300000D03*
X102000000Y-58950000D03*
X102000000Y-58050000D03*
X102000000Y-55500000D03*
X102000000Y-56400000D03*
X104000000Y-64700000D03*
X104000000Y-63800000D03*
X125000000Y-67900000D03*
X125000000Y-67000000D03*
X143300000Y-52500000D03*
X144200000Y-52500000D03*
X143300000Y-57500000D03*
X144200000Y-57500000D03*
D16*
X103500000Y-57650000D03*
X103500000Y-59350000D03*
D15*
X117895000Y-69250000D03*
X130725000Y-68250000D03*
D13*
X95990000Y-71750000D03*
X93010000Y-71750000D03*
D83*
G36*
X132123000Y-118373000D02*
X97877000Y-118373000D01*
X97877000Y-112627000D01*
X132123000Y-112627000D01*
X132123000Y-118373000D01*
X132123000Y-118373000D01*
G37*
X132123000Y-118373000D02*
X97877000Y-118373000D01*
X97877000Y-112627000D01*
X132123000Y-112627000D01*
X132123000Y-118373000D01*
G36*
X84873000Y-21373000D02*
X76377000Y-21373000D01*
X76377000Y-18627000D01*
X84873000Y-18627000D01*
X84873000Y-21373000D01*
X84873000Y-21373000D01*
G37*
X84873000Y-21373000D02*
X76377000Y-21373000D01*
X76377000Y-18627000D01*
X84873000Y-18627000D01*
X84873000Y-21373000D01*
D84*
G36*
X73875000Y-34875000D02*
X63125000Y-34875000D01*
X63125000Y-19125000D01*
X73875000Y-19125000D01*
X73875000Y-34875000D01*
X73875000Y-34875000D01*
G37*
X73875000Y-34875000D02*
X63125000Y-34875000D01*
X63125000Y-19125000D01*
X73875000Y-19125000D01*
X73875000Y-34875000D01*
M02*
