M48
;DRILL file {KiCad (after 2015-may-01 BZR unknown)-product} date Sat 23 May 2015 10:21:06 PM EDT
;FORMAT={-:-/ absolute / inch / decimal}
FMAT,2
INCH,TZ
T1C0.012
T2C0.028
T3C0.031
T4C0.035
T5C0.039
T6C0.090
%
G90
G05
M72
T1
X2.5Y-2.4311
X2.5Y-2.5492
X2.5Y-2.6673
X2.5591Y-2.2638
X2.5591Y-3.008
X2.5591Y-4.0748
X2.5984Y-3.0906
X2.6476Y-2.7362
X2.7264Y-2.7854
X2.7264Y-2.7854
X2.7559Y-1.7323
X2.7559Y-1.811
X2.7559Y-1.8898
X2.7559Y-2.7854
X2.7559Y-2.7854
X2.7559Y-3.5433
X2.7559Y-3.622
X2.7559Y-3.7008
X2.7854Y-2.7854
X2.7854Y-2.7854
X2.815Y-2.7854
X2.815Y-2.7854
X2.8346Y-2.4016
X2.8346Y-2.4508
X2.8346Y-2.5
X2.8346Y-2.5492
X2.8346Y-2.6083
X2.8346Y-2.6575
X2.8445Y-2.7854
X2.8445Y-2.7854
X2.874Y-2.7854
X2.874Y-2.7854
X2.874Y-2.9823
X2.8937Y-1.9094
X2.8937Y-2.687
X2.8937Y-3.7205
X2.9047Y-2.9823
X2.9134Y-1.9488
X2.9134Y-3.7598
X2.9528Y-1.9685
X2.9528Y-3.7795
X2.9626Y-2.3917
X2.9626Y-2.4409
X2.9626Y-2.4902
X3.0315Y-1.25
X3.0315Y-1.3484
X3.0315Y-1.565
X3.0315Y-1.6634
X3.0315Y-3.061
X3.0315Y-3.1594
X3.0315Y-3.376
X3.0413Y-3.4744
X3.061Y-2.728
X3.1102Y-2.3327
X3.1102Y-2.4606
X3.1102Y-2.4606
X3.1398Y-2.3327
X3.1398Y-2.4606
X3.1398Y-2.4606
X3.1693Y-2.3327
X3.1693Y-2.4606
X3.1693Y-2.4606
X3.189Y-0.9744
X3.189Y-1.0728
X3.189Y-2.7854
X3.189Y-2.8839
X3.3563Y-1.3583
X3.3563Y-1.4764
X3.3563Y-3.1791
X3.3563Y-3.2874
X3.6063Y-3.2047
X3.6122Y-1.3976
X3.6122Y-1.4764
X3.6122Y-3.2874
X3.6614Y-2.126
X3.6614Y-2.185
X3.6614Y-2.5
X3.6614Y-2.5394
X3.6713Y-2.4073
X3.7008Y-1.9685
X3.7205Y-0.9252
X3.7205Y-0.9252
X3.7205Y-2.7461
X3.7205Y-2.7461
X3.7402Y-1.8417
X3.7402Y-2.313
X3.7402Y-3.6528
X3.7402Y-3.7894
X3.7795Y-2.3031
X3.8189Y-1.6043
X3.8189Y-1.6043
X3.8189Y-3.4055
X3.8189Y-3.4055
X3.8583Y-1.5748
X3.8583Y-1.5748
X3.8583Y-3.376
X3.8583Y-3.376
X3.8878Y-2.4205
X3.9075Y-4.2323
X3.9075Y-4.2323
X3.9173Y-2.7461
X3.9173Y-4.3701
X3.9173Y-4.4094
X3.937Y-2.126
X3.9469Y-2.3384
X3.9469Y-2.7559
X3.9567Y-4.3701
X3.9567Y-4.4094
X3.9764Y-2.7756
X3.9862Y-2.4073
X3.9961Y-4.3701
X3.9961Y-4.3701
X3.9961Y-4.4094
X3.9961Y-4.4094
X4.0157Y-2.1555
X4.0157Y-2.3524
X4.0157Y-4.1437
X4.0256Y-2.0965
X4.0748Y-4.1437
X4.1043Y-3.5433
X4.1142Y-1.7323
X4.1142Y-2.3384
X4.1156Y-4.3307
X4.1156Y-4.3701
X4.1156Y-4.3307
X4.1156Y-4.3701
X4.1202Y-2.5366
X4.124Y-1.1516
X4.124Y-1.1516
X4.124Y-2.2793
X4.124Y-2.2793
X4.124Y-2.4902
X4.1339Y-2.9626
X4.1339Y-2.9626
X4.1437Y-1.7323
X4.1437Y-3.5433
X4.1535Y-4.3307
X4.2028Y-2.1752
X4.2028Y-4.0945
X4.2102Y-2.4681
X4.2102Y-2.4681
X4.2323Y-4.0945
X4.2389Y-2.3033
X4.2421Y-2.1524
X4.2421Y-4.3504
X4.2567Y-1.998
X4.2618Y-4.0945
X4.2696Y-2.3011
X4.2769Y-3.8189
X4.311Y-2.3594
X4.3209Y-1.1516
X4.3504Y-2.4311
X4.3659Y-3.9862
X4.3659Y-3.9862
X4.3701Y-2.4016
X4.3701Y-2.4016
X4.3799Y-2.5366
X4.3996Y-4.1043
X4.4291Y-4.0945
X4.4291Y-4.3701
X4.4291Y-4.3701
X4.4291Y-4.4094
X4.4291Y-4.4094
X4.4323Y-2.2048
X4.439Y-2.2638
X4.439Y-2.2638
X4.4488Y-1.7306
X4.4587Y-2.4142
X4.4587Y-2.4409
X4.4587Y-2.4705
X4.4587Y-2.9626
X4.4587Y-4.0846
X4.4685Y-3.563
X4.4882Y-2.9626
X4.5079Y-0.9646
X4.5079Y-0.9646
X4.5079Y-2.4114
X4.5079Y-2.4114
X4.5079Y-2.7756
X4.5079Y-2.7756
X4.5079Y-4.3701
X4.5079Y-4.3701
X4.5079Y-4.4094
X4.5079Y-4.4094
X4.5374Y-2.4114
X4.5374Y-2.4114
X4.5472Y-2.2638
X4.5472Y-4.3701
X4.5472Y-4.3701
X4.5472Y-4.4094
X4.5472Y-4.4094
X4.5571Y-0.9154
X4.5571Y-2.7362
X4.5669Y-1.0728
X4.5669Y-2.4114
X4.5669Y-2.4114
X4.6063Y-0.9154
X4.6063Y-0.9154
X4.6161Y-0.9646
X4.6161Y-2.8543
X4.6161Y-2.9134
X4.6161Y-2.9134
X4.626Y-2.2638
X4.626Y-4.3701
X4.626Y-4.3701
X4.626Y-4.4094
X4.626Y-4.4094
X4.6268Y-2.7149
X4.6268Y-2.7149
X4.6457Y-2.4016
X4.6457Y-2.4409
X4.6457Y-2.9035
X4.6555Y-1.0138
X4.6555Y-1.0138
X4.6555Y-2.2835
X4.6654Y-3.4646
X4.6684Y-2.3806
X4.6711Y-3.8091
X4.6764Y-2.9035
X4.6773Y-2.6652
X4.6949Y-3.5475
X4.6977Y-2.3713
X4.7047Y-2.313
X4.7047Y-2.7559
X4.7047Y-2.9626
X4.7047Y-4.3701
X4.7047Y-4.3701
X4.7047Y-4.4094
X4.7047Y-4.4094
X4.7238Y-1.9187
X4.7244Y-1.7421
X4.7247Y-1.8112
X4.7343Y-2.9724
X4.7441Y-3.5236
X4.7441Y-4.3701
X4.7441Y-4.3701
X4.7441Y-4.4094
X4.7441Y-4.4094
X4.7519Y-1.2479
X4.7528Y-4.1051
X4.7539Y-2.7559
X4.7638Y-1.5453
X4.7638Y-1.6831
X4.7638Y-2.9823
X4.7677Y-2.0906
X4.7677Y-2.122
X4.7677Y-3.9016
X4.7677Y-3.9331
X4.7835Y-2.1063
X4.7835Y-3.9173
X4.7835Y-4.1051
X4.7835Y-4.3701
X4.7835Y-4.3701
X4.7835Y-4.4094
X4.7835Y-4.4094
X4.7921Y-2.6033
X4.7921Y-2.7067
X4.7933Y-1.4665
X4.7933Y-2.2835
X4.7933Y-3.189
X4.7992Y-2.0906
X4.7992Y-2.122
X4.7992Y-3.9016
X4.7992Y-3.9331
X4.8025Y-1.1817
X4.8025Y-1.1817
X4.8031Y-3.7795
X4.813Y-1.7618
X4.813Y-1.8295
X4.813Y-1.8295
X4.813Y-1.8909
X4.813Y-1.8909
X4.813Y-2.0276
X4.813Y-3.2677
X4.813Y-3.2677
X4.813Y-3.4843
X4.813Y-3.65
X4.813Y-3.7008
X4.813Y-3.7008
X4.813Y-3.7315
X4.8157Y-1.5861
X4.8228Y-3.5728
X4.8228Y-3.6122
X4.8228Y-4.3701
X4.8228Y-4.3701
X4.8228Y-4.4094
X4.8228Y-4.4094
X4.824Y-1.4665
X4.824Y-1.4665
X4.8327Y-3.002
X4.8334Y-1.1972
X4.8334Y-1.1972
X4.8425Y-3.4055
X4.8425Y-3.4055
X4.8425Y-0.8169
X4.8425Y-0.8169
X4.8425Y-0.8465
X4.8425Y-0.8465
X4.8427Y-1.6731
X4.8427Y-1.6731
X4.8503Y-1.4724
X4.8503Y-1.4724
X4.854Y-1.9953
X4.8611Y-3.1812
X4.8622Y-0.9449
X4.8622Y-2.7559
X4.8622Y-4.3701
X4.8622Y-4.3701
X4.8622Y-4.4094
X4.8622Y-4.4094
X4.8691Y-3.2702
X4.8691Y-3.2702
X4.8701Y-1.113
X4.872Y-2.8921
X4.872Y-2.0965
X4.872Y-3.3506
X4.872Y-4.0805
X4.8722Y-2.9228
X4.8811Y-1.4714
X4.8819Y-0.8169
X4.8819Y-0.8169
X4.8819Y-0.8465
X4.8819Y-0.8465
X4.8819Y-1.0827
X4.8819Y-2.4902
X4.8819Y-2.6575
X4.8819Y-2.6575
X4.8819Y-3.9075
X4.8821Y-2.628
X4.8821Y-2.628
X4.8916Y-3.405
X4.8916Y-3.405
X4.8917Y-1.2795
X4.8917Y-1.2795
X4.8917Y-1.3091
X4.8917Y-1.3091
X4.8917Y-1.3386
X4.8917Y-1.3386
X4.8917Y-1.6732
X4.8917Y-1.6732
X4.8917Y-2.2343
X4.8917Y-2.4606
X4.8917Y-3.7795
X4.8917Y-4.0551
X4.8941Y-2.5185
X4.9016Y-0.9988
X4.9016Y-0.9988
X4.9016Y-2.8051
X4.9016Y-2.8051
X4.9016Y-3.1201
X4.9016Y-3.1201
X4.9016Y-4.3701
X4.9016Y-4.3701
X4.9016Y-4.4094
X4.9016Y-4.4094
X4.9021Y-3.149
X4.9021Y-3.149
X4.9024Y-3.0914
X4.9024Y-3.0914
X4.9114Y-1.4665
X4.9114Y-1.5256
X4.9114Y-1.5846
X4.9114Y-3.2734
X4.9114Y-3.4843
X4.9267Y-2.4736
X4.9298Y-2.8064
X4.9298Y-2.8064
X4.9299Y-3.7306
X4.93Y-1.8704
X4.9302Y-3.6906
X4.9311Y-0.9988
X4.9311Y-0.9988
X4.9311Y-1.7618
X4.9311Y-1.7618
X4.9311Y-1.811
X4.9311Y-1.811
X4.9311Y-1.8374
X4.9311Y-1.8374
X4.9311Y-1.9291
X4.9311Y-1.9291
X4.9311Y-3.5728
X4.9311Y-3.5728
X4.9311Y-3.622
X4.9311Y-3.622
X4.9311Y-3.6516
X4.9311Y-3.6516
X4.9409Y-1.6732
X4.9409Y-1.6732
X4.9409Y-1.7126
X4.9409Y-3.4055
X4.9409Y-3.4055
X4.9409Y-4.3701
X4.9409Y-4.3701
X4.9409Y-4.4094
X4.9409Y-4.4094
X4.9606Y-1.5157
X4.9606Y-1.998
X4.9606Y-1.998
X4.9606Y-2.0276
X4.9606Y-2.0276
X4.9606Y-2.0571
X4.9606Y-2.0571
X4.9606Y-2.1555
X4.9606Y-2.1555
X4.9606Y-2.185
X4.9606Y-2.185
X4.9606Y-2.2146
X4.9606Y-2.2146
X4.9606Y-3.8091
X4.9606Y-3.8091
X4.9606Y-3.8386
X4.9606Y-3.8386
X4.9606Y-3.8681
X4.9606Y-3.8681
X4.9606Y-3.9665
X4.9606Y-3.9665
X4.9606Y-3.9961
X4.9606Y-3.9961
X4.9606Y-4.0256
X4.9606Y-4.0256
X4.9705Y-3.3169
X4.9705Y-1.25
X4.9705Y-1.3878
X4.9705Y-1.4185
X4.9705Y-3.1693
X4.9705Y-3.5028
X4.9803Y-4.3701
X4.9803Y-4.3701
X4.9803Y-4.4094
X4.9803Y-4.4094
X4.9902Y-2.2933
X4.9902Y-3.2087
X4.9911Y-2.8042
X4.9911Y-2.8042
X4.9936Y-1.0005
X4.9936Y-1.0005
X5.0098Y-1.6437
X5.0098Y-1.6437
X5.0098Y-2.0472
X5.0098Y-2.0768
X5.0098Y-2.1063
X5.0098Y-2.5913
X5.0098Y-3.4547
X5.0098Y-3.4547
X5.0098Y-3.5028
X5.0098Y-3.8583
X5.0098Y-3.8878
X5.0098Y-3.9173
X5.0156Y-1.7126
X5.0197Y-1.8602
X5.0197Y-1.8602
X5.0197Y-3.6713
X5.0197Y-3.6713
X5.0197Y-0.9988
X5.0197Y-0.9988
X5.0197Y-1.5396
X5.0197Y-1.7913
X5.0197Y-2.3031
X5.0197Y-2.3031
X5.0197Y-2.8051
X5.0197Y-2.8051
X5.0197Y-3.3407
X5.0197Y-3.6024
X5.0197Y-3.702
X5.0197Y-4.3701
X5.0197Y-4.3701
X5.0197Y-4.4094
X5.0197Y-4.4094
X5.0232Y-1.8974
X5.0256Y-2.4486
X5.0256Y-2.3939
X5.0295Y-1.8307
X5.0295Y-3.6417
X5.0355Y-3.4549
X5.0355Y-3.4549
X5.0394Y-1.0799
X5.0394Y-1.6437
X5.0394Y-1.6437
X5.0394Y-2.628
X5.0394Y-2.628
X5.0394Y-2.6575
X5.0394Y-2.6575
X5.0492Y-2.9251
X5.0496Y-2.8944
X5.0591Y-0.8169
X5.0591Y-0.8169
X5.0591Y-0.8465
X5.0591Y-0.8465
X5.0591Y-1.11
X5.0591Y-4.3701
X5.0591Y-4.3701
X5.0591Y-4.4094
X5.0591Y-4.4094
X5.0689Y-1.7618
X5.0689Y-2.7559
X5.0787Y-0.9449
X5.0808Y-3.5708
X5.0875Y-1.6711
X5.0886Y-1.3049
X5.0886Y-3.1159
X5.0886Y-4.0551
X5.0984Y-0.8169
X5.0984Y-0.8169
X5.0984Y-0.8465
X5.0984Y-0.8465
X5.0984Y-1.3976
X5.0984Y-1.437
X5.0984Y-2.2244
X5.0984Y-2.628
X5.0984Y-2.628
X5.0984Y-2.6575
X5.0984Y-2.6575
X5.0984Y-3.2087
X5.0984Y-3.248
X5.0984Y-3.4843
X5.1083Y-3.6319
X5.1096Y-2.4213
X5.1181Y-1.4173
X5.1181Y-1.6732
X5.1181Y-1.6732
X5.1181Y-1.9685
X5.1181Y-3.2283
X5.1181Y-3.5728
X5.1181Y-3.5728
X5.1181Y-3.7795
X5.128Y-1.7717
X5.128Y-1.811
X5.128Y-3.6024
X5.134Y-2.4398
X5.1369Y-2.2733
X5.1378Y-1.2106
X5.1378Y-1.3976
X5.1378Y-1.437
X5.1378Y-3.2087
X5.1378Y-3.248
X5.1378Y-4.3701
X5.1378Y-4.3701
X5.1378Y-4.4094
X5.1378Y-4.4094
X5.1407Y-1.8873
X5.1407Y-1.8873
X5.1476Y-2.815
X5.1488Y-3.7795
X5.1575Y-3.6614
X5.1621Y-2.1741
X5.1655Y-2.4533
X5.1662Y-2.2857
X5.1666Y-2.1174
X5.1673Y-1.6732
X5.1673Y-1.6732
X5.1673Y-1.8504
X5.1673Y-3.5728
X5.1673Y-3.5728
X5.1772Y-4.3701
X5.1772Y-4.3701
X5.1772Y-4.4094
X5.1772Y-4.4094
X5.1772Y-2.0866
X5.187Y-3.1201
X5.187Y-3.4055
X5.1871Y-2.4998
X5.188Y-3.7806
X5.188Y-3.7806
X5.1969Y-1.8898
X5.1969Y-1.8898
X5.1969Y-3.4744
X5.198Y-1.6732
X5.2008Y-1.5945
X5.2055Y-2.3183
X5.2079Y-1.1382
X5.2081Y-2.476
X5.211Y-2.2839
X5.2165Y-2.4114
X5.2165Y-3.1508
X5.2187Y-3.7795
X5.2258Y-1.9691
X5.2264Y-1.2106
X5.2264Y-1.2106
X5.2264Y-1.2402
X5.2264Y-1.2402
X5.2264Y-1.2697
X5.2264Y-1.2697
X5.2264Y-1.3189
X5.2264Y-3.0217
X5.2264Y-3.0217
X5.2264Y-3.0512
X5.2264Y-3.0512
X5.2264Y-3.0807
X5.2264Y-3.0807
X5.2299Y-1.3986
X5.2299Y-3.2096
X5.2378Y-2.3004
X5.239Y-2.4723
X5.2396Y-1.8868
X5.2396Y-1.8868
X5.2461Y-1.6634
X5.2461Y-2.4409
X5.2461Y-3.6909
X5.2461Y-3.6909
X5.2481Y-2.3799
X5.2559Y-3.8583
X5.2559Y-3.8583
X5.2559Y-3.8878
X5.2559Y-3.8878
X5.2559Y-3.9173
X5.2559Y-3.9173
X5.2657Y-2.2835
X5.2657Y-2.5984
X5.2664Y-3.3547
X5.2664Y-3.3547
X5.2756Y-3.4843
X5.2846Y-1.7717
X5.2953Y-3.3563
X5.2953Y-3.3563
X5.296Y-1.5437
X5.315Y-4.2323
X5.3248Y-1.2402
X5.3248Y-1.5453
X5.3248Y-2.5984
X5.3248Y-3.3563
X5.3248Y-3.3563
X5.3346Y-1.2992
X5.3346Y-1.2992
X5.3346Y-1.3287
X5.3346Y-1.3287
X5.3346Y-1.3583
X5.3346Y-1.3583
X5.3346Y-3.1102
X5.3346Y-3.1102
X5.3346Y-3.1398
X5.3346Y-3.1398
X5.3346Y-3.1693
X5.3346Y-3.1693
X5.3445Y-1.5748
X5.3445Y-1.6043
X5.3445Y-1.6339
X5.3445Y-2.3917
X5.3445Y-3.3957
X5.3445Y-3.4252
X5.3445Y-3.4547
X5.3456Y-2.3436
X5.3461Y-1.7126
X5.348Y-2.3055
X5.3543Y-1.2402
X5.3543Y-1.4764
X5.3543Y-3.2874
X5.3543Y-4.2323
X5.3642Y-0.8366
X5.3642Y-2.5591
X5.374Y-2.5984
X5.374Y-2.6589
X5.3839Y-2.0472
X5.3839Y-2.0472
X5.3839Y-2.0768
X5.3839Y-2.0768
X5.3839Y-2.1063
X5.3839Y-2.1063
X5.3937Y-4.2323
X5.3965Y-1.998
X5.4035Y-2.5197
X5.4035Y-2.9297
X5.4134Y-1.3878
X5.4134Y-1.4173
X5.4134Y-3.1988
X5.4134Y-3.2283
X5.4232Y-3.5236
X5.4232Y-3.6417
X5.4232Y-3.6417
X5.4331Y-4.2323
X5.4528Y-1.7126
X5.4528Y-1.7717
X5.4528Y-2.5098
X5.4528Y-3.5236
X5.4528Y-3.6417
X5.4528Y-3.6417
X5.4564Y-2.4246
X5.4564Y-2.4246
X5.4626Y-1.8307
X5.4626Y-1.9488
X5.4626Y-2.4803
X5.4626Y-2.9528
X5.4626Y-2.9835
X5.4626Y-2.1386
X5.4724Y-1.1122
X5.4724Y-2.4508
X5.4766Y-2.874
X5.4809Y-2.7641
X5.4823Y-3.5236
X5.4823Y-3.6417
X5.4823Y-3.6417
X5.4921Y-2.9528
X5.4921Y-2.9835
X5.4921Y-2.1161
X5.502Y-1.1122
X5.502Y-2.372
X5.502Y-2.5591
X5.5217Y-2.1949
X5.5217Y-2.6969
X5.5303Y-1.6732
X5.5372Y-2.4409
X5.5372Y-2.5984
X5.561Y-2.0276
X5.572Y-2.2452
X5.5827Y-2.0058
X5.6299Y-2.1063
X5.6299Y-2.2244
X5.6398Y-1.0925
X5.6594Y-2.0177
X5.674Y-2.9035
X5.6791Y-2.1654
X5.7087Y-2.5098
X5.7087Y-2.5394
X5.7087Y-2.5689
X5.7185Y-1.7126
X5.7185Y-1.9488
X5.7191Y-2.7172
X5.7382Y-0.8366
X5.7382Y-1.2008
X5.748Y-3.8189
X5.7498Y-2.7165
X5.8169Y-1.7126
X5.9055Y-2.9134
X5.9449Y-2.9134
X5.9843Y-2.9134
X6.0039Y-1.2008
X6.0236Y-2.9134
X6.0531Y-1.1319
X6.063Y-2.9134
X6.0728Y-2.0669
X6.0728Y-2.2638
X6.0728Y-2.3622
X6.0728Y-2.4606
X6.0827Y-1.3681
X6.0827Y-1.3976
X6.0827Y-1.4272
X6.1024Y-1.0925
X6.1024Y-2.9134
X6.1319Y-1.7815
X6.1713Y-3.8976
X6.1811Y-2.9134
X6.2297Y-1.7821
X6.2697Y-0.9941
X6.2697Y-1.0433
X6.2697Y-1.0925
T2
X4.5079Y-1.2992
X4.5079Y-1.6929
X4.5079Y-3.1102
X4.5079Y-3.5039
X5.5118Y-2.0472
T3
X3.3417Y-1.9094
X3.3417Y-3.7205
X3.5417Y-1.9094
X3.5417Y-3.7205
X3.7417Y-1.9094
X3.7417Y-3.7205
X3.9417Y-1.9094
X3.9417Y-3.7205
X4.2126Y-1.3339
X4.2126Y-1.5339
X4.2126Y-1.7339
X4.2126Y-1.9339
X4.2126Y-3.1449
X4.2126Y-3.3449
X4.2126Y-3.5449
X4.2126Y-3.7449
X5.4134Y-0.8366
X5.4134Y-0.9744
X5.4724Y-1.1614
X5.4724Y-1.2402
X5.7677Y-1.6339
X5.7677Y-1.7126
X6.1811Y-1.6437
X6.1811Y-1.7815
X6.2205Y-2.7953
X6.2205Y-2.874
X6.2205Y-3.8189
X6.2205Y-3.8976
T4
X2.9528Y-1.811
X2.9528Y-1.911
X2.9528Y-3.622
X2.9528Y-3.722
T5
X3.0315Y-1.2992
X3.0315Y-1.6142
X3.0315Y-3.1102
X3.0315Y-3.4252
X3.189Y-1.0236
X3.189Y-2.8346
X3.2283Y-1.2992
X3.2283Y-1.6142
X3.2283Y-3.1102
X3.2283Y-3.4252
X3.3858Y-1.0236
X3.3858Y-2.8346
X4.1929Y-0.9736
X4.1929Y-1.0736
X4.1929Y-2.7846
X4.1929Y-2.8846
X4.4094Y-1.9291
X4.4094Y-3.7402
X4.6063Y-1.9291
X4.6063Y-3.7402
X5.4268Y-4.1339
X5.885Y-2.0638
X5.885Y-2.1638
X5.885Y-2.2638
X5.885Y-2.3638
X5.885Y-2.4638
X5.985Y-2.0638
X5.985Y-2.2638
X5.985Y-2.3638
X5.985Y-2.4638
X6.2008Y-0.8933
X6.2008Y-0.9933
X6.2008Y-1.0933
X6.2008Y-1.1933
X6.2268Y-4.1339
T6
X2.7528Y-1.611
X2.7528Y-2.011
X2.7528Y-3.422
X2.7528Y-3.822
T0
M30
