G04 #@! TF.FileFunction,Copper,L4,Bot,Signal*
%FSLAX46Y46*%
G04 Gerber Fmt 4.6, Leading zero omitted, Abs format (unit mm)*
G04 Created by KiCad (PCBNEW (after 2015-may-01 BZR unknown)-product) date Sat 23 May 2015 10:21:05 PM EDT*
%MOMM*%
G01*
G04 APERTURE LIST*
%ADD10C,0.100000*%
%ADD11C,0.300000*%
%ADD12C,0.600000*%
%ADD13C,1.500000*%
%ADD14R,1.450000X0.950000*%
%ADD15R,1.500000X1.500000*%
%ADD16O,1.500000X2.500000*%
%ADD17O,1.500000X1.500000*%
%ADD18C,1.300000*%
%ADD19R,2.286000X1.524000*%
%ADD20O,2.286000X1.524000*%
%ADD21R,0.701040X4.000500*%
%ADD22R,0.701040X3.200400*%
%ADD23R,1.800000X1.200000*%
%ADD24R,1.150000X1.450000*%
%ADD25R,2.200000X0.750000*%
%ADD26R,0.600000X0.650000*%
%ADD27R,0.650000X0.600000*%
%ADD28R,1.450000X1.150000*%
%ADD29C,3.200000*%
%ADD30R,1.050000X2.200000*%
%ADD31R,1.000000X1.050000*%
%ADD32O,2.500000X1.500000*%
%ADD33R,0.950000X1.450000*%
%ADD34R,0.850000X1.000000*%
%ADD35C,2.500000*%
%ADD36C,1.200000*%
%ADD37R,0.600000X0.600000*%
%ADD38C,0.400000*%
%ADD39C,0.250000*%
%ADD40C,0.500000*%
%ADD41C,0.350000*%
%ADD42C,0.200000*%
%ADD43C,0.180000*%
%ADD44C,0.600000*%
G04 APERTURE END LIST*
D10*
D11*
X83728572Y-19742857D02*
X83728572Y-20542857D01*
X83442858Y-19285714D02*
X83157143Y-20142857D01*
X83900001Y-20142857D01*
D12*
X130000000Y-36000000D03*
X130500000Y-35500000D03*
X130500000Y-36500000D03*
X129500000Y-36500000D03*
X129500000Y-35500000D03*
X121500000Y-53500000D03*
X121100000Y-53100000D03*
X121900000Y-53100000D03*
X121900000Y-53900000D03*
X121100000Y-53900000D03*
X130000000Y-82000000D03*
X130500000Y-81500000D03*
X130500000Y-82500000D03*
X129500000Y-82500000D03*
X129500000Y-81500000D03*
X121500000Y-99500000D03*
X121100000Y-99100000D03*
X121900000Y-99100000D03*
X121900000Y-99900000D03*
X121100000Y-99900000D03*
D13*
X114500000Y-89000000D03*
X114500000Y-79000000D03*
D14*
X94750000Y-41500000D03*
X94750000Y-39500000D03*
D15*
X100120000Y-94500000D03*
D16*
X95040000Y-94500000D03*
X89960000Y-94500000D03*
D17*
X84880000Y-94500000D03*
D18*
X86000000Y-26000000D03*
X81000000Y-26000000D03*
D19*
X152274000Y-62580000D03*
D20*
X152274000Y-60040000D03*
X152274000Y-57500000D03*
X152274000Y-52420000D03*
X149226000Y-62580000D03*
X149226000Y-60040000D03*
X149226000Y-57500000D03*
X149226000Y-54960000D03*
X149226000Y-52420000D03*
D13*
X114500000Y-43000000D03*
X114500000Y-33000000D03*
D21*
X111501140Y-114599440D03*
X112499360Y-114599440D03*
X113500120Y-114599440D03*
X114500880Y-114599440D03*
X115499100Y-114599440D03*
X116499860Y-114599440D03*
X117500620Y-114599440D03*
X108498860Y-114599440D03*
D22*
X98498880Y-114200660D03*
D21*
X99499640Y-114599440D03*
X100500400Y-114599440D03*
X101501160Y-114599440D03*
X102499380Y-114599440D03*
X103500140Y-114599440D03*
X104500900Y-114599440D03*
X105499120Y-114599440D03*
X106499880Y-114599440D03*
X107500640Y-114599440D03*
X118498840Y-114599440D03*
X119499600Y-114599440D03*
X120500360Y-114599440D03*
X121501120Y-114599440D03*
X122499340Y-114599440D03*
X123500100Y-114599440D03*
X124500860Y-114599440D03*
X125499080Y-114599440D03*
X126499840Y-114599440D03*
X127500600Y-114599440D03*
X128498820Y-114599440D03*
X129499580Y-114599440D03*
X130500340Y-114599440D03*
X131501100Y-114599440D03*
D18*
X82000000Y-87000000D03*
X77000000Y-87000000D03*
X86000000Y-72000000D03*
X81000000Y-72000000D03*
X82000000Y-79000000D03*
X77000000Y-79000000D03*
X117000000Y-95000000D03*
X112000000Y-95000000D03*
X117000000Y-49000000D03*
X112000000Y-49000000D03*
X82000000Y-33000000D03*
X77000000Y-33000000D03*
X82000000Y-41000000D03*
X77000000Y-41000000D03*
D23*
X90500000Y-80550000D03*
X90500000Y-83450000D03*
D24*
X84400000Y-72000000D03*
X82600000Y-72000000D03*
D25*
X127500000Y-73050000D03*
X127500000Y-71950000D03*
D26*
X121250000Y-94700000D03*
X121250000Y-93800000D03*
X126500000Y-91100000D03*
X126500000Y-92000000D03*
D27*
X129300000Y-89750000D03*
X130200000Y-89750000D03*
X132450000Y-95000000D03*
X131550000Y-95000000D03*
X121300000Y-82250000D03*
X122200000Y-82250000D03*
X124700000Y-87250000D03*
X123800000Y-87250000D03*
D25*
X124500000Y-71950000D03*
X124500000Y-73050000D03*
D26*
X121250000Y-92450000D03*
X121250000Y-91550000D03*
X126500000Y-93800000D03*
X126500000Y-94700000D03*
D27*
X131550000Y-89750000D03*
X132450000Y-89750000D03*
X130200000Y-95000000D03*
X129300000Y-95000000D03*
X123550000Y-82250000D03*
X124450000Y-82250000D03*
X122450000Y-87250000D03*
X121550000Y-87250000D03*
D28*
X136000000Y-63400000D03*
X136000000Y-61600000D03*
D15*
X158000000Y-97000000D03*
D13*
X158000000Y-99000000D03*
D15*
X158000000Y-71000000D03*
D13*
X158000000Y-73000000D03*
D15*
X146500000Y-41500000D03*
D13*
X146500000Y-43500000D03*
D15*
X139000000Y-29500000D03*
D13*
X139000000Y-31500000D03*
D23*
X90500000Y-34550000D03*
X90500000Y-37450000D03*
D24*
X84400000Y-26000000D03*
X82600000Y-26000000D03*
D25*
X127500000Y-27050000D03*
X127500000Y-25950000D03*
D26*
X121000000Y-48950000D03*
X121000000Y-48050000D03*
X126250000Y-45700000D03*
X126250000Y-44800000D03*
D27*
X132950000Y-49000000D03*
X132050000Y-49000000D03*
X129300000Y-43500000D03*
X130200000Y-43500000D03*
X124550000Y-41500000D03*
X125450000Y-41500000D03*
X121300000Y-36000000D03*
X122200000Y-36000000D03*
D25*
X124500000Y-25950000D03*
X124500000Y-27050000D03*
D26*
X121000000Y-46450000D03*
X121000000Y-45550000D03*
X126250000Y-48950000D03*
X126250000Y-48050000D03*
D27*
X130500000Y-49000000D03*
X129600000Y-49000000D03*
X131550000Y-43500000D03*
X132450000Y-43500000D03*
X122950000Y-41500000D03*
X122050000Y-41500000D03*
X123800000Y-36000000D03*
X124700000Y-36000000D03*
D19*
X106500000Y-24730000D03*
D20*
X106500000Y-27270000D03*
D13*
X75000000Y-46000000D03*
X75000000Y-48540000D03*
D29*
X69920000Y-40920000D03*
X69920000Y-51080000D03*
D30*
X127525000Y-21500000D03*
X130475000Y-21500000D03*
D31*
X129000000Y-23025000D03*
D30*
X122025000Y-21500000D03*
X124975000Y-21500000D03*
D31*
X123500000Y-23025000D03*
D19*
X106500000Y-70730000D03*
D20*
X106500000Y-73270000D03*
D13*
X75000000Y-92000000D03*
X75000000Y-94540000D03*
D29*
X69920000Y-86920000D03*
X69920000Y-97080000D03*
D30*
X127275000Y-67500000D03*
X130225000Y-67500000D03*
D31*
X128750000Y-69025000D03*
D30*
X122025000Y-67500000D03*
X124975000Y-67500000D03*
D31*
X123500000Y-69025000D03*
D19*
X157500000Y-30310000D03*
D20*
X157500000Y-27770000D03*
X157500000Y-25230000D03*
X157500000Y-22690000D03*
D15*
X107000000Y-95120000D03*
D32*
X107000000Y-90040000D03*
X107000000Y-84960000D03*
D17*
X107000000Y-79880000D03*
D15*
X107000000Y-49120000D03*
D32*
X107000000Y-44040000D03*
X107000000Y-38960000D03*
D17*
X107000000Y-33880000D03*
D15*
X100120000Y-48500000D03*
D16*
X95040000Y-48500000D03*
X89960000Y-48500000D03*
D17*
X84880000Y-48500000D03*
D33*
X87500000Y-85500000D03*
X89500000Y-85500000D03*
D14*
X87500000Y-81000000D03*
X87500000Y-83000000D03*
D33*
X89500000Y-78500000D03*
X87500000Y-78500000D03*
D14*
X91500000Y-85500000D03*
X91500000Y-87500000D03*
D33*
X93000000Y-80500000D03*
X95000000Y-80500000D03*
D34*
X80250000Y-79000000D03*
X78750000Y-79000000D03*
D33*
X92000000Y-89500000D03*
X94000000Y-89500000D03*
D14*
X97000000Y-80250000D03*
X97000000Y-82250000D03*
X94750000Y-87500000D03*
X94750000Y-85500000D03*
D34*
X80250000Y-87000000D03*
X78750000Y-87000000D03*
D14*
X97000000Y-83750000D03*
X97000000Y-85750000D03*
D33*
X87500000Y-39500000D03*
X89500000Y-39500000D03*
D14*
X87500000Y-35000000D03*
X87500000Y-37000000D03*
D33*
X89500000Y-32500000D03*
X87500000Y-32500000D03*
D14*
X91500000Y-39500000D03*
X91500000Y-41500000D03*
D33*
X93000000Y-34500000D03*
X95000000Y-34500000D03*
D34*
X80250000Y-33000000D03*
X78750000Y-33000000D03*
D33*
X92000000Y-43500000D03*
X94000000Y-43500000D03*
D14*
X97000000Y-34250000D03*
X97000000Y-36250000D03*
D34*
X80250000Y-41000000D03*
X78750000Y-41000000D03*
D14*
X97000000Y-38000000D03*
X97000000Y-40000000D03*
D35*
X158160000Y-105000000D03*
X137840000Y-105000000D03*
D36*
X140000000Y-52000000D03*
D15*
X157000000Y-41749940D03*
D13*
X157000000Y-45250060D03*
D15*
X137500000Y-21249940D03*
D13*
X137500000Y-24750060D03*
D27*
X135400000Y-65000000D03*
X134500000Y-65000000D03*
D26*
X137750000Y-62900000D03*
X137750000Y-62000000D03*
D27*
X130350000Y-56000000D03*
X131250000Y-56000000D03*
D37*
X143500000Y-88550000D03*
X143500000Y-89450000D03*
X144250000Y-91100000D03*
X144250000Y-92000000D03*
X142750000Y-91100000D03*
X142750000Y-92000000D03*
X145250000Y-88550000D03*
X145250000Y-89450000D03*
D12*
X130780003Y-96000000D03*
X137500000Y-82000000D03*
X137500000Y-81250000D03*
X135750000Y-87750000D03*
X135750000Y-86250000D03*
X135750000Y-87000000D03*
X135500000Y-79750000D03*
X135500000Y-79000000D03*
X135250000Y-85250000D03*
X133767393Y-85210243D03*
X134500000Y-85250000D03*
X135500000Y-80500000D03*
X135250000Y-85250000D03*
X133767393Y-85210243D03*
X134500000Y-85250000D03*
X135500000Y-80500000D03*
X135500000Y-79000000D03*
X135500000Y-79750000D03*
X131750000Y-86500000D03*
X119250048Y-90105565D03*
X93250000Y-61144990D03*
X114500000Y-112000000D03*
X135750000Y-60750000D03*
X127499996Y-47250000D03*
X97000000Y-86500000D03*
X133500000Y-98000000D03*
X120750000Y-70000000D03*
X112750000Y-57500000D03*
X104535172Y-110999998D03*
X127500000Y-111000000D03*
X102250000Y-53250000D03*
X129500000Y-66750000D03*
X129500000Y-20750000D03*
X125250000Y-92000000D03*
X80500000Y-62500000D03*
X111000000Y-61000000D03*
X123500000Y-111000000D03*
X125250000Y-46669990D03*
X95000000Y-58750000D03*
X102000000Y-54750000D03*
X145000000Y-65250000D03*
X100250000Y-59394990D03*
X127500000Y-71250000D03*
X135250000Y-39250000D03*
X122750000Y-76250000D03*
X101250000Y-61144990D03*
X79750000Y-62500000D03*
X124250000Y-33250000D03*
X122250000Y-94000000D03*
X131500000Y-111000000D03*
X131250000Y-42500000D03*
X145000000Y-64500000D03*
X124250000Y-42500000D03*
X118802813Y-67697187D03*
X127500000Y-58500000D03*
X121500000Y-111000000D03*
X126000000Y-56250000D03*
X129500000Y-67500000D03*
X135750000Y-40000000D03*
X104535170Y-110999998D03*
X104535172Y-110000000D03*
X132750000Y-78250000D03*
X124000000Y-67500000D03*
X131774268Y-96026499D03*
X130000000Y-42500000D03*
X131116784Y-55222398D03*
X124005002Y-66750000D03*
X115500000Y-111000000D03*
X104535170Y-110000000D03*
X132750000Y-76750000D03*
X139750000Y-60250000D03*
X138592238Y-61585058D03*
X132000000Y-48000000D03*
X117500000Y-112000000D03*
X63500000Y-67750000D03*
X121719990Y-66124289D03*
X101500000Y-111000000D03*
X128500000Y-111000000D03*
X121719990Y-68750000D03*
X123675004Y-83063198D03*
X63500000Y-64750000D03*
X126000000Y-101500000D03*
X140250000Y-68500000D03*
X119500000Y-112000000D03*
X124500000Y-112000000D03*
X145266195Y-69016195D03*
X132100000Y-40500000D03*
X145000000Y-63750000D03*
X140644978Y-62000000D03*
X138592237Y-61585058D03*
X116000000Y-61250000D03*
X125250000Y-90750000D03*
X132750000Y-76750000D03*
X139214947Y-70208573D03*
X130574996Y-47936802D03*
X122250000Y-46469997D03*
X139250000Y-92500000D03*
X133750000Y-66000000D03*
X126000000Y-56250000D03*
X106939871Y-62689871D03*
X135250000Y-66000000D03*
X128000000Y-67500000D03*
X98000000Y-85750000D03*
X127499996Y-47250000D03*
X154500000Y-34750000D03*
X154500000Y-36250000D03*
X112500000Y-112000000D03*
X125250000Y-90750000D03*
X154500000Y-35500000D03*
X127500000Y-112000000D03*
X112500000Y-111000000D03*
X124000000Y-20750000D03*
X134517393Y-39210243D03*
X94500000Y-69750000D03*
X131500000Y-112000000D03*
X104750000Y-29250000D03*
X135789929Y-43500000D03*
X135750000Y-41500000D03*
X122500000Y-111000000D03*
X135750000Y-40750000D03*
X133500000Y-98750000D03*
X128000000Y-66750000D03*
X127500000Y-58500000D03*
X145250000Y-49500000D03*
X122250000Y-46469997D03*
X122530003Y-37250000D03*
X129250000Y-102999991D03*
X63500000Y-61750000D03*
X125500000Y-112000000D03*
X120500000Y-112000000D03*
X125250000Y-46000000D03*
X119500000Y-111000000D03*
X124000000Y-21500000D03*
X126500000Y-112000000D03*
X123500000Y-112000000D03*
X115500000Y-112000000D03*
X126500000Y-111000000D03*
X119500000Y-112000000D03*
X125250000Y-92750000D03*
X130000000Y-90750000D03*
X126500000Y-111000000D03*
X122500000Y-112000000D03*
X124500000Y-25370009D03*
X126000000Y-102250000D03*
X122250000Y-48030003D03*
X123500000Y-111000000D03*
X136750000Y-52000000D03*
X123500000Y-112000000D03*
X129500000Y-66750000D03*
X112750000Y-57500000D03*
X128000000Y-41750000D03*
X131500000Y-112000000D03*
X110894998Y-101250000D03*
X130500000Y-111000000D03*
X133084897Y-47925091D03*
X137500000Y-36000000D03*
X105000000Y-75250000D03*
X135500000Y-34500000D03*
X126000000Y-50750000D03*
X130500000Y-112000000D03*
X112500000Y-111000000D03*
X118250000Y-25750000D03*
X114500000Y-24500000D03*
X128500000Y-111000000D03*
X128000000Y-41750000D03*
X130500000Y-111000000D03*
X128500000Y-112000000D03*
X126000000Y-100750000D03*
X139250000Y-92500000D03*
X130000000Y-90750000D03*
X125500000Y-111000000D03*
X124246531Y-86487509D03*
X124500000Y-111000000D03*
X126837812Y-25412188D03*
X127500000Y-25370009D03*
X121500000Y-112000000D03*
X123000000Y-20750000D03*
X138500000Y-92500000D03*
X132750000Y-31500000D03*
X120500000Y-111000000D03*
X132000000Y-48000000D03*
X117500000Y-111000000D03*
X130500000Y-112000000D03*
X127500000Y-111000000D03*
X117500000Y-112000000D03*
X136750000Y-52750000D03*
X114500000Y-111000000D03*
X122250000Y-83000000D03*
X115500000Y-111000000D03*
X126000000Y-96750000D03*
X101500000Y-112000000D03*
X124514381Y-79985619D03*
X115250000Y-61250000D03*
X130000000Y-42500000D03*
X114500000Y-61250000D03*
X114500000Y-112000000D03*
X125500000Y-42500000D03*
X117250000Y-74000000D03*
X122250000Y-94000000D03*
X125250000Y-92750000D03*
X125250000Y-92000000D03*
X125500000Y-86500000D03*
X133250000Y-93750000D03*
X131250000Y-90750000D03*
X122998427Y-86498956D03*
X123675004Y-83063198D03*
X126000000Y-55500000D03*
X135500000Y-33750000D03*
X130574996Y-47936802D03*
X94500000Y-23500000D03*
X132750000Y-32250000D03*
X131250000Y-42500000D03*
X125250000Y-46000000D03*
X125250000Y-49000000D03*
X114500000Y-111000000D03*
X127901655Y-87755336D03*
X125250000Y-44750000D03*
X114500000Y-70500000D03*
X127499998Y-93250000D03*
X126500000Y-112000000D03*
X127250000Y-41750000D03*
X124250000Y-34000000D03*
X124250000Y-32500000D03*
X135500000Y-33750000D03*
X132750000Y-30750000D03*
X137750000Y-92500000D03*
X132750000Y-32250000D03*
X97000000Y-40750000D03*
X135500000Y-33000000D03*
X98000000Y-40000000D03*
X124500000Y-79250000D03*
X126000000Y-97500000D03*
X80500000Y-62500000D03*
X124520558Y-78520942D03*
X126000000Y-97500000D03*
X124520558Y-78520942D03*
X132750000Y-77500000D03*
X72250000Y-70750000D03*
X125250000Y-49000000D03*
X126000000Y-96750000D03*
X127901655Y-87755336D03*
X127250000Y-41750000D03*
X126000000Y-100750000D03*
X127250000Y-87750000D03*
X117520569Y-68958862D03*
X126000000Y-101500000D03*
X131774268Y-96026499D03*
X123000000Y-21500000D03*
X123000000Y-20750000D03*
X128500000Y-21500000D03*
X124000000Y-21500000D03*
X128500000Y-20750000D03*
X129500000Y-21500000D03*
X126000000Y-52250000D03*
X126000000Y-52250000D03*
X129500000Y-20750000D03*
X70750000Y-70750000D03*
X71500000Y-70750000D03*
X124250000Y-42500000D03*
X72250000Y-70750000D03*
X73000000Y-70750000D03*
X126000000Y-54750000D03*
X70000000Y-70750000D03*
X69250000Y-70750000D03*
X97000000Y-40750000D03*
X114500000Y-70500000D03*
X117000000Y-23250000D03*
X104750000Y-29250000D03*
X125500000Y-42500000D03*
X126000000Y-102250000D03*
X137750000Y-92500000D03*
X123198280Y-37399607D03*
X101500000Y-112000000D03*
X122768980Y-30410020D03*
X121983805Y-30016195D03*
X125250000Y-25370009D03*
X126837812Y-25412188D03*
X126000000Y-51500000D03*
X126000000Y-54750000D03*
X79750000Y-62500000D03*
X111000000Y-61000000D03*
X79000000Y-62500000D03*
X104750000Y-57894990D03*
X124500000Y-71250000D03*
X121500000Y-111000000D03*
X125217248Y-71282752D03*
X127500000Y-71250000D03*
X136750000Y-52750000D03*
X123003749Y-42496232D03*
X126773363Y-71226637D03*
X128000000Y-66750000D03*
X133500000Y-98000000D03*
X133500000Y-99500000D03*
X126000000Y-98250000D03*
X122530003Y-37250000D03*
X110894998Y-101250000D03*
X126000000Y-50750000D03*
X98000000Y-40000000D03*
X98000000Y-85750000D03*
X97000000Y-86500000D03*
X99250000Y-107500000D03*
X94500000Y-69750000D03*
X129500000Y-67500000D03*
X124005002Y-66750000D03*
X127500000Y-112000000D03*
X125500000Y-112000000D03*
X125500000Y-111000000D03*
X124250000Y-34000000D03*
X115500000Y-112000000D03*
X131500000Y-111000000D03*
X101500000Y-111000000D03*
X115250000Y-61250000D03*
X70000000Y-70750000D03*
X116000000Y-61250000D03*
X125250000Y-25370009D03*
X133250000Y-93750000D03*
X122998427Y-86498956D03*
X133084897Y-47925091D03*
X122250000Y-48030003D03*
X127499998Y-93250000D03*
X131250000Y-90750000D03*
X124250000Y-33250000D03*
X124500000Y-111000000D03*
X121500000Y-112000000D03*
X112500000Y-112000000D03*
X135500000Y-34500000D03*
X128000000Y-67500000D03*
X124500000Y-79250000D03*
X124514381Y-79985619D03*
X132750000Y-77500000D03*
X120500000Y-111000000D03*
X119500000Y-111000000D03*
X135500000Y-33000000D03*
X127250000Y-87750000D03*
X136750000Y-52000000D03*
X133500000Y-99500000D03*
X132750000Y-31500000D03*
X122250000Y-83000000D03*
X143250000Y-27750000D03*
X123000000Y-21500000D03*
X125217248Y-71282752D03*
X124000000Y-20750000D03*
X129500000Y-21500000D03*
X122500000Y-112000000D03*
X70750000Y-70750000D03*
X73000000Y-70750000D03*
X69250000Y-70750000D03*
X117520569Y-68958862D03*
X128500000Y-20750000D03*
X125250000Y-44750000D03*
X125500000Y-86500000D03*
X114500000Y-24500000D03*
X138500000Y-92500000D03*
X117250000Y-74000000D03*
X117000000Y-23250000D03*
X123198280Y-37399607D03*
X127500000Y-25370009D03*
X126000000Y-51500000D03*
X106939871Y-62689871D03*
X114500000Y-61250000D03*
X124500000Y-71250000D03*
X126773363Y-71226637D03*
X94500000Y-23500000D03*
X125220163Y-94758354D03*
X132750000Y-78250000D03*
X133500000Y-98750000D03*
X105000000Y-75250000D03*
X79000000Y-62500000D03*
X125250000Y-46669990D03*
X124500000Y-25370009D03*
X126000000Y-55500000D03*
X124250000Y-32500000D03*
X132750000Y-30750000D03*
X122500000Y-111000000D03*
X117500000Y-111000000D03*
X120500000Y-112000000D03*
X71500000Y-70750000D03*
X124500000Y-112000000D03*
X126000000Y-98250000D03*
X128500000Y-21500000D03*
X124246531Y-86487509D03*
X104750000Y-57894990D03*
X124000000Y-67500000D03*
X121983805Y-30016195D03*
X99250000Y-107500000D03*
X118250000Y-25750000D03*
X128500000Y-112000000D03*
X122768980Y-30410020D03*
X137500000Y-35250000D03*
X145750000Y-30500000D03*
X153750000Y-28750000D03*
X100250000Y-70000000D03*
X123003750Y-42496231D03*
X120000000Y-44250000D03*
X122250000Y-92709990D03*
X146000000Y-97000000D03*
X111750000Y-104250000D03*
X112579200Y-56001050D03*
X136750000Y-53500000D03*
X136750000Y-53500000D03*
X159250000Y-27750000D03*
X159250000Y-26500000D03*
X159250000Y-25250000D03*
X155750000Y-45250000D03*
X158233835Y-45266165D03*
X145250000Y-43500000D03*
X147750000Y-43500000D03*
X139000000Y-28250000D03*
X139750000Y-28250000D03*
X136250000Y-21250000D03*
X145750000Y-21250000D03*
X154250000Y-60000000D03*
X154250000Y-57500000D03*
X154250000Y-52500000D03*
X157000000Y-74000000D03*
X156750000Y-99000000D03*
X81000000Y-27250000D03*
X81000000Y-24750000D03*
X77000000Y-31750000D03*
X77000000Y-34250000D03*
X77000000Y-39750000D03*
X77000000Y-42250000D03*
X81000000Y-70750000D03*
X81000000Y-73250000D03*
X77000000Y-80250000D03*
X77000000Y-77750000D03*
X77000000Y-85750000D03*
X77250000Y-88250000D03*
X70000000Y-92000000D03*
X70000000Y-90000000D03*
X70000000Y-94000000D03*
X73500000Y-94500000D03*
X75000000Y-96000000D03*
X74000000Y-95500000D03*
X70000000Y-46000000D03*
X70000000Y-44000000D03*
X70000000Y-48000000D03*
X75000000Y-50000000D03*
X73500000Y-48500000D03*
X74000000Y-49500000D03*
X134000000Y-88500000D03*
X115750000Y-23250000D03*
X123754921Y-74240158D03*
X115750000Y-69500000D03*
X65000000Y-103500000D03*
X65000000Y-57500000D03*
X123700000Y-28269990D03*
X128000000Y-27429990D03*
X129500008Y-88500000D03*
X132553761Y-95998038D03*
X127500000Y-45500000D03*
X119983933Y-48734610D03*
X129221891Y-42445692D03*
X132734610Y-50016067D03*
X121750000Y-81000000D03*
X124750000Y-88500000D03*
X127500000Y-91500000D03*
X122250000Y-94780003D03*
X124250000Y-96000000D03*
X136000000Y-83500000D03*
X128259388Y-73518777D03*
X123291138Y-50680020D03*
X121750000Y-37250000D03*
X124750000Y-40250000D03*
X133250000Y-42250000D03*
X136000000Y-37500000D03*
X130500000Y-30750000D03*
X127250000Y-98750000D03*
X127250000Y-98000000D03*
X127250000Y-99500000D03*
X127250000Y-52750000D03*
X127250000Y-52000000D03*
X127250000Y-53500000D03*
X140470683Y-42500000D03*
X137250000Y-74413551D03*
X65000000Y-76404004D03*
X131750000Y-79250000D03*
X123979886Y-37373868D03*
X123749942Y-73460162D03*
X124000000Y-27500000D03*
X123472804Y-80801256D03*
X127588155Y-48193839D03*
X127500000Y-94030013D03*
X120007579Y-46005008D03*
X132030003Y-42500000D03*
X130000000Y-50000000D03*
X122250000Y-88500000D03*
X132000000Y-88250000D03*
X130000000Y-96000000D03*
X124250000Y-103000000D03*
X126250000Y-80500000D03*
X127500000Y-84855010D03*
X124250000Y-56750000D03*
X122317811Y-40287801D03*
X126250000Y-31750000D03*
X127500000Y-39105006D03*
X132750000Y-33500000D03*
X138500000Y-89500000D03*
X137750000Y-89500000D03*
X139250000Y-89500000D03*
X134229909Y-45000000D03*
X66000000Y-78500000D03*
X122500000Y-91750000D03*
X132500000Y-80030020D03*
X135250000Y-31500000D03*
X136000000Y-31500000D03*
X120697194Y-31697194D03*
X106750000Y-55250000D03*
X118250000Y-58000000D03*
X109500000Y-59929980D03*
X111250000Y-64429990D03*
X102000000Y-59750000D03*
X104654215Y-64429990D03*
X93000000Y-63500000D03*
X93000000Y-55500000D03*
X155000000Y-74000000D03*
X154000000Y-74000000D03*
X153000000Y-74000000D03*
X152000000Y-74000000D03*
X151000000Y-74000000D03*
X150000000Y-74000000D03*
X85250000Y-37500000D03*
X85250000Y-83500000D03*
X95000000Y-92780010D03*
X95000000Y-96250000D03*
X105250000Y-90000000D03*
X104250000Y-90000000D03*
X95000000Y-46780010D03*
X94000000Y-50000000D03*
X105250000Y-44000000D03*
X104500000Y-44000000D03*
X99500000Y-112000000D03*
X100500000Y-112000000D03*
X99500000Y-111000000D03*
X100500000Y-111000000D03*
X135000000Y-107500000D03*
X136000000Y-107500000D03*
X137000000Y-107500000D03*
X138000000Y-107500000D03*
X139750000Y-65000000D03*
X146046007Y-68998985D03*
X143000000Y-53500000D03*
X143000000Y-56500000D03*
X137250000Y-64000000D03*
X126750000Y-58250000D03*
X127250000Y-65820010D03*
X107500000Y-104000000D03*
X108250000Y-104000000D03*
X106750000Y-104000000D03*
X155000000Y-27750000D03*
X136250000Y-65000000D03*
X139105010Y-73000000D03*
X140644978Y-66000000D03*
X129500000Y-56500000D03*
X154250000Y-62500000D03*
X105500000Y-110000000D03*
X75250000Y-60750000D03*
X85250000Y-34500000D03*
X75250000Y-63250000D03*
X75250000Y-62000000D03*
X73000000Y-75750000D03*
X85250000Y-80750000D03*
X77750000Y-69290040D03*
X73780003Y-75750000D03*
X115500000Y-57500000D03*
X100000000Y-54000000D03*
X129000000Y-24000000D03*
X123500000Y-24000000D03*
X107750000Y-54669990D03*
X117500000Y-57500000D03*
X113250000Y-103750000D03*
X99500000Y-69750000D03*
X128750000Y-70000000D03*
X123500000Y-70000000D03*
X101000000Y-70500000D03*
X112500000Y-104000000D03*
X121750000Y-58000000D03*
X132280010Y-28910020D03*
X119500000Y-70000000D03*
X130750000Y-71500000D03*
X131204173Y-62313327D03*
X125137811Y-62830020D03*
X132286479Y-62890031D03*
X124000000Y-63250000D03*
X141250000Y-51500000D03*
X107750000Y-110500000D03*
X113500000Y-90500000D03*
X108632908Y-97000000D03*
X113000000Y-43956243D03*
X108120291Y-50750000D03*
X91750000Y-37500000D03*
X109750000Y-29250000D03*
X114000000Y-75250000D03*
X113250000Y-61320010D03*
X113250000Y-62000000D03*
X113250000Y-62750000D03*
X110500000Y-61750000D03*
X139500000Y-75780003D03*
X138750000Y-75780003D03*
X113250000Y-75250000D03*
X98750000Y-61479850D03*
X107669224Y-58503687D03*
X138750000Y-75000000D03*
X118000000Y-73750000D03*
X80500000Y-59250000D03*
X79000000Y-59250000D03*
X79750000Y-59250000D03*
X139500000Y-75000000D03*
X117250000Y-72500000D03*
X116000000Y-27250000D03*
X96000000Y-58500000D03*
X136500000Y-66000000D03*
X136500000Y-67535019D03*
X123750000Y-53250000D03*
X122250000Y-51500000D03*
X130404646Y-61971504D03*
X124250000Y-62500000D03*
X118577287Y-60466697D03*
X93000000Y-54000000D03*
X118000000Y-61000000D03*
X93000000Y-64500000D03*
X119320812Y-60230925D03*
X104500000Y-59394990D03*
X104750000Y-63250000D03*
X118000000Y-62000000D03*
X135778057Y-59528057D03*
X67250000Y-69500000D03*
X120250000Y-75500000D03*
X123750000Y-103644990D03*
X138500000Y-63750000D03*
X122500000Y-90750000D03*
X125222955Y-47508005D03*
X127750000Y-46500000D03*
X120719997Y-104269990D03*
X139000000Y-62250000D03*
X118500000Y-88000000D03*
X118644990Y-96750000D03*
X119500000Y-75250000D03*
X126000000Y-38499996D03*
X132838795Y-35523678D03*
X121500000Y-104269990D03*
X120500000Y-89500000D03*
X138750000Y-63000000D03*
X121000000Y-75750000D03*
X129250000Y-33144978D03*
X126250000Y-35250000D03*
X117250000Y-24500000D03*
X128500000Y-28194990D03*
X108447187Y-58447187D03*
X119500000Y-58750000D03*
X135838580Y-58560514D03*
X73500000Y-68250000D03*
X122250000Y-44750000D03*
X138750000Y-46500000D03*
X131500004Y-53000000D03*
X121000000Y-39250000D03*
X126250000Y-36030003D03*
X121000000Y-42750000D03*
X138750000Y-49500000D03*
X131231482Y-53781790D03*
X131752031Y-63495051D03*
X124310289Y-63970592D03*
X132500000Y-61250000D03*
X72000000Y-61000000D03*
X133250000Y-62000000D03*
X72000000Y-62250000D03*
X133071307Y-62796771D03*
X72000000Y-63500000D03*
X127649264Y-60805966D03*
X72000000Y-64750000D03*
X129783289Y-61499998D03*
X72000000Y-66250000D03*
X127649263Y-62194034D03*
X72000000Y-67500000D03*
X138750019Y-54319970D03*
X144120060Y-73750000D03*
X152500000Y-30500000D03*
X139500002Y-53750000D03*
X141801545Y-50948455D03*
X118780003Y-73750000D03*
X128249375Y-74298714D03*
X122000000Y-96000000D03*
X124000000Y-99250000D03*
X124750000Y-37250004D03*
X125500000Y-43500000D03*
X130250000Y-45000000D03*
X124750000Y-38750000D03*
X130250000Y-46000000D03*
X131250000Y-47000000D03*
X127394990Y-43500000D03*
X128750000Y-44750000D03*
X127750000Y-92500000D03*
X125225852Y-93742466D03*
X126250000Y-88969980D03*
X130250000Y-91500000D03*
X123750000Y-85105010D03*
X124750000Y-83144990D03*
X126249998Y-84250000D03*
X132838795Y-81523678D03*
X129250000Y-79144976D03*
X126750000Y-81500000D03*
X131000000Y-93000000D03*
X129750000Y-92250000D03*
X127250000Y-88969980D03*
X129052806Y-90697194D03*
X91750000Y-35500000D03*
X91600000Y-81400000D03*
X91750000Y-83500000D03*
X143750000Y-51250000D03*
X144250000Y-55000000D03*
X133301552Y-60448448D03*
X140250000Y-55750000D03*
X103500000Y-105250000D03*
X131220222Y-58057000D03*
X102000000Y-105250000D03*
X130476189Y-57742477D03*
X133750000Y-58000000D03*
X133040956Y-58429980D03*
X132220089Y-58884943D03*
X132360243Y-58012026D03*
X138500000Y-43500000D03*
X141528057Y-57028057D03*
X138500000Y-45000000D03*
X137069970Y-50750000D03*
D38*
X130783480Y-95000000D02*
X131550000Y-95000000D01*
X130200000Y-95000000D02*
X130783480Y-95000000D01*
X130783480Y-95000000D02*
X130783480Y-95996523D01*
X130783480Y-95996523D02*
X130780003Y-96000000D01*
X131550000Y-95000000D02*
X131550000Y-95802231D01*
X131550000Y-95802231D02*
X131774268Y-96026499D01*
D39*
X106191372Y-52250000D02*
X103250000Y-52250000D01*
X124500000Y-71250000D02*
X125184496Y-71250000D01*
D40*
X123500100Y-112000100D02*
X123500000Y-112000000D01*
D39*
X123550000Y-82250000D02*
X123550000Y-82938194D01*
X121250000Y-93800000D02*
X121250000Y-92450000D01*
X121250000Y-93800000D02*
X121250000Y-92450000D01*
D38*
X135250000Y-66000000D02*
X134775646Y-66000000D01*
D40*
X117500620Y-114599440D02*
X117500620Y-112000620D01*
D39*
X122450000Y-87250000D02*
X122450000Y-87047383D01*
D41*
X97000000Y-85750000D02*
X96750000Y-85750000D01*
D38*
X138164942Y-61585058D02*
X137750000Y-62000000D01*
D39*
X130475000Y-21500000D02*
X129500000Y-21500000D01*
D42*
X94750000Y-36000000D02*
X95250000Y-36000000D01*
D39*
X131250000Y-43200000D02*
X131250000Y-42500000D01*
X122025000Y-67500000D02*
X122025000Y-66429299D01*
X127500000Y-25370009D02*
X126879991Y-25370009D01*
D42*
X95545998Y-82000000D02*
X96295998Y-81250000D01*
D39*
X122250000Y-83000000D02*
X122250000Y-82300000D01*
X130200000Y-89750000D02*
X131550000Y-89750000D01*
D42*
X88750000Y-38250000D02*
X88750000Y-36000000D01*
D39*
X130200000Y-89750000D02*
X130200000Y-90550000D01*
X82600000Y-26000000D02*
X81000000Y-26000000D01*
D38*
X134200000Y-66000000D02*
X133750000Y-66000000D01*
D40*
X98950001Y-107799999D02*
X99250000Y-107500000D01*
D41*
X96750000Y-85750000D02*
X96500000Y-85500000D01*
X97000000Y-85750000D02*
X96750000Y-85750000D01*
D39*
X123800000Y-36550000D02*
X123198280Y-37151720D01*
D42*
X88250000Y-36000000D02*
X86500000Y-36000000D01*
D39*
X124975000Y-21500000D02*
X124000000Y-21500000D01*
D40*
X114500000Y-112000000D02*
X114500000Y-111000000D01*
D39*
X78750000Y-87000000D02*
X77000000Y-87000000D01*
D38*
X138592237Y-61585058D02*
X138164942Y-61585058D01*
D39*
X123198280Y-37151720D02*
X123198280Y-37399607D01*
X131550000Y-43500000D02*
X131250000Y-43200000D01*
X131250000Y-56000000D02*
X131250000Y-55355614D01*
X121250000Y-93800000D02*
X122050000Y-93800000D01*
D40*
X112500000Y-111482505D02*
X112500000Y-111000000D01*
D39*
X132050000Y-48050000D02*
X132000000Y-48000000D01*
D38*
X136000000Y-61600000D02*
X136000000Y-61000000D01*
X134500000Y-65700000D02*
X134500000Y-65724354D01*
X134500000Y-65700000D02*
X134200000Y-66000000D01*
D41*
X96750000Y-85750000D02*
X96500000Y-85500000D01*
D40*
X122500000Y-112000000D02*
X122500000Y-111000000D01*
D38*
X136000000Y-61000000D02*
X135750000Y-60750000D01*
D39*
X131250000Y-55355614D02*
X131116784Y-55222398D01*
D43*
X128000000Y-67500000D02*
X128000000Y-66750000D01*
D39*
X128500000Y-21500000D02*
X128500000Y-20750000D01*
D43*
X127275000Y-67500000D02*
X128000000Y-67500000D01*
D40*
X117500620Y-114599440D02*
X117500620Y-112000620D01*
X98498880Y-114200660D02*
X98498880Y-108251120D01*
D39*
X123550000Y-82938194D02*
X123675004Y-83063198D01*
D40*
X119500000Y-112000000D02*
X119500000Y-111000000D01*
D39*
X78750000Y-79000000D02*
X77000000Y-79000000D01*
D38*
X134775646Y-66000000D02*
X133750000Y-66000000D01*
D42*
X93000000Y-39500000D02*
X93000000Y-40495888D01*
D38*
X134500000Y-65724354D02*
X134775646Y-66000000D01*
X134500000Y-65000000D02*
X134500000Y-65700000D01*
D42*
X88750000Y-79750000D02*
X88500000Y-79500000D01*
X90754112Y-40495888D02*
X90750000Y-40500000D01*
D39*
X122200000Y-36000000D02*
X122530003Y-36330003D01*
X82600000Y-72000000D02*
X81000000Y-72000000D01*
D40*
X114500880Y-112000880D02*
X114500000Y-112000000D01*
X114500880Y-114599440D02*
X114500880Y-112000880D01*
D39*
X122025000Y-67500000D02*
X122025000Y-68444990D01*
D40*
X123500000Y-112000000D02*
X123500000Y-111000000D01*
X122500000Y-112000000D02*
X122500000Y-111000000D01*
D39*
X124500000Y-25370009D02*
X125250000Y-25370009D01*
D41*
X94750000Y-39500000D02*
X94750000Y-39250000D01*
D42*
X88750000Y-33750000D02*
X88500000Y-33500000D01*
D40*
X112500000Y-112000000D02*
X112500000Y-111482505D01*
D39*
X122025000Y-66429299D02*
X121719990Y-66124289D01*
X78750000Y-41000000D02*
X77000000Y-41000000D01*
X122025000Y-68444990D02*
X121719990Y-68750000D01*
D41*
X94750000Y-39500000D02*
X94750000Y-39250000D01*
D42*
X94750000Y-39500000D02*
X93000000Y-39500000D01*
D40*
X126499840Y-112000160D02*
X126500000Y-112000000D01*
D43*
X129500000Y-67500000D02*
X129500000Y-66750000D01*
D42*
X90504112Y-40495888D02*
X90000000Y-41000000D01*
D40*
X114500880Y-114599440D02*
X114500880Y-112000880D01*
D39*
X130200000Y-90550000D02*
X130000000Y-90750000D01*
D43*
X124000000Y-66755002D02*
X124005002Y-66750000D01*
X128000000Y-67500000D02*
X128000000Y-66750000D01*
D42*
X94750000Y-82000000D02*
X94000000Y-82000000D01*
D40*
X119500000Y-112000000D02*
X119500000Y-111000000D01*
X123500000Y-112000000D02*
X123500000Y-111000000D01*
X122499340Y-114599440D02*
X122499340Y-112000660D01*
D39*
X126250000Y-44800000D02*
X125300000Y-44800000D01*
D40*
X127500600Y-112000600D02*
X127500000Y-112000000D01*
D42*
X93000000Y-86506948D02*
X90493052Y-86506948D01*
D40*
X126499840Y-114599440D02*
X126499840Y-112000160D01*
D39*
X122230003Y-46450000D02*
X122250000Y-46469997D01*
D40*
X126500000Y-112000000D02*
X126500000Y-111000000D01*
D39*
X121250000Y-93800000D02*
X122050000Y-93800000D01*
D40*
X122499340Y-112000660D02*
X122500000Y-112000000D01*
D43*
X130225000Y-67500000D02*
X129500000Y-67500000D01*
X124000000Y-67500000D02*
X124000000Y-66755002D01*
D39*
X122950000Y-41500000D02*
X122950000Y-42450000D01*
D43*
X124975000Y-67500000D02*
X124000000Y-67500000D01*
X129500000Y-67500000D02*
X129500000Y-66750000D01*
D40*
X117500620Y-112000620D02*
X117500000Y-112000000D01*
D42*
X90754112Y-40495888D02*
X90504112Y-40495888D01*
D40*
X119499600Y-114599440D02*
X119499600Y-112000400D01*
D41*
X97000000Y-40000000D02*
X96750000Y-40000000D01*
D40*
X119499600Y-112000400D02*
X119500000Y-112000000D01*
D42*
X94750000Y-39500000D02*
X93000000Y-39500000D01*
D40*
X123500100Y-114599440D02*
X123500100Y-112000100D01*
X127500000Y-112000000D02*
X127500000Y-111000000D01*
D42*
X94750000Y-38825000D02*
X94750000Y-36000000D01*
D40*
X127500600Y-114599440D02*
X127500600Y-112000600D01*
X130500340Y-114599440D02*
X130500340Y-111000340D01*
X130500340Y-111000340D02*
X130500000Y-111000000D01*
X101501160Y-114599440D02*
X101501160Y-111001160D01*
D39*
X130200000Y-43500000D02*
X130200000Y-42700000D01*
D42*
X90504112Y-40495888D02*
X90000000Y-41000000D01*
D39*
X130200000Y-89750000D02*
X131550000Y-89750000D01*
D42*
X91000000Y-36000000D02*
X91250000Y-36250000D01*
D39*
X122950000Y-42450000D02*
X123000000Y-42500000D01*
D40*
X117500000Y-112000000D02*
X117500000Y-111000000D01*
X114500000Y-112000000D02*
X114500000Y-111000000D01*
X127500000Y-112000000D02*
X127500000Y-111000000D01*
D39*
X78750000Y-33000000D02*
X77000000Y-33000000D01*
D40*
X101501160Y-111001160D02*
X101500000Y-111000000D01*
X101501160Y-114599440D02*
X101501160Y-111001160D01*
D42*
X93000000Y-86506948D02*
X93000000Y-90500000D01*
D39*
X132050000Y-49000000D02*
X132050000Y-48050000D01*
X126796726Y-71250000D02*
X126773363Y-71226637D01*
X131250000Y-43200000D02*
X131250000Y-42500000D01*
D42*
X89295998Y-41000000D02*
X88500000Y-41000000D01*
D39*
X130500000Y-49000000D02*
X130500000Y-48011798D01*
X122250000Y-82300000D02*
X122200000Y-82250000D01*
D42*
X88500000Y-33500000D02*
X88500000Y-31750000D01*
D39*
X124500000Y-25370009D02*
X125250000Y-25370009D01*
X129500000Y-21500000D02*
X129500000Y-20750000D01*
D42*
X88750000Y-36000000D02*
X91000000Y-36000000D01*
D40*
X111517495Y-111482505D02*
X111501140Y-111498860D01*
X112500000Y-111482505D02*
X111517495Y-111482505D01*
D39*
X130500000Y-48011798D02*
X130574996Y-47936802D01*
X126500000Y-93800000D02*
X127050000Y-93250000D01*
X78750000Y-33000000D02*
X77000000Y-33000000D01*
X131550000Y-90450000D02*
X131250000Y-90750000D01*
X122025000Y-21500000D02*
X123000000Y-21500000D01*
D41*
X96750000Y-40000000D02*
X96250000Y-39500000D01*
D39*
X123000000Y-21500000D02*
X123000000Y-20750000D01*
X124975000Y-21500000D02*
X124000000Y-21500000D01*
X124000000Y-21500000D02*
X124000000Y-20750000D01*
X127525000Y-21500000D02*
X128500000Y-21500000D01*
D42*
X96000000Y-35250000D02*
X97750000Y-35250000D01*
D39*
X129500000Y-21500000D02*
X129500000Y-20750000D01*
X127500000Y-71950000D02*
X127500000Y-71250000D01*
X130200000Y-90550000D02*
X130000000Y-90750000D01*
D41*
X96250000Y-39500000D02*
X94750000Y-39500000D01*
D39*
X130200000Y-89750000D02*
X130200000Y-90550000D01*
X131550000Y-89750000D02*
X131550000Y-90450000D01*
D40*
X111501140Y-111498860D02*
X111501140Y-114599440D01*
D39*
X127050000Y-93250000D02*
X127499998Y-93250000D01*
X126500000Y-93800000D02*
X127050000Y-93250000D01*
X126500000Y-92000000D02*
X125250000Y-92000000D01*
X122050000Y-93800000D02*
X122250000Y-94000000D01*
X122450000Y-87047383D02*
X122998427Y-86498956D01*
D42*
X88750000Y-82000000D02*
X91000000Y-82000000D01*
D39*
X125300000Y-44800000D02*
X125250000Y-44750000D01*
X123800000Y-87250000D02*
X123800000Y-86934040D01*
X123800000Y-86934040D02*
X124246531Y-86487509D01*
X123800000Y-87250000D02*
X123800000Y-86934040D01*
X122250000Y-82300000D02*
X122200000Y-82250000D01*
D41*
X97000000Y-40000000D02*
X96750000Y-40000000D01*
D39*
X122250000Y-83000000D02*
X122250000Y-82300000D01*
X123550000Y-82250000D02*
X123550000Y-82938194D01*
D43*
X124975000Y-67500000D02*
X124000000Y-67500000D01*
D39*
X122230003Y-48050000D02*
X122250000Y-48030003D01*
X121000000Y-48050000D02*
X122230003Y-48050000D01*
X121000000Y-46450000D02*
X122230003Y-46450000D01*
X126250000Y-44800000D02*
X125300000Y-44800000D01*
D41*
X97000000Y-40000000D02*
X97000000Y-40750000D01*
D39*
X125300000Y-48950000D02*
X125250000Y-49000000D01*
X126250000Y-48950000D02*
X125300000Y-48950000D01*
X132050000Y-49000000D02*
X132050000Y-48050000D01*
X131550000Y-43500000D02*
X131250000Y-43200000D01*
X122230003Y-48050000D02*
X122250000Y-48030003D01*
X130200000Y-42700000D02*
X130000000Y-42500000D01*
X125450000Y-42450000D02*
X125500000Y-42500000D01*
D40*
X98950001Y-107799999D02*
X99250000Y-107500000D01*
D39*
X125450000Y-41500000D02*
X125450000Y-42450000D01*
D40*
X112500000Y-111482505D02*
X111517495Y-111482505D01*
D39*
X122530003Y-36330003D02*
X122530003Y-37250000D01*
X122200000Y-36000000D02*
X122530003Y-36330003D01*
X123800000Y-36000000D02*
X123800000Y-36550000D01*
X127500000Y-25950000D02*
X127500000Y-25370009D01*
X124500000Y-25950000D02*
X124500000Y-25370009D01*
X125184496Y-71250000D02*
X125217248Y-71282752D01*
X126879991Y-25370009D02*
X126837812Y-25412188D01*
X124500000Y-71950000D02*
X124500000Y-71250000D01*
X125184496Y-71250000D02*
X125217248Y-71282752D01*
X124500000Y-71250000D02*
X125184496Y-71250000D01*
X127500000Y-71250000D02*
X126796726Y-71250000D01*
X106191372Y-52250000D02*
X111441373Y-57500000D01*
D40*
X112500000Y-111482505D02*
X112500000Y-111000000D01*
D42*
X88750000Y-36000000D02*
X91000000Y-36000000D01*
D40*
X111517495Y-111482505D02*
X111501140Y-111498860D01*
D41*
X97000000Y-40000000D02*
X97000000Y-40750000D01*
D40*
X119499600Y-112000400D02*
X119500000Y-112000000D01*
D41*
X96250000Y-39500000D02*
X94750000Y-39500000D01*
X97000000Y-40000000D02*
X98000000Y-40000000D01*
X96500000Y-85500000D02*
X94750000Y-85500000D01*
D40*
X123500100Y-114599440D02*
X123500100Y-112000100D01*
D41*
X97000000Y-85750000D02*
X97000000Y-86500000D01*
X97000000Y-85750000D02*
X98000000Y-85750000D01*
D39*
X126796726Y-71250000D02*
X126773363Y-71226637D01*
D40*
X98498880Y-108251120D02*
X98950001Y-107799999D01*
X98498880Y-114200660D02*
X98498880Y-108251120D01*
D42*
X93000000Y-40495888D02*
X93000000Y-44500000D01*
D39*
X123000000Y-21500000D02*
X123000000Y-20750000D01*
X127525000Y-21500000D02*
X128500000Y-21500000D01*
X82600000Y-72000000D02*
X81000000Y-72000000D01*
D42*
X93000000Y-40495888D02*
X90754112Y-40495888D01*
X90000000Y-41000000D02*
X89295998Y-41000000D01*
D39*
X123800000Y-86934040D02*
X124246531Y-86487509D01*
D42*
X88500000Y-41000000D02*
X88500000Y-38500000D01*
D39*
X121990010Y-92450000D02*
X122250000Y-92709990D01*
D42*
X88500000Y-38500000D02*
X88750000Y-38250000D01*
X88750000Y-36000000D02*
X88250000Y-36000000D01*
X94750000Y-39500000D02*
X94750000Y-38825000D01*
X94750000Y-36000000D02*
X94000000Y-36000000D01*
X94000000Y-36000000D02*
X94000000Y-33750000D01*
X95250000Y-36000000D02*
X96000000Y-35250000D01*
D39*
X122025000Y-21500000D02*
X123000000Y-21500000D01*
D42*
X88750000Y-36000000D02*
X88750000Y-33750000D01*
X88750000Y-33750000D02*
X88500000Y-33500000D01*
X88500000Y-33500000D02*
X88500000Y-31750000D01*
X96000000Y-35250000D02*
X97750000Y-35250000D01*
X94000000Y-36000000D02*
X94000000Y-33750000D01*
X91000000Y-36000000D02*
X91250000Y-36250000D01*
X88250000Y-36000000D02*
X86500000Y-36000000D01*
X88500000Y-38500000D02*
X88750000Y-38250000D01*
X88750000Y-38250000D02*
X88750000Y-36000000D01*
X88500000Y-41000000D02*
X88500000Y-38500000D01*
X90754112Y-40495888D02*
X90750000Y-40500000D01*
X93000000Y-40495888D02*
X93000000Y-44500000D01*
X93000000Y-40495888D02*
X90754112Y-40495888D01*
X90000000Y-87000000D02*
X88500000Y-87000000D01*
D40*
X98498880Y-108251120D02*
X98950001Y-107799999D01*
D43*
X130225000Y-67500000D02*
X129500000Y-67500000D01*
X127275000Y-67500000D02*
X128000000Y-67500000D01*
D40*
X122499340Y-114599440D02*
X122499340Y-112000660D01*
X122499340Y-112000660D02*
X122500000Y-112000000D01*
D43*
X124000000Y-67500000D02*
X124000000Y-66755002D01*
D40*
X127500600Y-114599440D02*
X127500600Y-112000600D01*
X127500600Y-112000600D02*
X127500000Y-112000000D01*
X130500340Y-111000340D02*
X130500000Y-111000000D01*
D42*
X94750000Y-36000000D02*
X94000000Y-36000000D01*
D40*
X117500620Y-112000620D02*
X117500000Y-112000000D01*
X114500880Y-112000880D02*
X114500000Y-112000000D01*
X101501160Y-111001160D02*
X101500000Y-111000000D01*
D42*
X88750000Y-82000000D02*
X86500000Y-82000000D01*
D39*
X123198280Y-37151720D02*
X123198280Y-37399607D01*
X122050000Y-93800000D02*
X122250000Y-94000000D01*
X127500000Y-25950000D02*
X127500000Y-25370009D01*
D42*
X96295998Y-81250000D02*
X97750000Y-81250000D01*
D40*
X123500100Y-112000100D02*
X123500000Y-112000000D01*
D42*
X94750000Y-38825000D02*
X94750000Y-36000000D01*
D39*
X78750000Y-41000000D02*
X77000000Y-41000000D01*
D42*
X88750000Y-36000000D02*
X88750000Y-33750000D01*
X95250000Y-36000000D02*
X96000000Y-35250000D01*
X94750000Y-85500000D02*
X94750000Y-84825000D01*
D41*
X97000000Y-85750000D02*
X97000000Y-86500000D01*
D39*
X124000000Y-21500000D02*
X124000000Y-20750000D01*
X128500000Y-21500000D02*
X128500000Y-20750000D01*
X125450000Y-42450000D02*
X125500000Y-42500000D01*
X130475000Y-21500000D02*
X129500000Y-21500000D01*
D42*
X93000000Y-85500000D02*
X93000000Y-86506948D01*
D39*
X82600000Y-26000000D02*
X81000000Y-26000000D01*
D42*
X88750000Y-36000000D02*
X88250000Y-36000000D01*
D39*
X131550000Y-89750000D02*
X131550000Y-90450000D01*
X126500000Y-92000000D02*
X125250000Y-92000000D01*
D42*
X93000000Y-39500000D02*
X93000000Y-40495888D01*
D39*
X122450000Y-87047383D02*
X122998427Y-86498956D01*
D42*
X94750000Y-85500000D02*
X93000000Y-85500000D01*
X94750000Y-84825000D02*
X94750000Y-82000000D01*
D39*
X122450000Y-87250000D02*
X122450000Y-87047383D01*
D42*
X94750000Y-82000000D02*
X95545998Y-82000000D01*
D39*
X121000000Y-48050000D02*
X122230003Y-48050000D01*
X122230003Y-46450000D02*
X122250000Y-46469997D01*
X125300000Y-44800000D02*
X125250000Y-44750000D01*
X125300000Y-48950000D02*
X125250000Y-49000000D01*
X126250000Y-48950000D02*
X125300000Y-48950000D01*
X130500000Y-48011798D02*
X130574996Y-47936802D01*
X132050000Y-48050000D02*
X132000000Y-48000000D01*
D42*
X94750000Y-36000000D02*
X95250000Y-36000000D01*
D39*
X125450000Y-41500000D02*
X125450000Y-42450000D01*
X122530003Y-36330003D02*
X122530003Y-37250000D01*
X122950000Y-41500000D02*
X122950000Y-42442483D01*
X127500000Y-25370009D02*
X126879991Y-25370009D01*
X78750000Y-79000000D02*
X77000000Y-79000000D01*
D42*
X89295998Y-41000000D02*
X88500000Y-41000000D01*
D39*
X127050000Y-93250000D02*
X127499998Y-93250000D01*
X126879991Y-25370009D02*
X126837812Y-25412188D01*
X130200000Y-42700000D02*
X130000000Y-42500000D01*
D42*
X88500000Y-84250000D02*
X88750000Y-84000000D01*
D43*
X124000000Y-66755002D02*
X124005002Y-66750000D01*
D39*
X123800000Y-36000000D02*
X123800000Y-36550000D01*
D40*
X126499840Y-114599440D02*
X126499840Y-112000160D01*
D41*
X97000000Y-40000000D02*
X98000000Y-40000000D01*
D40*
X126500000Y-112000000D02*
X126500000Y-111000000D01*
D39*
X127500000Y-71950000D02*
X127500000Y-71250000D01*
X130500000Y-49000000D02*
X130500000Y-48011798D01*
D40*
X126499840Y-112000160D02*
X126500000Y-112000000D01*
D41*
X97000000Y-85750000D02*
X98000000Y-85750000D01*
D42*
X90754112Y-40495888D02*
X90504112Y-40495888D01*
D39*
X78750000Y-87000000D02*
X77000000Y-87000000D01*
X131550000Y-90450000D02*
X131250000Y-90750000D01*
D40*
X119499600Y-114599440D02*
X119499600Y-112000400D01*
X130500340Y-114599440D02*
X130500340Y-111000340D01*
D39*
X123800000Y-36550000D02*
X123198280Y-37151720D01*
D41*
X96750000Y-40000000D02*
X96250000Y-39500000D01*
X96500000Y-85500000D02*
X94750000Y-85500000D01*
D39*
X124500000Y-71950000D02*
X124500000Y-71250000D01*
X127500000Y-71250000D02*
X126796726Y-71250000D01*
D40*
X112500000Y-112000000D02*
X112500000Y-111482505D01*
X111501140Y-111498860D02*
X111501140Y-114599440D01*
D39*
X121000000Y-46450000D02*
X122230003Y-46450000D01*
D42*
X94750000Y-39500000D02*
X94750000Y-38825000D01*
X91000000Y-82000000D02*
X91250000Y-82250000D01*
D39*
X124500000Y-25950000D02*
X124500000Y-25370009D01*
D42*
X90000000Y-41000000D02*
X89295998Y-41000000D01*
D40*
X117500000Y-112000000D02*
X117500000Y-111000000D01*
D39*
X130200000Y-43500000D02*
X130200000Y-42700000D01*
X123550000Y-82938194D02*
X123675004Y-83063198D01*
D42*
X90493052Y-86506948D02*
X90000000Y-87000000D01*
X88500000Y-87000000D02*
X88500000Y-84250000D01*
X88750000Y-84000000D02*
X88750000Y-82000000D01*
X88750000Y-82000000D02*
X88750000Y-79750000D01*
X88500000Y-79500000D02*
X88500000Y-77500000D01*
X94000000Y-82000000D02*
X94000000Y-79500000D01*
D39*
X111441373Y-57500000D02*
X112750000Y-57500000D01*
X122950000Y-42442483D02*
X123003749Y-42496232D01*
X121250000Y-92450000D02*
X121990010Y-92450000D01*
X103000000Y-81070285D02*
X103000000Y-81500000D01*
X103000000Y-70750000D02*
X103000000Y-81070285D01*
X101825009Y-69575009D02*
X103000000Y-70750000D01*
X100674991Y-69575009D02*
X101825009Y-69575009D01*
X100250000Y-70000000D02*
X100674991Y-69575009D01*
X109691270Y-92691270D02*
X109691270Y-101799394D01*
X109691270Y-101799394D02*
X111750000Y-103858124D01*
X109209970Y-92209970D02*
X109691270Y-92691270D01*
X109209970Y-84784342D02*
X109209970Y-92209970D01*
X108215658Y-83790030D02*
X109209970Y-84784342D01*
X111750000Y-103858124D02*
X111750000Y-104250000D01*
X102069991Y-82144365D02*
X103715655Y-83790030D01*
X102069990Y-71819990D02*
X102069991Y-82144365D01*
X101500000Y-71250000D02*
X102069990Y-71819990D01*
X100500000Y-71250000D02*
X101500000Y-71250000D01*
X103715655Y-83790030D02*
X108215658Y-83790030D01*
X100250000Y-71000000D02*
X100500000Y-71250000D01*
X100250000Y-70000000D02*
X100250000Y-71000000D01*
X110894998Y-101144998D02*
X110894998Y-101250000D01*
X110551290Y-92301290D02*
X110551290Y-100801290D01*
X110069990Y-84428114D02*
X110069990Y-91819990D01*
X108571886Y-82930010D02*
X110069990Y-84428114D01*
X104071885Y-82930010D02*
X108571886Y-82930010D01*
X103069990Y-81928115D02*
X104071885Y-82930010D01*
X110551290Y-100801290D02*
X110894998Y-101144998D01*
X110069990Y-91819990D02*
X110551290Y-92301290D01*
X103000000Y-81858124D02*
X103069990Y-81928115D01*
X103000000Y-81070285D02*
X103000000Y-81858124D01*
X101858124Y-52250000D02*
X101304062Y-52804062D01*
X102250000Y-52315165D02*
X102184835Y-52250000D01*
X102250000Y-53250000D02*
X102250000Y-52315165D01*
X102184835Y-52250000D02*
X101858124Y-52250000D01*
X103250000Y-52250000D02*
X102184835Y-52250000D01*
X101304062Y-52804062D02*
X100750000Y-53358124D01*
X99709599Y-54605001D02*
X99394999Y-54290401D01*
X99394999Y-54290401D02*
X99394999Y-53355001D01*
X100290401Y-54605001D02*
X99709599Y-54605001D01*
X100750000Y-54145402D02*
X100290401Y-54605001D01*
X100750000Y-53358124D02*
X100750000Y-54145402D01*
X101380010Y-51369990D02*
X102387383Y-51369990D01*
X99394999Y-53355001D02*
X101380010Y-51369990D01*
X106527612Y-51369990D02*
X108250000Y-53092379D01*
X102387383Y-51369990D02*
X106527612Y-51369990D01*
X111158671Y-56001050D02*
X112579200Y-56001050D01*
X108250000Y-53092379D02*
X111158671Y-56001050D01*
D40*
X154210000Y-60040000D02*
X154250000Y-60000000D01*
X152020000Y-60040000D02*
X154210000Y-60040000D01*
X152020000Y-57500000D02*
X154250000Y-57500000D01*
X154170000Y-52420000D02*
X154250000Y-52500000D01*
X152020000Y-52420000D02*
X154170000Y-52420000D01*
D44*
X81000000Y-26000000D02*
X81000000Y-27250000D01*
X81000000Y-26000000D02*
X81000000Y-24750000D01*
X77000000Y-33000000D02*
X77000000Y-31750000D01*
X77000000Y-33000000D02*
X77000000Y-34250000D01*
X77000000Y-41000000D02*
X77000000Y-39750000D01*
X77000000Y-41000000D02*
X77000000Y-42250000D01*
X81000000Y-72000000D02*
X81000000Y-70750000D01*
X81000000Y-72000000D02*
X81000000Y-73250000D01*
X77000000Y-79000000D02*
X77000000Y-80250000D01*
X77000000Y-79000000D02*
X77000000Y-77750000D01*
X77000000Y-87000000D02*
X77000000Y-85750000D01*
X77000000Y-88000000D02*
X77250000Y-88250000D01*
X77000000Y-87000000D02*
X77000000Y-88000000D01*
X70000000Y-92000000D02*
X70000000Y-90000000D01*
X70000000Y-92000000D02*
X70000000Y-94000000D01*
X70000000Y-97000000D02*
X69920000Y-97080000D01*
X70000000Y-94000000D02*
X70000000Y-97000000D01*
X73540000Y-94540000D02*
X73500000Y-94500000D01*
X75000000Y-94540000D02*
X73540000Y-94540000D01*
X75000000Y-94540000D02*
X75000000Y-96000000D01*
X74960000Y-94540000D02*
X74000000Y-95500000D01*
X75000000Y-94540000D02*
X74960000Y-94540000D01*
X70000000Y-46000000D02*
X70000000Y-44000000D01*
X70000000Y-46000000D02*
X70000000Y-48000000D01*
X70000000Y-51000000D02*
X69920000Y-51080000D01*
X70000000Y-48000000D02*
X70000000Y-51000000D01*
X75000000Y-48540000D02*
X75000000Y-50000000D01*
X73540000Y-48540000D02*
X73500000Y-48500000D01*
X75000000Y-48540000D02*
X73540000Y-48540000D01*
X74960000Y-48540000D02*
X74000000Y-49500000D01*
X75000000Y-48540000D02*
X74960000Y-48540000D01*
D41*
X128000000Y-27429990D02*
X127879990Y-27429990D01*
X127879990Y-27429990D02*
X127500000Y-27050000D01*
X128259388Y-73518777D02*
X127968777Y-73518777D01*
X127968777Y-73518777D02*
X127500000Y-73050000D01*
D39*
X121300000Y-36000000D02*
X121300000Y-36800000D01*
X121300000Y-36800000D02*
X121750000Y-37250000D01*
X124550000Y-41500000D02*
X124550000Y-40450000D01*
X124550000Y-40450000D02*
X124750000Y-40250000D01*
X129300000Y-43500000D02*
X129300000Y-42523801D01*
X129300000Y-42523801D02*
X129221891Y-42445692D01*
X132950000Y-49000000D02*
X132950000Y-49800677D01*
X132950000Y-49800677D02*
X132734610Y-50016067D01*
X127300000Y-45700000D02*
X127500000Y-45500000D01*
X126250000Y-45700000D02*
X127300000Y-45700000D01*
X121000000Y-48950000D02*
X120199323Y-48950000D01*
X120199323Y-48950000D02*
X119983933Y-48734610D01*
X121300000Y-82250000D02*
X121300000Y-81450000D01*
X121300000Y-81450000D02*
X121750000Y-81000000D01*
X124700000Y-87250000D02*
X124700000Y-88450000D01*
X124700000Y-88450000D02*
X124750000Y-88500000D01*
X121250000Y-94700000D02*
X122169997Y-94700000D01*
X122169997Y-94700000D02*
X122250000Y-94780003D01*
X126500000Y-91100000D02*
X127100000Y-91100000D01*
X127100000Y-91100000D02*
X127500000Y-91500000D01*
X132450000Y-95000000D02*
X132450000Y-95894277D01*
X132450000Y-95894277D02*
X132553761Y-95998038D01*
X129300000Y-89750000D02*
X129300000Y-88700008D01*
X129300000Y-88700008D02*
X129500008Y-88500000D01*
X128259388Y-73518777D02*
X127481223Y-73518777D01*
X127481223Y-73518777D02*
X126759842Y-74240158D01*
X124179185Y-74240158D02*
X123754921Y-74240158D01*
X126759842Y-74240158D02*
X124179185Y-74240158D01*
D43*
X123700000Y-28269990D02*
X127160000Y-28269990D01*
X127160000Y-28269990D02*
X128000000Y-27429990D01*
X128000000Y-27429990D02*
X128000000Y-27500000D01*
D39*
X120490158Y-74240158D02*
X123754921Y-74240158D01*
X115750000Y-69500000D02*
X120490158Y-74240158D01*
D41*
X124000000Y-27500000D02*
X124050000Y-27500000D01*
X124050000Y-27500000D02*
X124500000Y-27050000D01*
D39*
X123749942Y-73460162D02*
X124089838Y-73460162D01*
X124089838Y-73460162D02*
X124500000Y-73050000D01*
X124700000Y-36000000D02*
X124700000Y-36404602D01*
X124700000Y-36404602D02*
X123979886Y-37124716D01*
X123979886Y-37124716D02*
X123979886Y-37373868D01*
X122050000Y-41500000D02*
X122050000Y-40555612D01*
X122050000Y-40555612D02*
X122317811Y-40287801D01*
X132450000Y-43500000D02*
X132450000Y-42919997D01*
X132450000Y-42919997D02*
X132030003Y-42500000D01*
X129600000Y-49000000D02*
X129600000Y-49600000D01*
X129600000Y-49600000D02*
X130000000Y-50000000D01*
X126250000Y-48050000D02*
X127444316Y-48050000D01*
X127444316Y-48050000D02*
X127588155Y-48193839D01*
X121000000Y-45550000D02*
X120462587Y-45550000D01*
X120462587Y-45550000D02*
X120007579Y-46005008D01*
X124450000Y-82250000D02*
X124450000Y-81778452D01*
X124450000Y-81778452D02*
X123472804Y-80801256D01*
X121550000Y-87250000D02*
X121550000Y-87800000D01*
X121550000Y-87800000D02*
X122250000Y-88500000D01*
X127200001Y-94549999D02*
X127050000Y-94700000D01*
X127050000Y-94700000D02*
X126500000Y-94700000D01*
X127500000Y-94030013D02*
X127200001Y-94330012D01*
X127200001Y-94330012D02*
X127200001Y-94549999D01*
X129300000Y-95800000D02*
X129500000Y-96000000D01*
X129500000Y-96000000D02*
X130000000Y-96000000D01*
X129300000Y-95000000D02*
X129300000Y-95800000D01*
X132450000Y-89750000D02*
X132450000Y-88700000D01*
X132450000Y-88700000D02*
X132000000Y-88250000D01*
X122300000Y-91550000D02*
X122500000Y-91750000D01*
X121250000Y-91550000D02*
X122300000Y-91550000D01*
X124549999Y-103299999D02*
X124250000Y-103000000D01*
X124549999Y-104450001D02*
X124549999Y-103299999D01*
X123580060Y-105419940D02*
X124549999Y-104450001D01*
X109000000Y-98750000D02*
X109000000Y-102500000D01*
X111919940Y-105419940D02*
X123580060Y-105419940D01*
X108250000Y-98000000D02*
X109000000Y-98750000D01*
X90500000Y-98000000D02*
X108250000Y-98000000D01*
X88500000Y-96000000D02*
X90500000Y-98000000D01*
X109000000Y-102500000D02*
X111919940Y-105419940D01*
X87980010Y-92730010D02*
X88500000Y-93250000D01*
X79301174Y-92730010D02*
X87980010Y-92730010D01*
X72519991Y-85948827D02*
X79301174Y-92730010D01*
X88500000Y-93250000D02*
X88500000Y-96000000D01*
X72519990Y-79269990D02*
X72519991Y-85948827D01*
X71750000Y-78500000D02*
X72519990Y-79269990D01*
X66000000Y-78500000D02*
X71750000Y-78500000D01*
D44*
X135250000Y-31500000D02*
X139000000Y-31500000D01*
D39*
X118246474Y-47750000D02*
X118319990Y-47823516D01*
X108021885Y-55549999D02*
X111006896Y-58535011D01*
X107049999Y-55549999D02*
X108021885Y-55549999D01*
X106750000Y-55250000D02*
X107049999Y-55549999D01*
X117750000Y-47253527D02*
X118246474Y-47750000D01*
X117750000Y-43000000D02*
X117750000Y-47253527D01*
X118819990Y-41930010D02*
X117750000Y-43000000D01*
X118819990Y-33574398D02*
X118819990Y-41930010D01*
X120697194Y-31697194D02*
X118819990Y-33574398D01*
X117714989Y-58535011D02*
X118250000Y-58000000D01*
X115830366Y-58535011D02*
X117714989Y-58535011D01*
X111006896Y-58535011D02*
X115830366Y-58535011D01*
X115830366Y-58535011D02*
X116214988Y-58535011D01*
X118819990Y-57430010D02*
X118250000Y-58000000D01*
X118819990Y-48323516D02*
X118819990Y-57430010D01*
X118246474Y-47750000D02*
X118819990Y-48323516D01*
X109429980Y-60000000D02*
X109500000Y-59929980D01*
X102000000Y-59973222D02*
X101973222Y-60000000D01*
X102000000Y-59750000D02*
X102000000Y-59973222D01*
X101973222Y-60000000D02*
X109429980Y-60000000D01*
X104654215Y-64429990D02*
X111250000Y-64429990D01*
X94000000Y-60000000D02*
X101973222Y-60000000D01*
X93000000Y-59000000D02*
X94000000Y-60000000D01*
X93000000Y-55500000D02*
X93000000Y-59000000D01*
X92240381Y-64259619D02*
X93000000Y-63500000D01*
X92240381Y-64728505D02*
X92240381Y-64259619D01*
X92616877Y-65105001D02*
X92240381Y-64728505D01*
X96394999Y-65105001D02*
X92616877Y-65105001D01*
X97070010Y-64429990D02*
X96394999Y-65105001D01*
X104654215Y-64429990D02*
X97070010Y-64429990D01*
D44*
X95040000Y-92820010D02*
X95000000Y-92780010D01*
X95040000Y-94500000D02*
X95040000Y-92820010D01*
X95040000Y-96210000D02*
X95000000Y-96250000D01*
X95040000Y-94500000D02*
X95040000Y-96210000D01*
X105250000Y-90000000D02*
X104250000Y-90000000D01*
X106960000Y-90000000D02*
X107000000Y-90040000D01*
X105250000Y-90000000D02*
X106960000Y-90000000D01*
X95040000Y-46820010D02*
X95000000Y-46780010D01*
X95040000Y-48500000D02*
X95040000Y-46820010D01*
X95040000Y-48960000D02*
X94000000Y-50000000D01*
X95040000Y-48500000D02*
X95040000Y-48960000D01*
X105250000Y-44000000D02*
X104500000Y-44000000D01*
X106960000Y-44000000D02*
X107000000Y-44040000D01*
X105250000Y-44000000D02*
X106960000Y-44000000D01*
D40*
X99500000Y-112000000D02*
X99500000Y-111000000D01*
X99499640Y-112000360D02*
X99500000Y-112000000D01*
X99499640Y-114599440D02*
X99499640Y-112000360D01*
X100500400Y-112000400D02*
X100500000Y-112000000D01*
X100500400Y-114599440D02*
X100500400Y-112000400D01*
X100500000Y-112000000D02*
X100500000Y-111000000D01*
D38*
X136250000Y-65000000D02*
X135400000Y-65000000D01*
X137750000Y-63500000D02*
X137250000Y-64000000D01*
X137750000Y-62900000D02*
X137750000Y-63500000D01*
X136600000Y-64000000D02*
X136000000Y-63400000D01*
X137250000Y-64000000D02*
X136600000Y-64000000D01*
D39*
X129775000Y-56000000D02*
X129500000Y-56275000D01*
X130350000Y-56000000D02*
X129775000Y-56000000D01*
X129500000Y-56275000D02*
X129500000Y-56500000D01*
D40*
X154170000Y-62580000D02*
X154250000Y-62500000D01*
X152020000Y-62580000D02*
X154170000Y-62580000D01*
D39*
X102499380Y-109750620D02*
X105540030Y-106709970D01*
X105540030Y-106709970D02*
X130465656Y-106709970D01*
X102499380Y-114599440D02*
X102499380Y-109750620D01*
X141565155Y-95610472D02*
X141565154Y-95610472D01*
X142750000Y-92000000D02*
X142750000Y-94425627D01*
X141565154Y-95610472D02*
X142110018Y-95065608D01*
X142750000Y-94425627D02*
X141565155Y-95610472D01*
X130465656Y-106709970D02*
X141565154Y-95610472D01*
X103500140Y-112349190D02*
X103500140Y-114599440D01*
X105718144Y-107139980D02*
X103500140Y-109357984D01*
X130643771Y-107139980D02*
X105718144Y-107139980D01*
X103500140Y-109357984D02*
X103500140Y-112349190D01*
X143500000Y-94283751D02*
X142344142Y-95439609D01*
X143500000Y-89450000D02*
X143500000Y-94283751D01*
X142344142Y-95439609D02*
X130643771Y-107139980D01*
X142540028Y-95243723D02*
X142344142Y-95439609D01*
X105930010Y-107569990D02*
X130821886Y-107569990D01*
X104500900Y-114599440D02*
X104500900Y-112349190D01*
X103930150Y-111778440D02*
X103930150Y-109569850D01*
X104500900Y-112349190D02*
X103930150Y-111778440D01*
X103930150Y-109569850D02*
X105930010Y-107569990D01*
X144250000Y-94141876D02*
X142910544Y-95481332D01*
X144250000Y-92000000D02*
X144250000Y-94141876D01*
X142910544Y-95481332D02*
X143000000Y-95391876D01*
X130821886Y-107569990D02*
X142910544Y-95481332D01*
X105499120Y-114599440D02*
X105499120Y-110000880D01*
X105499120Y-110000880D02*
X105500000Y-110000000D01*
D43*
X105500000Y-114598560D02*
X105499120Y-114599440D01*
D39*
X105799999Y-109700001D02*
X105500000Y-110000000D01*
X131000000Y-108000000D02*
X107500000Y-108000000D01*
X107500000Y-108000000D02*
X105799999Y-109700001D01*
X145250000Y-93750000D02*
X143316919Y-95683081D01*
X145250000Y-89450000D02*
X145250000Y-93750000D01*
X143316919Y-95683081D02*
X131000000Y-108000000D01*
X143430010Y-95569990D02*
X143316919Y-95683081D01*
D38*
X75250000Y-56818298D02*
X75250000Y-60750000D01*
X75250000Y-56320258D02*
X75250000Y-56818298D01*
D41*
X75250000Y-56284902D02*
X75250000Y-56818298D01*
X80229892Y-51305010D02*
X75250000Y-56284902D01*
X88754990Y-51305010D02*
X80229892Y-51305010D01*
X89960000Y-50100000D02*
X88754990Y-51305010D01*
X89960000Y-48500000D02*
X89960000Y-50100000D01*
X74694990Y-60196374D02*
X74500000Y-60391364D01*
X74694990Y-56090366D02*
X74694990Y-60196374D01*
X74500000Y-62500000D02*
X75250000Y-63250000D01*
X74500000Y-60391364D02*
X74500000Y-62500000D01*
X85250000Y-34500000D02*
X85250000Y-35000000D01*
X85250000Y-35000000D02*
X84250000Y-36000000D01*
X84250000Y-36000000D02*
X84250000Y-40000000D01*
X84250000Y-40000000D02*
X87500000Y-43250000D01*
X87500000Y-43250000D02*
X87500000Y-49750000D01*
X87500000Y-49750000D02*
X86475000Y-50775000D01*
X80010356Y-50775000D02*
X75121716Y-55663640D01*
X86475000Y-50775000D02*
X80010356Y-50775000D01*
X75121716Y-55663640D02*
X74694990Y-56090366D01*
X75313339Y-55472017D02*
X75121716Y-55663640D01*
X103500000Y-48500000D02*
X103500000Y-40000000D01*
X104540000Y-38960000D02*
X107000000Y-38960000D01*
X100164980Y-51835020D02*
X103500000Y-48500000D01*
X80449428Y-51835020D02*
X100164980Y-51835020D01*
X103500000Y-40000000D02*
X104540000Y-38960000D01*
X75805010Y-56479438D02*
X80449428Y-51835020D01*
X75805010Y-60055010D02*
X75805010Y-56479438D01*
X76000000Y-60250000D02*
X75805010Y-60055010D01*
X76000000Y-61250000D02*
X76000000Y-60250000D01*
X75250000Y-62000000D02*
X76000000Y-61250000D01*
X73000000Y-85750000D02*
X73000000Y-75750000D01*
X79500000Y-92250000D02*
X73000000Y-85750000D01*
X89310000Y-92250000D02*
X79500000Y-92250000D01*
X89960000Y-92900000D02*
X89310000Y-92250000D01*
X89960000Y-94500000D02*
X89960000Y-92900000D01*
X77750000Y-69714304D02*
X77750000Y-69290040D01*
X85250000Y-80750000D02*
X77750000Y-73250000D01*
X77750000Y-73250000D02*
X77750000Y-69714304D01*
X73750000Y-75780003D02*
X73780003Y-75750000D01*
X73750000Y-76445549D02*
X73750000Y-75780003D01*
X73530010Y-85530010D02*
X73530010Y-76665539D01*
X74337199Y-86337199D02*
X73530010Y-85530010D01*
X74337199Y-86337653D02*
X74337199Y-86337199D01*
X79719536Y-91719990D02*
X74337199Y-86337653D01*
X98640010Y-91719990D02*
X79719536Y-91719990D01*
X105400000Y-84960000D02*
X98640010Y-91719990D01*
X73530010Y-76665539D02*
X73750000Y-76445549D01*
X107000000Y-84960000D02*
X105400000Y-84960000D01*
X87500000Y-35000000D02*
X87500000Y-32500000D01*
X91500000Y-41500000D02*
X91500000Y-43500000D01*
X91500000Y-43500000D02*
X92000000Y-43500000D01*
D39*
X113250000Y-56750000D02*
X114000000Y-57500000D01*
X106349497Y-51800000D02*
X111299497Y-56750000D01*
X111299497Y-56750000D02*
X113250000Y-56750000D01*
X114000000Y-57500000D02*
X115500000Y-57500000D01*
X102565498Y-51800000D02*
X101700000Y-51800000D01*
X102565498Y-51800000D02*
X106349497Y-51800000D01*
X100000000Y-53500000D02*
X100000000Y-54000000D01*
X101700000Y-51800000D02*
X100000000Y-53500000D01*
X129000000Y-24000000D02*
X129000000Y-23025000D01*
X123500000Y-24000000D02*
X123500000Y-23025000D01*
X111185011Y-58105001D02*
X107750000Y-54669990D01*
X116144999Y-58105001D02*
X111185011Y-58105001D01*
X116750000Y-57500000D02*
X116144999Y-58105001D01*
X117500000Y-57500000D02*
X116750000Y-57500000D01*
X108750000Y-82500000D02*
X110500000Y-84250000D01*
X103500000Y-81750000D02*
X104250000Y-82500000D01*
X103500000Y-70250000D02*
X103500000Y-81750000D01*
X100105001Y-69144999D02*
X102394999Y-69144999D01*
X99500000Y-69750000D02*
X100105001Y-69144999D01*
X102394999Y-69144999D02*
X103500000Y-70250000D01*
X104250000Y-82500000D02*
X108750000Y-82500000D01*
X114500000Y-102500000D02*
X113250000Y-103750000D01*
X114500000Y-93250000D02*
X114500000Y-102500000D01*
X113307415Y-92057415D02*
X110500000Y-89250000D01*
X110500000Y-89250000D02*
X110500000Y-87535805D01*
X110500000Y-84250000D02*
X110500000Y-87535805D01*
X112043161Y-90793161D02*
X113307415Y-92057415D01*
X113307415Y-92057415D02*
X114500000Y-93250000D01*
D41*
X128750000Y-70000000D02*
X128750000Y-69025000D01*
X123500000Y-70000000D02*
X123500000Y-69025000D01*
D39*
X112200001Y-103700001D02*
X112500000Y-104000000D01*
X110121280Y-101621280D02*
X112200001Y-103700001D01*
X110121280Y-92513155D02*
X110121280Y-101621280D01*
X109639980Y-84606228D02*
X109639980Y-92031856D01*
X108393772Y-83360020D02*
X109639980Y-84606228D01*
X103893770Y-83360020D02*
X108393772Y-83360020D01*
X102500000Y-81966249D02*
X103893770Y-83360020D01*
X102500000Y-71250000D02*
X102500000Y-81966249D01*
X101750000Y-70500000D02*
X102500000Y-71250000D01*
X109639980Y-92031856D02*
X110121280Y-92513155D01*
X101000000Y-70500000D02*
X101750000Y-70500000D01*
X131000000Y-31500000D02*
X132280010Y-30219990D01*
X121500000Y-31750000D02*
X125000000Y-31750000D01*
X119250000Y-34000000D02*
X121500000Y-31750000D01*
X132280010Y-30219990D02*
X132280010Y-28910020D01*
X125000000Y-31750000D02*
X125605001Y-31144999D01*
X119250000Y-42250000D02*
X119250000Y-34000000D01*
X118250000Y-43250000D02*
X119250000Y-42250000D01*
X118250000Y-47145402D02*
X118250000Y-43250000D01*
X119250000Y-48145402D02*
X118250000Y-47145402D01*
X125605001Y-31144999D02*
X129644999Y-31144999D01*
X119250000Y-55075736D02*
X119250000Y-48145402D01*
X121750000Y-57575736D02*
X119250000Y-55075736D01*
X130000000Y-31500000D02*
X131000000Y-31500000D01*
X129644999Y-31144999D02*
X130000000Y-31500000D01*
X121750000Y-58000000D02*
X121750000Y-57575736D01*
X129250000Y-71500000D02*
X130750000Y-71500000D01*
X128250000Y-70500000D02*
X129250000Y-71500000D01*
X124000000Y-70500000D02*
X128250000Y-70500000D01*
X123500000Y-71000000D02*
X124000000Y-70500000D01*
X120500000Y-71000000D02*
X123500000Y-71000000D01*
X119500000Y-70000000D02*
X120500000Y-71000000D01*
X130904174Y-62613326D02*
X131204173Y-62313327D01*
X130288455Y-63229045D02*
X130904174Y-62613326D01*
X125536836Y-63229045D02*
X130288455Y-63229045D01*
X125137811Y-62830020D02*
X125536836Y-63229045D01*
X124915290Y-63680191D02*
X130677933Y-63680191D01*
X124485099Y-63250000D02*
X124915290Y-63680191D01*
X131862215Y-62890031D02*
X132286479Y-62890031D01*
X131468093Y-62890031D02*
X131862215Y-62890031D01*
X130677933Y-63680191D02*
X131468093Y-62890031D01*
X124000000Y-63250000D02*
X124485099Y-63250000D01*
X141250000Y-52105001D02*
X141250000Y-51500000D01*
X141250000Y-53750000D02*
X141250000Y-52105001D01*
X143605001Y-56105001D02*
X141250000Y-53750000D01*
X145000000Y-73250000D02*
X144290030Y-72540030D01*
X143860020Y-85501896D02*
X143860020Y-75000000D01*
X146000000Y-87641876D02*
X143860020Y-85501896D01*
X143860020Y-75000000D02*
X145000000Y-73860020D01*
X145000000Y-73860020D02*
X145000000Y-73250000D01*
X146000000Y-90250000D02*
X146000000Y-87641876D01*
X145680010Y-90569990D02*
X146000000Y-90250000D01*
X145680010Y-93928115D02*
X145680010Y-90569990D01*
X144290030Y-59387569D02*
X143605001Y-58702540D01*
X144290030Y-72540030D02*
X144290030Y-59387569D01*
X132500000Y-107108124D02*
X145680010Y-93928115D01*
X143605001Y-58702540D02*
X143605001Y-56105001D01*
X131178115Y-108430010D02*
X132500000Y-107108124D01*
X109069990Y-108430010D02*
X131178115Y-108430010D01*
X107750000Y-109750000D02*
X109069990Y-108430010D01*
X107750000Y-110500000D02*
X107750000Y-109750000D01*
D42*
X113000000Y-88250000D02*
X113000000Y-90000000D01*
X113000000Y-90000000D02*
X113500000Y-90500000D01*
X113750000Y-87500000D02*
X113000000Y-88250000D01*
X115250000Y-87500000D02*
X113750000Y-87500000D01*
X116000000Y-88250000D02*
X115250000Y-87500000D01*
X116000000Y-90000000D02*
X116000000Y-88250000D01*
X115500000Y-90500000D02*
X116000000Y-90000000D01*
X113500000Y-90500000D02*
X115500000Y-90500000D01*
X109000000Y-97000000D02*
X108632908Y-97000000D01*
X109250000Y-96750000D02*
X109000000Y-97000000D01*
X109250000Y-93500000D02*
X109250000Y-96750000D01*
X105750000Y-93250000D02*
X109000000Y-93250000D01*
X109000000Y-93250000D02*
X109250000Y-93500000D01*
X104750000Y-94250000D02*
X105750000Y-93250000D01*
X104750000Y-96250000D02*
X104750000Y-94250000D01*
X105500000Y-97000000D02*
X104750000Y-96250000D01*
X108632908Y-97000000D02*
X105500000Y-97000000D01*
X116000000Y-42000000D02*
X116000000Y-43750000D01*
X115500000Y-41500000D02*
X113500000Y-41500000D01*
X113000000Y-43956243D02*
X113000000Y-44000000D01*
X113000000Y-44000000D02*
X113250000Y-44250000D01*
X113250000Y-44250000D02*
X115500000Y-44250000D01*
X115500000Y-44250000D02*
X116000000Y-43750000D01*
X116000000Y-42000000D02*
X115500000Y-41500000D01*
X113500000Y-41500000D02*
X113000000Y-42000000D01*
X113000000Y-42000000D02*
X113000000Y-43956243D01*
X108120291Y-50750000D02*
X105500000Y-50750000D01*
X105500000Y-50750000D02*
X105000000Y-50250000D01*
X105000000Y-50250000D02*
X105000000Y-48000000D01*
X105000000Y-48000000D02*
X105500000Y-47500000D01*
X108500000Y-47500000D02*
X109000000Y-48000000D01*
X105500000Y-47500000D02*
X108500000Y-47500000D01*
X109000000Y-48000000D02*
X109000000Y-50250000D01*
X109000000Y-50250000D02*
X108500000Y-50750000D01*
X108500000Y-50750000D02*
X108120291Y-50750000D01*
D41*
X82000000Y-33000000D02*
X80250000Y-33000000D01*
X90550000Y-37500000D02*
X91325736Y-37500000D01*
X90500000Y-37450000D02*
X90550000Y-37500000D01*
X91325736Y-37500000D02*
X91750000Y-37500000D01*
X89500000Y-39500000D02*
X89500000Y-37500000D01*
X90450000Y-37500000D02*
X90500000Y-37450000D01*
X89500000Y-37500000D02*
X90450000Y-37500000D01*
X89500000Y-39500000D02*
X91500000Y-39500000D01*
D40*
X138750000Y-75780003D02*
X139500000Y-75780003D01*
X129764896Y-77775050D02*
X131275050Y-77775050D01*
X130686629Y-77775050D02*
X129764896Y-77775050D01*
X131275050Y-77775050D02*
X131750000Y-78250000D01*
D38*
X131750000Y-78256402D02*
X132493598Y-79000000D01*
X131750000Y-78250000D02*
X131750000Y-78256402D01*
X132493598Y-79000000D02*
X133250000Y-79000000D01*
D40*
X133750000Y-78500000D02*
X133250000Y-79000000D01*
X133750000Y-77000000D02*
X133750000Y-78500000D01*
X134750000Y-76000000D02*
X133750000Y-77000000D01*
X138000000Y-76000000D02*
X134750000Y-76000000D01*
X138219997Y-75780003D02*
X138000000Y-76000000D01*
X138750000Y-75780003D02*
X138219997Y-75780003D01*
X123936628Y-77775050D02*
X129764896Y-77775050D01*
X123621658Y-78090020D02*
X123936628Y-77775050D01*
X121843440Y-78090020D02*
X123621658Y-78090020D01*
X121343439Y-77590019D02*
X121843440Y-78090020D01*
X119590019Y-77590019D02*
X121343439Y-77590019D01*
X117250000Y-75250000D02*
X119590019Y-77590019D01*
X113250000Y-75250000D02*
X117250000Y-75250000D01*
X111490262Y-29250000D02*
X109750000Y-29250000D01*
X112500000Y-29250000D02*
X111490262Y-29250000D01*
X157000000Y-40499940D02*
X157000000Y-41749940D01*
X149330402Y-26250000D02*
X157000000Y-33919598D01*
X136961738Y-26250000D02*
X149330402Y-26250000D01*
X136281729Y-26930010D02*
X136961738Y-26250000D01*
X129267074Y-29930010D02*
X132267073Y-26930010D01*
X124819990Y-29930010D02*
X129267074Y-29930010D01*
X157000000Y-33919598D02*
X157000000Y-40499940D01*
X123609979Y-31140021D02*
X124819990Y-29930010D01*
X132267073Y-26930010D02*
X136281729Y-26930010D01*
X121220423Y-31140021D02*
X123609979Y-31140021D01*
X119330402Y-29250000D02*
X121220423Y-31140021D01*
X111490262Y-29250000D02*
X119330402Y-29250000D01*
X137500000Y-24750060D02*
X136000060Y-26250000D01*
X128985405Y-29250000D02*
X120500000Y-29250000D01*
X136000060Y-26250000D02*
X131985405Y-26250000D01*
X131985405Y-26250000D02*
X128985405Y-29250000D01*
X120500000Y-29250000D02*
X118500000Y-27250000D01*
X118500000Y-27250000D02*
X116516189Y-27250000D01*
X117980001Y-73230001D02*
X117980001Y-73730001D01*
X117980001Y-73730001D02*
X118000000Y-73750000D01*
X138750000Y-75000000D02*
X139500000Y-75000000D01*
X117250000Y-72500000D02*
X117980001Y-73230001D01*
X118000000Y-74959166D02*
X118000000Y-73750000D01*
X119950844Y-76910010D02*
X118000000Y-74959166D01*
X121625109Y-76910011D02*
X119950844Y-76910010D01*
X123339989Y-77410011D02*
X122125108Y-77410010D01*
X123654960Y-77095040D02*
X123339989Y-77410011D01*
X122125108Y-77410010D02*
X121625109Y-76910011D01*
X130689862Y-77095040D02*
X123654960Y-77095040D01*
X132534902Y-75250000D02*
X130689862Y-77095040D01*
X137750000Y-75250000D02*
X132534902Y-75250000D01*
X138000000Y-75000000D02*
X137750000Y-75250000D01*
X138750000Y-75000000D02*
X138000000Y-75000000D01*
X116516189Y-27250000D02*
X116000000Y-27250000D01*
X117000000Y-27250000D02*
X116516189Y-27250000D01*
D39*
X136500000Y-66000000D02*
X136500000Y-67535019D01*
D41*
X87500000Y-37000000D02*
X87500000Y-39500000D01*
X95250000Y-34250000D02*
X95000000Y-34500000D01*
X97000000Y-34250000D02*
X95250000Y-34250000D01*
X94750000Y-41500000D02*
X94750000Y-43500000D01*
X94750000Y-43500000D02*
X94000000Y-43500000D01*
X97000000Y-36250000D02*
X97000000Y-38000000D01*
D39*
X123750000Y-52500000D02*
X123750000Y-53250000D01*
X122750000Y-51500000D02*
X123750000Y-52500000D01*
X122250000Y-51500000D02*
X122750000Y-51500000D01*
X126049035Y-62799035D02*
X129577115Y-62799035D01*
X129577115Y-62799035D02*
X130404646Y-61971504D01*
X125450001Y-62200001D02*
X126049035Y-62799035D01*
X124549999Y-62200001D02*
X125450001Y-62200001D01*
X124250000Y-62500000D02*
X124549999Y-62200001D01*
D43*
X118540580Y-60429990D02*
X118577287Y-60466697D01*
D39*
X92575736Y-54000000D02*
X93000000Y-54000000D01*
X92394999Y-54180737D02*
X92575736Y-54000000D01*
X92394999Y-59290655D02*
X92394999Y-54180737D01*
X93639325Y-60534981D02*
X92394999Y-59290655D01*
X110569617Y-60534981D02*
X93639325Y-60534981D01*
X118505589Y-60394999D02*
X110709599Y-60394999D01*
X110709599Y-60394999D02*
X110569617Y-60534981D01*
X118577287Y-60466697D02*
X118505589Y-60394999D01*
X95000000Y-64500000D02*
X93000000Y-64500000D01*
X97415130Y-62084870D02*
X95000000Y-64500000D01*
X109939468Y-62084870D02*
X97415130Y-62084870D01*
X111209599Y-63355001D02*
X109939468Y-62084870D01*
X114894999Y-63355001D02*
X111209599Y-63355001D01*
X117250000Y-61000000D02*
X114894999Y-63355001D01*
X118000000Y-61000000D02*
X117250000Y-61000000D01*
D41*
X91500000Y-87500000D02*
X91500000Y-89500000D01*
X91500000Y-89500000D02*
X92000000Y-89500000D01*
X96750000Y-80500000D02*
X97000000Y-80250000D01*
X95000000Y-80500000D02*
X96750000Y-80500000D01*
D43*
X119302451Y-60230925D02*
X119320812Y-60230925D01*
D39*
X104924264Y-59394990D02*
X105029274Y-59500000D01*
X104500000Y-59394990D02*
X104924264Y-59394990D01*
X105029274Y-59500000D02*
X109000000Y-59500000D01*
X110466854Y-59324979D02*
X110891875Y-59750000D01*
X109175021Y-59324979D02*
X110466854Y-59324979D01*
X109000000Y-59500000D02*
X109175021Y-59324979D01*
X118839887Y-59750000D02*
X119320812Y-60230925D01*
X110891875Y-59750000D02*
X118839887Y-59750000D01*
X105324989Y-63824989D02*
X115425011Y-63824989D01*
X104750000Y-63250000D02*
X105324989Y-63824989D01*
X117250000Y-62000000D02*
X118000000Y-62000000D01*
X115425011Y-63824989D02*
X117250000Y-62000000D01*
X132750000Y-64750000D02*
X132525524Y-64974476D01*
X132525524Y-64974476D02*
X132284991Y-65215009D01*
X132284991Y-65215009D02*
X120251239Y-65215009D01*
X73965392Y-68680010D02*
X73145402Y-69500000D01*
X120251239Y-65215009D02*
X116786238Y-68680010D01*
X73145402Y-69500000D02*
X67250000Y-69500000D01*
X116786238Y-68680010D02*
X73965392Y-68680010D01*
X134750000Y-62750000D02*
X132525524Y-64974476D01*
X134750000Y-60556114D02*
X134750000Y-62750000D01*
X135778057Y-59528057D02*
X134750000Y-60556114D01*
X121360391Y-75214989D02*
X121290401Y-75144999D01*
X123214989Y-75214989D02*
X121360391Y-75214989D01*
X130069990Y-75680010D02*
X123680010Y-75680010D01*
X121290401Y-75144999D02*
X120605001Y-75144999D01*
X123680010Y-75680010D02*
X123214989Y-75214989D01*
X120605001Y-75144999D02*
X120250000Y-75500000D01*
X137503473Y-68246527D02*
X137819990Y-67930010D01*
X137744980Y-68005020D02*
X137503473Y-68246527D01*
X137503473Y-68246527D02*
X130069990Y-75680010D01*
X137819990Y-64430010D02*
X138187848Y-64062152D01*
X137819990Y-67930010D02*
X137819990Y-64430010D01*
X138187848Y-64062152D02*
X138500000Y-63750000D01*
X122500000Y-90750000D02*
X120807275Y-90750000D01*
X120807275Y-90750000D02*
X120604598Y-90750000D01*
X123325736Y-103644990D02*
X123750000Y-103644990D01*
X121844990Y-103644990D02*
X123325736Y-103644990D01*
X119750000Y-101550000D02*
X121844990Y-103644990D01*
X119750000Y-93750000D02*
X119750000Y-101550000D01*
X118919300Y-92919300D02*
X119750000Y-93750000D01*
X118919300Y-91580700D02*
X118919300Y-92919300D01*
X119750000Y-90750000D02*
X118919300Y-91580700D01*
X120807275Y-90750000D02*
X119750000Y-90750000D01*
X127750000Y-46500000D02*
X126315392Y-46500000D01*
X126315392Y-46500000D02*
X125307387Y-47508005D01*
X125307387Y-47508005D02*
X125222955Y-47508005D01*
X120419998Y-103969991D02*
X120719997Y-104269990D01*
X118644990Y-102194983D02*
X119133970Y-102683963D01*
X118644990Y-96750000D02*
X118644990Y-102194983D01*
X119133970Y-102683963D02*
X120419998Y-103969991D01*
X118669321Y-102219314D02*
X119133970Y-102683963D01*
X119500000Y-75674264D02*
X119500000Y-75250000D01*
X121855001Y-76355001D02*
X120180737Y-76355001D01*
X123040401Y-76855001D02*
X122355001Y-76855001D01*
X123355372Y-76540030D02*
X123040401Y-76855001D01*
X130459970Y-76540030D02*
X123355372Y-76540030D01*
X120180737Y-76355001D02*
X119500000Y-75674264D01*
X138680010Y-68319990D02*
X130459970Y-76540030D01*
X138680010Y-65178114D02*
X138680010Y-68319990D01*
X139535011Y-64323114D02*
X138680010Y-65178114D01*
X139535011Y-62785011D02*
X139535011Y-64323114D01*
X122355001Y-76855001D02*
X121855001Y-76355001D01*
X139000000Y-62250000D02*
X139535011Y-62785011D01*
X118000000Y-88500000D02*
X118500000Y-88000000D01*
X118000000Y-93250000D02*
X118000000Y-88500000D01*
X118644990Y-96750000D02*
X118644990Y-93894990D01*
X118644990Y-93894990D02*
X118000000Y-93250000D01*
X126424264Y-38499996D02*
X126000000Y-38499996D01*
X132838795Y-35523678D02*
X129862477Y-38499996D01*
X129862477Y-38499996D02*
X126424264Y-38499996D01*
X121424264Y-75750000D02*
X121000000Y-75750000D01*
X121529265Y-75644999D02*
X121424264Y-75750000D01*
X123036875Y-75644999D02*
X121529265Y-75644999D01*
X123501896Y-76110020D02*
X123036875Y-75644999D01*
X130281856Y-76110020D02*
X123501896Y-76110020D01*
X138250000Y-68141876D02*
X130281856Y-76110020D01*
X138250000Y-65000000D02*
X138250000Y-68141876D01*
X139105001Y-64144999D02*
X138250000Y-65000000D01*
X139105001Y-63355001D02*
X139105001Y-64144999D01*
X138750000Y-63000000D02*
X139105001Y-63355001D01*
X119250000Y-101850000D02*
X121500000Y-104100000D01*
X121500000Y-104100000D02*
X121500000Y-104269990D01*
X120500000Y-89500000D02*
X119000000Y-89500000D01*
X119000000Y-89500000D02*
X118489290Y-90010710D01*
X118489290Y-90010710D02*
X118489290Y-93131166D01*
X118489290Y-93131166D02*
X119250000Y-93891876D01*
X119250000Y-93891876D02*
X119250000Y-101850000D01*
X128950001Y-33444977D02*
X129250000Y-33144978D01*
X127144978Y-35250000D02*
X128950001Y-33444977D01*
X126250000Y-35250000D02*
X127144978Y-35250000D01*
D43*
X129500000Y-28000000D02*
X129305010Y-28194990D01*
X129305010Y-28194990D02*
X128500000Y-28194990D01*
X129500000Y-25250000D02*
X129500000Y-28000000D01*
X129049999Y-24799999D02*
X129500000Y-25250000D01*
X117250000Y-24500000D02*
X117549999Y-24799999D01*
X117549999Y-24799999D02*
X129049999Y-24799999D01*
D39*
X108747186Y-58147188D02*
X108447187Y-58447187D01*
X109897188Y-58147188D02*
X108747186Y-58147188D01*
X110715021Y-58965021D02*
X109897188Y-58147188D01*
X118750391Y-58965021D02*
X110715021Y-58965021D01*
X118965412Y-58750000D02*
X118750391Y-58965021D01*
X119500000Y-58750000D02*
X118965412Y-58750000D01*
X135838580Y-58560514D02*
X135831361Y-58560514D01*
X135831361Y-58560514D02*
X135563819Y-58828056D01*
X135563819Y-58828056D02*
X135372837Y-59019038D01*
X135372837Y-59019038D02*
X134250000Y-60141875D01*
D43*
X135380056Y-59019038D02*
X135372837Y-59019038D01*
D39*
X131961680Y-64750000D02*
X131537915Y-64750000D01*
X131537915Y-64750000D02*
X120108124Y-64750000D01*
X116608124Y-68250000D02*
X73500000Y-68250000D01*
X120108124Y-64750000D02*
X116608124Y-68250000D01*
X132013480Y-64750000D02*
X131537915Y-64750000D01*
X134250000Y-62513480D02*
X132013480Y-64750000D01*
X134250000Y-60141875D02*
X134250000Y-62513480D01*
X124500000Y-49750000D02*
X128250004Y-49750000D01*
X122250000Y-44750000D02*
X122674264Y-44750000D01*
X123750000Y-45825736D02*
X123750000Y-49000000D01*
X122674264Y-44750000D02*
X123750000Y-45825736D01*
X128250004Y-49750000D02*
X131200005Y-52700001D01*
X131200005Y-52700001D02*
X131500004Y-53000000D01*
X123750000Y-49000000D02*
X124500000Y-49750000D01*
X137854990Y-47395010D02*
X138750000Y-46500000D01*
X136499597Y-51355001D02*
X137320625Y-51355001D01*
X137320625Y-51355001D02*
X137854990Y-50820636D01*
X136144999Y-51709599D02*
X136499597Y-51355001D01*
X136144999Y-53790401D02*
X136144999Y-51709599D01*
X135635401Y-54299999D02*
X136144999Y-53790401D01*
X137854990Y-50820636D02*
X137854990Y-47395010D01*
X132800003Y-54299999D02*
X135635401Y-54299999D01*
X131500004Y-53000000D02*
X132800003Y-54299999D01*
D42*
X126419999Y-50169999D02*
X126500000Y-50250000D01*
X125430010Y-50180010D02*
X125711588Y-50180010D01*
X125711588Y-50180010D02*
X125721599Y-50169999D01*
X125721599Y-50169999D02*
X126419999Y-50169999D01*
D39*
X124286885Y-50145010D02*
X124321885Y-50180010D01*
X124321885Y-50180010D02*
X125430010Y-50180010D01*
X123250000Y-46064600D02*
X123250000Y-49108124D01*
X123250000Y-49108124D02*
X124286885Y-50145010D01*
X122540401Y-45355001D02*
X123250000Y-46064600D01*
X121000000Y-42750000D02*
X121644999Y-43394999D01*
X121644999Y-43394999D02*
X121644999Y-45040401D01*
X121644999Y-45040401D02*
X121959599Y-45355001D01*
X121959599Y-45355001D02*
X122540401Y-45355001D01*
D43*
X121299999Y-39549999D02*
X121000000Y-39250000D01*
X126250000Y-36030003D02*
X125429999Y-36850004D01*
X125429999Y-38913603D02*
X124793603Y-39549999D01*
X125429999Y-36850004D02*
X125429999Y-38913603D01*
X124793603Y-39549999D02*
X121299999Y-39549999D01*
D39*
X131561644Y-54061642D02*
X131549999Y-54049997D01*
X126500000Y-50250000D02*
X127699692Y-50250000D01*
X131549999Y-54049997D02*
X131281792Y-53781790D01*
X130931483Y-53481791D02*
X131231482Y-53781790D01*
X127699692Y-50250000D02*
X130931483Y-53481791D01*
X131281792Y-53781790D02*
X131231482Y-53781790D01*
X136345403Y-54799999D02*
X132300001Y-54799999D01*
X131733052Y-54233050D02*
X131549999Y-54049997D01*
X132300001Y-54799999D02*
X131733052Y-54233050D01*
X137355001Y-51928750D02*
X137355001Y-53790401D01*
X138285000Y-50998751D02*
X137355001Y-51928750D01*
X137355001Y-53790401D02*
X136345403Y-54799999D01*
X138285000Y-49965000D02*
X138285000Y-50998751D01*
X138750000Y-49500000D02*
X138285000Y-49965000D01*
X131452032Y-63795050D02*
X131752031Y-63495051D01*
X124310289Y-63970592D02*
X124610288Y-64270591D01*
X130976491Y-64270591D02*
X131452032Y-63795050D01*
X124610288Y-64270591D02*
X130976491Y-64270591D01*
X132200001Y-60950001D02*
X132500000Y-61250000D01*
X131950001Y-60950001D02*
X132200001Y-60950001D01*
X131569990Y-60569990D02*
X131950001Y-60950001D01*
X131069990Y-60569990D02*
X131569990Y-60569990D01*
X121913981Y-59250000D02*
X129750001Y-59250000D01*
X115558981Y-65605000D02*
X121913981Y-59250000D01*
X76605000Y-65605000D02*
X115558981Y-65605000D01*
X129750001Y-59250000D02*
X131069990Y-60569990D01*
X72000000Y-61000000D02*
X76605000Y-65605000D01*
X130891875Y-61000000D02*
X131354598Y-61000000D01*
X115717165Y-66054940D02*
X121576204Y-60195901D01*
X129571886Y-59680010D02*
X130891875Y-61000000D01*
X131354598Y-61000000D02*
X132209599Y-61855001D01*
X121837804Y-59945946D02*
X126804054Y-59945946D01*
X121587849Y-60195901D02*
X121837804Y-59945946D01*
X133105001Y-61855001D02*
X133250000Y-62000000D01*
X132209599Y-61855001D02*
X133105001Y-61855001D01*
X127069990Y-59680010D02*
X129571886Y-59680010D01*
X121576204Y-60195901D02*
X121587849Y-60195901D01*
X126804054Y-59945946D02*
X127069990Y-59680010D01*
X111750000Y-66054940D02*
X115717165Y-66054940D01*
X115717165Y-66054940D02*
X115737097Y-66035008D01*
X76446815Y-66054940D02*
X111750000Y-66054940D01*
X76356896Y-65965021D02*
X76446815Y-66054940D01*
X72641876Y-62250000D02*
X76356896Y-65965021D01*
X72000000Y-62250000D02*
X72641876Y-62250000D01*
X132771308Y-62496772D02*
X133071307Y-62796771D01*
X132559547Y-62285011D02*
X132771308Y-62496772D01*
X129393771Y-60110020D02*
X130783752Y-61500000D01*
X122015919Y-60375956D02*
X127016421Y-60375956D01*
X121679573Y-60712303D02*
X122015919Y-60375956D01*
X121667926Y-60712303D02*
X121679573Y-60712303D01*
X130783752Y-61500000D02*
X131246473Y-61500000D01*
X127016421Y-60375956D02*
X127282357Y-60110020D01*
X127282357Y-60110020D02*
X129393771Y-60110020D01*
X116318964Y-66061265D02*
X121667926Y-60712303D01*
X131246473Y-61500000D02*
X132031484Y-62285011D01*
X132031484Y-62285011D02*
X132559547Y-62285011D01*
X116318964Y-66061265D02*
X116065115Y-66315114D01*
X76250000Y-66500000D02*
X115880229Y-66500000D01*
X115880229Y-66500000D02*
X116318964Y-66061265D01*
X73250000Y-63500000D02*
X76250000Y-66500000D01*
X72000000Y-63500000D02*
X73250000Y-63500000D01*
X116028383Y-66959970D02*
X76101845Y-66959970D01*
X76101845Y-66959970D02*
X76071885Y-66930010D01*
X122194034Y-60805966D02*
X116590110Y-66409890D01*
X116590110Y-66409890D02*
X116578463Y-66409890D01*
X116578463Y-66409890D02*
X116028383Y-66959970D01*
X127649264Y-60805966D02*
X122194034Y-60805966D01*
X73891876Y-64750000D02*
X76071885Y-66930010D01*
X72000000Y-64750000D02*
X73891876Y-64750000D01*
X72000000Y-66250000D02*
X74750000Y-66250000D01*
X74750000Y-66250000D02*
X75889980Y-67389980D01*
X75889980Y-67389980D02*
X116218144Y-67389980D01*
X116218144Y-67389980D02*
X116654637Y-66953487D01*
X122372148Y-61235976D02*
X116654637Y-66953487D01*
X116654637Y-66953487D02*
X116429062Y-67179062D01*
X127183872Y-61235976D02*
X122372148Y-61235976D01*
X129783289Y-61499998D02*
X127447894Y-61499998D01*
X127447894Y-61499998D02*
X127183872Y-61235976D01*
X72000000Y-67500000D02*
X75391876Y-67500000D01*
X75391876Y-67500000D02*
X75711865Y-67819990D01*
X75711865Y-67819990D02*
X116430010Y-67819990D01*
X122584014Y-61665986D02*
X126696951Y-61665986D01*
X116430010Y-67819990D02*
X122584014Y-61665986D01*
X126696951Y-61665986D02*
X127224999Y-62194034D01*
X127224999Y-62194034D02*
X127649263Y-62194034D01*
X140413629Y-54355001D02*
X139209601Y-54355001D01*
X144120060Y-73750000D02*
X144120060Y-73010040D01*
X139209601Y-54355001D02*
X139174570Y-54319970D01*
X139174570Y-54319970D02*
X138750019Y-54319970D01*
X143860020Y-72750000D02*
X143860020Y-59565683D01*
X142250000Y-57955663D02*
X142250000Y-56191372D01*
X143860020Y-59565683D02*
X142250000Y-57955663D01*
X144120060Y-73010040D02*
X143860020Y-72750000D01*
X142250000Y-56191372D02*
X140413629Y-54355001D01*
X138750000Y-51750000D02*
X138750000Y-52999998D01*
X140180010Y-50319990D02*
X138750000Y-51750000D01*
X140180010Y-44571885D02*
X140180010Y-50319990D01*
X138750000Y-52999998D02*
X139500002Y-53750000D01*
X139865682Y-44257558D02*
X140180010Y-44571885D01*
X139865682Y-41384318D02*
X139865682Y-44257558D01*
X150750000Y-30500000D02*
X139865682Y-41384318D01*
X152500000Y-30500000D02*
X150750000Y-30500000D01*
X108498860Y-109751140D02*
X108498860Y-114599440D01*
X146110020Y-94106228D02*
X131356228Y-108860020D01*
X146430010Y-87430010D02*
X146430010Y-90428115D01*
X144290030Y-85290030D02*
X146430010Y-87430010D01*
X145430010Y-73071885D02*
X145430010Y-74038135D01*
X145430010Y-74038135D02*
X144290030Y-75178114D01*
X146651008Y-69348992D02*
X144720040Y-71279960D01*
X145750000Y-67250000D02*
X146651008Y-68151008D01*
X145750000Y-63500000D02*
X145750000Y-67250000D01*
X146110020Y-90748104D02*
X146110020Y-94106228D01*
X146651008Y-68151008D02*
X146651008Y-69348992D01*
X144720040Y-59209454D02*
X144720040Y-62470040D01*
X144035011Y-58524426D02*
X144720040Y-59209454D01*
X131356228Y-108860020D02*
X109389980Y-108860020D01*
X142000000Y-53891876D02*
X144035011Y-55926886D01*
X144720040Y-71279960D02*
X144720040Y-72361916D01*
X144720040Y-72361916D02*
X145430010Y-73071885D01*
X144720040Y-62470040D02*
X145750000Y-63500000D01*
X109389980Y-108860020D02*
X108498860Y-109751140D01*
X144290030Y-75178114D02*
X144290030Y-85290030D01*
X142000000Y-51750000D02*
X142000000Y-53891876D01*
X146430010Y-90428115D02*
X146110020Y-90748104D01*
X142101544Y-51648456D02*
X142000000Y-51750000D01*
X144035011Y-55926886D02*
X144035011Y-58524426D01*
X142101544Y-51248454D02*
X142101544Y-51648456D01*
X141801545Y-50948455D02*
X142101544Y-51248454D01*
D41*
X80250000Y-79000000D02*
X82000000Y-79000000D01*
D39*
X123869361Y-75250000D02*
X127298089Y-75250000D01*
X123404340Y-74784979D02*
X123869361Y-75250000D01*
X127298089Y-75250000D02*
X128249375Y-74298714D01*
X121538506Y-74784979D02*
X123404340Y-74784979D01*
X121468516Y-74714989D02*
X121538506Y-74784979D01*
X120214989Y-74714989D02*
X121468516Y-74714989D01*
X119250000Y-73750000D02*
X120214989Y-74714989D01*
X118780003Y-73750000D02*
X119250000Y-73750000D01*
D41*
X87500000Y-83000000D02*
X87500000Y-85500000D01*
X87500000Y-78500000D02*
X87500000Y-81000000D01*
X94750000Y-89500000D02*
X94000000Y-89500000D01*
X94750000Y-87500000D02*
X94750000Y-89500000D01*
X97000000Y-82250000D02*
X97000000Y-83750000D01*
D39*
X124000000Y-98000000D02*
X122000000Y-96000000D01*
X124000000Y-99250000D02*
X124000000Y-98000000D01*
X124750000Y-38750000D02*
X124750000Y-37250004D01*
X126395402Y-43500000D02*
X125500000Y-43500000D01*
X130250000Y-45000000D02*
X129825736Y-45000000D01*
X128250403Y-45355001D02*
X126395402Y-43500000D01*
X129825736Y-45000000D02*
X129470735Y-45355001D01*
X129470735Y-45355001D02*
X128250403Y-45355001D01*
X131250000Y-47000000D02*
X130250000Y-46000000D01*
X128750000Y-44750000D02*
X128644990Y-44750000D01*
X128644990Y-44750000D02*
X127394990Y-43500000D01*
X125225852Y-93742466D02*
X126338317Y-92630001D01*
X126338317Y-92630001D02*
X127619999Y-92630001D01*
X127619999Y-92630001D02*
X127750000Y-92500000D01*
X126549999Y-89269979D02*
X126250000Y-88969980D01*
X130250000Y-91500000D02*
X128780020Y-91500000D01*
X128780020Y-91500000D02*
X126549999Y-89269979D01*
X124750000Y-83144990D02*
X124750000Y-84105010D01*
X124750000Y-84105010D02*
X123750000Y-85105010D01*
X126674262Y-84250000D02*
X126249998Y-84250000D01*
X132838795Y-81523678D02*
X130112473Y-84250000D01*
X130112473Y-84250000D02*
X126674262Y-84250000D01*
X129105024Y-79144976D02*
X129250000Y-79144976D01*
X126750000Y-81500000D02*
X129105024Y-79144976D01*
X129750000Y-92250000D02*
X130250000Y-92250000D01*
X130250000Y-92250000D02*
X131000000Y-93000000D01*
X129052806Y-90697194D02*
X127325592Y-88969980D01*
X127325592Y-88969980D02*
X127250000Y-88969980D01*
D41*
X90800000Y-34550000D02*
X91450001Y-35200001D01*
X90500000Y-34550000D02*
X90800000Y-34550000D01*
X91450001Y-35200001D02*
X91750000Y-35500000D01*
X86000000Y-26000000D02*
X84400000Y-26000000D01*
X92950000Y-34550000D02*
X93000000Y-34500000D01*
X90500000Y-34550000D02*
X92950000Y-34550000D01*
X89500000Y-32500000D02*
X89500000Y-34500000D01*
X90450000Y-34500000D02*
X90500000Y-34550000D01*
X89500000Y-34500000D02*
X90450000Y-34500000D01*
X80250000Y-41000000D02*
X82000000Y-41000000D01*
X91600000Y-81400000D02*
X90750000Y-80550000D01*
X90750000Y-80550000D02*
X90500000Y-80550000D01*
X92950000Y-80550000D02*
X93000000Y-80500000D01*
X90500000Y-80550000D02*
X92950000Y-80550000D01*
X89500000Y-78500000D02*
X89500000Y-80500000D01*
X90450000Y-80500000D02*
X90500000Y-80550000D01*
X89500000Y-80500000D02*
X90450000Y-80500000D01*
X84400000Y-72000000D02*
X86000000Y-72000000D01*
X91325736Y-83500000D02*
X91750000Y-83500000D01*
X90550000Y-83500000D02*
X91325736Y-83500000D01*
X90500000Y-83450000D02*
X90550000Y-83500000D01*
X89500000Y-85500000D02*
X89500000Y-83500000D01*
X90450000Y-83500000D02*
X90500000Y-83450000D01*
X89500000Y-83500000D02*
X90450000Y-83500000D01*
X91500000Y-85500000D02*
X89500000Y-85500000D01*
X80250000Y-87000000D02*
X82000000Y-87000000D01*
D39*
X143750000Y-54500000D02*
X144250000Y-55000000D01*
X143750000Y-51250000D02*
X143750000Y-54500000D01*
D43*
X131424980Y-60174980D02*
X133028084Y-60174980D01*
X130500000Y-56750000D02*
X129906188Y-57343812D01*
X132850000Y-56750000D02*
X130500000Y-56750000D01*
X129906188Y-57343812D02*
X129906188Y-58656188D01*
X129906188Y-58656188D02*
X131424980Y-60174980D01*
X133028084Y-60174980D02*
X133301552Y-60448448D01*
X139883397Y-55383397D02*
X139927081Y-55427081D01*
X140250000Y-55750000D02*
X139927081Y-55427081D01*
X134216603Y-55383397D02*
X139883397Y-55383397D01*
X134216603Y-55383397D02*
X132850000Y-56750000D01*
X134145917Y-59604082D02*
X134504239Y-59245760D01*
X135070020Y-58207370D02*
X135070020Y-58679980D01*
X135070020Y-58679980D02*
X134504240Y-59245760D01*
X134504240Y-59245760D02*
X134504239Y-59245760D01*
X135319334Y-57958056D02*
X135070020Y-58207370D01*
X136240673Y-57958056D02*
X136458056Y-57958056D01*
X135791943Y-57958056D02*
X136240673Y-57958056D01*
X136240673Y-57958056D02*
X135319334Y-57958056D01*
D39*
X103500000Y-105250000D02*
X104099950Y-105849950D01*
X104099950Y-105849950D02*
X104337091Y-105849950D01*
X104337091Y-105849950D02*
X104187770Y-105849950D01*
X136928187Y-58000000D02*
X136689626Y-58000000D01*
D43*
X136458056Y-57958056D02*
X136500000Y-58000000D01*
X136500000Y-58000000D02*
X136928187Y-58000000D01*
D39*
X130109426Y-105849950D02*
X104337091Y-105849950D01*
X141249998Y-94709378D02*
X130109426Y-105849950D01*
X141249998Y-60749998D02*
X141249998Y-94709378D01*
X138500000Y-58000000D02*
X141249998Y-60749998D01*
X136928187Y-58000000D02*
X138500000Y-58000000D01*
D43*
X133935028Y-59814972D02*
X134145917Y-59604082D01*
X131766182Y-59814972D02*
X133935028Y-59814972D01*
X131220222Y-59269012D02*
X131766182Y-59814972D01*
X131220222Y-58057000D02*
X131220222Y-59269012D01*
X136628618Y-57569990D02*
X135198270Y-57569990D01*
X135198270Y-57569990D02*
X134710010Y-58058250D01*
X133785907Y-59454962D02*
X131915302Y-59454962D01*
X134710010Y-58058250D02*
X134710010Y-58530859D01*
X131915302Y-59454962D02*
X131596706Y-59136366D01*
X134710010Y-58530859D02*
X133785907Y-59454962D01*
X131596706Y-59136366D02*
X131596706Y-58570395D01*
X131470056Y-57442478D02*
X130776188Y-57442478D01*
X130776188Y-57442478D02*
X130476189Y-57742477D01*
X131596706Y-58570395D02*
X131790223Y-58376878D01*
X131790223Y-57762645D02*
X131470056Y-57442478D01*
X131790223Y-58376878D02*
X131790223Y-57762645D01*
X131596706Y-58570395D02*
X131740146Y-58426955D01*
D39*
X141680008Y-60571883D02*
X138678115Y-57569990D01*
X138678115Y-57569990D02*
X136628618Y-57569990D01*
X130287541Y-106279960D02*
X141680008Y-94887493D01*
X141680008Y-94887493D02*
X141680008Y-60571883D01*
X103029960Y-106279960D02*
X130287541Y-106279960D01*
X102000000Y-105250000D02*
X103029960Y-106279960D01*
D43*
X136709970Y-56709970D02*
X135040030Y-56709970D01*
X135040030Y-56709970D02*
X133750000Y-58000000D01*
D39*
X136709970Y-56709970D02*
X139034345Y-56709970D01*
X142540028Y-60215653D02*
X142255308Y-59930933D01*
X142540028Y-86790028D02*
X142540028Y-60215653D01*
X143500000Y-87750000D02*
X142540028Y-86790028D01*
X143500000Y-88550000D02*
X143500000Y-87750000D01*
X142255308Y-59930933D02*
X142367733Y-60043358D01*
X139034345Y-56709970D02*
X142255308Y-59930933D01*
D43*
X136494980Y-56255020D02*
X134651378Y-56255020D01*
X134651378Y-56255020D02*
X133040956Y-57865442D01*
X133040956Y-57865442D02*
X133040956Y-58005716D01*
X133040956Y-58005716D02*
X133040956Y-58429980D01*
D39*
X139187519Y-56255020D02*
X136494980Y-56255020D01*
X143000000Y-60067500D02*
X139187519Y-56255020D01*
X143000000Y-86250000D02*
X143000000Y-60067500D01*
X144250000Y-87500000D02*
X143000000Y-86250000D01*
X144250000Y-91100000D02*
X144250000Y-87500000D01*
D43*
X136500000Y-57139980D02*
X135119150Y-57139980D01*
X135119150Y-57139980D02*
X134350000Y-57909130D01*
X134350000Y-57909130D02*
X134350000Y-58381738D01*
X134350000Y-58381738D02*
X133701758Y-59029980D01*
X133701758Y-59029980D02*
X132789390Y-59029980D01*
X132789390Y-59029980D02*
X132644353Y-58884943D01*
X132644353Y-58884943D02*
X132220089Y-58884943D01*
D39*
X138856230Y-57139980D02*
X136500000Y-57139980D01*
X142110018Y-60393768D02*
X138856230Y-57139980D01*
X142110018Y-89860018D02*
X142110018Y-60393768D01*
X142750000Y-90500000D02*
X142110018Y-89860018D01*
X142750000Y-91100000D02*
X142750000Y-90500000D01*
D43*
X136325012Y-55825012D02*
X134547257Y-55825012D01*
X134547257Y-55825012D02*
X132360243Y-58012026D01*
D39*
X139365635Y-55825012D02*
X136325012Y-55825012D01*
X143430010Y-59889386D02*
X139365635Y-55825012D01*
X143430010Y-85680010D02*
X143430010Y-59889386D01*
X145250000Y-87500000D02*
X143430010Y-85680010D01*
X145250000Y-88550000D02*
X145250000Y-87500000D01*
X138250000Y-51641876D02*
X138412944Y-51478932D01*
X141528057Y-56603793D02*
X141528057Y-57028057D01*
X141528057Y-56132655D02*
X141528057Y-56603793D01*
X140383789Y-54988387D02*
X141528057Y-56132655D01*
X138488387Y-54988387D02*
X140383789Y-54988387D01*
X138000000Y-54500000D02*
X138488387Y-54988387D01*
X138000000Y-51891876D02*
X138000000Y-54500000D01*
X138412944Y-51478932D02*
X138000000Y-51891876D01*
X138799999Y-43799999D02*
X138500000Y-43500000D01*
X139750000Y-44750000D02*
X138799999Y-43799999D01*
X139750000Y-50141876D02*
X139750000Y-44750000D01*
X138412944Y-51478932D02*
X139750000Y-50141876D01*
X138500000Y-45000000D02*
X137069970Y-46430030D01*
X137069970Y-46430030D02*
X137069970Y-50750000D01*
G36*
X125475000Y-21875000D02*
X121325000Y-21875000D01*
X121325000Y-20325000D01*
X121400000Y-20325000D01*
X125475000Y-20325000D01*
X125475000Y-21875000D01*
X125475000Y-21875000D01*
G37*
X125475000Y-21875000D02*
X121325000Y-21875000D01*
X121325000Y-20325000D01*
X121400000Y-20325000D01*
X125475000Y-20325000D01*
X125475000Y-21875000D01*
G36*
X131075000Y-21875000D02*
X126925000Y-21875000D01*
X126925000Y-20325000D01*
X131075000Y-20325000D01*
X131075000Y-21875000D01*
X131075000Y-21875000D01*
G37*
X131075000Y-21875000D02*
X126925000Y-21875000D01*
X126925000Y-20325000D01*
X131075000Y-20325000D01*
X131075000Y-21875000D01*
G36*
X125475000Y-68075000D02*
X120925000Y-68075000D01*
X120925000Y-66525000D01*
X125475000Y-66525000D01*
X125475000Y-68075000D01*
X125475000Y-68075000D01*
G37*
X125475000Y-68075000D02*
X120925000Y-68075000D01*
X120925000Y-66525000D01*
X125475000Y-66525000D01*
X125475000Y-68075000D01*
G36*
X130675000Y-68075000D02*
X126725000Y-68075000D01*
X126725000Y-66525000D01*
X130675000Y-66525000D01*
X130675000Y-68075000D01*
X130675000Y-68075000D01*
G37*
X130675000Y-68075000D02*
X126725000Y-68075000D01*
X126725000Y-66525000D01*
X130675000Y-66525000D01*
X130675000Y-68075000D01*
G36*
X128625000Y-72297666D02*
X128600000Y-72292653D01*
X126400000Y-72292653D01*
X126257014Y-72320396D01*
X126173889Y-72375000D01*
X125825618Y-72375000D01*
X125747425Y-72322219D01*
X125600000Y-72292653D01*
X123400000Y-72292653D01*
X123375000Y-72297503D01*
X123375000Y-71500000D01*
X123500000Y-71500000D01*
X123500000Y-71499999D01*
X123691342Y-71461940D01*
X123853553Y-71353553D01*
X124207106Y-71000000D01*
X128042893Y-71000000D01*
X128625000Y-71582106D01*
X128625000Y-72297666D01*
X128625000Y-72297666D01*
G37*
X128625000Y-72297666D02*
X128600000Y-72292653D01*
X126400000Y-72292653D01*
X126257014Y-72320396D01*
X126173889Y-72375000D01*
X125825618Y-72375000D01*
X125747425Y-72322219D01*
X125600000Y-72292653D01*
X123400000Y-72292653D01*
X123375000Y-72297503D01*
X123375000Y-71500000D01*
X123500000Y-71500000D01*
X123500000Y-71499999D01*
X123691342Y-71461940D01*
X123853553Y-71353553D01*
X124207106Y-71000000D01*
X128042893Y-71000000D01*
X128625000Y-71582106D01*
X128625000Y-72297666D01*
G36*
X76375000Y-99875000D02*
X66125000Y-99875000D01*
X66125000Y-84125000D01*
X72019990Y-84125000D01*
X72019991Y-85948827D01*
X72058051Y-86140169D01*
X72166438Y-86302380D01*
X73375000Y-87510942D01*
X73375000Y-93625000D01*
X76375000Y-93625000D01*
X76375000Y-99875000D01*
X76375000Y-99875000D01*
G37*
X76375000Y-99875000D02*
X66125000Y-99875000D01*
X66125000Y-84125000D01*
X72019990Y-84125000D01*
X72019991Y-85948827D01*
X72058051Y-86140169D01*
X72166438Y-86302380D01*
X73375000Y-87510942D01*
X73375000Y-93625000D01*
X76375000Y-93625000D01*
X76375000Y-99875000D01*
G36*
X76375000Y-53632538D02*
X76132538Y-53875000D01*
X66125000Y-53875000D01*
X66125000Y-38125000D01*
X73375000Y-38125000D01*
X73375000Y-47625000D01*
X76375000Y-47625000D01*
X76375000Y-53632538D01*
X76375000Y-53632538D01*
G37*
X76375000Y-53632538D02*
X76132538Y-53875000D01*
X66125000Y-53875000D01*
X66125000Y-38125000D01*
X73375000Y-38125000D01*
X73375000Y-47625000D01*
X76375000Y-47625000D01*
X76375000Y-53632538D01*
M02*
