G04 #@! TF.FileFunction,Legend,Bot*
%FSLAX46Y46*%
G04 Gerber Fmt 4.6, Leading zero omitted, Abs format (unit mm)*
G04 Created by KiCad (PCBNEW (after 2015-may-01 BZR unknown)-product) date Sat 23 May 2015 10:21:05 PM EDT*
%MOMM*%
G01*
G04 APERTURE LIST*
%ADD10C,0.100000*%
%ADD11C,0.300000*%
%ADD12C,0.350000*%
%ADD13C,0.150000*%
%ADD14C,0.200000*%
%ADD15C,0.800000*%
%ADD16C,1.500000*%
%ADD17R,1.450000X0.950000*%
%ADD18R,1.500000X1.500000*%
%ADD19O,1.500000X2.500000*%
%ADD20O,1.500000X1.500000*%
%ADD21C,1.300000*%
%ADD22R,2.286000X1.524000*%
%ADD23O,2.286000X1.524000*%
%ADD24R,1.800000X1.200000*%
%ADD25R,1.150000X1.450000*%
%ADD26R,2.200000X0.750000*%
%ADD27R,0.600000X0.650000*%
%ADD28R,0.650000X0.600000*%
%ADD29R,1.450000X1.150000*%
%ADD30C,3.200000*%
%ADD31R,1.050000X2.200000*%
%ADD32R,1.000000X1.050000*%
%ADD33O,2.500000X1.500000*%
%ADD34R,0.950000X1.450000*%
%ADD35R,0.850000X1.000000*%
%ADD36C,2.500000*%
%ADD37C,1.200000*%
%ADD38R,0.600000X0.600000*%
%ADD39C,0.254000*%
G04 APERTURE END LIST*
D10*
D11*
X120428571Y-22078571D02*
X120428571Y-20578571D01*
X119571428Y-22078571D01*
X119571428Y-20578571D01*
X132892857Y-22178571D02*
X132892857Y-20678571D01*
X132321429Y-20678571D01*
X132178571Y-20750000D01*
X132107143Y-20821429D01*
X132035714Y-20964286D01*
X132035714Y-21178571D01*
X132107143Y-21321429D01*
X132178571Y-21392857D01*
X132321429Y-21464286D01*
X132892857Y-21464286D01*
X123828571Y-64878571D02*
X123828571Y-63378571D01*
X122971428Y-64878571D01*
X122971428Y-63378571D01*
X128992857Y-64878571D02*
X128992857Y-63378571D01*
X128421429Y-63378571D01*
X128278571Y-63450000D01*
X128207143Y-63521429D01*
X128135714Y-63664286D01*
X128135714Y-63878571D01*
X128207143Y-64021429D01*
X128278571Y-64092857D01*
X128421429Y-64164286D01*
X128992857Y-64164286D01*
D12*
X94279000Y-40771000D02*
X94279000Y-40229000D01*
X94279000Y-40229000D02*
X94279000Y-40771000D01*
X95221000Y-40771000D02*
X95221000Y-40229000D01*
X95221000Y-40229000D02*
X95221000Y-40771000D01*
X91146000Y-81404000D02*
X91146000Y-82596000D01*
X91146000Y-82596000D02*
X91146000Y-81404000D01*
X89854000Y-81404000D02*
X89854000Y-82596000D01*
X89854000Y-82596000D02*
X89854000Y-81404000D01*
X83571000Y-72471000D02*
X83429000Y-72471000D01*
X83429000Y-72471000D02*
X83571000Y-72471000D01*
X83571000Y-71529000D02*
X83429000Y-71529000D01*
X83429000Y-71529000D02*
X83571000Y-71529000D01*
X135529000Y-62571000D02*
X135529000Y-62429000D01*
X135529000Y-62429000D02*
X135529000Y-62571000D01*
X136471000Y-62571000D02*
X136471000Y-62429000D01*
X136471000Y-62429000D02*
X136471000Y-62571000D01*
X91146000Y-35404000D02*
X91146000Y-36596000D01*
X91146000Y-36596000D02*
X91146000Y-35404000D01*
X89854000Y-35404000D02*
X89854000Y-36596000D01*
X89854000Y-36596000D02*
X89854000Y-35404000D01*
X83571000Y-26471000D02*
X83429000Y-26471000D01*
X83429000Y-26471000D02*
X83571000Y-26471000D01*
X83571000Y-25529000D02*
X83429000Y-25529000D01*
X83429000Y-25529000D02*
X83571000Y-25529000D01*
X104595000Y-22825000D02*
X104595000Y-29175000D01*
X104595000Y-29175000D02*
X108405000Y-29175000D01*
X108405000Y-29175000D02*
X108405000Y-22825000D01*
X108405000Y-22825000D02*
X104595000Y-22825000D01*
X104595000Y-26000000D02*
X108405000Y-26000000D01*
D13*
X109040000Y-22825000D02*
X109040000Y-26000000D01*
X126500000Y-24000000D02*
X126500000Y-19000000D01*
X126500000Y-19000000D02*
X131500000Y-19000000D01*
X131500000Y-19000000D02*
X131500000Y-24000000D01*
X131500000Y-24000000D02*
X126500000Y-24000000D01*
X121000000Y-24000000D02*
X121000000Y-19000000D01*
X121000000Y-19000000D02*
X126000000Y-19000000D01*
X126000000Y-19000000D02*
X126000000Y-24000000D01*
X126000000Y-24000000D02*
X121000000Y-24000000D01*
D12*
X104595000Y-68825000D02*
X104595000Y-75175000D01*
X104595000Y-75175000D02*
X108405000Y-75175000D01*
X108405000Y-75175000D02*
X108405000Y-68825000D01*
X108405000Y-68825000D02*
X104595000Y-68825000D01*
X104595000Y-72000000D02*
X108405000Y-72000000D01*
D13*
X109040000Y-68825000D02*
X109040000Y-72000000D01*
X126250000Y-70000000D02*
X126250000Y-65000000D01*
X126250000Y-65000000D02*
X131250000Y-65000000D01*
X131250000Y-65000000D02*
X131250000Y-70000000D01*
X131250000Y-70000000D02*
X126250000Y-70000000D01*
X121000000Y-70000000D02*
X121000000Y-65000000D01*
X121000000Y-65000000D02*
X126000000Y-65000000D01*
X126000000Y-65000000D02*
X126000000Y-70000000D01*
X126000000Y-70000000D02*
X121000000Y-70000000D01*
D12*
X161310000Y-33485000D02*
X161310000Y-19515000D01*
X161310000Y-19515000D02*
X155595000Y-19515000D01*
X155595000Y-19515000D02*
X155595000Y-33485000D01*
X155595000Y-33485000D02*
X161310000Y-33485000D01*
X161310000Y-29040000D02*
X155595000Y-29040000D01*
D13*
X154960000Y-33485000D02*
X154960000Y-29040000D01*
D12*
X88229000Y-85029000D02*
X88771000Y-85029000D01*
X88771000Y-85029000D02*
X88229000Y-85029000D01*
X88229000Y-85971000D02*
X88771000Y-85971000D01*
X88771000Y-85971000D02*
X88229000Y-85971000D01*
X87971000Y-81729000D02*
X87971000Y-82271000D01*
X87971000Y-82271000D02*
X87971000Y-81729000D01*
X87029000Y-81729000D02*
X87029000Y-82271000D01*
X87029000Y-82271000D02*
X87029000Y-81729000D01*
X88771000Y-78971000D02*
X88229000Y-78971000D01*
X88229000Y-78971000D02*
X88771000Y-78971000D01*
X88771000Y-78029000D02*
X88229000Y-78029000D01*
X88229000Y-78029000D02*
X88771000Y-78029000D01*
X91971000Y-86229000D02*
X91971000Y-86771000D01*
X91971000Y-86771000D02*
X91971000Y-86229000D01*
X91029000Y-86229000D02*
X91029000Y-86771000D01*
X91029000Y-86771000D02*
X91029000Y-86229000D01*
X93729000Y-80029000D02*
X94271000Y-80029000D01*
X94271000Y-80029000D02*
X93729000Y-80029000D01*
X93729000Y-80971000D02*
X94271000Y-80971000D01*
X94271000Y-80971000D02*
X93729000Y-80971000D01*
X79571000Y-79246000D02*
X79429000Y-79246000D01*
X79429000Y-79246000D02*
X79571000Y-79246000D01*
X79571000Y-78754000D02*
X79429000Y-78754000D01*
X79429000Y-78754000D02*
X79571000Y-78754000D01*
X92729000Y-89029000D02*
X93271000Y-89029000D01*
X93271000Y-89029000D02*
X92729000Y-89029000D01*
X92729000Y-89971000D02*
X93271000Y-89971000D01*
X93271000Y-89971000D02*
X92729000Y-89971000D01*
X97471000Y-80979000D02*
X97471000Y-81521000D01*
X97471000Y-81521000D02*
X97471000Y-80979000D01*
X96529000Y-80979000D02*
X96529000Y-81521000D01*
X96529000Y-81521000D02*
X96529000Y-80979000D01*
X94279000Y-86771000D02*
X94279000Y-86229000D01*
X94279000Y-86229000D02*
X94279000Y-86771000D01*
X95221000Y-86771000D02*
X95221000Y-86229000D01*
X95221000Y-86229000D02*
X95221000Y-86771000D01*
X79571000Y-87246000D02*
X79429000Y-87246000D01*
X79429000Y-87246000D02*
X79571000Y-87246000D01*
X79571000Y-86754000D02*
X79429000Y-86754000D01*
X79429000Y-86754000D02*
X79571000Y-86754000D01*
X97471000Y-84479000D02*
X97471000Y-85021000D01*
X97471000Y-85021000D02*
X97471000Y-84479000D01*
X96529000Y-84479000D02*
X96529000Y-85021000D01*
X96529000Y-85021000D02*
X96529000Y-84479000D01*
X88229000Y-39029000D02*
X88771000Y-39029000D01*
X88771000Y-39029000D02*
X88229000Y-39029000D01*
X88229000Y-39971000D02*
X88771000Y-39971000D01*
X88771000Y-39971000D02*
X88229000Y-39971000D01*
X87971000Y-35729000D02*
X87971000Y-36271000D01*
X87971000Y-36271000D02*
X87971000Y-35729000D01*
X87029000Y-35729000D02*
X87029000Y-36271000D01*
X87029000Y-36271000D02*
X87029000Y-35729000D01*
X88771000Y-32971000D02*
X88229000Y-32971000D01*
X88229000Y-32971000D02*
X88771000Y-32971000D01*
X88771000Y-32029000D02*
X88229000Y-32029000D01*
X88229000Y-32029000D02*
X88771000Y-32029000D01*
X91971000Y-40229000D02*
X91971000Y-40771000D01*
X91971000Y-40771000D02*
X91971000Y-40229000D01*
X91029000Y-40229000D02*
X91029000Y-40771000D01*
X91029000Y-40771000D02*
X91029000Y-40229000D01*
X93729000Y-34029000D02*
X94271000Y-34029000D01*
X94271000Y-34029000D02*
X93729000Y-34029000D01*
X93729000Y-34971000D02*
X94271000Y-34971000D01*
X94271000Y-34971000D02*
X93729000Y-34971000D01*
X79571000Y-33246000D02*
X79429000Y-33246000D01*
X79429000Y-33246000D02*
X79571000Y-33246000D01*
X79571000Y-32754000D02*
X79429000Y-32754000D01*
X79429000Y-32754000D02*
X79571000Y-32754000D01*
X92729000Y-43029000D02*
X93271000Y-43029000D01*
X93271000Y-43029000D02*
X92729000Y-43029000D01*
X92729000Y-43971000D02*
X93271000Y-43971000D01*
X93271000Y-43971000D02*
X92729000Y-43971000D01*
X97471000Y-34979000D02*
X97471000Y-35521000D01*
X97471000Y-35521000D02*
X97471000Y-34979000D01*
X96529000Y-34979000D02*
X96529000Y-35521000D01*
X96529000Y-35521000D02*
X96529000Y-34979000D01*
X79571000Y-41246000D02*
X79429000Y-41246000D01*
X79429000Y-41246000D02*
X79571000Y-41246000D01*
X79571000Y-40754000D02*
X79429000Y-40754000D01*
X79429000Y-40754000D02*
X79571000Y-40754000D01*
X97471000Y-38729000D02*
X97471000Y-39271000D01*
X97471000Y-39271000D02*
X97471000Y-38729000D01*
X96529000Y-38729000D02*
X96529000Y-39271000D01*
X96529000Y-39271000D02*
X96529000Y-38729000D01*
%LPC*%
D14*
X116000000Y-88250000D02*
X116000000Y-90000000D01*
X109000000Y-93250000D02*
X109250000Y-93500000D01*
X108750000Y-93250000D02*
X109000000Y-93250000D01*
X105750000Y-93250000D02*
X108750000Y-93250000D01*
X104750000Y-94250000D02*
X105750000Y-93250000D01*
X104750000Y-96250000D02*
X104750000Y-94250000D01*
X105500000Y-97000000D02*
X104750000Y-96250000D01*
X109000000Y-97000000D02*
X105500000Y-97000000D01*
X109250000Y-96750000D02*
X109000000Y-97000000D01*
X109250000Y-93500000D02*
X109250000Y-96750000D01*
X115250000Y-87500000D02*
X116000000Y-88250000D01*
X113750000Y-87500000D02*
X115250000Y-87500000D01*
X113000000Y-88250000D02*
X113750000Y-87500000D01*
X113000000Y-90000000D02*
X113000000Y-88250000D01*
X113500000Y-90500000D02*
X113000000Y-90000000D01*
X115500000Y-90500000D02*
X113500000Y-90500000D01*
X116000000Y-90000000D02*
X115500000Y-90500000D01*
X113000000Y-44000000D02*
X113000000Y-43250000D01*
X113250000Y-44250000D02*
X113000000Y-44000000D01*
X115500000Y-44250000D02*
X113250000Y-44250000D01*
X116000000Y-43750000D02*
X115500000Y-44250000D01*
X116000000Y-42000000D02*
X116000000Y-43750000D01*
X115500000Y-41500000D02*
X116000000Y-42000000D01*
X113500000Y-41500000D02*
X115500000Y-41500000D01*
X113000000Y-42000000D02*
X113500000Y-41500000D01*
X113000000Y-43250000D02*
X113000000Y-42000000D01*
X105000000Y-48000000D02*
X105500000Y-47500000D01*
X105000000Y-50250000D02*
X105000000Y-48000000D01*
X105500000Y-50750000D02*
X105000000Y-50250000D01*
X108500000Y-50750000D02*
X105500000Y-50750000D01*
X109000000Y-50250000D02*
X108500000Y-50750000D01*
X109000000Y-48000000D02*
X109000000Y-50250000D01*
X108500000Y-47500000D02*
X109000000Y-48000000D01*
X105500000Y-47500000D02*
X108500000Y-47500000D01*
X94750000Y-82000000D02*
X94750000Y-84750000D01*
X96250000Y-81250000D02*
X97750000Y-81250000D01*
X95500000Y-82000000D02*
X96250000Y-81250000D01*
X94000000Y-82000000D02*
X95500000Y-82000000D01*
X94000000Y-79500000D02*
X94000000Y-82000000D01*
X91000000Y-82000000D02*
X91250000Y-82250000D01*
X86500000Y-82000000D02*
X91000000Y-82000000D01*
X88500000Y-79500000D02*
X88500000Y-77500000D01*
X88750000Y-79750000D02*
X88500000Y-79500000D01*
X88750000Y-84000000D02*
X88750000Y-79750000D01*
X88500000Y-84250000D02*
X88750000Y-84000000D01*
X88500000Y-87000000D02*
X88500000Y-84250000D01*
X90000000Y-87000000D02*
X88500000Y-87000000D01*
X90500000Y-86500000D02*
X90000000Y-87000000D01*
X93000000Y-86500000D02*
X90500000Y-86500000D01*
X93000000Y-85500000D02*
X93750000Y-85500000D01*
X93000000Y-90500000D02*
X93000000Y-85500000D01*
X88500000Y-33500000D02*
X88500000Y-31750000D01*
X88750000Y-33750000D02*
X88500000Y-33500000D01*
X88750000Y-36000000D02*
X88750000Y-33750000D01*
X96000000Y-35250000D02*
X97750000Y-35250000D01*
X95250000Y-36000000D02*
X96000000Y-35250000D01*
X94750000Y-36000000D02*
X95250000Y-36000000D01*
X94000000Y-36000000D02*
X94000000Y-33750000D01*
X94750000Y-36000000D02*
X94000000Y-36000000D01*
X94750000Y-38750000D02*
X94750000Y-36000000D01*
X93000000Y-40500000D02*
X93000000Y-44500000D01*
X93000000Y-39500000D02*
X93750000Y-39500000D01*
X93000000Y-40500000D02*
X93000000Y-39500000D01*
X90500000Y-40500000D02*
X93000000Y-40500000D01*
X90000000Y-41000000D02*
X90500000Y-40500000D01*
X88500000Y-41000000D02*
X90000000Y-41000000D01*
X88500000Y-38500000D02*
X88500000Y-41000000D01*
X88750000Y-38250000D02*
X88500000Y-38500000D01*
X88750000Y-36000000D02*
X88750000Y-38250000D01*
X91000000Y-36000000D02*
X91250000Y-36250000D01*
X86500000Y-36000000D02*
X91000000Y-36000000D01*
D15*
X130000000Y-36000000D03*
X130500000Y-35500000D03*
X130500000Y-36500000D03*
X129500000Y-36500000D03*
X129500000Y-35500000D03*
X121500000Y-53500000D03*
X121100000Y-53100000D03*
X121900000Y-53100000D03*
X121900000Y-53900000D03*
X121100000Y-53900000D03*
X130000000Y-82000000D03*
X130500000Y-81500000D03*
X130500000Y-82500000D03*
X129500000Y-82500000D03*
X129500000Y-81500000D03*
X121500000Y-99500000D03*
X121100000Y-99100000D03*
X121900000Y-99100000D03*
X121900000Y-99900000D03*
X121100000Y-99900000D03*
D16*
X114500000Y-89000000D03*
X114500000Y-79000000D03*
D17*
X94750000Y-41500000D03*
X94750000Y-39500000D03*
D18*
X100120000Y-94500000D03*
D19*
X95040000Y-94500000D03*
X89960000Y-94500000D03*
D20*
X84880000Y-94500000D03*
D21*
X86000000Y-26000000D03*
X81000000Y-26000000D03*
D22*
X152274000Y-62580000D03*
D23*
X152274000Y-60040000D03*
X152274000Y-57500000D03*
X152274000Y-52420000D03*
X149226000Y-62580000D03*
X149226000Y-60040000D03*
X149226000Y-57500000D03*
X149226000Y-54960000D03*
X149226000Y-52420000D03*
D16*
X114500000Y-43000000D03*
X114500000Y-33000000D03*
D21*
X82000000Y-87000000D03*
X77000000Y-87000000D03*
X86000000Y-72000000D03*
X81000000Y-72000000D03*
X82000000Y-79000000D03*
X77000000Y-79000000D03*
X117000000Y-95000000D03*
X112000000Y-95000000D03*
X117000000Y-49000000D03*
X112000000Y-49000000D03*
X82000000Y-33000000D03*
X77000000Y-33000000D03*
X82000000Y-41000000D03*
X77000000Y-41000000D03*
D24*
X90500000Y-80550000D03*
X90500000Y-83450000D03*
D25*
X84400000Y-72000000D03*
X82600000Y-72000000D03*
D26*
X127500000Y-73050000D03*
X127500000Y-71950000D03*
D27*
X121250000Y-94700000D03*
X121250000Y-93800000D03*
X126500000Y-91100000D03*
X126500000Y-92000000D03*
D28*
X129300000Y-89750000D03*
X130200000Y-89750000D03*
X132450000Y-95000000D03*
X131550000Y-95000000D03*
X121300000Y-82250000D03*
X122200000Y-82250000D03*
X124700000Y-87250000D03*
X123800000Y-87250000D03*
D26*
X124500000Y-71950000D03*
X124500000Y-73050000D03*
D27*
X121250000Y-92450000D03*
X121250000Y-91550000D03*
X126500000Y-93800000D03*
X126500000Y-94700000D03*
D28*
X131550000Y-89750000D03*
X132450000Y-89750000D03*
X130200000Y-95000000D03*
X129300000Y-95000000D03*
X123550000Y-82250000D03*
X124450000Y-82250000D03*
X122450000Y-87250000D03*
X121550000Y-87250000D03*
D29*
X136000000Y-63400000D03*
X136000000Y-61600000D03*
D18*
X158000000Y-97000000D03*
D16*
X158000000Y-99000000D03*
D18*
X158000000Y-71000000D03*
D16*
X158000000Y-73000000D03*
D18*
X146500000Y-41500000D03*
D16*
X146500000Y-43500000D03*
D18*
X139000000Y-29500000D03*
D16*
X139000000Y-31500000D03*
D24*
X90500000Y-34550000D03*
X90500000Y-37450000D03*
D25*
X84400000Y-26000000D03*
X82600000Y-26000000D03*
D26*
X127500000Y-27050000D03*
X127500000Y-25950000D03*
D27*
X121000000Y-48950000D03*
X121000000Y-48050000D03*
X126250000Y-45700000D03*
X126250000Y-44800000D03*
D28*
X132950000Y-49000000D03*
X132050000Y-49000000D03*
X129300000Y-43500000D03*
X130200000Y-43500000D03*
X124550000Y-41500000D03*
X125450000Y-41500000D03*
X121300000Y-36000000D03*
X122200000Y-36000000D03*
D26*
X124500000Y-25950000D03*
X124500000Y-27050000D03*
D27*
X121000000Y-46450000D03*
X121000000Y-45550000D03*
X126250000Y-48950000D03*
X126250000Y-48050000D03*
D28*
X130500000Y-49000000D03*
X129600000Y-49000000D03*
X131550000Y-43500000D03*
X132450000Y-43500000D03*
X122950000Y-41500000D03*
X122050000Y-41500000D03*
X123800000Y-36000000D03*
X124700000Y-36000000D03*
D22*
X106500000Y-24730000D03*
D23*
X106500000Y-27270000D03*
D16*
X75000000Y-46000000D03*
X75000000Y-48540000D03*
D30*
X69920000Y-40920000D03*
X69920000Y-51080000D03*
D31*
X127525000Y-21500000D03*
X130475000Y-21500000D03*
D32*
X129000000Y-23025000D03*
D31*
X122025000Y-21500000D03*
X124975000Y-21500000D03*
D32*
X123500000Y-23025000D03*
D22*
X106500000Y-70730000D03*
D23*
X106500000Y-73270000D03*
D16*
X75000000Y-92000000D03*
X75000000Y-94540000D03*
D30*
X69920000Y-86920000D03*
X69920000Y-97080000D03*
D31*
X127275000Y-67500000D03*
X130225000Y-67500000D03*
D32*
X128750000Y-69025000D03*
D31*
X122025000Y-67500000D03*
X124975000Y-67500000D03*
D32*
X123500000Y-69025000D03*
D22*
X157500000Y-30310000D03*
D23*
X157500000Y-27770000D03*
X157500000Y-25230000D03*
X157500000Y-22690000D03*
D18*
X107000000Y-95120000D03*
D33*
X107000000Y-90040000D03*
X107000000Y-84960000D03*
D20*
X107000000Y-79880000D03*
D18*
X107000000Y-49120000D03*
D33*
X107000000Y-44040000D03*
X107000000Y-38960000D03*
D20*
X107000000Y-33880000D03*
D18*
X100120000Y-48500000D03*
D19*
X95040000Y-48500000D03*
X89960000Y-48500000D03*
D20*
X84880000Y-48500000D03*
D34*
X87500000Y-85500000D03*
X89500000Y-85500000D03*
D17*
X87500000Y-81000000D03*
X87500000Y-83000000D03*
D34*
X89500000Y-78500000D03*
X87500000Y-78500000D03*
D17*
X91500000Y-85500000D03*
X91500000Y-87500000D03*
D34*
X93000000Y-80500000D03*
X95000000Y-80500000D03*
D35*
X80250000Y-79000000D03*
X78750000Y-79000000D03*
D34*
X92000000Y-89500000D03*
X94000000Y-89500000D03*
D17*
X97000000Y-80250000D03*
X97000000Y-82250000D03*
X94750000Y-87500000D03*
X94750000Y-85500000D03*
D35*
X80250000Y-87000000D03*
X78750000Y-87000000D03*
D17*
X97000000Y-83750000D03*
X97000000Y-85750000D03*
D34*
X87500000Y-39500000D03*
X89500000Y-39500000D03*
D17*
X87500000Y-35000000D03*
X87500000Y-37000000D03*
D34*
X89500000Y-32500000D03*
X87500000Y-32500000D03*
D17*
X91500000Y-39500000D03*
X91500000Y-41500000D03*
D34*
X93000000Y-34500000D03*
X95000000Y-34500000D03*
D35*
X80250000Y-33000000D03*
X78750000Y-33000000D03*
D34*
X92000000Y-43500000D03*
X94000000Y-43500000D03*
D17*
X97000000Y-34250000D03*
X97000000Y-36250000D03*
D35*
X80250000Y-41000000D03*
X78750000Y-41000000D03*
D17*
X97000000Y-38000000D03*
X97000000Y-40000000D03*
D36*
X158160000Y-105000000D03*
X137840000Y-105000000D03*
D37*
X140000000Y-52000000D03*
D18*
X157000000Y-41749940D03*
D16*
X157000000Y-45250060D03*
D18*
X137500000Y-21249940D03*
D16*
X137500000Y-24750060D03*
D28*
X135400000Y-65000000D03*
X134500000Y-65000000D03*
D27*
X137750000Y-62900000D03*
X137750000Y-62000000D03*
D28*
X130350000Y-56000000D03*
X131250000Y-56000000D03*
D38*
X143500000Y-88550000D03*
X143500000Y-89450000D03*
X144250000Y-91100000D03*
X144250000Y-92000000D03*
X142750000Y-91100000D03*
X142750000Y-92000000D03*
X145250000Y-88550000D03*
X145250000Y-89450000D03*
D39*
G36*
X132123000Y-118373000D02*
X97877000Y-118373000D01*
X97877000Y-117750000D01*
X97877000Y-112627000D01*
X132123000Y-112627000D01*
X132123000Y-118373000D01*
X132123000Y-118373000D01*
G37*
X132123000Y-118373000D02*
X97877000Y-118373000D01*
X97877000Y-117750000D01*
X97877000Y-112627000D01*
X132123000Y-112627000D01*
X132123000Y-118373000D01*
G36*
X84873000Y-21373000D02*
X76377000Y-21373000D01*
X76377000Y-18627000D01*
X84873000Y-18627000D01*
X84873000Y-21373000D01*
X84873000Y-21373000D01*
G37*
X84873000Y-21373000D02*
X76377000Y-21373000D01*
X76377000Y-18627000D01*
X84873000Y-18627000D01*
X84873000Y-21373000D01*
M02*
