G04 #@! TF.FileFunction,Copper,L1,Top,Signal*
%FSLAX46Y46*%
G04 Gerber Fmt 4.6, Leading zero omitted, Abs format (unit mm)*
G04 Created by KiCad (PCBNEW (after 2015-may-25 BZR unknown)-product) date Wed 27 May 2015 09:58:39 PM EDT*
%MOMM*%
G01*
G04 APERTURE LIST*
%ADD10C,0.100000*%
%ADD11C,0.300000*%
%ADD12R,0.760000X2.790000*%
%ADD13R,0.600000X0.600000*%
%ADD14C,2.000000*%
%ADD15R,0.950000X1.500000*%
%ADD16O,1.500000X0.300000*%
%ADD17O,0.300000X1.500000*%
%ADD18O,0.300000X0.850000*%
%ADD19R,0.300000X0.850000*%
%ADD20O,0.850000X0.300000*%
%ADD21R,0.850000X0.300000*%
%ADD22R,2.550000X2.550000*%
%ADD23C,0.600000*%
%ADD24O,0.650000X0.300000*%
%ADD25R,1.450000X1.450000*%
%ADD26C,1.500000*%
%ADD27O,1.450000X0.450000*%
%ADD28R,1.500000X1.500000*%
%ADD29O,1.500000X2.500000*%
%ADD30O,1.500000X1.500000*%
%ADD31R,4.200000X1.500000*%
%ADD32R,1.524000X16.256000*%
%ADD33C,1.300000*%
%ADD34R,2.286000X1.524000*%
%ADD35O,2.286000X1.524000*%
%ADD36R,1.110000X3.000000*%
%ADD37R,0.701040X4.000500*%
%ADD38R,0.701040X3.200400*%
%ADD39R,1.200000X1.600000*%
%ADD40R,1.450000X1.150000*%
%ADD41R,0.950000X0.900000*%
%ADD42R,1.200000X1.800000*%
%ADD43R,0.900000X0.950000*%
%ADD44R,2.350000X2.450000*%
%ADD45R,0.750000X2.200000*%
%ADD46R,2.200000X0.750000*%
%ADD47R,2.450000X2.350000*%
%ADD48R,1.800000X2.250000*%
%ADD49R,0.650000X0.600000*%
%ADD50R,2.250000X1.800000*%
%ADD51R,1.150000X1.450000*%
%ADD52R,0.850000X0.650000*%
%ADD53R,0.650000X0.850000*%
%ADD54R,2.300000X1.500000*%
%ADD55R,2.400000X1.550000*%
%ADD56R,1.800000X1.050000*%
%ADD57R,1.050000X1.800000*%
%ADD58C,3.200000*%
%ADD59O,2.500000X1.500000*%
%ADD60O,1.500000X0.600000*%
%ADD61R,0.850000X1.000000*%
%ADD62R,0.950000X1.450000*%
%ADD63R,1.450000X0.950000*%
%ADD64R,1.000000X0.850000*%
%ADD65R,0.900000X1.300000*%
%ADD66R,0.800000X1.300000*%
%ADD67O,1.550000X0.400000*%
%ADD68O,0.400000X1.550000*%
%ADD69O,0.450000X1.450000*%
%ADD70R,2.300000X3.800000*%
%ADD71R,10.900000X9.550000*%
%ADD72R,2.450000X1.450000*%
%ADD73R,6.950000X6.950000*%
%ADD74C,2.500000*%
%ADD75C,1.200000*%
%ADD76R,0.899160X0.800100*%
%ADD77R,0.600000X0.650000*%
%ADD78R,1.300000X0.900000*%
%ADD79R,1.300000X0.800000*%
%ADD80R,1.500000X0.280000*%
%ADD81R,2.300000X1.200000*%
%ADD82R,0.700000X0.650000*%
%ADD83C,0.200000*%
%ADD84C,0.250000*%
%ADD85C,0.400000*%
%ADD86C,0.600000*%
%ADD87C,0.500000*%
%ADD88C,0.180000*%
%ADD89C,0.350000*%
%ADD90C,1.000000*%
%ADD91C,1.500000*%
%ADD92C,0.450000*%
%ADD93C,0.254000*%
G04 APERTURE END LIST*
D10*
D11*
X77842858Y-20542857D02*
X77157143Y-20542857D01*
X77500001Y-20542857D02*
X77500001Y-19342857D01*
X77385715Y-19514286D01*
X77271429Y-19628571D01*
X77157143Y-19685714D01*
D12*
X95990000Y-25500000D03*
X93010000Y-25500000D03*
D13*
X102000000Y-61000000D03*
X102000000Y-61900000D03*
D14*
X117785000Y-22200000D03*
X130615000Y-21200000D03*
D15*
X102000000Y-63400000D03*
X102000000Y-65100000D03*
D16*
X137200000Y-63500000D03*
X137200000Y-63000000D03*
X137200000Y-62500000D03*
X137200000Y-62000000D03*
X137200000Y-61500000D03*
X137200000Y-61000000D03*
X137200000Y-60500000D03*
X137200000Y-60000000D03*
X137200000Y-59500000D03*
X137200000Y-59000000D03*
X137200000Y-58500000D03*
X137200000Y-58000000D03*
D17*
X135750000Y-56550000D03*
X135250000Y-56550000D03*
X134750000Y-56550000D03*
X134250000Y-56550000D03*
X133750000Y-56550000D03*
X133250000Y-56550000D03*
X132750000Y-56550000D03*
X132250000Y-56550000D03*
X131750000Y-56550000D03*
X131250000Y-56550000D03*
X130750000Y-56550000D03*
X130250000Y-56550000D03*
D16*
X128800000Y-58000000D03*
X128800000Y-58500000D03*
X128800000Y-59000000D03*
X128800000Y-59500000D03*
X128800000Y-60000000D03*
X128800000Y-60500000D03*
X128800000Y-61000000D03*
X128800000Y-61500000D03*
X128800000Y-62000000D03*
X128800000Y-62500000D03*
X128800000Y-63000000D03*
X128800000Y-63500000D03*
D17*
X130250000Y-64950000D03*
X130750000Y-64950000D03*
X131250000Y-64950000D03*
X131750000Y-64950000D03*
X132250000Y-64950000D03*
X132750000Y-64950000D03*
X133250000Y-64950000D03*
X133750000Y-64950000D03*
X134250000Y-64950000D03*
X134750000Y-64950000D03*
X135250000Y-64950000D03*
X135750000Y-64950000D03*
D18*
X131250000Y-34050000D03*
D19*
X130750000Y-34050000D03*
X130250000Y-34050000D03*
X129750000Y-34050000D03*
X129250000Y-34050000D03*
D18*
X128750000Y-34050000D03*
D20*
X128050000Y-34750000D03*
D21*
X128050000Y-35250000D03*
X128050000Y-35750000D03*
X128050000Y-36250000D03*
X128050000Y-36750000D03*
D20*
X128050000Y-37250000D03*
D18*
X128750000Y-37950000D03*
D19*
X129250000Y-37950000D03*
X129750000Y-37950000D03*
X130250000Y-37950000D03*
X130750000Y-37950000D03*
D18*
X131250000Y-37950000D03*
D20*
X131950000Y-37250000D03*
D21*
X131950000Y-36750000D03*
X131950000Y-36250000D03*
X131950000Y-35750000D03*
X131950000Y-35250000D03*
D20*
X131950000Y-34750000D03*
D22*
X130000000Y-36000000D03*
D23*
X130000000Y-36000000D03*
X130500000Y-35500000D03*
X130500000Y-36500000D03*
X129500000Y-36500000D03*
X129500000Y-35500000D03*
D24*
X120195000Y-52750000D03*
X120195000Y-53250000D03*
X120195000Y-53750000D03*
X120195000Y-54250000D03*
X122805000Y-54250000D03*
X122805000Y-53750000D03*
X122805000Y-53250000D03*
X122805000Y-52750000D03*
D25*
X121500000Y-53500000D03*
D23*
X121500000Y-53500000D03*
X121100000Y-53100000D03*
X121900000Y-53100000D03*
X121900000Y-53900000D03*
X121100000Y-53900000D03*
D18*
X131250000Y-80050000D03*
D19*
X130750000Y-80050000D03*
X130250000Y-80050000D03*
X129750000Y-80050000D03*
X129250000Y-80050000D03*
D18*
X128750000Y-80050000D03*
D20*
X128050000Y-80750000D03*
D21*
X128050000Y-81250000D03*
X128050000Y-81750000D03*
X128050000Y-82250000D03*
X128050000Y-82750000D03*
D20*
X128050000Y-83250000D03*
D18*
X128750000Y-83950000D03*
D19*
X129250000Y-83950000D03*
X129750000Y-83950000D03*
X130250000Y-83950000D03*
X130750000Y-83950000D03*
D18*
X131250000Y-83950000D03*
D20*
X131950000Y-83250000D03*
D21*
X131950000Y-82750000D03*
X131950000Y-82250000D03*
X131950000Y-81750000D03*
X131950000Y-81250000D03*
D20*
X131950000Y-80750000D03*
D22*
X130000000Y-82000000D03*
D23*
X130000000Y-82000000D03*
X130500000Y-81500000D03*
X130500000Y-82500000D03*
X129500000Y-82500000D03*
X129500000Y-81500000D03*
D24*
X120195000Y-98750000D03*
X120195000Y-99250000D03*
X120195000Y-99750000D03*
X120195000Y-100250000D03*
X122805000Y-100250000D03*
X122805000Y-99750000D03*
X122805000Y-99250000D03*
X122805000Y-98750000D03*
D25*
X121500000Y-99500000D03*
D23*
X121500000Y-99500000D03*
X121100000Y-99100000D03*
X121900000Y-99100000D03*
X121900000Y-99900000D03*
X121100000Y-99900000D03*
D26*
X114500000Y-89000000D03*
X114500000Y-79000000D03*
D27*
X114200000Y-74475000D03*
X114200000Y-73825000D03*
X114200000Y-73175000D03*
X114200000Y-72525000D03*
X109800000Y-72525000D03*
X109800000Y-73175000D03*
X109800000Y-73825000D03*
X109800000Y-74475000D03*
D13*
X109550000Y-23000000D03*
X110450000Y-23000000D03*
D27*
X120550000Y-59075000D03*
X120550000Y-59725000D03*
X120550000Y-60375000D03*
X120550000Y-61025000D03*
X120550000Y-61675000D03*
X120550000Y-62325000D03*
X120550000Y-62975000D03*
X120550000Y-63625000D03*
X120550000Y-64275000D03*
X120550000Y-64925000D03*
X126450000Y-64925000D03*
X126450000Y-64275000D03*
X126450000Y-63625000D03*
X126450000Y-62975000D03*
X126450000Y-62325000D03*
X126450000Y-61675000D03*
X126450000Y-61025000D03*
X126450000Y-60375000D03*
X126450000Y-59725000D03*
X126450000Y-59075000D03*
D28*
X100120000Y-94500000D03*
D29*
X95040000Y-94500000D03*
X89960000Y-94500000D03*
D30*
X84880000Y-94500000D03*
D31*
X79000000Y-46250000D03*
X79000000Y-50750000D03*
D32*
X143634000Y-85000000D03*
X158366000Y-85000000D03*
D33*
X86000000Y-26000000D03*
X81000000Y-26000000D03*
D34*
X152274000Y-62580000D03*
D35*
X152274000Y-60040000D03*
X152274000Y-57500000D03*
X152274000Y-52420000D03*
X149226000Y-62580000D03*
X149226000Y-60040000D03*
X149226000Y-57500000D03*
X149226000Y-54960000D03*
X149226000Y-52420000D03*
D26*
X114500000Y-43000000D03*
X114500000Y-33000000D03*
D36*
X90500000Y-78355000D03*
X93040000Y-78355000D03*
X95580000Y-78355000D03*
X90500000Y-85645000D03*
X93040000Y-85645000D03*
X95580000Y-85645000D03*
X85420000Y-78355000D03*
X85420000Y-85645000D03*
D37*
X111501140Y-114599440D03*
X112499360Y-114599440D03*
X113500120Y-114599440D03*
X114500880Y-114599440D03*
X115499100Y-114599440D03*
X116499860Y-114599440D03*
X117500620Y-114599440D03*
X98498880Y-114599440D03*
X99499640Y-114599440D03*
X100500400Y-114599440D03*
X101501160Y-114599440D03*
X102499380Y-114599440D03*
X103500140Y-114599440D03*
X104500900Y-114599440D03*
X105499120Y-114599440D03*
X106499880Y-114599440D03*
X107500640Y-114599440D03*
X108498860Y-114599440D03*
X118498840Y-114599440D03*
X119499600Y-114599440D03*
X120500360Y-114599440D03*
X121501120Y-114599440D03*
X122499340Y-114599440D03*
X123500100Y-114599440D03*
X124500860Y-114599440D03*
X125499080Y-114599440D03*
X126499840Y-114599440D03*
X127500600Y-114599440D03*
X128498820Y-114599440D03*
X129499580Y-114599440D03*
D38*
X130500340Y-114200660D03*
D37*
X131501100Y-114599440D03*
D33*
X82000000Y-87000000D03*
X77000000Y-87000000D03*
X86000000Y-72000000D03*
X81000000Y-72000000D03*
X82000000Y-79000000D03*
X77000000Y-79000000D03*
X117000000Y-95000000D03*
X112000000Y-95000000D03*
X117000000Y-49000000D03*
X112000000Y-49000000D03*
X82000000Y-33000000D03*
X77000000Y-33000000D03*
X82000000Y-41000000D03*
X77000000Y-41000000D03*
D24*
X127200000Y-28500000D03*
X127200000Y-28000000D03*
X127200000Y-27500000D03*
X127200000Y-27000000D03*
X124800000Y-27000000D03*
X124800000Y-27500000D03*
X124800000Y-28000000D03*
X124800000Y-28500000D03*
D39*
X126000000Y-27750000D03*
D40*
X65000000Y-102400000D03*
X65000000Y-100600000D03*
D41*
X111500000Y-97750000D03*
X111500000Y-99250000D03*
D42*
X90950000Y-74500000D03*
X88050000Y-74500000D03*
X90450000Y-89500000D03*
X87550000Y-89500000D03*
D43*
X112250000Y-70500000D03*
X113750000Y-70500000D03*
D44*
X128900000Y-98750000D03*
X135100000Y-98750000D03*
D45*
X124200000Y-97500000D03*
X125300000Y-97500000D03*
X130950000Y-77500000D03*
X132050000Y-77500000D03*
X133850000Y-87000000D03*
X134950000Y-87000000D03*
D46*
X134500000Y-83450000D03*
X134500000Y-84550000D03*
D47*
X138500000Y-94100000D03*
X138500000Y-87900000D03*
D45*
X125300000Y-101500000D03*
X124200000Y-101500000D03*
X134800000Y-79750000D03*
X133700000Y-79750000D03*
D46*
X128000000Y-87050000D03*
X128000000Y-85950000D03*
D45*
X125200000Y-79250000D03*
X126300000Y-79250000D03*
D43*
X107250000Y-75250000D03*
X105750000Y-75250000D03*
D41*
X116250000Y-74000000D03*
X116250000Y-72500000D03*
D48*
X141050000Y-64500000D03*
X143950000Y-64500000D03*
D41*
X118750000Y-66750000D03*
X118750000Y-65250000D03*
D49*
X98950000Y-55500000D03*
X98050000Y-55500000D03*
X98950000Y-63500000D03*
X98050000Y-63500000D03*
D43*
X110250000Y-63750000D03*
X108750000Y-63750000D03*
D50*
X115250000Y-62700000D03*
X115250000Y-59800000D03*
D41*
X112000000Y-62000000D03*
X112000000Y-60500000D03*
X100250000Y-62000000D03*
X100250000Y-60500000D03*
D50*
X79750000Y-63700000D03*
X79750000Y-60800000D03*
D41*
X105750000Y-58750000D03*
X105750000Y-57250000D03*
X94000000Y-58750000D03*
X94000000Y-57250000D03*
D28*
X158000000Y-97000000D03*
D26*
X158000000Y-99000000D03*
D28*
X158000000Y-71000000D03*
D26*
X158000000Y-73000000D03*
D43*
X143250000Y-30500000D03*
X144750000Y-30500000D03*
D28*
X146500000Y-41500000D03*
D26*
X146500000Y-43500000D03*
D40*
X140250000Y-71150000D03*
X140250000Y-69350000D03*
D51*
X136100000Y-69000000D03*
X137900000Y-69000000D03*
D43*
X144750000Y-28500000D03*
X143250000Y-28500000D03*
D28*
X139000000Y-29500000D03*
D26*
X139000000Y-31500000D03*
D40*
X65000000Y-56400000D03*
X65000000Y-54600000D03*
D41*
X111500000Y-51750000D03*
X111500000Y-53250000D03*
D42*
X90950000Y-28500000D03*
X88050000Y-28500000D03*
X90450000Y-43500000D03*
X87550000Y-43500000D03*
D43*
X112250000Y-24500000D03*
X113750000Y-24500000D03*
D44*
X129000000Y-52750000D03*
X135200000Y-52750000D03*
D45*
X124200000Y-51500000D03*
X125300000Y-51500000D03*
X130950000Y-31500000D03*
X132050000Y-31500000D03*
X133950000Y-40750000D03*
X135050000Y-40750000D03*
D46*
X134500000Y-37450000D03*
X134500000Y-38550000D03*
D45*
X125300000Y-55500000D03*
X124200000Y-55500000D03*
X134800000Y-33750000D03*
X133700000Y-33750000D03*
D46*
X128000000Y-41050000D03*
X128000000Y-39950000D03*
D45*
X125200000Y-33250000D03*
X126300000Y-33250000D03*
D43*
X107250000Y-29250000D03*
X105750000Y-29250000D03*
X117500000Y-26250000D03*
X116000000Y-26250000D03*
D52*
X111800000Y-101100000D03*
X111800000Y-102400000D03*
X113700000Y-101750000D03*
X113950000Y-69150000D03*
X113950000Y-67850000D03*
X112050000Y-68500000D03*
D53*
X132850000Y-74900000D03*
X134150000Y-74900000D03*
X133500000Y-73000000D03*
D54*
X148700000Y-72000000D03*
X153000000Y-72000000D03*
D52*
X111800000Y-55350000D03*
X111800000Y-56650000D03*
X113700000Y-56000000D03*
X113950000Y-23150000D03*
X113950000Y-21850000D03*
X112050000Y-22500000D03*
X118150000Y-29650000D03*
X118150000Y-28350000D03*
X116250000Y-29000000D03*
D55*
X75600000Y-73500000D03*
X71400000Y-73500000D03*
D56*
X107500000Y-105500000D03*
X107500000Y-108500000D03*
X157500000Y-32500000D03*
X157500000Y-35500000D03*
D57*
X159500000Y-20000000D03*
X156500000Y-20000000D03*
D31*
X79000000Y-92250000D03*
X79000000Y-96750000D03*
D26*
X75000000Y-46000000D03*
X75000000Y-48540000D03*
D58*
X69920000Y-40920000D03*
X69920000Y-51080000D03*
D26*
X75000000Y-92000000D03*
X75000000Y-94540000D03*
D58*
X69920000Y-86920000D03*
X69920000Y-97080000D03*
D34*
X157500000Y-30310000D03*
D35*
X157500000Y-27770000D03*
X157500000Y-25230000D03*
X157500000Y-22690000D03*
D28*
X107000000Y-95120000D03*
D59*
X107000000Y-90040000D03*
X107000000Y-84960000D03*
D30*
X107000000Y-79880000D03*
D28*
X107000000Y-49120000D03*
D59*
X107000000Y-44040000D03*
X107000000Y-38960000D03*
D30*
X107000000Y-33880000D03*
D36*
X90500000Y-32355000D03*
X93040000Y-32355000D03*
X95580000Y-32355000D03*
X90500000Y-39645000D03*
X93040000Y-39645000D03*
X95580000Y-39645000D03*
X85420000Y-32355000D03*
X85420000Y-39645000D03*
D28*
X100120000Y-48500000D03*
D29*
X95040000Y-48500000D03*
X89960000Y-48500000D03*
D30*
X84880000Y-48500000D03*
D60*
X70800000Y-61055000D03*
X70800000Y-62325000D03*
X70800000Y-63595000D03*
X70800000Y-64865000D03*
X70800000Y-66135000D03*
X70800000Y-67405000D03*
X70800000Y-68675000D03*
X70800000Y-69945000D03*
X76200000Y-69945000D03*
X76200000Y-68675000D03*
X76200000Y-67405000D03*
X76200000Y-66135000D03*
X76200000Y-64865000D03*
X76200000Y-63595000D03*
X76200000Y-62325000D03*
X76200000Y-61055000D03*
D61*
X113250000Y-99500000D03*
X114750000Y-99500000D03*
X99750000Y-71750000D03*
X98250000Y-71750000D03*
X118250000Y-99500000D03*
X116750000Y-99500000D03*
D13*
X94050000Y-89500000D03*
X94950000Y-89500000D03*
D62*
X95000000Y-74500000D03*
X93000000Y-74500000D03*
X98750000Y-74500000D03*
X96750000Y-74500000D03*
D63*
X101000000Y-78000000D03*
X101000000Y-76000000D03*
D64*
X115500000Y-101250000D03*
X115500000Y-102750000D03*
X117500000Y-101250000D03*
X117500000Y-102750000D03*
D56*
X81000000Y-103000000D03*
X81000000Y-100000000D03*
X78000000Y-103000000D03*
X78000000Y-100000000D03*
X75000000Y-103000000D03*
X75000000Y-100000000D03*
X72000000Y-103000000D03*
X72000000Y-100000000D03*
D13*
X110250000Y-102200000D03*
X110250000Y-101300000D03*
X129250000Y-74800000D03*
X129250000Y-75700000D03*
X129250000Y-72550000D03*
X129250000Y-73450000D03*
X119250000Y-95250000D03*
X119250000Y-94350000D03*
X129250000Y-77300000D03*
X129250000Y-78200000D03*
X130300000Y-86500000D03*
X131200000Y-86500000D03*
X131200000Y-85400000D03*
X130300000Y-85400000D03*
X119250000Y-91700000D03*
X119250000Y-90800000D03*
X136050000Y-82000000D03*
X136950000Y-82000000D03*
X134700000Y-82000000D03*
X133800000Y-82000000D03*
X122750000Y-74800000D03*
X122750000Y-75700000D03*
X122750000Y-72550000D03*
X122750000Y-73450000D03*
X108000000Y-68800000D03*
X108000000Y-69700000D03*
X110450000Y-70500000D03*
X109550000Y-70500000D03*
X109550000Y-69000000D03*
X110450000Y-69000000D03*
X94950000Y-54000000D03*
X94050000Y-54000000D03*
X98950000Y-54000000D03*
X98050000Y-54000000D03*
X94950000Y-65000000D03*
X94050000Y-65000000D03*
X98950000Y-65000000D03*
X98050000Y-65000000D03*
X94950000Y-55500000D03*
X94050000Y-55500000D03*
X94950000Y-63500000D03*
X94050000Y-63500000D03*
X93300000Y-60500000D03*
X94200000Y-60500000D03*
X93300000Y-62000000D03*
X94200000Y-62000000D03*
X109050000Y-55250000D03*
X109950000Y-55250000D03*
X109050000Y-65250000D03*
X109950000Y-65250000D03*
X106300000Y-63750000D03*
X107200000Y-63750000D03*
X106300000Y-65250000D03*
X107200000Y-65250000D03*
D61*
X150750000Y-96000000D03*
X149250000Y-96000000D03*
X147500000Y-96000000D03*
X146000000Y-96000000D03*
X113250000Y-53500000D03*
X114750000Y-53500000D03*
X100000000Y-25500000D03*
X98500000Y-25500000D03*
X118250000Y-53500000D03*
X116750000Y-53500000D03*
D13*
X94050000Y-43500000D03*
X94950000Y-43500000D03*
D62*
X95000000Y-28500000D03*
X93000000Y-28500000D03*
X98750000Y-28500000D03*
X96750000Y-28500000D03*
D63*
X101250000Y-31250000D03*
X101250000Y-29250000D03*
D64*
X115500000Y-55250000D03*
X115500000Y-56750000D03*
X117500000Y-55250000D03*
X117500000Y-56750000D03*
D56*
X78000000Y-57000000D03*
X78000000Y-54000000D03*
X75000000Y-57000000D03*
X75000000Y-54000000D03*
X72000000Y-57000000D03*
X72000000Y-54000000D03*
X81000000Y-57000000D03*
X81000000Y-54000000D03*
D13*
X112000000Y-58050000D03*
X112000000Y-58950000D03*
X129250000Y-28800000D03*
X129250000Y-29700000D03*
X129250000Y-26550000D03*
X129250000Y-27450000D03*
X120450000Y-50250000D03*
X119550000Y-50250000D03*
X129250000Y-31300000D03*
X129250000Y-32200000D03*
X130550000Y-40500000D03*
X131450000Y-40500000D03*
X131450000Y-39400000D03*
X130550000Y-39400000D03*
X119250000Y-45200000D03*
X119250000Y-44300000D03*
X136050000Y-36000000D03*
X136950000Y-36000000D03*
X134700000Y-36000000D03*
X133800000Y-36000000D03*
X122750000Y-28800000D03*
X122750000Y-29700000D03*
X122750000Y-26550000D03*
X122750000Y-27450000D03*
X110450000Y-21500000D03*
X109550000Y-21500000D03*
X110450000Y-24500000D03*
X109550000Y-24500000D03*
D65*
X67550000Y-102600000D03*
X69450000Y-102600000D03*
D66*
X68500000Y-100400000D03*
D67*
X121050000Y-90795000D03*
X121050000Y-91425000D03*
X121050000Y-92055000D03*
X121050000Y-92685000D03*
X121050000Y-93315000D03*
X121050000Y-93945000D03*
X121050000Y-94575000D03*
X121050000Y-95205000D03*
X126450000Y-95205000D03*
X126450000Y-94575000D03*
X126450000Y-93945000D03*
X126450000Y-93315000D03*
X126450000Y-92685000D03*
X126450000Y-92055000D03*
X126450000Y-91425000D03*
X126450000Y-90795000D03*
D68*
X128795000Y-94950000D03*
X129425000Y-94950000D03*
X130055000Y-94950000D03*
X130685000Y-94950000D03*
X131315000Y-94950000D03*
X131945000Y-94950000D03*
X132575000Y-94950000D03*
X133205000Y-94950000D03*
X133205000Y-89550000D03*
X132575000Y-89550000D03*
X131945000Y-89550000D03*
X131315000Y-89550000D03*
X130685000Y-89550000D03*
X130055000Y-89550000D03*
X129425000Y-89550000D03*
X128795000Y-89550000D03*
X121045000Y-87450000D03*
X121675000Y-87450000D03*
X122305000Y-87450000D03*
X122935000Y-87450000D03*
X123565000Y-87450000D03*
X124195000Y-87450000D03*
X124825000Y-87450000D03*
X125455000Y-87450000D03*
X125455000Y-82050000D03*
X124825000Y-82050000D03*
X124195000Y-82050000D03*
X123565000Y-82050000D03*
X122935000Y-82050000D03*
X122305000Y-82050000D03*
X121675000Y-82050000D03*
X121045000Y-82050000D03*
D24*
X127200000Y-74500000D03*
X127200000Y-74000000D03*
X127200000Y-73500000D03*
X127200000Y-73000000D03*
X124800000Y-73000000D03*
X124800000Y-73500000D03*
X124800000Y-74000000D03*
X124800000Y-74500000D03*
D39*
X126000000Y-73750000D03*
D69*
X109725000Y-57300000D03*
X109075000Y-57300000D03*
X108425000Y-57300000D03*
X107775000Y-57300000D03*
X107775000Y-61700000D03*
X108425000Y-61700000D03*
X109075000Y-61700000D03*
X109725000Y-61700000D03*
X97975000Y-57300000D03*
X97325000Y-57300000D03*
X96675000Y-57300000D03*
X96025000Y-57300000D03*
X96025000Y-61700000D03*
X96675000Y-61700000D03*
X97325000Y-61700000D03*
X97975000Y-61700000D03*
D27*
X114200000Y-28475000D03*
X114200000Y-27825000D03*
X114200000Y-27175000D03*
X114200000Y-26525000D03*
X109800000Y-26525000D03*
X109800000Y-27175000D03*
X109800000Y-27825000D03*
X109800000Y-28475000D03*
D70*
X148460000Y-92050000D03*
X153540000Y-92050000D03*
D71*
X151000000Y-81000000D03*
D72*
X143900000Y-33200000D03*
X143900000Y-37800000D03*
D73*
X150800000Y-35500000D03*
D72*
X143900000Y-21200000D03*
X143900000Y-25800000D03*
D73*
X150800000Y-23500000D03*
D65*
X67550000Y-56600000D03*
X69450000Y-56600000D03*
D66*
X68500000Y-54400000D03*
D67*
X121050000Y-44795000D03*
X121050000Y-45425000D03*
X121050000Y-46055000D03*
X121050000Y-46685000D03*
X121050000Y-47315000D03*
X121050000Y-47945000D03*
X121050000Y-48575000D03*
X121050000Y-49205000D03*
X126450000Y-49205000D03*
X126450000Y-48575000D03*
X126450000Y-47945000D03*
X126450000Y-47315000D03*
X126450000Y-46685000D03*
X126450000Y-46055000D03*
X126450000Y-45425000D03*
X126450000Y-44795000D03*
D68*
X128795000Y-48950000D03*
X129425000Y-48950000D03*
X130055000Y-48950000D03*
X130685000Y-48950000D03*
X131315000Y-48950000D03*
X131945000Y-48950000D03*
X132575000Y-48950000D03*
X133205000Y-48950000D03*
X133205000Y-43550000D03*
X132575000Y-43550000D03*
X131945000Y-43550000D03*
X131315000Y-43550000D03*
X130685000Y-43550000D03*
X130055000Y-43550000D03*
X129425000Y-43550000D03*
X128795000Y-43550000D03*
X121045000Y-41450000D03*
X121675000Y-41450000D03*
X122305000Y-41450000D03*
X122935000Y-41450000D03*
X123565000Y-41450000D03*
X124195000Y-41450000D03*
X124825000Y-41450000D03*
X125455000Y-41450000D03*
X125455000Y-36050000D03*
X124825000Y-36050000D03*
X124195000Y-36050000D03*
X123565000Y-36050000D03*
X122935000Y-36050000D03*
X122305000Y-36050000D03*
X121675000Y-36050000D03*
X121045000Y-36050000D03*
D41*
X126750000Y-68250000D03*
X126750000Y-66750000D03*
D13*
X128300000Y-25000000D03*
X129200000Y-25000000D03*
X123700000Y-25000000D03*
X122800000Y-25000000D03*
X128300000Y-71000000D03*
X129200000Y-71000000D03*
X123700000Y-71000000D03*
X122800000Y-71000000D03*
D74*
X158160000Y-105000000D03*
X137840000Y-105000000D03*
D75*
X140000000Y-52000000D03*
X100500000Y-55500000D03*
X98500000Y-69000000D03*
D76*
X63600840Y-61000000D03*
X65399160Y-61000000D03*
X63600840Y-62500000D03*
X65399160Y-62500000D03*
X63600840Y-64000000D03*
X65399160Y-64000000D03*
X63600840Y-65500000D03*
X65399160Y-65500000D03*
X63600840Y-67000000D03*
X65399160Y-67000000D03*
X63600840Y-68500000D03*
X65399160Y-68500000D03*
D13*
X68450000Y-61000000D03*
X67550000Y-61000000D03*
X68450000Y-62500000D03*
X67550000Y-62500000D03*
X68450000Y-64000000D03*
X67550000Y-64000000D03*
X68450000Y-65500000D03*
X67550000Y-65500000D03*
X68450000Y-67000000D03*
X67550000Y-67000000D03*
X68450000Y-68500000D03*
X67550000Y-68500000D03*
D76*
X144149160Y-48000000D03*
X142350840Y-48000000D03*
X144149160Y-46500000D03*
X142350840Y-46500000D03*
X144149160Y-49500000D03*
X142350840Y-49500000D03*
X129399160Y-104000000D03*
X127600840Y-104000000D03*
X129399160Y-107000000D03*
X127600840Y-107000000D03*
X129399160Y-105500000D03*
X127600840Y-105500000D03*
D13*
X139600000Y-48000000D03*
X140500000Y-48000000D03*
X139550000Y-46500000D03*
X140450000Y-46500000D03*
X139550000Y-49500000D03*
X140450000Y-49500000D03*
X124850000Y-104000000D03*
X125750000Y-104000000D03*
X124850000Y-107000000D03*
X125750000Y-107000000D03*
X124800000Y-105500000D03*
X125700000Y-105500000D03*
D77*
X132400000Y-87450000D03*
X132400000Y-86550000D03*
X132700000Y-41450000D03*
X132700000Y-40550000D03*
D13*
X130300000Y-87600000D03*
X131200000Y-87600000D03*
X130550000Y-41600000D03*
X131450000Y-41600000D03*
D77*
X137500000Y-79750000D03*
X137500000Y-80650000D03*
X137500000Y-33750000D03*
X137500000Y-34650000D03*
D13*
X136400000Y-80650000D03*
X136400000Y-79750000D03*
X136400000Y-34650000D03*
X136400000Y-33750000D03*
D51*
X145800000Y-70500000D03*
X144000000Y-70500000D03*
X148900000Y-29500000D03*
X147100000Y-29500000D03*
D13*
X140450000Y-43500000D03*
X139550000Y-43500000D03*
X140450000Y-45000000D03*
X139550000Y-45000000D03*
X137700000Y-43500000D03*
X136800000Y-43500000D03*
X137700000Y-45000000D03*
X136800000Y-45000000D03*
D65*
X145950000Y-72650000D03*
X144050000Y-72650000D03*
D66*
X145000000Y-74850000D03*
D78*
X151400000Y-28550000D03*
X151400000Y-30450000D03*
D79*
X153600000Y-29500000D03*
D28*
X157000000Y-41749940D03*
D26*
X157000000Y-45250060D03*
D28*
X137500000Y-21249940D03*
D26*
X137500000Y-24750060D03*
D61*
X138000000Y-73000000D03*
X136500000Y-73000000D03*
D80*
X137925000Y-71500000D03*
X137925000Y-71000000D03*
X137925000Y-70500000D03*
X136075000Y-70500000D03*
X136075000Y-71000000D03*
X136075000Y-71500000D03*
D15*
X120750000Y-67150000D03*
X120750000Y-68850000D03*
X141250000Y-59150000D03*
X141250000Y-60850000D03*
D81*
X114500000Y-39300000D03*
X114500000Y-35000000D03*
X114500000Y-85300000D03*
X114500000Y-81000000D03*
D75*
X67000000Y-77500000D03*
X67000000Y-79500000D03*
X133000000Y-69500000D03*
D82*
X143500000Y-60400000D03*
X143500000Y-59500000D03*
X123000000Y-67950000D03*
X123000000Y-67050000D03*
D77*
X127250000Y-56950000D03*
X127250000Y-56050000D03*
X139000000Y-59300000D03*
X139000000Y-60200000D03*
D82*
X103500000Y-106950000D03*
X103500000Y-106050000D03*
X102000000Y-106950000D03*
X102000000Y-106050000D03*
D13*
X105000000Y-106050000D03*
X105000000Y-106950000D03*
X102000000Y-103050000D03*
X102000000Y-103950000D03*
X103500000Y-103050000D03*
X103500000Y-103950000D03*
X130750000Y-27800000D03*
X130750000Y-28700000D03*
X121250000Y-27600000D03*
X121250000Y-28500000D03*
X130750000Y-73600000D03*
X130750000Y-74500000D03*
X121250000Y-73550000D03*
X121250000Y-74450000D03*
X105050000Y-60000000D03*
X105950000Y-60000000D03*
X104000000Y-62200000D03*
X104000000Y-61300000D03*
X102000000Y-58950000D03*
X102000000Y-58050000D03*
X102000000Y-55500000D03*
X102000000Y-56400000D03*
X104000000Y-64700000D03*
X104000000Y-63800000D03*
X125000000Y-67900000D03*
X125000000Y-67000000D03*
X143300000Y-52500000D03*
X144200000Y-52500000D03*
X143300000Y-57500000D03*
X144200000Y-57500000D03*
D15*
X103500000Y-57650000D03*
X103500000Y-59350000D03*
D14*
X117895000Y-69250000D03*
X130725000Y-68250000D03*
D12*
X95990000Y-71750000D03*
X93010000Y-71750000D03*
D23*
X101250000Y-61144990D03*
X106749996Y-58000000D03*
X64000000Y-33000000D03*
X64000000Y-30000000D03*
X64000000Y-27000000D03*
X64000000Y-24000000D03*
X64000000Y-21000000D03*
X67000000Y-21000000D03*
X67000000Y-24000000D03*
X67000000Y-27000000D03*
X67000000Y-30000000D03*
X67000000Y-33000000D03*
X73000000Y-33000000D03*
X73000000Y-30000000D03*
X73000000Y-27000000D03*
X73000000Y-24000000D03*
X73000000Y-21000000D03*
X70000000Y-21000000D03*
X70000000Y-24000000D03*
X70000000Y-27000000D03*
X70000000Y-30000000D03*
X70000000Y-33000000D03*
X74000000Y-49500000D03*
X73500000Y-48500000D03*
X75000000Y-50000000D03*
X70000000Y-48000000D03*
X70000000Y-44000000D03*
X70000000Y-46000000D03*
X74000000Y-95500000D03*
X75000000Y-96000000D03*
X73500000Y-94500000D03*
X70000000Y-94000000D03*
X70000000Y-90000000D03*
X70000000Y-92000000D03*
X77250000Y-88250000D03*
X77000000Y-85750000D03*
X77000000Y-77750000D03*
X77000000Y-80250000D03*
X81000000Y-73250000D03*
X81000000Y-70750000D03*
X77000000Y-42250000D03*
X77000000Y-39750000D03*
X77000000Y-34250000D03*
X77000000Y-31750000D03*
X81000000Y-24750000D03*
X81000000Y-27250000D03*
X156750000Y-99000000D03*
X157000000Y-74000000D03*
X154250000Y-52500000D03*
X154250000Y-57500000D03*
X154250000Y-60000000D03*
X145750000Y-21250000D03*
X136250000Y-21250000D03*
X139750000Y-28250000D03*
X139000000Y-28250000D03*
X147750000Y-43500000D03*
X145250000Y-43500000D03*
X158233835Y-45266165D03*
X155750000Y-45250000D03*
X159250000Y-25250000D03*
X159250000Y-26500000D03*
X159250000Y-27750000D03*
X136750000Y-53500000D03*
X136750000Y-53500000D03*
X112579200Y-56001050D03*
X111750000Y-104250000D03*
X146000000Y-97000000D03*
X122250000Y-92709990D03*
X120000000Y-44250000D03*
X123003750Y-42496231D03*
X100250000Y-70000000D03*
X153750000Y-28750000D03*
X145750000Y-30500000D03*
X137500000Y-35250000D03*
X122768980Y-30410020D03*
X128500000Y-112000000D03*
X118250000Y-25750000D03*
X99250000Y-107500000D03*
X121983805Y-30016195D03*
X124246531Y-86487509D03*
X126000000Y-98250000D03*
X124500000Y-112000000D03*
X71500000Y-70750000D03*
X120500000Y-112000000D03*
X117500000Y-111000000D03*
X122500000Y-111000000D03*
X132750000Y-30750000D03*
X124250000Y-32500000D03*
X126000000Y-55500000D03*
X124500000Y-25370009D03*
X125250000Y-46669990D03*
X79000000Y-62500000D03*
X105000000Y-75250000D03*
X133500000Y-98750000D03*
X132750000Y-78250000D03*
X125220163Y-94758354D03*
X94500000Y-23500000D03*
X126773363Y-71226637D03*
X124500000Y-71250000D03*
X114500000Y-61250000D03*
X106939871Y-62689871D03*
X126000000Y-51500000D03*
X127500000Y-25370009D03*
X123198280Y-37399607D03*
X117250000Y-74000000D03*
X138500000Y-92500000D03*
X114500000Y-24500000D03*
X125500000Y-86500000D03*
X125250000Y-44750000D03*
X69250000Y-70750000D03*
X73000000Y-70750000D03*
X70750000Y-70750000D03*
X122500000Y-112000000D03*
X125217248Y-71282752D03*
X143250000Y-27750000D03*
X122250000Y-83000000D03*
X132750000Y-31500000D03*
X133500000Y-99500000D03*
X136750000Y-52000000D03*
X127250000Y-87750000D03*
X135500000Y-33000000D03*
X119500000Y-111000000D03*
X120500000Y-111000000D03*
X132750000Y-77500000D03*
X124514381Y-79985619D03*
X124500000Y-79250000D03*
X135500000Y-34500000D03*
X112500000Y-112000000D03*
X121500000Y-112000000D03*
X124500000Y-111000000D03*
X124250000Y-33250000D03*
X127499998Y-93250000D03*
X122250000Y-48030003D03*
X133084897Y-47925091D03*
X122998427Y-86498956D03*
X133250000Y-93750000D03*
X125250000Y-25370009D03*
X116000000Y-61250000D03*
X70000000Y-70750000D03*
X115250000Y-61250000D03*
X101500000Y-111000000D03*
X131500000Y-111000000D03*
X115500000Y-112000000D03*
X124250000Y-34000000D03*
X125500000Y-111000000D03*
X125500000Y-112000000D03*
X127500000Y-112000000D03*
X94500000Y-69750000D03*
X99250000Y-107500000D03*
X97000000Y-86500000D03*
X98000000Y-85750000D03*
X98000000Y-40000000D03*
X126000000Y-50750000D03*
X110894998Y-101250000D03*
X122530003Y-37250000D03*
X126000000Y-98250000D03*
X133500000Y-99500000D03*
X133500000Y-98000000D03*
X126773363Y-71226637D03*
X123003749Y-42496232D03*
X136750000Y-52750000D03*
X127500000Y-71250000D03*
X125217248Y-71282752D03*
X121500000Y-111000000D03*
X124500000Y-71250000D03*
X79000000Y-62500000D03*
X111000000Y-61000000D03*
X79750000Y-62500000D03*
X126000000Y-54750000D03*
X126000000Y-51500000D03*
X126837812Y-25412188D03*
X125250000Y-25370009D03*
X121983805Y-30016195D03*
X122768980Y-30410020D03*
X101500000Y-112000000D03*
X123198280Y-37399607D03*
X137750000Y-92500000D03*
X126000000Y-102250000D03*
X125500000Y-42500000D03*
X104750000Y-29250000D03*
X114500000Y-70500000D03*
X97000000Y-40750000D03*
X69250000Y-70750000D03*
X70000000Y-70750000D03*
X126000000Y-54750000D03*
X73000000Y-70750000D03*
X72250000Y-70750000D03*
X124250000Y-42500000D03*
X71500000Y-70750000D03*
X70750000Y-70750000D03*
X126000000Y-52250000D03*
X126000000Y-52250000D03*
X131774268Y-96026499D03*
X126000000Y-101500000D03*
X127250000Y-87750000D03*
X126000000Y-100750000D03*
X127250000Y-41750000D03*
X127901655Y-87755336D03*
X126000000Y-96750000D03*
X125250000Y-49000000D03*
X72250000Y-70750000D03*
X132750000Y-77500000D03*
X124520558Y-78520942D03*
X126000000Y-97500000D03*
X124520558Y-78520942D03*
X80500000Y-62500000D03*
X126000000Y-97500000D03*
X124500000Y-79250000D03*
X98000000Y-40000000D03*
X135500000Y-33000000D03*
X97000000Y-40750000D03*
X132750000Y-32250000D03*
X137750000Y-92500000D03*
X132750000Y-30750000D03*
X135500000Y-33750000D03*
X124250000Y-32500000D03*
X124250000Y-34000000D03*
X127250000Y-41750000D03*
X126500000Y-112000000D03*
X127499998Y-93250000D03*
X114500000Y-70500000D03*
X125250000Y-44750000D03*
X127901655Y-87755336D03*
X114500000Y-111000000D03*
X125250000Y-49000000D03*
X125250000Y-46000000D03*
X131250000Y-42500000D03*
X132750000Y-32250000D03*
X94500000Y-23500000D03*
X130574996Y-47936802D03*
X135500000Y-33750000D03*
X126000000Y-55500000D03*
X123675004Y-83063198D03*
X122998427Y-86498956D03*
X133250000Y-93750000D03*
X125500000Y-86500000D03*
X125250000Y-92000000D03*
X125250000Y-92750000D03*
X122250000Y-94000000D03*
X117250000Y-74000000D03*
X125500000Y-42500000D03*
X114500000Y-112000000D03*
X114500000Y-61250000D03*
X130000000Y-42500000D03*
X115250000Y-61250000D03*
X124514381Y-79985619D03*
X101500000Y-112000000D03*
X126000000Y-96750000D03*
X115500000Y-111000000D03*
X122250000Y-83000000D03*
X114500000Y-111000000D03*
X136750000Y-52750000D03*
X117500000Y-112000000D03*
X127500000Y-111000000D03*
X130500000Y-112000000D03*
X117500000Y-111000000D03*
X132000000Y-48000000D03*
X120500000Y-111000000D03*
X132750000Y-31500000D03*
X138500000Y-92500000D03*
X121500000Y-112000000D03*
X127500000Y-25370009D03*
X126837812Y-25412188D03*
X124500000Y-111000000D03*
X124246531Y-86487509D03*
X125500000Y-111000000D03*
X130000000Y-90750000D03*
X139250000Y-92500000D03*
X126000000Y-100750000D03*
X128500000Y-112000000D03*
X130500000Y-111000000D03*
X128000000Y-41750000D03*
X128500000Y-111000000D03*
X114500000Y-24500000D03*
X118250000Y-25750000D03*
X112500000Y-111000000D03*
X130500000Y-112000000D03*
X126000000Y-50750000D03*
X135500000Y-34500000D03*
X105000000Y-75250000D03*
X137500000Y-36000000D03*
X133084897Y-47925091D03*
X130500000Y-111000000D03*
X110894998Y-101250000D03*
X131500000Y-112000000D03*
X128000000Y-41750000D03*
X112750000Y-57500000D03*
X123500000Y-112000000D03*
X136750000Y-52000000D03*
X123500000Y-111000000D03*
X122250000Y-48030003D03*
X126000000Y-102250000D03*
X122500000Y-112000000D03*
X126500000Y-111000000D03*
X130000000Y-90750000D03*
X125250000Y-92750000D03*
X119500000Y-112000000D03*
X126500000Y-111000000D03*
X115500000Y-112000000D03*
X123500000Y-112000000D03*
X126500000Y-112000000D03*
X119500000Y-111000000D03*
X125250000Y-46000000D03*
X120500000Y-112000000D03*
X125500000Y-112000000D03*
X63500000Y-61750000D03*
X129250000Y-102999991D03*
X122530003Y-37250000D03*
X122250000Y-46469997D03*
X145250000Y-49500000D03*
X127500000Y-58500000D03*
X133500000Y-98750000D03*
X135750000Y-40750000D03*
X122500000Y-111000000D03*
X135750000Y-41500000D03*
X135789929Y-43500000D03*
X104750000Y-29250000D03*
X131500000Y-112000000D03*
X94500000Y-69750000D03*
X134517393Y-39210243D03*
X112500000Y-111000000D03*
X127500000Y-112000000D03*
X154500000Y-35500000D03*
X125250000Y-90750000D03*
X112500000Y-112000000D03*
X154500000Y-36250000D03*
X154500000Y-34750000D03*
X127499996Y-47250000D03*
X98000000Y-85750000D03*
X135250000Y-66000000D03*
X106939871Y-62689871D03*
X126000000Y-56250000D03*
X133750000Y-66000000D03*
X139250000Y-92500000D03*
X122250000Y-46469997D03*
X130574996Y-47936802D03*
X139214947Y-70208573D03*
X132750000Y-76750000D03*
X125250000Y-90750000D03*
X116000000Y-61250000D03*
X138592237Y-61585058D03*
X140644978Y-62000000D03*
X145000000Y-63750000D03*
X132100000Y-40500000D03*
X145266195Y-69016195D03*
X124500000Y-112000000D03*
X119500000Y-112000000D03*
X140250000Y-68500000D03*
X126000000Y-101500000D03*
X63500000Y-64750000D03*
X123675004Y-83063198D03*
X128500000Y-111000000D03*
X101500000Y-111000000D03*
X63500000Y-67750000D03*
X117500000Y-112000000D03*
X132000000Y-48000000D03*
X138592238Y-61585058D03*
X139750000Y-60250000D03*
X132750000Y-76750000D03*
X104535170Y-110000000D03*
X115500000Y-111000000D03*
X131116784Y-55222398D03*
X130000000Y-42500000D03*
X131774268Y-96026499D03*
X132750000Y-78250000D03*
X104535172Y-110000000D03*
X104535170Y-110999998D03*
X135750000Y-40000000D03*
X126000000Y-56250000D03*
X121500000Y-111000000D03*
X127500000Y-58500000D03*
X118802813Y-67697187D03*
X124250000Y-42500000D03*
X145000000Y-64500000D03*
X131250000Y-42500000D03*
X131500000Y-111000000D03*
X122250000Y-94000000D03*
X124250000Y-33250000D03*
X79750000Y-62500000D03*
X122750000Y-76250000D03*
X135250000Y-39250000D03*
X127500000Y-71250000D03*
X100250000Y-59394990D03*
X145000000Y-65250000D03*
X102000000Y-54750000D03*
X95000000Y-58750000D03*
X125250000Y-46669990D03*
X123500000Y-111000000D03*
X111000000Y-61000000D03*
X80500000Y-62500000D03*
X125250000Y-92000000D03*
X102250000Y-53250000D03*
X127500000Y-111000000D03*
X104535172Y-110999998D03*
X112750000Y-57500000D03*
X120750000Y-70000000D03*
X133500000Y-98000000D03*
X97000000Y-86500000D03*
X127499996Y-47250000D03*
X135750000Y-60750000D03*
X114500000Y-112000000D03*
X93250000Y-61144990D03*
X119250048Y-90105565D03*
X131750000Y-86500000D03*
X135500000Y-79750000D03*
X135500000Y-79000000D03*
X135500000Y-80500000D03*
X134500000Y-85250000D03*
X133767393Y-85210243D03*
X135250000Y-85250000D03*
X135500000Y-80500000D03*
X134500000Y-85250000D03*
X133767393Y-85210243D03*
X135250000Y-85250000D03*
X135500000Y-79000000D03*
X135500000Y-79750000D03*
X135750000Y-87000000D03*
X135750000Y-86250000D03*
X135750000Y-87750000D03*
X137500000Y-81250000D03*
X137500000Y-82000000D03*
X130780003Y-96000000D03*
X131500000Y-90669945D03*
X124500000Y-25370009D03*
X119750000Y-21250000D03*
X119750000Y-22000000D03*
X119750000Y-20500000D03*
X123000000Y-19750000D03*
X124250000Y-19750000D03*
X128750000Y-21250000D03*
X128750000Y-22000000D03*
X128750000Y-20500000D03*
X124000000Y-66750000D03*
X128750000Y-68250000D03*
X128750000Y-67500000D03*
X108500000Y-72500000D03*
X108500000Y-26500000D03*
X131750000Y-79250000D03*
X65000000Y-76404004D03*
X137250000Y-74413551D03*
X140470683Y-42500000D03*
X127250000Y-53500000D03*
X127250000Y-52000000D03*
X127250000Y-52750000D03*
X127250000Y-99500000D03*
X127250000Y-98000000D03*
X127250000Y-98750000D03*
X130500000Y-30750000D03*
X136000000Y-37500000D03*
X133250000Y-42250000D03*
X124750000Y-40250000D03*
X121750000Y-37250000D03*
X123291138Y-50680020D03*
X128259388Y-73518777D03*
X136000000Y-83500000D03*
X124250000Y-96000000D03*
X122250000Y-94780003D03*
X127500000Y-91500000D03*
X124750000Y-88500000D03*
X121750000Y-81000000D03*
X132734610Y-50016067D03*
X129221891Y-42445692D03*
X119983933Y-48734610D03*
X127500000Y-45500000D03*
X132553761Y-95998038D03*
X129500008Y-88500000D03*
X128000000Y-27429990D03*
X123700000Y-28269990D03*
X65000000Y-57500000D03*
X65000000Y-103500000D03*
X123754921Y-74240158D03*
X115750000Y-23250000D03*
X134000000Y-88500000D03*
X115250000Y-69500000D03*
X135250000Y-31500000D03*
X132500000Y-80030020D03*
X122500000Y-91750000D03*
X66000000Y-78500000D03*
X134229909Y-45000000D03*
X139250000Y-89500000D03*
X137750000Y-89500000D03*
X138500000Y-89500000D03*
X132750000Y-33500000D03*
X127500000Y-39105006D03*
X126250000Y-31750000D03*
X122317811Y-40287801D03*
X124250000Y-56750000D03*
X127500000Y-84855010D03*
X126250000Y-80500000D03*
X124250000Y-103000000D03*
X130000000Y-96000000D03*
X132000000Y-88250000D03*
X122250000Y-88500000D03*
X130000000Y-50000000D03*
X132030003Y-42500000D03*
X120007579Y-46005008D03*
X127500000Y-94030013D03*
X127588155Y-48193839D03*
X123472804Y-80801256D03*
X124000000Y-27500000D03*
X123749942Y-73460162D03*
X123979886Y-37373868D03*
X118250000Y-58000000D03*
X106750000Y-55250000D03*
X120697194Y-31697194D03*
X105087419Y-64429990D03*
X93000000Y-55500000D03*
X93000000Y-63500000D03*
X102000000Y-59750000D03*
X111250000Y-64429990D03*
X109500000Y-59929980D03*
X85250000Y-83500000D03*
X85250000Y-37500000D03*
X150000000Y-74000000D03*
X151000000Y-74000000D03*
X152000000Y-74000000D03*
X153000000Y-74000000D03*
X154000000Y-74000000D03*
X155000000Y-74000000D03*
X138000000Y-107500000D03*
X137000000Y-107500000D03*
X136000000Y-107500000D03*
X135000000Y-107500000D03*
X100500000Y-111000000D03*
X99500000Y-111000000D03*
X100500000Y-112000000D03*
X99500000Y-112000000D03*
X154250000Y-62500000D03*
X129500000Y-56500000D03*
X140644978Y-66000000D03*
X139105010Y-73000000D03*
X136250000Y-65000000D03*
X155000000Y-27750000D03*
X106750000Y-104000000D03*
X108250000Y-104000000D03*
X107500000Y-104000000D03*
X127250000Y-65820010D03*
X126750000Y-58250000D03*
X137250000Y-64000000D03*
X143000000Y-56500000D03*
X143000000Y-53500000D03*
X146046007Y-68998985D03*
X139750000Y-65000000D03*
X105500000Y-110000000D03*
X75250000Y-60750000D03*
X75250000Y-63250000D03*
X85250000Y-34500000D03*
X75250000Y-62000000D03*
X73000000Y-75750000D03*
X77750000Y-69290040D03*
X85250000Y-80750000D03*
X73780003Y-75750000D03*
X100000000Y-54000000D03*
X115500000Y-57500000D03*
X128250000Y-24229989D03*
X123750000Y-24229989D03*
X117500000Y-57500000D03*
X107750000Y-54669990D03*
X99500000Y-69750000D03*
X113250000Y-103750000D03*
X128750000Y-70000000D03*
X123500000Y-70000000D03*
X112500000Y-104000000D03*
X101000000Y-70500000D03*
X132280010Y-28910020D03*
X121750000Y-58000000D03*
X130750000Y-71500000D03*
X119500000Y-70000000D03*
X125137811Y-62830020D03*
X131204173Y-62313327D03*
X124000000Y-63250000D03*
X132286479Y-62890031D03*
X107750000Y-110500000D03*
X141250000Y-51500000D03*
X109500000Y-20500000D03*
X108750000Y-69750000D03*
X108632908Y-97000000D03*
X113500000Y-90500000D03*
X108120291Y-50750000D03*
X113000000Y-43956243D03*
X91500000Y-38500000D03*
X91500000Y-38500000D03*
X98750000Y-61479850D03*
X113250000Y-75250000D03*
X138750000Y-75780003D03*
X110500000Y-61750000D03*
X113250000Y-62750000D03*
X113250000Y-62000000D03*
X113250000Y-61320010D03*
X114000000Y-75250000D03*
X109750000Y-29250000D03*
X96000000Y-58500000D03*
X116000000Y-27250000D03*
X117250000Y-72500000D03*
X79750000Y-59250000D03*
X79000000Y-59250000D03*
X80500000Y-59250000D03*
X118000000Y-73750000D03*
X138750000Y-75000000D03*
X107669224Y-58503687D03*
X136500000Y-67535019D03*
X136500000Y-66000000D03*
X122250000Y-51500000D03*
X123750000Y-53250000D03*
X124250000Y-62500000D03*
X130404646Y-61971504D03*
X93000000Y-54000000D03*
X118577287Y-60466697D03*
X93000000Y-64500000D03*
X118000000Y-61000000D03*
X107530617Y-59386773D03*
X119320812Y-60230925D03*
X118023044Y-61878656D03*
X105000000Y-63000000D03*
X67250000Y-69500000D03*
X135778057Y-59528057D03*
X122500000Y-90750000D03*
X138500000Y-63750000D03*
X123750000Y-103644990D03*
X120250000Y-75500000D03*
X119500000Y-75250000D03*
X118644990Y-96750000D03*
X118500000Y-88000000D03*
X139000000Y-62250000D03*
X120719997Y-104269990D03*
X132838795Y-35523678D03*
X126000000Y-38499996D03*
X121000000Y-75750000D03*
X138750000Y-63000000D03*
X120500000Y-89500000D03*
X121500000Y-104269990D03*
X128500000Y-28194990D03*
X116750000Y-25000000D03*
X119500000Y-58750000D03*
X108447187Y-58447187D03*
X73500000Y-68250000D03*
X135838580Y-58560514D03*
X131500004Y-53000000D03*
X138750000Y-46500000D03*
X122250000Y-44750000D03*
X131231482Y-53781790D03*
X138750000Y-49500000D03*
X121000000Y-42750000D03*
X126250000Y-36030003D03*
X121000000Y-39250000D03*
X124310289Y-63970592D03*
X131752031Y-63495051D03*
X72000000Y-61000000D03*
X132500000Y-61250000D03*
X72000000Y-62250000D03*
X133250000Y-62000000D03*
X72000000Y-63500000D03*
X133071307Y-62796771D03*
X72000000Y-64750000D03*
X127649264Y-60805966D03*
X72000000Y-66250000D03*
X129783289Y-61499998D03*
X72000000Y-67500000D03*
X127649263Y-62194034D03*
X144120060Y-73750000D03*
X138750019Y-54319970D03*
X139500002Y-53750000D03*
X152500000Y-30500000D03*
X141801545Y-50948455D03*
X128249375Y-74298714D03*
X118780003Y-73750000D03*
X133000000Y-71750000D03*
X124000000Y-99250000D03*
X122000000Y-96000000D03*
X131250000Y-47000000D03*
X130250000Y-46000000D03*
X128750000Y-44750000D03*
X127394990Y-43500000D03*
X132838795Y-81523678D03*
X126249998Y-84250000D03*
X129750000Y-92250000D03*
X131000000Y-93000000D03*
X129052806Y-90697194D03*
X127250000Y-88969980D03*
X89500000Y-33750000D03*
X89500000Y-79500000D03*
X89500000Y-79500000D03*
X91500000Y-84500000D03*
X91500000Y-84500000D03*
X144250000Y-55000000D03*
X143750000Y-51250000D03*
X131220222Y-58057000D03*
X103500000Y-105250000D03*
X130476189Y-57742477D03*
X102000000Y-105250000D03*
X133750000Y-58000000D03*
X133040956Y-58429980D03*
X132220089Y-58884943D03*
X132360243Y-58012026D03*
X141528057Y-57028057D03*
X138500000Y-43500000D03*
X137069970Y-50750000D03*
X138500000Y-45000000D03*
X127750000Y-46500000D03*
X125222955Y-47508005D03*
X125225852Y-93742466D03*
X127750000Y-92500000D03*
X124750000Y-38750000D03*
X130250000Y-45000000D03*
X125500000Y-43500000D03*
X124750000Y-37250004D03*
X124750000Y-83144990D03*
X123750000Y-85105010D03*
X130250000Y-91500000D03*
X126250000Y-88969980D03*
X126250000Y-35250000D03*
X129250000Y-33144978D03*
X126750000Y-81500000D03*
X129250000Y-79144976D03*
X140250000Y-55750000D03*
X133301552Y-60448448D03*
D83*
X94000000Y-73500000D02*
X94500000Y-73000000D01*
X94500000Y-73000000D02*
X94500000Y-69750000D01*
X94000000Y-76000000D02*
X94000000Y-73500000D01*
X94114188Y-76114188D02*
X94000000Y-76000000D01*
X97750000Y-76114188D02*
X97750000Y-77000000D01*
X97750000Y-73250000D02*
X97750000Y-76114188D01*
X97750000Y-76114188D02*
X94114188Y-76114188D01*
X102500000Y-28500000D02*
X101750000Y-27750000D01*
X102250000Y-74500000D02*
X101750000Y-74000000D01*
D84*
X101250000Y-61144990D02*
X101394990Y-61000000D01*
X101394990Y-61000000D02*
X102000000Y-61000000D01*
D85*
X106749996Y-58625004D02*
X106749996Y-58000000D01*
X106625000Y-58750000D02*
X106749996Y-58625004D01*
X105750000Y-58750000D02*
X106625000Y-58750000D01*
X105605010Y-58750000D02*
X105750000Y-58750000D01*
D84*
X70000000Y-36000000D02*
X64000000Y-36000000D01*
X67000000Y-33000000D02*
X64000000Y-33000000D01*
X67000000Y-30000000D02*
X64000000Y-30000000D01*
X67000000Y-27000000D02*
X64000000Y-27000000D01*
X67000000Y-24000000D02*
X64000000Y-24000000D01*
X67000000Y-21000000D02*
X64000000Y-21000000D01*
X70000000Y-21000000D02*
X67000000Y-21000000D01*
X70000000Y-24000000D02*
X67000000Y-24000000D01*
X70000000Y-27000000D02*
X67000000Y-27000000D01*
X70000000Y-30000000D02*
X67000000Y-30000000D01*
X70000000Y-33000000D02*
X67000000Y-33000000D01*
X70000000Y-36000000D02*
X73000000Y-36000000D01*
X70000000Y-33000000D02*
X73000000Y-33000000D01*
X70000000Y-30000000D02*
X73000000Y-30000000D01*
X70000000Y-27000000D02*
X73000000Y-27000000D01*
X70000000Y-24000000D02*
X73000000Y-24000000D01*
X70000000Y-21000000D02*
X73000000Y-21000000D01*
X70000000Y-24000000D02*
X70000000Y-21000000D01*
X70000000Y-27000000D02*
X70000000Y-24000000D01*
X70000000Y-30000000D02*
X70000000Y-27000000D01*
X70000000Y-33000000D02*
X70000000Y-30000000D01*
X70000000Y-36000000D02*
X70000000Y-33000000D01*
X69920000Y-40920000D02*
X69920000Y-36080000D01*
X69920000Y-36080000D02*
X70000000Y-36000000D01*
D86*
X158000000Y-99000000D02*
X156750000Y-99000000D01*
X158000000Y-73000000D02*
X157000000Y-74000000D01*
D87*
X143900000Y-21200000D02*
X145700000Y-21200000D01*
X145700000Y-21200000D02*
X145750000Y-21250000D01*
X137500000Y-21249940D02*
X136250060Y-21249940D01*
X136250060Y-21249940D02*
X136250000Y-21250000D01*
X139000000Y-28250000D02*
X139750000Y-28250000D01*
X139000000Y-29500000D02*
X139000000Y-28250000D01*
X146500000Y-43500000D02*
X147750000Y-43500000D01*
X146500000Y-43500000D02*
X145250000Y-43500000D01*
X157000000Y-45250060D02*
X158217730Y-45250060D01*
X158217730Y-45250060D02*
X158233835Y-45266165D01*
X157000000Y-45250060D02*
X155750060Y-45250060D01*
X155750060Y-45250060D02*
X155750000Y-45250000D01*
X159250000Y-25250000D02*
X157520000Y-25250000D01*
X157520000Y-25250000D02*
X157500000Y-25230000D01*
X159250000Y-26500000D02*
X159250000Y-25250000D01*
X159250000Y-27750000D02*
X159250000Y-26500000D01*
X157500000Y-27770000D02*
X159230000Y-27770000D01*
X159230000Y-27770000D02*
X159250000Y-27750000D01*
D84*
X136750000Y-52750000D02*
X136750000Y-53500000D01*
D85*
X141250000Y-61394978D02*
X140644978Y-62000000D01*
X141250000Y-60850000D02*
X141250000Y-61394978D01*
D84*
X121050000Y-92685000D02*
X122225010Y-92685000D01*
X122225010Y-92685000D02*
X122250000Y-92709990D01*
X119950000Y-44300000D02*
X120000000Y-44250000D01*
X122956232Y-42496232D02*
X123003749Y-42496232D01*
X122750000Y-75700000D02*
X122750000Y-76250000D01*
D85*
X126450000Y-44795000D02*
X125295000Y-44795000D01*
X125295000Y-44795000D02*
X125250000Y-44750000D01*
X126450000Y-49205000D02*
X125455000Y-49205000D01*
X127434996Y-47315000D02*
X127499996Y-47250000D01*
X125265010Y-46685000D02*
X125250000Y-46669990D01*
X122164997Y-47945000D02*
X122250000Y-48030003D01*
X121050000Y-46685000D02*
X122034997Y-46685000D01*
X113950000Y-70300000D02*
X113750000Y-70500000D01*
X111000000Y-67500000D02*
X110450000Y-68050000D01*
X112750000Y-67500000D02*
X111000000Y-67500000D01*
X125666809Y-95205000D02*
X125220163Y-94758354D01*
X129399160Y-104000000D02*
X129399160Y-103149151D01*
X129399160Y-103149151D02*
X129250000Y-102999991D01*
X129399160Y-105500000D02*
X129399160Y-104000000D01*
X129399160Y-107000000D02*
X129399160Y-105500000D01*
X113950000Y-23150000D02*
X113950000Y-24300000D01*
D84*
X146000000Y-96000000D02*
X146000000Y-97000000D01*
D85*
X121050000Y-47945000D02*
X122164997Y-47945000D01*
X136800000Y-43500000D02*
X135789929Y-43500000D01*
D86*
X153600000Y-29500000D02*
X153600000Y-28900000D01*
X144750000Y-30500000D02*
X145750000Y-30500000D01*
X143250000Y-28500000D02*
X143250000Y-27750000D01*
D88*
X144000000Y-70500000D02*
X144000000Y-70350000D01*
D85*
X144000000Y-70650000D02*
X144000000Y-70500000D01*
D84*
X136950000Y-36000000D02*
X137500000Y-36000000D01*
D85*
X126450000Y-46055000D02*
X125305000Y-46055000D01*
D84*
X100250000Y-60500000D02*
X100225000Y-60500000D01*
D85*
X126450000Y-47315000D02*
X127434996Y-47315000D01*
D89*
X68400000Y-54600000D02*
X68500000Y-54500000D01*
X70800000Y-70700000D02*
X70750000Y-70750000D01*
D84*
X125300000Y-97500000D02*
X126000000Y-97500000D01*
D85*
X113125000Y-69150000D02*
X113000000Y-69025000D01*
D84*
X122935000Y-41450000D02*
X122935000Y-42475000D01*
D88*
X125295000Y-90795000D02*
X125250000Y-90750000D01*
D87*
X112500000Y-112000000D02*
X112500000Y-111000000D01*
D84*
X122355001Y-37074998D02*
X122530003Y-37250000D01*
D85*
X113950000Y-69150000D02*
X113950000Y-70300000D01*
D84*
X126000000Y-101500000D02*
X126000000Y-100750000D01*
D86*
X145750000Y-29675000D02*
X145750000Y-30500000D01*
D84*
X79750000Y-62500000D02*
X80500000Y-62500000D01*
X137500000Y-34650000D02*
X137500000Y-35250000D01*
X122935000Y-42475000D02*
X122956232Y-42496232D01*
D87*
X115499100Y-114599440D02*
X115499100Y-112000900D01*
D89*
X117750000Y-26250000D02*
X118250000Y-25750000D01*
D87*
X101500000Y-112000000D02*
X101500000Y-111000000D01*
D84*
X126000000Y-97500000D02*
X126000000Y-96750000D01*
X133500000Y-98750000D02*
X133500000Y-98000000D01*
D89*
X68500000Y-54500000D02*
X68500000Y-54400000D01*
D84*
X135100000Y-98750000D02*
X133500000Y-98750000D01*
X79750000Y-63700000D02*
X79750000Y-62500000D01*
X131950000Y-81250000D02*
X130750000Y-81250000D01*
X123450386Y-37007966D02*
X123198280Y-37260072D01*
X129250000Y-36750000D02*
X129500000Y-36500000D01*
D88*
X115250000Y-61250000D02*
X116000000Y-61250000D01*
D84*
X129250000Y-34050000D02*
X129250000Y-35250000D01*
D88*
X124195000Y-86539040D02*
X124246531Y-86487509D01*
D84*
X100300000Y-60550000D02*
X100250000Y-60500000D01*
X129250000Y-83950000D02*
X129250000Y-82750000D01*
D83*
X94500000Y-27000000D02*
X94500000Y-23500000D01*
D87*
X112499360Y-114599440D02*
X112499360Y-112000640D01*
D84*
X125300000Y-51500000D02*
X126000000Y-51500000D01*
X122300000Y-29700000D02*
X121983805Y-30016195D01*
X122750000Y-29700000D02*
X122750000Y-30391040D01*
X123565000Y-36050000D02*
X123450386Y-36164614D01*
D87*
X130500340Y-112000340D02*
X130500000Y-112000000D01*
D84*
X123450386Y-36164614D02*
X123450386Y-37007966D01*
X124195000Y-41450000D02*
X124195000Y-42445000D01*
X125455000Y-41450000D02*
X125455000Y-42455000D01*
X110844998Y-101300000D02*
X110894998Y-101250000D01*
D89*
X70750000Y-70750000D02*
X71500000Y-70750000D01*
D88*
X115250000Y-59800000D02*
X115250000Y-61250000D01*
D84*
X135500000Y-33750000D02*
X135500000Y-34500000D01*
D87*
X115499100Y-112000900D02*
X115500000Y-112000000D01*
D88*
X125305000Y-92055000D02*
X125250000Y-92000000D01*
D85*
X126450000Y-95205000D02*
X125666809Y-95205000D01*
D88*
X131945000Y-48950000D02*
X131945000Y-48055000D01*
D84*
X125455000Y-42455000D02*
X125500000Y-42500000D01*
X126000000Y-55500000D02*
X126000000Y-54750000D01*
D88*
X125455000Y-87450000D02*
X125455000Y-86545000D01*
D89*
X70000000Y-70750000D02*
X69250000Y-70750000D01*
D88*
X130055000Y-42555000D02*
X130000000Y-42500000D01*
D87*
X131500000Y-112000000D02*
X131500000Y-111000000D01*
D89*
X117500000Y-26250000D02*
X117750000Y-26250000D01*
D84*
X132050000Y-77500000D02*
X132750000Y-77500000D01*
D89*
X70750000Y-70750000D02*
X70000000Y-70750000D01*
X71500000Y-70750000D02*
X72250000Y-70750000D01*
D85*
X144149160Y-49500000D02*
X144149160Y-48000000D01*
D84*
X136750000Y-52750000D02*
X136750000Y-52000000D01*
X127901655Y-87755336D02*
X127255336Y-87755336D01*
X128000000Y-87050000D02*
X128000000Y-87656991D01*
X128000000Y-87656991D02*
X127901655Y-87755336D01*
D87*
X120500360Y-114599440D02*
X120500360Y-112000360D01*
D84*
X132750000Y-77500000D02*
X132750000Y-76750000D01*
X129250000Y-82750000D02*
X129500000Y-82500000D01*
X124500000Y-79250000D02*
X124500000Y-78541500D01*
X124500000Y-78541500D02*
X124520558Y-78520942D01*
D85*
X125455000Y-49205000D02*
X125250000Y-49000000D01*
D84*
X132750000Y-31500000D02*
X132750000Y-32250000D01*
X132750000Y-31500000D02*
X132750000Y-30750000D01*
D87*
X128498820Y-112001180D02*
X128500000Y-112000000D01*
D84*
X132050000Y-31500000D02*
X132750000Y-31500000D01*
X124250000Y-33250000D02*
X124250000Y-32500000D01*
X125200000Y-33250000D02*
X124250000Y-33250000D01*
D88*
X133205000Y-94950000D02*
X133205000Y-93795000D01*
D87*
X128500000Y-112000000D02*
X128500000Y-111000000D01*
D88*
X126450000Y-93315000D02*
X127434998Y-93315000D01*
X122305000Y-82945000D02*
X122250000Y-83000000D01*
D83*
X100000000Y-77000000D02*
X102250000Y-77000000D01*
D87*
X121500000Y-112000000D02*
X121500000Y-111000000D01*
D88*
X133205000Y-48950000D02*
X133205000Y-48045194D01*
X133205000Y-48045194D02*
X133084897Y-47925091D01*
X131945000Y-48055000D02*
X132000000Y-48000000D01*
X122305000Y-82050000D02*
X122305000Y-82945000D01*
D85*
X145266195Y-69016195D02*
X144483805Y-69016195D01*
D88*
X123565000Y-82050000D02*
X123565000Y-82953194D01*
X123565000Y-82953194D02*
X123675004Y-83063198D01*
D85*
X144000000Y-69500000D02*
X144000000Y-70500000D01*
D83*
X101750000Y-30250000D02*
X102500000Y-30250000D01*
X102500000Y-30250000D02*
X102500000Y-28500000D01*
D88*
X126450000Y-90795000D02*
X125295000Y-90795000D01*
X126450000Y-92055000D02*
X125305000Y-92055000D01*
D84*
X128000000Y-41050000D02*
X128000000Y-41750000D01*
D88*
X125315000Y-92685000D02*
X125250000Y-92750000D01*
X121050000Y-93945000D02*
X122195000Y-93945000D01*
D87*
X131501100Y-112001100D02*
X131500000Y-112000000D01*
X128498820Y-114599440D02*
X128498820Y-112001180D01*
D88*
X115250000Y-61250000D02*
X114500000Y-61250000D01*
D87*
X112499360Y-112000640D02*
X112500000Y-112000000D01*
X117500620Y-114599440D02*
X117500620Y-111000620D01*
X120500000Y-112000000D02*
X120500000Y-111000000D01*
X124500860Y-114599440D02*
X124500860Y-112000860D01*
X125500000Y-112000000D02*
X125500000Y-111000000D01*
X130500340Y-114200660D02*
X130500340Y-112000340D01*
X131501100Y-114599440D02*
X131501100Y-112001100D01*
D84*
X125300000Y-101500000D02*
X126000000Y-101500000D01*
D88*
X126450000Y-92685000D02*
X125315000Y-92685000D01*
D87*
X104500900Y-114599440D02*
X104500900Y-111000898D01*
D84*
X122305000Y-36050000D02*
X122355001Y-36100001D01*
D85*
X117250000Y-74000000D02*
X116250000Y-74000000D01*
D83*
X101500000Y-30250000D02*
X101750000Y-30250000D01*
X97750000Y-77000000D02*
X100000000Y-77000000D01*
X102250000Y-77000000D02*
X102250000Y-74500000D01*
D84*
X79750000Y-62500000D02*
X79000000Y-62500000D01*
D87*
X124500860Y-112000860D02*
X124500000Y-112000000D01*
D85*
X126450000Y-46685000D02*
X125265010Y-46685000D01*
D87*
X104500900Y-111000898D02*
X104500000Y-110999998D01*
X101501160Y-114599440D02*
X101501160Y-112001160D01*
D88*
X130055000Y-43550000D02*
X130055000Y-42555000D01*
D84*
X126000000Y-101500000D02*
X126000000Y-102250000D01*
D85*
X113950000Y-69150000D02*
X113125000Y-69150000D01*
X113000000Y-67750000D02*
X112750000Y-67500000D01*
X113000000Y-69025000D02*
X113000000Y-67750000D01*
D83*
X101750000Y-30250000D02*
X102500000Y-30250000D01*
X101500000Y-30250000D02*
X101750000Y-30250000D01*
D88*
X130055000Y-90695000D02*
X130000000Y-90750000D01*
X122935000Y-87450000D02*
X122935000Y-86562383D01*
D84*
X134800000Y-33750000D02*
X135500000Y-33750000D01*
X129250000Y-81250000D02*
X129500000Y-81500000D01*
D85*
X122034997Y-46685000D02*
X122250000Y-46469997D01*
D89*
X117500000Y-26250000D02*
X117750000Y-26250000D01*
X117750000Y-26250000D02*
X118250000Y-25750000D01*
X65000000Y-54600000D02*
X68400000Y-54600000D01*
X65000000Y-100600000D02*
X68300000Y-100600000D01*
X68300000Y-100600000D02*
X68500000Y-100400000D01*
X105750000Y-75250000D02*
X105000000Y-75250000D01*
D84*
X126000000Y-97500000D02*
X126000000Y-96750000D01*
X126000000Y-97500000D02*
X126000000Y-98250000D01*
X133500000Y-98750000D02*
X133500000Y-99500000D01*
D87*
X121501120Y-112001120D02*
X121500000Y-112000000D01*
D85*
X125305000Y-46055000D02*
X125250000Y-46000000D01*
X114500000Y-70500000D02*
X113750000Y-70500000D01*
D84*
X138500000Y-92500000D02*
X137750000Y-92500000D01*
X129250000Y-80050000D02*
X129250000Y-81250000D01*
D88*
X130685000Y-48950000D02*
X130685000Y-48046806D01*
D84*
X130750000Y-81250000D02*
X130000000Y-82000000D01*
X131950000Y-35250000D02*
X130750000Y-35250000D01*
X129250000Y-35250000D02*
X130000000Y-36000000D01*
X133500000Y-98750000D02*
X133500000Y-99500000D01*
D88*
X131315000Y-42565000D02*
X131250000Y-42500000D01*
D84*
X110250000Y-101300000D02*
X110844998Y-101300000D01*
D83*
X97750000Y-30250000D02*
X101500000Y-30250000D01*
D84*
X126000000Y-55500000D02*
X126000000Y-54750000D01*
X126000000Y-51500000D02*
X126000000Y-50750000D01*
X122750000Y-29700000D02*
X122300000Y-29700000D01*
X122750000Y-29700000D02*
X122750000Y-30391040D01*
D87*
X121501120Y-114599440D02*
X121501120Y-112001120D01*
D84*
X124195000Y-42445000D02*
X124250000Y-42500000D01*
X123450386Y-36164614D02*
X123450386Y-37007966D01*
X129250000Y-37950000D02*
X129250000Y-36750000D01*
X138500000Y-94100000D02*
X138500000Y-92500000D01*
X126000000Y-101500000D02*
X126000000Y-102250000D01*
D87*
X115500000Y-112000000D02*
X115500000Y-111000000D01*
D84*
X124195000Y-42445000D02*
X124250000Y-42500000D01*
X126000000Y-51500000D02*
X126000000Y-50750000D01*
D86*
X71400000Y-73500000D02*
X71000000Y-73500000D01*
D83*
X97750000Y-28750000D02*
X97750000Y-29204002D01*
D85*
X144149160Y-46500000D02*
X144149160Y-48000000D01*
D84*
X122750000Y-29700000D02*
X122300000Y-29700000D01*
D90*
X143850060Y-21249940D02*
X143900000Y-21200000D01*
D84*
X126000000Y-51500000D02*
X126000000Y-52250000D01*
D86*
X147100000Y-29500000D02*
X145925000Y-29500000D01*
D88*
X105750000Y-29250000D02*
X104750000Y-29250000D01*
D89*
X70750000Y-70750000D02*
X70000000Y-70750000D01*
X72250000Y-70750000D02*
X73000000Y-70750000D01*
X71500000Y-70750000D02*
X72250000Y-70750000D01*
D87*
X124500000Y-112000000D02*
X124500000Y-111000000D01*
D83*
X100000000Y-77000000D02*
X102250000Y-77000000D01*
D89*
X70750000Y-70750000D02*
X71500000Y-70750000D01*
D83*
X97750000Y-29204002D02*
X97750000Y-30250000D01*
D84*
X126000000Y-55500000D02*
X126000000Y-56250000D01*
X124250000Y-33250000D02*
X124250000Y-34000000D01*
X136750000Y-52750000D02*
X136750000Y-53500000D01*
X135200000Y-52750000D02*
X136750000Y-52750000D01*
D86*
X153600000Y-28900000D02*
X153750000Y-28750000D01*
D84*
X128000000Y-87656991D02*
X127901655Y-87755336D01*
X138500000Y-92500000D02*
X139250000Y-92500000D01*
X132750000Y-77500000D02*
X132750000Y-76750000D01*
X126000000Y-101500000D02*
X126000000Y-100750000D01*
X124500000Y-79250000D02*
X124500000Y-79971238D01*
X124500000Y-79971238D02*
X124514381Y-79985619D01*
X125200000Y-79250000D02*
X124500000Y-79250000D01*
X135500000Y-33750000D02*
X135500000Y-34500000D01*
X132750000Y-31500000D02*
X132750000Y-32250000D01*
D88*
X133205000Y-93795000D02*
X133250000Y-93750000D01*
D84*
X132750000Y-31500000D02*
X132750000Y-30750000D01*
X124250000Y-33250000D02*
X124250000Y-32500000D01*
X124250000Y-33250000D02*
X124250000Y-34000000D01*
X128000000Y-41750000D02*
X127250000Y-41750000D01*
X135500000Y-33750000D02*
X135500000Y-33000000D01*
D87*
X120500360Y-112000360D02*
X120500000Y-112000000D01*
D88*
X127434996Y-47315000D02*
X127499996Y-47250000D01*
D83*
X97750000Y-73250000D02*
X97750000Y-77000000D01*
D88*
X131315000Y-42565000D02*
X131250000Y-42500000D01*
D85*
X128750000Y-68250000D02*
X126750000Y-68250000D01*
D88*
X130055000Y-42555000D02*
X130000000Y-42500000D01*
X123565000Y-82953194D02*
X123675004Y-83063198D01*
D84*
X126000000Y-97500000D02*
X126000000Y-98250000D01*
D87*
X125499080Y-114599440D02*
X125499080Y-112000920D01*
D84*
X122300000Y-29700000D02*
X121983805Y-30016195D01*
D85*
X145000000Y-74850000D02*
X145000000Y-71650000D01*
D88*
X125455000Y-86545000D02*
X125500000Y-86500000D01*
X124195000Y-87450000D02*
X124195000Y-86539040D01*
X133205000Y-48045194D02*
X133084897Y-47925091D01*
D83*
X97750000Y-27000000D02*
X97750000Y-28750000D01*
D84*
X135500000Y-33750000D02*
X135500000Y-33000000D01*
D88*
X127434998Y-93315000D02*
X127499998Y-93250000D01*
X130685000Y-48046806D02*
X130574996Y-47936802D01*
X115250000Y-61250000D02*
X114500000Y-61250000D01*
D87*
X101500000Y-112000000D02*
X101500000Y-111000000D01*
X112500000Y-112000000D02*
X112500000Y-111000000D01*
X115499100Y-112000900D02*
X115500000Y-112000000D01*
D84*
X133500000Y-98750000D02*
X133500000Y-98000000D01*
D83*
X97750000Y-28750000D02*
X97750000Y-29204002D01*
D87*
X121501120Y-112001120D02*
X121500000Y-112000000D01*
D84*
X132750000Y-77500000D02*
X132750000Y-78250000D01*
D87*
X121500000Y-112000000D02*
X121500000Y-111000000D01*
X124500860Y-112000860D02*
X124500000Y-112000000D01*
D84*
X124500000Y-79971238D02*
X124514381Y-79985619D01*
D87*
X124500000Y-112000000D02*
X124500000Y-111000000D01*
X125500000Y-112000000D02*
X125500000Y-111000000D01*
D84*
X136750000Y-52750000D02*
X136750000Y-52000000D01*
D88*
X124195000Y-86539040D02*
X124246531Y-86487509D01*
D87*
X128500000Y-112000000D02*
X128500000Y-111000000D01*
X130500340Y-112000340D02*
X130500000Y-112000000D01*
X130500000Y-112000000D02*
X130500000Y-111000000D01*
X131500000Y-112000000D02*
X131500000Y-111000000D01*
D88*
X125455000Y-86545000D02*
X125500000Y-86500000D01*
D83*
X97750000Y-77000000D02*
X100000000Y-77000000D01*
D88*
X125315000Y-92685000D02*
X125250000Y-92750000D01*
X122305000Y-82945000D02*
X122250000Y-83000000D01*
D84*
X122355001Y-37074998D02*
X122530003Y-37250000D01*
X122355001Y-36100001D02*
X122355001Y-37074998D01*
X127255336Y-87755336D02*
X127250000Y-87750000D01*
D83*
X97750000Y-29204002D02*
X97750000Y-30250000D01*
D88*
X131945000Y-48055000D02*
X132000000Y-48000000D01*
D89*
X63600840Y-67649160D02*
X63500000Y-67750000D01*
D84*
X132750000Y-77500000D02*
X132750000Y-78250000D01*
D89*
X63600840Y-67000000D02*
X63600840Y-67649160D01*
X63600840Y-64000000D02*
X63600840Y-64649160D01*
X63600840Y-61850840D02*
X63500000Y-61750000D01*
D86*
X145925000Y-29500000D02*
X145750000Y-29675000D01*
D84*
X138500000Y-92500000D02*
X137750000Y-92500000D01*
D88*
X131500000Y-40550000D02*
X131450000Y-40500000D01*
X132700000Y-40550000D02*
X132150000Y-40550000D01*
X135050000Y-40750000D02*
X135750000Y-40750000D01*
X135750000Y-40750000D02*
X135750000Y-40000000D01*
D87*
X117500620Y-111000620D02*
X117500000Y-111000000D01*
D84*
X126000000Y-55500000D02*
X126000000Y-56250000D01*
D88*
X134500000Y-39192850D02*
X134517393Y-39210243D01*
X134500000Y-38550000D02*
X134500000Y-39192850D01*
X132150000Y-40550000D02*
X132100000Y-40500000D01*
X135210243Y-39210243D02*
X135250000Y-39250000D01*
X134517393Y-39210243D02*
X135210243Y-39210243D01*
D11*
X133750000Y-64950000D02*
X133750000Y-66000000D01*
D84*
X138725000Y-69000000D02*
X137900000Y-69000000D01*
D88*
X115250000Y-61250000D02*
X116000000Y-61250000D01*
D84*
X138896686Y-69181303D02*
X138896686Y-69171686D01*
D87*
X150800000Y-35500000D02*
X154500000Y-35500000D01*
D84*
X138896686Y-69181303D02*
X139065383Y-69350000D01*
X139065383Y-69350000D02*
X140250000Y-69350000D01*
X139065383Y-70859617D02*
X138925000Y-71000000D01*
D87*
X131501100Y-112001100D02*
X131500000Y-112000000D01*
D88*
X122195000Y-93945000D02*
X122250000Y-94000000D01*
X139174950Y-70168576D02*
X139214947Y-70208573D01*
D84*
X122355001Y-36100001D02*
X122355001Y-37074998D01*
D88*
X139065383Y-70168576D02*
X139174950Y-70168576D01*
D85*
X110450000Y-68050000D02*
X110450000Y-69000000D01*
D84*
X138500000Y-92500000D02*
X139250000Y-92500000D01*
X139065383Y-69350000D02*
X139065383Y-70168576D01*
X126000000Y-51500000D02*
X126000000Y-52250000D01*
X139065383Y-70168576D02*
X139065383Y-70859617D01*
D89*
X70800000Y-70700000D02*
X70750000Y-70750000D01*
D84*
X143950000Y-64500000D02*
X145000000Y-64500000D01*
D88*
X135750000Y-40750000D02*
X135750000Y-41500000D01*
D84*
X144250000Y-64500000D02*
X145000000Y-63750000D01*
X127255336Y-87755336D02*
X127250000Y-87750000D01*
D88*
X125295000Y-90795000D02*
X125250000Y-90750000D01*
D84*
X143950000Y-64500000D02*
X144250000Y-64500000D01*
D89*
X70800000Y-69945000D02*
X70800000Y-70700000D01*
D84*
X144250000Y-64500000D02*
X145000000Y-65250000D01*
X140250000Y-69350000D02*
X140250000Y-68500000D01*
D90*
X137500000Y-21249940D02*
X143850060Y-21249940D01*
D88*
X131315000Y-43550000D02*
X131315000Y-42565000D01*
D85*
X100050000Y-60300000D02*
X100250000Y-60500000D01*
X144483805Y-69016195D02*
X144000000Y-69500000D01*
D86*
X69805000Y-70195000D02*
X69500000Y-70500000D01*
D84*
X79750000Y-62500000D02*
X80500000Y-62500000D01*
D87*
X130500000Y-112000000D02*
X130500000Y-111000000D01*
D88*
X130685000Y-48046806D02*
X130574996Y-47936802D01*
D84*
X124500000Y-79250000D02*
X124500000Y-78541500D01*
D86*
X69500000Y-70500000D02*
X69500000Y-73400000D01*
D84*
X125300000Y-55500000D02*
X126000000Y-55500000D01*
X127901655Y-87755336D02*
X127255336Y-87755336D01*
D85*
X106939871Y-62689871D02*
X106300000Y-63329742D01*
X111000000Y-60750000D02*
X111000000Y-61000000D01*
X111250000Y-60500000D02*
X111000000Y-60750000D01*
X112460912Y-58950000D02*
X112460912Y-58947162D01*
D87*
X112499360Y-112000640D02*
X112500000Y-112000000D01*
D85*
X127275000Y-59725000D02*
X126450000Y-59725000D01*
D84*
X122750000Y-30391040D02*
X122768980Y-30410020D01*
D85*
X127555010Y-59444990D02*
X127275000Y-59725000D01*
D88*
X127434998Y-93315000D02*
X127499998Y-93250000D01*
D85*
X127500000Y-58769387D02*
X127555010Y-58824397D01*
X112460912Y-58950000D02*
X112000000Y-58950000D01*
D83*
X97750000Y-30250000D02*
X101500000Y-30250000D01*
D86*
X69600000Y-73500000D02*
X71400000Y-73500000D01*
X69500000Y-73400000D02*
X69600000Y-73500000D01*
D89*
X63600840Y-61649160D02*
X63500000Y-61750000D01*
D84*
X123450386Y-37007966D02*
X123198280Y-37260072D01*
D89*
X72250000Y-70750000D02*
X73000000Y-70750000D01*
D84*
X127250000Y-56050000D02*
X127250000Y-55000000D01*
D87*
X101501160Y-112001160D02*
X101500000Y-112000000D01*
D85*
X112000000Y-60500000D02*
X111250000Y-60500000D01*
D86*
X70800000Y-69945000D02*
X69805000Y-69945000D01*
D84*
X123198280Y-37260072D02*
X123198280Y-37399607D01*
X127000000Y-54750000D02*
X126000000Y-54750000D01*
X122750000Y-30391040D02*
X122768980Y-30410020D01*
X127250000Y-55000000D02*
X127000000Y-54750000D01*
X124500000Y-78541500D02*
X124520558Y-78520942D01*
D85*
X127500000Y-58500000D02*
X127500000Y-58769387D01*
D11*
X135250000Y-66000000D02*
X135250000Y-64950000D01*
D87*
X120500000Y-112000000D02*
X120500000Y-111000000D01*
D89*
X70000000Y-70750000D02*
X69250000Y-70750000D01*
X63600840Y-64850840D02*
X63500000Y-64750000D01*
X63600840Y-61000000D02*
X63600840Y-61649160D01*
D84*
X138250000Y-60000000D02*
X137200000Y-60000000D01*
D85*
X106300000Y-63329742D02*
X106300000Y-63750000D01*
D84*
X110844998Y-101300000D02*
X110894998Y-101250000D01*
X139700000Y-60200000D02*
X139750000Y-60250000D01*
D87*
X125499080Y-112000920D02*
X125500000Y-112000000D01*
X104535170Y-110999998D02*
X104535170Y-110000000D01*
X128498820Y-112001180D02*
X128500000Y-112000000D01*
X104500000Y-110035172D02*
X104535172Y-110000000D01*
X154500000Y-35500000D02*
X154500000Y-34750000D01*
X104500000Y-110999998D02*
X104500000Y-110035172D01*
X104500900Y-114599440D02*
X104500900Y-111034268D01*
D85*
X113950000Y-24300000D02*
X113750000Y-24500000D01*
D84*
X130750000Y-56550000D02*
X130750000Y-55645402D01*
D83*
X97750000Y-27000000D02*
X97750000Y-28750000D01*
D84*
X125455000Y-42455000D02*
X125500000Y-42500000D01*
D87*
X154500000Y-35500000D02*
X154500000Y-36250000D01*
D84*
X130750000Y-55645402D02*
X130816785Y-55578617D01*
D87*
X120500360Y-112000360D02*
X120500000Y-112000000D01*
X104500900Y-111034268D02*
X104535170Y-110999998D01*
D89*
X63600840Y-65500000D02*
X63600840Y-64850840D01*
D84*
X130816785Y-55578617D02*
X130816785Y-55522397D01*
D88*
X122935000Y-86562383D02*
X122998427Y-86498956D01*
D85*
X145250000Y-49500000D02*
X144149160Y-49500000D01*
D84*
X138925000Y-71000000D02*
X137925000Y-71000000D01*
X120750000Y-100250000D02*
X121100000Y-99900000D01*
D86*
X69805000Y-69945000D02*
X69805000Y-70195000D01*
D85*
X106300000Y-63750000D02*
X106300000Y-65250000D01*
D84*
X120195000Y-100250000D02*
X120750000Y-100250000D01*
X79750000Y-62500000D02*
X79000000Y-62500000D01*
X139000000Y-60200000D02*
X138450000Y-60200000D01*
D89*
X63600840Y-67850840D02*
X63500000Y-67750000D01*
X63600840Y-68500000D02*
X63600840Y-67850840D01*
D84*
X130816785Y-55522397D02*
X131116784Y-55222398D01*
X128000000Y-41750000D02*
X127250000Y-41750000D01*
D89*
X63600840Y-64649160D02*
X63500000Y-64750000D01*
D84*
X120195000Y-54250000D02*
X120750000Y-54250000D01*
D87*
X117500620Y-111000620D02*
X117500000Y-111000000D01*
D88*
X133205000Y-93795000D02*
X133250000Y-93750000D01*
X122935000Y-86562383D02*
X122998427Y-86498956D01*
D84*
X118750000Y-66750000D02*
X118750000Y-67644374D01*
X124500000Y-79250000D02*
X124500000Y-79971238D01*
X100250000Y-60500000D02*
X100250000Y-59394990D01*
D88*
X122195000Y-93945000D02*
X122250000Y-94000000D01*
D84*
X130750000Y-35250000D02*
X130500000Y-35500000D01*
D85*
X112460912Y-58947162D02*
X112750000Y-58658074D01*
X100300000Y-60550000D02*
X100250000Y-60500000D01*
D89*
X70800000Y-69945000D02*
X70800000Y-70700000D01*
D84*
X118750000Y-67644374D02*
X118802813Y-67697187D01*
D89*
X63600840Y-62500000D02*
X63600840Y-61850840D01*
D84*
X102000000Y-53500000D02*
X102250000Y-53250000D01*
D87*
X125499080Y-112000920D02*
X125500000Y-112000000D01*
D84*
X138896686Y-69171686D02*
X138725000Y-69000000D01*
D87*
X101501160Y-112001160D02*
X101500000Y-112000000D01*
D84*
X120750000Y-54250000D02*
X121100000Y-53900000D01*
X102000000Y-54750000D02*
X102000000Y-53500000D01*
X120750000Y-68850000D02*
X120750000Y-70000000D01*
D88*
X131450000Y-40500000D02*
X132100000Y-40500000D01*
D85*
X145000000Y-71650000D02*
X144000000Y-70650000D01*
D88*
X125305000Y-92055000D02*
X125250000Y-92000000D01*
D84*
X138450000Y-60200000D02*
X138250000Y-60000000D01*
X102000000Y-55500000D02*
X102000000Y-54750000D01*
X119250000Y-44300000D02*
X119950000Y-44300000D01*
D88*
X125295000Y-44795000D02*
X125250000Y-44750000D01*
D84*
X94000000Y-58750000D02*
X95000000Y-58750000D01*
X93300000Y-61194990D02*
X93250000Y-61144990D01*
D87*
X115500000Y-112000000D02*
X115500000Y-111000000D01*
D85*
X127555010Y-58824397D02*
X127555010Y-59444990D01*
X112750000Y-57500000D02*
X112750000Y-58658074D01*
D84*
X93300000Y-60500000D02*
X93300000Y-61094990D01*
D85*
X114500000Y-24500000D02*
X113750000Y-24500000D01*
D84*
X93300000Y-61094990D02*
X93250000Y-61144990D01*
D89*
X68400000Y-54600000D02*
X68500000Y-54500000D01*
D84*
X123198280Y-37260072D02*
X123198280Y-37399607D01*
X93300000Y-62000000D02*
X93300000Y-61194990D01*
X139000000Y-60200000D02*
X139700000Y-60200000D01*
X119250000Y-90800000D02*
X119250000Y-90105613D01*
X119250000Y-90105613D02*
X119250048Y-90105565D01*
D88*
X132400000Y-86550000D02*
X131800000Y-86550000D01*
X131800000Y-86550000D02*
X131750000Y-86500000D01*
X131200000Y-86500000D02*
X131750000Y-86500000D01*
D84*
X134800000Y-79750000D02*
X135500000Y-79750000D01*
X135500000Y-79750000D02*
X135500000Y-79000000D01*
X135500000Y-79750000D02*
X135500000Y-80500000D01*
X134500000Y-84550000D02*
X134500000Y-85250000D01*
X133807150Y-85250000D02*
X133767393Y-85210243D01*
X134500000Y-85250000D02*
X133807150Y-85250000D01*
X134500000Y-85250000D02*
X135250000Y-85250000D01*
X135500000Y-79750000D02*
X135500000Y-80500000D01*
X134500000Y-85250000D02*
X135250000Y-85250000D01*
X134500000Y-85250000D02*
X133807150Y-85250000D01*
X133807150Y-85250000D02*
X133767393Y-85210243D01*
X135500000Y-79750000D02*
X135500000Y-79000000D01*
D88*
X134950000Y-87000000D02*
X135750000Y-87000000D01*
X135750000Y-87000000D02*
X135750000Y-86250000D01*
X135750000Y-87000000D02*
X135750000Y-87750000D01*
D84*
X137500000Y-80650000D02*
X137500000Y-81250000D01*
X136950000Y-82000000D02*
X137500000Y-82000000D01*
X130685000Y-95904997D02*
X130780003Y-96000000D01*
X130685000Y-94950000D02*
X130685000Y-95904997D01*
X131945000Y-95855767D02*
X131774268Y-96026499D01*
X131945000Y-94950000D02*
X131945000Y-95855767D01*
X130055000Y-90695000D02*
X130000000Y-90750000D01*
X130055000Y-89550000D02*
X130055000Y-90695000D01*
X131409945Y-90669945D02*
X131500000Y-90669945D01*
X131315000Y-89550000D02*
X131315000Y-90575000D01*
X131315000Y-90575000D02*
X131409945Y-90669945D01*
D85*
X111455001Y-21794999D02*
X110450000Y-22800000D01*
X112794999Y-21794999D02*
X111455001Y-21794999D01*
X113125000Y-22125000D02*
X112794999Y-21794999D01*
X110450000Y-22800000D02*
X110450000Y-23000000D01*
X113125000Y-22875000D02*
X113125000Y-22125000D01*
X113400000Y-23150000D02*
X113125000Y-22875000D01*
X113950000Y-23150000D02*
X113400000Y-23150000D01*
X132850000Y-76650000D02*
X132750000Y-76750000D01*
X132850000Y-74900000D02*
X132850000Y-76650000D01*
D84*
X108525000Y-72525000D02*
X108500000Y-72500000D01*
X109800000Y-72525000D02*
X108525000Y-72525000D01*
X108525000Y-26525000D02*
X108500000Y-26500000D01*
X109800000Y-26525000D02*
X108525000Y-26525000D01*
D85*
X117500000Y-27125000D02*
X117500000Y-26250000D01*
X117330010Y-27294990D02*
X117500000Y-27125000D01*
X117330010Y-28930010D02*
X117330010Y-27294990D01*
X118050000Y-29650000D02*
X117330010Y-28930010D01*
X118150000Y-29650000D02*
X118050000Y-29650000D01*
D83*
X94500000Y-27000000D02*
X94500000Y-23500000D01*
X97750000Y-30250000D02*
X94000000Y-30250000D01*
X94018866Y-27481134D02*
X94500000Y-27000000D01*
X94000000Y-27481134D02*
X94018866Y-27481134D01*
X94000000Y-30250000D02*
X94000000Y-27481134D01*
D84*
X113744990Y-66994990D02*
X113950000Y-67200000D01*
X113950000Y-67200000D02*
X113950000Y-67850000D01*
X108000000Y-68800000D02*
X108000000Y-68250000D01*
X108000000Y-68250000D02*
X109255010Y-66994990D01*
X109255010Y-66994990D02*
X113744990Y-66994990D01*
D85*
X115250000Y-68250000D02*
X114850000Y-67850000D01*
X114850000Y-67850000D02*
X113950000Y-67850000D01*
X115250000Y-69500000D02*
X115250000Y-68250000D01*
D84*
X131250000Y-80050000D02*
X131250000Y-79775000D01*
X66095996Y-77500000D02*
X65000000Y-76404004D01*
X67000000Y-77500000D02*
X66095996Y-77500000D01*
X137925000Y-71500000D02*
X139900000Y-71500000D01*
X139900000Y-71500000D02*
X140250000Y-71150000D01*
D88*
X131950000Y-37250000D02*
X132600000Y-37250000D01*
X132600000Y-37250000D02*
X132800000Y-37450000D01*
X132300000Y-37950000D02*
X132800000Y-37450000D01*
X132800000Y-37450000D02*
X134500000Y-37450000D01*
X131250000Y-37950000D02*
X132300000Y-37950000D01*
D87*
X133850000Y-42250000D02*
X133950000Y-42150000D01*
X133950000Y-42150000D02*
X133950000Y-40750000D01*
X133250000Y-42250000D02*
X133850000Y-42250000D01*
D84*
X127250000Y-52750000D02*
X127250000Y-53500000D01*
X127250000Y-52750000D02*
X127250000Y-52000000D01*
X129000000Y-52750000D02*
X127250000Y-52750000D01*
X127250000Y-98750000D02*
X127250000Y-99500000D01*
X127250000Y-98750000D02*
X127250000Y-98000000D01*
X128900000Y-98750000D02*
X127250000Y-98750000D01*
X130950000Y-31500000D02*
X130950000Y-31200000D01*
X130950000Y-31200000D02*
X130500000Y-30750000D01*
X136000000Y-37500000D02*
X134550000Y-37500000D01*
X134550000Y-37500000D02*
X134500000Y-37450000D01*
X121675000Y-36050000D02*
X121675000Y-37175000D01*
X121675000Y-37175000D02*
X121750000Y-37250000D01*
D88*
X123291138Y-50680020D02*
X123380020Y-50680020D01*
X123380020Y-50680020D02*
X124200000Y-51500000D01*
X127200000Y-73500000D02*
X128240611Y-73500000D01*
X128240611Y-73500000D02*
X128259388Y-73518777D01*
D84*
X136000000Y-83500000D02*
X134550000Y-83500000D01*
X134550000Y-83500000D02*
X134500000Y-83450000D01*
X124200000Y-97500000D02*
X124200000Y-96050000D01*
X124200000Y-96050000D02*
X124250000Y-96000000D01*
D88*
X122044997Y-94575000D02*
X122250000Y-94780003D01*
X121050000Y-94575000D02*
X122044997Y-94575000D01*
X127425000Y-91425000D02*
X127500000Y-91500000D01*
X126450000Y-91425000D02*
X127425000Y-91425000D01*
X124825000Y-88425000D02*
X124750000Y-88500000D01*
X124825000Y-87450000D02*
X124825000Y-88425000D01*
X121675000Y-81075000D02*
X121750000Y-81000000D01*
X121675000Y-82050000D02*
X121675000Y-81075000D01*
X132575000Y-49856457D02*
X132734610Y-50016067D01*
X132575000Y-48950000D02*
X132575000Y-49856457D01*
X129425000Y-42648801D02*
X129221891Y-42445692D01*
X129425000Y-43550000D02*
X129425000Y-42648801D01*
X132575000Y-94950000D02*
X132575000Y-95976799D01*
X132575000Y-95976799D02*
X132553761Y-95998038D01*
X129425000Y-89550000D02*
X129425000Y-88575008D01*
X129425000Y-88575008D02*
X129500008Y-88500000D01*
X127929990Y-27500000D02*
X128000000Y-27429990D01*
X127200000Y-27500000D02*
X127929990Y-27500000D01*
X124025010Y-28269990D02*
X123700000Y-28269990D01*
X124295000Y-28000000D02*
X124025010Y-28269990D01*
X124800000Y-28000000D02*
X124295000Y-28000000D01*
D84*
X67350000Y-56400000D02*
X67550000Y-56600000D01*
X65000000Y-56400000D02*
X67350000Y-56400000D01*
X65000000Y-56400000D02*
X65000000Y-57500000D01*
X65200000Y-102600000D02*
X65000000Y-102400000D01*
X67550000Y-102600000D02*
X65200000Y-102600000D01*
X65000000Y-102400000D02*
X65000000Y-103500000D01*
D88*
X124800000Y-74000000D02*
X123995079Y-74000000D01*
X123995079Y-74000000D02*
X123754921Y-74240158D01*
X120195000Y-98750000D02*
X120000000Y-98750000D01*
X120195000Y-52750000D02*
X120000000Y-52750000D01*
X120000000Y-52750000D02*
X119750000Y-52500000D01*
X119750000Y-52500000D02*
X119750000Y-52250000D01*
X119750000Y-52250000D02*
X120000000Y-52000000D01*
X123645000Y-51500000D02*
X124200000Y-51500000D01*
X123074999Y-52070001D02*
X123645000Y-51500000D01*
X121906398Y-52000000D02*
X121976399Y-52070001D01*
X121976399Y-52070001D02*
X123074999Y-52070001D01*
X120000000Y-52000000D02*
X121906398Y-52000000D01*
X131580000Y-83950000D02*
X133250000Y-85620000D01*
X131250000Y-83950000D02*
X131580000Y-83950000D01*
X133850000Y-86275000D02*
X133850000Y-87000000D01*
X133250000Y-85675000D02*
X133850000Y-86275000D01*
X133250000Y-85620000D02*
X133250000Y-85675000D01*
X134500000Y-83450000D02*
X132700000Y-83450000D01*
X132555000Y-83250000D02*
X131950000Y-83250000D01*
X132700000Y-83395000D02*
X132555000Y-83250000D01*
X132700000Y-83450000D02*
X132700000Y-83395000D01*
X133850000Y-88350000D02*
X134000000Y-88500000D01*
X133850000Y-87000000D02*
X133850000Y-88350000D01*
D90*
X143900000Y-40650000D02*
X143900000Y-37800000D01*
X144750000Y-41500000D02*
X143900000Y-40650000D01*
X146500000Y-41500000D02*
X144750000Y-41500000D01*
D85*
X140450000Y-42520683D02*
X140470683Y-42500000D01*
X140450000Y-43500000D02*
X140450000Y-42520683D01*
X140250000Y-72861412D02*
X139111412Y-74000000D01*
X140250000Y-71150000D02*
X140250000Y-72861412D01*
X137663551Y-74000000D02*
X137250000Y-74413551D01*
X139111412Y-74000000D02*
X137663551Y-74000000D01*
X113950000Y-21850000D02*
X113950000Y-21008858D01*
X124825000Y-40325000D02*
X124750000Y-40250000D01*
X124825000Y-41450000D02*
X124825000Y-40325000D01*
X120143543Y-48575000D02*
X119983933Y-48734610D01*
X121050000Y-48575000D02*
X120143543Y-48575000D01*
X127425000Y-45425000D02*
X127500000Y-45500000D01*
X126450000Y-45425000D02*
X127425000Y-45425000D01*
D84*
X119500000Y-98630000D02*
X119620000Y-98750000D01*
X119500000Y-98250000D02*
X119500000Y-98630000D01*
X119750000Y-98000000D02*
X119500000Y-98250000D01*
X122500000Y-98000000D02*
X119750000Y-98000000D01*
X122750000Y-98250000D02*
X122500000Y-98000000D01*
X119620000Y-98750000D02*
X120195000Y-98750000D01*
X124200000Y-97800000D02*
X123750000Y-98250000D01*
X123750000Y-98250000D02*
X122750000Y-98250000D01*
X124200000Y-97500000D02*
X124200000Y-97800000D01*
X130950000Y-78882242D02*
X130950000Y-77500000D01*
X131317758Y-79250000D02*
X130950000Y-78882242D01*
X131750000Y-79250000D02*
X131317758Y-79250000D01*
D85*
X119000000Y-28325000D02*
X118975000Y-28350000D01*
X119000000Y-24600000D02*
X119000000Y-28325000D01*
X118400000Y-24000000D02*
X119000000Y-24600000D01*
X116000000Y-24000000D02*
X118400000Y-24000000D01*
X118975000Y-28350000D02*
X118150000Y-28350000D01*
X115750000Y-23750000D02*
X116000000Y-24000000D01*
X115750000Y-23250000D02*
X115750000Y-23750000D01*
X110450000Y-21479742D02*
X110439871Y-21489871D01*
X110450000Y-21300000D02*
X110450000Y-21479742D01*
X110750000Y-21000000D02*
X110450000Y-21300000D01*
X115750000Y-21550000D02*
X115200000Y-21000000D01*
X115750000Y-23250000D02*
X115750000Y-21550000D01*
X113958858Y-21000000D02*
X113950000Y-21008858D01*
X110750000Y-21000000D02*
X114318933Y-21000000D01*
X114318933Y-21000000D02*
X113958858Y-21000000D01*
X115200000Y-21000000D02*
X114318933Y-21000000D01*
X136763551Y-74900000D02*
X137250000Y-74413551D01*
X134150000Y-74900000D02*
X136763551Y-74900000D01*
D90*
X140060660Y-31500000D02*
X139000000Y-31500000D01*
X141000000Y-26475000D02*
X141000000Y-30560660D01*
X141675000Y-25800000D02*
X141000000Y-26475000D01*
X141000000Y-30560660D02*
X140060660Y-31500000D01*
X143900000Y-25800000D02*
X141675000Y-25800000D01*
D84*
X133450000Y-79500000D02*
X133030020Y-79500000D01*
X133030020Y-79500000D02*
X132500000Y-80030020D01*
X124195000Y-82050000D02*
X124195000Y-81390809D01*
X124195000Y-81390809D02*
X123605447Y-80801256D01*
X123605447Y-80801256D02*
X123472804Y-80801256D01*
X121050000Y-92055000D02*
X122195000Y-92055000D01*
X122195000Y-92055000D02*
X122500000Y-91750000D01*
X67000000Y-79500000D02*
X66000000Y-78500000D01*
X138500000Y-89500000D02*
X139250000Y-89500000D01*
X138500000Y-89500000D02*
X137750000Y-89500000D01*
X138500000Y-87900000D02*
X138500000Y-89500000D01*
X132750000Y-33500000D02*
X133450000Y-33500000D01*
X133450000Y-33500000D02*
X133700000Y-33750000D01*
X127500000Y-39105006D02*
X127500000Y-39450000D01*
X127500000Y-39450000D02*
X128000000Y-39950000D01*
X126250000Y-31750000D02*
X126250000Y-33200000D01*
X126250000Y-33200000D02*
X126300000Y-33250000D01*
D88*
X122317811Y-41437189D02*
X122305000Y-41450000D01*
X124250000Y-56750000D02*
X124250000Y-55550000D01*
X124250000Y-55550000D02*
X124200000Y-55500000D01*
D84*
X127500000Y-84855010D02*
X127500000Y-85450000D01*
X127500000Y-85450000D02*
X128000000Y-85950000D01*
X126250000Y-80500000D02*
X126250000Y-79300000D01*
X126250000Y-79300000D02*
X126300000Y-79250000D01*
X124200000Y-101500000D02*
X124200000Y-102950000D01*
X124200000Y-102950000D02*
X124250000Y-103000000D01*
D88*
X130055000Y-95945000D02*
X130000000Y-96000000D01*
X131945000Y-88305000D02*
X132000000Y-88250000D01*
X131945000Y-89550000D02*
X131945000Y-88305000D01*
X122305000Y-88445000D02*
X122250000Y-88500000D01*
X122305000Y-87450000D02*
X122305000Y-88445000D01*
X130055000Y-49945000D02*
X130000000Y-50000000D01*
X130055000Y-48950000D02*
X130055000Y-49945000D01*
X131945000Y-42585003D02*
X132030003Y-42500000D01*
X131945000Y-43550000D02*
X131945000Y-42585003D01*
X126450000Y-93945000D02*
X127414987Y-93945000D01*
X127414987Y-93945000D02*
X127500000Y-94030013D01*
X124800000Y-27500000D02*
X124000000Y-27500000D01*
X124800000Y-73500000D02*
X123789780Y-73500000D01*
X123789780Y-73500000D02*
X123749942Y-73460162D01*
X130055000Y-94950000D02*
X130055000Y-95945000D01*
D84*
X124195000Y-36050000D02*
X124195000Y-36734490D01*
X124195000Y-36734490D02*
X123979886Y-36949604D01*
X123979886Y-36949604D02*
X123979886Y-37373868D01*
D85*
X136800000Y-45000000D02*
X134229909Y-45000000D01*
X122305000Y-40300612D02*
X122317811Y-40287801D01*
X122305000Y-41450000D02*
X122305000Y-40300612D01*
X120057571Y-46055000D02*
X120007579Y-46005008D01*
X121050000Y-46055000D02*
X120057571Y-46055000D01*
X127339316Y-47945000D02*
X127588155Y-48193839D01*
X126450000Y-47945000D02*
X127339316Y-47945000D01*
D84*
X118250000Y-58000000D02*
X117394999Y-58855001D01*
X117394999Y-58855001D02*
X117394999Y-63355001D01*
X109050000Y-55250000D02*
X108500000Y-55250000D01*
X108500000Y-55250000D02*
X108475009Y-55274991D01*
X108475009Y-55274991D02*
X106774991Y-55274991D01*
X106774991Y-55274991D02*
X106750000Y-55250000D01*
X121250000Y-28500000D02*
X121250000Y-31144388D01*
X121250000Y-31144388D02*
X120697194Y-31697194D01*
D85*
X109075000Y-57300000D02*
X109075000Y-55991209D01*
X109075000Y-55991209D02*
X109075000Y-55275000D01*
X109725000Y-56225000D02*
X109491209Y-55991209D01*
X109491209Y-55991209D02*
X109075000Y-55991209D01*
X109725000Y-57300000D02*
X109725000Y-56225000D01*
X109075000Y-55275000D02*
X109050000Y-55250000D01*
D84*
X120477037Y-74450000D02*
X121250000Y-74450000D01*
X116000000Y-67500000D02*
X116000000Y-69972963D01*
X117069990Y-66430010D02*
X116000000Y-67500000D01*
X116000000Y-69972963D02*
X120477037Y-74450000D01*
X117069990Y-63680010D02*
X117069990Y-66430010D01*
X117394999Y-63355001D02*
X117069990Y-63680010D01*
X104000000Y-64700000D02*
X104817409Y-64700000D01*
X104817409Y-64700000D02*
X105087419Y-64429990D01*
X104000000Y-64700000D02*
X103450000Y-64700000D01*
X103450000Y-64700000D02*
X103050000Y-65100000D01*
X103050000Y-65100000D02*
X102000000Y-65100000D01*
X102000000Y-59750000D02*
X103100000Y-59750000D01*
X103100000Y-59750000D02*
X103500000Y-59350000D01*
X94050000Y-55500000D02*
X93000000Y-55500000D01*
X94050000Y-63500000D02*
X93000000Y-63500000D01*
X102000000Y-58950000D02*
X102000000Y-59750000D01*
D85*
X111250000Y-63900000D02*
X111250000Y-64429990D01*
X110250000Y-63750000D02*
X111100000Y-63750000D01*
X111100000Y-63750000D02*
X111250000Y-63900000D01*
X110250000Y-63750000D02*
X110250000Y-64950000D01*
X110250000Y-64950000D02*
X109950000Y-65250000D01*
X110250000Y-63750000D02*
X109075000Y-62575000D01*
X109075000Y-62575000D02*
X109075000Y-61700000D01*
X109075000Y-61700000D02*
X109075000Y-60354980D01*
X109075000Y-60354980D02*
X109500000Y-59929980D01*
D83*
X118500000Y-53250000D02*
X118250000Y-53500000D01*
X120195000Y-53250000D02*
X118500000Y-53250000D01*
D84*
X118250000Y-50250000D02*
X117000000Y-49000000D01*
X118250000Y-53500000D02*
X118250000Y-50250000D01*
X118250000Y-99500000D02*
X118250000Y-98000000D01*
X118250000Y-98000000D02*
X117000000Y-96750000D01*
X117000000Y-96750000D02*
X117000000Y-95000000D01*
X120195000Y-99250000D02*
X119250000Y-99250000D01*
X119000000Y-99500000D02*
X118250000Y-99500000D01*
X119250000Y-99250000D02*
X119000000Y-99500000D01*
D89*
X85420000Y-85645000D02*
X85420000Y-83670000D01*
X85420000Y-83670000D02*
X85250000Y-83500000D01*
X85420000Y-39645000D02*
X85420000Y-37670000D01*
X85420000Y-37670000D02*
X85250000Y-37500000D01*
D91*
X148700000Y-72000000D02*
X148700000Y-73700000D01*
X149000000Y-74000000D02*
X150000000Y-74000000D01*
X148700000Y-73700000D02*
X149000000Y-74000000D01*
X150000000Y-74000000D02*
X151000000Y-74000000D01*
X151000000Y-74000000D02*
X152000000Y-74000000D01*
X152000000Y-74000000D02*
X153000000Y-74000000D01*
X153000000Y-74000000D02*
X154000000Y-74000000D01*
X154000000Y-74000000D02*
X155000000Y-74000000D01*
D86*
X77400000Y-73500000D02*
X75600000Y-73500000D01*
X77500000Y-70500000D02*
X77500000Y-73400000D01*
X76945000Y-69945000D02*
X77500000Y-70500000D01*
X76200000Y-69945000D02*
X76945000Y-69945000D01*
X77500000Y-73400000D02*
X77400000Y-73500000D01*
D91*
X139500000Y-105500000D02*
X139000000Y-105000000D01*
X139000000Y-105000000D02*
X137840000Y-105000000D01*
X139500000Y-107000000D02*
X139500000Y-105500000D01*
X139000000Y-107500000D02*
X139500000Y-107000000D01*
X135000000Y-107500000D02*
X139000000Y-107500000D01*
D87*
X98498880Y-111501120D02*
X99000000Y-111000000D01*
X99000000Y-111000000D02*
X99500000Y-111000000D01*
X98498880Y-114599440D02*
X98498880Y-111501120D01*
X99499640Y-114599440D02*
X99499640Y-111000360D01*
X99499640Y-111000360D02*
X99500000Y-111000000D01*
X100500400Y-114599440D02*
X100500400Y-111000400D01*
X100500400Y-111000400D02*
X100500000Y-111000000D01*
D84*
X102499380Y-114599440D02*
X102499380Y-111103978D01*
X102499380Y-111103978D02*
X102000000Y-110604598D01*
X102000000Y-110604598D02*
X102000000Y-106950000D01*
X103500140Y-109950140D02*
X103500000Y-109950000D01*
X103500000Y-109950000D02*
X103500000Y-106950000D01*
X103500140Y-114599440D02*
X103500140Y-109950140D01*
X143300000Y-57500000D02*
X143300000Y-56800000D01*
X143300000Y-56800000D02*
X143000000Y-56500000D01*
X143300000Y-52500000D02*
X143300000Y-53200000D01*
X143300000Y-53200000D02*
X143000000Y-53500000D01*
D85*
X126750000Y-66750000D02*
X126000000Y-66750000D01*
X126000000Y-66750000D02*
X125750000Y-67000000D01*
X125750000Y-67000000D02*
X125750000Y-67850000D01*
X125750000Y-67850000D02*
X125700000Y-67900000D01*
X125700000Y-67900000D02*
X125000000Y-67900000D01*
D84*
X129550000Y-56550000D02*
X129500000Y-56500000D01*
X130250000Y-56550000D02*
X129550000Y-56550000D01*
X105000000Y-105488108D02*
X105000000Y-106050000D01*
X107500000Y-105500000D02*
X105011892Y-105500000D01*
X105011892Y-105500000D02*
X105000000Y-105488108D01*
D85*
X127250000Y-56950000D02*
X127250000Y-57750000D01*
X127250000Y-57750000D02*
X126750000Y-58250000D01*
D84*
X141050000Y-65875000D02*
X140925000Y-66000000D01*
X140925000Y-66000000D02*
X140644978Y-66000000D01*
X141050000Y-64500000D02*
X141050000Y-65875000D01*
D85*
X126750000Y-65895746D02*
X126750000Y-66750000D01*
X127250000Y-65820010D02*
X126825736Y-65820010D01*
X126825736Y-65820010D02*
X126750000Y-65895746D01*
X125000000Y-58500000D02*
X125250000Y-58250000D01*
X125250000Y-58250000D02*
X126750000Y-58250000D01*
X125000000Y-59075000D02*
X125000000Y-58500000D01*
X126450000Y-59075000D02*
X125000000Y-59075000D01*
X125000000Y-59075000D02*
X125000000Y-60369572D01*
X125000000Y-60369572D02*
X125000000Y-60700000D01*
X126450000Y-60375000D02*
X125005428Y-60375000D01*
X125005428Y-60375000D02*
X125000000Y-60369572D01*
X125325000Y-61025000D02*
X126450000Y-61025000D01*
X125000000Y-60700000D02*
X125325000Y-61025000D01*
D11*
X136250000Y-65000000D02*
X135800000Y-65000000D01*
X135800000Y-65000000D02*
X135750000Y-64950000D01*
D88*
X107500000Y-104000000D02*
X107500000Y-105500000D01*
X106750000Y-104000000D02*
X107500000Y-104000000D01*
X107500000Y-104000000D02*
X108250000Y-104000000D01*
D89*
X107000000Y-105500000D02*
X107500000Y-105500000D01*
D88*
X130250000Y-56550000D02*
X130250000Y-56000000D01*
D86*
X149850000Y-28550000D02*
X151400000Y-28550000D01*
X148900000Y-29500000D02*
X149850000Y-28550000D01*
D85*
X127500000Y-65570010D02*
X127250000Y-65820010D01*
X127500000Y-65000000D02*
X127500000Y-65570010D01*
X127425000Y-64925000D02*
X127500000Y-65000000D01*
X126450000Y-64925000D02*
X127425000Y-64925000D01*
D11*
X137250000Y-63550000D02*
X137200000Y-63500000D01*
X137250000Y-64000000D02*
X137250000Y-63550000D01*
D85*
X138000000Y-73000000D02*
X139105010Y-73000000D01*
X145950000Y-70650000D02*
X145800000Y-70500000D01*
X145950000Y-72650000D02*
X145950000Y-70650000D01*
X146046007Y-68998985D02*
X146046007Y-69453993D01*
X145800000Y-69700000D02*
X145800000Y-70500000D01*
X146046007Y-69453993D02*
X145800000Y-69700000D01*
X155000000Y-27750000D02*
X153500000Y-27750000D01*
X152700000Y-28550000D02*
X151400000Y-28550000D01*
X153500000Y-27750000D02*
X152700000Y-28550000D01*
D84*
X140550000Y-65000000D02*
X141050000Y-64500000D01*
X139750000Y-65000000D02*
X140550000Y-65000000D01*
X105000000Y-105488108D02*
X105000000Y-103500000D01*
X104550000Y-103050000D02*
X103500000Y-103050000D01*
X105000000Y-103500000D02*
X104550000Y-103050000D01*
X103500000Y-103050000D02*
X102000000Y-103050000D01*
X105000000Y-108250000D02*
X105500000Y-108750000D01*
X105500000Y-108750000D02*
X105500000Y-110000000D01*
X105000000Y-106950000D02*
X105000000Y-108250000D01*
X140660712Y-57000000D02*
X144200000Y-53460712D01*
X144200000Y-52500000D02*
X144200000Y-53460712D01*
D85*
X144500000Y-52500000D02*
X144200000Y-52500000D01*
D84*
X135173056Y-58370425D02*
X136543481Y-57000000D01*
X135173056Y-59818458D02*
X135173056Y-58370425D01*
X135487656Y-60133058D02*
X135173056Y-59818458D01*
X136089577Y-60133058D02*
X135487656Y-60133058D01*
X136456519Y-60500000D02*
X136089577Y-60133058D01*
X137200000Y-60500000D02*
X136456519Y-60500000D01*
X136543481Y-57000000D02*
X140660712Y-57000000D01*
D85*
X149400000Y-52500000D02*
X149480000Y-52420000D01*
X144500000Y-52500000D02*
X149400000Y-52500000D01*
D89*
X100120000Y-44620000D02*
X99000000Y-43500000D01*
X99000000Y-43500000D02*
X94950000Y-43500000D01*
X100120000Y-46620000D02*
X100120000Y-44620000D01*
X99500000Y-46000000D02*
X100120000Y-46620000D01*
X100120000Y-46620000D02*
X100120000Y-48500000D01*
X76240815Y-46000000D02*
X78750000Y-46000000D01*
X75000000Y-46000000D02*
X76240815Y-46000000D01*
X76240815Y-46000000D02*
X99500000Y-46000000D01*
X78750000Y-46000000D02*
X79000000Y-46250000D01*
X76200000Y-61055000D02*
X75555000Y-61055000D01*
X75555000Y-61055000D02*
X75250000Y-60750000D01*
X95580000Y-32355000D02*
X95580000Y-39645000D01*
X93040000Y-39645000D02*
X93040000Y-43140000D01*
X93040000Y-43140000D02*
X93400000Y-43500000D01*
X93400000Y-43500000D02*
X94050000Y-43500000D01*
X76200000Y-63595000D02*
X75595000Y-63595000D01*
X75595000Y-63595000D02*
X75250000Y-63250000D01*
X85250000Y-34500000D02*
X85250000Y-32525000D01*
X85250000Y-32525000D02*
X85420000Y-32355000D01*
D84*
X112000000Y-49000000D02*
X112000000Y-50000000D01*
X111500000Y-50500000D02*
X111500000Y-51750000D01*
X112000000Y-50000000D02*
X111500000Y-50500000D01*
D89*
X76200000Y-62325000D02*
X75575000Y-62325000D01*
X75575000Y-62325000D02*
X75250000Y-62000000D01*
D84*
X111750000Y-53500000D02*
X111500000Y-53250000D01*
X113250000Y-53500000D02*
X111750000Y-53500000D01*
D89*
X93040000Y-85645000D02*
X93040000Y-89140000D01*
X93040000Y-89140000D02*
X93400000Y-89500000D01*
X93400000Y-89500000D02*
X94050000Y-89500000D01*
X100120000Y-92620000D02*
X100120000Y-92880735D01*
X100120000Y-92880735D02*
X100120000Y-94500000D01*
X99500000Y-89500000D02*
X100120000Y-90120000D01*
X100120000Y-90120000D02*
X100120000Y-92880735D01*
X94950000Y-89500000D02*
X99500000Y-89500000D01*
X99500000Y-92000000D02*
X100120000Y-92620000D01*
X76644612Y-92000000D02*
X78750000Y-92000000D01*
X75000000Y-92000000D02*
X76644612Y-92000000D01*
X76644612Y-92000000D02*
X99500000Y-92000000D01*
X78750000Y-92000000D02*
X79000000Y-92250000D01*
X73000000Y-72250000D02*
X73000000Y-75750000D01*
X74250000Y-71000000D02*
X73000000Y-72250000D01*
X74250000Y-65500000D02*
X74250000Y-71000000D01*
X74885000Y-64865000D02*
X74250000Y-65500000D01*
X76200000Y-64865000D02*
X74885000Y-64865000D01*
X77750000Y-68505000D02*
X77750000Y-69290040D01*
X76650000Y-67405000D02*
X77750000Y-68505000D01*
X76200000Y-67405000D02*
X76650000Y-67405000D01*
X85250000Y-80750000D02*
X85250000Y-78525000D01*
X85250000Y-78525000D02*
X85420000Y-78355000D01*
X73780003Y-75750000D02*
X73780003Y-72219997D01*
X73780003Y-72219997D02*
X74780010Y-71219990D01*
X74780010Y-71219990D02*
X74780010Y-66454990D01*
X74780010Y-66454990D02*
X75100000Y-66135000D01*
X75100000Y-66135000D02*
X76200000Y-66135000D01*
X95000000Y-28500000D02*
X96750000Y-28500000D01*
X100500000Y-28500000D02*
X101250000Y-29250000D01*
X98750000Y-28500000D02*
X100500000Y-28500000D01*
D85*
X100000000Y-54000000D02*
X98950000Y-54000000D01*
X100500000Y-55500000D02*
X98950000Y-55500000D01*
X98750000Y-56500000D02*
X98950000Y-56300000D01*
X98950000Y-56300000D02*
X98950000Y-55500000D01*
X98250000Y-56500000D02*
X98750000Y-56500000D01*
X97975000Y-56775000D02*
X98250000Y-56500000D01*
X97975000Y-57300000D02*
X97975000Y-56775000D01*
X98950000Y-54000000D02*
X98950000Y-55500000D01*
X115500000Y-57500000D02*
X115500000Y-56750000D01*
D89*
X128300000Y-24279989D02*
X128250000Y-24229989D01*
X128300000Y-25000000D02*
X128300000Y-24279989D01*
D88*
X130750000Y-37950000D02*
X130750000Y-38555000D01*
X131450000Y-38920000D02*
X131450000Y-39400000D01*
X130750000Y-38555000D02*
X130995000Y-38800000D01*
X130995000Y-38800000D02*
X131330000Y-38800000D01*
X131330000Y-38800000D02*
X131450000Y-38920000D01*
D89*
X123700000Y-24279989D02*
X123750000Y-24229989D01*
X123700000Y-25000000D02*
X123700000Y-24279989D01*
D84*
X103850000Y-56400000D02*
X103504129Y-56400000D01*
X103504129Y-56400000D02*
X102000000Y-56400000D01*
X103500000Y-57650000D02*
X103500000Y-56404129D01*
X103500000Y-56404129D02*
X103504129Y-56400000D01*
X104750000Y-58000000D02*
X104400000Y-57650000D01*
X104400000Y-57650000D02*
X103500000Y-57650000D01*
X104750000Y-59700000D02*
X104750000Y-58000000D01*
X105050000Y-60000000D02*
X104750000Y-59700000D01*
X105880009Y-54369991D02*
X103850000Y-56400000D01*
X107750000Y-54669990D02*
X107450001Y-54369991D01*
X107450001Y-54369991D02*
X105880009Y-54369991D01*
X102000000Y-56400000D02*
X102000000Y-58050000D01*
D85*
X117500000Y-57500000D02*
X117500000Y-56750000D01*
D84*
X98500000Y-69000000D02*
X98750000Y-69000000D01*
X98750000Y-69000000D02*
X99500000Y-69750000D01*
X100500000Y-65750000D02*
X100500000Y-68854598D01*
X100500000Y-68854598D02*
X99604598Y-69750000D01*
X99604598Y-69750000D02*
X99500000Y-69750000D01*
X99750000Y-65000000D02*
X100500000Y-65750000D01*
X98950000Y-65000000D02*
X99750000Y-65000000D01*
D85*
X98950000Y-63500000D02*
X98950000Y-63090998D01*
X98679001Y-62819999D02*
X97569999Y-62819999D01*
X98950000Y-63090998D02*
X98679001Y-62819999D01*
X97569999Y-62819999D02*
X97325000Y-62575000D01*
X97325000Y-62575000D02*
X97325000Y-61700000D01*
X98950000Y-63500000D02*
X98950000Y-65000000D01*
X115500000Y-103575000D02*
X115500000Y-102750000D01*
X115325000Y-103750000D02*
X115500000Y-103575000D01*
X113250000Y-103750000D02*
X115325000Y-103750000D01*
D89*
X128300000Y-70450000D02*
X128750000Y-70000000D01*
X128300000Y-71000000D02*
X128300000Y-70450000D01*
X123700000Y-70200000D02*
X123500000Y-70000000D01*
X123700000Y-71000000D02*
X123700000Y-70200000D01*
D84*
X104000000Y-63800000D02*
X104000000Y-63350774D01*
X104000000Y-63350774D02*
X104000000Y-62200000D01*
X102000000Y-63400000D02*
X103950774Y-63400000D01*
X103950774Y-63400000D02*
X104000000Y-63350774D01*
X102000000Y-61900000D02*
X102000000Y-63400000D01*
X101000000Y-63500000D02*
X101100000Y-63400000D01*
X101100000Y-63400000D02*
X102000000Y-63400000D01*
X101000000Y-66500000D02*
X101000000Y-63500000D01*
X101299999Y-66799999D02*
X101000000Y-66500000D01*
X101299999Y-70200001D02*
X101299999Y-66799999D01*
X101000000Y-70500000D02*
X101299999Y-70200001D01*
D85*
X112930001Y-104430001D02*
X116819999Y-104430001D01*
X112500000Y-104000000D02*
X112930001Y-104430001D01*
X117500000Y-103750000D02*
X117500000Y-102750000D01*
X116819999Y-104430001D02*
X117500000Y-103750000D01*
D84*
X131660020Y-28910020D02*
X131450000Y-28700000D01*
X131450000Y-28700000D02*
X130750000Y-28700000D01*
X132280010Y-28910020D02*
X131660020Y-28910020D01*
X122000000Y-59250000D02*
X122000000Y-58250000D01*
X122000000Y-58250000D02*
X121750000Y-58000000D01*
X120550000Y-59725000D02*
X121525000Y-59725000D01*
X121525000Y-59725000D02*
X122000000Y-59250000D01*
X130750000Y-71500000D02*
X131750000Y-72500000D01*
X131300000Y-74500000D02*
X130750000Y-74500000D01*
X131750000Y-72500000D02*
X131750000Y-74050000D01*
X131750000Y-74050000D02*
X131300000Y-74500000D01*
X118750000Y-70750000D02*
X119500000Y-70000000D01*
X117385161Y-70750000D02*
X118750000Y-70750000D01*
X116430010Y-69794849D02*
X117385161Y-70750000D01*
X116430010Y-67678114D02*
X116430010Y-69794849D01*
X117500000Y-66608125D02*
X116430010Y-67678114D01*
X117500000Y-64250000D02*
X117500000Y-66608125D01*
X118775000Y-62975000D02*
X117500000Y-64250000D01*
X120550000Y-62975000D02*
X118775000Y-62975000D01*
X135784991Y-66965009D02*
X132715009Y-66965009D01*
X132715009Y-66965009D02*
X132500000Y-66750000D01*
X129750000Y-63793481D02*
X130000000Y-63543481D01*
X132500000Y-66750000D02*
X130391875Y-66750000D01*
X129750000Y-66108125D02*
X129750000Y-63793481D01*
X130000000Y-62700000D02*
X129800000Y-62500000D01*
X130391875Y-66750000D02*
X129750000Y-66108125D01*
X130000000Y-63543481D02*
X130000000Y-62700000D01*
X129800000Y-62500000D02*
X128800000Y-62500000D01*
X137049453Y-66965009D02*
X137215009Y-66965009D01*
X137215009Y-66965009D02*
X137750000Y-67500000D01*
X137750000Y-67500000D02*
X141250000Y-67500000D01*
D88*
X142255285Y-66494715D02*
X142750000Y-66000000D01*
D84*
X141250000Y-67500000D02*
X142032440Y-66717560D01*
X142032440Y-66717560D02*
X142255285Y-66494715D01*
X142750000Y-65874002D02*
X142744999Y-65869001D01*
X142750000Y-66000000D02*
X142750000Y-65874002D01*
X142744999Y-63130999D02*
X143295998Y-62580000D01*
X142744999Y-64769186D02*
X142744999Y-63130999D01*
X142744999Y-66005001D02*
X142508697Y-66241303D01*
X142744999Y-64769186D02*
X142744999Y-66005001D01*
X142508697Y-66241303D02*
X142750000Y-66000000D01*
X142032440Y-66717560D02*
X142508697Y-66241303D01*
X142744999Y-65869001D02*
X142744999Y-64769186D01*
D88*
X137049453Y-66965009D02*
X135784991Y-66965009D01*
D84*
X143295998Y-62580000D02*
X149480000Y-62580000D01*
X132750000Y-66250000D02*
X130500000Y-66250000D01*
X133000000Y-66500000D02*
X132750000Y-66250000D01*
X130500000Y-66250000D02*
X130250000Y-66000000D01*
X130250000Y-66000000D02*
X130250000Y-64950000D01*
D88*
X133070001Y-66570001D02*
X137679999Y-66570001D01*
D84*
X149099000Y-60040000D02*
X149480000Y-60040000D01*
X146989010Y-62149990D02*
X149099000Y-60040000D01*
X143117883Y-62149990D02*
X146989010Y-62149990D01*
X142314989Y-62952884D02*
X143117883Y-62149990D01*
X141071886Y-67069990D02*
X142314989Y-65826887D01*
X138179988Y-67069990D02*
X141071886Y-67069990D01*
X142314989Y-65826887D02*
X142314989Y-62952884D01*
X137679999Y-66570001D02*
X138179988Y-67069990D01*
D88*
X133070001Y-66570001D02*
X133000000Y-66500000D01*
D85*
X149480000Y-57500000D02*
X144200000Y-57500000D01*
D89*
X98500000Y-25500000D02*
X96500000Y-25500000D01*
X96500000Y-25500000D02*
X95990000Y-25500000D01*
D88*
X130250000Y-33250000D02*
X130250000Y-34050000D01*
X129250000Y-32250000D02*
X130250000Y-33250000D01*
X129250000Y-32200000D02*
X129250000Y-32250000D01*
D85*
X126450000Y-62975000D02*
X125282791Y-62975000D01*
X125282791Y-62975000D02*
X125137811Y-62830020D01*
D11*
X131250000Y-64950000D02*
X131250000Y-63900000D01*
X131250000Y-63900000D02*
X130950001Y-63600001D01*
X130950001Y-62991763D02*
X131204173Y-62737591D01*
X131204173Y-62737591D02*
X131204173Y-62313327D01*
X130950001Y-63600001D02*
X130950001Y-62991763D01*
D85*
X126450000Y-63625000D02*
X124926389Y-63625000D01*
X124551389Y-63250000D02*
X124000000Y-63250000D01*
X124926389Y-63625000D02*
X124551389Y-63250000D01*
D84*
X132586478Y-63505397D02*
X132586478Y-63190030D01*
X132586478Y-63190030D02*
X132286479Y-62890031D01*
X132250000Y-64950000D02*
X132250000Y-63841875D01*
X132250000Y-63841875D02*
X132586478Y-63505397D01*
X108498860Y-114599440D02*
X108498860Y-111248860D01*
X108498860Y-111248860D02*
X107750000Y-110500000D01*
X134855999Y-50144999D02*
X137562335Y-50144999D01*
X140776230Y-51026230D02*
X141250000Y-51500000D01*
X137562335Y-50144999D02*
X138443566Y-51026230D01*
X138443566Y-51026230D02*
X140776230Y-51026230D01*
X133500000Y-53999002D02*
X133500000Y-51500998D01*
X133500000Y-51500998D02*
X134855999Y-50144999D01*
X134250000Y-56550000D02*
X134250000Y-54749002D01*
X134250000Y-54749002D02*
X133500000Y-53999002D01*
D85*
X109550000Y-23000000D02*
X109550000Y-24500000D01*
X109550000Y-23000000D02*
X109550000Y-21500000D01*
X109550000Y-20550000D02*
X109500000Y-20500000D01*
X109550000Y-21500000D02*
X109550000Y-20550000D01*
D84*
X108750000Y-69750000D02*
X108050000Y-69750000D01*
X108050000Y-69750000D02*
X108000000Y-69700000D01*
X109521390Y-69750000D02*
X109550000Y-69778610D01*
X108750000Y-69750000D02*
X109521390Y-69750000D01*
D85*
X109550000Y-69778610D02*
X109550000Y-70500000D01*
X109550000Y-69000000D02*
X109550000Y-69778610D01*
D84*
X117000000Y-98000000D02*
X117500000Y-98500000D01*
X116500000Y-98000000D02*
X117000000Y-98000000D01*
X115750000Y-97250000D02*
X116500000Y-98000000D01*
X115750000Y-94750000D02*
X115750000Y-97250000D01*
X115000000Y-94000000D02*
X115750000Y-94750000D01*
X115000000Y-92500000D02*
X115000000Y-94000000D01*
X116000000Y-91500000D02*
X115000000Y-92500000D01*
X116000000Y-87000000D02*
X116000000Y-91500000D01*
X116250000Y-86750000D02*
X116000000Y-87000000D01*
X116250000Y-84500000D02*
X116250000Y-86750000D01*
X115750000Y-84000000D02*
X116250000Y-84500000D01*
X113250000Y-84000000D02*
X115750000Y-84000000D01*
X112750000Y-84500000D02*
X113250000Y-84000000D01*
X112750000Y-86750000D02*
X112750000Y-84500000D01*
X113000000Y-87000000D02*
X112750000Y-86750000D01*
X113000000Y-89613025D02*
X113000000Y-87000000D01*
X111800000Y-102400000D02*
X111800000Y-101100000D01*
X110250000Y-102200000D02*
X110950000Y-102200000D01*
X110950000Y-102225000D02*
X111125000Y-102400000D01*
X111125000Y-102400000D02*
X111800000Y-102400000D01*
X110950000Y-102200000D02*
X110950000Y-102225000D01*
X113980001Y-100244001D02*
X113980001Y-95230001D01*
X113124002Y-101100000D02*
X113980001Y-100244001D01*
X111800000Y-101100000D02*
X113124002Y-101100000D01*
X111541599Y-94044999D02*
X110500000Y-95086598D01*
X112794999Y-94044999D02*
X111541599Y-94044999D01*
X113980001Y-95230001D02*
X112794999Y-94044999D01*
X110500000Y-95086598D02*
X110500000Y-95750000D01*
X110500000Y-95750000D02*
X109250000Y-97000000D01*
X105500000Y-97000000D02*
X104750000Y-96250000D01*
X104750000Y-96250000D02*
X104750000Y-94250000D01*
X104750000Y-94250000D02*
X105750000Y-93250000D01*
X105750000Y-93250000D02*
X110000000Y-93250000D01*
X110000000Y-93250000D02*
X113000000Y-90250000D01*
D83*
X108853640Y-97000000D02*
X108632908Y-97000000D01*
D84*
X109250000Y-97000000D02*
X108853640Y-97000000D01*
X108853640Y-97000000D02*
X105500000Y-97000000D01*
D88*
X113000000Y-90000000D02*
X113500000Y-90500000D01*
D84*
X113000000Y-90250000D02*
X113000000Y-89613025D01*
D88*
X113000000Y-89613025D02*
X113000000Y-90000000D01*
D83*
X117500000Y-52500000D02*
X117500000Y-52750000D01*
X117500000Y-52250000D02*
X117500000Y-52500000D01*
X117250000Y-52000000D02*
X117500000Y-52250000D01*
X116250000Y-52000000D02*
X117250000Y-52000000D01*
X115500000Y-51250000D02*
X116250000Y-52000000D01*
X115500000Y-48500000D02*
X115500000Y-51250000D01*
X116000000Y-48000000D02*
X115500000Y-48500000D01*
X116000000Y-40750000D02*
X116000000Y-48000000D01*
X116500000Y-40250000D02*
X116000000Y-40750000D01*
X116500000Y-38000000D02*
X116500000Y-40250000D01*
X116000000Y-37500000D02*
X116500000Y-38000000D01*
X113000000Y-37500000D02*
X116000000Y-37500000D01*
X112500000Y-38000000D02*
X113000000Y-37500000D01*
X112500000Y-40250000D02*
X112500000Y-38000000D01*
X113000000Y-40750000D02*
X112500000Y-40250000D01*
X113000000Y-43956243D02*
X113000000Y-40750000D01*
X111800000Y-56650000D02*
X111800000Y-55350000D01*
X112865002Y-55350000D02*
X114000000Y-54215002D01*
X111800000Y-55350000D02*
X112865002Y-55350000D01*
X114000000Y-54215002D02*
X114000000Y-52500000D01*
X114000000Y-52500000D02*
X113750000Y-52250000D01*
X113750000Y-52250000D02*
X113750000Y-48500000D01*
X113750000Y-48500000D02*
X113250000Y-48000000D01*
X113250000Y-48000000D02*
X110500000Y-48000000D01*
X110500000Y-48000000D02*
X109250000Y-49250000D01*
X109250000Y-49250000D02*
X109250000Y-50250000D01*
X109250000Y-50250000D02*
X108750000Y-50750000D01*
X105500000Y-50750000D02*
X105000000Y-50250000D01*
X105000000Y-50250000D02*
X105000000Y-48000000D01*
X105000000Y-48000000D02*
X105500000Y-47500000D01*
X105500000Y-47500000D02*
X108750000Y-47500000D01*
X108750000Y-47500000D02*
X109750000Y-46500000D01*
X109750000Y-46500000D02*
X112750000Y-46500000D01*
X112750000Y-46500000D02*
X113000000Y-46250000D01*
X112000000Y-56850000D02*
X111800000Y-56650000D01*
X112000000Y-58050000D02*
X112000000Y-56850000D01*
X108222865Y-50750000D02*
X108120291Y-50750000D01*
X108750000Y-50750000D02*
X108222865Y-50750000D01*
X108222865Y-50750000D02*
X105500000Y-50750000D01*
X113000000Y-46250000D02*
X113000000Y-43956243D01*
D89*
X93000000Y-32315000D02*
X93040000Y-32355000D01*
X91000000Y-28450000D02*
X90950000Y-28500000D01*
X90950000Y-28500000D02*
X93000000Y-28500000D01*
X93040000Y-28540000D02*
X93000000Y-28500000D01*
X93040000Y-32355000D02*
X93040000Y-28540000D01*
X93000000Y-25550000D02*
X93050000Y-25500000D01*
X93000000Y-28500000D02*
X93000000Y-25550000D01*
X84500000Y-28500000D02*
X82000000Y-31000000D01*
X82000000Y-31000000D02*
X82000000Y-33000000D01*
X88050000Y-28500000D02*
X84500000Y-28500000D01*
X90500000Y-39645000D02*
X90500000Y-39500000D01*
X90500000Y-39500000D02*
X91500000Y-38500000D01*
X90500000Y-39645000D02*
X90500000Y-43450000D01*
X90500000Y-43450000D02*
X90450000Y-43500000D01*
X90500000Y-39645000D02*
X90500000Y-38700000D01*
D90*
X150500000Y-41750000D02*
X150500060Y-41749940D01*
X150500060Y-41749940D02*
X157000000Y-41749940D01*
X150500000Y-41750000D02*
X148819999Y-40069999D01*
X148819999Y-40069999D02*
X147069999Y-40069999D01*
X146500000Y-39500000D02*
X146500000Y-33500000D01*
X147069999Y-40069999D02*
X146500000Y-39500000D01*
X146500000Y-33500000D02*
X146200000Y-33200000D01*
X146200000Y-33200000D02*
X143900000Y-33200000D01*
D87*
X159500000Y-65500000D02*
X159500000Y-45499940D01*
X159500000Y-45499940D02*
X157000000Y-42999940D01*
X157000000Y-42999940D02*
X157000000Y-41749940D01*
D84*
X98529850Y-61700000D02*
X98750000Y-61479850D01*
X97975000Y-61700000D02*
X98529850Y-61700000D01*
D85*
X99175000Y-62200000D02*
X98000000Y-62200000D01*
X100250000Y-62000000D02*
X99375000Y-62000000D01*
X99375000Y-62000000D02*
X99175000Y-62200000D01*
X98000000Y-62200000D02*
X97975000Y-62225000D01*
X97975000Y-62225000D02*
X97975000Y-61700000D01*
X110000000Y-62500000D02*
X110479839Y-62500000D01*
X110479839Y-62500000D02*
X111500000Y-62500000D01*
X110500000Y-61750000D02*
X110500000Y-62479839D01*
X110500000Y-62479839D02*
X110479839Y-62500000D01*
X109725000Y-61700000D02*
X109725000Y-62225000D01*
X109725000Y-62225000D02*
X110000000Y-62500000D01*
X111500000Y-62500000D02*
X112000000Y-62000000D01*
D84*
X113300000Y-62700000D02*
X113250000Y-62750000D01*
X115250000Y-62700000D02*
X113300000Y-62700000D01*
X113250000Y-62750000D02*
X113250000Y-62000000D01*
X113250000Y-62000000D02*
X113250000Y-61320010D01*
D87*
X108679151Y-75250000D02*
X113250000Y-75250000D01*
X107250000Y-75250000D02*
X108679151Y-75250000D01*
X113250000Y-75250000D02*
X114000000Y-75250000D01*
X143450000Y-33200000D02*
X143900000Y-33200000D01*
X143250000Y-31475000D02*
X144000000Y-32225000D01*
X143250000Y-30500000D02*
X143250000Y-31475000D01*
X144000000Y-33100000D02*
X143900000Y-33200000D01*
X144000000Y-32225000D02*
X144000000Y-33100000D01*
X144000000Y-33300000D02*
X143900000Y-33200000D01*
D90*
X157500000Y-35500000D02*
X157500000Y-38000000D01*
X157500000Y-38000000D02*
X159250000Y-39750000D01*
X159250000Y-39750000D02*
X159250000Y-41250000D01*
X158750060Y-41749940D02*
X157000000Y-41749940D01*
X159250000Y-41250000D02*
X158750060Y-41749940D01*
D85*
X109800000Y-28475000D02*
X109025000Y-28475000D01*
X108800138Y-28699862D02*
X108800138Y-29250000D01*
X109025000Y-28475000D02*
X108800138Y-28699862D01*
D87*
X108800138Y-29250000D02*
X109750000Y-29250000D01*
X107250000Y-29250000D02*
X108800138Y-29250000D01*
D85*
X109800000Y-74475000D02*
X109025000Y-74475000D01*
X108679151Y-74820849D02*
X108679151Y-75250000D01*
X109025000Y-74475000D02*
X108679151Y-74820849D01*
D87*
X140969997Y-75780003D02*
X138750000Y-75780003D01*
X142500000Y-74250000D02*
X140969997Y-75780003D01*
X142500000Y-69500000D02*
X142500000Y-74250000D01*
X144500000Y-67500000D02*
X142500000Y-69500000D01*
X157500000Y-67500000D02*
X144500000Y-67500000D01*
X159500000Y-65500000D02*
X157500000Y-67500000D01*
X137500000Y-24750060D02*
X137500000Y-31750000D01*
X141250000Y-41750000D02*
X147250000Y-47750000D01*
X140780509Y-75000000D02*
X138750000Y-75000000D01*
X137500000Y-31750000D02*
X141250000Y-35500000D01*
X144250000Y-66750000D02*
X141750000Y-69250000D01*
X141750000Y-69250000D02*
X141750000Y-74030509D01*
X141250000Y-35500000D02*
X141250000Y-41750000D01*
X157500000Y-47750000D02*
X158750000Y-49000000D01*
X158750000Y-65250000D02*
X157250000Y-66750000D01*
X157250000Y-66750000D02*
X144250000Y-66750000D01*
X147250000Y-47750000D02*
X157500000Y-47750000D01*
X158750000Y-49000000D02*
X158750000Y-65250000D01*
X141750000Y-74030509D02*
X140780509Y-75000000D01*
D84*
X96025000Y-57300000D02*
X96025000Y-58475000D01*
X96025000Y-58475000D02*
X96000000Y-58500000D01*
D85*
X106000000Y-56000000D02*
X105750000Y-56250000D01*
X105750000Y-56250000D02*
X105750000Y-57250000D01*
X107600000Y-56000000D02*
X106000000Y-56000000D01*
X107775000Y-57300000D02*
X107775000Y-56175000D01*
X107775000Y-56175000D02*
X107600000Y-56000000D01*
X96025000Y-57300000D02*
X96025000Y-56775000D01*
X94000000Y-56750000D02*
X94000000Y-57250000D01*
X96025000Y-56775000D02*
X95750000Y-56500000D01*
X95750000Y-56500000D02*
X94250000Y-56500000D01*
X94250000Y-56500000D02*
X94000000Y-56750000D01*
D87*
X116000000Y-26250000D02*
X116000000Y-27250000D01*
X116250000Y-72500000D02*
X117250000Y-72500000D01*
D84*
X79750000Y-60800000D02*
X79750000Y-59250000D01*
X79750000Y-59250000D02*
X79000000Y-59250000D01*
X79750000Y-59250000D02*
X80500000Y-59250000D01*
D90*
X154300000Y-20000000D02*
X150800000Y-23500000D01*
X156500000Y-20000000D02*
X154300000Y-20000000D01*
D86*
X144750000Y-28475000D02*
X145725000Y-27500000D01*
X144750000Y-28500000D02*
X144750000Y-28475000D01*
X145725000Y-27500000D02*
X147000000Y-27500000D01*
X150800000Y-23700000D02*
X150800000Y-23500000D01*
X147000000Y-27500000D02*
X150800000Y-23700000D01*
D90*
X138750060Y-23500000D02*
X137500000Y-24750060D01*
X150800000Y-23500000D02*
X138750060Y-23500000D01*
D85*
X115725000Y-26525000D02*
X116000000Y-26250000D01*
X114200000Y-26525000D02*
X115725000Y-26525000D01*
X116225000Y-72525000D02*
X116250000Y-72500000D01*
X114200000Y-72525000D02*
X116225000Y-72525000D01*
X107750000Y-58422911D02*
X107669224Y-58503687D01*
X107750000Y-57325000D02*
X107750000Y-58422911D01*
X107775000Y-57300000D02*
X107750000Y-57325000D01*
X123000000Y-67050000D02*
X123000000Y-67000000D01*
X123000000Y-67000000D02*
X122750000Y-66750000D01*
X122750000Y-66750000D02*
X122025000Y-66750000D01*
X120750000Y-67150000D02*
X121625000Y-67150000D01*
X121625000Y-67150000D02*
X122025000Y-66750000D01*
X121400000Y-65400000D02*
X120750000Y-66050000D01*
X120750000Y-66050000D02*
X120750000Y-67150000D01*
X121400000Y-65100000D02*
X121400000Y-65400000D01*
X121225000Y-64925000D02*
X121400000Y-65100000D01*
X120550000Y-64925000D02*
X121225000Y-64925000D01*
X120550000Y-64925000D02*
X119075000Y-64925000D01*
X119075000Y-64925000D02*
X118750000Y-65250000D01*
D92*
X120550000Y-64925000D02*
X120075000Y-64925000D01*
D85*
X143500000Y-60400000D02*
X143500000Y-60750000D01*
X143500000Y-60750000D02*
X141500000Y-62750000D01*
X141500000Y-62750000D02*
X140090998Y-62750000D01*
D84*
X136075000Y-71000000D02*
X135075000Y-71000000D01*
X135075000Y-71000000D02*
X135019999Y-70944999D01*
X135019999Y-70944999D02*
X135019999Y-70230001D01*
X136100000Y-69150000D02*
X136100000Y-69000000D01*
X136100000Y-69000000D02*
X136100000Y-68850000D01*
D85*
X136500000Y-68600000D02*
X136100000Y-69000000D01*
X136500000Y-67535019D02*
X136500000Y-68600000D01*
D84*
X135019999Y-70230001D02*
X136100000Y-69150000D01*
D85*
X137750000Y-66000000D02*
X136500000Y-66000000D01*
X139180001Y-64569999D02*
X137750000Y-66000000D01*
X140090998Y-62750000D02*
X139180001Y-63660997D01*
X139180001Y-63660997D02*
X139180001Y-64569999D01*
X123000000Y-68750000D02*
X123000000Y-67950000D01*
X131500000Y-70000000D02*
X130250000Y-70000000D01*
X130250000Y-70000000D02*
X129425000Y-69175000D01*
X132105001Y-69394999D02*
X131500000Y-70000000D01*
X129425000Y-69175000D02*
X123425000Y-69175000D01*
X132105001Y-68644999D02*
X132105001Y-69394999D01*
X123425000Y-69175000D02*
X123000000Y-68750000D01*
X133214981Y-67535019D02*
X132105001Y-68644999D01*
X136500000Y-67535019D02*
X133214981Y-67535019D01*
X132151472Y-69500000D02*
X133000000Y-69500000D01*
X132105001Y-69453529D02*
X132151472Y-69500000D01*
X132105001Y-69394999D02*
X132105001Y-69453529D01*
D90*
X157500000Y-30310000D02*
X157500000Y-32500000D01*
D89*
X75000000Y-57000000D02*
X72000000Y-57000000D01*
X78000000Y-57000000D02*
X75000000Y-57000000D01*
X81000000Y-57000000D02*
X78000000Y-57000000D01*
X84880000Y-48500000D02*
X84880000Y-50620000D01*
X84880000Y-50620000D02*
X82500000Y-53000000D01*
X82500000Y-53000000D02*
X82500000Y-56750000D01*
X82500000Y-56750000D02*
X82250000Y-57000000D01*
X82250000Y-57000000D02*
X81000000Y-57000000D01*
X95580000Y-85645000D02*
X95580000Y-78355000D01*
X75000000Y-103000000D02*
X72000000Y-103000000D01*
X78000000Y-103000000D02*
X75000000Y-103000000D01*
X81000000Y-103000000D02*
X78000000Y-103000000D01*
X84880000Y-101120000D02*
X83000000Y-103000000D01*
X83000000Y-103000000D02*
X81000000Y-103000000D01*
X84880000Y-94500000D02*
X84880000Y-101120000D01*
D88*
X130750000Y-33240869D02*
X130000000Y-32490869D01*
X130750000Y-34050000D02*
X130750000Y-33240869D01*
X130000000Y-32490869D02*
X130000000Y-31500000D01*
X129800000Y-31300000D02*
X129250000Y-31300000D01*
X130000000Y-31500000D02*
X129800000Y-31300000D01*
D84*
X129250000Y-31300000D02*
X129250000Y-29700000D01*
X127200000Y-27000000D02*
X127500000Y-27000000D01*
X127950000Y-26550000D02*
X129250000Y-26550000D01*
X127500000Y-27000000D02*
X127950000Y-26550000D01*
X129200000Y-26500000D02*
X129250000Y-26550000D01*
X129200000Y-25000000D02*
X129200000Y-26500000D01*
X120274334Y-49339611D02*
X120408945Y-49205000D01*
X120408945Y-49205000D02*
X121050000Y-49205000D01*
X120450000Y-49700000D02*
X120274334Y-49524334D01*
X120274334Y-49524334D02*
X120274334Y-49339611D01*
X120450000Y-50250000D02*
X120450000Y-49700000D01*
X120700001Y-51200001D02*
X120450000Y-50950000D01*
X120450000Y-50950000D02*
X120450000Y-50250000D01*
X122250000Y-51500000D02*
X121950001Y-51200001D01*
X121950001Y-51200001D02*
X120700001Y-51200001D01*
D83*
X121050000Y-49205000D02*
X121705000Y-49205000D01*
D84*
X123750000Y-53250000D02*
X122805000Y-53250000D01*
X120150007Y-45400007D02*
X119950000Y-45200000D01*
X119950000Y-45200000D02*
X119250000Y-45200000D01*
X121050000Y-45425000D02*
X121025007Y-45400007D01*
X121025007Y-45400007D02*
X120150007Y-45400007D01*
X119550000Y-50250000D02*
X119550000Y-49700000D01*
X119550000Y-49700000D02*
X119250000Y-49400000D01*
X119250000Y-49400000D02*
X119250000Y-45200000D01*
X131950000Y-36750000D02*
X134500000Y-36750000D01*
X134700000Y-36550000D02*
X134700000Y-36000000D01*
X134500000Y-36750000D02*
X134700000Y-36550000D01*
D85*
X124250000Y-62500000D02*
X123575736Y-62500000D01*
X123575736Y-62500000D02*
X123069999Y-63005737D01*
X123069999Y-63005737D02*
X123069999Y-63994999D01*
X123069999Y-63994999D02*
X125000000Y-65925000D01*
X125000000Y-65925000D02*
X125000000Y-67000000D01*
X126450000Y-62325000D02*
X125639193Y-62325000D01*
X125639193Y-62325000D02*
X125464212Y-62150019D01*
X125464212Y-62150019D02*
X124599981Y-62150019D01*
X124599981Y-62150019D02*
X124250000Y-62500000D01*
D11*
X130750000Y-64950000D02*
X130750000Y-64168154D01*
X130750000Y-64168154D02*
X130469987Y-63888141D01*
X130469987Y-62036845D02*
X130404646Y-61971504D01*
X130469987Y-63888141D02*
X130469987Y-62036845D01*
D89*
X95000000Y-74500000D02*
X96750000Y-74500000D01*
D84*
X120550000Y-61025000D02*
X119135590Y-61025000D01*
X119135590Y-61025000D02*
X118577287Y-60466697D01*
X94050000Y-54000000D02*
X93000000Y-54000000D01*
X120550000Y-61675000D02*
X118675000Y-61675000D01*
X118675000Y-61675000D02*
X118000000Y-61000000D01*
X93500000Y-65000000D02*
X94050000Y-65000000D01*
X93000000Y-64500000D02*
X93500000Y-65000000D01*
X105950000Y-60000000D02*
X106917390Y-60000000D01*
X106917390Y-60000000D02*
X107530617Y-59386773D01*
X120550000Y-60375000D02*
X119464887Y-60375000D01*
X119464887Y-60375000D02*
X119320812Y-60230925D01*
X118023044Y-61878656D02*
X118469388Y-62325000D01*
X118469388Y-62325000D02*
X120550000Y-62325000D01*
X105250000Y-61500000D02*
X105250000Y-62750000D01*
X105250000Y-62750000D02*
X105000000Y-63000000D01*
X105050000Y-61300000D02*
X105250000Y-61500000D01*
X104000000Y-61300000D02*
X105050000Y-61300000D01*
D89*
X129250000Y-75700000D02*
X129250000Y-77300000D01*
D88*
X130750000Y-79240870D02*
X130000000Y-78490870D01*
X130750000Y-80050000D02*
X130750000Y-79240870D01*
X130000000Y-78490870D02*
X130000000Y-77500000D01*
X129800000Y-77300000D02*
X129250000Y-77300000D01*
X130000000Y-77500000D02*
X129800000Y-77300000D01*
D85*
X69450000Y-103430000D02*
X69450000Y-102600000D01*
X68380000Y-104500000D02*
X69450000Y-103430000D01*
X64250000Y-104500000D02*
X68380000Y-104500000D01*
X63500000Y-103750000D02*
X64250000Y-104500000D01*
X63500000Y-73250000D02*
X63500000Y-103750000D01*
X67250000Y-69500000D02*
X63500000Y-73250000D01*
D11*
X136306114Y-59000000D02*
X135778057Y-59528057D01*
X137200000Y-59000000D02*
X136306114Y-59000000D01*
D84*
X120354598Y-90250000D02*
X122000000Y-90250000D01*
X122000000Y-90250000D02*
X122500000Y-90750000D01*
X119500000Y-76250000D02*
X119500000Y-89395402D01*
X119500000Y-89395402D02*
X120354598Y-90250000D01*
X121050000Y-90795000D02*
X122455000Y-90795000D01*
X122455000Y-90795000D02*
X122500000Y-90750000D01*
X120250000Y-75500000D02*
X119500000Y-76250000D01*
X136456519Y-63000000D02*
X137200000Y-63000000D01*
X136144990Y-63311529D02*
X136456519Y-63000000D01*
X136144990Y-63894990D02*
X136144990Y-63311529D01*
X136855001Y-64605001D02*
X136144990Y-63894990D01*
X137644999Y-64605001D02*
X136855001Y-64605001D01*
X138500000Y-63750000D02*
X137644999Y-64605001D01*
D85*
X124105010Y-104000000D02*
X123750000Y-103644990D01*
X124850000Y-104000000D02*
X124105010Y-104000000D01*
D84*
X119500000Y-75250000D02*
X119000000Y-75750000D01*
X119000000Y-75750000D02*
X119000000Y-87500000D01*
X119000000Y-87500000D02*
X118500000Y-88000000D01*
X118644990Y-96750000D02*
X122604598Y-96750000D01*
X122604598Y-96750000D02*
X123959599Y-95394999D01*
X123959599Y-95394999D02*
X124540401Y-95394999D01*
X124540401Y-95394999D02*
X124895402Y-95750000D01*
X124895402Y-95750000D02*
X126250000Y-95750000D01*
X126250000Y-95750000D02*
X127250000Y-96750000D01*
X128795000Y-94950000D02*
X128795000Y-95609191D01*
X128795000Y-95609191D02*
X128779644Y-95624547D01*
X128779644Y-95624547D02*
X128779644Y-96750000D01*
X138111777Y-62000000D02*
X137200000Y-62000000D01*
X138361777Y-62250000D02*
X138111777Y-62000000D01*
X139000000Y-62250000D02*
X138361777Y-62250000D01*
D85*
X124800000Y-105500000D02*
X121500000Y-105500000D01*
X120719997Y-104719997D02*
X120719997Y-104269990D01*
X121500000Y-105500000D02*
X120719997Y-104719997D01*
D84*
X133205000Y-90575000D02*
X134250000Y-91620000D01*
X133205000Y-89550000D02*
X133205000Y-90575000D01*
X134250000Y-91620000D02*
X134250000Y-96250000D01*
X133750000Y-96750000D02*
X128547933Y-96750000D01*
X134250000Y-96250000D02*
X133750000Y-96750000D01*
X128547933Y-96750000D02*
X128779644Y-96750000D01*
X127250000Y-96750000D02*
X128547933Y-96750000D01*
X125144995Y-39355001D02*
X126000000Y-38499996D01*
X123565000Y-40425000D02*
X124634999Y-39355001D01*
X124634999Y-39355001D02*
X125144995Y-39355001D01*
X123565000Y-41450000D02*
X123565000Y-40425000D01*
X132612473Y-35750000D02*
X132838795Y-35523678D01*
X131950000Y-35750000D02*
X132612473Y-35750000D01*
X125620392Y-38004608D02*
X121254608Y-38004608D01*
X127375000Y-36250000D02*
X125620392Y-38004608D01*
X128050000Y-36250000D02*
X127375000Y-36250000D01*
X121045000Y-37795000D02*
X121045000Y-36050000D01*
X121254608Y-38004608D02*
X121045000Y-37795000D01*
X120000000Y-76750000D02*
X121000000Y-75750000D01*
X120000000Y-80193858D02*
X120000000Y-76750000D01*
X121045000Y-87450000D02*
X121045000Y-88955000D01*
X121045000Y-88955000D02*
X120500000Y-89500000D01*
X120000000Y-80193858D02*
X120000000Y-89000000D01*
X120000000Y-89000000D02*
X120500000Y-89500000D01*
X125455000Y-82050000D02*
X125455000Y-81390809D01*
X125455000Y-81390809D02*
X124719192Y-80655001D01*
X124719192Y-80655001D02*
X124221951Y-80655001D01*
X124221951Y-80655001D02*
X123763205Y-80196255D01*
X123763205Y-80196255D02*
X120002397Y-80196255D01*
X120002397Y-80196255D02*
X120000000Y-80193858D01*
X138450001Y-62700001D02*
X138750000Y-63000000D01*
X138143482Y-62700001D02*
X138450001Y-62700001D01*
X137943481Y-62500000D02*
X138143482Y-62700001D01*
X137200000Y-62500000D02*
X137943481Y-62500000D01*
D85*
X120039996Y-104860254D02*
X122179742Y-107000000D01*
X122179742Y-107000000D02*
X124850000Y-107000000D01*
X120039996Y-103710004D02*
X120039996Y-104860254D01*
X120250000Y-103500000D02*
X120039996Y-103710004D01*
X121154274Y-103500000D02*
X120250000Y-103500000D01*
X121500000Y-103845726D02*
X121154274Y-103500000D01*
X121500000Y-104269990D02*
X121500000Y-103845726D01*
D88*
X128305010Y-28000000D02*
X128500000Y-28194990D01*
X127200000Y-28000000D02*
X128305010Y-28000000D01*
D85*
X116275000Y-28475000D02*
X116750000Y-28000000D01*
X116750000Y-28000000D02*
X116750000Y-27000000D01*
X114200000Y-27825000D02*
X115325000Y-27825000D01*
X115475625Y-27975625D02*
X115475625Y-28475000D01*
X115325000Y-27825000D02*
X115475625Y-27975625D01*
X115475625Y-28475000D02*
X116275000Y-28475000D01*
X114200000Y-28475000D02*
X115475625Y-28475000D01*
D84*
X116250000Y-28500000D02*
X116275000Y-28475000D01*
X116250000Y-29000000D02*
X116250000Y-28500000D01*
D83*
X116750000Y-27000000D02*
X116750000Y-25000000D01*
D85*
X110925000Y-27175000D02*
X111000000Y-27250000D01*
X109800000Y-27175000D02*
X110925000Y-27175000D01*
X111000000Y-27250000D02*
X111000000Y-27800000D01*
X110975000Y-27825000D02*
X109800000Y-27825000D01*
X111000000Y-27800000D02*
X110975000Y-27825000D01*
X120550000Y-59075000D02*
X119825000Y-59075000D01*
X119825000Y-59075000D02*
X119500000Y-58750000D01*
X108425000Y-57300000D02*
X108425000Y-58425000D01*
X108425000Y-58425000D02*
X108447187Y-58447187D01*
X73500000Y-60250000D02*
X73500000Y-68250000D01*
X70500000Y-59750000D02*
X73000000Y-59750000D01*
X73000000Y-59750000D02*
X73500000Y-60250000D01*
X69450000Y-56600000D02*
X69450000Y-58700000D01*
X69450000Y-58700000D02*
X70500000Y-59750000D01*
D11*
X135899094Y-58500000D02*
X135838580Y-58560514D01*
X137200000Y-58500000D02*
X135899094Y-58500000D01*
D84*
X131836502Y-53336498D02*
X131500004Y-53000000D01*
X131836502Y-54478378D02*
X131836502Y-53336498D01*
X132750000Y-56550000D02*
X132750000Y-55391876D01*
X132750000Y-55391876D02*
X131836502Y-54478378D01*
D88*
X139550000Y-46500000D02*
X138750000Y-46500000D01*
D85*
X122205000Y-44795000D02*
X122250000Y-44750000D01*
X121050000Y-44795000D02*
X122205000Y-44795000D01*
D84*
X132266512Y-54300262D02*
X132266512Y-50696068D01*
X133250000Y-55283750D02*
X132266512Y-54300262D01*
X133250000Y-56550000D02*
X133250000Y-55283750D01*
D85*
X129689666Y-50696068D02*
X132072483Y-50696068D01*
D84*
X134000000Y-49646079D02*
X132950011Y-50696068D01*
D85*
X132072483Y-50696068D02*
X132266512Y-50696068D01*
D84*
X134000000Y-47995616D02*
X134000000Y-49646079D01*
X132950011Y-50696068D02*
X132072483Y-50696068D01*
D85*
X128795000Y-49801402D02*
X129689666Y-50696068D01*
X128795000Y-48950000D02*
X128795000Y-49801402D01*
X133205000Y-45705000D02*
X133205000Y-43550000D01*
X134000000Y-46500000D02*
X133205000Y-45705000D01*
X134004384Y-48000000D02*
X134000000Y-47995616D01*
X139600000Y-48000000D02*
X134004384Y-48000000D01*
X134000000Y-47995616D02*
X134000000Y-46500000D01*
D84*
X132250000Y-56550000D02*
X132250000Y-55500000D01*
X132250000Y-55500000D02*
X131231482Y-54481482D01*
X131231482Y-54481482D02*
X131231482Y-53781790D01*
D88*
X139550000Y-49500000D02*
X138750000Y-49500000D01*
X121000000Y-41405000D02*
X121045000Y-41450000D01*
D85*
X121045000Y-42705000D02*
X121000000Y-42750000D01*
X121045000Y-41450000D02*
X121045000Y-42705000D01*
X121045000Y-39295000D02*
X121000000Y-39250000D01*
X121045000Y-41450000D02*
X121045000Y-39295000D01*
X126250000Y-36030003D02*
X126250000Y-36660810D01*
X126250000Y-36660810D02*
X125910810Y-37000000D01*
X125910810Y-37000000D02*
X125750000Y-37000000D01*
X125455000Y-36705000D02*
X125455000Y-36050000D01*
X125750000Y-37000000D02*
X125455000Y-36705000D01*
X126450000Y-64275000D02*
X124614697Y-64275000D01*
X124614697Y-64275000D02*
X124310289Y-63970592D01*
D11*
X131750000Y-63497082D02*
X131752031Y-63495051D01*
X131750000Y-64950000D02*
X131750000Y-63497082D01*
D85*
X150750000Y-81250000D02*
X151000000Y-81000000D01*
X150750000Y-96000000D02*
X150750000Y-81250000D01*
D91*
X153500000Y-78500000D02*
X151000000Y-81000000D01*
X157000000Y-78500000D02*
X153500000Y-78500000D01*
X155000000Y-72000000D02*
X153000000Y-72000000D01*
X156000000Y-71000000D02*
X155000000Y-72000000D01*
X158000000Y-71000000D02*
X156000000Y-71000000D01*
X159250000Y-71000000D02*
X158000000Y-71000000D01*
X160000000Y-73738000D02*
X160000000Y-71750000D01*
X158366000Y-75372000D02*
X160000000Y-73738000D01*
X160000000Y-71750000D02*
X159250000Y-71000000D01*
X158366000Y-85000000D02*
X158366000Y-75372000D01*
D85*
X69555000Y-61055000D02*
X69500000Y-61000000D01*
X69500000Y-61000000D02*
X68450000Y-61000000D01*
X70800000Y-61055000D02*
X69555000Y-61055000D01*
D88*
X70800000Y-61055000D02*
X71945000Y-61055000D01*
X71945000Y-61055000D02*
X72000000Y-61000000D01*
D11*
X134250000Y-64950000D02*
X134250000Y-62067598D01*
X134250000Y-62067598D02*
X133432402Y-61250000D01*
X133432402Y-61250000D02*
X132500000Y-61250000D01*
D85*
X70800000Y-62325000D02*
X69425000Y-62325000D01*
X69425000Y-62325000D02*
X69250000Y-62500000D01*
X69250000Y-62500000D02*
X68450000Y-62500000D01*
D88*
X70800000Y-62325000D02*
X71925000Y-62325000D01*
X71925000Y-62325000D02*
X72000000Y-62250000D01*
D11*
X133750000Y-62500000D02*
X133250000Y-62000000D01*
X133750000Y-63671164D02*
X133750000Y-62500000D01*
X133250000Y-64171164D02*
X133750000Y-63671164D01*
X133250000Y-64950000D02*
X133250000Y-64171164D01*
D85*
X70800000Y-63595000D02*
X69650000Y-63595000D01*
X69650000Y-63595000D02*
X69245000Y-64000000D01*
X69245000Y-64000000D02*
X68450000Y-64000000D01*
D88*
X70800000Y-63595000D02*
X71905000Y-63595000D01*
X71905000Y-63595000D02*
X72000000Y-63500000D01*
D84*
X132750000Y-64950000D02*
X132794990Y-64905010D01*
X132750000Y-63950000D02*
X132750000Y-64950000D01*
X133071307Y-63628693D02*
X132750000Y-63950000D01*
X133071307Y-62796771D02*
X133071307Y-63628693D01*
D85*
X70800000Y-64865000D02*
X69635000Y-64865000D01*
X69635000Y-64865000D02*
X69000000Y-65500000D01*
X69000000Y-65500000D02*
X68450000Y-65500000D01*
D88*
X70800000Y-64865000D02*
X71885000Y-64865000D01*
X71885000Y-64865000D02*
X72000000Y-64750000D01*
X128800000Y-61000000D02*
X127750000Y-61000000D01*
X127750000Y-61000000D02*
X127649264Y-60899264D01*
X127649264Y-60899264D02*
X127649264Y-60805966D01*
D85*
X70800000Y-66135000D02*
X69865000Y-66135000D01*
X69865000Y-66135000D02*
X69000000Y-67000000D01*
X69000000Y-67000000D02*
X68450000Y-67000000D01*
D88*
X70800000Y-66135000D02*
X71885000Y-66135000D01*
X71885000Y-66135000D02*
X72000000Y-66250000D01*
X129783287Y-61500000D02*
X129783289Y-61499998D01*
X128800000Y-61500000D02*
X129783287Y-61500000D01*
D85*
X70800000Y-67405000D02*
X70095000Y-67405000D01*
X70095000Y-67405000D02*
X69000000Y-68500000D01*
X69000000Y-68500000D02*
X68450000Y-68500000D01*
D88*
X70800000Y-67405000D02*
X71905000Y-67405000D01*
X71905000Y-67405000D02*
X72000000Y-67500000D01*
X70350000Y-67405000D02*
X70800000Y-67405000D01*
X128800000Y-62000000D02*
X127843297Y-62000000D01*
X127843297Y-62000000D02*
X127649263Y-62194034D01*
D85*
X67550000Y-61000000D02*
X65399160Y-61000000D01*
X67550000Y-62500000D02*
X65399160Y-62500000D01*
X67550000Y-64000000D02*
X65399160Y-64000000D01*
X67550000Y-65500000D02*
X65399160Y-65500000D01*
X67550000Y-67000000D02*
X65399160Y-67000000D01*
X67550000Y-68500000D02*
X65399160Y-68500000D01*
X142350840Y-48000000D02*
X140500000Y-48000000D01*
X140450000Y-46500000D02*
X142350840Y-46500000D01*
X140450000Y-49500000D02*
X142350840Y-49500000D01*
X127600840Y-104000000D02*
X125750000Y-104000000D01*
X127600840Y-107000000D02*
X125750000Y-107000000D01*
X127600840Y-105500000D02*
X125700000Y-105500000D01*
X144050000Y-73679940D02*
X144120060Y-73750000D01*
X144050000Y-72650000D02*
X144050000Y-73679940D01*
D84*
X135250000Y-56550000D02*
X135250000Y-55550000D01*
X135250000Y-55550000D02*
X136000001Y-54799999D01*
X138269990Y-54799999D02*
X138750019Y-54319970D01*
X136000001Y-54799999D02*
X138269990Y-54799999D01*
D85*
X151450000Y-30500000D02*
X151400000Y-30450000D01*
X152500000Y-30500000D02*
X151450000Y-30500000D01*
D84*
X134750000Y-55250000D02*
X134750000Y-56550000D01*
X137630011Y-54369989D02*
X135630011Y-54369989D01*
X139500002Y-53750000D02*
X139200003Y-53450001D01*
X139200003Y-53450001D02*
X138549999Y-53450001D01*
X138549999Y-53450001D02*
X137630011Y-54369989D01*
X135630011Y-54369989D02*
X134750000Y-55250000D01*
X135075000Y-71500000D02*
X135000000Y-71575000D01*
X136075000Y-71500000D02*
X135075000Y-71500000D01*
X135000000Y-71575000D02*
X135000000Y-72750000D01*
X135250000Y-73000000D02*
X136500000Y-73000000D01*
X135000000Y-72750000D02*
X135250000Y-73000000D01*
X138621681Y-50596220D02*
X141449310Y-50596220D01*
X141449310Y-50596220D02*
X141801545Y-50948455D01*
X134677884Y-49714989D02*
X137740450Y-49714989D01*
X137740450Y-49714989D02*
X138621681Y-50596220D01*
X133750000Y-56550000D02*
X133750000Y-54857126D01*
X133750000Y-54857126D02*
X133069990Y-54177117D01*
X133069990Y-54177117D02*
X133069990Y-51322883D01*
X133069990Y-51322883D02*
X134677884Y-49714989D01*
D88*
X132150000Y-41450000D02*
X132000000Y-41600000D01*
X132000000Y-41600000D02*
X131450000Y-41600000D01*
X132700000Y-41450000D02*
X132150000Y-41450000D01*
D84*
X136400000Y-33750000D02*
X137500000Y-33750000D01*
X112000000Y-95000000D02*
X112000000Y-96000000D01*
X111500000Y-96500000D02*
X111500000Y-97750000D01*
X112000000Y-96000000D02*
X111500000Y-96500000D01*
X112225000Y-99250000D02*
X112475000Y-99500000D01*
X111500000Y-99250000D02*
X112225000Y-99250000D01*
X112475000Y-99500000D02*
X113250000Y-99500000D01*
D89*
X107000000Y-79880000D02*
X110620000Y-79880000D01*
X110620000Y-79880000D02*
X111500000Y-79000000D01*
X111500000Y-79000000D02*
X114500000Y-79000000D01*
X102055000Y-79880000D02*
X107000000Y-79880000D01*
X101000000Y-78825000D02*
X102055000Y-79880000D01*
X101000000Y-78000000D02*
X101000000Y-78825000D01*
X103250000Y-77000000D02*
X102250000Y-78000000D01*
X103250000Y-72750000D02*
X103250000Y-77000000D01*
X102250000Y-71750000D02*
X103250000Y-72750000D01*
X102250000Y-78000000D02*
X101000000Y-78000000D01*
X99825000Y-71750000D02*
X102250000Y-71750000D01*
X99750000Y-71825000D02*
X99825000Y-71750000D01*
X99750000Y-71750000D02*
X99750000Y-71825000D01*
D83*
X114500000Y-81000000D02*
X114500000Y-79000000D01*
D89*
X82000000Y-76500000D02*
X84000000Y-74500000D01*
X84000000Y-74500000D02*
X88050000Y-74500000D01*
X82000000Y-79000000D02*
X82000000Y-76500000D01*
D88*
X131200000Y-87600000D02*
X131680000Y-87600000D01*
X131680000Y-87600000D02*
X131830000Y-87450000D01*
X131830000Y-87450000D02*
X132400000Y-87450000D01*
D84*
X94950000Y-54000000D02*
X94950000Y-55500000D01*
X94950000Y-54000000D02*
X98050000Y-54000000D01*
X98050000Y-54000000D02*
X98050000Y-55500000D01*
X97325000Y-56225000D02*
X97325000Y-57300000D01*
X98050000Y-55500000D02*
X97325000Y-56225000D01*
X98050000Y-65000000D02*
X98050000Y-63500000D01*
X94950000Y-65000000D02*
X94950000Y-63500000D01*
X96675000Y-63490142D02*
X96665142Y-63500000D01*
X96665142Y-63500000D02*
X94950000Y-63500000D01*
X96675000Y-61700000D02*
X96675000Y-63490142D01*
X98050000Y-63500000D02*
X96665142Y-63500000D01*
D85*
X108750000Y-63750000D02*
X108750000Y-64950000D01*
X108750000Y-64950000D02*
X109050000Y-65250000D01*
X108750000Y-63750000D02*
X108425000Y-63425000D01*
X108425000Y-63425000D02*
X108425000Y-61700000D01*
X110500000Y-55800000D02*
X110500000Y-57880613D01*
X110500000Y-57880613D02*
X108425000Y-59955613D01*
X108425000Y-59955613D02*
X108425000Y-61700000D01*
X109950000Y-55250000D02*
X110500000Y-55800000D01*
D88*
X127200000Y-74000000D02*
X127950661Y-74000000D01*
X127950661Y-74000000D02*
X128249375Y-74298714D01*
D83*
X114200000Y-73825000D02*
X114995998Y-73825000D01*
X114995998Y-73825000D02*
X115181114Y-73639884D01*
X115275000Y-74475000D02*
X114200000Y-74475000D01*
X115494999Y-73994999D02*
X115494999Y-74255001D01*
X115494999Y-74255001D02*
X115275000Y-74475000D01*
X115181114Y-73681114D02*
X115494999Y-73994999D01*
X115181114Y-73639884D02*
X115181114Y-73681114D01*
X118780003Y-73325736D02*
X118780003Y-73750000D01*
X118624266Y-73169999D02*
X118780003Y-73325736D01*
X117721599Y-73169999D02*
X118624266Y-73169999D01*
X117641598Y-73250000D02*
X117721599Y-73169999D01*
X115570998Y-73250000D02*
X117641598Y-73250000D01*
X115181114Y-73639884D02*
X115570998Y-73250000D01*
D85*
X133500000Y-72250000D02*
X133000000Y-71750000D01*
X133500000Y-73000000D02*
X133500000Y-72250000D01*
D90*
X157500000Y-22690000D02*
X158810000Y-22690000D01*
X159500000Y-22000000D02*
X159500000Y-20000000D01*
X158810000Y-22690000D02*
X159500000Y-22000000D01*
D88*
X130250000Y-37950000D02*
X130250000Y-39100000D01*
X130250000Y-39100000D02*
X130550000Y-39400000D01*
X130550000Y-40500000D02*
X130550000Y-39400000D01*
X130550000Y-41600000D02*
X130550000Y-40500000D01*
D84*
X131950000Y-36250000D02*
X133000000Y-36250000D01*
X133250000Y-36000000D02*
X133800000Y-36000000D01*
X133000000Y-36250000D02*
X133250000Y-36000000D01*
X136050000Y-35450000D02*
X136050000Y-36000000D01*
X135850000Y-35250000D02*
X136050000Y-35450000D01*
X134000000Y-35250000D02*
X135850000Y-35250000D01*
X133800000Y-35450000D02*
X134000000Y-35250000D01*
X133800000Y-36000000D02*
X133800000Y-35450000D01*
X136400000Y-35200000D02*
X136400000Y-34650000D01*
X136350000Y-35250000D02*
X136400000Y-35200000D01*
X135850000Y-35250000D02*
X136350000Y-35250000D01*
X122050000Y-27450000D02*
X121900000Y-27600000D01*
X121900000Y-27600000D02*
X121250000Y-27600000D01*
X122750000Y-27450000D02*
X122050000Y-27450000D01*
X122750000Y-27450000D02*
X122750000Y-28800000D01*
X123300000Y-28800000D02*
X122750000Y-28800000D01*
X123374991Y-28874991D02*
X123300000Y-28800000D01*
X124250009Y-28874991D02*
X123374991Y-28874991D01*
X124625000Y-28500000D02*
X124250009Y-28874991D01*
X124800000Y-28500000D02*
X124625000Y-28500000D01*
X122750000Y-25050000D02*
X122800000Y-25000000D01*
X122750000Y-26550000D02*
X122750000Y-25050000D01*
X124800000Y-27000000D02*
X124500000Y-27000000D01*
X124050000Y-26550000D02*
X122750000Y-26550000D01*
X124500000Y-27000000D02*
X124050000Y-26550000D01*
D89*
X98750000Y-74500000D02*
X100500000Y-74500000D01*
X101000000Y-75000000D02*
X101000000Y-76000000D01*
X100500000Y-74500000D02*
X101000000Y-75000000D01*
X129250000Y-71050000D02*
X129200000Y-71000000D01*
X129250000Y-72550000D02*
X129250000Y-71050000D01*
D83*
X128450000Y-72550000D02*
X129250000Y-72550000D01*
X128000000Y-73000000D02*
X128450000Y-72550000D01*
X127200000Y-73000000D02*
X128000000Y-73000000D01*
D84*
X121050000Y-95205000D02*
X119295000Y-95205000D01*
X119295000Y-95205000D02*
X119250000Y-95250000D01*
D89*
X121050000Y-95205000D02*
X120545000Y-95205000D01*
D84*
X122805000Y-99250000D02*
X124000000Y-99250000D01*
X122000000Y-96000000D02*
X122000000Y-95500000D01*
X121705000Y-95205000D02*
X121050000Y-95205000D01*
X122000000Y-95500000D02*
X121705000Y-95205000D01*
X119250000Y-91700000D02*
X119250000Y-94350000D01*
X119750000Y-91700000D02*
X119250000Y-91700000D01*
X121050000Y-91425000D02*
X120025000Y-91425000D01*
X120025000Y-91425000D02*
X119750000Y-91700000D01*
D88*
X130250000Y-79250000D02*
X130250000Y-80050000D01*
X129250000Y-78250000D02*
X130250000Y-79250000D01*
X129250000Y-78200000D02*
X129250000Y-78250000D01*
X130300000Y-87600000D02*
X130300000Y-86500000D01*
X130300000Y-85400000D02*
X130300000Y-86500000D01*
X130300000Y-84800000D02*
X130250000Y-84750000D01*
X130250000Y-84750000D02*
X130250000Y-83950000D01*
X130300000Y-85400000D02*
X130300000Y-84800000D01*
X130750000Y-83950000D02*
X130750000Y-84829999D01*
X130750000Y-84829999D02*
X131200000Y-85279999D01*
X131200000Y-85279999D02*
X131200000Y-85400000D01*
D84*
X131950000Y-82250000D02*
X133000000Y-82250000D01*
X133250000Y-82000000D02*
X133800000Y-82000000D01*
X133000000Y-82250000D02*
X133250000Y-82000000D01*
X136400000Y-81350000D02*
X136400000Y-80650000D01*
X133800000Y-81450000D02*
X133855001Y-81394999D01*
X136355001Y-81394999D02*
X136400000Y-81350000D01*
X133800000Y-82000000D02*
X133800000Y-81450000D01*
X136050000Y-81450000D02*
X136093985Y-81406015D01*
X136050000Y-82000000D02*
X136050000Y-81450000D01*
X136093985Y-81394999D02*
X136355001Y-81394999D01*
X136093985Y-81406015D02*
X136093985Y-81394999D01*
X133855001Y-81394999D02*
X136093985Y-81394999D01*
X134500000Y-82750000D02*
X131950000Y-82750000D01*
X134700000Y-82550000D02*
X134500000Y-82750000D01*
X134700000Y-82000000D02*
X134700000Y-82550000D01*
D83*
X124800000Y-73000000D02*
X124275000Y-73000000D01*
X124275000Y-73000000D02*
X123825000Y-72550000D01*
X123825000Y-72550000D02*
X122750000Y-72550000D01*
D89*
X122750000Y-71050000D02*
X122800000Y-71000000D01*
X122750000Y-72550000D02*
X122750000Y-71050000D01*
D85*
X96675000Y-57300000D02*
X96675000Y-58168598D01*
X96675000Y-58168598D02*
X96680001Y-58173599D01*
X96680001Y-58173599D02*
X96680001Y-59069999D01*
X96680001Y-59069999D02*
X95250000Y-60500000D01*
X95250000Y-60500000D02*
X94200000Y-60500000D01*
X96025000Y-61700000D02*
X96025000Y-62475000D01*
X96025000Y-62475000D02*
X95750000Y-62750000D01*
X95750000Y-62750000D02*
X94250000Y-62750000D01*
X94250000Y-62750000D02*
X94200000Y-62700000D01*
X94200000Y-62700000D02*
X94200000Y-62000000D01*
X107775000Y-61700000D02*
X107775000Y-63175000D01*
X107775000Y-63175000D02*
X107200000Y-63750000D01*
X107200000Y-65250000D02*
X107200000Y-63750000D01*
X148460000Y-92050000D02*
X148460000Y-95958434D01*
X148460000Y-95958434D02*
X148418434Y-96000000D01*
X148418434Y-96000000D02*
X149250000Y-96000000D01*
X147500000Y-96000000D02*
X148418434Y-96000000D01*
D84*
X131315000Y-47065000D02*
X131250000Y-47000000D01*
X131315000Y-48950000D02*
X131315000Y-47065000D01*
X128895402Y-46000000D02*
X128000000Y-45104598D01*
X130250000Y-46000000D02*
X128895402Y-46000000D01*
X129750000Y-41324002D02*
X129750000Y-37950000D01*
X129344001Y-41730001D02*
X129750000Y-41324002D01*
X129042180Y-41730001D02*
X129344001Y-41730001D01*
X128000000Y-42772181D02*
X129042180Y-41730001D01*
X128000000Y-45104598D02*
X128000000Y-42772181D01*
D83*
X128000000Y-37300000D02*
X128050000Y-37250000D01*
D84*
X128795000Y-44705000D02*
X128750000Y-44750000D01*
X128795000Y-43550000D02*
X128795000Y-44705000D01*
X127500000Y-37250000D02*
X128050000Y-37250000D01*
X126935336Y-37814664D02*
X127500000Y-37250000D01*
X126935336Y-38758877D02*
X126935336Y-37814664D01*
X126250000Y-41930746D02*
X126250000Y-39444213D01*
X126250000Y-39444213D02*
X126935336Y-38758877D01*
X127394990Y-43075736D02*
X126250000Y-41930746D01*
X127394990Y-43500000D02*
X127394990Y-43075736D01*
X132612473Y-81750000D02*
X132838795Y-81523678D01*
X131950000Y-81750000D02*
X132612473Y-81750000D01*
X123603428Y-86146572D02*
X124370637Y-85379363D01*
X123565000Y-87450000D02*
X123603428Y-87411572D01*
X123603428Y-87411572D02*
X123603428Y-86146572D01*
X124370637Y-85379363D02*
X125120635Y-85379363D01*
X125120635Y-85379363D02*
X126249998Y-84250000D01*
X122470000Y-84500000D02*
X121045000Y-83075000D01*
X125104598Y-84500000D02*
X122470000Y-84500000D01*
X127354598Y-82250000D02*
X125104598Y-84500000D01*
X121045000Y-83075000D02*
X121045000Y-82050000D01*
X128050000Y-82250000D02*
X127354598Y-82250000D01*
X131315000Y-93315000D02*
X131000000Y-93000000D01*
X131315000Y-94950000D02*
X131315000Y-93315000D01*
X128000000Y-90500000D02*
X129750000Y-92250000D01*
X128000000Y-88750000D02*
X128000000Y-90500000D01*
X128500000Y-88250000D02*
X128000000Y-88750000D01*
X128854606Y-88250000D02*
X128500000Y-88250000D01*
X129500000Y-87604606D02*
X128854606Y-88250000D01*
X129500000Y-85000000D02*
X129500000Y-87604606D01*
X129750000Y-84750000D02*
X129500000Y-85000000D01*
X129750000Y-83950000D02*
X129750000Y-84750000D01*
X128795000Y-90439388D02*
X129052806Y-90697194D01*
X128795000Y-89550000D02*
X128795000Y-90439388D01*
X127775000Y-83250000D02*
X127375000Y-83650000D01*
X126250000Y-87969980D02*
X127250000Y-88969980D01*
X128050000Y-83250000D02*
X127775000Y-83250000D01*
X126250000Y-85145400D02*
X126250000Y-87969980D01*
X127375000Y-83650000D02*
X127375000Y-84020400D01*
X127375000Y-84020400D02*
X126250000Y-85145400D01*
D85*
X108675000Y-73175000D02*
X108500000Y-73350000D01*
X109800000Y-73175000D02*
X108675000Y-73175000D01*
X108500000Y-73350000D02*
X108500000Y-73750000D01*
X108575000Y-73825000D02*
X109800000Y-73825000D01*
X108500000Y-73750000D02*
X108575000Y-73825000D01*
D83*
X113800000Y-56000000D02*
X114550000Y-55250000D01*
X113700000Y-56000000D02*
X113800000Y-56000000D01*
X114550000Y-55250000D02*
X115500000Y-55250000D01*
X119883590Y-53750000D02*
X120195000Y-53750000D01*
X118383590Y-55250000D02*
X119883590Y-53750000D01*
X117500000Y-55250000D02*
X118383590Y-55250000D01*
X116750000Y-55241417D02*
X116758583Y-55250000D01*
X116750000Y-53500000D02*
X116750000Y-55241417D01*
X116758583Y-55250000D02*
X117500000Y-55250000D01*
X115500000Y-55250000D02*
X116758583Y-55250000D01*
X114750000Y-53500000D02*
X116750000Y-53500000D01*
X114500000Y-53250000D02*
X114750000Y-53500000D01*
X110126229Y-47443771D02*
X114500000Y-47443771D01*
X108450000Y-49120000D02*
X110126229Y-47443771D01*
X107000000Y-49120000D02*
X108450000Y-49120000D01*
X114500000Y-47443771D02*
X114500000Y-53250000D01*
X114500000Y-43000000D02*
X114500000Y-47443771D01*
X114500000Y-43000000D02*
X114500000Y-39300000D01*
D89*
X107000000Y-33880000D02*
X102380000Y-33880000D01*
X101250000Y-32750000D02*
X101250000Y-31250000D01*
X102380000Y-33880000D02*
X101250000Y-32750000D01*
X107000000Y-33880000D02*
X111120000Y-33880000D01*
X112000000Y-33000000D02*
X114500000Y-33000000D01*
X111120000Y-33880000D02*
X112000000Y-33000000D01*
X102750000Y-31250000D02*
X101250000Y-31250000D01*
X103250000Y-30750000D02*
X102750000Y-31250000D01*
X103250000Y-28000000D02*
X103250000Y-30750000D01*
X102250000Y-27000000D02*
X103250000Y-28000000D01*
X100500000Y-27000000D02*
X102250000Y-27000000D01*
X100000000Y-26500000D02*
X100500000Y-27000000D01*
X100000000Y-25500000D02*
X100000000Y-26500000D01*
D83*
X114500000Y-33000000D02*
X114500000Y-35000000D01*
D89*
X90500000Y-32355000D02*
X90500000Y-32750000D01*
X90500000Y-32750000D02*
X89500000Y-33750000D01*
X90500000Y-30505000D02*
X90500000Y-32355000D01*
X89750000Y-29755000D02*
X90500000Y-30505000D01*
X89750000Y-27250000D02*
X89750000Y-29755000D01*
X88500000Y-26000000D02*
X89750000Y-27250000D01*
X86000000Y-26000000D02*
X88500000Y-26000000D01*
X87550000Y-43500000D02*
X84500000Y-43500000D01*
X84500000Y-43500000D02*
X82000000Y-41000000D01*
D85*
X112250000Y-26350000D02*
X112250000Y-24500000D01*
X113075000Y-27175000D02*
X112250000Y-26350000D01*
X114200000Y-27175000D02*
X113075000Y-27175000D01*
X110450000Y-24500000D02*
X112250000Y-24500000D01*
X112050000Y-23225000D02*
X112250000Y-23425000D01*
X112050000Y-22500000D02*
X112050000Y-23225000D01*
X112250000Y-23425000D02*
X112250000Y-24500000D01*
D89*
X95950000Y-71750000D02*
X98250000Y-71750000D01*
X93000000Y-74500000D02*
X93000000Y-71760000D01*
X93000000Y-71760000D02*
X93010000Y-71750000D01*
X93000000Y-71800000D02*
X93050000Y-71750000D01*
X91000000Y-74450000D02*
X90950000Y-74500000D01*
X93040000Y-78355000D02*
X93040000Y-74540000D01*
X93040000Y-74540000D02*
X93000000Y-74500000D01*
X90950000Y-74500000D02*
X93000000Y-74500000D01*
D84*
X113700000Y-101750000D02*
X114200000Y-101250000D01*
X116750000Y-101249918D02*
X116750082Y-101250000D01*
X116750000Y-99500000D02*
X116750000Y-101249918D01*
X116750082Y-101250000D02*
X117500000Y-101250000D01*
X115500000Y-101250000D02*
X116750082Y-101250000D01*
X114750000Y-101208337D02*
X114708337Y-101250000D01*
X114750000Y-99500000D02*
X114750000Y-101208337D01*
X114708337Y-101250000D02*
X115500000Y-101250000D01*
X114200000Y-101250000D02*
X114708337Y-101250000D01*
X118376519Y-101250000D02*
X117500000Y-101250000D01*
X119876519Y-99750000D02*
X118376519Y-101250000D01*
X120195000Y-99750000D02*
X119876519Y-99750000D01*
X114750000Y-99500000D02*
X114750000Y-95000000D01*
X114750000Y-95000000D02*
X113250000Y-93500000D01*
X113250000Y-93500000D02*
X111000000Y-93500000D01*
X109380000Y-95120000D02*
X107000000Y-95120000D01*
X111000000Y-93500000D02*
X109380000Y-95120000D01*
X113250000Y-93500000D02*
X113250000Y-92500000D01*
X114500000Y-91250000D02*
X114500000Y-89000000D01*
X113250000Y-92500000D02*
X114500000Y-91250000D01*
X114500000Y-89000000D02*
X114500000Y-85300000D01*
D89*
X90500000Y-78355000D02*
X90500000Y-78500000D01*
X90500000Y-78500000D02*
X89500000Y-79500000D01*
X89500000Y-73250000D02*
X89500000Y-75505000D01*
X89500000Y-75505000D02*
X90500000Y-76505000D01*
X90500000Y-76505000D02*
X90500000Y-78355000D01*
X88250000Y-72000000D02*
X89500000Y-73250000D01*
X86000000Y-72000000D02*
X88250000Y-72000000D01*
X90500000Y-85645000D02*
X90500000Y-85500000D01*
X90500000Y-85500000D02*
X91500000Y-84500000D01*
X90500000Y-85645000D02*
X90500000Y-89450000D01*
X90500000Y-89450000D02*
X90450000Y-89500000D01*
X90500000Y-85645000D02*
X90500000Y-84700000D01*
X87550000Y-89500000D02*
X84500000Y-89500000D01*
X84500000Y-89500000D02*
X82000000Y-87000000D01*
D84*
X136400000Y-79750000D02*
X137500000Y-79750000D01*
D85*
X112250000Y-70500000D02*
X112250000Y-72750000D01*
X112675000Y-73175000D02*
X114200000Y-73175000D01*
X112250000Y-72750000D02*
X112675000Y-73175000D01*
X112250000Y-70500000D02*
X112250000Y-69500000D01*
X112050000Y-69300000D02*
X112050000Y-68500000D01*
X112250000Y-69500000D02*
X112050000Y-69300000D01*
X112250000Y-70500000D02*
X110450000Y-70500000D01*
D91*
X159000000Y-104160000D02*
X158160000Y-105000000D01*
X155090000Y-97000000D02*
X158000000Y-97000000D01*
X153540000Y-95450000D02*
X155090000Y-97000000D01*
X153540000Y-92050000D02*
X153540000Y-95450000D01*
X158000000Y-97000000D02*
X159500000Y-97000000D01*
X159500000Y-97000000D02*
X160250000Y-97750000D01*
X160250000Y-102910000D02*
X159000000Y-104160000D01*
X160250000Y-97750000D02*
X160250000Y-102910000D01*
D84*
X138250000Y-59500000D02*
X138450000Y-59300000D01*
X138450000Y-59300000D02*
X139000000Y-59300000D01*
X137200000Y-59500000D02*
X138250000Y-59500000D01*
D85*
X139850000Y-59150000D02*
X139700000Y-59300000D01*
X139700000Y-59300000D02*
X139000000Y-59300000D01*
X141250000Y-59150000D02*
X139850000Y-59150000D01*
X142225000Y-59150000D02*
X141250000Y-59150000D01*
D84*
X143250000Y-45500000D02*
X143250000Y-50750000D01*
X143250000Y-50750000D02*
X143750000Y-51250000D01*
X142750000Y-45000000D02*
X143250000Y-45500000D01*
X140450000Y-45000000D02*
X142750000Y-45000000D01*
X141300000Y-59200000D02*
X141250000Y-59150000D01*
D85*
X143450000Y-59500000D02*
X142575000Y-59500000D01*
X142575000Y-59500000D02*
X142225000Y-59150000D01*
D84*
X141250000Y-59150000D02*
X141250000Y-58250000D01*
X142133058Y-57366942D02*
X142133058Y-56366942D01*
X141250000Y-58250000D02*
X142133058Y-57366942D01*
X143500000Y-55000000D02*
X144250000Y-55000000D01*
X142133058Y-56366942D02*
X143500000Y-55000000D01*
D88*
X131750000Y-56550000D02*
X131750000Y-57527222D01*
X131750000Y-57527222D02*
X131220222Y-58057000D01*
D84*
X103500000Y-106050000D02*
X103500000Y-105250000D01*
X103500000Y-103950000D02*
X103500000Y-105250000D01*
D88*
X131250000Y-56550000D02*
X131250000Y-57243983D01*
X131250000Y-57243983D02*
X130923973Y-57570010D01*
X130648656Y-57570010D02*
X130476189Y-57742477D01*
X130923973Y-57570010D02*
X130648656Y-57570010D01*
D84*
X102000000Y-105250000D02*
X102000000Y-106050000D01*
X102000000Y-103950000D02*
X102000000Y-105250000D01*
X133750000Y-59104598D02*
X133750000Y-58000000D01*
X132889610Y-59964988D02*
X133750000Y-59104598D01*
X130008469Y-59964988D02*
X132889610Y-59964988D01*
X129543482Y-59500000D02*
X130008469Y-59964988D01*
X128800000Y-59500000D02*
X129543482Y-59500000D01*
X132558663Y-59534978D02*
X133040956Y-59052685D01*
X133040956Y-59052685D02*
X133040956Y-58429980D01*
X129651606Y-59000000D02*
X130186584Y-59534978D01*
X128800000Y-59000000D02*
X129651606Y-59000000D01*
X130186584Y-59534978D02*
X132558663Y-59534978D01*
X129759731Y-58500000D02*
X130364699Y-59104968D01*
X132000064Y-59104968D02*
X132220089Y-58884943D01*
X130364699Y-59104968D02*
X132000064Y-59104968D01*
X128800000Y-58500000D02*
X129759731Y-58500000D01*
X131475247Y-58662001D02*
X130529856Y-58662001D01*
X129867855Y-58000000D02*
X128800000Y-58000000D01*
X132360243Y-58012026D02*
X132125222Y-58012026D01*
X132125222Y-58012026D02*
X131475247Y-58662001D01*
X130529856Y-58662001D02*
X129867855Y-58000000D01*
X140556114Y-58000000D02*
X141528057Y-57028057D01*
X137200000Y-58000000D02*
X140556114Y-58000000D01*
D85*
X138500000Y-43500000D02*
X139550000Y-43500000D01*
X138500000Y-43500000D02*
X137700000Y-43500000D01*
D84*
X135750000Y-56550000D02*
X135750000Y-55750000D01*
X135750000Y-55750000D02*
X136000000Y-55500000D01*
X136000000Y-55500000D02*
X139000000Y-55500000D01*
X139000000Y-55500000D02*
X140105003Y-54394997D01*
X140105003Y-54394997D02*
X140105003Y-53459599D01*
X140105003Y-53459599D02*
X137695403Y-51049999D01*
X137695403Y-51049999D02*
X137369969Y-51049999D01*
X137369969Y-51049999D02*
X137069970Y-50750000D01*
D85*
X138500000Y-45000000D02*
X139550000Y-45000000D01*
X138500000Y-45000000D02*
X137700000Y-45000000D01*
D84*
X127200000Y-28500000D02*
X127775000Y-28500000D01*
X127775000Y-28500000D02*
X128075000Y-28800000D01*
X129250000Y-27450000D02*
X129250000Y-28800000D01*
X128075000Y-28800000D02*
X129250000Y-28800000D01*
X129250000Y-27450000D02*
X129800000Y-27450000D01*
X129800000Y-27450000D02*
X130150000Y-27800000D01*
X130150000Y-27800000D02*
X130750000Y-27800000D01*
X129950000Y-73450000D02*
X130100000Y-73600000D01*
X130100000Y-73600000D02*
X130750000Y-73600000D01*
X129250000Y-73450000D02*
X129950000Y-73450000D01*
D88*
X127200000Y-74500000D02*
X127607059Y-74500000D01*
X128522976Y-74868715D02*
X128641691Y-74750000D01*
X127607059Y-74500000D02*
X127975774Y-74868715D01*
X127975774Y-74868715D02*
X128522976Y-74868715D01*
X128641691Y-74750000D02*
X129200000Y-74750000D01*
X129200000Y-74750000D02*
X129250000Y-74800000D01*
D89*
X129250000Y-73450000D02*
X129250000Y-74800000D01*
D84*
X122750000Y-73450000D02*
X122200000Y-73450000D01*
X122200000Y-73450000D02*
X122100000Y-73550000D01*
X122100000Y-73550000D02*
X121250000Y-73550000D01*
D88*
X124800000Y-74500000D02*
X124500000Y-74500000D01*
X124500000Y-74500000D02*
X124041936Y-74958064D01*
X124041936Y-74958064D02*
X123388064Y-74958064D01*
X123388064Y-74958064D02*
X123230000Y-74800000D01*
X123230000Y-74800000D02*
X122750000Y-74800000D01*
D89*
X122750000Y-73450000D02*
X122750000Y-74800000D01*
D84*
X129425000Y-48950000D02*
X129425000Y-47825000D01*
X132575000Y-44675000D02*
X132575000Y-43550000D01*
X129246366Y-46500000D02*
X127750000Y-46500000D01*
X129998183Y-47251817D02*
X129246366Y-46500000D01*
X129425000Y-47825000D02*
X129998183Y-47251817D01*
X129998183Y-47251817D02*
X132575000Y-44675000D01*
X125029950Y-47315000D02*
X125222955Y-47508005D01*
X121050000Y-47315000D02*
X125029950Y-47315000D01*
D89*
X129425000Y-93575000D02*
X129425000Y-94950000D01*
X129775562Y-93224438D02*
X129425000Y-93575000D01*
X130750000Y-92250000D02*
X132000000Y-92250000D01*
X132575000Y-91675000D02*
X132575000Y-89550000D01*
X132000000Y-92250000D02*
X132575000Y-91675000D01*
D84*
X124798386Y-93315000D02*
X125225852Y-93742466D01*
X121050000Y-93315000D02*
X124798386Y-93315000D01*
X129351123Y-92799999D02*
X129775562Y-93224438D01*
X128049999Y-92799999D02*
X129351123Y-92799999D01*
X127750000Y-92500000D02*
X128049999Y-92799999D01*
D89*
X129775562Y-93224438D02*
X130750000Y-92250000D01*
D84*
X123000000Y-38750000D02*
X124750000Y-38750000D01*
X121675000Y-40075000D02*
X123000000Y-38750000D01*
X121675000Y-41450000D02*
X121675000Y-40075000D01*
X130685000Y-44565000D02*
X130250000Y-45000000D01*
X130685000Y-43550000D02*
X130685000Y-44565000D01*
X121675000Y-42475000D02*
X121675000Y-41450000D01*
X122400001Y-43200001D02*
X121675000Y-42475000D01*
X125200001Y-43200001D02*
X122400001Y-43200001D01*
X125500000Y-43500000D02*
X125200001Y-43200001D01*
X124825000Y-37175004D02*
X124750000Y-37250004D01*
X124825000Y-36050000D02*
X124825000Y-37175004D01*
X124825000Y-83069990D02*
X124750000Y-83144990D01*
X124825000Y-82050000D02*
X124825000Y-83069990D01*
X123750000Y-85105010D02*
X122394990Y-85105010D01*
X121675000Y-85825000D02*
X121675000Y-87450000D01*
X122394990Y-85105010D02*
X121675000Y-85825000D01*
X121644999Y-88790401D02*
X122124577Y-89269979D01*
X125950001Y-89269979D02*
X126250000Y-88969980D01*
X122124577Y-89269979D02*
X125950001Y-89269979D01*
X121675000Y-87450000D02*
X121644999Y-87480001D01*
X121644999Y-87480001D02*
X121644999Y-88790401D01*
X130633058Y-91116942D02*
X130250000Y-91500000D01*
X130685000Y-89550000D02*
X130633058Y-89601942D01*
X130633058Y-89601942D02*
X130633058Y-91116942D01*
X125969990Y-34969990D02*
X126250000Y-35250000D01*
X122990010Y-34969990D02*
X125969990Y-34969990D01*
X122935000Y-35025000D02*
X122990010Y-34969990D01*
X122935000Y-36050000D02*
X122935000Y-35025000D01*
X129519978Y-33144978D02*
X129250000Y-33144978D01*
X129750000Y-34050000D02*
X129750000Y-33375000D01*
X129750000Y-33375000D02*
X129519978Y-33144978D01*
X122935000Y-82050000D02*
X122935000Y-83435000D01*
X122935000Y-83435000D02*
X123250000Y-83750000D01*
X125960010Y-82289990D02*
X126750000Y-81500000D01*
X125960010Y-82834181D02*
X125960010Y-82289990D01*
X125044191Y-83750000D02*
X125960010Y-82834181D01*
X123250000Y-83750000D02*
X125044191Y-83750000D01*
X129750000Y-79375000D02*
X129519976Y-79144976D01*
X129519976Y-79144976D02*
X129250000Y-79144976D01*
X129750000Y-80050000D02*
X129750000Y-79375000D01*
D87*
X107500640Y-114599440D02*
X107500640Y-111500640D01*
X107500640Y-111500640D02*
X107000000Y-111000000D01*
X107000000Y-111000000D02*
X107000000Y-110000000D01*
X107000000Y-110000000D02*
X107500640Y-109499360D01*
X107500640Y-109499360D02*
X107500640Y-108500640D01*
X107500640Y-108500640D02*
X107500000Y-108500000D01*
D85*
X141000000Y-53000000D02*
X140000000Y-52000000D01*
X141000000Y-55000000D02*
X141000000Y-53000000D01*
X140250000Y-55750000D02*
X141000000Y-55000000D01*
D11*
X132948561Y-60448448D02*
X133301552Y-60448448D01*
X132897009Y-60500000D02*
X132948561Y-60448448D01*
X128800000Y-60500000D02*
X132897009Y-60500000D01*
D93*
G36*
X159373000Y-93373000D02*
X155337440Y-93373000D01*
X155337440Y-90150000D01*
X155290463Y-89907877D01*
X155150673Y-89695073D01*
X154939640Y-89552623D01*
X154690000Y-89502560D01*
X152390000Y-89502560D01*
X152147877Y-89549537D01*
X151935073Y-89689327D01*
X151792623Y-89900360D01*
X151742560Y-90150000D01*
X151742560Y-93373000D01*
X150257440Y-93373000D01*
X150257440Y-90150000D01*
X150210463Y-89907877D01*
X150070673Y-89695073D01*
X149859640Y-89552623D01*
X149610000Y-89502560D01*
X147310000Y-89502560D01*
X147067877Y-89549537D01*
X146855073Y-89689327D01*
X146712623Y-89900360D01*
X146662560Y-90150000D01*
X146662560Y-93373000D01*
X142627000Y-93373000D01*
X142627000Y-75627000D01*
X143977200Y-75627000D01*
X143999537Y-75742123D01*
X144139327Y-75954927D01*
X144350360Y-76097377D01*
X144600000Y-76147440D01*
X145400000Y-76147440D01*
X145642123Y-76100463D01*
X145854927Y-75960673D01*
X145997377Y-75749640D01*
X146021971Y-75627000D01*
X159373000Y-75627000D01*
X159373000Y-93373000D01*
X159373000Y-93373000D01*
G37*
X159373000Y-93373000D02*
X155337440Y-93373000D01*
X155337440Y-90150000D01*
X155290463Y-89907877D01*
X155150673Y-89695073D01*
X154939640Y-89552623D01*
X154690000Y-89502560D01*
X152390000Y-89502560D01*
X152147877Y-89549537D01*
X151935073Y-89689327D01*
X151792623Y-89900360D01*
X151742560Y-90150000D01*
X151742560Y-93373000D01*
X150257440Y-93373000D01*
X150257440Y-90150000D01*
X150210463Y-89907877D01*
X150070673Y-89695073D01*
X149859640Y-89552623D01*
X149610000Y-89502560D01*
X147310000Y-89502560D01*
X147067877Y-89549537D01*
X146855073Y-89689327D01*
X146712623Y-89900360D01*
X146662560Y-90150000D01*
X146662560Y-93373000D01*
X142627000Y-93373000D01*
X142627000Y-75627000D01*
X143977200Y-75627000D01*
X143999537Y-75742123D01*
X144139327Y-75954927D01*
X144350360Y-76097377D01*
X144600000Y-76147440D01*
X145400000Y-76147440D01*
X145642123Y-76100463D01*
X145854927Y-75960673D01*
X145997377Y-75749640D01*
X146021971Y-75627000D01*
X159373000Y-75627000D01*
X159373000Y-93373000D01*
G36*
X82373000Y-100873000D02*
X67377000Y-100873000D01*
X67377000Y-93877000D01*
X75697395Y-93877000D01*
X76697395Y-94877000D01*
X82373000Y-94877000D01*
X82373000Y-100873000D01*
X82373000Y-100873000D01*
G37*
X82373000Y-100873000D02*
X67377000Y-100873000D01*
X67377000Y-93877000D01*
X75697395Y-93877000D01*
X76697395Y-94877000D01*
X82373000Y-94877000D01*
X82373000Y-100873000D01*
G36*
X81873000Y-52508425D02*
X81751658Y-52690026D01*
X81690000Y-53000000D01*
X81690000Y-54873000D01*
X67877000Y-54873000D01*
X67877000Y-47877000D01*
X68500000Y-47877000D01*
X75692371Y-47877000D01*
X77442371Y-49877000D01*
X81873000Y-49877000D01*
X81873000Y-52508425D01*
X81873000Y-52508425D01*
G37*
X81873000Y-52508425D02*
X81751658Y-52690026D01*
X81690000Y-53000000D01*
X81690000Y-54873000D01*
X67877000Y-54873000D01*
X67877000Y-47877000D01*
X68500000Y-47877000D01*
X75692371Y-47877000D01*
X77442371Y-49877000D01*
X81873000Y-49877000D01*
X81873000Y-52508425D01*
D83*
G36*
X124500000Y-102600000D02*
X123758346Y-102600000D01*
X122500000Y-100373695D01*
X122500000Y-100353643D01*
X122507225Y-100342940D01*
X122530877Y-100225000D01*
X122530877Y-100200000D01*
X122617756Y-100200000D01*
X122992244Y-100200000D01*
X124500000Y-100200000D01*
X124500000Y-102600000D01*
X124500000Y-102600000D01*
G37*
X124500000Y-102600000D02*
X123758346Y-102600000D01*
X122500000Y-100373695D01*
X122500000Y-100353643D01*
X122507225Y-100342940D01*
X122530877Y-100225000D01*
X122530877Y-100200000D01*
X122617756Y-100200000D01*
X122992244Y-100200000D01*
X124500000Y-100200000D01*
X124500000Y-102600000D01*
G36*
X124500000Y-98800000D02*
X124398574Y-98800000D01*
X124340317Y-98741641D01*
X124119871Y-98650104D01*
X123881176Y-98649896D01*
X123660571Y-98741048D01*
X123601515Y-98800000D01*
X122992244Y-98800000D01*
X122617756Y-98800000D01*
X122530877Y-98800000D01*
X122530877Y-98775000D01*
X122508683Y-98660611D01*
X122500000Y-98647392D01*
X122500000Y-98629120D01*
X123854895Y-96500000D01*
X124500000Y-96500000D01*
X124500000Y-98800000D01*
X124500000Y-98800000D01*
G37*
X124500000Y-98800000D02*
X124398574Y-98800000D01*
X124340317Y-98741641D01*
X124119871Y-98650104D01*
X123881176Y-98649896D01*
X123660571Y-98741048D01*
X123601515Y-98800000D01*
X122992244Y-98800000D01*
X122617756Y-98800000D01*
X122530877Y-98800000D01*
X122530877Y-98775000D01*
X122508683Y-98660611D01*
X122500000Y-98647392D01*
X122500000Y-98629120D01*
X123854895Y-96500000D01*
X124500000Y-96500000D01*
X124500000Y-98800000D01*
G36*
X129000000Y-86200000D02*
X127000000Y-86200000D01*
X127000000Y-85649417D01*
X128700000Y-84349417D01*
X128700000Y-83600000D01*
X128794123Y-83600000D01*
X128794123Y-84375000D01*
X128800000Y-84405290D01*
X128800000Y-85119258D01*
X129000000Y-85619258D01*
X129000000Y-86200000D01*
X129000000Y-86200000D01*
G37*
X129000000Y-86200000D02*
X127000000Y-86200000D01*
X127000000Y-85649417D01*
X128700000Y-84349417D01*
X128700000Y-83600000D01*
X128794123Y-83600000D01*
X128794123Y-84375000D01*
X128800000Y-84405290D01*
X128800000Y-85119258D01*
X129000000Y-85619258D01*
X129000000Y-86200000D01*
G36*
X128794123Y-80300000D02*
X128641421Y-80300000D01*
X128541421Y-80200000D01*
X126100000Y-80200000D01*
X126100000Y-78300000D01*
X127262426Y-78300000D01*
X128794123Y-79640234D01*
X128794123Y-80300000D01*
X128794123Y-80300000D01*
G37*
X128794123Y-80300000D02*
X128641421Y-80300000D01*
X128541421Y-80200000D01*
X126100000Y-80200000D01*
X126100000Y-78300000D01*
X127262426Y-78300000D01*
X128794123Y-79640234D01*
X128794123Y-80300000D01*
G36*
X133900000Y-80700000D02*
X133294461Y-80700000D01*
X132400795Y-80799296D01*
X132375000Y-80794123D01*
X131700000Y-80794123D01*
X131700000Y-80700000D01*
X132463283Y-80700000D01*
X133244861Y-79050000D01*
X133550000Y-79050000D01*
X133550000Y-78800000D01*
X133900000Y-78800000D01*
X133900000Y-80700000D01*
X133900000Y-80700000D01*
G37*
X133900000Y-80700000D02*
X133294461Y-80700000D01*
X132400795Y-80799296D01*
X132375000Y-80794123D01*
X131700000Y-80794123D01*
X131700000Y-80700000D01*
X132463283Y-80700000D01*
X133244861Y-79050000D01*
X133550000Y-79050000D01*
X133550000Y-78800000D01*
X133900000Y-78800000D01*
X133900000Y-80700000D01*
G36*
X131300000Y-80300000D02*
X131205877Y-80300000D01*
X131205877Y-79625000D01*
X131200000Y-79594709D01*
X131200000Y-79576393D01*
X131194192Y-79564778D01*
X131183683Y-79510611D01*
X131140000Y-79444111D01*
X131140000Y-79240870D01*
X131110313Y-79091624D01*
X131110313Y-79091623D01*
X131025772Y-78965098D01*
X130762933Y-78702259D01*
X130700000Y-78576393D01*
X130700000Y-76500000D01*
X131200000Y-76500000D01*
X131200000Y-78604988D01*
X131300000Y-79604988D01*
X131300000Y-80300000D01*
X131300000Y-80300000D01*
G37*
X131300000Y-80300000D02*
X131205877Y-80300000D01*
X131205877Y-79625000D01*
X131200000Y-79594709D01*
X131200000Y-79576393D01*
X131194192Y-79564778D01*
X131183683Y-79510611D01*
X131140000Y-79444111D01*
X131140000Y-79240870D01*
X131110313Y-79091624D01*
X131110313Y-79091623D01*
X131025772Y-78965098D01*
X130762933Y-78702259D01*
X130700000Y-78576393D01*
X130700000Y-76500000D01*
X131200000Y-76500000D01*
X131200000Y-78604988D01*
X131300000Y-79604988D01*
X131300000Y-80300000D01*
G36*
X124500000Y-56500000D02*
X123857063Y-56500000D01*
X122600000Y-54372663D01*
X122600000Y-54200000D01*
X122617756Y-54200000D01*
X122992244Y-54200000D01*
X124500000Y-54200000D01*
X124500000Y-56500000D01*
X124500000Y-56500000D01*
G37*
X124500000Y-56500000D02*
X123857063Y-56500000D01*
X122600000Y-54372663D01*
X122600000Y-54200000D01*
X122617756Y-54200000D01*
X122992244Y-54200000D01*
X124500000Y-54200000D01*
X124500000Y-56500000D01*
G36*
X124500000Y-52800000D02*
X124148574Y-52800000D01*
X124090317Y-52741641D01*
X123869871Y-52650104D01*
X123631176Y-52649896D01*
X123410571Y-52741048D01*
X123351515Y-52800000D01*
X122992244Y-52800000D01*
X122617756Y-52800000D01*
X122600000Y-52800000D01*
X122600000Y-52627337D01*
X123857063Y-50500000D01*
X124500000Y-50500000D01*
X124500000Y-52800000D01*
X124500000Y-52800000D01*
G37*
X124500000Y-52800000D02*
X124148574Y-52800000D01*
X124090317Y-52741641D01*
X123869871Y-52650104D01*
X123631176Y-52649896D01*
X123410571Y-52741048D01*
X123351515Y-52800000D01*
X122992244Y-52800000D01*
X122617756Y-52800000D01*
X122600000Y-52800000D01*
X122600000Y-52627337D01*
X123857063Y-50500000D01*
X124500000Y-50500000D01*
X124500000Y-52800000D01*
G36*
X129000000Y-40200000D02*
X127000000Y-40200000D01*
X127000000Y-39651816D01*
X128700000Y-38451816D01*
X128700000Y-37700000D01*
X128794123Y-37700000D01*
X128794123Y-38375000D01*
X128800000Y-38405290D01*
X128800000Y-38408276D01*
X129000000Y-39608276D01*
X129000000Y-40200000D01*
X129000000Y-40200000D01*
G37*
X129000000Y-40200000D02*
X127000000Y-40200000D01*
X127000000Y-39651816D01*
X128700000Y-38451816D01*
X128700000Y-37700000D01*
X128794123Y-37700000D01*
X128794123Y-38375000D01*
X128800000Y-38405290D01*
X128800000Y-38408276D01*
X129000000Y-39608276D01*
X129000000Y-40200000D01*
G36*
X133900000Y-34800000D02*
X132404305Y-34800000D01*
X132375000Y-34794123D01*
X131700000Y-34794123D01*
X131700000Y-34700000D01*
X132463283Y-34700000D01*
X133244861Y-33050000D01*
X133550000Y-33050000D01*
X133550000Y-32800000D01*
X133900000Y-32800000D01*
X133900000Y-34800000D01*
X133900000Y-34800000D01*
G37*
X133900000Y-34800000D02*
X132404305Y-34800000D01*
X132375000Y-34794123D01*
X131700000Y-34794123D01*
X131700000Y-34700000D01*
X132463283Y-34700000D01*
X133244861Y-33050000D01*
X133550000Y-33050000D01*
X133550000Y-32800000D01*
X133900000Y-32800000D01*
X133900000Y-34800000D01*
G36*
X131300000Y-34300000D02*
X131205877Y-34300000D01*
X131205877Y-33625000D01*
X131200000Y-33594709D01*
X131200000Y-33576393D01*
X131194192Y-33564778D01*
X131183683Y-33510611D01*
X131140000Y-33444111D01*
X131140000Y-33240869D01*
X131110313Y-33091623D01*
X131110313Y-33091622D01*
X131025772Y-32965097D01*
X130762932Y-32702257D01*
X130700000Y-32576393D01*
X130700000Y-30500000D01*
X131200000Y-30500000D01*
X131200000Y-32604988D01*
X131300000Y-33604988D01*
X131300000Y-34300000D01*
X131300000Y-34300000D01*
G37*
X131300000Y-34300000D02*
X131205877Y-34300000D01*
X131205877Y-33625000D01*
X131200000Y-33594709D01*
X131200000Y-33576393D01*
X131194192Y-33564778D01*
X131183683Y-33510611D01*
X131140000Y-33444111D01*
X131140000Y-33240869D01*
X131110313Y-33091623D01*
X131110313Y-33091622D01*
X131025772Y-32965097D01*
X130762932Y-32702257D01*
X130700000Y-32576393D01*
X130700000Y-30500000D01*
X131200000Y-30500000D01*
X131200000Y-32604988D01*
X131300000Y-33604988D01*
X131300000Y-34300000D01*
G36*
X128794123Y-34300000D02*
X128602630Y-34300000D01*
X126702630Y-34200000D01*
X126000000Y-34200000D01*
X126000000Y-32300000D01*
X126667137Y-32300000D01*
X128567137Y-33700000D01*
X128794123Y-33700000D01*
X128794123Y-34300000D01*
X128794123Y-34300000D01*
G37*
X128794123Y-34300000D02*
X128602630Y-34300000D01*
X126702630Y-34200000D01*
X126000000Y-34200000D01*
X126000000Y-32300000D01*
X126667137Y-32300000D01*
X128567137Y-33700000D01*
X128794123Y-33700000D01*
X128794123Y-34300000D01*
G36*
X128900000Y-87603566D02*
X128678566Y-87825000D01*
X128500000Y-87825000D01*
X128337359Y-87857351D01*
X128199480Y-87949479D01*
X127998959Y-88150000D01*
X127031060Y-88150000D01*
X126850000Y-87968939D01*
X126850000Y-86850000D01*
X128900000Y-86850000D01*
X128900000Y-87603566D01*
X128900000Y-87603566D01*
G37*
X128900000Y-87603566D02*
X128678566Y-87825000D01*
X128500000Y-87825000D01*
X128337359Y-87857351D01*
X128199480Y-87949479D01*
X127998959Y-88150000D01*
X127031060Y-88150000D01*
X126850000Y-87968939D01*
X126850000Y-86850000D01*
X128900000Y-86850000D01*
X128900000Y-87603566D01*
G36*
X125400000Y-80400000D02*
X125065231Y-80400000D01*
X125019712Y-80354481D01*
X124881833Y-80262352D01*
X124854849Y-80256984D01*
X124719192Y-80230001D01*
X124397991Y-80230001D01*
X124100000Y-79932009D01*
X124100000Y-78100000D01*
X125400000Y-78100000D01*
X125400000Y-80400000D01*
X125400000Y-80400000D01*
G37*
X125400000Y-80400000D02*
X125065231Y-80400000D01*
X125019712Y-80354481D01*
X124881833Y-80262352D01*
X124854849Y-80256984D01*
X124719192Y-80230001D01*
X124397991Y-80230001D01*
X124100000Y-79932009D01*
X124100000Y-78100000D01*
X125400000Y-78100000D01*
X125400000Y-80400000D01*
G36*
X133150000Y-78406131D02*
X133110074Y-78432359D01*
X133042775Y-78532060D01*
X133019123Y-78650000D01*
X132000000Y-78650000D01*
X131850000Y-78650000D01*
X131850000Y-76350000D01*
X133150000Y-76350000D01*
X133150000Y-78406131D01*
X133150000Y-78406131D01*
G37*
X133150000Y-78406131D02*
X133110074Y-78432359D01*
X133042775Y-78532060D01*
X133019123Y-78650000D01*
X132000000Y-78650000D01*
X131850000Y-78650000D01*
X131850000Y-76350000D01*
X133150000Y-76350000D01*
X133150000Y-78406131D01*
G36*
X135900000Y-79222554D02*
X135885074Y-79232359D01*
X135817775Y-79332060D01*
X135794123Y-79450000D01*
X135794123Y-80050000D01*
X135816317Y-80164389D01*
X135839564Y-80199779D01*
X135817775Y-80232060D01*
X135794123Y-80350000D01*
X135794123Y-80900000D01*
X134600000Y-80900000D01*
X134600000Y-78600000D01*
X135900000Y-78600000D01*
X135900000Y-79222554D01*
X135900000Y-79222554D01*
G37*
X135900000Y-79222554D02*
X135885074Y-79232359D01*
X135817775Y-79332060D01*
X135794123Y-79450000D01*
X135794123Y-80050000D01*
X135816317Y-80164389D01*
X135839564Y-80199779D01*
X135817775Y-80232060D01*
X135794123Y-80350000D01*
X135794123Y-80900000D01*
X134600000Y-80900000D01*
X134600000Y-78600000D01*
X135900000Y-78600000D01*
X135900000Y-79222554D01*
G36*
X128900000Y-41333282D02*
X128879539Y-41337352D01*
X128741660Y-41429481D01*
X128021141Y-42150000D01*
X127070294Y-42150000D01*
X126850000Y-41929705D01*
X126850000Y-40850000D01*
X128900000Y-40850000D01*
X128900000Y-41333282D01*
X128900000Y-41333282D01*
G37*
X128900000Y-41333282D02*
X128879539Y-41337352D01*
X128741660Y-41429481D01*
X128021141Y-42150000D01*
X127070294Y-42150000D01*
X126850000Y-41929705D01*
X126850000Y-40850000D01*
X128900000Y-40850000D01*
X128900000Y-41333282D01*
G36*
X133150000Y-32406131D02*
X133110074Y-32432359D01*
X133042775Y-32532060D01*
X133019123Y-32650000D01*
X131850000Y-32650000D01*
X131850000Y-30350000D01*
X133150000Y-30350000D01*
X133150000Y-32406131D01*
X133150000Y-32406131D01*
G37*
X133150000Y-32406131D02*
X133110074Y-32432359D01*
X133042775Y-32532060D01*
X133019123Y-32650000D01*
X131850000Y-32650000D01*
X131850000Y-30350000D01*
X133150000Y-30350000D01*
X133150000Y-32406131D01*
G36*
X125400000Y-34400000D02*
X123850000Y-34400000D01*
X123850000Y-32100000D01*
X125400000Y-32100000D01*
X125400000Y-34400000D01*
X125400000Y-34400000D01*
G37*
X125400000Y-34400000D02*
X123850000Y-34400000D01*
X123850000Y-32100000D01*
X125400000Y-32100000D01*
X125400000Y-34400000D01*
D84*
G36*
X73375000Y-71097182D02*
X73347182Y-71125000D01*
X71961737Y-71125000D01*
X71961737Y-70083040D01*
X71868245Y-69970000D01*
X70825000Y-69970000D01*
X70825000Y-70670000D01*
X71275000Y-70670000D01*
X71550542Y-70605246D01*
X71780330Y-70439975D01*
X71929380Y-70199349D01*
X71961737Y-70083040D01*
X71961737Y-71125000D01*
X70775000Y-71125000D01*
X70775000Y-70670000D01*
X70775000Y-69970000D01*
X69731755Y-69970000D01*
X69638263Y-70083040D01*
X69670620Y-70199349D01*
X69819670Y-70439975D01*
X70049458Y-70605246D01*
X70325000Y-70670000D01*
X70775000Y-70670000D01*
X70775000Y-71125000D01*
X68625000Y-71125000D01*
X68625000Y-70051777D01*
X69301777Y-69375000D01*
X69923982Y-69375000D01*
X69819670Y-69450025D01*
X69670620Y-69690651D01*
X69638263Y-69806960D01*
X69731755Y-69920000D01*
X70775000Y-69920000D01*
X70775000Y-69900000D01*
X70825000Y-69900000D01*
X70825000Y-69920000D01*
X71868245Y-69920000D01*
X71961737Y-69806960D01*
X71929380Y-69690651D01*
X71780330Y-69450025D01*
X71676017Y-69375000D01*
X72698223Y-69375000D01*
X73375000Y-70051777D01*
X73375000Y-71097182D01*
X73375000Y-71097182D01*
G37*
X73375000Y-71097182D02*
X73347182Y-71125000D01*
X71961737Y-71125000D01*
X71961737Y-70083040D01*
X71868245Y-69970000D01*
X70825000Y-69970000D01*
X70825000Y-70670000D01*
X71275000Y-70670000D01*
X71550542Y-70605246D01*
X71780330Y-70439975D01*
X71929380Y-70199349D01*
X71961737Y-70083040D01*
X71961737Y-71125000D01*
X70775000Y-71125000D01*
X70775000Y-70670000D01*
X70775000Y-69970000D01*
X69731755Y-69970000D01*
X69638263Y-70083040D01*
X69670620Y-70199349D01*
X69819670Y-70439975D01*
X70049458Y-70605246D01*
X70325000Y-70670000D01*
X70775000Y-70670000D01*
X70775000Y-71125000D01*
X68625000Y-71125000D01*
X68625000Y-70051777D01*
X69301777Y-69375000D01*
X69923982Y-69375000D01*
X69819670Y-69450025D01*
X69670620Y-69690651D01*
X69638263Y-69806960D01*
X69731755Y-69920000D01*
X70775000Y-69920000D01*
X70775000Y-69900000D01*
X70825000Y-69900000D01*
X70825000Y-69920000D01*
X71868245Y-69920000D01*
X71961737Y-69806960D01*
X71929380Y-69690651D01*
X71780330Y-69450025D01*
X71676017Y-69375000D01*
X72698223Y-69375000D01*
X73375000Y-70051777D01*
X73375000Y-71097182D01*
G36*
X126275000Y-98475000D02*
X125125000Y-98475000D01*
X125125000Y-96525000D01*
X126275000Y-96525000D01*
X126275000Y-98475000D01*
X126275000Y-98475000D01*
G37*
X126275000Y-98475000D02*
X125125000Y-98475000D01*
X125125000Y-96525000D01*
X126275000Y-96525000D01*
X126275000Y-98475000D01*
G36*
X126275000Y-102475000D02*
X125125000Y-102475000D01*
X125125000Y-100525000D01*
X126275000Y-100525000D01*
X126275000Y-102475000D01*
X126275000Y-102475000D01*
G37*
X126275000Y-102475000D02*
X125125000Y-102475000D01*
X125125000Y-100525000D01*
X126275000Y-100525000D01*
X126275000Y-102475000D01*
G36*
X130075000Y-99875000D02*
X126925000Y-99875000D01*
X126925000Y-97525000D01*
X130075000Y-97525000D01*
X130075000Y-99875000D01*
X130075000Y-99875000D01*
G37*
X130075000Y-99875000D02*
X126925000Y-99875000D01*
X126925000Y-97525000D01*
X130075000Y-97525000D01*
X130075000Y-99875000D01*
G36*
X136275000Y-99875000D02*
X133125000Y-99875000D01*
X133125000Y-97525000D01*
X133200000Y-97525000D01*
X136275000Y-97525000D01*
X136275000Y-99875000D01*
X136275000Y-99875000D01*
G37*
X136275000Y-99875000D02*
X133125000Y-99875000D01*
X133125000Y-97525000D01*
X133200000Y-97525000D01*
X136275000Y-97525000D01*
X136275000Y-99875000D01*
G36*
X139675000Y-95275000D02*
X137325000Y-95275000D01*
X137325000Y-92125000D01*
X139675000Y-92125000D01*
X139675000Y-95275000D01*
X139675000Y-95275000D01*
G37*
X139675000Y-95275000D02*
X137325000Y-95275000D01*
X137325000Y-92125000D01*
X139675000Y-92125000D01*
X139675000Y-95275000D01*
G36*
X139675000Y-89875000D02*
X137325000Y-89875000D01*
X137325000Y-86800000D01*
X137325000Y-86725000D01*
X139675000Y-86725000D01*
X139675000Y-89875000D01*
X139675000Y-89875000D01*
G37*
X139675000Y-89875000D02*
X137325000Y-89875000D01*
X137325000Y-86800000D01*
X137325000Y-86725000D01*
X139675000Y-86725000D01*
X139675000Y-89875000D01*
G36*
X127075000Y-56242653D02*
X126950000Y-56242653D01*
X126807014Y-56270396D01*
X126681342Y-56352949D01*
X126598957Y-56475000D01*
X125125000Y-56475000D01*
X125125000Y-54525000D01*
X127075000Y-54525000D01*
X127075000Y-56242653D01*
X127075000Y-56242653D01*
G37*
X127075000Y-56242653D02*
X126950000Y-56242653D01*
X126807014Y-56270396D01*
X126681342Y-56352949D01*
X126598957Y-56475000D01*
X125125000Y-56475000D01*
X125125000Y-54525000D01*
X127075000Y-54525000D01*
X127075000Y-56242653D01*
G36*
X126275000Y-52475000D02*
X125125000Y-52475000D01*
X125125000Y-50525000D01*
X126275000Y-50525000D01*
X126275000Y-52475000D01*
X126275000Y-52475000D01*
G37*
X126275000Y-52475000D02*
X125125000Y-52475000D01*
X125125000Y-50525000D01*
X126275000Y-50525000D01*
X126275000Y-52475000D01*
G36*
X130075000Y-53875000D02*
X126925000Y-53875000D01*
X126925000Y-51725000D01*
X130075000Y-51725000D01*
X130075000Y-53875000D01*
X130075000Y-53875000D01*
G37*
X130075000Y-53875000D02*
X126925000Y-53875000D01*
X126925000Y-51725000D01*
X130075000Y-51725000D01*
X130075000Y-53875000D01*
G36*
X137075000Y-53869989D02*
X135630011Y-53869989D01*
X135604818Y-53875000D01*
X134125000Y-53875000D01*
X134125000Y-51725000D01*
X137075000Y-51725000D01*
X137075000Y-53869989D01*
X137075000Y-53869989D01*
G37*
X137075000Y-53869989D02*
X135630011Y-53869989D01*
X135604818Y-53875000D01*
X134125000Y-53875000D01*
X134125000Y-51725000D01*
X137075000Y-51725000D01*
X137075000Y-53869989D01*
D83*
G36*
X135650000Y-37650000D02*
X132900000Y-37650000D01*
X132900000Y-38519258D01*
X133432297Y-39850000D01*
X134150000Y-39850000D01*
X134150000Y-41650000D01*
X133350000Y-41650000D01*
X133350000Y-40213008D01*
X133289959Y-40142960D01*
X133283683Y-40110611D01*
X133217641Y-40010074D01*
X133118964Y-39943466D01*
X131795993Y-38400000D01*
X131200863Y-38400000D01*
X131205877Y-38375000D01*
X131205877Y-37600000D01*
X131600000Y-37600000D01*
X131600000Y-37205877D01*
X132375000Y-37205877D01*
X132489389Y-37183683D01*
X132502607Y-37175000D01*
X134500000Y-37175000D01*
X134500000Y-37174999D01*
X134635657Y-37148016D01*
X134662640Y-37142649D01*
X134662641Y-37142649D01*
X134726468Y-37100000D01*
X135650000Y-37100000D01*
X135650000Y-37650000D01*
X135650000Y-37650000D01*
G37*
X135650000Y-37650000D02*
X132900000Y-37650000D01*
X132900000Y-38519258D01*
X133432297Y-39850000D01*
X134150000Y-39850000D01*
X134150000Y-41650000D01*
X133350000Y-41650000D01*
X133350000Y-40213008D01*
X133289959Y-40142960D01*
X133283683Y-40110611D01*
X133217641Y-40010074D01*
X133118964Y-39943466D01*
X131795993Y-38400000D01*
X131200863Y-38400000D01*
X131205877Y-38375000D01*
X131205877Y-37600000D01*
X131600000Y-37600000D01*
X131600000Y-37205877D01*
X132375000Y-37205877D01*
X132489389Y-37183683D01*
X132502607Y-37175000D01*
X134500000Y-37175000D01*
X134500000Y-37174999D01*
X134635657Y-37148016D01*
X134662640Y-37142649D01*
X134662641Y-37142649D01*
X134726468Y-37100000D01*
X135650000Y-37100000D01*
X135650000Y-37650000D01*
G36*
X136150000Y-41900000D02*
X134850000Y-41900000D01*
X134850000Y-39650000D01*
X134630877Y-39650000D01*
X134608683Y-39535611D01*
X134542641Y-39435074D01*
X134442940Y-39367775D01*
X134325000Y-39344123D01*
X133660759Y-39344123D01*
X133350000Y-38567225D01*
X133350000Y-38120849D01*
X133400000Y-38130877D01*
X135600000Y-38130877D01*
X135714389Y-38108683D01*
X135727607Y-38100000D01*
X135999476Y-38100000D01*
X136118824Y-38100104D01*
X136119075Y-38100000D01*
X136150000Y-38100000D01*
X136150000Y-38250000D01*
X136150000Y-41900000D01*
X136150000Y-41900000D01*
G37*
X136150000Y-41900000D02*
X134850000Y-41900000D01*
X134850000Y-39650000D01*
X134630877Y-39650000D01*
X134608683Y-39535611D01*
X134542641Y-39435074D01*
X134442940Y-39367775D01*
X134325000Y-39344123D01*
X133660759Y-39344123D01*
X133350000Y-38567225D01*
X133350000Y-38120849D01*
X133400000Y-38130877D01*
X135600000Y-38130877D01*
X135714389Y-38108683D01*
X135727607Y-38100000D01*
X135999476Y-38100000D01*
X136118824Y-38100104D01*
X136119075Y-38100000D01*
X136150000Y-38100000D01*
X136150000Y-38250000D01*
X136150000Y-41900000D01*
G36*
X135400000Y-83650000D02*
X132900000Y-83650000D01*
X132900000Y-85041421D01*
X133167306Y-85308727D01*
X133167289Y-85329067D01*
X133258441Y-85549672D01*
X133427076Y-85718602D01*
X133647522Y-85810139D01*
X133668736Y-85810157D01*
X133708579Y-85850000D01*
X134150000Y-85850000D01*
X134150000Y-88150000D01*
X133350000Y-88150000D01*
X133350000Y-87208579D01*
X133100000Y-86958579D01*
X133100000Y-85950000D01*
X131754098Y-84940573D01*
X131717641Y-84885074D01*
X131617940Y-84817775D01*
X131580302Y-84810227D01*
X131173831Y-84505373D01*
X131182225Y-84492940D01*
X131205877Y-84375000D01*
X131205877Y-83600000D01*
X131600000Y-83600000D01*
X131600000Y-83205877D01*
X132375000Y-83205877D01*
X132489389Y-83183683D01*
X132502607Y-83175000D01*
X134500000Y-83175000D01*
X134500000Y-83174999D01*
X134635657Y-83148016D01*
X134662640Y-83142649D01*
X134662641Y-83142649D01*
X134726468Y-83100000D01*
X135400000Y-83100000D01*
X135400000Y-83650000D01*
X135400000Y-83650000D01*
G37*
X135400000Y-83650000D02*
X132900000Y-83650000D01*
X132900000Y-85041421D01*
X133167306Y-85308727D01*
X133167289Y-85329067D01*
X133258441Y-85549672D01*
X133427076Y-85718602D01*
X133647522Y-85810139D01*
X133668736Y-85810157D01*
X133708579Y-85850000D01*
X134150000Y-85850000D01*
X134150000Y-88150000D01*
X133350000Y-88150000D01*
X133350000Y-87208579D01*
X133100000Y-86958579D01*
X133100000Y-85950000D01*
X131754098Y-84940573D01*
X131717641Y-84885074D01*
X131617940Y-84817775D01*
X131580302Y-84810227D01*
X131173831Y-84505373D01*
X131182225Y-84492940D01*
X131205877Y-84375000D01*
X131205877Y-83600000D01*
X131600000Y-83600000D01*
X131600000Y-83205877D01*
X132375000Y-83205877D01*
X132489389Y-83183683D01*
X132502607Y-83175000D01*
X134500000Y-83175000D01*
X134500000Y-83174999D01*
X134635657Y-83148016D01*
X134662640Y-83142649D01*
X134662641Y-83142649D01*
X134726468Y-83100000D01*
X135400000Y-83100000D01*
X135400000Y-83650000D01*
G36*
X135900000Y-33222554D02*
X135885074Y-33232359D01*
X135817775Y-33332060D01*
X135794123Y-33450000D01*
X135794123Y-34050000D01*
X135816317Y-34164389D01*
X135839564Y-34199779D01*
X135817775Y-34232060D01*
X135794123Y-34350000D01*
X135794123Y-34825000D01*
X134600000Y-34825000D01*
X134600000Y-32600000D01*
X135900000Y-32600000D01*
X135900000Y-33222554D01*
X135900000Y-33222554D01*
G37*
X135900000Y-33222554D02*
X135885074Y-33232359D01*
X135817775Y-33332060D01*
X135794123Y-33450000D01*
X135794123Y-34050000D01*
X135816317Y-34164389D01*
X135839564Y-34199779D01*
X135817775Y-34232060D01*
X135794123Y-34350000D01*
X135794123Y-34825000D01*
X134600000Y-34825000D01*
X134600000Y-32600000D01*
X135900000Y-32600000D01*
X135900000Y-33222554D01*
D84*
G36*
X108625000Y-104608181D02*
X108484538Y-104550000D01*
X108315462Y-104550000D01*
X107981250Y-104550000D01*
X107875000Y-104656250D01*
X107875000Y-105237500D01*
X107895000Y-105237500D01*
X107895000Y-105762500D01*
X107875000Y-105762500D01*
X107875000Y-105895000D01*
X107125000Y-105895000D01*
X107125000Y-105762500D01*
X107105000Y-105762500D01*
X107105000Y-105237500D01*
X107125000Y-105237500D01*
X107125000Y-104656250D01*
X107018750Y-104550000D01*
X106684538Y-104550000D01*
X106515462Y-104550000D01*
X106375000Y-104608181D01*
X106375000Y-103375000D01*
X108625000Y-103375000D01*
X108625000Y-104608181D01*
X108625000Y-104608181D01*
G37*
X108625000Y-104608181D02*
X108484538Y-104550000D01*
X108315462Y-104550000D01*
X107981250Y-104550000D01*
X107875000Y-104656250D01*
X107875000Y-105237500D01*
X107895000Y-105237500D01*
X107895000Y-105762500D01*
X107875000Y-105762500D01*
X107875000Y-105895000D01*
X107125000Y-105895000D01*
X107125000Y-105762500D01*
X107105000Y-105762500D01*
X107105000Y-105237500D01*
X107125000Y-105237500D01*
X107125000Y-104656250D01*
X107018750Y-104550000D01*
X106684538Y-104550000D01*
X106515462Y-104550000D01*
X106375000Y-104608181D01*
X106375000Y-103375000D01*
X108625000Y-103375000D01*
X108625000Y-104608181D01*
G36*
X136125000Y-88125000D02*
X134875000Y-88125000D01*
X134875000Y-85625000D01*
X134625000Y-85625000D01*
X134625000Y-85375000D01*
X133905330Y-85375000D01*
X133375000Y-84844670D01*
X133375000Y-84375000D01*
X136125000Y-84375000D01*
X136125000Y-88125000D01*
X136125000Y-88125000D01*
G37*
X136125000Y-88125000D02*
X134875000Y-88125000D01*
X134875000Y-85625000D01*
X134625000Y-85625000D01*
X134625000Y-85375000D01*
X133905330Y-85375000D01*
X133375000Y-84844670D01*
X133375000Y-84375000D01*
X136125000Y-84375000D01*
X136125000Y-88125000D01*
G36*
X116375000Y-61417653D02*
X114125000Y-61417653D01*
X114125000Y-59125000D01*
X116375000Y-59125000D01*
X116375000Y-61417653D01*
X116375000Y-61417653D01*
G37*
X116375000Y-61417653D02*
X114125000Y-61417653D01*
X114125000Y-59125000D01*
X116375000Y-59125000D01*
X116375000Y-61417653D01*
G36*
X116375000Y-63625000D02*
X112875000Y-63625000D01*
X112875000Y-60875000D01*
X113625000Y-60875000D01*
X113625000Y-62125000D01*
X116375000Y-62125000D01*
X116375000Y-63625000D01*
X116375000Y-63625000D01*
G37*
X116375000Y-63625000D02*
X112875000Y-63625000D01*
X112875000Y-60875000D01*
X113625000Y-60875000D01*
X113625000Y-62125000D01*
X116375000Y-62125000D01*
X116375000Y-63625000D01*
G36*
X80875000Y-64625000D02*
X78625000Y-64625000D01*
X78625000Y-62125000D01*
X80875000Y-62125000D01*
X80875000Y-64625000D01*
X80875000Y-64625000D01*
G37*
X80875000Y-64625000D02*
X78625000Y-64625000D01*
X78625000Y-62125000D01*
X80875000Y-62125000D01*
X80875000Y-64625000D01*
G36*
X80875000Y-61625000D02*
X78625000Y-61625000D01*
X78625000Y-58875000D01*
X80875000Y-58875000D01*
X80875000Y-61625000D01*
X80875000Y-61625000D01*
G37*
X80875000Y-61625000D02*
X78625000Y-61625000D01*
X78625000Y-58875000D01*
X80875000Y-58875000D01*
X80875000Y-61625000D01*
G36*
X73875000Y-37875000D02*
X63125000Y-37875000D01*
X63125000Y-19125000D01*
X73875000Y-19125000D01*
X73875000Y-37875000D01*
X73875000Y-37875000D01*
G37*
X73875000Y-37875000D02*
X63125000Y-37875000D01*
X63125000Y-19125000D01*
X73875000Y-19125000D01*
X73875000Y-37875000D01*
M02*
